<svg xmlns="http://www.w3.org/2000/svg" viewBox="0 0 86.51 103.9"><defs><style>.cls-1{fill:#3a1175;}</style></defs><title>Asset 23</title><g id="Layer_2" data-name="Layer 2"><g id="Layer_57" data-name="Layer 57"><path class="cls-1" d="M30.09,16.81a12.09,12.09,0,0,1,2.64,5.75c.33,2.33-.51,4-1,6.23-1,4.67,4.21,9.89,8.76,6.74,8.58-5.94,4.31-21-2.44-26.68a5.63,5.63,0,0,0-8,8Z"/><path class="cls-1" d="M37.24,25.53C38,18.25,28.49-1.85,19.56,8.9c-6.31,7.59,4.76,21.94,13.75,17.47C42.09,22,37,4.19,28.31,2.65,23.29,1.76,17.6,6.41,16,11,14,17,18.6,23.14,22.2,27.43c3.3,3.94,8.41,6.81,13.48,4.5C42.14,29,40.29,21.57,36.74,17.1c-3.09-3.89-7.91-6.78-13-6.87-6.12-.12-10.82,4.8-9.52,11,2.09,10,17.14,18.84,23.88,7.92C44.67,18.5,35.39,5,24.55,2.65,11.78-.1.68,10.71,4.79,23.61c3.68,11.57,21.68,22.33,31.31,11a6.56,6.56,0,0,0-9.27-9.27c-2.51,2.17-8.12-2.85-9.18-4.87-1.72-3.28-.13-6.59,3.82-6.31A7.31,7.31,0,0,1,26.56,17a9.43,9.43,0,0,1,1.36,3.44s.09,2.74.6,1.71c.88,0,.77-.34-.34-.92l-.93-1-.77-1-2.33,3.44c0,.09,2.37,1.49,2.56,1.62,1.5.95.3,2.22,1,.31l2.83-3.68c2-.88,1.49,0,.87-1.62-.47-1.21-1.85-2.29-2.59-3.37-.38-.56-1.24-2.53-1.35-1.89s1.55-1,2.1-1.11l-3.94-.52c.61.38,2.87,5.93,2.14,6q2.46-1.67.06-3.16-6.28-1-3.2,1.28c.49,1.65,2.62,3.77,3.43,5.44s1.56,3.66,2.43,5.46c1.73,3.58,6.48,1.39,6.79-1.84Z"/><path class="cls-1" d="M7.92,24c-1.51,4.34.84,9.52,4.5,12a10.65,10.65,0,0,0,12.46-.67c3.5-2.65,3.56-6.92,0-9.56a6.6,6.6,0,0,0-6.26-.53,18.53,18.53,0,0,1-1.94.9c-.12-.1,1.08-.32,1-.29.36-.2.51.66.18-.06a6.32,6.32,0,0,0-.78-.7c-.58-.67-.87-1.47-1.51-2.12a13.63,13.63,0,0,0-1.83-1.37c-2.25-1.56-5.07.15-5.84,2.38Z"/><path class="cls-1" d="M8,32.77l.7.28a5.25,5.25,0,0,0,2.78,0,3.91,3.91,0,0,0,1.78-.93,4,4,0,0,0,1.35-1.47A5.23,5.23,0,0,0,15.3,28l-.09-.74a7.58,7.58,0,0,0-.78-2.88,6.09,6.09,0,0,0-2-2.05,6,6,0,0,0-2.88-.78A5.64,5.64,0,0,0,6,22.79a5.41,5.41,0,0,0-1.76,2.28,2.78,2.78,0,0,0-.39,1.44,3,3,0,0,0,0,1.52,2.83,2.83,0,0,0,.39,1.44A2.89,2.89,0,0,0,5,30.73a2.77,2.77,0,0,0,1,1,4.28,4.28,0,0,0,1.94,1Z"/><path class="cls-1" d="M28.37,37.77c.69,4.89,4.47,9.13,7.36,13,2.72,3.61,5.42,7.22,8.18,10.79,6,7.77,11.68,16.19,18.53,23.23,4.79,4.92,13.2-1.43,9.56-7.38-5.23-8.56-12.14-16.32-18.32-24.23-5.45-7-11.39-17.41-19.82-20.86-3.55-1.45-5.89,2.59-5.49,5.48Z"/><path class="cls-1" d="M53.11,70.1C58.83,77,65.86,82.6,72.61,88.43c4.82,4.16,12.51-1.06,9.09-7-6-10.51-12.43-20.67-24.26-25.12-5.12-1.92-9.07,5.51-5.26,9A93.18,93.18,0,0,0,65.82,75.91c2,1.27,5,2.35,5.44,4.89A5.81,5.81,0,0,1,70,84.71L69,86.1c-1.92,1.4-1.33,2,1.77,1.82L72.43,92l-.1-1.17L66.68,96.5c7,.28,13.92-.59,16.4-8.14,1.94-5.9-7.1-9.71-10-4.23-.19.36-3.34,4.72-3.48,4.4h2.73l-2-2.71a81.54,81.54,0,0,1-6-10.11C61.47,70,51.37,74,53.8,80.17A76.14,76.14,0,0,0,62,95.65l4.92-8.56C65.62,87,63,77.68,62.43,76.4a98.55,98.55,0,0,0-5.17-10.52C53.6,59.46,48.59,50.45,41.85,47c-4.79-2.43-9,2.36-7,6.95s6.15,8,9,12a94.87,94.87,0,0,1,7.71,12.93c3.94,8,4.67,18.42,15.33,19.58,4.23.46,7.18-5.2,4.91-8.56A68.34,68.34,0,0,1,64.94,77.1L54.38,81.55c2.79,5.48,7,14.62,12.94,17.34,6.46,3,12.53-4.12,15.2-9.21l-10-4.24c-.46,1.42-3.55.19-4.31,0-2.63-.8-6.55,1-7,4-.81,6,3.73,11.52,10.25,9.26,5.09-1.77,9.5-8,10.89-13a14.06,14.06,0,0,0-5.49-15.7c-5.74-4.17-11.77-7.3-17.06-12.18l-5.26,9c9,3.35,13.32,12.44,17.14,20.54l9.09-7C74,73.82,66.73,67.47,58.19,63.51a4.21,4.21,0,0,0-5.08,6.59Z"/><path d="M23.94,5.41c2.53-.57,6.62,1.5,8.78,2.64a18,18,0,0,1,7.49,7,12.64,12.64,0,0,1,1.42,9.42c-.77,2.86-2.79,4.62-4.27,7.05a2.28,2.28,0,0,0,2.55,3.31c9.23-2.59,9.15-15.93,5.24-22.67a24.34,24.34,0,0,0-11-9.66C30.61.92,25.68-1.14,22,.77c-2.65,1.36-.76,5.26,2,4.64Z"/><path d="M28.4,17.91C33.21,28.1,40.79,37.49,47.58,46.43a126.85,126.85,0,0,0,9.29,11.5c3.27,3.38,7.67,4.9,11.17,7.95,2.35,2.05,5.33-.48,4.15-3.2-1.77-4-6-5.09-9.23-7.69-4.09-3.31-7.22-8.25-10.47-12.34C45.4,33.72,39.39,23.78,32,15.15c-1.79-2.09-4.62.57-3.58,2.76Z"/><path d="M20.38,26.92l0-1.42c.07-3.24-5.29-2.4-4.25.57,1.82,5.24,5.1,10,7.87,14.81q4.55,7.83,9.17,15.61c5.9,10,11.4,20.57,18.09,30a2.68,2.68,0,0,0,4.62-2.7C50.71,73.46,44,63.62,38,53.7c-3-4.89-5.91-9.79-8.83-14.7s-5.61-10.54-9.36-15l-1.53,3.7,1.23.16c.49.06.9-.47.91-.91Z"/><path d="M26.16,37c-3.91-2.77-9.2.2-13.47-2C8,32.67,6.39,27.49,5.08,22.92,4.56,21.09,1.6,20.4.71,22.35-2,28.24,3.56,35.26,8.16,38.69c4.43,3.31,13.93,4.34,18.3.6a1.46,1.46,0,0,0-.3-2.28Z"/><path d="M69.64,66.77c2.29,2.78,5.62,4.43,8,7.39a21.44,21.44,0,0,1,3.08,4.55c1.4,3.4,0,6.37-1.27,9.49s3.21,6,4.72,2.76c3-6.42,3.62-11.69-.69-17.62-2.7-3.7-7.88-10.36-13.19-8.85a1.39,1.39,0,0,0-.6,2.28Z"/><path d="M52.25,85.62a21.35,21.35,0,0,0,7.41,15.62c1.93,1.64,4.23,3,6.87,2.57s4.17-2.51,3.58-5.11a2.21,2.21,0,0,0-3.19-1.3c-1.57.67-2.22.49-3.55-.58a16.76,16.76,0,0,1-3.25-3.58A21.14,21.14,0,0,1,57,85c-.51-2.69-4.8-2-4.74.64Z"/></g></g></svg>