<svg xmlns="http://www.w3.org/2000/svg" viewBox="0 0 64.19 75.61"><defs><style>.cls-1{fill:#3a1175;}</style></defs><title>Asset 18</title><g id="Layer_2" data-name="Layer 2"><g id="Layer_45" data-name="Layer 45"><path class="cls-1" d="M5.87,58.93C2.14,63.28,2.93,72,9.73,72.74a15.7,15.7,0,0,0,8.56-2c2.58-1.53,3.13-4.77,4-7.41l-7.94,1c.13.32.16.23.09-.28l1.09-1.86c.65-.77-.1-.17-.83,0s-1.25.25-1.88.34h2.31l-.56-.1,1.92,1.12-.36-.44,1.12,4.26.11-.51-5.4,3.06c6.36,2.15,11.61-2.5,12.42-8.62h-9c0-.58,1.66-1.61,1-1.85l1.26,1.78a1.14,1.14,0,0,1,.27-.65C18.6,60,19,58.94,20,58.33L13.62,52a5.57,5.57,0,0,1-2.42,1.86c-4.14,2-2.15,8.89,2.34,8.65a11.57,11.57,0,0,0,4-.62c3.72-1.53,4.53-7.19,0-8.41a11.06,11.06,0,0,0-4-.26l2.35,8.66a15.11,15.11,0,0,0,5.73-5.21c2.58-3.79-2.55-8.88-6.34-6.34-4.72,3.17-10.07,10.68-5,16,4.35,4.5,14.56,2.16,14.05-5-.41-5.9-8.41-5.73-9,0-.05.46-.74.24-1,.16-2.07-.55-5.06.7-5.4,3.06S9,69.1,11.2,70.41c2.05,1.2,4.5.44,6.59-.19,4.29-1.29,6.18-5,4.48-9.2s-6.72-4.09-8.38,0c-.06.13-1.11,2.52-1.05,2.57s2.53-1.23-.42-.55l-1.05.25q-1.78.23,1.17,1.41c.19-.2.06-1.47.11-1.81a4.24,4.24,0,0,0-1.86-4.59,4.09,4.09,0,0,0-4.92.63Z"/><path class="cls-1" d="M17.6,63.83c1.3-2.29,3.56-4.12,5.17-6.22s3.42-4.48,5.08-6.75c2.73-3.75,7.62-8.36,7-13.23-.28-2.24-1.94-3.82-4.31-3.29-5.22,1.18-7.92,7.68-10.7,11.85-3.18,4.77-6.64,9.55-8.17,15.15-.95,3.51,4.08,5.71,5.92,2.49Z"/><path class="cls-1" d="M17.72,53.06c-.79.8-1.74,1.09-2.34,2.27a7.93,7.93,0,0,0-1,3.75,9.54,9.54,0,0,0,.83,3.48c0,.13.48,1.29.52,1.29s3.12-3.54.16-1.51a4,4,0,0,0-1.39,5.29,4.91,4.91,0,0,0,6,2.23,5.93,5.93,0,0,0,3.93-5.55c.05-2.1-.81-3.68-1.75-5.49a10.6,10.6,0,0,1-.79-2c-.08-.32-.37-2.68-.58-1.6.39-2-2-3.73-3.62-2.11Z"/><path class="cls-1" d="M31.92,42.65c4.31-7.73,11.83-12.71,15.65-20.91.73-1.56,1.4-3.81,2.64-5,1.63-1.61,3.27-.16,1.75-2.68-1.39-2.3-1.28-1-2.68.48-3.2,3.41-9.05,5.95-10,10.71-.41,2,.56,4.36,2.73,4.8,4.4.91,6.94-1.45,10.2-4.16,3.07-2.57,6.8-5.69,8.38-9.47,3-7.2-3.66-12.33-10.55-11C41.88,7,40.38,14.27,36.94,20.49c-3.73,6.73-9.17,11.91-11.09,19.6C25,43.67,30,46,31.92,42.65Z"/><path class="cls-1" d="M48,26.89a22,22,0,0,0,7.74-2c2.52-1,5.29-2.06,6.79-4.46,3.06-4.88-.45-11.51-6.26-11.2A3.94,3.94,0,0,0,55.22,17c.48.16.19.49.31.16-.07.2-.25-.93-.09-.8a16.06,16.06,0,0,0-2.65,1.6c-2.24,1.44-4.71,2.66-6.62,4.54A2.62,2.62,0,0,0,48,26.89Z"/><path d="M5.72,66.64c-.45-1.9-1.13-3.46-.48-5.45.49-1.5,1.55-3,3.27-2.24.92.41,2.47.19,2.64-1.07a3.64,3.64,0,0,0-2.89-4.36c-2.32-.53-4.53.79-5.95,2.54-2.72,3.34-3.38,9.4-.11,12.63a2.12,2.12,0,0,0,3.52-2Z"/><path d="M20.18,74.65c1.15-2.22,3.41-2.63,5.23-4.13a9.06,9.06,0,0,0,3.1-5c.73-3.29-.68-8.45-4.47-9.15a2.14,2.14,0,0,0-2.38,3.1c.62,1.46,2,2.41,2.15,4.11.14,2.18-1.37,3.32-3,4.34-2.23,1.4-4.34,2.87-4.23,5.79.07,1.82,2.69,2.76,3.61,1Z"/><path d="M8.63,57.05C18.89,52.55,25.25,40.16,31,31.19a109.56,109.56,0,0,1,11.23-15,82,82,0,0,0,5.1-6.51c2.51-3.35,10.6-7.22,11.29.27.32,3.53,5.89,3.57,5.56,0C63.6,3.76,58.48-.79,52.13.11A13,13,0,0,0,44.2,4.64C41.31,8,38.81,11.72,35.93,15.12c-5,5.92-9,12.6-13.11,19.15-4.74,7.52-10.34,13.66-16,20.37a1.54,1.54,0,0,0,1.85,2.41Z"/><path d="M25.23,60.57c2.67-4,4.28-8.7,6.89-12.8a53.31,53.31,0,0,1,10.11-11.6,57.08,57.08,0,0,1,12.44-7.93c3.89-1.91,7.39-4.53,7.1-9.26a2.83,2.83,0,0,0-5.65,0c-.32,3.81-10.39,7.3-13.37,9.45A55.19,55.19,0,0,0,33,37.32C28,43.26,22.19,51.65,22.23,59.76a1.62,1.62,0,0,0,3,.81Z"/></g></g></svg>