<svg xmlns="http://www.w3.org/2000/svg" viewBox="0 0 141.29 159.94"><defs><style>.cls-1{fill:#3a1175;}.cls-2{fill:#f7b219;}</style></defs><title>Asset 22</title><g id="Layer_2" data-name="Layer 2"><g id="Layer_58" data-name="Layer 58"><path class="cls-1" d="M57.7,115.67a5.69,5.69,0,0,1,4.16-.54l-1.32-2.32c-.46,1.18-6.23,1.48-7.14,1.53l.66,4.89a128.3,128.3,0,0,1,13.5-2.36l-1.11-4.1c-2.43,1.12-3.62,1.33-5.46-.51a1.93,1.93,0,0,0-3.2.85,4.38,4.38,0,0,0,3.08,5c2.72,1,5.44-.24,7.8-1.55,1.87-1,1.09-4.21-1.11-4.1a96.37,96.37,0,0,0-14.83,2c-3.12.65-1.81,5.5,1.33,4.8s9.36-1.48,10.12-5.42a1.91,1.91,0,0,0-1.82-2.39A11.21,11.21,0,0,0,56,112.78c-1.9,1-.22,3.82,1.69,2.89Z"/><path class="cls-1" d="M57.1,117.74l-.2.08,2.33.61-.13-.22-.29,2.28c1.9-1.67,5.1-3.64,5.12-6.48a2.15,2.15,0,0,0-1.08-1.88,14.84,14.84,0,0,0-4.71-1.24l-3.5-.59-1.4-.24c-1.42-.5-1.79-.49-1.11,0a24.17,24.17,0,0,0,2.59-.88c1.24-.55,2.51-.86,3.78-1.28,3.63-1.22-2,.54-3.13.74l2.23,3.84a21.54,21.54,0,0,1,6.84-6.18l-2-3.39a13.19,13.19,0,0,1-4.14,1.81c-1.58.29-5.36.39-3.41-1.7a7.46,7.46,0,0,1,3.64-1.69c.41-.11,4.47-.94,2.76.92a1.45,1.45,0,0,0,1,2.45,4,4,0,0,0,2.62-6.94c-2.88-3-9.67-.85-12.53,1.23s-4.34,6.34-1.11,9c3.84,3.11,9.5.47,13.14-1.65,2.21-1.29.27-4.45-2-3.39A22.23,22.23,0,0,0,54,109.72c-1.31,1.75.84,3.73,2.59,3.37,3.27-.67,9.48-2.8,8.67-7.19s-7.2-2.73-10-1.77-9,3.29-7.69,7.52c1.47,4.64,9.7,2.53,13.11,4.24L59.57,114c0-1.13-1.2,1.29-1.7,1.79s-1.19,1-1.76,1.56a2.07,2.07,0,0,0-.53,2l.09.28A2,2,0,0,0,58,121l.24,0a1.72,1.72,0,0,0,1.25-1.65v-.2a1.59,1.59,0,0,0-2.36-1.35Z"/><path class="cls-1" d="M47.22,71.07l1-1.32L42,68.93c1.55,6.36,2.56,13.28,1.12,19.81l7.48,1c-.2-5.08.09-11.74-4.27-15.26a2.3,2.3,0,0,0-3.87,1.6c-.56,4.24,1.52,8.33.66,12.65a3.81,3.81,0,0,0,7.35,2c1.45-3.91,1-8.73.71-12.85s-.92-8.1-2.94-11.61c-2.79-4.85-9.59,1.77-4.67,4.67l1.23.74a1.82,1.82,0,0,0,2.42-.64Z"/><path class="cls-1" d="M37.82,50.23a8.82,8.82,0,0,1,.63-2.35c.27-1,.63-1.68.9-2.66L36.11,47.7h.26c2.85.14,4.29-3.66,2.31-5.57L38.49,42a3.4,3.4,0,0,0-5.29.68,9.57,9.57,0,0,0-1,4.41,10.63,10.63,0,0,0,1.09,3.8,2.33,2.33,0,0,0,2.52,1.64,2.29,2.29,0,0,0,2-2.25Z"/><path class="cls-1" d="M45.12,78.91c-.07,6.28,6.2,13.61,10,18.32,3.37,4.22,9.89,13.27,16,12.47a2.32,2.32,0,0,0,2.27-2.27c-.23-5.8-8.1-10.2-11.59-14.38a81,81,0,0,1-6.46-9.25c-1.77-2.85-2.92-5.63-5.87-7.36a2.88,2.88,0,0,0-4.29,2.47Z"/><path class="cls-1" d="M50.7,98.64c2.38,4.35,7,7.35,10,11.34l5.58-4.31a59.78,59.78,0,0,0-9.27-6.45c-3.28-1.77-7,2.63-4.11,5.34A59.37,59.37,0,0,0,70,116c3.12,1.31,5.87-3.61,3.32-5.7-1.87-1.54-3.47-3.29-5.46-4.7-2.88-2.06-5.66,2.25-3.59,4.65a52.74,52.74,0,0,1,6.8,9c1.35,2.39,5.41,1.41,5.28-1.43-.23-5.23-4.37-9.37-8.49-12.18l-3,5.11a5,5,0,0,1,2.75,2.91l5-3.86c-5.22-3.08-10.24-6-14.86-10l-4.12,5.34a29.64,29.64,0,0,1,7.67,5.61c3.26,3.39,7.75-1.53,5-5a50.15,50.15,0,0,0-4.89-5.51c-1.65-1.61-3.73-2.91-4.9-4.93-2.19-3.76-7.93-.41-5.83,3.41Z"/><path class="cls-1" d="M79.92,129a22.36,22.36,0,0,0-1-4.58,11.66,11.66,0,0,1,1.35-8.26,9.89,9.89,0,0,1,4.08-4.34c1.5-.84,2.69-1.26,3.63-2.79a2.34,2.34,0,0,0-.35-2.75c-4.65-5.93-12.06,3.28-13.88,7.3-2.17,4.76-3.93,16.25,3.72,17.32a2,2,0,0,0,2.49-1.9Z"/><path class="cls-1" d="M78.06,120.3c4.54-.75,8.72-3.56,13.39-2.09s6.36-5.5,2-7.16c-5.77-2.18-12.9.09-17.78,3.54a3.14,3.14,0,0,0,2.41,5.71Z"/><path class="cls-1" d="M68.56,111.84c3.34,1.06,7.25.64,10.73,1.16,2.84.43,6.34,1.46,9,.06a3.47,3.47,0,0,0,1.55-3.82l0-.19a3.14,3.14,0,0,0-3-2.25,4,4,0,0,0-1.73.34,1.85,1.85,0,0,0-1.33,1.74l.1.17,3.77-2.14c.7.11-.35-.09-.58-.21a14.36,14.36,0,0,0-3.12-.91,45.09,45.09,0,0,0-5.55-.86c-3.52-.36-7.5-.72-10.61,1.2a3.16,3.16,0,0,0,.75,5.71Z"/><path class="cls-1" d="M72.58,104.64c-5-1.47-9.44-5.93-9.63-11.38l-5.11,2.93c3.74,1.76,7.57,3.33,11.32,5.06,2.84,1.31,8,2.87,9.67,5.8l3-5.33c-4.22.07-10-4.92-13.51-7.06C64,92,59.91,89.07,55.84,86l-3.06,5.23c5.6,4.11,11.79,7.48,17.65,11.18,5.46,3.45,10.83,8,16.89,10.26,3.15,1.18,4.92-3.09,3-5.22-4.4-5-11.39-8.44-17-11.89C67.47,92,61.49,88.3,55.12,85.69c-3.28-1.35-5.11,3.78-2.34,5.53,5.38,3.4,10.53,7.06,15.79,10.62,4,2.73,8.3,6.58,13.31,7,3,.22,4-3.11,3.06-5.33-1.78-4-5.69-5.62-9.44-7.39a117.19,117.19,0,0,0-15-6.1,3.43,3.43,0,0,0-4.18,4.18C58.42,101.94,64,107.24,72.13,108c2,.17,2.24-2.82.45-3.34Z"/><path class="cls-1" d="M79,102.5c-1.31.1-1.16.35.46.75.72.34,1.43.71,2.12,1.1,1.22.67,2.42,1.4,3.6,2.15s2.34,1.55,3.49,2.35q.87.6,1.74,1.23c1,1.18,1.1.76.28-1.23a1.71,1.71,0,0,0,.26,2.06,5.06,5.06,0,0,0,2.64,1.8c2.31.4,4.68-1,4.67-3.55,0-4.69-6.84-7.86-10.25-9.89-3.83-2.28-9.25-5.55-13.32-2.36-3.15,2.48,1,7.87,4.31,5.59Z"/><path class="cls-1" d="M87.58,105.57a6.24,6.24,0,0,0-.34-1.91c0-1-.19-1.18-.71-.6-.26.41-.42.51-.49.29,0,.34,3.08,1.73,3.55,2,1.63,1.09,4.62,3.58,4.88,5.42v-2.06L96.15,107c-1.76.65-3.1,2.8-1.87,4.6a4.32,4.32,0,0,0,1.8,1.72,4,4,0,0,0,4.51-.58c2.87-2.23,1-6.14-.68-8.43a19.3,19.3,0,0,0-7.44-6c-2.49-1.14-6-2-8.16.29s0,4.86.47,7.37c.29,1.57,3,1.23,2.8-.38Z"/><path class="cls-1" d="M91.12,104.62a13.87,13.87,0,0,1,3.9.55,3.91,3.91,0,0,1,1.5.81c1.32-.58,1.73-1.33,1.25-2.24-.27-.3-.27-.55,0-.76a5.68,5.68,0,0,1,1.66-1,4.79,4.79,0,0,1,3.55-.37V95c-2.67,1-5.34,2.1-8,3.21l3.43,5.89a16.62,16.62,0,0,1,3.3-3.19,15.68,15.68,0,0,1,1.57-1,8.33,8.33,0,0,1,1.25-.58c.74-.18.58-.39-.5-.62l-.54-4.2-.38.78a3.12,3.12,0,0,0,3.48,4.53l.82-.21c2.68-.7,3.16-3.89,1.53-5.8-4.26-5-12.6,1.8-15.51,5.27-2,2.36-.17,7.36,3.42,5.88,2.94-1.2,5.85-2.46,8.76-3.73,2.72-1.18,1.9-5.67-.82-6.27-4.4-1-9.49,1.5-11.86,5.32a7.42,7.42,0,0,0,3.35,10.88c4.93,2,9.12-3,7.45-7.69-1.82-5.16-7.89-6.08-12.62-6.3s-4.71,7.07,0,7.39Z"/><path class="cls-1" d="M92.06,108.53c-.17,2,1.1,3.38,1.34,5.25.28,2.13.07,4.07,1.14,6l3.88-5c-.34-.09-1.08-1-1.26-1.18l-4.22,4.22a39.35,39.35,0,0,0,5,3.36,6.59,6.59,0,0,0,5.67.94,4.53,4.53,0,0,0,.51-8.45,2.94,2.94,0,0,0-4.27,3.28,7.09,7.09,0,0,0,3.76,5l1.53-5.66a9.7,9.7,0,0,1-4.15-1.87c-.17-.11-1.12-.67-1.12-.66-.1-.34.95-1.39,1.14-1.61,2.66-3.15-1.79-7.72-4.59-4.58-2.22,2.5-3.9,6-1.53,9,2.06,2.63,5.8,2.54,8.1,4.88,2.78,2.81,7.25-1.79,4.3-4.3a7.55,7.55,0,0,1-2.13-2.44l-2.51,4.37.39,0-2-.82a4.41,4.41,0,0,1,.63-2.85c.13-.19-.05-.31-.56-.34a12.38,12.38,0,0,0-1.8-1,11.56,11.56,0,0,0-4.27-1.33c-2.6-.28-3.91,3.44-2.11,5.1A8.09,8.09,0,0,1,94.19,119c1.26,4.32,7.36,2.46,6.63-1.83-.27-1.52-.42-3.1-.73-4.62a9.12,9.12,0,0,0-.68-2.09c-.21-.48-1-1.43-1-1.92,0-4.14-6-4-6.34,0Z"/><path class="cls-1" d="M95.9,114a10,10,0,0,0,1.53,3,3.71,3.71,0,0,0,4.07,1.66l.08,0-2.6-.34q-.75-.6.36.27a6.49,6.49,0,0,0,1,.38,2.94,2.94,0,0,0,2.65-.54,3.14,3.14,0,0,0,1.2-2.39,5.21,5.21,0,0,0-.21-1.52l-.34,2.59.06-.09a3.48,3.48,0,0,0,0-3.63l-.86-1.24A7.44,7.44,0,0,0,102,111a10.7,10.7,0,0,0-1.09-.82,3.34,3.34,0,0,0-3.75.26A3.43,3.43,0,0,0,95.9,114Z"/><path class="cls-2" d="M70.47,134.62c.1-3.52-.74-6.83-1.38-10.27a3.61,3.61,0,0,0-4-2.61,3.69,3.69,0,0,0-3.16,3.58c-.32,3.74,1.86,7.59,4,10.54a2.48,2.48,0,0,0,4.57-1.24Z"/><path class="cls-2" d="M98.07,139.78c.05-4,.21-6.91-1.89-10.49a49.53,49.53,0,0,0-2.87-4.16c-.45-.61-.9-1.21-1.33-1.83-.32-.46-.64-.93-.94-1.4-.75-1.37-.89-.5-.4,2.61,1.52-2.88-.34-6.7-3.81-6.64h-.36a4.72,4.72,0,0,0-4.62,4.63c-.11,3.61,3.07,6.31,5.28,8.82a41.53,41.53,0,0,1,6.38,9.7c1,2.31,4.54,1,4.56-1.24Z"/><path class="cls-2" d="M88.17,126.73c.28.27.52.58.79.85s.34.28.5.43.55.63.26.26.07.13.11.2.21.39.32.59c-.13-.24-.18-.46-.06-.08s.17.5.24.76a3.41,3.41,0,0,0,4.15,2.36A3.48,3.48,0,0,0,96.84,128c-.4-2.81-2.84-5.87-5.73-6.27a3.15,3.15,0,0,0-3.41,1.39,3.08,3.08,0,0,0,.47,3.66Z"/><path class="cls-2" d="M111.81,110.76c1.35,1.75,1.39-2.53,1.71-3L115.8,106a4.14,4.14,0,0,1-4.43-1.2l1.11,2.7-.06-.48-1.15,2.77a3.91,3.91,0,0,0,2.34-.8l-.46-3.58c.33-1.54-1.25.34-1.6-.25l.42,3.18c-.43,1.32,7.88,4.11,9.49,4.86a44.14,44.14,0,0,1,9.5,6.49c3.44,2.9,10-1.07,6.79-5.24a31,31,0,0,0-9.39-8.33A63.55,63.55,0,0,0,115,100.29c-6.74-1.9-15.9,5.76-8.62,11.44,4.44,3.45,16,2.14,15.83-5.07-.18-8.65-13.78-6.84-17.14-1.61a3.88,3.88,0,0,0,0,4c2.1,3.38,8.42,4.83,12.17,4.49a5.9,5.9,0,0,0,3.47-10.29c-4-3.88-10.66-2.39-14.16,1.36s-3.3,10.06,2.35,11.12c3,.57,4.67-2.6,2.87-4.93Z"/><path class="cls-1" d="M54.67,99.33c-1.72-.48-3.42-1-5.12-1.51a3.66,3.66,0,0,0-4.46,2.53,3.7,3.7,0,0,0,2.53,4.46q2.55.8,5.12,1.51a3.63,3.63,0,1,0,1.93-7Z"/><path class="cls-1" d="M56.94,106.75c-.94-.55-1.91-1.08-2.89-1.59a3.63,3.63,0,1,0-3.66,6.26c1,.51,2,1,2.89,1.59a3.63,3.63,0,0,0,3.66-6.26Z"/><path class="cls-1" d="M56.52,133.31c-1.12,1.88-2,3.19-4,4.15l3.83,3.83c3.78-6.57,1.78-13.06-2.85-18.6-1.94-2.33-4.49-4.49-7.68-4.54s-6.19,2.41-5.16,5.79A2.88,2.88,0,0,0,43.37,126c.8-.08,2-.64,2.75-.5,1.42.25,3,2.2,3.87,3.16,2.11,2.31,5,6.57,1.93,9.21-2.08,1.79.12,5.61,2.72,4.67,3.77-1.37,6.47-4.64,5.61-8.77-.37-1.77-2.87-1.92-3.73-.49Z"/><path class="cls-1" d="M48.9,122a9.49,9.49,0,0,0-8.77,2.8,7.25,7.25,0,0,0-1.73,4.12,6.56,6.56,0,0,0-.09.88c.69-.87.73-1.07.13-.61a6,6,0,0,0-1.61,1.25c-2.67,2.74,1.3,6.56,4.14,4.15.65-.55,1.55-.75,2.19-1.4.89-.91.92-1.93,1.34-3,.61-1.59,3.66-1.95,5.08-3,1.82-1.33,1.9-4.57-.68-5.18Z"/><path class="cls-1" d="M52.49,127.72c6.1-8.45-2.26-19.33-4.45-27.62-1-3.86-7.6-3.23-7.17,1A91.08,91.08,0,0,0,44,118.71c1.35,4.43,7.56,2.54,6.82-1.88C50,112,50.26,106,45.13,104a3.44,3.44,0,0,0-3.89,1.59,20.66,20.66,0,0,0-1.68,15.2c1.15,4.37,7.77,2.53,6.75-1.86-1.3-5.62-4.49-9.68-9.17-13-2.44-1.7-6.35,1.17-5.23,4,1.63,4.17,3.46,8.33,4.77,12.61l.35-2.68-.25.59,2.84-1.63-.6.08,3.09,2.35a14.94,14.94,0,0,0-6.53-10.52C33,109,29.78,112.43,31.37,115a23.91,23.91,0,0,0,3.69,4.58c2.52,2.47,6.73-.68,4.91-3.79-1.48-2.54-3.1-5.11-5.61-6.75a8.81,8.81,0,0,0-3.72-1.59q-2.36-1.09-.54,1.2a3.65,3.65,0,0,1,3.35.78,2.62,2.62,0,0,0,4.35-1.15l.24-.94a3.13,3.13,0,0,0-.8-3c-3.21-2.93-12.43-3-13.94,2a5.61,5.61,0,0,0,2.39,6.27c1.47,1,3.41.81,4.91,1.65,1.84,1,2.91,3,4,4.74l4.91-3.79a12.51,12.51,0,0,1-2.8-3.26l-4.21,4.2c2.48,1.43,3.56,3.15,3.36,6.06a3.21,3.21,0,0,0,2.34,3.08c10.46,1.92,1.83-14.35.25-18l-4.88,4.87a13.08,13.08,0,0,1,6,8.67l6.75-1.86a13.13,13.13,0,0,1,.88-9.86L43.3,110.6c-.79-.33.53,7.23.68,8.11l6.82-1.88a51.61,51.61,0,0,1-2.63-15.76L41,102c1.87,6.93,9.86,16.24,6.85,23.72-1.15,2.86,3.09,4.1,4.64,2Z"/><path class="cls-1" d="M52.14,105.49a51.73,51.73,0,0,0-4.36-3.6L45,108.52l7.94,2.22c4.5,1.26,6.42-5.73,1.93-7l-7.94-2.23a3.65,3.65,0,0,0-4.28,2.1,3.71,3.71,0,0,0,1.49,4.53A33.93,33.93,0,0,1,47,110.62c3.4,3.19,8.54-1.92,5.13-5.13Z"/><path class="cls-1" d="M45.62,88.61c1.21,5.17,2.5,10.31,3.8,15.46l6.06-3.53c-4-4.25-5.94-10.16-8.71-15.24-2-3.68-7.6-1.14-6.63,2.79a86.8,86.8,0,0,1,2.42,15.54c.24,3.87,6.21,5.18,7.12,1a18,18,0,0,0,.43-4.91c-.27-4.63-7.53-4.66-7.25,0a10.27,10.27,0,0,1-.17,3l7.12,1a98.22,98.22,0,0,0-2.67-17.47L40.51,89c3.11,5.7,5.29,11.94,9.85,16.72,2.55,2.68,6.92-.11,6.06-3.53-1.31-5.14-2.6-10.29-3.81-15.46-1.06-4.54-8-2.62-7,1.93Z"/><path class="cls-1" d="M58.11,94.62A56.62,56.62,0,0,1,52.38,86c-2.24-4.1-8.5-.44-6.26,3.66A66.09,66.09,0,0,0,53,99.74c1.24,1.52,3.85,1.29,5.13,0a3.7,3.7,0,0,0,0-5.12Z"/><path class="cls-1" d="M51.45,76c-7.39-12.35-8.93-26.83-8.61-41l-7.12,1c4.87,15.72,8.57,31.66,3.11,47.75-1.5,4.42,5.5,6.32,7,1.92C51.69,68.39,48,51,42.71,34.06a3.64,3.64,0,0,0-7.12,1c-.34,15.38,1.57,31.2,9.6,44.62,2.4,4,8.67.36,6.26-3.66Z"/><path class="cls-1" d="M45.15,85.92c-.66-5.07-.81-10.23-1.46-15.33C43.14,66.24,43,61,40.33,57.42c-1.43-1.93-4.4-1.8-5.18.68-1.32,4.22.12,8.92,1,13.14a113.72,113.72,0,0,0,4.52,15.29c.79,2.26,4.85,2.12,4.5-.61Z"/><path class="cls-1" d="M38.61,39.36c6.23-1.21,4.23-9.92,4.53-14.33a8.35,8.35,0,0,1,2.5-5.57c.65-.76,1.56-1.2,2.06-2.15,1.33-2.54.5-5.86-.12-8.46l-5.95,4.57c1.3.57-3.75,6.25-4.33,6.89C34.88,23,37.17,28.46,41.18,27,49,24.06,51.72,15.38,47.81,8.07,43.61.21,35,1.37,30.73,8.45c-3.23,5.41-4.92,17.92,4.75,18,8.24,0,7.64-12.91,5-17.69A3.54,3.54,0,0,0,35,8c-2.88,2.83-4.9,10.84-.54,13.45,5.05,3,8-3.52,7.37-7.46-.47-3.07-5.75-3.08-6.21,0L35,15.19l2.85-.37-.59-.09,2.2,1.69A4.37,4.37,0,0,1,39.92,13l-5.48-.7a5.64,5.64,0,0,1,.9,3.44c-.78,1.87-.62,2.23.48,1.06s1.12-3.4,2.31-4.77c3.76-4.3,5.56,5.75.93,7.3l3.88,6.66c4.41-4.86,11.94-15,2.78-19.51A4.11,4.11,0,0,0,39.77,11a13.12,13.12,0,0,1,.28,4.23l1.2-2.9c-2.41,2.94-4.73,4.51-5.55,8.57a19.07,19.07,0,0,0-.21,5.89c.19,1.84,1.94,6.82.57,8.17-2,1.95.08,4.88,2.55,4.4Z"/><path class="cls-1" d="M42.86,6.14c-4.24-7.8-18.37-1-22,4.35C14.77,19.34,25,26.66,32.7,28.84a3.92,3.92,0,0,0,4.77-4.77c-1.27-5-4.35-10.82-9.5-12.55a3.8,3.8,0,0,0-3.79,1c-2.6,3.19-1.31,6.92,1.11,9.9,2.16,2.66,6.34,6.51,10,5.15a4,4,0,0,0,2.8-3.67,8.39,8.39,0,0,0-2.73-7.21A3.35,3.35,0,0,0,29.73,19a32.76,32.76,0,0,0,2.45,11.54c1.25,3.28,4.32,8.43,2.9,12l1.62-2.11-.69.48,4.05.53c-2.94-3-2-10.95-3.26-14.83a16.22,16.22,0,0,0-6.23-8.73c-2.85-2-6.36,2.54-3.73,4.84,6.51,5.7,4.78,14.5,7.63,22a3.46,3.46,0,0,0,4.12,2.34c10.54-2.06-2-22.54-2.23-28L30.7,21.38l.92-.17,2.69-1.11c1.28-.05-.84-.7-1.44-1.2-.88-.73-2.44-1.85-2.4-3.18l-1.14,2.76.36-.45L25.9,19c2.2.73,3.61,5.24,4.09,7.1l4.77-4.77c-3.22-.93-10.61-4-6.3-7.87,2.67-2.41,8.26-4.86,12-4.19a2.18,2.18,0,0,0,2.43-3.16Z"/><path class="cls-2" d="M45.38,149.39c.42-.77,1.18-1.36,1.61-2.16s.75-1.71,1.17-2.53c.75-1.44,1.7-2.76,2.31-4.27,1.22-3.05.94-7.08-1.81-9.23-2.35-1.83-6.23-1.53-7,1.86l-.12.49c-.75,3.11,1.88,5.21,4.77,4.77l.54-.08-4.1-1.08c.26.28-1.51,3.67-1.82,4.47a12.33,12.33,0,0,0-1,3.68,13.19,13.19,0,0,0,.46,2.73c.29,2.43,3.58,3.9,5,1.35Z"/><path class="cls-2" d="M26.42,116.49a13.45,13.45,0,0,0-10.81,4.69c-1.28,1.48-2.16,3.3-3.74,4.5-1.92,1.47-3.21,2.09-4.33,4.43a4.14,4.14,0,0,0,6.47,5c-.67.57.73-.25.86-.31A22.72,22.72,0,0,0,17,133.52a13.67,13.67,0,0,0,3.56-3.35c1.64-2.18,2.75-4.8,5.82-5.13,5.36-.59,5.62-8.37,0-8.55Z"/><path d="M47.24,33.07c-.78-6.26,5.44-9.18,7.33-14.56a11.91,11.91,0,0,0-2-11.22C49.39,3.1,37.66-4.92,35.14,4.14a2,2,0,0,0,2.92,2.24c3.08-1.81,6.85.92,8.95,3.17,3.77,4,2.29,7.66-.72,11.5-2.89,3.68-5.72,7.9-3.77,12.66.91,2.24,5.09,2.32,4.72-.64Z"/><path d="M33.12,39.11c2.2-3.9-.37-8.76-3.28-11.65-1.69-1.68-3.84-2.77-5.72-4.2-1.52-1.16-2.5-1.91-2.87-3.89s.61-3.31,1.09-5.24a2.11,2.11,0,0,0-2.58-2.57c-5.5,1.87-5.48,9.09-2.3,13.11,1.64,2.08,3.87,3.31,6.06,4.72,2,1.32,3.69,2.49,4.88,4.67.94,1.72,1.13,3.45,2.24,5a1.45,1.45,0,0,0,2.48,0Z"/><path d="M33.29,126.32c3.85-2.31,2.72-7.8.43-10.8s-8-6.4-11.69-4.18a2,2,0,0,0-.4,3.06c1.83,1.86,4.77,1.66,6.8,3.36s2.26,3.65,1.56,6a2.27,2.27,0,0,0,3.3,2.54Z"/><path d="M31.59,121.24c-5,2.37-9.48,5.81-14.36,8.41S7,134.18,2.5,137.3A2,2,0,0,0,4,140.87c5.62-.8,11.07-3.78,16-6.52s10.27-5.68,14.19-9.77a2.13,2.13,0,0,0-2.57-3.34Z"/><path d="M26,113.27c-6.72-.88-13.69,5.47-17.82,10.17C4.41,127.68-1.34,135,.28,140.92a1.91,1.91,0,0,0,3.16.84c1.82-1.53,2.42-3.54,3.46-5.62a42.7,42.7,0,0,1,4.76-7.53,35.85,35.85,0,0,1,14.9-10.8,2.32,2.32,0,0,0-.61-4.54Z"/><path d="M42,103.89C37.6,99.42,30,99.54,24.83,102.52c-4.12,2.36-9.62,8.62-7.15,13.59a1.9,1.9,0,0,0,2.95.37c2.78-2.64,2.91-6.61,6.46-8.94,4.2-2.76,8.53-1.6,13-.46A1.92,1.92,0,0,0,42,103.89Z"/><path d="M43.57,115.06a9.7,9.7,0,0,1-4.44,6.58c-2.8,1.72-5.69.74-8.66,1.53a2.13,2.13,0,0,0-.93,3.53c3.39,3.34,9.61,1.63,13-.87,2.87-2.09,6.66-7,5.13-10.77-.68-1.69-3.77-2.35-4.13,0Z"/><path d="M53.47,115.08a50.87,50.87,0,0,0,2.71,16.53,1.69,1.69,0,0,0,3.31-.45A50.88,50.88,0,0,0,58,114.47c-.62-2.5-4.5-2-4.48.61Z"/><path d="M53.25,138.32c2.63-3.83,1-8.7-3-10.78-3.35-1.74-9.59-2-11,2.41a1.9,1.9,0,0,0,2.32,2.33c2.06-.58,3.69-1.54,5.9-.71a5.1,5.1,0,0,1,3.23,5.65,1.43,1.43,0,0,0,2.59,1.1Z"/><path d="M51.32,137.09c-2.79,2.31-5,5.51-7,8.48-1.83,2.68-4.42,5.71-4.54,9.06a1.63,1.63,0,0,0,2.44,1.4c2.66-1.73,4-5.09,5.73-7.67,2-3,4.49-5.85,6.26-9a1.86,1.86,0,0,0-2.9-2.24Z"/><path d="M42,129.12c-3.31,3.66-4.74,8.77-5.16,13.61s-.71,12.4,2.19,16.53a1.42,1.42,0,0,0,2.42,0c1.94-4.06.52-8.59.39-12.95-.16-5.64,1.72-10.08,3.34-15.34A1.92,1.92,0,0,0,42,129.12Z"/><path d="M56.58,131.31c1.56,3,2.77,6.26-.41,8.52a37.29,37.29,0,0,1-9.05,4.6c-1.57.57-1.89,3.09,0,3.53,2.94.67,5.78-.27,8.39-1.65,2.36-1.26,5.41-3,6.84-5.38,2-3.22.93-12.91-4.13-12.46a1.91,1.91,0,0,0-1.64,2.84Z"/><path d="M41.41,120.9c-1.13,1.14-2.66,1.79-3.77,3.12a14.63,14.63,0,0,0-2.72,5.14c-1.07,3.58-1.12,8.92,1.84,11.59a2.11,2.11,0,0,0,3.55-1.47c-.12-3.58-1.76-6.31-.24-10,1-2.45,3.85-4,4.43-6.46a1.94,1.94,0,0,0-1.84-2.42,1.78,1.78,0,0,0-1.25.46Z"/><path class="cls-1" d="M55.05,103a8.54,8.54,0,0,1-3.31-5.16,2,2,0,0,0-2.46-1.39,2,2,0,0,0-1.4,2.46,11.89,11.89,0,0,0,4.34,6.92A2,2,0,1,0,55.05,103Z"/><path class="cls-1" d="M49,100a30.18,30.18,0,0,0,3.77,3,2,2,0,0,0,2-3.46,21.58,21.58,0,0,1-3-2.36A2,2,0,1,0,49,100Z"/><path class="cls-1" d="M56.37,97c-1.25-.61-2.53-1.17-3.81-1.7a2,2,0,0,0-2.46,1.4,2.06,2.06,0,0,0,1.39,2.46c.9.36,1.91.83,2.86,1.3a2,2,0,0,0,2.73-.72A2,2,0,0,0,56.37,97Z"/><path class="cls-1" d="M51.09,96.4a31.42,31.42,0,0,0,2.8,3.31,2,2,0,0,0,2.83-2.83c-.42-.43-.83-.87-1.23-1.33s-.68-.8-1-1.17a2,2,0,0,0-2.73-.71,2,2,0,0,0-.72,2.73Z"/><path class="cls-1" d="M56.61,94.73c-.75-.76-1.49-1.52-2.22-2.29a2,2,0,0,0-2.83,0,2.06,2.06,0,0,0,0,2.83c.74.77,1.47,1.53,2.22,2.29a2,2,0,1,0,2.83-2.83Z"/><path class="cls-1" d="M57.83,99a10.8,10.8,0,0,0-3.27-6.15c-1.86-1.77-4.7,1.06-2.82,2.83A7.3,7.3,0,0,1,54,100.08a2,2,0,0,0,2.46,1.4A2.06,2.06,0,0,0,57.83,99Z"/><path d="M41.68,30.25c-.21,16.92,7.24,32.37,9.57,48.89.45,3.17,5.27,1.82,4.82-1.33-2.26-16.07-9.59-31.12-9.39-47.56,0-3.22-5-3.22-5,0Z"/><path d="M28.29,37.06c1.22,12.23,3.25,24.41,4.78,36.61.73,5.79,1.46,11.58,2.14,17.38.64,5.47.52,11.65,2.89,16.68.87,1.85,3.9,1.34,4.34-.57,1.25-5.44-.29-11.59-.95-17.07-.69-5.76-1.39-11.52-2.18-17.27-1.66-12.16-3.14-24.47-5.71-36.48C33,33.41,28,34,28.29,37.06Z"/><path d="M79.18,127.82c.19,2.26,1.19,2.67,2.95,4.08a31.38,31.38,0,0,1,5.62,5.72c3.17,4.25,4.19,10.73,8.13,14.18a2.18,2.18,0,0,0,3.61-2.09c-.87-5.38-4.78-12-8.22-16.11-2.41-2.91-7.26-8.74-11.47-6.84a1.18,1.18,0,0,0-.62,1.06Z"/><path d="M82.82,125.5l1-5.07,3.66-.51c2.06.33,3.76,2,5,3.52a20,20,0,0,1,3.33,8c1.38,6.09.42,11.59.06,17.68-.16,2.79,3.62,2.84,4.51.61,4-9.93,1.78-29.72-9.67-34.24-4.39-1.73-9.56-.78-12.35,3.25-2.51,3.61-2,8.72,2.48,10.17,2,.65,3.35-2,2-3.42Z"/><path d="M84.53,131c-1.48-2.46-4.94-1.53-7.33-2.38-3.26-1.16-3.61-4.54-4.34-7.5-.64-2.64-4.41-2.45-5.15,0-1.42,4.71,2.1,10.75,6.45,12.6a13.31,13.31,0,0,0,7.52.7c1.36-.26,3.95-1.58,2.85-3.42Z"/><path d="M96.64,121.21c1.75-2.46,1.52-6.57,0-9.1-1.75-3-5.1-3.72-8.25-4.38a3,3,0,0,0-3.35,1.36,3.94,3.94,0,0,0-.4,1.5,3,3,0,0,0,2.17,2.86c1.43.36,4.17.38,5,1.83s.15,3.69.69,5.39a2.29,2.29,0,0,0,4.12.54Z"/><path d="M72.32,119.75c-.56-3.31-3.45-4.82-6.09-6.31s-3.13-5.45-6-6.16a1.84,1.84,0,0,0-2.06.84c-1.21,2.63.94,5.76,2.81,7.6a12.64,12.64,0,0,0,3.75,2.4,7.35,7.35,0,0,1,3.66,3.28,2.15,2.15,0,0,0,3.91-1.65Z"/><path d="M86.23,108.11c-4-2.59-8.9-3.69-13.29-5.41-2.32-.91-4.88-1.73-6.8-3.39-1.44-1.25-2-2.84-3.77-3.63a1.89,1.89,0,0,0-2.54.67C54.62,105.78,79.72,112,85.2,111.92a2.06,2.06,0,0,0,1-3.81Z"/><path d="M51.83,80.21c3.46,7.12,11.91,12.44,19,15.45s16.13,5,23.75,3c2.78-.73,2.15-4.87-.67-4.94-7.36-.17-14-.13-21-2.88-7.41-2.9-12-8-17.88-13a2,2,0,0,0-3.12,2.41Z"/><path d="M96.2,97.73a7.84,7.84,0,0,1,6.9-2.91c2.71.14,4.46,1.19,6.76,2.48s4.1-1.17,3.22-3.23c-2.92-6.86-19.55-5.82-20.4,2.2C92.49,98,95.07,99,96.2,97.73Z"/><path d="M111.33,96.12c-6.18-1.87-11.9,7-12,12.25-.11,5.76,5.12,13.12,11.63,11a1.84,1.84,0,0,0,.8-3c-2.91-3-7.75-3.08-7-8.69.7-4.83,5.47-5.44,7.54-9.05a1.73,1.73,0,0,0-1-2.51Z"/><path d="M107.86,117.6c-1.59,1.31-2.37,3.27-4.45,4-2.36.86-4.28-.6-6.58-.55a2.3,2.3,0,0,0-2,3.41c1.66,3.74,7.52,3.69,10.71,2.28,3-1.33,6.32-4.81,5.29-8.37a1.83,1.83,0,0,0-3-.8Z"/><path d="M108.74,100.85c7.31.47,14.54,1.44,20.25,6.54s6.33,11,6.7,18.19c.11,2.1,3.39,3.5,4.4,1.19,3.35-7.69-.8-17.43-6.57-22.88a29.35,29.35,0,0,0-25.34-7.19c-2.45.49-1.7,4,.56,4.15Z"/><path d="M110.75,119.46a15.15,15.15,0,0,1,16-1.47,11.14,11.14,0,0,1,6,6.66c.79,2.46.78,4,2.61,5.81.85.86,2.76.58,3-.78,1.19-8.09-4-15.06-11.52-17.52-6.25-2-15.75-1.74-18.52,5.34a1.75,1.75,0,0,0,2.55,2Z"/><path d="M137.84,129c1.18-1.07,2.76-2.94,2.7-4.62A1.25,1.25,0,0,0,139,123.2c-2.13.58-2.94,3.5-2.54,5.44a.85.85,0,0,0,1.41.37Z"/><path d="M71.68,142c-2-2.52-4.26-4.7-5.94-7.46-1-1.66-5.4-9.37-3-11.14l3.59.84a9.74,9.74,0,0,1,1.08,5.1c0,1.73-.09,3.47-.15,5.2-.12,3.23-.75,6.58.37,9.65.47,1.3,2.65,2,3.34.44,1.41-3.24,1-6.6,1.12-10.09s.52-7.21-.48-10.62c-1.34-4.6-6-9-10.87-6.09-10,5.87.6,25.42,9.15,27.33A1.91,1.91,0,0,0,71.68,142Z"/></g></g></svg>