<svg xmlns="http://www.w3.org/2000/svg" viewBox="0 0 101.9 144.02"><defs><style>.cls-1{fill:#3a1175;}.cls-2{fill:#fff;}.cls-3{fill:#3f0303;}.cls-4{fill:#f7b219;}.cls-5{fill:#990505;}</style></defs><title>Asset 21</title><g id="Layer_2" data-name="Layer 2"><g id="Layer_41" data-name="Layer 41"><path class="cls-1" d="M52.58,102.91c4.25-3.21,6.78-8.45,9.75-12.81C64.79,86.49,71,81.57,70.92,77a5.32,5.32,0,0,0-3.78-5l-.26-.09a5.45,5.45,0,0,0-5.38,1.42A69.45,69.45,0,0,0,52.19,86c-2.33,4-5.06,9.27-4.6,14,.22,2.19,2.77,4.53,5,2.86Z"/><path class="cls-1" d="M53.05,105.61c1.16-10.79,8.51-19.13,11.84-29.18A4.49,4.49,0,0,0,59.41,71c-5.29,1.75-8.27,8-10.43,12.71A84.41,84.41,0,0,0,43.24,102h8.92a19.49,19.49,0,0,1,1.14-14.7c2.07-4.2,4.6-7.89,5.86-12.47,1.51-5.51-5.64-7.81-8.69-3.67a45.16,45.16,0,0,0-8,18.93c-.95,5.51-2.19,12.52,4.36,14.67,3.92,1.29,6.82-3.32,5.08-6.61-1.31-2.48.82-8.56,1.61-11.14A51.43,51.43,0,0,1,58.68,76L50,72.33c-1.83,5.57-5.64,10.25-7.14,16a30.14,30.14,0,0,0,.39,16.18c1.22,4.13,8,4.67,8.92,0A86.29,86.29,0,0,1,55.7,91.16a49.71,49.71,0,0,1,3-6.73c.39-.71,2.26-4.76,3-4.89l-5-6.54C50.1,83,43,94.15,45.26,106.67c.84,4.75,7.35,3,7.79-1.06Z"/><path class="cls-1" d="M40.05,77.85l.56.41-.93,7.24a26.36,26.36,0,0,1,8.16-2.82c1.15-.25,2.3-.51,3.45-.72,1.74-.31,4,.24,2.59-1.4l2.18-8.26C49.8,73.93,41.59,74,36.16,69.92l2.18,2.84-.25-1-1.22,4.62c1.83-1.88,8.44-1.17,10.67-1.17,2.05,0,9.33-.64,11,.75L62,67.46c-7.1.35-14.26.38-21.37.42L42,77.69a51.39,51.39,0,0,1,20.47-1.27c5.35.69,6.39-8.08,1.27-9.33a43.06,43.06,0,0,0-24.4,1c-5.13,1.7-4.55,10,1.33,9.81,7.11-.26,14.26-.53,21.37-.49,4.22,0,6.64-5.49,3.51-8.46-4.72-4.49-12.85-4.13-18.91-3.8-5,.26-13.64.21-16.82,5-4,6,3.71,9.7,8.29,11.21a37.32,37.32,0,0,0,20.61.5,5,5,0,0,0,3-7.25c-2.67-4.51-7.81-3.69-12.29-2.94-5.34.9-11.62,2.31-15.26,6.63-2.36,2.79-1.06,8.13,3.26,7.87a5.47,5.47,0,0,0,4.38-1.91,3.86,3.86,0,0,0-1.68-6.37Z"/><path class="cls-1" d="M57,71.1c1.59-.68,4.85,2.31,6.07,3.22,2.07,1.53,3.78,4.18,6.33,4.79a3.38,3.38,0,0,0,3.71-1.51c3-5.16-3.38-10.46-7.12-13-4.37-3-11.49-4.87-14.52,1-2,3.83,1.89,7.08,5.53,5.52Z"/><path class="cls-1" d="M60.36,71.72c-.82-.25.18.21.52.35a8.86,8.86,0,0,0,2.51.7,54.48,54.48,0,0,0,5.57.4c3.18.14,7.76,1.09,10.48-.93,1.91-1.4,2.8-3.69,1.55-5.91-2.37-4.24-7.94-3.16-12-2.89s-8.33.17-10.19,4.38a2.7,2.7,0,0,0,1.59,3.9Z"/><path class="cls-1" d="M73.48,74c2.65-.48,5-1.64,7.59-2.43,1.08-.34,5.49-2.19,6.54-1.51l-2.33-3q4.59-4.61.81-3.73l-2.58.33c-1.49.23-3,.5-4.43.86A48,48,0,0,0,70,67.84l7.52,3.06c-.2-1.22-.35-7.16-1.24-7.66.75.42-3.25,2.5.63,1.89.32,0,3.69-.79,2.13-.59,3.41-.43,5-3.89,2.74-6.62a8.36,8.36,0,0,0-7.11-3.48,9.53,9.53,0,0,0-7,2.79c-4.13,4.32-1.09,11.4,0,16.4.73,3.35,4.77,4.53,7.53,3.06,4.32-2.32,8.52-3.17,13.28-4,4.27-.73,8.36-4.28,6.35-9-3.89-9.24-21-1.8-25.32,3.45a4.13,4.13,0,0,0,4,6.84Z"/><path class="cls-1" d="M74.32,69.07C68.18,72.14,64.94,78,62.93,84.36a87.2,87.2,0,0,0-2.47,11.46c-.68,3.93-1.48,7,1.61,10.07A4.35,4.35,0,0,0,66.32,107c6.61-2,6.29-10.32,7.52-16a66.27,66.27,0,0,1,5.74-16.66,3.88,3.88,0,0,0-5.26-5.26Z"/><path class="cls-1" d="M72.17,70.6c-4,4.86-4.22,11.8-4.56,17.91-.32,5.84-1.22,14,3.18,18.48a4.53,4.53,0,0,0,7-.9c2.88-4.7,1-11.31,1-16.62,0-5.52,1.54-12-.38-17.21-.87-2.4-4.31-4-6.27-1.66Z"/><path class="cls-1" d="M50.9,81a10.07,10.07,0,0,0-5.42-1.4c-2.27.19-3.93,1.85-6.08,2.41-3.65.94-13,.53-15.44-2.72l-8.13,6.27A27.3,27.3,0,0,0,41,94.93l-2.64-9.6c-2.22.52-4.72-.77-6.86-1.23a72,72,0,0,0-7.59-1,20.57,20.57,0,0,1-6.22-1.27c-2.53-1.13-2.72-2.7-3.47-5.15C13.11,72.93,6.83,71.21,5,75.46c-3.43,8,2.75,15.29,10.42,17.47,4.32,1.24,8.86.84,13.26,1.53s8,1.63,12.35.47c5.24-1.39,4.38-10.5-1.32-9.77S27.46,84.33,24,79.25A5.18,5.18,0,0,0,15,84.47c3.42,7.09,11.09,8.7,18.29,9.18,3.52.23,7.09-.1,10.19-2,1.35-.8,5.39-5.76,5.31-5.77,2.79.41,5.08-3.41,2.09-5Z"/><path class="cls-1" d="M10.25,83.41c-.85,6.45,8.42,9.66,13.1,11.15,4.9,1.55,14.73,4.1,16.67-3a3.32,3.32,0,0,0-.86-3.26c-3-2.5-7.77-2.09-11.52-2.86-4.55-.94-9.32-2.08-13.39-4.34-1.93-1.08-3.74.34-4,2.29Z"/><path class="cls-1" d="M9.87,79.19C13,80.84,16.59,80.92,20,81.89c3.59,1,6.52,2.93,9.83,4.54,5.34,2.59,11.57-4.17,6.69-8.67-6-5.56-18.84-10.38-26.61-6.23a4.48,4.48,0,0,0,0,7.66Z"/><path class="cls-1" d="M16.31,78.65a16.57,16.57,0,0,0,7-2.23c1.82-.92,3.71-2.24,5.83-2l-2.72-.74.6.41-2.49-3.22.14.8V68.8a5.82,5.82,0,0,1-2.42,2.47l6.81.88-.34-.43,1.45,5.47c.33-1.82,2.93-3.58,4.65-3.87l-4.26-.56.57.3-2.72-4.74v.51L30,65c.36-.39-2.09.24-2.8.23A7.48,7.48,0,0,1,25.35,65q-2.84-1.1.45,1.33l-.52,4c.22-.51,1.64-.9,2.07-1L20.7,64.21a14.08,14.08,0,0,1-.05,3.37H31a18.21,18.21,0,0,0-.65-3.67c-1.27-4.07-8.43-4.95-9.17,0a22.35,22.35,0,0,1-.39,2.29c-1.25,6.54,8.81,9.33,10,2.76a17.62,17.62,0,0,0,.34-4.75c-.27-3.36-3.13-6-6.64-5.06s-7.52,3-8.63,6.77,1.31,7,4.75,8.31c5.93,2.22,18.13,2.6,18.66-5.91a5.48,5.48,0,0,0-2.72-4.74c-4.22-2.73-9.88.36-13,3.46-3.68,3.62-6.18,8.59-2.53,13.06a5.63,5.63,0,0,0,6.82.88c4.6-3.31,11.81-12.4,3.93-16.58-3.14-1.66-7.07-.43-9.93,1.23C18.72,67.47,15,70,13.18,73.2c-1.27,2.31.3,5.57,3.13,5.45Z"/><path class="cls-1" d="M12.72,61.14c2.29,1.66,5.38,1.62,7.94,2.73s4.82,3,7.33,4.33c3.92,2.11,9.36-2.36,6.51-6.5a19,19,0,0,0-10.11-7c-3.48-1.11-8.52-2.11-11.67.16a3.69,3.69,0,0,0,0,6.26Z"/><path class="cls-1" d="M23,64.49c3.47,1.59,7.19,1.89,10.33,4.25S38.5,74,42.71,74s5.68-4.83,3.18-7.68C40.62,60.29,31.08,54.5,23,58c-2.48,1.08-2.43,5.36,0,6.47Z"/><path class="cls-1" d="M5,79c3.63.09,4.84-3.18,5.86-6a4.74,4.74,0,0,0-3.29-5.8,4.81,4.81,0,0,0-5.8,3.29A16.81,16.81,0,0,0,1,74.21C.85,76.47,2.55,79,5,79Z"/><path class="cls-1" d="M10,73.47l1,.41.8-5.93c-1,0-1.94.11-2.05-.85,0-.54.79-1.76,1-2.25a27.27,27.27,0,0,1,2.08-5.2c2.22-3.55-3.39-6.81-5.6-3.28a25.62,25.62,0,0,0-2.46,6c-.54,1.71-1.51,3.42-1.4,5.24C3.66,72,8,73.71,11.84,74c3.41.24,4.08-5.12.81-5.92a3.85,3.85,0,0,0-3.8.91c-1.78,1.39-.45,3.85,1.19,4.5Z"/><path class="cls-1" d="M10.12,59.65c2.25-3.1,1.67-6.34.92-9.84-.72-3.31-1.25-5.93-4.52-7.62v5.64a27.36,27.36,0,0,1,5.27-2.44A3.2,3.2,0,0,0,13.93,43a3,3,0,0,0-2-3.56,11,11,0,0,0-3.34,0l.77,5.7a9.9,9.9,0,0,1,2.82-.13l-2.07-.86.5.63-.85-2.07c.4,3,.3,6.08.72,9.12s4.62,1.87,4.9-.66c.32-2.94,1.23-7.58-.42-10.22S10.3,39,7.79,39.46c-3.2.56-2.49,6,.77,5.71.6,0,1.2-.1,1.8-.19l-2-3.57-.1.31,2-2c-2.46.88-4.73,1.11-7.06,2.51a3.3,3.3,0,0,0,0,5.64c1.54,1,1.58,3.31,2,5,.57,2.1.22,4.25.9,6.34a2.2,2.2,0,0,0,4,.52Z"/><path class="cls-1" d="M11,45.42c-1.5,1-1.45,2.86-1.63,4.52-.22,2-1.1,3.94-1.07,6,0,2.35,3.09,3.8,4.78,2,1.46-1.56,3.07-3,3.1-5.29L12,55c1.31.89,2.59,1.85,4,2.63a2.75,2.75,0,0,0,3.32-4.3c-.66-.7-1.68-1.18-2.24-1.92s-.29-1.59-.33-2.34a2.91,2.91,0,0,0-5.81,0,8.79,8.79,0,0,0,1,4.73,6,6,0,0,0,1.52,1.74c.4.33,1.31.69,1.58,1.11l4.3-3.32c-1.42-1.15-3-2.13-4.47-3.16C13,49,10.66,50.6,10.62,52.6l0,.52L11,51.71a11.74,11.74,0,0,1-1.84,2.22l4.78,2c-.27-2.4.76-4.81.37-7.28-.19-1.22-1.38-4.51-3.27-3.21Z"/><path class="cls-1" d="M11.58,43.51a2.18,2.18,0,1,0-2.17-2.18,2.2,2.2,0,0,0,2.17,2.18Z"/><path class="cls-1" d="M12,43.46a3,3,0,1,0-3-3,3,3,0,0,0,3,3Z"/><path class="cls-1" d="M49.49,94.24c-2.89.07-4.54,1.7-5.66,4.3-2,4.58-2.87,9.17-5.56,13.52l6.17.81c-.45-2.76,1.75-7,2.54-9.71.9-3,1.78-6,2.67-9,1-3.46-3.18-5.25-5.6-3.26a26,26,0,0,0-9.51,18.56c-.26,3.2,4.89,4.69,6.22,1.68A115.74,115.74,0,0,1,48,97.22L43.1,94.37a97,97,0,0,0-9.21,18.7c-1.13,3.32,4.15,5.6,5.73,2.41,2.29-4.65,4-9.62,6.37-14.21.95-1.84-1.42-3.9-3-2.28a109,109,0,0,0-9.13,10.66l4.7,2.74c1.17-2,2.33-4,3.51-5.92l-4.35-2.54c-1.4,2.45-2.89,4.83-4.41,7.21s.92,4.81,3.28,4.26c3.4-.79,5.54-3.18,6.93-6.3L38.65,107c-.8,2.35-2.64,5.28-1.25,7.78a4.89,4.89,0,0,0,6.06,1.85c2.72-1.13,4.22-4.65,5.7-6.94l7.76-12L51,94.29c-3.06,6.68-7.79,13.94-9.25,21.16-.57,2.84,2.59,6.23,5.43,4.18,4-2.86,5.91-6.62,8.06-10.92a100.65,100.65,0,0,1,9.1-15.33l-5.89-3.44c-2.58,5.56-5,11.21-7.08,17-1,2.9-2.71,8.15,1.92,9a3.58,3.58,0,0,0,4.27-2.43c2.31-7.12,4.5-14.45,7.5-21.32l-5.71-2.41c-1,4.59-6.55,24.46,3,23.45a3.59,3.59,0,0,0,3.34-2.55C68,100.8,70.16,91,75.15,82.08L69,79.48c-1.38,9.39-2.43,19-2,28.46a3.11,3.11,0,0,0,6.22,0c.52-8.94.9-17.79,2.26-26.66.54-3.54-4.13-6.19-6.17-2.6C64,88,61.35,98.39,59.05,108.81l3.34-2.54-.84.1,2.45,1c-.41-.33.3-5.69.37-6.49.27-3.15.56-6.35,1-9.48.55-3.91-4.62-5.52-6-1.66-2.66,7.36-5.81,14.53-8.48,21.89l4.27-2.42-.48-.07,2.41,2.41c-.6-1.52,2.41-7.06,3-8.58,1.28-3.28,2.72-6.45,4.28-9.6S61.52,86,59,89.25a92.24,92.24,0,0,0-7.9,11.86c-2.2,3.9-4,9.32-7.64,12.13l5.43,4.18c1.16-6.63,5.34-13.51,8-19.66,1.75-4-3.47-7.26-5.92-3.47l-5.68,8.79c-.94,1.46-3.48,7.12-5.12,7.43l2.57.34a1.86,1.86,0,0,0,1.06-2.39c.91-3.4-4-4.59-5.18-1.43a5.51,5.51,0,0,1-3.56,2.78l3.28,4.26c1.2-2.56,2.41-5.1,3.74-7.6a2.52,2.52,0,0,0-4.35-2.54c-1.27,1.91-2.57,3.81-3.86,5.72-2,2.88,2.94,5.8,4.7,2.74a77.35,77.35,0,0,1,7.1-10.74l-3-2.28c-2.59,4.45-5.85,8.53-8.53,12.95l5.72,2.41a61.21,61.21,0,0,1,8-17.51c2.1-3-2.79-5.78-4.88-2.85A97.39,97.39,0,0,0,35,107.75l6.22,1.68a19.11,19.11,0,0,1,7.57-13.82l-5.6-3.26c-2.06,6.67-6.51,15.25-5.26,22.31.52,3,4.78,3.12,6.17.81a47,47,0,0,0,3.82-7.85c.38-1,1.48-7.63,2.33-7.78,3.18-.59,2.42-5.68-.76-5.6Z"/><path class="cls-1" d="M77.88,73C75,79.83,74.73,88.52,74.56,95.8c-.12,5-1.06,12,3.4,15.34,1.83,1.38,4.27-.9,3.72-2.86-1.43-5-.53-11.16-.29-16.34.29-6.06,1.68-12.19,1.53-18.23-.07-3.09-4-3.24-5-.68Z"/><path class="cls-1" d="M73.32,92.31a47,47,0,0,0,3.75,15.87c1.2,2.77,3.21,6.37,6.7,6.39s4-3.6,3.19-6.27c-1.3-4.41-5.69-8.89-5.26-13.61l-5.78.79c1.37,6.3,2.91,12.57,4.54,18.81l5.76-2.43c-1.38-1.94-2.79-3.89-4.3-5.74-1.86-2.25-4.28-4-6-6.35-1-1.29-3.71-1.58-4,.52-.71,5,.43,9.51,1.78,14.3l4.89-2.85c-3.16-3.71-6.45-7.28-9.5-11.08-2-2.55-5.47.31-5,2.9.67,3.59,2.93,6.88,3,10.54l5.73-2.37a22.64,22.64,0,0,1-5.45-8.64c-1-2.71-5.39-2.51-5.29.71.1,3.48.09,6.89.4,10.36a2.31,2.31,0,0,0,4.61,0c.3-3.46.28-6.88.38-10.36l-5.3.72a27.93,27.93,0,0,0,5.38,11.28c1.82,2.36,6.44,2,6.25-1.7-.24-4.56-2.79-7.86-4-12.12l-5,2.9a125.35,125.35,0,0,0,9.58,11c1.92,1.89,6.07,0,4.9-2.85a34.71,34.71,0,0,1-3.11-12.15l-3.31,1.89c3.35,2.51,6,7.73,7.58,11.52,1.52,3.64,7.08,2.39,6.08-1.67-1.53-6.27-3.16-12.51-5-18.71-1-3.64-6.81-2.06-5.67,1.57a63.63,63.63,0,0,0,2.52,7.26c1.1,2.47,3.15,5.49,3,8.31l.89-2.14-.44.43,3-.79c-2.29-.61-3.36-6-4-7.88a70.65,70.65,0,0,1-2.2-9.08c-.53-3-5.57-2.35-5.37.72Z"/><path class="cls-1" d="M80.92,112.26a154.43,154.43,0,0,0-17.61.07c-2.5.07-5.36.62-7.82.28l-3.13-1,.67,1.78a34.78,34.78,0,0,0,1.37,5.38c.83,3.22,5.34,2.33,5.56-.75.11-1.57.61-4.84,2.18-5.77l-3.46-1.4a13.08,13.08,0,0,1-.5,6.31l5.17-1.36c-5.82-6.42-14-5.78-21.11-1.74a3.16,3.16,0,0,0,1.58,5.83,22.66,22.66,0,0,0,10.47-2.69c2.14-1,1-4.25-1.17-4.3a65.85,65.85,0,0,1-13.4-1.8v5.14a7.77,7.77,0,0,1,6.42,2L48,113.64c-5.65-.13-9.76-4.55-15.33-1.32-2.66,1.55-1.36,5.4,1.51,5.56a30.16,30.16,0,0,0,5.62-.17L39.06,112l-5.47.85c-3,.46-2.5,4.83,0,5.6,4.65,1.43,10.2-.08,14.47,2.31l2.28-5.41L49,113.91l-1.31,3.21c-1.33,1-2.51-.77-1.25,1.34a4.15,4.15,0,0,0,1.07,1.06A7.92,7.92,0,0,0,52.35,121c5.06.06,8.68-1.18,12.36,3.37,2.05,2.53,6-.71,4.42-3.41-2.44-4.23-7-6.41-11.81-6.52-1.37,0-2.94.57-4.25.36-1.76-.29-2.8-2-4.23-2.69a3.79,3.79,0,0,0-4.08.07,2.85,2.85,0,0,0-1.41,2.45c.19,3.28,2.55,5.28,5.42,6.42,3.14,1.25,5.18-3.82,2.28-5.41-5.1-2.81-10.56-1.19-15.91-2.8v5.6l5.46-.86c3.2-.49,2.48-6-.77-5.69a31,31,0,0,1-5.62,0l1.51,5.56c2.66-1.48,5.57.76,8,1.37a10.44,10.44,0,0,0,5,0,2.68,2.68,0,0,0,1.18-4.45,13.76,13.76,0,0,0-11.61-3.33c-2.66.36-2.41,4.58,0,5.14a55.08,55.08,0,0,0,14.82,1.28L52.51,113a16.27,16.27,0,0,1-7.86.77l.75,5.71c4.64-2.78,9.19-6,13.09.08,1.28,2,5.24,2.08,5.66-.73A16.56,16.56,0,0,0,63,109c-.76-1.7-3.21-1.36-4.07,0-2,3.25-3.91,4.23-4.51,8.24h5.46c-1-4-2-11.59-7.53-11.74-4.44-.12-6.63,4.81-5.38,8.63,1.72,5.29,7,5.59,11.73,5.36,7.65-.38,15.42-.61,23-2,3.18-.57,2.12-5.07-.72-5.3Z"/><path class="cls-1" d="M42.45,116c-1.67-1.79-4.4-2.84-6.63-1.43a2.85,2.85,0,0,0-1.28,3.14C36,123.48,41.9,121.16,45.8,123c1.58.72,1.83,2.23,3.17,3a9.73,9.73,0,0,0,3.12,1,23.85,23.85,0,0,0,9.48-.31c1.64-.35,2.6-.8,4.13-.41,1.07.27,1.8.94,3,1,2.53.2,4.35-1.63,6.54-2.52,5-2,9.91-1.66,14-5.71,2.24-2.22.47-5.75-2.46-5.93a25.25,25.25,0,0,0-17.39,5l5,1.29-.51-.77.37,2.81c.52-2.65,4.51-3.35,6.33-4.7a5.39,5.39,0,0,0,2.19-4.27,3.74,3.74,0,0,0-1.86-3.23c-3.39-2.38-6,.47-9.64.11l3.64,2.77-.13-.49-.38,2.89c.48-1.12,1.94-1.24,2.3-2.79a3.55,3.55,0,0,0-.42-2.64c-1-1.91-3.27-2.07-5-1.32-2.68,1.14-4.25,3.44-3.61,6.35a3.86,3.86,0,0,0,3.63,2.77c1,.09,5.4-1.51,5.87-1.19l-1.86-3.23-.08.74,1.09-2.64c-2.33,2.22-5.61,2.78-7.66,5.62-1.54,2.15-2.1,4.63-.49,6.87a3.7,3.7,0,0,0,5.68.73,17.2,17.2,0,0,1,13-3.71l-2.45-5.93c-3.23,2.88-8.38,2.59-12.25,4.23a14.31,14.31,0,0,1-2.54,1.32c-2,.26,2.66,1-1.24-.43a7.24,7.24,0,0,0-4.62-.64c-2.77.53-5.24,1.44-8.13,1.56-2.74.11-2.37-.35-4.38-1.93a9,9,0,0,0-4.47-1.7c-1.63-.23-6.26.68-7-1v2.8c-1.43,1.94,2.36-.69,2.83-1.12a.9.9,0,0,0,0-1.25Z"/><path class="cls-1" d="M40.88,118.41l-.44-1.85c-1-4.29-7.9-2.43-6.62,1.82C36.11,126,45,131.58,52.18,133.85a4,4,0,0,0,5-3.85,15.65,15.65,0,0,0-7.64-14.12c-1.9-1.18-5.26-.17-5.62,2.28a24.84,24.84,0,0,0,2.27,15.24l6.6-3.86a28.76,28.76,0,0,0-14.71-12.65c-2.36-1-4.94,1.45-4.9,3.73a14.48,14.48,0,0,0,2.05,7.45c2.55,4.38,8.85.54,6.72-3.92a24,24,0,0,0-6.13-8.06c-2-1.71-5.89-1.38-6.44,1.7l-.71,3.93a3.9,3.9,0,0,0,2.65,4.66A16.5,16.5,0,0,1,37,129.15c1.3,1.17,1.88,2.81,3.11,4,2.68,2.64,7,4.15,10.36,5.8,2.92,1.45,6,2.95,9.37,2.18S65,136.8,68.23,136c4.32-1.06,3.43-7.88-1-7.78-5.55.14-10.6.74-16.1-.69l.89,6.82a22.6,22.6,0,0,1,13.37-2l-1.81-6.87a5.15,5.15,0,0,1-2,1.7l2.07,3.62,0-1-1.22,3c1.6-1.7,9-4,10.37-.86l-.42-3.2c.27-1.1-2.34-.06-2.88,0a17.84,17.84,0,0,1-4.84-.06l-1.09,8.09,12.7.22c5.25.09,5.07-7.57,0-8a39,39,0,0,0-6.92,0,4,4,0,0,0,0,8c4.47.47,11,1.91,14.72-1.39,3.17-2.81,2.81-7.25,1.87-11a4.18,4.18,0,0,0-6.93-1.83,2.82,2.82,0,0,1-3,1.4l3,7.34a4,4,0,0,1,2.16-1.76,12.35,12.35,0,0,0,2.17-.32l2-2.56c0-.88-.42-.85-1.34.08l5.42,5.42a19.27,19.27,0,0,0,2.31-13.31l-5,5q2.46.18.18.27c-4-1-6.76,4.84-2.87,6.81,4.32,2.19,9.51.92,11.49-3.79,2.08-5-1.46-10.45-6.62-11.19-3.26-.47-5.55,1.74-5,5a11.47,11.47,0,0,1-1.26,7.13,4,4,0,0,0,5.42,5.42c2.88-1.59,5.14-4,5.08-7.48a6,6,0,0,0-4.91-6.09c-7.25-1.19-10.93,9.2-5.71,13.68,5.74,4.92,12-2.83,8.43-8.55-4-6.36-13.63-5.12-17.92.08-2.09,2.55-1,7.74,3,7.34a12.86,12.86,0,0,0,8.89-4.14l-6.92-1.83c.65,2.44,1,2.55-1.66,2.61a64.44,64.44,0,0,1-6.94-.4v8a33.34,33.34,0,0,1,6.92.06v-8l-12.7-.42c-4.54-.15-5.76,7.37-1.1,8.09s11,1.07,15.17-1.67c3.49-2.27,3.61-6.6.79-9.47C73,120,55,121.13,55.21,130.81a4.12,4.12,0,0,0,2.07,3.62,9.94,9.94,0,0,0,12.06-3.13c2.37-2.93.74-6.56-2.91-7a29.11,29.11,0,0,0-18.22,3.62c-3.17,1.79-1.83,7.07,1.88,6.94,5.79-.18,11.37,1,17.09,1.3l-1.06-7.78c-3.12.73-4.34,3-7,4.27-3.08,1.51-9.2-2.6-11.79-4.17-2.35-1.43-3.53-3.64-5.73-5.35-2.46-1.89-5.39-2.93-8.26-4L36,123.74l.84-3.9-6.44,1.7a20.77,20.77,0,0,1,4.86,6.53L42,124.15a4.93,4.93,0,0,1-1-3.53l-4.91,3.74a20.17,20.17,0,0,1,10.17,9c2.47,4.33,8.73.53,6.6-3.86a15.71,15.71,0,0,1-1.49-9.34l-5.62,2.28c2.87,1.79,3.83,4.28,3.53,7.52l5-3.84a29.81,29.81,0,0,1-8.56-4.75c-2.33-1.9-3.92-4.45-6.18-6.36l-4.16,5.39,1.63.93a2.65,2.65,0,0,0,3.85-3Z"/><path class="cls-2" d="M15.38,62.34l-.07,0a2.5,2.5,0,0,0-3,1.72v.07a2.61,2.61,0,0,0,.9,2.66A2.55,2.55,0,0,0,16,67a2.65,2.65,0,0,0,1.25-2.19,2.57,2.57,0,0,0-1.86-2.44Z"/><path class="cls-3" d="M46,55.41c-.11-3-1.35-7.34.53-10l-2.33-.63c-.52,4.08-2.18,9-.13,12.86a1.16,1.16,0,0,0,2,0c.93-2,.75-4.26,1.64-6.34l-1.85-.78c-.46,2.67-1.59,5.25-.06,7.77a1.14,1.14,0,0,0,2.1-.57,14.83,14.83,0,0,0-.1-3.46l-1.63.45c.15.5.31,1,.48,1.49A.59.59,0,0,0,47.78,56c0-.52,0-1,0-1.56a.85.85,0,0,0-1.69,0,7.89,7.89,0,0,1-.45,2.93l2.06-.27c-1-2-.18-4.27.1-6.36.13-1-1.49-1.4-1.89-.51a21.63,21.63,0,0,0-1,2.67c-.31,1.08-.25,2.56-.86,3.52h2c-1.44-3.35-.12-7.94.59-11.36a1.26,1.26,0,0,0-2.29-1c-2.27,3.1-1.15,8.09-.26,11.53A1,1,0,0,0,46,55.41Z"/><path class="cls-3" d="M44.94,56.6v-.05a.84.84,0,0,0-1-.58h-.07a.85.85,0,0,0-.5,1.23c.49,1,2.49,1.51,3.43,2C48.21,60,49.52,61,51,61.69c1.29.63,2.43-1.29,1.13-1.94s-2.46-1.48-3.75-2.11-2.7-.92-3.87-1.57v1.44l.07,0-1.13-.3,0,0c.43.9,1.64.22,1.5-.63Z"/><path class="cls-3" d="M50.17,59.28a3.22,3.22,0,0,1-3-1.37c-.63-.75-1.48-2.07-2.59-1.92a.59.59,0,0,0-.56.43c-.22.76.18,1.29.64,1.89a10.72,10.72,0,0,0,1.94,2,3.65,3.65,0,0,0,4.1.07c.67-.36.17-1.24-.49-1.14Z"/><path class="cls-3" d="M43.07,58.49a4.15,4.15,0,0,0,1.6,3.14,2.64,2.64,0,0,0,1.61.69,1.41,1.41,0,0,0,1.53-1,.87.87,0,0,0-.59-1c-.62-.11-1,.19-1.46-.29s-1-.94-1-1.49a.83.83,0,0,0-1.66,0Z"/><path class="cls-3" d="M43.62,56.79a42.51,42.51,0,0,1,1.11-7.35c.28-1.11-1.34-1.88-1.91-.8-1.07,2-.6,4.35-1.58,6.39h1.95a4.89,4.89,0,0,1-.32-6l-2.12-.9a34,34,0,0,0-1.68,5.51l2.06-.27.12-1.89-1.93-.25a7.7,7.7,0,0,1,.49,1.7q1.77,1.57.07.38C38.91,53,38,52.39,37,52c-2.51-.93-5.27-1.31-7.65-2.58-1.3-.69-2.45,1.28-1.15,2,2.29,1.22,4.85,1.61,7.31,2.39,1.64.51,3.93,2.43,5.67,2a1,1,0,0,0,.72-.72,9.73,9.73,0,0,0-.55-4.43,1.06,1.06,0,0,0-1.92-.25,3.66,3.66,0,0,0-.24,4.08,1.14,1.14,0,0,0,2.06-.26A31.85,31.85,0,0,1,43,48.77c.54-1.27-1.44-1.94-2.13-.9a7,7,0,0,0,.55,8.53,1.14,1.14,0,0,0,1.78-.23c.88-2.09.5-4.44,1.43-6.48l-1.9-.8a30.82,30.82,0,0,0-.73,7.9.82.82,0,0,0,1.63,0Z"/><path class="cls-3" d="M37.54,46.66c-1.26-.78-2.57-1.4-3.84-2.17l-2.11,7.78a8.11,8.11,0,0,1,4.78.93l4-6.78c-3.79-1.8-8-1.78-11.77-3.46l2.14,3.72a5.1,5.1,0,0,0-.87-3.51l-3.76,6.56a35.5,35.5,0,0,1,9.43.43c2.31.4,7,1.88,8.38,4-.83-1.22-.21,1.13,0,1.59A6.5,6.5,0,0,0,45.34,58c2.12,2,4.7,1.76,7.33,1.19,2.28-.5,4.23-3.54,3.3-5.82C53.64,47.74,50.39,45.18,45.39,42l2.18,2.84-.09-.33-1.22,4.63c1.25-1.34,4.94.22,6,.73,2.21,1.08,2.49,2.58,3.86,4.42,1.5,2,4.56,3,6.52.84,8.18-9.06-8.42-17.14-16-16-3.42.5-8.48,2.5-8.53,6.67-.07,5.07,6.94,5.8,8.73,10.12l4.56-6q2.75,4.71,1.92,1.23L53,50.1a7.49,7.49,0,0,0-2.12-3,28.61,28.61,0,0,0-7.6-4.43c-5.51-2.43-12.51-2.33-18.35-1.47-2.72.4-4.05,4.27-2.61,6.4l-.24-.89a4.38,4.38,0,0,0,3.17,4.16c3.6,1.15,7.66.85,11.14,2.36,4.53,2,8.58-4.54,4-6.78a26.09,26.09,0,0,0-7.63-2.35c-4.25-.69-7.87,5.45-3.21,7.63a15,15,0,0,0,6.22,1.72c3.7.11,4.8-4.94,1.83-6.76Z"/><path class="cls-3" d="M53.68,43.4l.12-.29L50.65,45.5c5.17.09,9,.57,13.18,4,3.35,2.72,6.13,6.14,10.7,3.8a4,4,0,0,0,1.81-4.46c-.63-3-3.73-4.91-6-6.77a23.6,23.6,0,0,0-8.47-4.79C57.8,36.07,47.15,36,47.4,42.55c.14,3.76,5,4.16,6.28.85Z"/><path class="cls-3" d="M54.18,49.7C58.25,54,65.31,58,71.37,56.62a3.86,3.86,0,0,0,2.73-2.73c.91-4-2.55-4.63-5.61-5.18-3.28-.58-7-1.59-9.57-3.75-3.28-2.7-7.77,1.57-4.74,4.74Z"/><path class="cls-3" d="M50.8,56.29c4,1.24,7.57,2.38,11.78,2.2,3.89-.17,8.74-.55,12.34-1.93A3.66,3.66,0,0,0,75.78,50c-3.5-2.46-7.25-1.18-11.16-.41a47.75,47.75,0,0,1-13,.77c-3.51-.29-3.93,5-.8,5.95Z"/><path class="cls-3" d="M65.66,50.05c2.53,3.16,6.7,4.3,10.29,5.68,4.43,1.71,7-5.17,3.16-7.48-2-1.17-4.48-1.76-6.63-2.56s-5.07-1.09-6.82.9a2.54,2.54,0,0,0,0,3.46Z"/><path class="cls-4" d="M52.31,58.79a1.74,1.74,0,0,0,.2-1.71c-.15-.54-.43-1.51-1.07-1.62a.31.31,0,0,0-.38.21c-.1.47.22.86.39,1.27a2.09,2.09,0,0,1,.22,1.48c-.15.36.39.63.64.37Z"/><path class="cls-4" d="M53.19,58.45a6.21,6.21,0,0,0-1.45-3.35c-.4-.54-1.09-1.12-1.16-1.78,0-.43.13-.72,0-1.14l-.83.35a16.23,16.23,0,0,0,1.91,3.41.42.42,0,0,0,.7-.41,15.91,15.91,0,0,0-1.82-3.46.46.46,0,0,0-.84.35c.07.24-.22.67-.22.94a2.48,2.48,0,0,0,.73,1.39,18.17,18.17,0,0,1,2.33,3.88c.14.31.67.15.65-.18Z"/><path class="cls-4" d="M55.15,56.46a9.83,9.83,0,0,1,.06-2.53h-.82a7.84,7.84,0,0,0,.26,2.85.46.46,0,0,0,.88,0,4.65,4.65,0,0,1,.41-1.5l-.72.19.49.8.65-.5c-2.93-1.73-2.29-7.32-2.42-10.23l-.88.37c1.17,1.14,1,5,1,6.58a6.43,6.43,0,0,0,.75,3.41.5.5,0,0,0,.87-.51c-1-2-.65-4.78-.94-6.94-.15-1.16-.14-2.4-1-3.27a.52.52,0,0,0-.88.36c.1,3.25-.32,9.06,3,11,.3.18.8-.12.65-.5a2.61,2.61,0,0,0-.73-1.17.44.44,0,0,0-.68.09,4.05,4.05,0,0,0-.5,1.59h.88a6.41,6.41,0,0,1-.32-2.61c0-.54-.76-.51-.82,0-.09.72-.66,3,.48,3.2a.37.37,0,0,0,.28-.67Z"/><path class="cls-4" d="M57.72,56.17a.13.13,0,0,0,0-.25.13.13,0,0,0,0,.25Z"/><path class="cls-4" d="M57.68,56.22l.19.1a.45.45,0,0,0,.59-.15c.76-1.44.11-3.38,0-4.9-.23-2.52-.37-5-.59-7.56-.06-.73-1.2-.73-1.14,0,.17,2,.32,4.1.54,6.15.19,1.71,1,4.56.37,6.11a.19.19,0,0,0,.07.25Z"/><path class="cls-4" d="M61,56.14a31,31,0,0,0,.84-7A15.65,15.65,0,0,1,62.24,45a7,7,0,0,0,.5-2.46l-1.11.15c.4,2.49-.77,3.77-1.13,6a1.85,1.85,0,0,0,.6,2.05.33.33,0,0,0,.56-.24c0-2.87,1.5-5.17,1.06-8.13-.1-.66-1.08-.46-1.11.15a31.67,31.67,0,0,1-.81,3.33,17.73,17.73,0,0,0-.09,2.82c0,2.46-.27,4.88-.5,7.33-.05.45.66.53.77.11Z"/><path class="cls-4" d="M62.36,49.66a19.12,19.12,0,0,1,.46-2.54,9.82,9.82,0,0,0,.11-2.65c-.07-.4-.63-.33-.74,0a11.7,11.7,0,0,0-.28,2.84,7.74,7.74,0,0,0-.18,2.44.32.32,0,0,0,.63-.09Z"/><path class="cls-4" d="M63.63,55.77c.77-1.21,1.52-2.44,2.27-3.66l-.83-.35a13.13,13.13,0,0,0-.79,3.44c0,.59.87.68,1,.14.27-.94.53-1.87.8-2.8.17-.62-.74-.84-.95-.26A13,13,0,0,1,63,56.08l.9.37.9-1.89-.93-.39a14.55,14.55,0,0,1,.17,2,.55.55,0,0,0,1.08.15,9.72,9.72,0,0,1,1.14-2.47l-1-.42a28.57,28.57,0,0,0-.49,3.19h1.1a45.57,45.57,0,0,0-.2-8.66c-.07-.61-1-.63-1,0,.16,1.59.27,3.18.37,4.78,0,.51.89.71,1,.13.23-1.61.43-3.21.64-4.82H65.62a35.71,35.71,0,0,1-.17,4.74c-.07.65.87.69,1.06.15a18.49,18.49,0,0,0,.94-4.07c.07-.62-.84-.66-1-.14a34.1,34.1,0,0,0-1.07,3.53l1,.14c-.16-3,1.06-5.49.34-8.56l-.81.62c.76.53.59,4,.69,4.89l.94-.39-.34-.4c-.39-.47-1.22.16-.85.65l.32.42c.29.38,1.08.34,1-.28-.15-1.65.26-4.74-1.23-5.83-.42-.3-.9.19-.81.61.66,2.89-.51,5.43-.33,8.27,0,.56.89.74,1,.14A27.09,27.09,0,0,1,67.43,49l-1-.14a17.56,17.56,0,0,1-.93,3.78l1.06.14A34.09,34.09,0,0,0,66.68,48a.53.53,0,0,0-1.06,0c-.19,1.56-.38,3.12-.55,4.69h1c-.15-1.59-.29-3.18-.38-4.78h-1a69.52,69.52,0,0,1,.08,8.66c0,.71,1,.69,1.1,0a21.81,21.81,0,0,1,.43-2.9.55.55,0,0,0-1-.42A10.11,10.11,0,0,0,64.06,56l1.08.14a14.59,14.59,0,0,0-.19-2c0-.42-.57-.76-.92-.38a4.17,4.17,0,0,0-1.18,2.66.53.53,0,0,0,.89.38,15.11,15.11,0,0,0,2.36-4.29l-.95-.26c-.28.93-.57,1.85-.85,2.78l1,.14a11.42,11.42,0,0,1,.62-3.2c.17-.49-.57-.79-.83-.35-.73,1.24-1.45,2.47-2.16,3.72a.39.39,0,0,0,.68.4Z"/><path class="cls-4" d="M70.4,55.79c-.57-.66-.36-2.25-.31-3.08h-1a14.09,14.09,0,0,0,.42,2.89.53.53,0,0,0,1,0A7.71,7.71,0,0,0,71,53.19H70a19.65,19.65,0,0,0,.08,2.66l1-.14a19,19,0,0,1-.1-9.09l-1-.14A20.65,20.65,0,0,1,69.73,51c-.28,1.22-.09,2.57-.49,3.73-.25.71.87,1,1.11.31.47-1.32.29-2.8.6-4.17a20.77,20.77,0,0,0,0-4.39.53.53,0,0,0-1-.14A20.2,20.2,0,0,0,70.07,56c.13.56,1.1.45,1-.14A18.16,18.16,0,0,1,71,53.19c0-.66-1-.65-1,0a6.11,6.11,0,0,1-.46,2.13h1a14.35,14.35,0,0,1-.42-2.61.5.5,0,0,0-1,0c0,1-.33,3.28,1,3.56a.29.29,0,0,0,.28-.48Z"/><path class="cls-4" d="M65.2,53.65c1,.73,2-.9,1.29-1.67A.3.3,0,0,0,66,52c-.17.24-.09,1.29-.6,1.09-.32-.13-.45.34-.22.52Z"/><path class="cls-4" d="M74.67,54.79A16.42,16.42,0,0,0,76,51.47l-1-.14a8.67,8.67,0,0,1-1,3.56L75,55a3.42,3.42,0,0,1,.52-2.09l-.79-.33a4.34,4.34,0,0,1-.35,1.75l.94.13a9.17,9.17,0,0,1,.39-3.12l-.87-.12a6.94,6.94,0,0,1-.45,2.38l.87.24a29.93,29.93,0,0,0,.43-4.43c0-1.32.54-2.66.39-4h-1A13.12,13.12,0,0,1,75.13,50c-.24,1.09-.68,2.09-.82,3.2-.08.59.93.73,1,.14.23-1.3.77-2.54.92-3.86A17.09,17.09,0,0,0,76,45.34c-.07-.54-1-.41-1,.13.08,1.1-.44,2.22-.44,3.35a31.92,31.92,0,0,1-.28,4.79.45.45,0,0,0,.87.24,8,8,0,0,0,.47-2.62.44.44,0,0,0-.87-.11,10.55,10.55,0,0,0-.5,3.35.48.48,0,0,0,.94.13,6.9,6.9,0,0,0,.35-2,.47.47,0,0,0-.79-.33A4,4,0,0,0,74,55a.48.48,0,0,0,.93.13A11.2,11.2,0,0,0,76,51.33a.52.52,0,0,0-1-.13c-.36,1.09-.75,2.17-1.12,3.26a.43.43,0,0,0,.79.33Z"/><path class="cls-4" d="M78.77,54.51c.28-1.54.51-3.09.79-4.63l-1-.13c0,1.64,0,3.28-.11,4.91h1a15.11,15.11,0,0,1,.4-3.48L79,51.06a19.19,19.19,0,0,0,.29,3.55c.09.53,1,.4.94-.13a32.83,32.83,0,0,1,0-3.29h-.88c.11,1.06.2,2.11.25,3.18,0,.6,1,.61.94,0a70.82,70.82,0,0,0-.81-8.22c-.09-.6-.94-.38-1,.14-.2,1.84-.38,3.68-.56,5.52-.06.57.9.7,1,.14a39.79,39.79,0,0,0,.39-9.81c-.06-.69-1.14-.69-1.08,0a38,38,0,0,1-.3,9.53l1,.14c.18-1.84.37-3.68.54-5.52l-1,.13a55.82,55.82,0,0,1,.84,7.95h.94c-.06-1.11-.17-2.2-.33-3.29-.08-.52-.82-.34-.86.11-.09,1.1-.13,2.19-.12,3.29l.94-.13a14.65,14.65,0,0,1-.29-3.29.46.46,0,0,0-.9-.13,16.82,16.82,0,0,0-.5,3.73c0,.64,1,.63,1,0,.07-1.64.1-3.27.09-4.91,0-.53-.86-.68-1-.13A45.36,45.36,0,0,0,78,54.4a.41.41,0,0,0,.8.11Z"/><path class="cls-4" d="M79.43,49.69a10.6,10.6,0,0,0,.26-3.6c0-.18.13-.76-.11-.7s0,.45,0,.66a4.89,4.89,0,0,1-.08,2.31.41.41,0,0,0,.74.31,4,4,0,0,0,.17-2.85c-.1-.49-.26-1.46-1-1.36s-.63,1.1-.63,1.63a10.85,10.85,0,0,0,.27,3.6.17.17,0,0,0,.32,0Z"/><path class="cls-4" d="M82.6,55.41a14.27,14.27,0,0,0,1.32-4.88c0-.49-.69-.55-.82-.11a19.56,19.56,0,0,1-1.5,3.82c-.29.51.52,1,.78.46A12.34,12.34,0,0,0,83.56,51l-1-.14a13.83,13.83,0,0,1,0,1.58h1a14.33,14.33,0,0,1,.27-4.18,18.39,18.39,0,0,0,.74-3H83.5a20.88,20.88,0,0,1-1.1,6.36c-.2.64.75.86,1,.27a17.49,17.49,0,0,0,1.19-6.63.54.54,0,0,0-1.08,0c-.07,1.26-.71,2.5-.9,3.76a13.43,13.43,0,0,0-.06,3.41.52.52,0,0,0,1,0,11.89,11.89,0,0,0,0-1.58c0-.53-.9-.72-1-.13a13.84,13.84,0,0,1-1,3.5l.83.35c.43-1.34,1-2.63,1.47-4l-.8-.22A23.94,23.94,0,0,1,82,55.15c-.14.36.45.6.62.26Z"/><path class="cls-4" d="M85.31,55.61a12.84,12.84,0,0,0,2.28-4.77c.27-1.33.37-3.49,1.1-4.59.31-.48-.4-1-.79-.61-1,1-.84,2.63-1.15,3.91a16.43,16.43,0,0,1-.85,3,19.38,19.38,0,0,0-1.17,2.83.32.32,0,0,0,.58.24Z"/><path class="cls-4" d="M88.09,56.35a2.32,2.32,0,0,0,.68-1A17.65,17.65,0,0,1,90,53.07c.82-1.28,1.09-2.72,2-4l-1-.43c-.93,2.81-2.51,5.38-3.54,8.16-.2.52.59.79.87.36a28.07,28.07,0,0,0,2-4.06A44,44,0,0,0,92.1,49c.21-.64-.67-.9-1-.42A17.74,17.74,0,0,0,89.43,52c-.3.63-.75,1.17-1.09,1.79a10.19,10.19,0,0,1-.89,2,.45.45,0,0,0,.64.64Z"/><path class="cls-4" d="M91.22,58.49a13.11,13.11,0,0,0,2.2-3.41,9.9,9.9,0,0,0,1.31-3.8.39.39,0,0,0-.73-.19c-.82,1.41-1.19,3.09-2,4.54-.44.8-1.63,1.89-1.06,2.82a.18.18,0,0,0,.27,0Z"/><path class="cls-4" d="M93.32,60.38a38.14,38.14,0,0,0,2.56-3.66c.83-1.23,1.8-2.37,2.59-3.6.23-.35-.22-.75-.56-.56-1.11.62-1.75,1.94-2.42,3A45.51,45.51,0,0,0,92.76,60c-.16.34.28.75.56.43Z"/><path class="cls-4" d="M95.52,56.81A1.92,1.92,0,0,0,97,55.09L96.21,55a3.26,3.26,0,0,0,.12.87c.06.18.37.26.46.06a3.07,3.07,0,0,0,.24-.82c.07-.52-.7-.76-.8-.23a3.19,3.19,0,0,1-.92,1.44c-.14.17-.07.54.21.51Z"/><path class="cls-4" d="M95.24,62.72c1.89-.85,3.31-3,4.18-4.79.28-.59-.35.61-.47.72a4.48,4.48,0,0,1-.62.31,3.79,3.79,0,0,0-.93.81,13.16,13.16,0,0,1-2.57,2.54l.64.84c1-1.18,2.39-1.81,3.37-3a26.81,26.81,0,0,0,2.35-3.6.52.52,0,0,0-.9-.53,34,34,0,0,1-2.48,3.69c-.92,1-2.23,1.59-3.09,2.67-.34.43.11,1.23.65.84a11.88,11.88,0,0,0,2-1.68,9.24,9.24,0,0,1,1.94-2c.84-.54,1.53-1.39,1-2.44s-1.25-.74-1.74,0a29.09,29.09,0,0,1-1.8,2.9c-.62.74-1.36,1.36-2,2.11a.35.35,0,0,0,.43.55Z"/><path class="cls-5" d="M54.33,62.75a47.74,47.74,0,0,1,8-.86c2.57.1,5.05.85,7.63.72,5.09-.26,9.18-2.42,14.4-1.42A2.12,2.12,0,0,0,86,57.33c-4.93-3.45-10.32-.09-15.54.62-6,.83-11.61-1.32-17.28,2-1.61.95-.44,3,1.17,2.79Z"/><path class="cls-5" d="M37.93,58.49c.13.77.72.93,1.32,1.32.83.53,1.61,1.14,2.47,1.64,1.4.8,3.31,1.87,4.88,1.07a.86.86,0,0,0,.17-1.34c-1-1-2.62-1.18-3.81-1.84a19.16,19.16,0,0,0-3.62-2,1.1,1.1,0,0,0-1.09.28,1,1,0,0,0-.32.88Z"/><path class="cls-5" d="M36.38,57.05c1.2.77,2.63,1.11,3.84,1.91s2.14,1.85,3.32,2.63a.77.77,0,0,0,1.12-.86c-.83-2.75-4.92-5.64-7.84-5.29a.87.87,0,0,0-.44,1.61Z"/><path class="cls-5" d="M40.46,59.48c-.47,1.59,1.87,3.32,3.07,3.92,1.71.86,4.62,1.44,6.08-.14a.82.82,0,0,0-.36-1.36c-1.51-.39-3,.17-4.5-.46A7.44,7.44,0,0,1,41.9,59.1a.87.87,0,0,0-1.44.38Z"/><path class="cls-5" d="M41.63,61.73c1.76.73,3.6,1.24,5.41,1.8,1.14.35,2.81,1.28,3.94.61a.94.94,0,0,0,.19-1.47c-1.05-.82-2.6-1-3.86-1.37-1.72-.48-3.44-1-5.19-1.33a.91.91,0,0,0-.49,1.76Z"/><path class="cls-5" d="M40,58.84a12,12,0,0,0-2.88-2.67l-3.26-2.6-.82,2a13.3,13.3,0,0,1,3.19.72,2.9,2.9,0,0,1,1.33.86A4.85,4.85,0,0,1,38,58.43a.82.82,0,0,0,1.35.35c1.2-1.09.41-2.81-.64-3.69-1.45-1.2-3.54-1.52-5.34-1.82-1-.16-2.12,1.12-1.12,1.93s2.23,1.74,3.37,2.57a11.17,11.17,0,0,0,3.59,2.12.72.72,0,0,0,.81-1Z"/><path class="cls-5" d="M35.05,54.72c-2.2-1.16-4.74-1.36-7-2.32-2.48-1-5.4-2.25-7.44-4a1.13,1.13,0,0,0-1.76,1.36c1.75,3.51,5.61,6.61,9.73,6,1-.16.93-1.76,0-2-3.42-.88-6.08-1.68-7.8-5.1L19,49.93c4.09,4.1,10,5.34,15.38,6.38.92.18,1.61-1.1.68-1.59Z"/><path class="cls-5" d="M29.33,52.59C27.05,50.75,24,50,21.88,47.93c-1.11-1-1.76-4.45-3.78-4.21s-1.69,2.54-1.2,3.81a12.44,12.44,0,0,0,5.19,6,1,1,0,0,0,1.18-1.52c-1.53-1.58-3.2-2.85-4.29-4.83-.06-.1-.63-1.5-.89-1.37a4.51,4.51,0,0,0,.32,1.1,7.3,7.3,0,0,0,1.15,1.89A15.64,15.64,0,0,0,28.75,54a.82.82,0,0,0,.58-1.4Z"/><path class="cls-5" d="M19.61,44c1.48,0,1.81-1.7,2.67-2.62a5.94,5.94,0,0,1,2.13-1.4,5.25,5.25,0,0,0,1.93-.81A.74.74,0,0,0,26.19,38c-1.21-.92-3.34.15-4.37.94a7.34,7.34,0,0,0-1.59,1.7,6.52,6.52,0,0,0-.56,1.16c-.12.34-.15,1-.43,1.28a.53.53,0,0,0,.37.9Z"/><path class="cls-5" d="M20,43.34a29.89,29.89,0,0,0,4.27-1.7C25.51,41.18,27,41,28,40.12a.75.75,0,0,0-.32-1.25c-1.46-.44-3.11.31-4.46.86a9.55,9.55,0,0,0-3.92,2.4A.73.73,0,0,0,20,43.34Z"/><path class="cls-5" d="M21.18,41.37A3.86,3.86,0,0,0,19.28,44a.92.92,0,0,0,.23.89,1,1,0,0,0,.9.23.9.9,0,0,0,.64-.64c.14-.44.26-.9.41-1.34a3.36,3.36,0,0,0,.29-1.28.46.46,0,0,0-.57-.44Z"/><path class="cls-5" d="M24.8,40.84a34.14,34.14,0,0,0,5.35.17,18.41,18.41,0,0,0,5.35-.38.83.83,0,0,0,0-1.58,18.09,18.09,0,0,0-5.35-.17,34.21,34.21,0,0,0-5.35.38c-.76.15-.79,1.46,0,1.58Z"/><path class="cls-5" d="M27.66,39.39c1.13.28,2.32.25,3.46.49s2.05.57,3.14.68a.67.67,0,0,0,.57-1c-1.43-2.07-4.89-2.26-7.17-1.87-.87.15-.81,1.5,0,1.7Z"/><path class="cls-5" d="M21.35,41.44c-1.09.63-2.25,1.87-2,3.21a1,1,0,0,0,1.73.23c.33-.78.22-1.65,1-2.21s.1-1.7-.71-1.23Z"/><path class="cls-5" d="M32.92,40.21c1.78-.09,3.28-1,4.95.08a.81.81,0,0,0,1.2-.7c0-3.26-5.45-2.22-6.79-.49a.74.74,0,0,0,.64,1.11Z"/><path class="cls-5" d="M33.48,41.56c2.19.27,4.4.66,6.61.73,1.33.05,2.78-.19,3.47-1.45a.83.83,0,0,0-.93-1.2,54.78,54.78,0,0,1-9.15.07c-1.22,0-1.14,1.71,0,1.85Z"/><path class="cls-5" d="M36,40.46a21.92,21.92,0,0,0,6.71.4c1.85-.16,3.93-.25,5.35-1.52A.8.8,0,0,0,47.67,38c-1.8-.37-3.6.37-5.4.56a53.61,53.61,0,0,1-6.08.16A.88.88,0,0,0,36,40.46Z"/><path class="cls-5" d="M41.6,40.71a32.87,32.87,0,0,0,6.95-2.34c2.66-1.13,5.35-1.67,8.05-2.6.82-.28,1-1.61,0-1.82-5.19-1.07-10.84,3.41-15.4,5.29a.76.76,0,0,0,.4,1.47Z"/><path class="cls-5" d="M47.15,38.6a23.5,23.5,0,0,0,6.09-1.1,13.38,13.38,0,0,0,5.18-2.09c.58-.47.09-1.41-.58-1.41-1.79,0-3.5.8-5.21,1.3a58.9,58.9,0,0,0-5.71,1.6.87.87,0,0,0,.23,1.7Z"/><path class="cls-5" d="M47.65,38.92A16.77,16.77,0,0,0,51,38.35a11.89,11.89,0,0,0,3.55-1.14.92.92,0,0,0-.46-1.7,13.24,13.24,0,0,0-4.16.85c-.93.28-2.43.45-3,1.33a.82.82,0,0,0,.71,1.23Z"/><path class="cls-5" d="M56.61,36.72c2.48.29,5,.2,7.41.69,2,.4,3.91,1.43,5.94,1.51a.81.81,0,0,0,.56-1.37c-3-3.09-10.24-3.66-14.12-2.42a.81.81,0,0,0,.21,1.59Z"/><path class="cls-5" d="M63.82,37.67c1.57,1,3.33,1.76,4.94,2.74s3,2.23,4.64,3.12a.78.78,0,0,0,1.06-1.06c-1.81-3.39-6.35-5.6-9.94-6.47a.92.92,0,0,0-.7,1.67Z"/><path class="cls-5" d="M73.88,41.63l0,0a.74.74,0,0,0-.86.11c-.62.53,0,1.58.29,2.11.39.7.83,2,1.71,2.1a.83.83,0,0,0,1-.56c.25-.74-.29-1.33-.66-1.91-.17-.26-.34-.53-.52-.79a5.55,5.55,0,0,0-.35-.46s-.34-.34-.27-.18l-.19.69,0,0a.69.69,0,0,0-.14-1.07Z"/><path d="M31.51,114.42c4.8-5.6,7.9-12.91,10.56-19.75,2.31-5.94,6.54-15.37,4.54-21.73a1.28,1.28,0,0,0-2.31-.3c-1.59,2.78-1.55,5.88-2.26,9a87.29,87.29,0,0,1-3.4,11.18C36,99.78,32,106.38,30,113.57c-.22.8.88,1.54,1.47.85Z"/><path d="M90.78,117.32c.72-2.23,0-3.8-1-5.89-1.78-3.59-3.59-6.69-4.34-10.7-1.42-7.46-.64-15.52-2.78-22.8a1.59,1.59,0,0,0-3.11.43C79,85.44,80.61,93.83,82,100.83A37.61,37.61,0,0,0,90,117.52a.46.46,0,0,0,.75-.2Z"/><path d="M82,80.38c.17-5.28,5.26-5,8.55-7.39a11.85,11.85,0,0,0,4.87-7.44c.83-6.27-7.65-7.57-12.19-7.37s-7.6,2.43-11.7,3.53c-4.69,1.27-9.36-1-14-1.57-3.45-.44-11.2,1.75-6.81,6.25,1,1,3.07,0,2.52-1.47-.94-2.48,7.89-.36,8.69-.19a30.47,30.47,0,0,0,6.9,1c6.26-.09,11-4.55,17.56-3.79,2.14.25,5.7.55,5.61,4,0,1.82-2.2,3.87-3.51,4.79-2,1.39-4.36,1.61-6.37,2.86-2.91,1.82-3.25,4.48-1.43,7.21A.7.7,0,0,0,82,80.38Z"/><path d="M52.86,62.09c1.7-5.29,8.53-3.36,12.41-3,2.83.24,5.43-.62,8.13-1.31,7.68-2,12.74.52,18.93,4.79a1.09,1.09,0,0,0,1.47-1.48C89.51,54.72,80.53,53.27,73.56,55a33.38,33.38,0,0,1-10.8,1.15,19.86,19.86,0,0,0-5,0c-3.29.61-5.94,2-6.64,5.46a.93.93,0,0,0,1.79.49Z"/><path d="M52.82,60.28c-1.49-3.73-3.42-8.19-1.92-12.19a.44.44,0,0,0-.64-.5c-1.65,1-1.26,3.3-1,4.94A19.62,19.62,0,0,0,52,60.63c.26.4,1,.15.81-.35Z"/><path d="M54.24,58.71c-.6-1.92-1.49-3.74-2.17-5.63a31.82,31.82,0,0,1-1.26-6.18c-.06-.46-.82-.44-.9,0-.73,4,1.71,8.74,3.56,12.14a.42.42,0,0,0,.77-.33Z"/><path d="M50.5,49.7a4.57,4.57,0,0,1-.07-1.18c0-.42.12-.84.08-1.26a.36.36,0,0,0-.67-.18,2.23,2.23,0,0,0-.22,1.53,3,3,0,0,0,.16.64c.1.23.29.36.41.58a.17.17,0,0,0,.31-.13Z"/><path d="M53.83,56.91a.1.1,0,0,0,0-.2.1.1,0,0,0,0,.2Z"/><path d="M54.42,57.52a92.77,92.77,0,0,1-1.08-14L52.5,44c1.38.77,1.71,5.27,2.06,6.78.53,2.25,1,4.51,1.63,6.74a.49.49,0,0,0,.94-.26c-.6-3.08-1.41-6.12-2.14-9.17-.4-1.69-.39-4-1.92-5.06a.57.57,0,0,0-.85.48,44.71,44.71,0,0,0,1.4,14.25c.15.53.87.29.8-.22Z"/><path d="M57.57,57.06c.94-5.28-.44-10.4-.46-15.65l-1,.42c3,3.53,2.13,9.88,2.41,14.17,0,.45.76.62.85.12A26.84,26.84,0,0,0,59.23,48c-.33-2.46-.69-5-2.29-7-.32-.4-1,0-1,.41,0,2.56.53,5.11.71,7.67s.06,5.26.24,7.89c0,.36.59.49.67.09Z"/><path d="M60.51,56.49q.5-4.11,1.08-8.21c.33-2.33.21-5.44,1.6-7.42h-1c1.34,2.52.35,6.29-.18,8.9a37.45,37.45,0,0,0-1,6.57c0,.74,1.09.72,1.14,0,.31-4.79,3.29-11.45,1-16.06a.58.58,0,0,0-1,0c-1.54,2-1.42,5.25-1.75,7.7a46.84,46.84,0,0,0-.73,8.52.4.4,0,0,0,.79,0Z"/><path d="M63.27,57.13c.73-2.44,1.53-4.87,2.18-7.33S66,45,66.87,42.69l-1,.26c1.59,1.55,1.44,5,1.27,7a20.47,20.47,0,0,1-1.58,6c-.24.59.77,1,1,.44a19.2,19.2,0,0,0,1.78-7.78c0-2.14-.06-5-1.66-6.56a.61.61,0,0,0-1,.26c-.92,2.41-.84,5.07-1.49,7.56S62.68,54.58,62.6,57a.34.34,0,0,0,.67.09Z"/><path d="M69.28,57c.81-4.89,1.1-9.9,1.76-14.81l-1.12.15c1.55,5,.34,10.2,1.29,15.28.1.55,1,.41,1-.13C72.13,52.4,72.44,47,71,42c-.15-.51-1-.57-1.1,0a55,55,0,0,0-1.21,14.9c0,.3.51.42.57.07Z"/><path d="M73.74,55.52c1-4.26,2-8.86,1.84-13.26l-1,.27c2,3.35,2.48,11.06-.73,13.74-.27.23-.06.79.3.74,2.42-.32,2.73-3.46,2.84-5.44.19-3.25.16-6.69-1.47-9.59a.55.55,0,0,0-1,.28c.07,4.47-1.36,8.74-1.38,13.18a.32.32,0,0,0,.62.08Z"/><path d="M78,55a113.37,113.37,0,0,0,1.27-15.83l-.86.11c2.18,5.27,1.77,10.55,1.86,16.1a.45.45,0,0,0,.89,0c.43-5.41.18-11.26-1.9-16.33-.14-.34-.78-.48-.85,0a113.69,113.69,0,0,0-1.1,15.85c0,.38.62.49.69.1Z"/><path d="M81.63,55.55c1.09-4.47,2.73-9.17,2.43-13.82l-.74.2c1.15,1.84.8,5.13.63,7.22a47,47,0,0,1-1.47,7.36c-.09.43.56.76.75.32a23.76,23.76,0,0,0,1.65-8.13c.11-2.17.36-5.24-.87-7.17a.4.4,0,0,0-.74.2c-.15,4.72-2.15,9-2.44,13.71a.41.41,0,0,0,.8.11Z"/><path d="M85.15,55.52c.62-1.89,1.5-3.67,2.06-5.57.62-2.11.59-4.37,1.61-6.35l-.77-.21a21.12,21.12,0,0,1-.47,7,49.26,49.26,0,0,1-2.3,5.87c-.14.35.4.66.64.37,2.84-3.51,3.42-8.9,3-13.24a.42.42,0,0,0-.77-.21c-1.11,1.89-1.18,4-1.79,6.09s-1.72,4-1.84,6.15c0,.41.56.45.67.1Z"/><path d="M87.59,57.21c0-1.93,1.84-4.61,2.6-6.34s1.43-3.25,2.11-4.9l-.94-.13c.55,5.27-2.79,9.56-4.63,14.24-.26.66.79.93,1.06.29,2-4.74,5.24-9.14,4.52-14.53,0-.41-.66-.72-.89-.24C90.28,48,89.21,50.49,88.17,53c-.59,1.39-1.43,2.79-1.07,4.32a.25.25,0,0,0,.49-.06Z"/><path d="M90.46,58.34A74.88,74.88,0,0,0,95.55,48l-1-.28c.32,4.78-2.24,8.56-4.77,12.36-.41.61.56,1.16,1,.57,2.75-3.86,5.27-8,4.89-12.93a.55.55,0,0,0-1.08-.15c-1.47,3.51-3.19,6.9-4.74,10.37a.38.38,0,0,0,.65.38Z"/><path d="M92.62,60.45a86,86,0,0,0,6.23-8.9l-.94-.12c.72,3.52-3.72,7.14-5.67,9.53a.43.43,0,0,0,.52.68c1.94-1,3.28-3,4.44-4.82s2.23-3.51,1.71-5.67A.53.53,0,0,0,98,51,83.25,83.25,0,0,0,92,60c-.19.36.3.8.6.46Z"/><path d="M93.83,62.56c3-1.48,5.72-4.3,7.86-6.86l-1-.39c.55,4.48-4.59,6.44-7.13,9.19a.44.44,0,0,0,.53.68,25.06,25.06,0,0,0,5.71-4.48,6.5,6.5,0,0,0,2-5.39c0-.44-.59-.79-.95-.4-2.36,2.56-5.11,4.57-7.59,7-.37.36.1.89.52.68Z"/><path d="M50.19,66a.66.66,0,0,0,0-1.32.66.66,0,0,0,0,1.32Z"/><path d="M17.61,38.12C10.9,35.47,4.75,38.25.29,43.51a1,1,0,0,0-.15,1.22C3,48.91,3.92,53.85,4.35,58.82c.1,1.27,2.11,1.28,2,0A42.8,42.8,0,0,0,3.11,45.69c-.71-1.73-.91-1,.19-2.53a10.52,10.52,0,0,1,3.46-2.65,11.54,11.54,0,0,1,10.32-.46c1.19.47,1.71-1.46.53-1.93Z"/><path d="M12.47,42.39c-.3.09-.19-.3.17-.25.76.1-.21.67-.56.66a1.41,1.41,0,0,1-.67-.19c-.1-.06-.19-.16-.28-.21s-.07-.44-.28.07.05.23.39.3c.12,0,.48.16.48.12l.63-.83c-.71.15-1.43.12-2.13.26s-.63,1.22,0,1.47a4.32,4.32,0,0,0,2.59-.06.89.89,0,0,0,.64-.84,2.08,2.08,0,0,0-1.84-1.81c-.86-.18-2.14-.09-2.34,1s.74,1.8,1.53,2.16a3,3,0,0,0,2.92-.2,1.93,1.93,0,0,0,.53-2.8,2.17,2.17,0,0,0-2.46-.64,1.72,1.72,0,0,0-1,2.34,1.61,1.61,0,0,0,2.26.79.73.73,0,0,0-.56-1.33Z"/><path d="M10.05,49.54A6.46,6.46,0,0,0,8.85,49c-.24,0-.69.08-.29.19a2.33,2.33,0,0,0,.59,0c.13,0,1.35-.08,1.32.15s-1.15.3-1.27.29a2.43,2.43,0,0,1-1.26-.36c-.53-.34-.25-.43.29-.43a6.08,6.08,0,0,1,1.62.34l.29.15V49c-.13,0-.68.32-.84.37a.6.6,0,0,0,0,1.14c1.22.48,3-.11,2.58-1.73-.32-1.37-2.66-1.78-3.82-1.74s-2.46.67-2.37,2c.09,1.44,1.87,2.21,3.1,2.34s3-.27,3.44-1.6-1-2.23-2.21-2.28c-1,0-3-.19-3.13,1.27s1.92,2,3,1.9a.61.61,0,0,0,.14-1.11Z"/><path d="M4.65,58.71c-.26,6.19-6,13-3.54,19.17,1,2.43,2.93,4.54,4.25,6.8A35.66,35.66,0,0,0,9.8,91.37C14,95.88,20.36,96.46,26.18,97c5.2.48,11.45,1.69,15.61-2.22C43,93.66,41.23,92,40,93c-4.13,3.54-12.38,1.72-17.35,1.07-7-.91-11-3.39-14.51-9.38C5.48,80.17,1.87,76.54,3.59,71,4.91,66.67,7.15,63.11,6,58.52a.7.7,0,0,0-1.37.19Z"/><path d="M27.53,37.46c4.38-.07,8.39,2,12.63,1.85,3.89-.18,6.92-2.61,10.59-3.56,8.29-2.13,20,.3,23.73,8.67.52,1.17,2.25.16,1.73-1-3.41-7.73-11.32-9.76-19.13-10.12-4.36-.21-7.62.75-11.58,2.44a13.3,13.3,0,0,1-9.84.7,30.07,30.07,0,0,0-8.13-1,1,1,0,0,0,0,2Z"/><path d="M15.92,39.6A9.18,9.18,0,0,0,22.1,39a18.88,18.88,0,0,1,9-1.27,1,1,0,0,0,.48-1.78c-5.53-2.54-10.1,2-15.48,2a.85.85,0,0,0-.22,1.66Z"/><path d="M19.82,38c-8.92,3.39-4.43,14.43,2.06,17.76a23.67,23.67,0,0,0,7.24,1.89c4.14.67,6.48,2.22,9.45,5.09,3.56,3.44,8.71,3.75,13.33,2.79a1.12,1.12,0,0,0-.3-2.19c-5,.15-8.25.07-12.25-3.59-2-1.81-3.13-3-5.8-3.78-3.28-1-6.78-.77-9.95-2.18-5.49-2.45-9.51-9.85-3.15-14.3.69-.49.29-1.84-.63-1.49Z"/><path d="M9.07,49.79a1.4,1.4,0,0,0,.72.15.83.83,0,0,0,.79-1c-.17-.51-.54-.58-.86-.92l-1,1.7a6.71,6.71,0,0,1,.75.27,1.51,1.51,0,0,0,1,.16c.45-.06.62-.6.56-1-.13-.75-1.11-1.18-1.75-1.41-1-.36-1.67,1-1,1.7.5.51,1.53,1,2.09.28l-1.3-1c.14-.11.14-.11,0,0a.65.65,0,0,0,0,1.11Z"/><path d="M11.91,42a1.13,1.13,0,0,0-.44-.94H11l-.87,0,.47,1.71a1.51,1.51,0,0,1,1.18,0c.48.19.75.61,1.3.61a.78.78,0,0,0,.74-.56c.15-1-.76-1.59-1.62-1.86a3.37,3.37,0,0,0-2.53.24A.93.93,0,0,0,10.17,43a4.64,4.64,0,0,0,2-.32,1.12,1.12,0,0,0,.36-1.53,1.2,1.2,0,0,0-2.12,1.11c.31.75,1.54.74,1.53-.21Z"/><path d="M51.87,61.21a25.44,25.44,0,0,1-10.65-5.47,22.3,22.3,0,0,0-7.9-4.16c-3.2-1-9.8-1.8-10.72-5.7-1.32-5.62,10-3.93,12.73-3.39A16.54,16.54,0,0,0,44,42.11c3-1,5.82-2.55,8.82-3.58a14.71,14.71,0,0,1,11.59.68c2.92,1.39,8.27,3.88,9,7.28.18.87,1.46.49,1.32-.36-.45-2.8-3-4.31-5.21-5.72-2.91-1.86-6-3.64-9.52-4.16-6.53-1-11.73,3.39-17.77,4.88-4,1-7.67-.59-11.62-.71-2.59-.08-6.84-.07-8.66,2.19a4.61,4.61,0,0,0,.23,5.56c1.77,2.38,5,3,7.71,3.86a52.29,52.29,0,0,1,6.72,2.21,29.14,29.14,0,0,1,5.15,3.62C44.53,60,48,62.42,51.76,62c.44,0,.61-.71.11-.83Z"/><path d="M15.37,67.63C15,66.72,13.94,66,13.84,65c-.07-.7.37-1.63,1.17-1.58a1.29,1.29,0,0,1,.93,1.84c-.4.92-1.59.79-2.4.5a1.49,1.49,0,0,0-1.83,1A2.93,2.93,0,0,0,14,70.42a4.58,4.58,0,0,0,4.57-1.9c1.95-2.56,1.88-6.38-.88-8.35a5.26,5.26,0,0,0-7.82,2c-1.28,2.72-.13,7.76,3.38,8.24a1.91,1.91,0,0,0,2.12-2.76Z"/><path d="M32.73,109.47c-1.78.36-2.74,2.75-3.59,4.18-1,1.65-2.42,3.5-2,5.49a1.43,1.43,0,0,0,2.07.84c1.71-.79,2.39-3.21,3.16-4.81.7-1.44,2.12-3.39,1.55-5a1,1,0,0,0-1.19-.67Z"/><path d="M27.2,119.15c-1.46,3.56.57,6.65,3.43,8.83,1.32,1,3.05,1.72,4.22,2.9s1.47,2.62,2.29,3.82a7.12,7.12,0,0,0,3.51,3c2.94,1.15,5.93,1.34,8.87,2.7a58.25,58.25,0,0,0,7.22,3.23c5.51,1.67,6.5-2.41,11.49-3.6,5.66-1.36,11.56,1.18,17.08-1.41a21.71,21.71,0,0,0,4.4-3.1c2-1.6,4.75-2.54,6.46-4.27,2.85-2.88.72-8.15.26-11.5-.56-4-3.1-5.92-6.82-7.33-2-.76-3.39,2.52-1.47,3.48,3.43,1.72,4.9,5.62,5.1,9.41s-3.63,5.2-6.3,7.43c-6.58,5.48-13.76,1.48-21.13,3.86-3.51,1.14-5.19,3.87-9.33,2.77-3.23-.85-6-3-9.27-4-2.22-.68-3.88-.57-5.76-2-1.62-1.25-1.86-2.48-3.12-4-2.41-2.89-9.56-4.47-8.36-9.41a1.44,1.44,0,0,0-2.77-.76Z"/><path d="M25.18,73.91c-2.15,2.84-2.82,6.66,1,8.44a9.28,9.28,0,0,0,5.24.83c1.35-.32,1.57-1.16,2.13-2.32A18.16,18.16,0,0,1,38.35,75c1.08-.95,2-1.84,1.51-3.39C39,69,34.47,68.22,32.31,69.12a1.14,1.14,0,0,0-.27,2c.72.45,1.75-.08,2.54-.09a5.68,5.68,0,0,1,1.92.22c1.31.94,1.43,1.66.34,2.16-.48.75-1.71,1.41-2.34,2.1-1.31,1.43-1.92,3.33-3.11,4.74-.83,1-2.37.93-3.6.38-3.58-1.59-2.27-3.5-1-5.84a.92.92,0,0,0-1.59-.93Z"/><path d="M28.47,74.13a5.18,5.18,0,0,0-1,3.5A1.8,1.8,0,0,0,29.63,79c.93-.25,1.33-1.19,1.65-2a13.43,13.43,0,0,1,2.27-3.36c.54-.68-.16-1.89-1-1.31A8,8,0,0,0,30,75.46a8.94,8.94,0,0,1-.72,1.62,13.64,13.64,0,0,1,.52-2.37.75.75,0,0,0-1.37-.58Z"/><path d="M38.58,77.85c2,5.84-.94,12.36-1.84,18.12-.17,1.09,1.27,1.9,1.9.8,1.71-3,2.3-6.7,2.69-10.14.35-3.06,1-6.89-.82-9.6-.63-1-2.35-.37-1.93.82Z"/><path d="M36.42,104.45c3.83-6.34,5.15-17.15.75-23.56-.72-1.06-2.57-.44-2.17.91,1.11,3.73,2.21,7.06,2.1,11s-1.2,7.59-1.39,11.44a.38.38,0,0,0,.71.19Z"/><path class="cls-4" d="M37.9,54.25l-.09-.07.43.57a4.43,4.43,0,0,1,0-1.31H36.31A20.1,20.1,0,0,0,37,55.88a1,1,0,0,0,2-.27c0-.31,0-.62,0-.92a1,1,0,0,0-1.68-.7,6.56,6.56,0,0,0-1.14,2l2.06.28c0-.81,0-1.61-.71-2.11a.76.76,0,0,0-.9.11c-.59.47-.52,1.32-.49,2a1.05,1.05,0,0,0,2.06.27,5.21,5.21,0,0,1,.66-1.39l-1.83-.49c0,.3-.07.61-.11.92l2-.28a22.63,22.63,0,0,1-.76-2.42,1,1,0,0,0-1.1-.72,1,1,0,0,0-.88,1,5.63,5.63,0,0,0,.14,2.08,1,1,0,0,0,1.4.57l.09-.06a.9.9,0,0,0,0-1.52Z"/><path class="cls-4" d="M38.34,54.23a7.88,7.88,0,0,0,1.42-5.06c-.13-.85-1.34-.7-1.57,0s-.25,1.54-.43,2.3-.33,1.53-.57,2.27a.63.63,0,0,0,1.15.49Z"/><path class="cls-4" d="M33.39,54.64c.76-1,.44-2.72.65-3.93s.93-2.66.91-4a.85.85,0,0,0-1.44-.6c-1.13,1.06-1.45,3-1.66,4.43s-.57,3.19.48,4.24a.68.68,0,0,0,1.06-.13Z"/><path class="cls-4" d="M34.07,46.2c-.7,1.17-.45,2.76-.5,4.08a7.25,7.25,0,0,1-.45,2.48,3.09,3.09,0,0,0-.31,1.64c.06.6,1,1.07,1.32.35a10.71,10.71,0,0,0,1-3.92c0-1.45.39-3.32-.32-4.63a.46.46,0,0,0-.78,0Z"/><path class="cls-4" d="M29.65,53.42a7.2,7.2,0,0,0,.82-2.6c.27-.89.77-1.77.48-2.71-.19-.63-1.29-.76-1.41,0-.15,1-.46,1.86-.63,2.81a3.38,3.38,0,0,0,.1,2.41.41.41,0,0,0,.64.09Z"/><path class="cls-4" d="M29.68,52a1.69,1.69,0,0,0-.12.28.09.09,0,0,1,.11,0,.36.36,0,0,1,.42.25c0-.11,0-.15,0-.11A.91.91,0,0,0,28.43,52a1.44,1.44,0,0,0,1.31,2.17c1.07,0,1.91-1.41,1-2.23a.7.7,0,0,0-1.08.14Z"/><path class="cls-4" d="M27.16,52c-.42-.43-.51-.46-.54-1.06,0-.76,0-1.54,0-2.29,0-1.2.23-2.56-.64-3.5a.63.63,0,0,0-.88,0,3.28,3.28,0,0,0-.66,2.48c0,1.1,0,2.21,0,3.31.05,1.3.72,3,2.33,2.43A.83.83,0,0,0,27.16,52Z"/><path class="cls-4" d="M25.36,47.74c.84-1.86,1.15-3.9,1.83-5.83.62-1.73,1.71-3.62,1.56-5.49a.75.75,0,0,0-1.26-.53c-1.36,1.34-1.92,3.64-2.48,5.42a11.39,11.39,0,0,0-.53,6.32c.1.37.71.5.88.11Z"/><path class="cls-4" d="M25.87,46.18c.48-.43.57-1.24.8-1.83s.76-1.23.69-1.92a.75.75,0,0,0-.93-.71c-.84.31-1.13,1.16-1.42,1.94a3,3,0,0,0-.19,2.39.68.68,0,0,0,1.05.13Z"/><path class="cls-4" d="M28.94,36.36A2.66,2.66,0,0,0,29.8,35a15.29,15.29,0,0,0,.62-1.76.85.85,0,0,0-1.55-.65,7.34,7.34,0,0,0-1.18,3,.89.89,0,0,0,.43.75l.06,0a.76.76,0,0,0,.76,0Z"/><path class="cls-4" d="M21.92,48.78c-.67-.59-.67-2-.88-2.8A30.22,30.22,0,0,0,20,42.81a1.09,1.09,0,0,0-2.09.58c.36,2,1.45,3.87,1.21,5.89-.12,1,1.63,1.26,1.81.24.38-2.27-1-4.21-.89-6.42l-2.13.29c.56,1.44,1.09,2.89,1.51,4.38A3,3,0,0,0,21.21,50c.68.27,1.25-.76.71-1.23Z"/><path class="cls-4" d="M19.47,43.55c.57-1.49.35-3.31.34-4.88s.22-3-.49-4.36a.64.64,0,0,0-1.09,0c-.67,1.35-.42,2.89-.39,4.36s-.14,3.41.45,4.88a.62.62,0,0,0,1.18,0Z"/><path class="cls-4" d="M19.08,33.56c.32-1.29,1.35-2.43,1.49-3.76l-.72-.19c-.7,1-1.32,2-1.94,3.08a3.93,3.93,0,0,0-.76,2.77c.15.91,1.68.71,1.61-.21s.63-2,1-2.88a15.47,15.47,0,0,0,.8-2.47.39.39,0,0,0-.57-.43c-1.5.64-1.61,2.63-1.6,4a.35.35,0,0,0,.69.09Z"/><path class="cls-4" d="M18.71,32.92c-.26.6-.41,1.23-.61,1.85a.79.79,0,0,0,.35.89l.19.08a.79.79,0,0,0,.88-.36,2.92,2.92,0,0,0,.19-2.33c-.16-.37-.78-.61-1-.13Z"/><path class="cls-4" d="M20.29,30.49c.36-.34.78-.58,1.12-.95s.68-.7,1-1.05c.67-.67-.33-1.65-1-1a8.86,8.86,0,0,0-1.07,1.14A5.73,5.73,0,0,0,19.66,30c-.17.39.28.82.63.48Z"/><path class="cls-4" d="M18.52,42.16c-.62-1.65-1.88-3-2.56-4.64a18.84,18.84,0,0,0-1.86-4.05.88.88,0,0,0-1.63.45c0,1.51,1.14,3.24,1.74,4.63.7,1.57,1.73,3.56,3.31,4.38.48.25,1.23-.18,1-.77Z"/><path class="cls-4" d="M12.78,34.73c.23.73.33,1.48.55,2.2a1.55,1.55,0,0,0,1.14,1.22c.59.14,1.21-.66.65-1.11a6.26,6.26,0,0,1-1.47-2.55c-.21-.52-1-.32-.87.24Z"/><path class="cls-4" d="M12.41,33.53c1.49-.82.26-3.69.75-5.06H11.81c.48,1.43.18,3,.37,4.49a8.33,8.33,0,0,0,1.23,3.71.74.74,0,0,0,1.34-.56c-.25-1.53-.82-3-1.05-4.52a12.53,12.53,0,0,0-.61-3.66c-.31-.68-1.26-.27-1.3.35a21.85,21.85,0,0,0-.22,4.91.58.58,0,0,0,.84.34Z"/><path class="cls-4" d="M22.61,39.31c-.52-.31-.74-2-.9-2.55A24,24,0,0,1,21.16,34a.44.44,0,0,0-.74-.19c-.87.94-.35,2.41.07,3.46.29.72.59,1.49.93,2.19.19.4.38.7.85.77a.47.47,0,0,0,.36-.86c-.46-.32-.79-1.58-1-2.05-.28-.64-1.11-2.21-.57-2.88l-.75-.2a19.34,19.34,0,0,0,.9,3.52c.25.66.52,1.63,1.19,1.94.25.11.47-.23.22-.37Z"/><path class="cls-4" d="M18.44,31.36c.36-2.9-.6-5.74.47-8.56l-1-.14a46.41,46.41,0,0,0,.4,6.56l.91-.37c-.56-.46,0-7.12-.73-7a.48.48,0,0,0,.13-.94l-.19-.06a.53.53,0,0,0-.64.36c-.39,1.52.07,3.59.14,5.16,0,.93-.29,2.58.54,3.26.31.25,1,.13.9-.38a46.34,46.34,0,0,1-.43-6.56c0-.61-.81-.65-1-.13a15.62,15.62,0,0,0-.09,8.91c.09.37.57.25.61-.08Z"/><path class="cls-4" d="M17.94,30a1.17,1.17,0,0,0-.82,1c-.07.44,0,1.05.52,1.18a.34.34,0,0,0,.4-.23c.07-.28-.06-.49-.07-.77a1.82,1.82,0,0,1,.22-.85.22.22,0,0,0-.25-.32Z"/><path class="cls-4" d="M25.12,35.42a2.93,2.93,0,0,0,.61,2.42c.32.43,1.08.2.92-.39a7.6,7.6,0,0,1-.34-2,.42.42,0,0,0-.82-.11,3.22,3.22,0,0,0-.41,2,.36.36,0,0,0,.64.09,2.26,2.26,0,0,0,.27-.88,8,8,0,0,1,.3-1l-.82-.11a11.76,11.76,0,0,0,.21,2.22l.92-.39a5.86,5.86,0,0,1-.81-1.91.35.35,0,0,0-.67,0Z"/><path class="cls-4" d="M26,35.75c-.87.12-1.14,1.61-1.21,2.3a.48.48,0,0,0,.35.45.36.36,0,0,0,.25,0,.49.49,0,0,0,.35-.45A3.57,3.57,0,0,1,26,36.92a2.08,2.08,0,0,0,.3-1,.23.23,0,0,0-.29-.22Z"/><path class="cls-4" d="M25.81,36.14c0-2.51,0-5,.28-7.48h-.95a53,53,0,0,0,.49,7.24c.09.58,1,.43,1-.13,0-2-.09-3.9-.13-5.85a.49.49,0,0,0-1,0c0,1.59,0,3.19.07,4.78l.94-.12A27.54,27.54,0,0,1,26.42,23l-1-.13q-.3,4.25-.22,8.51c0,.53.9.7,1,.13.37-2.6.74-5.19,1.1-7.79l-1-.13q0,3.64-.18,7.27l.8-.33c-2.57-3.08-.65-9.6,1.19-12.67l-.9-.25a33.52,33.52,0,0,1-1.52,7.14l.9.25a46.32,46.32,0,0,1,2.79-6.9c.29-.59-.56-1.11-.89-.52A47.8,47.8,0,0,0,26,22.91l.94.26a26.18,26.18,0,0,1,3.95-8.68L30,14q-1.23,1.92-2.47,3.83c-.35.53.47,1,.83.49l3.95-5.49c.38-.53-.5-1-.87-.51q-2,2.75-3.91,5.51l.83.49c.83-1.28,1.68-2.54,2.53-3.8.37-.56-.51-1.05-.89-.52a25.31,25.31,0,0,0-4,8.94.49.49,0,0,0,.94.26,52.33,52.33,0,0,1,2.5-5.1l-.89-.52a47.34,47.34,0,0,0-2.8,7.17.47.47,0,0,0,.9.25,40.55,40.55,0,0,0,1.59-7.39c.06-.51-.67-.6-.9-.24-2.26,3.45-3.89,10.3-1,13.83.28.34.78,0,.8-.34q.25-3.63.24-7.27c0-.54-.9-.71-1-.14-.38,2.6-.74,5.2-1.1,7.8l1,.13a83.23,83.23,0,0,1,.23-8.51c0-.56-.87-.69-1-.13a28.15,28.15,0,0,0,.16,12.12.48.48,0,0,0,.94-.13c0-1.59,0-3.19-.05-4.78h-1c0,1.95,0,3.9.08,5.85l1-.14a35.42,35.42,0,0,1-.53-7c0-.53-.86-.67-.94-.13A27,27,0,0,0,25,36.25c.06.47.8.34.81-.11Z"/><path class="cls-4" d="M36.43,39.63c.28-.21.28-.19.63-.19a1.35,1.35,0,0,0,1.25-.62.84.84,0,0,0,0-.84c-.38-.6-1.37-.47-2-.32-.84.21-1.45,1.12-.79,1.86a.73.73,0,0,0,.87.11Z"/><path class="cls-4" d="M36.71,38.7a7.26,7.26,0,0,1,.5-2.83c.21-.92.39-1.84.54-2.77l-1.11.63.12.05-.54-.42a9.35,9.35,0,0,1,.38,4.08.88.88,0,0,0,1.71.23l1-3.68-1.75-.24a26.1,26.1,0,0,1-.33,4l1.9.25a25.06,25.06,0,0,0-.35-4.5.72.72,0,0,0-1.38,0,11.75,11.75,0,0,0-.21,4.5c.08,1,1.75,1.42,1.91.26a27.67,27.67,0,0,0,.25-4.46.9.9,0,0,0-1.76-.23c-.32,1.23-.63,2.46-.95,3.69l1.71.23a24.3,24.3,0,0,0-.23-3.52c-.08-.63-.08-1.55-.77-1.84-.48-.21-1.22-.1-1.33.54-.2,1.22-.35,2.45-.46,3.67a4.67,4.67,0,0,0,.29,2.77c.25.5,1,.14.87-.36Z"/><path class="cls-4" d="M38.27,34.38c.7-2.67.59-5.42,1.4-8.09l-1.78-.24a39.75,39.75,0,0,1-.56,7.31.92.92,0,0,0,1.77.49c.85-3,1.66-7,.56-10a.84.84,0,0,0-1.51-.2c-1.88,2.46-1.94,7.26-1.77,10.21.07,1.18,1.91,1.19,1.85,0a36.27,36.27,0,0,1,0-4.3c.08-1,.13-4.12,1.08-4.78l-1.21-.49a20.76,20.76,0,0,1-.74,9.09l1.77.49a49.61,49.61,0,0,0,.6-7.8.91.91,0,0,0-1.78-.24,14.34,14.34,0,0,0-.72,4.55,15.78,15.78,0,0,0,.2,4,.45.45,0,0,0,.87,0Z"/><path class="cls-4" d="M39.3,25.81c.13-3.52,1.18-7,1.46-10.56h-2a18,18,0,0,1-.11,6.17c-.37,1.55-1,2.74-.72,4.35.14.9,1.43.92,1.84.24a4.33,4.33,0,0,0,.73-2.88A.73.73,0,0,0,39,22.94,9.75,9.75,0,0,1,38,25l1.84.24c-.24-1.56.79-3.38,1-5a38.38,38.38,0,0,0,0-5c0-1.1-1.81-1.45-2-.27a45.48,45.48,0,0,0-1,10.83.77.77,0,0,0,1.54,0Z"/><path class="cls-4" d="M41,17.27c.61-2.41.69-4.91,2-7.09,1-1.66,2.92-2.68,3.13-4.71a.79.79,0,0,0-1.34-.55C41.76,8.4,39,12.13,39.57,17.08c.09.76,1.22,1.05,1.44.19Z"/><path class="cls-4" d="M44.26,38.88c2.72-1.34,1.14-3.61,1-6-.08-1-1.6-1.36-1.87-.25A14.91,14.91,0,0,0,43,37.05a1,1,0,0,0,1.91,0,33.42,33.42,0,0,0-.15-6.93c-.18-.87-1.44-.61-1.49.2a25.58,25.58,0,0,0-.05,5.32c.13.91,1.55.66,1.56-.21a45.85,45.85,0,0,1,0-5.11l-1.49-.2a33.41,33.41,0,0,0-.3,6.93h1.91a9.65,9.65,0,0,1,.26-3.86l-1.88-.26a9.22,9.22,0,0,0,.26,2.28c.24.93.79,1.49-.17,2.18a.86.86,0,0,0,.87,1.49Z"/><path class="cls-4" d="M44.54,30.34C45,29.21,44.23,28.13,44,27c-.3-1.48.16-2.89,0-4.34-.08-.54-.81-.5-1.06-.14-1.35,1.93-.47,6,.49,8,.26.54,1,.31,1.16-.16Z"/><path class="cls-4" d="M43.78,22.07l0-.19a.23.23,0,0,0-.44,0l0,.19a.27.27,0,1,0,.52,0Z"/><path class="cls-4" d="M44,21.78q-.72.09-.57.72a5.47,5.47,0,0,0,0,.81A16.72,16.72,0,0,1,43.28,26c-.21,1.21-.61,2.38-.77,3.6-.24,1.82-.1,3.62,1.45,4.74.58.42,1.31-.27,1.15-.88a10.51,10.51,0,0,1-.6-3.8c.12-1.29.5-2.55.58-3.85s0-3.4-.93-4.57a.53.53,0,0,0-.77,0l-.19.17a.45.45,0,0,0-.12.45l.06.21a.46.46,0,0,0,.88-.24Z"/><path class="cls-4" d="M44.29,21.32c-.4-.09-.53,0-.4.39a4.68,4.68,0,0,1,0,1c0,.76,0,1.53,0,2.29a21,21,0,0,1-.31,5.08c-.46,1.67-1.44,3.68.64,4.63.41.18,1,0,1-.58-.2-2.34.54-4.46.47-6.84-.06-2,.44-5-.74-6.81a.58.58,0,0,0-1.07.29,1.38,1.38,0,0,0,0,.45.24.24,0,0,0,.41.11Z"/><path class="cls-4" d="M51.39,36.1a4.43,4.43,0,0,0,.71-2.88c0-1.16-1.84-1.47-2.08-.28a16,16,0,0,0-.37,2.84H51.7a25.67,25.67,0,0,0-.47-5.18c-.21-1.18-1.87-.79-2,.27a20.83,20.83,0,0,0,.2,5c.16,1.07,1.93.81,1.89-.26-.1-2.61.49-5.92-.77-8.28a.92.92,0,0,0-1.67.22A17.29,17.29,0,0,0,48.75,32c.09.91,1.54,1.29,1.74.24a30.66,30.66,0,0,0,.16-7.66,37.06,37.06,0,0,1,.82-8.44.88.88,0,0,0-1.69-.47c-1.74,5.44-.12,10.65-1,16.1l1.73.23a7.81,7.81,0,0,1,.17-4L49,28.24c.93,1.9.41,5.27.43,7.36l1.89-.26a16.75,16.75,0,0,1-.06-4.47l-2,.26a27,27,0,0,1,.34,4.65,1,1,0,0,0,2.05,0l.36-2.28L50,33.22a10,10,0,0,1-.17,2.45c-.11.85,1.23,1.16,1.58.43Z"/><path class="cls-4" d="M51.23,16.59c.44-.8.91-1.59,1.35-2.4a3.17,3.17,0,0,0,.62-2.11.5.5,0,0,0-.73-.3,3.16,3.16,0,0,0-1.09,1.9c-.29.88-.53,1.76-.82,2.63a.37.37,0,0,0,.67.28Z"/><path class="cls-4" d="M51.72,15.86c.11-.19.24-.39.35-.59.38-.68-.57-1.49-1.11-.86a1.18,1.18,0,0,0-.17,1.45.54.54,0,0,0,.93,0Z"/><path class="cls-4" d="M55.68,34a15.42,15.42,0,0,0,.15-4.07.81.81,0,0,0-1.61,0c0,1.39-.23,2.77-.36,4.15h1.43c-.08-1.63-.13-3.27-.06-4.91s.55-3.26.37-4.84a.54.54,0,0,0-1-.28c-1.57,2.7-.81,7-.74,10a.72.72,0,0,0,1.43,0c.16-1.31.27-2.63.51-3.93l-1.56-.43a15.64,15.64,0,0,0-.3,4c0,.95,1.59,1.27,1.74.24Z"/><path class="cls-4" d="M54.86,29.89c1-1.54,1.1-3.44,1.41-5.2.35-2,.7-4,1-5.94a.65.65,0,0,0-1.19-.5c-1,1.72-1.24,4-1.57,5.95s-.84,3.76-.44,5.58a.44.44,0,0,0,.79.11Z"/><path class="cls-4" d="M56.32,22.34a28.31,28.31,0,0,1,1.9-3.77c.66-1,1.79-1.7,2.25-2.82.21-.5-.37-.86-.78-.78-1.24.22-2.15,1.6-2.84,2.57a9.56,9.56,0,0,0-1.65,4.33c-.09.61.81,1.17,1.12.47Z"/><path class="cls-4" d="M60.85,15.7a2.45,2.45,0,0,0,.22-.5,1,1,0,0,0-.9-1.19,1.12,1.12,0,0,0-1.07,1.46,1,1,0,0,0,1.75.23Z"/><path class="cls-4" d="M32.05,37a.65.65,0,0,1-.31-.18c-.86-.6-1.78.92-.83,1.42a2.93,2.93,0,0,0,.87.32.86.86,0,0,0,1.06-.81,9.73,9.73,0,0,0-.54-2.36A10,10,0,0,0,32,33l-1,.62a10.57,10.57,0,0,1,.61,2.67c.12.65,1.12.47,1.14-.16v-.26c0-.54-.64-.6-.91-.25l-.17.22,1.08.29a13.9,13.9,0,0,0-.64-3,.62.62,0,0,0-1-.27,3,3,0,0,0-.44,2.33c.08.87.56,1.75.56,2.61l.84-.84-.26-.09-.42,1.53a1.7,1.7,0,0,0,.73-.2.67.67,0,0,0,0-1.15Z"/><path class="cls-4" d="M31.11,32a20.64,20.64,0,0,0-.1,2.61,21.35,21.35,0,0,1-.53,3c-.19,1,1.24,1.74,1.7.72.8-1.77,1.2-4.72.13-6.45a.66.66,0,0,0-1.2.16Z"/><path class="cls-4" d="M32.4,30.68c.18-1.24.29-2.44.4-3.68s.63-2.74.51-4.08c-.05-.56-.81-1.07-1.26-.52-1.76,2.16-1.5,6-.34,8.37a.38.38,0,0,0,.69-.09Z"/><path class="cls-4" d="M31.47,28.16c-.91.17-1.16,1.45-1.25,2.22a4,4,0,0,0,.48,3c.43.52,1.15.15,1.35-.35a3.92,3.92,0,0,0,.08-1.6,15.81,15.81,0,0,1,.08-1.69c0-.47.09-1.76-.74-1.61Z"/><path class="cls-4" d="M61.66,34.67A3.11,3.11,0,0,0,62.07,33H59.91a12,12,0,0,1,.09,1.7l2-.27a4.84,4.84,0,0,0-.23-1,2.14,2.14,0,0,0-.59-.86.69.69,0,0,0-1.14.3,2.74,2.74,0,0,0-.1.9c0,.31.08.62.1.93a1,1,0,0,0,1,1,1,1,0,0,0,1-1,16.11,16.11,0,0,1,.07-1.7A1.08,1.08,0,0,0,61,31.87,1.12,1.12,0,0,0,59.91,33a5.26,5.26,0,0,1-.22.89,1.08,1.08,0,0,0,2,.83Z"/><path class="cls-4" d="M60.88,34a7,7,0,0,0,1.58-4,54.94,54.94,0,0,1,1-6.59c.27-1.27-1.68-1.81-1.94-.54-.48,2.33-1.14,4.63-1.49,7-.19,1.21,1.6,1.77,1.88.52.52-2.32,1-4.65,1.55-7l-1.94-.54A47.92,47.92,0,0,0,60,33.66a.53.53,0,0,0,.89.37Z"/><path class="cls-4" d="M62.9,24.14c.42-.83.8-1.69,1.25-2.51s1.2-1.49,1.62-2.32-.43-1.77-1.25-1.26a6.41,6.41,0,0,0-2,2.61,6.55,6.55,0,0,0-.83,3.14.68.68,0,0,0,1.25.34Z"/><path class="cls-4" d="M63.26,24.59c.14-1,1.17-1.91,1.73-2.72a7.42,7.42,0,0,0,1.42-2.65c.1-.58-.5-1.22-1.09-.83a8.87,8.87,0,0,0-2.3,3c-.55.94-1.37,2-.91,3.17.19.46,1,.66,1.15,0Z"/><path class="cls-4" d="M64.82,20.61c.88-.74,1.52-1.72,2.4-2.47s2-.89,2.51-1.7a.49.49,0,0,0-.08-.57c-.94-1-2.68.05-3.5.72s-2.41,2.22-2.47,3.54a.68.68,0,0,0,1.14.48Z"/><path class="cls-4" d="M71.15,16.08l.07-.1-.54.42.11,0a1,1,0,1,0-1.18-1.18,1.16,1.16,0,0,0,0,.69.85.85,0,0,0,1.55.2Z"/><path class="cls-4" d="M65.7,37.25a8.59,8.59,0,0,0,1.36-3.32c.32-1.19,1.18-2.85.7-4.05a.7.7,0,0,0-1-.4c-1.32.55-1.44,2.42-1.69,3.66A8.79,8.79,0,0,0,64.78,37a.55.55,0,0,0,.92.24Z"/><path class="cls-4" d="M66.26,33a13,13,0,0,1,1.46-4.27c.5-.95,1.55-1.93,1.43-3a.61.61,0,0,0-.6-.6c-1.44.07-2.21,1.79-2.7,3a10.85,10.85,0,0,0-.65,5,.53.53,0,0,0,1.06,0Z"/><path class="cls-4" d="M67.66,30.72a4.94,4.94,0,0,1,.88-1.31,9.8,9.8,0,0,0,.81-1.62,4.89,4.89,0,0,0,.71-3,.64.64,0,0,0-.79-.45c-1.18.46-1.48,1.64-1.9,2.74a9.23,9.23,0,0,0-1,3.44.67.67,0,0,0,1.31.18Z"/><path class="cls-4" d="M69.47,25.72a12.72,12.72,0,0,0,1.44-1.2,16.81,16.81,0,0,0,1.42-1.24.83.83,0,0,0-1-1.29,5.88,5.88,0,0,0-1.6,1.21,5.13,5.13,0,0,0-1.2,1.58c-.26.57.31,1.36.94.94Z"/><path class="cls-4" d="M70.2,38.71c0,.34-.11.31.16-.11s.37-.77.55-1.14c.38-.77.76-1.53,1.17-2.28.66-1.2,2-2.56,1.92-4a.65.65,0,0,0-.81-.62c-1.59.44-2.54,2.6-3.24,4-.53,1-2,3.36-1.19,4.46a.75.75,0,0,0,.66.37h.14c.31,0,.69-.26.64-.64Z"/><path class="cls-4" d="M74.11,30.1l0,0a.82.82,0,0,0-1.11,0l0,0c-.61.48-.08,1.45.6,1.45s1.2-1,.6-1.45Z"/><path class="cls-4" d="M74.07,42a21.86,21.86,0,0,0,3.13-3c.81-.9,2.11-2,1.84-3.27a.87.87,0,0,0-.82-.63c-1.25,0-1.94,1.37-2.71,2.2-.9,1-1.88,1.92-2.78,2.91S73,42.76,74.07,42Z"/><path class="cls-4" d="M78.55,36.78a11,11,0,0,0,1.89-2.08c.51-.74.67-1.6,1.11-2.37.21-.37-.32-.81-.62-.47-.55.6-1.26,1-1.78,1.64a11.12,11.12,0,0,0-1.51,2.58.58.58,0,0,0,.91.7Z"/><path class="cls-4" d="M82,32.63a.93.93,0,1,0-1.38-.31l0-.06a.85.85,0,0,0,1.4.37Z"/><path d="M35.92,55.27c-.52,2,2.16,2.87,3.65,2.25.33-.13.45-.71,0-.79-.93-.18-2.79.16-2.72-1.33a.48.48,0,0,0-.93-.13Z"/><path d="M36,56.19c1.21-1.58,1.16-3.78,2.16-5.53A16.2,16.2,0,0,1,42,46a.38.38,0,0,0-.27-.65c-1.86.1-3.21,2.49-4.11,3.91a14.73,14.73,0,0,0-1.94,6.89c0,.19.23.21.32.09Z"/><path d="M38.94,57.48c1-1.19,1-2.71,1.12-4.22.21-2.59,1.26-4.82,1.66-7.32.06-.38-.41-.79-.72-.42-2.52,3-2.1,8.16-2.43,11.81a.22.22,0,0,0,.37.15Z"/><path d="M31,53.55A2.55,2.55,0,0,0,32.88,56c1,.25,2.38-.1,2.66-1.18A.37.37,0,0,0,35,54.4c-.6.29-1.09.73-1.81.58A1.72,1.72,0,0,1,32,53.42c-.09-.54-.94-.4-.94.13Z"/><path d="M32.2,54.42a27.5,27.5,0,0,1,1.16-5.83,58.05,58.05,0,0,1,2.7-5.27.47.47,0,0,0-.74-.57c-3,2.59-4.32,7.87-3.9,11.67a.39.39,0,0,0,.78,0Z"/><path d="M34.66,55.36a21.35,21.35,0,0,0,1.12-7.17,18.07,18.07,0,0,1,.56-3.8A3.8,3.8,0,0,0,36.5,42c-.11-.41-.81-.47-.88,0-.33,2-1,3.69-1,5.75-.08,2.5-.61,5-.53,7.53a.32.32,0,0,0,.62.08Z"/><path d="M28.75,53.13l0-.15a.49.49,0,0,0-.89-.37,1.48,1.48,0,0,0,.87,2,3.91,3.91,0,0,0,1.56.22,2.74,2.74,0,0,0,1.6-.29.37.37,0,0,0,0-.64c-.64-.34-3.4.25-3.14-1l-.6.34.12.07a.31.31,0,0,0,.46-.26Z"/><path d="M28.8,53.15c.2-2.92,1.48-5.63,2.41-8.37l-1.1-.15a29.71,29.71,0,0,0,.13,4.22c.07.65.15,1.3.23,1.95,0,.15.16,2.38-.06,2.22-.39-.29-.9.27-.66.65.67,1,1.83.48,2-.62s-.29-2.71-.41-3.87a24.7,24.7,0,0,1-.13-4.55c.05-.66-.9-.7-1.1-.14-.9,2.48-2.93,6.07-1.82,8.72a.25.25,0,0,0,.49-.06Z"/><path d="M25.11,51.63l0-.07a.43.43,0,0,0-.41-.31c-1.34.11-.52,1.93.15,2.38a2.28,2.28,0,0,0,3.23-.91.35.35,0,0,0-.48-.48A3.25,3.25,0,0,1,26,52.9a1,1,0,0,1-.75-.34c-.07-.08-.35-.47-.23-.59l-.41.11.07,0a.38.38,0,0,0,.47-.47Z"/><path d="M24.87,52.33c.21-4.82-1-9.68,1.57-14a25.88,25.88,0,0,1,8.42-9.19.32.32,0,0,0-.25-.58c-4.33.82-7.18,5.67-9.24,9.14-2.65,4.47-1.85,9.82-1.18,14.76,0,.4.66.28.68-.09Z"/><path d="M27.72,52.63c.28-1.72-.23-3.43-.27-5.16a21.9,21.9,0,0,1,1.34-7c1.27-4.09,2.4-8.39,6-11.07a.54.54,0,0,0-.55-.94c-3.78,1.82-5,6.7-6.22,10.36-1.41,4.4-2.72,9.42-.8,13.9a.29.29,0,0,0,.53-.07Z"/><path d="M20.36,49.86a.6.6,0,0,1,0-.23c.45-.62-.91-1.09-.89-.24a2.56,2.56,0,0,0,1.6,2.35c.73.24,2.08.06,2.21-.88a.42.42,0,0,0-.61-.47c-.45.23-.77.56-1.33.33s-.77-.89-.93-1.46l-.71.54a1.06,1.06,0,0,1,.12.2.28.28,0,0,0,.52-.14Z"/><path d="M19.85,49.71C18.88,49.66,18,38,18,37.26a12.46,12.46,0,0,1,5.38-10.94c.3-.23.15-.76-.27-.65-4.91,1.28-6.43,7.7-6.3,12.06.06,1.78.86,13.2,3.15,12.52a.28.28,0,0,0-.08-.54Z"/><path d="M22.92,50.73c-.36-4.21-1.81-8.29-2.19-12.55-.19-2.21-.57-4.8.41-6.88.83-1.76,2.19-3.22,3.1-4.94a.41.41,0,0,0-.64-.49c-3.37,3-4.52,6.53-4.22,10.89.3,4.54.76,10.11,3.07,14.1a.25.25,0,0,0,.47-.13Z"/><path d="M19.38,49.36l-.07,0a.42.42,0,0,0-.19.48c.11.64.9.72,1.44.79a2.79,2.79,0,0,0,2.12-.38.43.43,0,0,0-.19-.71c-.81-.23-2,.46-2.72-.17a.34.34,0,0,0-.39,0Z"/><path d="M19.05,50.47a3.56,3.56,0,0,0,2.67.83,1.7,1.7,0,0,0,1.63-1.39.41.41,0,0,0-.61-.36,2.5,2.5,0,0,1-1.4.72,9.87,9.87,0,0,1-1.95-.37c-.3,0-.64.32-.34.57Z"/><path d="M19.35,49.69a3.66,3.66,0,0,0,2.1.12c.7-.17.17-1.3-.45-.78-.22.19-.72.08-1,.06s-.53,0-.67-.27l-.22.53a1,1,0,0,1,.41,0c.29,0,.35-.37.14-.5a1.31,1.31,0,0,0-.64-.18c-.3,0-.4.31-.31.53a1,1,0,0,0,.81.54c.48.06,1.17-.25,1.57,0l.23-.86c-.63,0-1.24,0-1.88,0-.49,0-.5.64-.1.8Z"/><path d="M18.06,44.86c-.27-1.42-1.35-2.35-2.17-3.5a16.52,16.52,0,0,1-2.83-5.71,21,21,0,0,1-.73-5.85c.12-2.55,1.15-4,2.71-5.89.22-.27,0-.83-.39-.67-3.64,1.39-3.82,6.34-3.37,9.58a21,21,0,0,0,6.3,12.32.29.29,0,0,0,.48-.28Z"/><path d="M17.39,38.49A31,31,0,0,1,14.3,31a9.59,9.59,0,0,1-.2-4.39,15.11,15.11,0,0,1,1.76-3.5.4.4,0,0,0-.54-.55c-2.42,1.09-2.86,4.63-2.61,7a17.18,17.18,0,0,0,4.17,9.41.33.33,0,0,0,.51-.4Z"/><path d="M17.47,33.72c.33-2.3-.09-4.68.09-7a14.43,14.43,0,0,1,2.7-7.94c.42-.55-.43-1.05-.88-.68-3.71,3-4,11.54-2.53,15.62.1.26.57.34.62,0Z"/><path d="M19.79,28.78c.6-1.68.14-3.64.11-5.41,0-2.21.92-3.54,1.67-5.48.18-.48-.47-.73-.79-.46a6.79,6.79,0,0,0-2.16,4.89c-.08,2-.16,4.7.73,6.52.1.2.37.12.44-.06Z"/><path d="M20.13,32a5.36,5.36,0,0,0,.78,3c.26.62.54,1.22.83,1.81l.6,1.13c.65.71.32,1.18-1,1.42a.49.49,0,0,0-.89.37c.39,1.79,3.16,2.4,3.7.33.32-1.22-.82-2.51-1.36-3.5-.76-1.42-1.18-3.52-2.31-4.63a.23.23,0,0,0-.37.09Z"/><path d="M24.89,39a66.79,66.79,0,0,0,0-8.25c-.07-3,.76-5.52,1.37-8.38A15,15,0,0,1,29,15.6a33.15,33.15,0,0,1,6.2-5.38c.65-.49,0-1.6-.65-1.12-4.37,3-8.28,6.37-9.36,11.73-.58,2.88-1.65,5.62-1.61,8.59a58.49,58.49,0,0,0,.71,9.63c.07.36.57.24.6-.08Z"/><path d="M27.6,34.82c.44-5-.22-9.73,1.65-14.53C31,15.74,33.74,12.48,37,8.92c.38-.42-.1-1.13-.62-.81-3.69,2.33-6.21,6.8-7.87,10.7-2.18,5.14-2.32,10.5-1.79,16a.47.47,0,0,0,.93,0Z"/><path d="M31.22,36.74c-.54-.28-1.12-.39-1.42.24a1.57,1.57,0,0,0,.1,1.44,1.61,1.61,0,0,0,1.48.68,13.59,13.59,0,0,0,2.47,0,.36.36,0,0,0,.08-.65,4.51,4.51,0,0,0-2.33-.34c-.37,0-.88.1-1-.37s.3-.43.62-.66a.17.17,0,0,0,0-.3Z"/><path d="M31.56,37.56c0-.32-.17-.61-.19-.94a1.28,1.28,0,0,0-.11-.7.28.28,0,0,0-.43-.06c-.42.5-.09,1.51.37,1.91a.22.22,0,0,0,.36-.21Z"/><path d="M30.53,31.36a47.29,47.29,0,0,1,1.75-7.78c1-2.54,2.44-4.87,3.37-7.42.17-.45-.49-.64-.73-.3-2.81,3.84-6,10.62-4.85,15.5a.24.24,0,0,0,.46,0Z"/><path d="M33.37,29.38a36.88,36.88,0,0,1,.84-7.76c.49-2.06,1.39-4.14,1.4-6.26a.35.35,0,0,0-.64-.17,30.69,30.69,0,0,0-2.11,7.45,14.88,14.88,0,0,0-.17,6.83.35.35,0,0,0,.68-.09Z"/><path d="M32.51,30.58a39.25,39.25,0,0,0,0,5c0,.42.31,2.17.07,2.48-.8,1-2.28-.32-2.83-.84-.29-.27-.89,0-.72.42.57,1.37,3.29,3.16,4.48,1.39.59-.87.13-2.49.07-3.45a38.8,38.8,0,0,0-.42-5.06c-.08-.4-.62-.26-.66.09Z"/><path d="M36.08,38.46c0-.22,0-.43,0-.65a.49.49,0,0,0-.72-.41,1.63,1.63,0,0,0-.09,2.7,2.82,2.82,0,0,0,3.57-.43.36.36,0,0,0-.34-.59c-.7.11-1.36.54-2.08.4s-1.12-.83-.48-1.33h-.68c.18.15.33.3.49.46s.4,0,.38-.15Z"/><path d="M35.57,37.72c2.75-6.52,1.71-14,3.23-20.78S44.63,4.83,50.68,1.34A.62.62,0,0,0,50.06.26,23.57,23.57,0,0,0,38.26,14c-2.47,7.53-1.68,15.8-3.4,23.51a.37.37,0,0,0,.71.2Z"/><path d="M38.76,39.84c1.56-2.55,1.4-6.07,1.68-9,.38-3.78.83-7.56,1.42-11.32C43,12.5,45,5,51.44,1a.56.56,0,0,0-.56-1c-13,7.81-10,27-12.57,39.57a.25.25,0,0,0,.45.19Z"/><path d="M41.34,38.7C41,40,42.46,40.18,43.41,40a4.6,4.6,0,0,0,3.31-1.71.44.44,0,0,0-.48-.63,19.63,19.63,0,0,0-1.8.84c-.22.09-2.08.67-2,.31a.54.54,0,0,0-1-.15Z"/><path d="M42.82,39.77c1.3-2.94.26-6.53.32-9.64a50.79,50.79,0,0,1,2-12.43A.6.6,0,0,0,44,17.38C41.27,24.7,42.25,32,42.28,39.62c0,.27.42.42.54.15Z"/><path d="M47.28,38.21c-.37-4-1.05-7.86-1.27-11.84s.33-8,0-11.93c0-.5-.78-.67-.92-.13-.91,3.79-.54,8.2-.34,12.06a57.45,57.45,0,0,0,1.6,12c.14.52,1,.44,1-.13Z"/><path d="M43.81,19.48A6.5,6.5,0,0,0,45.07,17a9.93,9.93,0,0,1,.46-1.43c.21-.44.55-.73.72-1.19.1-.3-.21-.51-.47-.47-2,.35-1.33,4-2.28,5.23-.17.21.12.53.31.31Z"/><path d="M48.23,36.54c2,2.31,5.24-.14,5.3-2.66a.37.37,0,0,0-.68-.18c-.81,1.44-2,3.61-3.9,2.12a.51.51,0,0,0-.72.72Z"/><path d="M49.8,35.7a3.39,3.39,0,0,0-.33-.42c-.12-.13-.31,0-.28.16a2.23,2.23,0,0,0,.13.46c.14.36.67.12.48-.2Z"/><path d="M49.57,35.57c-.23-4.85-.88-9.57-.55-14.45.35-5.08,3.41-9.53,7.43-12.51a.46.46,0,0,0-.35-.84c-2.18.35-3.53,2.55-4.78,4.19A15.44,15.44,0,0,0,48,18.58a39.77,39.77,0,0,0,.84,17.09.36.36,0,0,0,.71-.1Z"/><path d="M52.45,35.47c.44-2-.27-3.75-.78-5.71a20,20,0,0,1-.2-8.87c.86-4.57,2.6-10.91,6.91-13.33.52-.3.17-1.24-.42-1-4.34,1.78-6,7.71-7.13,11.83a24.17,24.17,0,0,0-.88,8.5c.27,2.94,1.51,5.67,2,8.58,0,.28.48.26.54,0Z"/><path d="M54.54,9.08a19.93,19.93,0,0,0,3.69-2.14c.22-.18,0-.47-.26-.43a7.54,7.54,0,0,0-3.76,2.14c-.24.22.06.58.33.43Z"/><path d="M54.62,34.56h0a.49.49,0,0,0-.75-.1c-.69.56.21,1.28.73,1.4a3.94,3.94,0,0,0,2.83-.18c.26-.19.29-.73-.11-.79a16.52,16.52,0,0,0-1.72,0,2.49,2.49,0,0,1-.47,0h-.41c-.11-.06,0,.08,0-.09s0-.13-.06-.22Z"/><path d="M54.49,34.57c-1-1.26-.28-5.25-.11-6.81s.64-3.33.84-5a11.64,11.64,0,0,1,7.2-9.07c.44-.19.2-.87-.23-.87-2,0-3.67,1.84-5,3.18a9.65,9.65,0,0,0-3,5.22,61.29,61.29,0,0,0-1,8.33c0,1.35-.63,4.8.89,5.51.28.13.7-.16.47-.47Z"/><path d="M56.15,35.55c.56-1.92.27-3.85.35-5.83A31,31,0,0,1,57.76,23c1.07-4,3.59-8.28,7.3-10.32.55-.3.17-1.28-.44-1-3.33,1.35-6.21,5.44-7.4,8.71A36,36,0,0,0,55.59,27c-.42,2.79-.09,5.61-.27,8.42,0,.48.7.56.83.11Z"/><path d="M60.79,14.19a15.9,15.9,0,0,1,2.52-1.32c.82-.32,1.69-.47,2.52-.77.28-.1.36-.6,0-.65a6.55,6.55,0,0,0-5.42,2.24c-.24.26.06.7.38.5Z"/><path d="M58.42,34.21c-.25,1.66,2.89,2.89,3.9,1.59.21-.27.12-.83-.33-.79a3.85,3.85,0,0,1-1.39.13c-.29-.07-1.21-.42-1.23-.8s-.86-.69-.95-.13Z"/><path d="M59.26,33.35l-.3.17.61.47c.74-1.91.53-4.19.91-6.19a20.3,20.3,0,0,1,2.33-7c2.8-4.49,8.2-6.07,13.12-6.67a.47.47,0,0,0,0-.94,16.83,16.83,0,0,0-13.18,5.66c-3.59,4.22-3.21,9.78-4,14.88-.09.6.8.7.81.11v-.34a.21.21,0,0,0-.32-.19Z"/><path d="M62.35,35.14c1.07-4.22.74-9.13,3.13-12.9S72.28,14.8,77,14.41a.53.53,0,0,0,0-1.05c-4.23-.1-9,3.49-11.41,6.69-3.24,4.26-3.73,9.78-3.89,15a.35.35,0,0,0,.69.09Z"/><path d="M63.8,35.06a1.77,1.77,0,0,0,.8,2.38,1.86,1.86,0,0,0,2.49-1,.35.35,0,0,0-.51-.4c-.44.25-.88.62-1.43.44a.78.78,0,0,1-.44-1.06c.2-.52-.65-.88-.91-.38Z"/><path d="M65,35.93c.08-6.06,2.31-12.72,9.11-13.87.43-.08.38-.72,0-.82C71,20.4,67.87,23.56,66.29,26c-1.88,2.84-3,6.72-2.05,10.07a.39.39,0,0,0,.76-.1Z"/><path d="M67.22,36.37c1.73-5.21,2.32-12,8.12-14.6.41-.18.18-.79-.21-.79-2.38,0-4.51,3.12-5.62,4.95A19.07,19.07,0,0,0,66.66,36.3a.29.29,0,0,0,.56.07Z"/><path d="M68.37,37.08a2.06,2.06,0,0,0,.3,2.21c.69.62,1.75.29,2.55.17.29,0,.29-.45.08-.58-.59-.35-1.17,0-1.77-.2s-.44-1-.4-1.49-.63-.5-.76-.11Z"/><path d="M69.13,38.23c.36-4.59,3.73-7.67,7.13-10.25.42-.31.2-1.18-.39-.94a12.64,12.64,0,0,0-5.54,5.1c-.9,1.46-2.67,4.51-1.57,6.19a.2.2,0,0,0,.37-.1Z"/><path d="M70.34,39.34c1.36-2.17,2.16-4.6,3.42-6.82a20.29,20.29,0,0,1,5-5.41c.32-.27,0-.78-.4-.68-4.91,1.38-7.26,8.38-8.61,12.68-.11.33.37.52.55.23Z"/><path d="M74.85,29.06a7.83,7.83,0,0,1,2-1.47,23.77,23.77,0,0,1,2.32-.84.34.34,0,0,0-.09-.67c-1.87-.22-3.69,1.19-4.73,2.6-.22.29.25.64.5.38Z"/><path d="M72.81,40.67c3.82-2.82,6.86-6.9,9.5-10.79.41-.6-.56-1.16-1-.57-2.7,3.9-6,7.06-9.14,10.58-.35.39.13,1.14.61.78Z"/><path d="M81.45,29.66c-.19,4.61-3.92,9.24-7.22,12.12-.49.43.14,1.19.68.88,2.35-1.33,3.94-3.75,5.2-6.07,1.15-2.11,2.67-4.57,2.24-7.06-.09-.52-.88-.37-.9.13Z"/><path d="M73.34,38.71c-1.43.37-2.37,2.54-1.06,3.57s3.45.89,4-.82a.38.38,0,0,0-.56-.43,7.56,7.56,0,0,1-1,.65,2.24,2.24,0,0,1-1.5-.19c-1.22-.53.25-1.6.55-2.22a.39.39,0,0,0-.44-.56Z"/></g></g></svg>