<svg xmlns="http://www.w3.org/2000/svg" viewBox="0 0 149.3 179.59"><defs><style>.cls-1{fill:#3a1175;}.cls-2{fill:#f7b219;}</style></defs><title>Asset 20</title><g id="Layer_2" data-name="Layer 2"><g id="Layer_55" data-name="Layer 55"><path class="cls-1" d="M35.59,116.15c1,0,3.14,0,3.86.81.85,1-.06,4.36-.18,5.58a3.72,3.72,0,0,0,1.88,3.28,3.35,3.35,0,0,0,2.93.39,4,4,0,0,0,2.79-3.67c.36-4.42.93-9.26-3.49-11.88-2.91-1.72-8.49-2.6-10.65.51-1.5,2.16.53,4.9,2.86,5Z"/><path class="cls-1" d="M37,116.09a43.8,43.8,0,0,1-1.62,7.67C34,128,41,129.88,42,125.58c-.16.42,0,.31.49-.32L38.27,122c-.52.54-.63.74-.32.57-3.41-.73-4.88,3.41-2.27,5.38s8.33,2.5,11.11.92c3-1.71,6.92-5.32,6.66-9a2.38,2.38,0,0,0-3-2.25c-3.11.63-4,3.47-6.47,5-2,1.2-5.27-.49-7.63,0l.78,5.79a6.28,6.28,0,0,0,6-4.31c.9-2.38-2-3.9-3.91-3l-1.39.66,2.23-.29-.5-.08,1.51,5.72a10.69,10.69,0,0,0,1.86-11.78c-1.15-2.38-5.55-2-6,.78Z"/><path class="cls-1" d="M42.89,120.76c9.11.68,18.84-1.3,27.91-2.18,4.86-.47,9.73-.89,14.56-1.57,3.7-.51,7.44-1.16,9.18-4.79A2.59,2.59,0,0,0,93,108.49c-3.8-1.36-8.52.21-12.42.66-4.9.56-9.8,1.19-14.7,1.81s-9.82,1.17-14.7,1.88c-3.27.47-7.58.5-9.84,3.22a2.88,2.88,0,0,0,0,3.92,2,2,0,0,0,1.53.78Z"/><path class="cls-1" d="M64.89,116.07c6.27-.61,12.25-2.92,18.08-5.19,4.86-1.9,11.76-3.58,14.7-8.11,1.26-1.93-.44-4.1-2.45-4.26-5.23-.41-11.13,4-15.88,6-5.25,2.2-10.8,3.89-15.79,6.64-2.19,1.21-1.34,5.2,1.34,4.94Z"/><path class="cls-1" d="M63.58,133.6c-1.44-1.57-2.84-1.47-4.89-1.54l2.2,5.32c.71-.64,3.1-1.85,4.14-1.64s.34,0,.77,1.14c.24.64.28,1.36.56,2a8.76,8.76,0,0,1,1.14,3.83c0,1.85,0,3.69.09,5.54l2.59-3.4a16.26,16.26,0,0,0-2.29.45,2.52,2.52,0,0,0-1.68,3c.32,2.1,2,3.07,4,3.38a3.59,3.59,0,0,0,4.46-3.39c.19-2.93.56-6.73-.36-9.56-.43-1.34-1.28-2.36-1.66-3.71a9.24,9.24,0,0,0-1.42-3.47c-3.58-4.59-11.31-2.14-14.72,1.45-1.77,1.86-.59,5.45,2.21,5.31,2-.1,3.47,0,4.89-1.59a2.25,2.25,0,0,0,0-3.1Z"/><path class="cls-1" d="M74.09,139.84c3.77-3.42,5.41-9.77,8.28-14,3.41-5.08,7.78-8.81,11.94-13.21a3.92,3.92,0,0,0,1-3.87,4.87,4.87,0,0,0-1.83-2.38,3.89,3.89,0,0,0-4,0c-5.67,3.41-10.27,9.1-13.8,14.63-3,4.72-7.3,12-6,17.73a2.64,2.64,0,0,0,4.36,1.15Z"/><path class="cls-1" d="M70.32,132.75a51.22,51.22,0,0,1,6.48-4.24c1.16-.71,2.3-1.44,3.47-2.13.52-.31,1-.6,1.58-.9,1.1-.63,1.54-.54.19-.42a2.79,2.79,0,0,0,2.63-2l0-.2a3.11,3.11,0,0,0-2.11-3.73c-3.38-1-7.3,3.07-9.68,5.07-1.82,1.52-6.91,4.85-5.76,7.72a1.93,1.93,0,0,0,3.17.83Z"/><path class="cls-1" d="M71.74,137.78c3.49.2,6.41-2.66,8.66-5s4.86-5.35,4.13-9a2.12,2.12,0,0,0-2.6-1.47c-2.56,1-3.57,2.81-5.17,4.93A33.93,33.93,0,0,1,74.51,130c-.52.56-2,2.52-2.77,2.62-3.25.42-3.44,5,0,5.21Z"/><path class="cls-1" d="M88.91,135.5c-.12,3.85,2.87,6.69,6.51,7.45a2.81,2.81,0,0,0,2.16-5.11c-3.48-2.15-.76-7.13.82-9.5.64-1,1.47-2.51,2.51-3.09s1.76-.24,3-.31a3,3,0,0,0,2.86-2.85c.42-3.33-3.13-5.06-6-4.58-3.26.54-5.48,3.28-7.07,6-3.7,6.31-4.23,12.91.53,18.74l2.72-4.67c-2-.6-3.19-1.94-4.52-3.5s-3.43-.21-3.48,1.44Z"/><path class="cls-1" d="M98,126.8a23,23,0,0,0,3.78,1.11,5.93,5.93,0,0,1,1.33.55c.42.25,1.12,1.24.68.4.53,1,.69,1.95,1.6,2.75s1.92.9,2.89,1.43c3.34,1.84,6.07-3,3-5.06-.22-.15-1.26-.89-1.55-.78-.4-.24-.32-.09.24.47l-.15-.68a7,7,0,0,0-2.37-3.8,9.41,9.41,0,0,0-8.73-1.57c-2,.79-3.08,4-.68,5.18Z"/><path class="cls-1" d="M99.75,125.14c-2.13-3.53-.59-9.8.31-13.44.94-3.81,2.38-7.32,2.79-11.25l-7.18,1a49.19,49.19,0,0,1,0,15l7,.94c0-1.29-.18-8-.35-7.88l-4.72-1.24a14.11,14.11,0,0,1,2.75,10.43h7a13.16,13.16,0,0,1,4.78-9.38l-6-3.46c-.76,3-6.62,21,2.76,17.57a3.28,3.28,0,0,0,2.23-3.94c-.66-2.8.52-4.65,2.63-6.37l-4.83-3.72a21.21,21.21,0,0,1-2.62,4.36l5.72,2.41c.86-2.11,1.74-4.14,3.71-5.43,1.35-.89,3-1,4.16-2.21a5.76,5.76,0,0,0,1.35-6c-1.92-4.72-11.29-3.82-14-.43a3.37,3.37,0,0,0-.49,3.79l.37.84c.82,1.92,3.55,1.47,4.5,0a5.91,5.91,0,0,1,4.29-1.27c-.47-1.41-1.22-1.67-2.26-.78a7.74,7.74,0,0,0-3.36,2.22c-2.16,2.09-3.26,4.91-4.33,7.66-1.38,3.56,3.79,5,5.72,2.41a20.64,20.64,0,0,0,2.53-4.42c1.29-3-2.12-6.31-4.83-3.73a15.09,15.09,0,0,0-4.56,11.57l3.2-3.2-.59,0,2.85,1.63c-.05-.08,1.29-4.44,1.42-5.06q.63-3,1.28-6c.73-3.41-3.31-6-5.95-3.46a21.21,21.21,0,0,0-6.75,14.41c-.3,4.53,6.57,4.42,7,0a19.88,19.88,0,0,0-3.79-13.91,3.53,3.53,0,0,0-4.72-1.24c-4.53,2.73-3.22,9.31-3.24,13.84,0,3.85,6.39,5,6.94.94a90.55,90.55,0,0,0,.4-17.88c-.29-4.75-6.85-4.64-7.31,0-.84,8.69-7.28,20.28.22,27.76,2,2,5.5-.57,4-3.07Z"/><path class="cls-1" d="M96,110.56c2-.38,3.28-2.41,4.71-3.71,2.31-2.1-.1-6.46-3.14-5.38-1.73.62-3.42,1.29-5.12,2a23.85,23.85,0,0,1-4.82,1.82H89.7l-.39-.07,1.75,1-.24-.25,1,3.86c1-2.54,2.86-4.27,2.43-7.18a2.32,2.32,0,0,0-2.22-1.7c-3.18.06-4.89,3-6.83,5a4,4,0,0,0,0,5.61c2.41,2.45,5,1,7.53-.29s4.9-2.54,7.29-3.93l-3.9-5.06c-1.38,1.63-3.45,3.58-3.3,5.86a2.53,2.53,0,0,0,3.15,2.4Z"/><path class="cls-1" d="M87.85,101l-1.3.35,1.7,4.16c.89-3.89,4.27-7.64,5.91-11.34a56.51,56.51,0,0,0,3.63-11.43c.83-3.93-4.81-6.86-6.83-2.88-1.69,3.32-1.82,6.67-2.15,10.33-.42,4.54-.82,9.08-1.33,13.62-.45,4,5.15,4.71,7,1.89,3.35-5.12,5-12.38,6.89-18.18l-7.19-1a107.15,107.15,0,0,0,.13,16.71l6.83-1.86a10,10,0,0,1-.82-2.89c-.72-3.76-6.82-2.9-6.67.91a17.48,17.48,0,0,0,.79,4.81c1.18,3.74,7.63,3.34,7.21-1a84.82,84.82,0,0,1-.15-16.71c.44-4.47-5.76-4.42-7.19-1C92.13,90.84,90.86,97,88,101.91l7,1.9c.2-3.34.48-6.66.75-10s0-7.25,1.68-10.19l-6.84-2.88a64.59,64.59,0,0,1-4.43,12.36c-1.69,3.44-4.48,6.58-5,10.44-.64,4.65,6.47,6.65,7.12,2l1-1.19c1.62-1.09.67-4-1.39-3.32Z"/><path class="cls-1" d="M93.34,94.19c-1.13-10.36,4.8-18.92,6.1-29a95.08,95.08,0,0,0-1.39-32C97,28,90,29.88,89.47,34.41c-1.13,9.9-2.51,19.73-1.29,29.7.88,7.16,2.64,17,8.63,21.75,1.64,1.3,4.86.69,4.65-1.92-.62-7.43-4.63-14.16-5.3-21.74-.79-8.88.4-17.89,1.89-26.63H89.63c1.66,10.76,2.75,22.48.67,33.27-.85,4.44-3,8.42-4,12.8a26.11,26.11,0,0,0,.42,13.45c1,3.53,7.06,3,6.63-.9Z"/><path class="cls-1" d="M100.62,85.84a121.74,121.74,0,0,0,2.06-15.7c.23-4.62.85-9.63-1.26-13.86a2.85,2.85,0,0,0-4.89,0c-2.06,4-1.58,8.6-1.46,13,.14,5.35.87,10.65,1.05,16,.08,2.45,4,3.25,4.5.6Z"/><path class="cls-1" d="M96.74,33.71c-1.45-1-.41-5.77-.49-7.41a19.59,19.59,0,0,0-1.43-7,13.22,13.22,0,0,0-3.39-4.78c-2-1.73-2.06-1.28-2-4.19s-3.58-5.28-6.09-3.5c-8.4,6-.83,14.25,4.85,18.78L92.1,19c-1.93-.32-3.39-1.08-4-3.15-.51-1.63-.53-4.12,1.32-4.64,2.85-.8,5.53,6.43,4.73,6.61l3,.4c-2.83-1.34-3-4.81-2.1-7.36l-5.13,2.09c.8.59.83,2.7.6,3.52l2.57-2.57,1.16-.31c-1.08-3.38-6.35-2.88-6.32.86,0,4,4.69,9.8,8.75,5.6,3.56-3.69.13-10.77-3.23-13.14C91.43,5.49,89,7,88.27,9c-1.84,5.14,0,17.72,7.91,16.32,9.39-1.66,5.91-13.36,1.95-18.22-4.81-5.9-13-6.9-16.56.83C78.13,15.32,81.55,25,90,26.65c3.5.7,7.25-3.93,3.87-6.66-.41-.33-6.66-6-6.4-6.15l-6.09-3.49c-.19,2.71-.4,6,1.53,8.22a12.07,12.07,0,0,0,2.36,1.62c2,1.51,2.7,3,3.2,5.4,1,4.62.5,12.82,7,13,2.81.09,3.32-3.48,1.33-4.89Z"/><path class="cls-1" d="M88.19,9.33c3.38-1.19,9.63-.25,12.46,1.93,4.92,3.78-1.5,7.49-4.94,9.13l5.83,3.34c.22-2.18,1-6.27,3.22-7.42L100,15.7a2.22,2.22,0,0,0-2.42,1.7q-2.37,1.47.74,1.62L100,21.17l.21-1.86-6.18-1.67c.72,6.54-2.34,12.64-2.75,19.13-.27,4.14.34,9.27,5.45,9.43A3.38,3.38,0,0,0,100,43.74c1.57-7.58-1.5-16.67,3.79-23.06,2.48-3-1.46-7.17-4.36-4.36A16,16,0,0,0,94.85,26c-.59,4.36,1.48,11.31-1,15.13L98.44,40c-1.27-.61,1.59-10.78,1.85-12.24a32.6,32.6,0,0,0,.28-11C100.09,13.6,96,14,94.5,16a8.51,8.51,0,0,0-1.27,7.69,3.76,3.76,0,0,0,2.66,2.66c6.4,1.24,15.38-11,9.66-16.11a4,4,0,0,0-4.72-.61c-4.8,2.52-6.56,9.19-7,14.14-.31,3.21,3.45,4.46,5.83,3.35,7.43-3.46,15.77-12.5,8.19-20.11-4.72-4.74-19.34-8.64-22.27-.29a2.17,2.17,0,0,0,2.65,2.65Z"/><path class="cls-2" d="M46.36,163.33C51.73,157.59,58.48,153,64.54,148c4.64-3.82-2-10.45-6.61-6.61a71.39,71.39,0,0,0-16.2,18.37c-1.71,2.84,2.32,6.05,4.63,3.57Z"/><path class="cls-2" d="M16.89,128.79c2.55-.49,4.92-2,7.41-2.74s5.83-1,7.06-3.58a3.34,3.34,0,0,0-.51-3.94c-2.75-2.36-6-1-9,.19-2.77,1.15-6.06,2.47-8,4.88s-.18,5.79,3,5.19Z"/><path class="cls-2" d="M110.84,146.58c0-1.27.26-2.31-.1-3.6a15.19,15.19,0,0,0-1.63-3.43c-.59-1-1.36-1.88-1.9-2.9a2.63,2.63,0,0,1-.51-1.19c-.19.75-.09.74.3,0l-3.64,2.09h.51c3.2-.05,4.48-3.19,3.35-5.83l-.22-.5c-1.06-2.49-4.94-2.66-6.62-.85a8.18,8.18,0,0,0-.84,9.82c.88,1.52,2.22,2.76,3.24,4.18.46.64.85,1.32,1.32,1.95.64.85,1.54,1.37,2.17,2.18,1.45,1.86,4.65.28,4.57-1.89Z"/><path class="cls-2" d="M120.33,121.25c3.53-.11,4.74,1.84,7.08,4.06s5.05,2.5,7.69,4.06c3.38,2,8.05-2.15,5.63-5.64a10.35,10.35,0,0,0-4.86-4c-1.79-.83-2.89-2.28-4.35-3.58a13.94,13.94,0,0,0-12.32-3.3c-4.78.83-3.63,8.56,1.13,8.41Z"/><path d="M90.3,34c1.21-5.22-2-9-5.68-12.29C82,19.37,79.41,16.83,80.73,13,82,9.35,86.47,4.44,90.58,6c1.66.64,3.07-1.52,2.24-2.91C88.05-4.87,78.44,4.44,76,9.74a11.8,11.8,0,0,0,.09,10.89c2.67,4.69,9.3,6.82,9.52,12.75.1,2.62,4.09,3.38,4.73.64Z"/><path d="M102.86,37.28c1.79-3.73,1.53-7.12,4.79-10.27,2-1.92,4.35-3.48,5.81-5.91,2.55-4.23,1.93-11.93-3.85-12.91a2.13,2.13,0,0,0-2.36,3.08c.63,1.46,2.18,3.1,2.14,4.81,0,1.88-1.53,3.25-2.73,4.47-1.66,1.69-3.55,3.14-4.92,5.1-2.39,3.43-3.93,8.39-1.14,11.92a1.45,1.45,0,0,0,2.26-.29Z"/><path d="M70.79,105.41a.5.5,0,0,0,0-1,.5.5,0,0,0,0,1Z"/><path d="M83.22,89.13c-.83,3.4-1.53,6.58-4.14,9.17s-6.56,3.75-10.12,4.86A127.84,127.84,0,0,1,46.23,108c-4.56.58-3.58,7.31.84,6.2a15.75,15.75,0,0,1,1.78-.4c1.55-.29,2.29-2.72,1-3.73a16.81,16.81,0,0,1-1.38-1.15l-2.23,5.39c9.62,1.13,21.31-3,30-6.79,7.06-3.08,12.72-10.31,11-18.35-.43-2-3.58-2-4.07,0Z"/><path d="M6.21,132.92a101.73,101.73,0,0,1,15-11.34c1.36-.8,8.42-4.84,9.87-3.26,2.37,2.59-7.78,5.07-8.64,5.35-5.78,1.9-11.71,3.58-17.38,5.77C2,130.63-.74,132.55.18,136.15a2.25,2.25,0,0,0,3.28,1.34c6.48-4.7,15.69-6.42,23.23-9,5-1.71,13.81-4.33,11.43-11.56-2.15-6.54-11.35-4.2-15.87-2.19C15,117.92,7,123.55,2.26,129.87c-1.82,2.4,1.93,4.8,4,3Z"/><path d="M29.49,116.26c1.9-3,4.76-5.91,8.69-5,3.06.74,4,3.52,5.81,5.74,1.53,1.92,4.11.11,4.32-1.79C49,109.33,42,105,36.75,105.11s-12.2,4.74-11.26,10.63c.32,2,3.08,2,4,.52Z"/><path d="M28.87,126c2.13,5.16,8,6.13,13,6.75,4.43.55,11.21-1.59,9.81-7.31-.41-1.66-2.3-1.81-3.45-.91s-1.88,2.54-3.57,3c-1.23.35-3-.06-4.2-.22-3.11-.41-5.87-1-8-3.39-1.37-1.51-4.41.07-3.58,2.08Z"/><path d="M51.15,128.06c2.23-3.79,9.84-3.88,13.66-4.85,4.59-1.16,9.15-2.33,13-5.14,1.28-.92,1.07-3.6-.91-3.37-6.1.7-11.87,3.16-17.88,4.48-4.17.91-9.41,1.65-11.49,6a2.44,2.44,0,0,0,.36,2.78l.42.5a1.8,1.8,0,0,0,2.82-.36Z"/><path d="M37.1,173.48c4.47-6.48,6.85-14.06,11-20.75a33.44,33.44,0,0,1,7.07-8.46c2.32-1.91,12.06-6.29,8.82.67-1.61,3.44-6.9,5.83-10,8s-6.28,4.43-9.24,6.88c-5.19,4.27-11,9.93-12.72,16.62-.75,2.87,3.08,4.33,4.66,2,3.32-5,6.21-9.55,10.78-13.54s9.63-7.2,14.48-10.75c3.25-2.36,7.08-4.89,8.29-9a7.71,7.71,0,0,0-3.46-9.1c-7.08-3.82-15.61,3.25-19.7,8.41-6.35,8-9.37,18.32-13.29,27.61-.84,2,2.23,3,3.32,1.4Z"/><path d="M56.11,142.29a2.72,2.72,0,0,0,1.45-2.63c0-2-.72-3.23.55-5.08,2.35-3.44,6.79-3.32,10.43-3.69a2.25,2.25,0,0,0,1.12-4.14c-4-3.09-10.91-.23-14.18,2.82-3.11,2.89-4.71,8.38-1.94,12.05a2,2,0,0,0,2.57.67Z"/><path d="M60.16,150.61l-.1.2a2.4,2.4,0,0,0,.37,2.88c3.16,2.49,8.85,2.65,12.47,1.12,4-1.71,5.54-5.21,5.76-9.27.11-2.18-2.63-2.4-3.7-1-1.22,1.59-2.5,4-4.31,4.93a7.4,7.4,0,0,1-3.6.64c-.3,0-3.75-.18-3.46.06a2.21,2.21,0,0,0-3.43.44Z"/><path d="M70.43,128.65c2.35-2.23,4.54-4.62,6.82-6.93,2-2,4.35-3.73,6-6.09a1.89,1.89,0,0,0-1.62-2.82c-3.26.06-5.52,2.09-7.68,4.35-2.44,2.56-4.77,5.3-7,8.06-1.9,2.39,1.11,5.63,3.43,3.43Z"/><path d="M75.82,149.12c1.51-1.49,2.39-4.23,2.67-6.3a13,13,0,0,0-1.08-7.31c-1.29-2.7-5.71-.8-4.82,2a32.55,32.55,0,0,1,1.51,5.76,11.44,11.44,0,0,1,.25,2.4c-.07.89-.43,1.7-.42,2.63a1.12,1.12,0,0,0,1.89.79Z"/><path d="M76.07,143.21c4.6-2.2,7.39-6.62,9.56-11.07,2.47-5.09,5.4-10.39,7.33-15.68A2.19,2.19,0,0,0,89.77,114c-4,2.75-5.56,7.12-7.39,11.43a56.58,56.58,0,0,1-8.56,14.86,1.87,1.87,0,0,0,2.25,2.92Z"/><path d="M117,120.24a5.26,5.26,0,0,1,1.5-6.66c1.74-1.54,4.12-1.87,5.5-3.79.81-1.13-.11-2.45-1.17-2.87-3.65-1.46-8.63,2.6-10.4,5.53-2,3.27-2.48,8.84,1.42,10.94a2.32,2.32,0,0,0,3.15-3.15Z"/><path d="M113.36,122.1c4.57,3.39,10.34,5.42,15.66,7.35s11,3.87,16.76,3.8c1.82,0,2.82-2.78,1-3.64-4.91-2.29-10.3-3.41-15.43-5.11-5.54-1.84-10.77-4.62-16.34-6.28-2.47-.74-3.47,2.53-1.64,3.88Z"/><path d="M119.24,114c6.37,1.52,11.8,3.85,16.74,8.27,3.83,3.43,6.11,9.26,10.44,11.83a1.91,1.91,0,0,0,2.84-1.63c.64-6.21-7-13-11.41-16.44-4.9-3.81-12.2-8.42-18.61-6.49-2.11.64-2.29,3.92,0,4.46Z"/><path d="M104.67,105.59c4.5-2,8.94-3.7,13.65-1.1,3.32,1.83,4.17,5.4,7.08,7.44a1.88,1.88,0,0,0,2.75-1.12c1.54-5.27-5.05-10.56-9.44-12.13-5.82-2.1-12.89-.81-16.64,4.3-1.27,1.72,1.09,3.28,2.6,2.61Z"/><path d="M100.68,113.1l-.26,0a2.25,2.25,0,0,0-2.23,2.23c.28,4.15,3.57,7.75,7.24,9.44s9.63,2.37,12.44-1.14a2.14,2.14,0,0,0-1.49-3.6c-1.73-.12-3.33.5-5,.53a8.9,8.9,0,0,1-5.71-1.94,13.81,13.81,0,0,1-3.09-4c-.47-.76-.89-1.41-1.85-1.49Z"/><path d="M88.07,116.08a50.36,50.36,0,0,0,1.21,16.65c.41,1.54,2.93,1.68,3.25,0a51.81,51.81,0,0,0,0-17.26c-.42-2.7-4.29-1.77-4.49.61Z"/><path d="M99,137.33a5.1,5.1,0,0,1,1.84-6.08c2.14-1.45,4.18-.74,6.49-.46,1.54.18,2.21-1.71,1.64-2.85-2.14-4.24-8.69-2.51-11.54-.14a7.34,7.34,0,0,0-.81,10.92c.92.95,2.93,0,2.38-1.39Z"/><path d="M95.59,139.52c2.2,2.86,5,5.24,7.51,7.85,2.23,2.36,4.24,5.81,7.32,7,1.29.5,2.17-.93,2-2-.49-3.18-4-6-6.09-8.25-2.46-2.57-5.1-5.37-8.22-7.14-1.47-.83-3.71,1-2.52,2.52Z"/><path d="M103.42,130.24c2.18,4.59,4.69,8.31,5.52,13.48.7,4.4-.14,9.71,2.47,13.49a1.43,1.43,0,0,0,2.43,0c2.28-4.71.82-12.08-.43-17-1.17-4.69-3.5-9.57-7.39-12.53-1.67-1.28-3.32,1.09-2.6,2.6Z"/><path d="M90.88,129.73l-.35-.13a2.22,2.22,0,0,0-2.24.59c-2.73,3.46-3.07,9.74.19,13,1.91,1.89,5,3,7.51,3.85a11.49,11.49,0,0,0,8.32.06c1.44-.62,1-3-.44-3.34-3.73-.77-7.47-1.56-10.81-3.57-3.15-1.89-1.31-5.26-.86-8.09a2,2,0,0,0-1.32-2.33Z"/><path d="M105,119.29l-.09,0a1.81,1.81,0,0,0-2.2,1.25c-.82,2.57,2.51,3.71,3.93,5.17a10.49,10.49,0,0,1,2.73,4.74c.61,2.36-.16,4.42.13,6.73.19,1.54,2.28,3.06,3.54,1.47,3-3.8,1.7-9.94-.83-13.74a14.45,14.45,0,0,0-4.49-4.35,9.44,9.44,0,0,0-2.56-1.18q1.2,1.16.51.33a1.47,1.47,0,0,0-.67-.39Z"/><path class="cls-1" d="M91.58,97.48c-5.14,6.45-13,9.75-18.62,15.69-1.49,1.57.56,4.58,2.42,3.15a107.29,107.29,0,0,1,17.25-10.85l-2.43-3.14a90.65,90.65,0,0,1-16.45,11.28l2,3.45c7.45-4.32,19.31-8.18,19.77-18.41.12-2.57-3.88-2.57-4,0-.36,8-12,11.59-17.79,15-2.24,1.29-.25,4.66,2,3.45A95.11,95.11,0,0,0,93,105.16c1.8-1.56-.49-4.12-2.42-3.15a107.46,107.46,0,0,0-17.24,10.85L75.79,116c5.63-5.94,13.47-9.23,18.62-15.69,1.58-2-1.23-4.85-2.83-2.83Z"/><path class="cls-1" d="M88.37,95.17c-2.81,5.27-7.26,9.17-11.75,13L79.45,111A49.69,49.69,0,0,1,92.19,99.62c2.18-1.35.18-4.82-2-3.45a52.91,52.91,0,0,0-13.55,12A2,2,0,0,0,79.45,111c4.75-4,9.41-8.22,12.37-13.79,1.21-2.27-2.24-4.3-3.45-2Z"/><path class="cls-1" d="M54.32,115.25a62.64,62.64,0,0,1,9.06-1.91c2.22-.3,1.72-4.15-.53-3.93a23.11,23.11,0,0,0-8.59,2.53c-2,1-.62,4.29,1.54,3.65q5.67-1.66,11.18-3.76L65,108.49a23.41,23.41,0,0,1-7.1,4.36c-2.36.93-1.35,4.78,1.07,3.85a69.14,69.14,0,0,0,9.35-4.38l-2-3.46a20.68,20.68,0,0,0-6,5.64c-1.23,1.71,1.11,3.64,2.74,2.74l6.27-3.48L67,110.62l-6.26,6.2c-1.56,1.55.57,4.55,2.43,3.14l6.44-4.9-2.74-2.74L62,120.94a2,2,0,0,0,3.14,2.42l4.63-4.53-3.34-2a11.31,11.31,0,0,1-2.87,6l3.34,2a5,5,0,0,1,3.1-3.64l-2.93-2.26a18.33,18.33,0,0,1-5,7.12l3.14,2.42a10.39,10.39,0,0,1,4.29-4.75L66.73,121a14.29,14.29,0,0,1-4.82,4.71L64.85,128c3.07-8.48,10.88-13.63,16.34-20.44a2,2,0,0,0-2.83-2.83,84.67,84.67,0,0,1-11.78,8.76L69,116.58a173.36,173.36,0,0,1,18.18-15.15l-2.43-3.14q-6,5.31-12.28,10.16l2.42,3.14L88.34,99.92,85,98c-1.36,5.12-5.41,8.33-9.5,11.34l2.42,3.14a142.33,142.33,0,0,0,13.5-16.77c1.46-2.12-2-4.13-3.46-2a134.3,134.3,0,0,1-12.87,16c-1.48,1.58.52,4.55,2.42,3.15,5-3.68,9.69-7.51,11.35-13.74a2,2,0,0,0-3.35-2L72.06,108.76c-1.69,1.47.61,4.53,2.42,3.14,4.5-3.44,8.87-7,13.1-10.78,1.67-1.49-.57-4.48-2.42-3.14a180.06,180.06,0,0,0-19,15.77,2,2,0,0,0,2.43,3.15,90.73,90.73,0,0,0,12.59-9.39l-2.83-2.83c-6,7.46-14,12.91-17.37,22.2-.6,1.65,1.52,3.16,2.94,2.26A20,20,0,0,0,70.18,123c1.13-1.69-1.07-3.74-2.73-2.74a14,14,0,0,0-5.72,6.19,2,2,0,0,0,3.14,2.43A22.48,22.48,0,0,0,70.93,120c.68-1.72-1.53-3-2.94-2.25a9.82,9.82,0,0,0-4.94,6,2,2,0,0,0,3.35,1.95A14.91,14.91,0,0,0,70.29,118,2,2,0,0,0,67,116l-4.63,4.53L65.47,123l4.82-8.62c.9-1.6-1.05-4-2.73-2.73l-6.44,4.9,2.42,3.14,6.26-6.2a2,2,0,0,0-2.43-3.14l-6.27,3.48,2.73,2.73a14.55,14.55,0,0,1,4.53-4.2,2,2,0,0,0-2-3.46,62.06,62.06,0,0,1-8.4,4L59,116.7a29.11,29.11,0,0,0,8.85-5.38c1.46-1.28-.08-4-1.94-3.34-3.69,1.39-7.4,2.64-11.18,3.76l1.54,3.65a16.71,16.71,0,0,1,6.57-2l-.53-3.93a63.43,63.43,0,0,0-9.06,1.91c-2.47.71-1.42,4.57,1.06,3.86Z"/><path class="cls-1" d="M88.45,93.31a23.29,23.29,0,0,0-5.64,5.52c-1.37,1.87,1.57,4,3.14,2.43l3.91-3.9-3.14-2.42q-3.16,5.28-6.79,10.27c-1.52,2.08,1.95,4.08,3.45,2q3.63-5,6.79-10.27A2,2,0,0,0,87,94.53l-3.91,3.9,3.14,2.42a17.77,17.77,0,0,1,4.21-4.09c2.1-1.46.11-4.93-2-3.45Z"/><path class="cls-1" d="M89.72,100.77a7.29,7.29,0,0,1,1.6-4.62,2,2,0,0,0-.72-2.74,2.06,2.06,0,0,0-2.74.72,10.84,10.84,0,0,0-2.14,6.64c0,2.58,4,2.58,4,0Z"/><path class="cls-1" d="M76.43,111.33c-1.8,1.45-3.76,2.57-5.61,3.93-1.59,1.16-4.42,3.39-3.52,5.64a1.85,1.85,0,0,0,2.22,1.25c1.2-.35,1.5-1.17,2.24-2.06a15.63,15.63,0,0,1,2.48-2.26c1.67-1.33,3.64-2.67,4.62-4.63a1.55,1.55,0,0,0-2.43-1.87Z"/><path class="cls-2" d="M32.89,138.86c7.48-5.46,14.68-11.35,22-17l-3.77-2.16c0,2.91-5.25,6.33-7.25,8a81.29,81.29,0,0,1-9.58,6.79l2.31,3.95a232.73,232.73,0,0,1,21.5-13.92l-3.21-3.22a43.11,43.11,0,0,1-17.58,13.78l3.51,2c0-1.48,8.74-5.48,10.17-6.71,2.14-1.83,3.42-3.78,3.34-6.65-.08-3-4.84-3-4.7,0,.33,7-12.88,6.27-13.48,13.36a2.34,2.34,0,0,0,3,2.25A40.87,40.87,0,0,0,59,123.71c1.3-2-1.25-4.41-3.21-3.22-7.31,4.44-14.4,9.16-21.44,14-2.38,1.65-.26,5.47,2.31,3.95a83.19,83.19,0,0,0,12.64-9.1c3.09-2.71,6.62-5.31,6.89-9.64.11-1.79-2.26-3.27-3.77-2.16a151.36,151.36,0,0,0-21.63,18.56c-1.28,1.37.44,3.94,2.11,2.73Z"/><path d="M26.9,146.55c5-5.4,9.17-11.54,14.16-17,5.38-5.87,10.66-10.07,18-13.21,1.39-.59.82-2.61-.39-3-7.22-2.29-14.31,5.58-18.71,10.28a95.43,95.43,0,0,0-15.22,21.23c-.69,1.34,1.06,2.88,2.18,1.68Z"/><path d="M27,147.78c3.08-2.74,5.64-4.78,9.59-6.17,3.44-1.22,7-1.84,10.51-3,5.41-1.79,10.67-4.84,14.08-9.52,2.52-3.45,3.86-8.44.65-12-3.81-4.21-9.7-1.31-14.27-.54-2.79.47-1.85,4.44.63,4.64a25.1,25.1,0,0,0,5-.53c2.45-.26,5.58-.19,5,2.94a8,8,0,0,1-2.32,3.79c-3.58,3.93-8.3,5.88-13.31,7.29-6.64,1.86-15.94,3.91-18,11.6A1.51,1.51,0,0,0,27,147.78Z"/><path d="M49.51,118.79C51.42,111,62.34,107,69.06,111.17c1.22.76,3.12-.52,2.57-2-2-5.27-11.14-4.44-15.47-3-4.77,1.58-11.17,7.11-9.9,12.61a1.7,1.7,0,0,0,3.25,0Z"/><path d="M57.33,130.9c3.44,2.2,8.14,3.34,11.64.73,2.78-2.07,6.12-7.16,5.67-10.65-.2-1.63-2.06-2.73-3.39-1.41-2,2-2.48,5.13-4.23,7.4-2.33,3-5.72,1-8.89,1a1.6,1.6,0,0,0-.8,3Z"/><path d="M68.78,110.43A67.55,67.55,0,0,0,91.56,87.25c1.28-2.23-2.17-4.25-3.46-2A63.27,63.27,0,0,1,66.76,107c-2.17,1.37-.16,4.84,2,3.45Z"/><path d="M72.33,125.34c1-1.77,1.61-3.59,3.14-5.06a26.05,26.05,0,0,1,5.77-3.65c3.14-1.72,7.1-4.07,8-7.79a1.71,1.71,0,0,0-2.48-1.9c-2.25,1.14-3.86,3.23-6,4.6s-4.63,2.53-6.69,4.22c-2.63,2.15-5.57,6.16-3.54,9.58a1,1,0,0,0,1.77,0Z"/><path d="M87.73,29.74l-.82.44a2.39,2.39,0,0,0-1.22,2.12c.9,9,0,17.6-.6,26.57-.65,9.15-2.59,19.3-1.68,28.42.28,2.75,4.42,3.79,5.16.69,1.4-5.88,1.16-12.3,1.53-18.33L91.25,51c.1-1.64,1.36-23.91-3.52-21.3Z"/><path d="M99.58,35.1c-.59,12-.11,24,.19,36,.14,5.84.37,11.68.61,17.51.24,5.47-.36,12,1.72,17.16.83,2.06,3.88,2.43,4.58,0,1.46-5.09.37-11,.14-16.19-.27-6.15-.49-12.32-.71-18.48-.44-12-.38-24-1.13-36a2.7,2.7,0,0,0-5.4,0Z"/></g></g></svg>