<svg xmlns="http://www.w3.org/2000/svg" viewBox="0 0 101.52 138.45"><defs><style>.cls-1{fill:#3a1175;}</style></defs><title>Asset 19</title><g id="Layer_2" data-name="Layer 2"><g id="Layer_46" data-name="Layer 46"><path class="cls-1" d="M83.07,12.42c.89,3.4,2,5.11-.34,8.41-3.33,4.69,3.7,9.32,7.6,5.86a21.93,21.93,0,0,0,7.45-13.6c.75-5.54-7.52-8.17-8.65-2.38a3.39,3.39,0,0,1-2,3l7.51,4.37a14.47,14.47,0,0,0,.21-7.1c-.4-1.64-2.69-4.46-2.59-5.8L88.87,9.7c.71-.2,2.67-.8,3.21.18l-.49-3.76C91.32,7.92,88.16,10,87,11.38a29.59,29.59,0,0,0-3.81,5.9c-2.12,4.5-2.65,9.36-3.53,14.19-2,11-5.39,21.67-7.53,32.62C70.8,71,80,73.3,82.51,67c3-7.49,4.58-15.5,6-23.41,1.3-6.93,1.23-15.07,4-21.56,2.22-5.15,10.07-9.55,8.42-15.86C99.41,0,91.38-.9,86.39.68A4.84,4.84,0,0,0,83,5.19c-.18,4.07,3.93,6.6,3.07,10.51-1,4.6,4.08,7.18,7.51,4.38a12.26,12.26,0,0,0,4.25-7l-8.65-2.38c-.6,3.33-1.85,6.3-4.66,8.38l5.86,7.6c4.25-5,5.71-13.41.32-18.37-1.34-1.23-3.83-1.91-5.44-.7L85,7.81a4.28,4.28,0,0,0-1.88,4.61Z"/><path class="cls-1" d="M89.69,21.11c-2.75,3.36-3.73,7.28-5.3,11.29-1.75,4.46-3.83,8.79-5.7,13.21a56.6,56.6,0,0,0-4,12.71,44.06,44.06,0,0,0-.65,7c0,2.12,1,5.3-1.29,6.27l8.34,4.79A2.94,2.94,0,0,1,82,74.56L72.43,72a38.68,38.68,0,0,0-.4,5.26,5.15,5.15,0,0,0,3.68,4.83l.48.11a4.68,4.68,0,0,0,5.86-4.46,30.76,30.76,0,0,1,.49-4.37c.72-4.92-4.55-8.74-8.6-5a11.93,11.93,0,0,0-3.69,6.53c-.79,3.82,2.56,8.32,6.82,6.82,5.26-1.86,8-6.05,8.45-11.55.53-6,.54-11.19,2.41-17.07,2.86-9,10.95-22.07,6-31.41a2.71,2.71,0,0,0-4.24-.54Z"/><path class="cls-1" d="M83.16,47c-2.25,2.62-2.77,6-3.78,9.29a63.1,63.1,0,0,0-2.75,11.83,28.15,28.15,0,0,0,1.22,11.49c-.21-.74,1.57-1.77-1-.28a9.66,9.66,0,0,0-3.21,3.24c-2.08,3.09.61,8.46,4.57,8,7.21-.9,11.39-5.77,12.24-12.92.68-5.81-.53-13.22-7.39-14-2.58-.27-4.32,2.7-3.74,4.92.5,1.91,1.8,3.35,1.87,5.36.06,1.74-.73,5.83-3,6l4.57,8c-1.16,1.58,1.6-.33,2.19-.71a7.93,7.93,0,0,0,3.15-3.87c1.63-4.08-.87-7.58-1.17-11.64-.55-7.44,5.59-18.42-.36-24.69a2.43,2.43,0,0,0-3.42,0Z"/><path class="cls-1" d="M83.77,50.47c.15.16-.08-.45,0-.42a6.57,6.57,0,0,1-.39,1.47,14.53,14.53,0,0,1-1.57,2.73c-1.37,2.1-2.88,4.31-2,6.92a3.81,3.81,0,0,0,3.61,2.74c5.19-.16,7.74-6.86,8.22-11.28a6.61,6.61,0,0,0-2-5.93,4.2,4.2,0,0,0-5.81.11,2.64,2.64,0,0,0,0,3.66Z"/><path class="cls-1" d="M72.46,74.07c-1.79,2.61-2.3,5.7-4.14,8.34-3.31,4.73,3.58,8.9,7.44,5.74l1.33-1.09c1.9-1.56,1.8-5.18,0-6.75a7.27,7.27,0,0,0-5-2C68.53,78,66.22,82.48,68,85.42c3.68,6-2.77,16.1-5.88,21.28l9.46,4c1.15-3.7,3.32-7.13,4.62-10.81s2-7.35,4.69-10.24c4.17-4.51-3-11.27-6.62-6.62l-.54.68c-1.3,1.66-1.55,3.73,0,5.37l.54.57V83c-6.37,6.17-5.9,15.9-11.34,22.64-4.75,5.88,4.35,12.64,8.13,6.27,2.71-4.57,5.53-9.45,6.6-14.71,1.11-5.52-.08-10-1-15.47l-4.58,6,.9.08-3.37-1.39.67.6V80.31l-1.28,1.14,7.44,5.74c2.49-4.26,3.85-9.74.16-13.66a2.71,2.71,0,0,0-4.2.54Z"/><path class="cls-1" d="M66.59,93l.59.76-.38,3,.38-.52L62.85,98l-1.14-.56,7.34-2c-.83-1.53-1.74-3-2.64-4.51l-3.3,5.75c1.65,0,4.26-.4,5.86.08l-2.89-2.89q.28-2.74-.28-.16a27.58,27.58,0,0,1-1.21,2.65c-.68,1.37-1.43,2.7-2.2,4q-2.49,4.25-5.38,8.22l7.23,4.22c1.88-3.51,3.87-7,6.94-9.65l-5-6.51c-4.4,2.91-7.56,6-12.9,7.19l6,2.44c.76,1.22-.5,1.29,1,.42a18.2,18.2,0,0,0,2.18-2,12.27,12.27,0,0,1,4-2.45l-6.61-6.6c-.53,1.83-6.55,3.87-8.27,4.67l7.8,6c.26-1.17,5.22-3.25,6.15-3.94l-6.26-1.64.23.31V96.55c.79-1.13-.49-.37-1,.08a1.69,1.69,0,0,0-.57.28c-.52.29-.31.72.61,1.3.07-4.43-5.86-5.74-8.09-2.19-2.4,3.82-.13,7.88,4.17,8.31,3,.3,4.22-3.24,3.13-5.46q.29,1.44.3-.06l-1.26,3,.48-.57L50,97.06c-2.55,14.16,20.78,8.79,17.6.22a4.73,4.73,0,0,0-4.42-3.36c-5.41.25-12.84,3.94-14.08,9.65-1,4.75,3.59,8,7.8,6,5.28-2.49,11.26-5.07,13.27-11,1.34-3.92-2.83-7.68-6.6-6.61-7.77,2.21-20.27,12.29-12.64,20.77,1.72,1.91,4.31,1.73,6.43.83,5.29-2.27,11.63-6,14.48-11.22,2.16-3.94-3.45-8.84-6.51-5S59.23,104.4,57,108.62c-2.55,4.84,4.12,8.55,7.23,4.22a69.28,69.28,0,0,0,6.62-11.28c1.36-3,3.86-6.52,3.19-9.87a4,4,0,0,0-2.88-2.88c-2.65-.59-5.39.1-8.06.25a3.87,3.87,0,0,0-3.3,5.75c.8,1.55,1.58,3.11,2.44,4.62,1.84,3.26,7.65,2,7.34-2-.28-3.66-1.88-6.51-5.72-7a3.84,3.84,0,0,0-3.32,1.9,4.16,4.16,0,0,0-.48,4.12,4.19,4.19,0,0,0,7.12,1.24,3,3,0,0,0-.6-4.68Z"/><path class="cls-1" d="M61.3,103.09c-1.88,3.79-6.33,5.24-10,6.84-5.08,2.23-10.16,4.43-15.2,6.71l5.38,9.21C49.7,122,57.26,117.16,65.26,113l-3.24.42.89.17-2.83-2.82c-.31-1.39-2.9,2.37-3.44,2.91a26.06,26.06,0,0,1-3.48,3,57.87,57.87,0,0,1-9,5L51,128.61c1.57-2.43,7.37-12.14,10.89-11.2l-2.78-3.65c.7,5.22-19.78,7.56-23.79,7.77a34.88,34.88,0,0,1-11.24-1.09c-4.28-1.16-7.42-3.5-11.2-5.64-5.75-3.24-10.48,4-6.68,8.66,8.16,10.07,25.26,11.11,36.85,8.4,7.22-1.69,30.3-8.49,23.12-20-1.83-2.92-5.8-2.1-6.93.91-1,2.63-5.77,3.13-8.19,4.37a51.48,51.48,0,0,0-6.93,4.61c-5.07,3.81-.79,11.77,5.08,8.68,4.88-2.56,9.78-5.47,13.6-9.52,2.61-2.76,6.45-8.12,5.08-12.23-1.87-5.57-8.42-2.69-12-1.22-6.69,2.71-13.3,5.87-19.7,9.2-6.11,3.18-.73,12.3,5.38,9.21,6.34-3.22,12.91-6.28,19-9.91,4.08-2.42,7.66-6,7.2-11.1-.28-3.11-4.78-5.11-6.44-1.75Z"/><path class="cls-1" d="M8.8,118c3.62,4.68,9.7,5.71,15.25,6.48,5.72.8,13,2.43,18.61,1.26,3.45-.71,3.61-5.45.93-7.14-4.47-2.83-11.28-2.24-16.42-2.49-5.67-.27-11.59-1.36-17.24-.85A1.63,1.63,0,0,0,8.8,118Z"/><path class="cls-1" d="M19.44,115.64A16,16,0,0,0,32,123.43c4.65.33,11.74-.36,14.37-4.73a2.69,2.69,0,0,0-.42-3.23c-5.71-4.88-13.82,2.27-18.77-4.33-3.34-4.47-10.82-.49-7.69,4.5Z"/><path class="cls-1" d="M35.32,118a6.09,6.09,0,0,0,2.6-3.48c.41-1.68-.05-3.4.41-5l-6.8-.92c.25,4.37,3.44,6.64,7.27,8.11,3.65,1.4,9.87,3.21,12.31-.89a2.84,2.84,0,0,0,0-2.9c-1.61-2.51-3.74-2.27-6.42-2.72-1.52-.25-5.69-.75-6.36-2.52-1.28-3.33-5.36-3.2-6.68,0-.91,2.22-.36,4.58-.87,6.88S33,119.76,35.32,118Z"/><path class="cls-1" d="M43.49,116.46c3-3.22,3.59-7.24,3.94-11.49l-7.1,3c3.26,3.64,8.1,8,13.13,8.59,3.93.42,5.37-4.86,3-7.35-1.51-1.6-3.7-2.38-5.54-3.56A45.67,45.67,0,0,1,46.21,102c-3.28-2.81-7.64-.08-7,4,.44,2.61.71,5.22-.32,7.73s2.8,4.52,4.56,2.65Z"/><path class="cls-1" d="M64.47,109.56l-.22.1,2.61-.35c-2.06-.48-3.75.38-5.27,1.71-.37.33-.75.66-1.1,1-.62.64,1.22-.92-.11.11a4.14,4.14,0,0,0-1.57,2.39l1.06-1.82c-.19.22-.4.38-.6.59-1.84,2-1.25,5.79,1.69,6.38a7.18,7.18,0,0,0,2.49,0c.45-.09.29-.06-.48.08l1.13-.15a6,6,0,0,0,2.84-2,8.1,8.1,0,0,0,2.41-5l-1,2.4.16-.17a3.35,3.35,0,0,0,.27-4.39,3.4,3.4,0,0,0-4.32-.86Z"/><path d="M80.2,7.81c.43,5.16.74,9.63-.51,14.74-1,4.12-2.42,8.12-3.49,12.22a97,97,0,0,0-3.38,26.51c.09,3.59,5.29,3.54,5.53,0a161.68,161.68,0,0,1,4.43-30.4c1.89-7.28,5.14-17.07.21-23.82-.78-1.07-2.93-.88-2.79.75Z"/><path d="M97.67,13.23c-4.67,8.24-5.25,18-6.54,27.23a122.6,122.6,0,0,1-2.63,13.7c-1.19,4.62-2.48,9.32-.85,14,.95,2.68,5.71,2.52,5.34-.73-1-8.63,2.72-17.54,3.72-26.19a164.21,164.21,0,0,1,4.73-26.39,2.07,2.07,0,0,0-3.77-1.59Z"/><path d="M73.14,60.27c-.24,1.33,0,2.89-.82,4.06s-2,1.6-2.94,2.33A9.44,9.44,0,0,0,65.73,72c-1.13,4.07-.36,10.18,5,10.17,2.64,0,3.19-3.28,1.27-4.66-4.63-3.31,2.35-7.41,4-9.88s2.1-5.83,0-8.18a1.77,1.77,0,0,0-3,.78Z"/><path d="M88,67.53c.17,3.72,2.14,6.83,1.71,10.73-.51,4.56-2.94,9.1-7.76,9.7-1.53.19-3.08,1.85-2,3.44,4.63,6.59,11.78-1.58,13.72-6.32,2.19-5.34,2.88-15.76-3.13-19A1.73,1.73,0,0,0,88,67.53Z"/><path d="M77.08,92.63C75,109.08,62,125.34,46,130.66c-17,5.66-39.56-3.38-39.64-23.2,0-4.09-5.72-3.84-6.18,0-2.82,23.19,25.26,34.17,44,30.19,10.26-2.18,19.71-10,26.42-17.75,6.44-7.47,11.7-17.1,10.83-27.27a2.19,2.19,0,0,0-4.38,0Z"/><path d="M2.14,107.19c-.17,0-.06-.46-.06-.52.07-.77-1-.91-1.34-.37-.65,1,.39,2.2,1.4,2.23s.83-1.23,0-1.34Z"/><path d="M.76,106.3c1.18,3.12,4.79,6.82,7.39,8.79,3.4,2.58,8.36,4.68,12.38,2.41a1.6,1.6,0,0,0-.38-2.89c-2.57-.81-5.19-.82-7.59-2.18a18.67,18.67,0,0,1-4.87-4.2c-1.45-1.71-3.73-5.35-6.36-3.33a1.27,1.27,0,0,0-.57,1.4Z"/><path d="M21.62,115.54a30.25,30.25,0,0,1-.1-6.38,24.35,24.35,0,0,1,1.91-5.1A1.72,1.72,0,0,0,21.32,102c-5.24,1.94-5.21,9.7-3.7,14.13.7,2.07,4.11,1.87,4-.54Z"/><path d="M20.85,101.41c-1,5.36,2,12.61,7.41,14.43A1.53,1.53,0,0,0,30,113.61a45.84,45.84,0,0,1-3.6-5.13,17.39,17.39,0,0,1-1.57-6.54c-.22-2.06-3.48-3-3.95-.53Z"/><path d="M30.91,113.61a35.19,35.19,0,0,1,5.31-14.48c1.06-1.61-1.08-3.79-2.7-2.69-5.25,3.56-5.92,11.3-5.89,17.17,0,2.18,3,2,3.28,0Z"/><path d="M32.08,98.38c-.23,3-.11,5.87,1.58,8.42,1.55,2.34,3.84,3.59,6.62,2.94a1.35,1.35,0,0,0,.32-2.45,10.84,10.84,0,0,1-5.55-8.91,1.49,1.49,0,0,0-3,0Z"/><path d="M41.84,109.08c.24-2.75.37-5.5.55-8.26.14-2,1.12-4.08.61-6.07a1.81,1.81,0,0,0-2.19-1.24C35.39,95,37.63,105.2,38,109.08a1.91,1.91,0,0,0,3.81,0Z"/><path d="M38.82,96.38a20.35,20.35,0,0,0,4.61,6.74c1.62,1.65,4,3,6.23,1.84a1.72,1.72,0,0,0,0-3c-.67-.41-1.36-.64-2-1.09a11.09,11.09,0,0,1-2-1.84c-1.37-1.58-2.68-3.41-4.47-4.53a1.65,1.65,0,0,0-2.39,1.84Z"/><path d="M51.73,103.18c-1.18-4.3-.65-8.14-.35-12.49.14-1.91-2.93-2.83-3.72-1C45.58,94.43,46.6,99.9,49,104.35a1.52,1.52,0,0,0,2.77-1.17Z"/><path d="M47.7,94.41c3.39,2.24,8.42,5.21,12.63,4.12a1.77,1.77,0,0,0,.42-3.2c-1.56-1.1-3.51-1.4-5.32-1.92a47.14,47.14,0,0,1-5.91-2.1,1.8,1.8,0,0,0-1.82,3.1Z"/><path d="M61.06,97c-.23-1.94-.46-3.89-.5-5.84s.16-3.55-.59-5.3c-.5-1.2-2.38-1-2.94,0-1.74,3.2-.26,8.33.9,11.56C58.5,99,61.3,98.93,61.06,97Z"/><path d="M56.75,88.12a36.17,36.17,0,0,0,6,2.39c1.89.55,4.05,1.16,5.86.16A1.67,1.67,0,0,0,69,88.09c-1.26-1.24-3-1.38-4.66-1.8a31,31,0,0,1-5.35-1.92c-2.5-1.17-4.72,2.51-2.19,3.75Z"/><path d="M70,89.4c.62-2.38-.47-4.47-1.68-6.49a15.89,15.89,0,0,0-4.47-5.29l-1,3.76c2.79.32,6.51,2,9.09.2,1.05-.74,1.38-2.58,0-3.24-2.63-1.25-5.79.08-8.55-.92-1.74-.64-3.06,1.52-2.28,3,1.72,3.16,4.77,5.25,5.35,9,.29,1.86,3.13,1.66,3.56,0Z"/></g></g></svg>