<svg xmlns="http://www.w3.org/2000/svg" viewBox="0 0 107.13 167.06"><defs><style>.cls-1{fill:#3a1175;}.cls-2{fill:#adb515;}</style></defs><title>Asset 24</title><g id="Layer_2" data-name="Layer 2"><g id="Layer_53" data-name="Layer 53"><path class="cls-1" d="M30.12,38c1.78,7.94,3.56,15.6,3.91,23.17.34,7.28-.18,13.59-2.91,19.26l23.12-3a21.39,21.39,0,0,1-2-2.14q1.31,1.55-.16-.6-1.16-2.37-.36-.44c-.35-.92-.66-1.85-.93-2.8-.16-.53-1.27-6-.9-3.43a49.14,49.14,0,0,1-.38-5.28c-.29-9.13.48-15.94,3.87-24.44,5.55-13.91-15.85-26-25.28-14.72C12,42.79,15.75,66.47,18.5,89.52L42.09,76c-1.28-.75-1.12-1.07-.17-.07,1.78,1.87-.1-.18-.49-.86a11.11,11.11,0,0,1-1.8-4.27c-.25-1.1-.58-2.18-.82-3.28a28.86,28.86,0,0,0-.56-2.94,16.87,16.87,0,0,0-.11-2.13c-.07-1.41-.1-2.82-.07-4.23.12-5.1.22-6.05,1.87-11.59.4-1.35.83-2.7,1.36-4a7.5,7.5,0,1,0,.39-.77c1.31-2.24,3-4.34,3.48-7l-3.81,6.53c5.1-4.61,5.43-12.54,2.15-18.21C41,18.88,35.21,14.69,30,15.4c-6.83.91-12.53,3.09-16.15,9.45A56,56,0,0,0,9.17,36.37,68.84,68.84,0,0,0,6.39,59.9c1,15.72,6,34.13,19.88,43.16,9.3,6,24.89-1.72,23.58-13.54-1-9.19-2.57-18.4-2.89-27.65a71.91,71.91,0,0,1,.14-7.77c.22-3-.5.69.44-2.4,1.55-5.09,1.53-5.81,4.31-9.78L24.2,30.27c-7.56,20.88-7.7,51.47,9.22,68,6.27,6.12,19,5.83,23.12-3,9.95-21.19,6.6-43,1.47-65-1.78-7.6-10.47-12.1-17.79-10.09C32.37,22.36,28.42,30.34,30.12,38Z"/><path class="cls-1" d="M34,40.54A10.29,10.29,0,0,0,34.27,36c-.37-4.67-.09,2.34-.07-1.33l-1.68,6.2a12.74,12.74,0,0,1,3.23-5c.65-.62.87-1.42.7-.59s-3-.41-.81.42c2.66,1,8.16.27,10.53-.41a52,52,0,0,0,5.57-2.2c1.78-.73,1,0,.38-.16a6.38,6.38,0,0,1-4.48-.11c-.75-.31-.72-.25.1.18A16.72,16.72,0,0,0,51,34.86a33.39,33.39,0,0,0,5.81,2.4c1.31.37,6.51,1,6.54,1.08-.31-.45-6-2.28-5.74-3-.11.29,1.75,3.3,2,3.84A33.7,33.7,0,0,1,61.89,45c1.8,5.29,3.29,10.7,4.82,16.07.77,2.7,1.51,5.4,2.15,8.13.35,1.51.65,3,1,4.55l.32,1.83c-.11-.95-.11-.86,0,.28a60.41,60.41,0,0,1,.16,8c-.14,4.27.59-1.37-.09.9-.35,1.19-.52,2.45-.88,3.65-.11.39-1.57,4-.74,2.26s-1.26,2.09-1.21,2c-.63,1.12-1.15,1.51-.07.28-.21.24-3.55,3.37-1,1.45-5.57,4.28-9.83,10.9-7.44,18.28,2.1,6.48,8.35,12.35,15.61,11.88,9.56-.63,17.08-4.86,22.25-13,8.5-13.33-8.11-28.57-21.13-21.13-5.16,3-13,5.26-20,6.39,2.4-.38-2.41.24-2.51.25-1.6.11-3.17,0-4.77.09q-3.09-.16-.16.23L46.55,97q2.37,1.14,0-.18l-1.72-1.18c-8.65-5.94-20.77-7.7-28.69.55-11.45,11.93.42,35.2,17.39,28.87C45.65,120.58,49.75,107,41,97c-2.52-2.84.06.66-1.51-2-2.21-3.81.46,2.43-.89-1.8a56.7,56.7,0,0,1-2.07-9.36c.43,3-.2-2-.24-2.35a31.11,31.11,0,0,1-.32-5.7c-.14,1.54.23-1,.35-1.54.37-1.1.3-.91-.2.55a5.46,5.46,0,0,1-1.75,1.73C41.17,72,44.71,62.46,40,55.07a16,16,0,0,0-21.46-5.63C5.09,56.46,2.74,71.33,4.24,85a109,109,0,0,0,2.7,16.94c2,7.26,5.69,13,10.28,18.86l7.4-28-.48.15,16.34,4.31L40,96.82,45,108.71l-.06-.59L40,120l.66-.6-7.43,4.33c-1.48.25-11.2-2.81-6.57.36.76.52,1.49,1.1,2.25,1.63a31.45,31.45,0,0,0,8.64,4.1c6.82,2.07,13.85,1.51,20.72.08,11.7-2.42,22.31-7.54,32.91-12.82L72.43,92.85q-2.81,2.82,2.17-.61c1.82,0,1.77-.07-.17-.09l8.16,30.16c15.6-11.91,22-29.88,19.71-49.22C100.21,55.37,94.75,35.39,85.55,20,82.13,14.3,77.46,9.61,70.88,7.79c-1.23-.34-8.4-.77-5-.7q-2.62-.81-.36,0c-.89-.45-1.8-.86-2.72-1.24C57.22,3.35,51.56,1.9,45.43,3.39A25.83,25.83,0,0,0,39.2,6c-1.19.64-3.83,1.87-1,1-2.42.71-5.34.32-7.87,1a24.15,24.15,0,0,0-6.47,3,36,36,0,0,0-9.92,10c-3.24,4.51-5.55,10-4.25,15.56a14.7,14.7,0,0,0,11,11.45c5.17,1.29,9.23-1,12.25-5a5.31,5.31,0,0,0,1-2.4Z"/><path class="cls-1" d="M62.52,104.72a26.28,26.28,0,0,0,2.58-1.59l-5.22,1.41c8.59-1,14.15-7.11,17.25-15,2.81-7.12,2.2-13.79.72-21.14-.09-.43-.79-4.07-.47-1.58a32.83,32.83,0,0,1-.18-3.57c-.07-3,.17-6,0-9-.33-7.69-2.43-14.13-5.64-21-3.52-7.57-13.94-9.86-21-6.88-7.94,3.35-11.52,11.53-9.74,19.83a15.87,15.87,0,0,0,2,5.52c.76,1.8.8,1.83.1.1a20,20,0,0,1,1,3.41c-.21-1.54-.23-1.25-.05.84a78.89,78.89,0,0,0,1.61,16.8c.5,2.24,1.27,4.41,1.81,6.64A34.06,34.06,0,0,1,48,82.87c.3,1.86.38,2.21.24,1,.58,5.28-.54,10.87,2.7,15.51L49.53,94.2c.1,1.1.23,2.2.39,3.29.79,6.05,6.56,10.75,12.6,7.23Z"/><path class="cls-2" d="M48.05,142.66a7,7,0,0,1,4.34-4.29l-3-3.92a49.06,49.06,0,0,1-6.17,9.81,2.94,2.94,0,0,0,4.15,4.15c3.51-3,6.86-6.15,10.26-9.25l-4.41-3.4a118.41,118.41,0,0,1-6.36,10.31c-1.91,3,2.33,6,4.78,3.69a84,84,0,0,0,9-10.22c1.83-2.42-1.93-4.73-4-3-4.82,4-7.85,9.89-7.28,16.25.32,3.52,5.59,3.66,5.59,0,0-2.19,0-4.39,0-6.58,0-2.66-4-3.27-4.68-.63-.26,1.07-3.08,10.39-2,10.72l2,2c-1.19-3-1-6.49-1-9.64H43.52l0,6.69c0,3.87,5.38,3.61,5.84,0,.89-6.93-2.83-12.85-8.24-16.88C35.5,134.21,26.27,132.62,23,126l-4.89,3.77C27.4,137,39.2,135.76,49.7,140l.8-5.94-14.65.37,1.5,5.57A27.83,27.83,0,0,1,50,137.3l-2.55-4.43a7.6,7.6,0,0,1-4.61,3l1.55,5.64a40,40,0,0,1,14.11-2.72l-2.53-4.39a15.09,15.09,0,0,1-4.65,5.89c-2.92,2.19-.39,7,2.95,5s6.48-3.88,9.75-5.75l-3.89-3.89a16.76,16.76,0,0,1-5.35,7l3.53,4.58a43.63,43.63,0,0,1,11.1-8l-3.63-3.63a26.94,26.94,0,0,1-10.11,9.11l3.43,4.44a34.13,34.13,0,0,1,12.63-7.51L69,137a56.88,56.88,0,0,1-9.63,8.29c-3.08,2.1-.2,7.14,3,5,3.57-2.38,7.07-4.86,10.6-7.3l-3.39-4.4c-2.8,3.19-5.66,6.33-8.51,9.48l4,4,14-16.53c2-2.3.05-5.22-2.79-4.8l-17.72,2.61L60,139a92.31,92.31,0,0,1,21.9-5.32l-2.08-5-4.55,5.2c-2.29,2.62.54,5.87,3.55,4.59a19.41,19.41,0,0,0,8.85-7.57l-5-2.92a21.25,21.25,0,0,1-4.54,6.33c-1.66,1.61-.51,5.19,2,4.91,7.23-.78,9.82-7.69,12.65-13.5,1.51-3.1-2.94-5.8-4.67-2.73-1.63,2.89-4.11,10.08-8,10.48l2,4.91a25.57,25.57,0,0,0,5.48-7.48,2.9,2.9,0,0,0-5-2.92,13.23,13.23,0,0,1-6.1,5.15L79.42,138,84,132.82c1.5-1.7.66-5.31-2.08-5a92.8,92.8,0,0,0-23.46,5.53A2.94,2.94,0,0,0,60,139l17.69-2.73-2.8-4.8L61,148.1c-2.29,2.73,1.54,6.68,4,4,2.82-3.17,5.63-6.36,8.5-9.48,2.07-2.24-.62-6.22-3.39-4.4-3.58,2.35-7.18,4.67-10.72,7.09l3,5A64.2,64.2,0,0,0,72.92,141c1.76-1.94.08-5.65-2.73-4.69a40.21,40.21,0,0,0-15.14,8.92c-2.36,2.24.66,6,3.43,4.44a33.08,33.08,0,0,0,11.84-11.31c1.57-2.49-1.42-4.58-3.64-3.64a40.1,40.1,0,0,0-12.54,8.48c-2.27,2.25.85,6.65,3.53,4.58A22.42,22.42,0,0,0,65,138.57c1-2.44-1.2-5.48-3.89-3.89-3.25,1.92-6.56,3.72-9.83,5.62l2.95,5a21.1,21.1,0,0,0,6.75-8,3,3,0,0,0-2.52-4.4,45,45,0,0,0-15.66,2.92c-3.46,1.32-2.17,6.58,1.55,5.64a13.7,13.7,0,0,0,8.15-5.68c1.37-1.88-.49-4.4-2.54-4.43a34.67,34.67,0,0,0-15.61,3.4c-2.75,1.28-1.32,5.62,1.51,5.56l14.65-.29c3.62-.07,3.84-4.71.8-6-9.15-3.73-20.77-2.48-28.77-8.8-2.75-2.18-6.49.45-4.89,3.77,5.5,11.42,27.72,10.66,25.86,26.17h5.84l0-6.69c0-3.72-5.75-3.72-5.79,0,0,3.39-.79,14.24,5.33,13.38,5.59-.78,5.4-11.26,6.06-15.16l-4.68-.63c-.26,2.2-.56,4.39-.85,6.58H55c.22-5,1.57-9.16,5.24-12.7l-3.55-3.55a114.66,114.66,0,0,1-9.35,9l4.79,3.69c2.27-3.37,4-7,5.95-10.56a2.82,2.82,0,0,0-4.41-3.4c-3.49,3-7.06,5.95-10.44,9.07l4.61,3.56A66.35,66.35,0,0,0,54,137.14c.89-1.91-.62-4.77-3-3.92a12.63,12.63,0,0,0-8.13,8c-1.23,3.26,4,4.69,5.21,1.44Z"/><path d="M16.77,113.59c7.47,15.12,27,21.37,42.75,20.73A59.5,59.5,0,0,0,84,128c6.8-3.44,16.19-9.65,17.63-17.71.31-1.77-1.55-3.78-3.33-2.56-6,4.08-9.89,10.07-16.44,13.7a51.42,51.42,0,0,1-21.59,6.16c-15.22.92-29.41-4.49-38.35-17a3,3,0,0,0-5.13,3Z"/><path d="M98.42,114.23c11.21-16.82,9.63-40.34,6.06-59.25-2-10.82-6.54-19.5-12.61-28.6Q87,19.11,81.72,12.15C79,8.57,77.23,6,72.53,5.78c-3.25-.17-3.6,4.5-.74,5.46,3.58,1.19,6.89,8,9,11Q84.54,27.46,88,32.87A67.79,67.79,0,0,1,98.4,59.33a122.15,122.15,0,0,1,1.92,26.72c-.48,9.31-2.79,17.79-5.67,26.59-.76,2.31,2.52,3.45,3.77,1.59Z"/><path d="M45.17,127.51c-8-1.87-17.33-2.79-24.64-6.59-8-4.16-12-12-13.41-20.64-1.39-8.44-1-17.34-.81-25.86q.33-13.66,1.82-27.27c1-9.26,2.07-17.93,8.94-24.82a57.32,57.32,0,0,1,21-13.26C54,3.39,70.49,6.88,81.89,19.39c2.32,2.55,6.93-.87,4.86-3.75C68.88-9.2,32.38-1.26,13.22,17.29,1.42,28.71,1.65,46.39.67,61.74c-.57,9-.8,18.11-.6,27.16.16,7.26.67,14.74,3.38,21.55A30.36,30.36,0,0,0,18.1,126.66c7.73,3.81,17.24,4.53,25.63,6.07,3.38.61,4.87-4.41,1.44-5.22Z"/><path d="M11.62,120.37A27.42,27.42,0,0,0,21,139.45c6.13,5.2,16,5.5,18.41,14.09,1.55,5.39,3.21,14.32,10.81,13.46,3-.34,5-2.57,6.31-5.15,1.44-2.94,1.15-8,4.33-9.64l-4.33-1.76A84.75,84.75,0,0,1,58.8,159a3,3,0,0,0,4.33,1.77,44.87,44.87,0,0,0,10.26-10.23c1.47-2.07,2.85-5.6,5.43-6.19,2.26-.53,4.23.55,6.6-.44,4.14-1.74,6.73-6.36,8.79-10.09a52.5,52.5,0,0,0,6.15-17c.53-3.36-4.17-4.84-5.21-1.43a80.73,80.73,0,0,1-5.63,14.68c-1.08,2-2.66,5.67-4.6,7.05-2.65,1.89-4.86.76-7.62,1.34-3.22.68-5.26,3.42-7,6a42.58,42.58,0,0,1-10.15,11.21l4.33,1.76a84.75,84.75,0,0,0-2.3-8.54,3,3,0,0,0-4.33-1.76,9.24,9.24,0,0,0-4.27,4.58c-1,2.08-.94,6-2.43,7.74-3.28,3.83-5.08-3.37-5.76-6.08a21,21,0,0,0-3.08-7.52c-3.37-4.56-8.88-5.62-13.62-8.1a21.9,21.9,0,0,1-11.61-17.37c-.33-3.45-5.74-3.53-5.47,0Z"/></g></g></svg>