<svg id="Layer_1" data-name="Layer 1" xmlns="http://www.w3.org/2000/svg" viewBox="0 0 500 500"><defs><style>.cls-1{fill:#c1272d;}.cls-2{fill:#c11e2a;}.cls-3{fill:#892935;}.cls-4{fill:#231518;}.cls-5{fill:#9e5e32;}.cls-6{fill:#a05827;}</style></defs><title>10Artboard 1</title><path class="cls-1" d="M124.85,106.44l.06-.13a2,2,0,0,0-.3-2.31,2,2,0,0,0-2.3-.3l-.14.06a2,2,0,1,0,2.68,2.68Z"/><path class="cls-2" d="M122,127.55l1,.2.26,2c1.75-3.89,6.22-7.87,9.39-10.62l-2.68-2.07c-4.77,6.66-9.44,13.32-14.71,19.6a2,2,0,0,0,2.79,2.79c7.55-6.56,14.91-13.35,22.67-19.67l-3.58-2.08c-1.5,4.13-5,7.45-7.74,10.77q-3.77,4.5-7.57,9c-1.84,2.17,1,5.15,3.15,3.15a263.2,263.2,0,0,1,21.46-18.43l-3.1-3.1c-4.43,6.81-10.79,12.56-16.29,18.52-2.1,2.28,1,5.28,3.36,3.35,5.39-4.45,10.7-9,16-13.55l-3.48-.45c.12.19-10,10.84-11,12-1.67,1.88-.09,5.16,2.55,4.39,3.46-1,5.47-2.83,7.88-5.4l-2.38.63-.59-.15a2.18,2.18,0,0,0,3.77,2.2c1.56-2,2-4.91-.6-6.38-3.39-1.94-6.56,3.18-9.48,4l2.56,4.38c3.3-4.1,6.75-8.12,9.93-12.32,1.38-1.82,2.56-3.49,1.22-5.67a2.26,2.26,0,0,0-3.48-.45c-5.43,4.43-10.88,8.83-16.25,13.34l3.36,3.35c5.69-6.25,12.39-12.34,16.84-19.58,1.44-2.34-1.66-4.27-3.55-2.75-7.52,6-14.85,12.23-21.87,18.84l3.15,3.15q5-5.84,9.9-11.73c2.62-3.14,5.18-6.05,6.38-10,.64-2.11-2.06-3.5-3.57-2.08-7.26,6.86-14.95,13.27-22.43,19.9l2.79,2.79a155.36,155.36,0,0,0,14.87-20.66,1.71,1.71,0,0,0-2.68-2.07c-3.28,3.38-8.45,7.14-10,11.76a1.66,1.66,0,0,0,.43,1.61l.31.28a1.6,1.6,0,0,0,1.59.42l.34-.13c1.87-.76,1.19-3.71-.86-3.11Z"/><path class="cls-2" d="M118,122.14l-.5-1.5-9.34,5.44c8.74,7.81,14.47,17.48,19.53,27.93,3.54,7.31,15.32.66,11-6.43-1.28-2.1-11.45-17.5-9.53-19.08l-7.69-1c3.45,7.76,5.82,15.05,4.5,23.68l8.67-3.53a71.26,71.26,0,0,1-11.73-8.12c-3.22-2.78-8-6.25-8.61-10.66l-3.77,4.95c3.21-.3,6.87,8.65,7.84,11a57.93,57.93,0,0,1,3.31,12.4l8.67-6.67c-4.21-2.93-10.74-10.54-11.29-15.92a3.74,3.74,0,0,0-7.47,0c-.58,7.1,1.54,14.31,4,20.9l9.58-4c-4.73-8.9-14.3-15.64-16.56-25.74l-9.14,3.85a136,136,0,0,1,6.48,12.3l8.54-6.59c-3.57-4.07-13.9-13.74-11.56-19.75L93.47,118a73.87,73.87,0,0,0,14.31,12.45c3.54,2.4,7.66-.23,9-3.64a22.92,22.92,0,0,0,1.49-8.94l-9.43,5.41,11.51,6.94,6.56-11.21a22.18,22.18,0,0,1-3.14-1.8c-.42-.31-2-2.22-1.42-.76l-1.58,6,.67-.56-4.3,1.78c3.09.17,7,4.73,8.81,6.87l6.58-11.3a42,42,0,0,1-7.32-2.37c-1.35-.6-5-1.88-5.72-3.17l.6,4.59.15-.82-5.75,4.38,6.7-.89,2.87-.38q3.93,0-.19-1.25c5,6.35,14.5-2.76,9-9-4.63-5.28-14.27-1.28-20-.19a5.75,5.75,0,0,0-4.17,4.17c-1.39,10.07,12.39,15.4,20.21,18,6.46,2.13,11.34-6.73,6.57-11.3s-15.58-12.82-22.15-8.13c-2.16,1.54-3.67,4.17-2.81,6.9,1.48,4.67,5.63,8.2,9.8,10.52,7.31,4.08,13.87-7.14,6.56-11.21l-11.75-6.55c-3.94-2.2-9.7.51-9.43,5.41a14.3,14.3,0,0,1-.7,5.7l9-3.64a65.93,65.93,0,0,1-12.47-9.92A5.71,5.71,0,0,0,92,112.54c-3.33,10.91,8.35,22.88,14.77,30.45,4.11,4.83,11.41-1.35,8.54-6.59q-3.34-6.1-7.23-11.85C105,120,97.38,122.7,99,128.4c3.07,11.13,11.71,18.52,17.15,28.37,3.33,6,11.69.74,9.05-5.29-2.54-5.8-3.91-12-6.22-17.86l-6.82,2.88c2,3.42,2.76,7.79,4.44,11.43s3.85,7.12,5.73,10.7c3.36,6.38,11.74,1.59,10.8-4.56-1.68-11-9.46-28.1-22.54-28.08a4,4,0,0,0-3.91,3.92c.3,5.54,3.78,9.66,7.2,13.79a92.4,92.4,0,0,0,13.67,13.22c4.16,3.32,9.5,1.12,10.07-4.18,1.16-10.79-1.41-22.68-8.4-31.17-2.16-2.63-6-1.35-7.69,1-6.57,9.37,2.17,20.79,5.58,29.93l11.64-4.91c-5.95-11.55-12.79-22.87-23.76-30.27-5-3.37-9.92,3-7.64,7.64l.7,1.41c2.74,5.53,12,1.67,10-4.22Z"/><path class="cls-2" d="M123.79,111.63l-.41-.5,1.46,5.54L125,116l-2.62,3.4c3.38-2.23,9.48.54,12.76,2s5.84,4.16,9.06,5.53c4,1.71,7.9-1.08,7.15-5.5-1.42-8.29-14.22-12.36-21.29-13.63-4.35-.77-9.7-.93-13.43,1.8-3.58,2.62-3.6,6.89-.84,10.13,4.78,5.6,12.7-2.48,8.05-8.05Z"/><path class="cls-2" d="M134.61,113.19c7.32,0,7.33-11.39,0-11.39s-7.34,11.39,0,11.39Z"/><path class="cls-2" d="M126.5,102.29c-1.12,2.72,1.84,5.26,3.44,7.11a23,23,0,0,0,6.38,5.62c2.63,1.35,5.84-1.44,4.19-4.18a30.75,30.75,0,0,0-4.39-5.15c-1.43-1.5-2.83-3.13-4.37-4.53l.83,1.42-.12-.29a3.12,3.12,0,0,0-6,0Z"/><path class="cls-2" d="M134.57,109.57a24.92,24.92,0,0,1,6.05,3.16,5.86,5.86,0,0,1,1.87,2.15c.4.93.27,1.93.62,2.9l1.55-3.83a1.05,1.05,0,0,1-.58.32,2.15,2.15,0,0,0-1.47,2.59,3.86,3.86,0,0,0,1.37,2.41,3.47,3.47,0,0,0,5.32-.68c3-4-1-9.47-4.28-11.71s-8.9-4.45-11.8-.63c-1,1.28.16,2.84,1.35,3.32Z"/><path class="cls-2" d="M140.66,107.53l0-.74-1,1.26.32-.19h-2.56c1.37.91,2.8,1.64,4.23,2.42.62.34,1.23.68,1.83,1,.26.14,1.92,1,1.86.91l-.42-1.57,0,.33,1.51-2.63a6.23,6.23,0,0,1-2.27.65,1.91,1.91,0,0,0-.84,3.18,6.1,6.1,0,0,0,1.06.77c.12.07,1.23.5.59.18a5.09,5.09,0,0,0,3,.9,3,3,0,0,0,2.63-1.51c1.38-3.2-.76-4.8-3.43-6.09a43.08,43.08,0,0,0-7.77-3.2c-1.94-.51-4.26,1.87-2.86,3.72.61.8.85,1.8,1.5,2.63,1.27,1.63,3.39-.44,2.66-2Z"/><path class="cls-2" d="M135.17,106.26a46.91,46.91,0,0,0,8.87,2.56c2.92.63,5.84,1.46,8.81,1,2.17-.33,2.33-3.58.6-4.55-2.47-1.38-5.5-1.56-8.28-1.94a46.2,46.2,0,0,0-9-.76c-1.75.1-2.94,2.83-1,3.68Z"/><path class="cls-2" d="M145.7,108.1a34.87,34.87,0,0,1,8.25-2.25c2.44-.48,5.3-.36,6.55-2.87a2.63,2.63,0,0,0-.4-3.08c-2.24-2.33-5.65-1-8.31,0a63,63,0,0,0-8.34,4.37c-2.54,1.42-.31,5.08,2.25,3.86Z"/><path class="cls-2" d="M151.47,108c1.62-1.25,3.39-2.26,5.07-3.43a14.6,14.6,0,0,1,2.06-1.3,5.48,5.48,0,0,0,2.3-1.39,2.47,2.47,0,0,0,.37-2.86c-1.47-2.79-4.84-1.75-6.73,0s-3.49,4.12-5.37,6c-1.46,1.48.54,4.34,2.3,3Z"/><path class="cls-2" d="M161.85,100.4l1.7-1.4-.53.3a2.87,2.87,0,0,0,1-.64,1.31,1.31,0,0,0,0-1.85,1.33,1.33,0,0,0-1.85,0,2.92,2.92,0,0,0-.67,1l.31-.54-1.53,1.59a1.08,1.08,0,1,0,1.53,1.52Z"/><path class="cls-2" d="M162.72,96.54c-5-1.17-7.52,6-9.34,9.39-2.56,4.82-7.81,11.48-6.63,17.13a2.37,2.37,0,0,0,3.43,1.4c4.54-2.18,6.42-9.12,8.61-13.36,1.7-3.3,5.92-8.58,5.53-12.45a2.28,2.28,0,0,0-1.6-2.11Z"/><path class="cls-2" d="M152.14,105c-4.66,4.87-7.53,11.2-9.92,17.43-.83,2.17,1.32,4.88,3.58,4.7,6.9-.53,9.84-9.74,14-14.28l-6.38-2.65A44.85,44.85,0,0,1,149,126.4l7.65,3.23c1.43-4.19,3.09-8.39,6.31-11.55l-6.87-2.85c-.32,6.57-4.6,13.09-7.5,18.85l7.93,3.34c.68-2.56,1.61-4.82,1.79-7.47.14-2-2.18-3-3.74-2.15-2.77,1.46-4.22,3.73-6,6.28-3.18,4.61,5,9.4,7.49,4.38,3.67-7.42,9.15-15.76,7.91-24.3-.53-3.64-5.7-3.6-7.35-1-3,4.71-6,9-8.06,14.2-1.71,4.39,5.62,7.5,7.65,3.23,3.09-6.49,6.87-14.15,4.55-21.45-.93-2.9-5.29-3.88-6.84-.9-.89,1.71-5.9,11.48-8.15,11.39l3.59,4.71c2-5.55,5.05-10.36,7.71-15.58,1.57-3.08-2.37-6.53-5-3.83Z"/><path class="cls-2" d="M138.8,124.21c-.54,4.19-1.35,8.29-2.2,12.43a3.51,3.51,0,0,0,6.38,2.69,104.2,104.2,0,0,1,9.46-12.46l-4.87-.63c.12.27-2.83,4.82-3.16,5.44-1.23,2.31-2.44,4.63-3.71,6.92-1,1.85-.58,4.72,1.5,5.72,7.92,3.81,10.08-7.06,15.68-9.79l-5.69-4.37c-.94,3.19-2.5,6-3.66,9.11l7.73,1c0-.92.14-1.8.11-2.72a2.93,2.93,0,0,0-3.67-2.79c-2.41.6-3.39,2.2-4.17,4.46-1.55,4.48,4.77,6.45,7.19,3,2-2.88,3.11-6.7,3.94-10.09a3.92,3.92,0,0,0-5.69-4.37,18.93,18.93,0,0,0-5.41,4.38c-.73.84-1.41,1.71-2.14,2.55-.41.48-.84.94-1.28,1.39-1,.71-.91.88.28.5l2.92,5.15c1.39-3.55,2.9-7,4.28-10.59,1.07-2.73,1.9-5.43.3-8.12a3.13,3.13,0,0,0-4.87-.62c-3.59,4.14-7.15,8.3-10.55,12.61l5.84,3.39c1.13-5,2-10,1-15-.72-3.36-5.13-2.12-5.5.75Z"/><path class="cls-2" d="M157.19,110.65c1.7,2.37,3.31,4.73,6.41,5.17a5.62,5.62,0,0,0,6.17-3.42c2.74-7.24-6.07-9.34-11-6.82-3.66,1.9-.9,6.7,2.6,6.16,3.06-.46,6.2-.53,9.29-.73,1.42-.09,5.56-1.05,6.64-.26l-1.69-2.2c1.28,3.07-1.09,9.26-2,12.3A22.88,22.88,0,0,1,166.69,132l6.88,2.85c-.89-9.44,6.44-17.47,1.27-26.78a3.88,3.88,0,0,0-6-.78c-3.3,3.54-4.38,7.76-4.7,12.5s.83,11.06-2.68,15l6.17,1.63c-1.23-5.73-1.68-11.56-.21-17.28l-6.84-1.89a185.24,185.24,0,0,1-4.73,23.94c-1.35,4.68,6.2,6.73,7.28,2,.54-2.4.61-4.29,2.6-6l-6-2.49a17.61,17.61,0,0,1-2.21,6.44l6.75.89c-1.35-5.41-2.14-10.22.71-15.35L158.71,124c-2.09,5.7-3.94,11.37-6.69,16.82-1.18,2.32-5.35,12.37-8.74,12.12l2.78,1.15c-1.76-1.52-1.78-6.75-1.77-8.8a33.11,33.11,0,0,1,1.47-9.32c.68-2.29-2.76-3.8-3.9-1.65a32.4,32.4,0,0,0-3.61,19.45c.55,4.54,2.94,8.46,8.09,6.72,5.73-1.93,8.71-8.28,11.19-13.3,3.31-6.71,6.36-14,7.75-21.38.8-4.25-5.37-6.09-6.57-1.81-1.78,6.38-3.21,13.36-1.61,19.93.73,3,5.32,3.74,6.76.88a26.93,26.93,0,0,0,2.87-10.17c.4-4.48-6.78-4.54-7,0-.13,2.19-1.61,3.28-2.9,4.77l6.31,3.67a112.34,112.34,0,0,0,4.41-25c.2-4.64-6.63-4.45-7.09,0-.71,6.85-1,13.35.06,20.18.43,2.76,4.42,3.53,6.17,1.63,3.28-3.54,4.35-7.76,4.69-12.49s-.74-11,2.9-14.75l-6-.78c2.1,3.91.25,8.17-1,12a27,27,0,0,0-1.7,10.89,4.09,4.09,0,0,0,6.88,2.85c7.22-6.52,10.14-16.93,10.89-26.38,1-12.77-15.2-6.43-22.75-6.18l.89,6.62.91-1.87,2.29-1.75c-.35.12-1.64-1.8-1.7-1.88-2.55-3.21-8.13,1-5.73,4.41Z"/><path class="cls-2" d="M147.44,134.84a28.82,28.82,0,0,1-6,15.38l7.46,4.34A25.6,25.6,0,0,1,155.74,143l-6.47-3.77c-.42,2.56-2.81,10.14-6.55,9.88l3.12,1.29c-.54-.59-.19-4.74,0-5.94a19.75,19.75,0,0,1,2.63-7.27L141.35,133c-2.35,5.33-4.76,10.64-7.14,15.95l8.12,3.42c1.1-4.89,2.53-18.73-6.69-14.55-3.43,1.55-6.17,5-9.17,7.21a27.62,27.62,0,0,1-2.49,1.66,10.89,10.89,0,0,1-2.22,1.09c-1.12.39-1.23.47-.31.25.23.7.52-2.38.52-2.64,0-1.4,0-2.8.12-4.2.24-5-7-4.72-7.59,0a49.29,49.29,0,0,0,1.32,18.69l5.89-4.53c-5.3-2.68-7.88-7.08-8.43-12.88-.44-4.66-2.32-7.82-7.23-8.35-2.28-.24-4.48,2.63-3.63,4.76,2.19,5.48,4.21,11,6.25,16.59.9,2.46,1.78,4.93,2.66,7.4.42,1.15,3,5.86,2.42,7.05l5.66-1.49c-2.65-1.76-4.34-6.88-5.48-9.7-.32-.81-3-10.12-2.23-10.28,4.71-1,3-7.22-1-7.72-8.11-1-7.8,10.06-6.65,15.15,1.49,6.62,5.36,16,11.23,19.7a4.17,4.17,0,0,0,5.66-1.49c2.61-5.48-1-10.92-3-16.08-2.82-7-5.63-14-8.19-21.13l-4.63,4.63c.47.09.69,5.48.81,6a21.92,21.92,0,0,0,2.33,6.08,21.2,21.2,0,0,0,9.48,8.66c3,1.43,6.92-1,5.89-4.53a42.51,42.51,0,0,1-1.47-16.56H114.5c-.21,5.39-1.61,15.85,6.87,14.87,3.27-.38,6.42-2.47,9-4.38s6-6.72,9-7.5l-2.77-.36.74.48-1.82-3.18c.25,3-1.07,6.06-1.78,8.89-1.42,5.69,6.48,7.55,8.57,2.36,2.18-5.4,4.33-10.81,6.54-16.2,1.8-4.38-5.25-7.12-7.52-3.17-3,5.23-8.93,22,.2,24.73,3.77,1.13,7.62-2.25,9.89-4.83a23.11,23.11,0,0,0,5.43-12.67c.47-3.59-4.4-4.74-6.6-2.73a35.81,35.81,0,0,0-10,14.67c-1.9,5.15,5.37,7.11,8.16,3.44a27.91,27.91,0,0,0,5.57-21.69c-.64-4.05-6.23-2.54-6.61.9Z"/><path class="cls-2" d="M119.78,167.18h-.37a3.07,3.07,0,0,0-2.87,2.19l-.15.42a3.07,3.07,0,0,0,1.39,3.42c3.48,2.27,9.6,2.47,13.67,2.66a26.68,26.68,0,0,0,14.34-3.08c3.37-1.84,1-7.89-2.69-6.37-5.85,2.4-12,3-18,.73l-.81,6c5.64.11,16.11-2.27,12.55-10.38-3.68-8.37-14.39-2.58-20.11-.28l2.42,5.75a33.13,33.13,0,0,1,15.11-5.8l-2.62-6.2c-4.18,2.42-8.16,5.1-12.44,7.37l4.35,5.63a88.21,88.21,0,0,1,23-14.75L141,152.24c.46,1.15-10.59,9-11.84,9.85l4.63,6c4.54-4.29,9-8.41,14.65-11.17l-5-2.05c.59,2.71-7,9.37-8.73,11.33a4.05,4.05,0,0,0,5.72,5.73c2.14-1.74,4.06-3.71,6-5.63,1.67-1.62,3.55-4.15,5.78-5l-4.46-3.4c-.39,3.78-6.45,7.42-8.18,10.9-2.15,4.29,2.8,7.76,6.37,4.92s7.29-5.4,10.16-8.91l-4.49-3.47a19.09,19.09,0,0,1-10.26,7.44l4.67,3.56a10.78,10.78,0,0,0-.15-2.54l-3.57,3.56c4.78-.49,9.6,1.19,14.17-1,3.52-1.65,5.47-4.65,6.3-8.38.64-2.86-3.36-4.81-4.88-2.06-3.33,6.06-9.79,4.61-15.59,4.27-2.06-.12-3.38,1.74-3.56,3.57a10.28,10.28,0,0,0-.1,2.54c0,2.22,2.35,4.41,4.67,3.56a22.58,22.58,0,0,0,13.24-11.67c1-2-.7-5.22-3.23-4.21-4.51,1.8-8.29,4.62-12.3,7.32l5.56,5.56c2.4-5.08,6.61-8.48,8.1-14.06.53-2-1.06-4.77-3.4-4.47-6.36.8-12.36,7.44-16.6,11.83l6.36,4.91c3.63-5.18,10.19-11.26,9-18.06-.43-2.39-3.21-2.85-5-2.05-6.28,2.79-11.5,7.15-16.59,11.68-3.2,2.84,1.07,8.55,4.63,6a96.28,96.28,0,0,0,11.12-9.14c2.58-2.49,5.68-5.45,4.1-9.3a3.86,3.86,0,0,0-5.52-2.25,93.72,93.72,0,0,0-24.24,16.16c-3.09,2.82.85,7.52,4.35,5.63a79.36,79.36,0,0,0,12.94-8.23c2.77-2.28-.26-6.41-3.31-5.68a61.79,61.79,0,0,0-16.47,6.92c-3.1,1.76-1,6.68,2.42,5.74,2.94-.79,5.87-1.64,8.81-2.41.85-.22,4.7-1,.68,0a36,36,0,0,0-4.41,1c-3.33,1.25-2.61,5.58.81,6a71.79,71.79,0,0,0,20.7,0l-1.85-6.72a51.54,51.54,0,0,1-11.65,1.7c-3.35.1-8.11.62-11.33-.45l2.23,2.93,0-.44L120.2,173l.36-.09c3.29-.76,2.46-5.66-.78-5.75Z"/><path class="cls-2" d="M144.92,173.61c6.36.61,15,.65,18.78-5.54,2.14-3.51-2.59-6.76-5.47-4.22-4.09,3.59-9.26,2.23-14.12,3.71-3.47,1.05-2.56,5.72.81,6.05Z"/><path class="cls-2" d="M145.1,175.74c6.62-1.06,13.9-3.83,16.27-10.8a15.26,15.26,0,0,0-.21-9.19c-1.42-4.75-3-8.6-2.59-13.72h-6.14c.13,4.48-.23,8.89-.43,13.36-.15,3.12.41,5,2.94,6.91,2.36,1.77,5.92-.62,5.81-3.33a37.1,37.1,0,0,1,2.36-14.33h-6.89c.7,4.27,3,11.89.64,16l7,1.89c-.66-5.18-3.42-16.58,2.08-20.08l-5.21-1.36c4.85,7.38-1.78,17-2.94,24.56a4.2,4.2,0,0,0,2.85,5c8,2.7,9.85-6.21,10.68-11.94A141.09,141.09,0,0,0,173,131.47L166.8,135c3.38,2,1.95,11.38,1.32,14.48-1,4.69-3.46,8.57-5.05,13-1.2,3.35,3.29,5.3,5.58,3.25,5.22-4.68,7.26-13.11,7.77-19.87.48-6.15.14-14.21-5.49-17.93-2.69-1.77-6.07.59-6.16,3.54-.15,5.49-.29,11-.72,16.47-.16,2.11-2.41,14.48-1.25,14.85l3,3.92c1.34-10,8.14-19.8,1.51-29.48-1.11-1.63-3.39-2.57-5.21-1.37-8.86,5.88-6.92,18.6-5.6,27.65.47,3.27,5.42,3.53,6.86.9,3.47-6.37,1-14.95-.24-21.67-.69-3.79-5.79-3-6.89,0A55.21,55.21,0,0,0,153,159l5.81-3.34c-.08,0-.11-5.88-.14-6.47-.12-2.37-.17-4.76-.13-7.13.07-4.05-5.68-3.81-6.14,0-.71,5.84,1.22,9.94,2.67,15.4,2,7.38-5.39,11.57-11.45,13.06-3.47.86-1.94,5.8,1.45,5.25Z"/><path class="cls-3" d="M83.36,134.44a27.36,27.36,0,0,0,8.29,1,4.2,4.2,0,0,0,0-8.39,23.12,23.12,0,0,1-6.1-.54,4.11,4.11,0,1,0-2.19,7.92Z"/><path class="cls-3" d="M90.68,148.94l-.09.13a3.52,3.52,0,0,0,0,3.56c1.25,2.26,4.76,3.46,7,4.34,2.9,1.13,5.65,1.84,7.8-1a3.34,3.34,0,0,0-1.2-4.56c-1.58-.75-3.3-1.07-4.92-1.73a34.5,34.5,0,0,1-4-2,3.46,3.46,0,0,0-4.61,1.21Z"/><path class="cls-3" d="M95.24,168.73a17.23,17.23,0,0,0,7.82,2.71c2.36.33,6,.86,6.78-2.24s-2.56-3.76-4.74-3.9c-2.95-.18-5.83-.62-8.78-.54a2.15,2.15,0,0,0-1.08,4Z"/><path class="cls-3" d="M115,84.37c1.15,1.16,2.49,1.82,3.56,3.11,1,1.14,1.56,2.68,2.71,3.71A2.81,2.81,0,0,0,125.93,90c.8-2.5-.64-5.44-2.23-7.31a9.7,9.7,0,0,0-6.44-3.72c-2.84-.22-4.08,3.58-2.25,5.43Z"/><path class="cls-3" d="M163.8,95.21c2.86-1.39,3-5.35,2.36-8.07a11.27,11.27,0,0,0-4.86-6.93c-3.33-2-7,2.67-4.17,5.4a7.56,7.56,0,0,1,2.61,4c.43,2,0,3.69,1.51,5.31a2.16,2.16,0,0,0,2.55.33Z"/><path class="cls-4" d="M82.33,122.08c-.52-.43-.15-.13-.15-.11,0-.31,0-.61.08-.91l-4.89,2a12.18,12.18,0,0,0,4.11,1.58,13,13,0,0,0,2.41.24,8.42,8.42,0,0,0,1-.07c.75,0,.44-.21-.92-.52l-.86-1.48.11-.78c1.85-.91,2.33-1.36,1.42-1.37a3.67,3.67,0,0,0-.51-.19l1.64,1c-1.67-1.3,1.2,2.85-.17,2.48.52.14,1.39-.36,1.83-.54,1.8-.72,3.3-3.44,1.32-5a5.46,5.46,0,0,0-5.29-1.15,6.31,6.31,0,0,0-4.08,3.53c-1.83,4.19,2.14,8.29,6.45,7.14,3.57-1,5.6-5.44,2.9-8.37a4.9,4.9,0,0,0-4.34-1.39,6.05,6.05,0,0,1-3.67-.84c-1.68-1-4.55-.19-4.89,2-.42,2.67-.5,5.59,1.8,7.47a3.42,3.42,0,0,0,4.69,0,3.34,3.34,0,0,0,0-4.68Z"/><path class="cls-4" d="M85.61,140.32a27.51,27.51,0,0,0,4,4.79c1.62,1.67,3.31,2.8,5.71,2.14,2-.54,2.65-2.38,2.39-4.22A11.07,11.07,0,0,0,96.8,140a11.36,11.36,0,0,0-.62-1.2c-.17-.27-.44-1-.45-.38l-.45,1.66.22-.43-1.18,1.18.41-.21-2.53.33c1.92.4,2.8,2.56,2.74,4.34-.16,4.3,6.56,4.3,6.67,0A10.92,10.92,0,0,0,95.28,135c-2.41-1.07-5.24-.25-6,2.49s1.73,4,1.72,6.42l4.34-3.3-.49-.12,1.57.91c-2.24-1.73-3.94-4.05-6.39-5.54a3.26,3.26,0,0,0-4.43,4.43Z"/><path class="cls-4" d="M92,161.85c3.54,2.15,8.5,5.77,12.67,3.19,2.12-1.31,2-5.1-.73-5.64a5.28,5.28,0,0,0-1.72-.15c-1.91.23-3.51,2.14-2.33,4.06a5,5,0,0,0,1,1.25l3-5.16A37,37,0,0,1,99.32,158a26.46,26.46,0,0,0-4.85-2.13,3.28,3.28,0,0,0-2.52,6Z"/><path class="cls-4" d="M98.81,176.09a18.54,18.54,0,0,0,6.16,1.8c1.9.24,4.52.55,5.9-1a2.23,2.23,0,0,0,.34-2.62c-1-1.71-3.18-2-5-2.37a35.39,35.39,0,0,0-6-.77c-2.57,0-3.73,3.75-1.34,5Z"/><path class="cls-4" d="M91.88,158.93a2.5,2.5,0,0,0,2.49-2.49,2.49,2.49,0,1,0-2.49,2.49Z"/><path class="cls-4" d="M123.25,81.85a35.47,35.47,0,0,1,2.91,13.81c0,1.69,1.56,3.58,3.39,3.39,5.38-.56,10.46,1.37,15.76,1a17.45,17.45,0,0,0,10.85-5.12c2.62-2.51-.14-6.46-3.37-5.78a27.69,27.69,0,0,1-9.08.42,31,31,0,0,1-3.82-.72c-.56-.14-2.94-1.28-2.45-.18l-.62,4.85c.81-.73,4.08-.26,5.15-.16l-2.8-6.76c-1,1-2.75.3-3.62.92-1.63,1.16,3.29.47,3.28.47,4.81-.42,4.95-7.4,0-7.59-1,0-6.16.46-6.73,0l1,2.51v-.82l-1,2.5,3.42-.2.89-6.85a12.09,12.09,0,0,1-5.31.54v7.13a24,24,0,0,1,7.44-.86,12.33,12.33,0,0,1,3.2.48,1.93,1.93,0,0,1,2,1.87l2.94.38c.9.46,1.12-.08.64-1.62l-1.7,2.22.9-.44-2.87.38,2.08,1.19,2.38-1.84L147,87.2l3.08.41c-.4-1.35-1.13-1.7-2.19-1.06-1.73.12-1.58.73.43,1.85a7,7,0,0,1,1.13,4.66l2.92-3.84-1.22.21,4.21,1.71a48.57,48.57,0,0,1-2.53-6.31l-4.66,4.67a4.17,4.17,0,0,1,2.59,4.34c-.77,4.89,6.66,7,7.52,2.08,1.11-6.35-1.87-11.75-8.1-13.73-3.43-1.1-5.57,2.77-4.28,5.57A47.12,47.12,0,0,1,148.5,94a3.75,3.75,0,0,0,2.61,2.61l1.22.26a4,4,0,0,0,5-3.83c.25-5.55-2.8-12.18-8.67-13.68-5.57-1.41-8.43,4.25-7.29,9,1,4.27,6.22,9.57,10.54,5.26,4-4-.51-11.28-4.82-12.88C134.67,76.07,139.84,102,149,92a8.24,8.24,0,0,0-1.27-12.18c-5.05-3.75-12.86-2.73-18.62-1.8-3.61.58-3.44,6.41,0,7.13a15.92,15.92,0,0,0,9.27-.45c3.21-1.2,3.9-6.31,0-7.22s-11.77-1.17-12.34,4.55c-.61,6.18,8.93,6.07,12.78,5.9l-1-7.45c-5.24.73-13.79,6.11-8.71,12.23,3.69,4.45,11.93,2.84,15.66-.57,2.78-2.54.34-6.41-2.8-6.76-3.67-.4-7.95-.15-10.81,2.42a4.11,4.11,0,0,0-.62,4.85c1.45,3.19,6.88,3.84,9.85,4.25a35.68,35.68,0,0,0,14.24-1.14L151.26,90c-6.14,4.81-14.57,1.47-21.71,2.27l3.39,3.39a27.32,27.32,0,0,0-4.71-15.9c-1.61-2.37-6.23-.93-5,2.09Z"/><path class="cls-2" d="M103.05,109.68l-.43.13,2.79.74-.34-.4.45,3.54c2.3-3.9,8.18-4.7,12.17-4.32l-1.79-6.61c-5.28,2.9-10.56,5.76-16,8.34l3.5,6c6.23-3.36,12.38-6.39,19.39-7.69l-2.63-6.25a76.12,76.12,0,0,1-14.67,7.46l2.53,6a62.67,62.67,0,0,1,9.92-3.72c1.42-.4,2.84-.74,4.28-1l1.73-.33q4.26-.11,2-.56l1.41-5.36c-2.47.88-6.93,2.12-9.43.58,1.53.94,5.79.91,8.18,2l.76-5.79c-.49.13-8.22.72-8.25,0l-1.55,2.7c-1,.62,2.16.3,2.72.38,1.63.25,3.22.63,4.84,1l-2.07-2.06.4,1.51,2.5-3.28-2.41-2.3-2.43,3.19a2.47,2.47,0,0,1,2.43.55l4.34-3.34c-3.5-3.53-8.52-4.6-13.34-4.54-5.65.07-12.62-.76-18,1.29-9.16,3.49-7.13,19.89-1,25.33,2.23,2,6.55.12,5.41-3.14-1.25-3.54-1.86-12.56,4.65-11.67L103,103a18.19,18.19,0,0,1-3.12,3.43l4.93,4.92A20.14,20.14,0,0,1,115.39,106l-2.61-6.18a56.21,56.21,0,0,0-8,6.25c-2.4,2.43.61,5.7,3.42,4.45a51.22,51.22,0,0,0,8-4.86,3.4,3.4,0,0,0-2.61-6.18,26.73,26.73,0,0,0-13.7,6.87c-3.35,3.05,1.54,7.77,4.93,4.92a17.73,17.73,0,0,0,4.14-4.87,3.49,3.49,0,0,0-3-5.19c-11-.58-12.7,10.89-11.91,19.3l6-1.63a14.51,14.51,0,0,1-3-9c0-1-.42-3.66.15-4.6,1.09-1.8,3.68-1.6,5.45-1.73,5.1-.39,17-3.24,20.72,1.09,1.78,2.08,5.5-.13,4.62-2.68-1.28-3.7-4.6-4.62-8.15-3.38a2.57,2.57,0,0,0-1.51,3.7,9,9,0,0,0,6.33,5.45,2.61,2.61,0,0,0,3.19-1.81l.31-1.51a3.05,3.05,0,0,0-2.07-3.64c-3.27-1.19-9-3-12.28-1a3.1,3.1,0,0,0-1.54,2.69c.22,7.12,11.17,7.41,16.18,6.07,2.45-.66,3.31-4.62.75-5.79-4.49-2.07-18.46-5.51-19.27,2.89-.85,8.79,14.07,7.92,19,6.18a3.27,3.27,0,0,0,1.42-5.37c-2.46-3.06-7.59-1.31-10.83-.62a70.49,70.49,0,0,0-14.93,5.14c-3.34,1.55-1,7.25,2.53,6a78.62,78.62,0,0,0,16.37-7.88,3.44,3.44,0,0,0-2.64-6.26c-7.51,1.44-14.3,4.86-21.07,8.31-4,2.05-.49,7.76,3.5,6a148.12,148.12,0,0,0,16.08-8.19,3.58,3.58,0,0,0-1.79-6.62c-6.25-.25-15.46,2.45-17.5,9.16a3,3,0,0,0,1.34,3.3l.41.31a2.83,2.83,0,0,0,2.89,0l.38-.23c2.71-1.58.93-6.06-2.16-5.13Z"/><path class="cls-2" d="M165.29,104.7a9.34,9.34,0,0,1,2.52-3.32l-4.38-1.82c-.47,1.07-.36,1.4.31,1l3.63,2.06a22.49,22.49,0,0,1-.94-2.9l-2.64,1.52a10.84,10.84,0,0,1,4.44,1.12c1.52.79,1.73,1.14.69,2.57l4.56-1.2A15.78,15.78,0,0,1,169,98.37l.29,2.17.3-.81-1.35,1.75c1-.64,4.33.87,5.46,1.43,1.68.84,3.83,2.34,4.69,4.08l-.35-2.73.17-.87a2.67,2.67,0,0,0,0,4.57,8.82,8.82,0,0,0,2.19,1.05,3.61,3.61,0,0,0,4.35-2.47c2-6.25-9.25-11.32-13.92-11.66-2.87-.21-6.19.47-7,3.68-.83,3.49,3.66,6.75,5,9.72.93,2,3.8,2,5.24.68,4.94-4.57,1.43-11.3-4.2-12.92-2.16-.63-6.44-1.94-8.33-.05-2.25,2.25-.77,6.49.34,8.89a3,3,0,0,0,3.34,1.36,5.34,5.34,0,0,0,3.16-7.36,2.61,2.61,0,0,0-4.69-.61,20.88,20.88,0,0,0-2.7,4.66c-1,2.4,3,4.09,4.21,1.77Z"/><path class="cls-4" d="M82.63,117.3c-.42-2.88-.78-5.62-1.39-8.49-.7-3.26-.66-5.75,1.9-8.18l-5-2.08c-.15,4.82-.88,9.55-.75,14.39.09,3,.31,6.27,3.33,7.77a2.73,2.73,0,0,0,3.68-1c1.17-2.3-1.23-3.81-1.5-6.07a40,40,0,0,1,1-14.34c.81-2.91-2.8-4.82-4.91-2.86-7.22,6.7-2.74,14.75,1.1,21.91.81,1.5,2.76.37,2.55-1.08Z"/><path class="cls-4" d="M85.25,118c0-5.13-.17-10.45,1-15.47L80.59,101c-1.36,5.56-1.53,15.58,3.21,19.76a2.72,2.72,0,0,0,4.58-1.9c0-3.05-.07-6.07-.3-9.11-.16-2.11-3.17-3.35-4.29-1.16-1.62,3.14.85,8.33,2.29,11.22L89,116.88l-.9-.54a1.45,1.45,0,0,0-2.11.86l-.14,1a2.13,2.13,0,1,0,4.14,0c-.14-.84-2.59-6.68-2.25-7.24l-4.29-1.16c0,3-.18,6.07-.46,9.11L87.6,117c-1.36-1.56-1.56-5.68-1.66-7.54a44.33,44.33,0,0,1,.4-7.64c.38-3.27-5.12-4-5.75-.78-1.19,6.07-.41,11.58.89,17.54.47,2.14,3.78,1.63,3.77-.51Z"/><path class="cls-4" d="M86.45,110.51c1-7.7,7.42-12.3,9.41-19.45a1.62,1.62,0,0,0-2.35-1.81c-7.46,3.43-12.07,13.26-11.25,21.26a2.1,2.1,0,0,0,4.19,0Z"/><path class="cls-4" d="M89,108.55c.42-1.38.68-2.85,1-4.27s.72-3-.1-4.53a2.24,2.24,0,0,0-2.5-1c-3.56,1.15-4.07,6.7-3.5,9.82.48,2.71,4.39,2.33,5.11,0Z"/><path class="cls-4" d="M85.6,100.81a12.47,12.47,0,0,1,7.91-7.47c3.46-1.17,7-.82,10.53-1.39,2.17-.35,1.92-3.14.55-4.17-4.1-3-10.86-1.08-15,1s-7.55,6.46-7,11.2c.15,1.35,2.26,2.44,3,.8Z"/><path class="cls-4" d="M85,96.87c3.35-.38,6.39-1.92,9.59-2.94,1.72-.55,7.87-2.73,9.4-1.32a2.31,2.31,0,0,0,3.82-1c1.57-5.13-4.56-5.73-8.07-5.31-5.46.66-12.33,3.18-16.08,7.35-1,1.08-.42,3.43,1.34,3.23Z"/><path class="cls-4" d="M94.1,97.36a24.41,24.41,0,0,1,5.74-2c1.91-.41,3.79-.47,5.59-1.28l-3.52-2.7c-.07.43-.13.87-.17,1.31a1.51,1.51,0,0,0,1.11,1.45,4.58,4.58,0,0,0,.73.18c3,.64,4.25-3.74,1.27-4.61-4.2-1.25-9.61,1.43-13.15,3.54-2.64,1.58-.32,5.43,2.4,4.1Z"/><path class="cls-4" d="M91.67,97.47a29.86,29.86,0,0,0,6-1.18c2-.47,4.11-.58,5.26-2.42a1.9,1.9,0,0,0-.67-2.56c-1.79-.94-3.29-.2-5.11.35a27.82,27.82,0,0,1-5.46,1.56c-2.68.23-2.77,4.31,0,4.25Z"/><path class="cls-4" d="M81.62,100.31c3.11-3.56,10.22-7.44,14.71-8.82,5.69-1.75,11.94.3,17.71-1.12,2.69-.65,2.62-4.67,0-5.36-3.88-1-8.05-.7-12.05-.66-3.07,0-6,.17-8.85,1.43-4.52,2-13.1,7-14.38,12.06a2,2,0,0,0,.51,1.93l.57.54a1.28,1.28,0,0,0,1.78,0Z"/><path class="cls-4" d="M101.76,95.33A71.64,71.64,0,0,0,121.11,95a2.81,2.81,0,0,0,2-2c.65-4.57-2.55-7.37-6.78-8.68-5.8-1.8-11.46,2-17.11.37L100,90.4c2.89-2.17,6.58-2.6,10.11-2.89s8.94-1.4,8.57,3.41a3.24,3.24,0,0,0,1.61,2.8l.48.32a2.81,2.81,0,0,0,4.07-1.66,8.55,8.55,0,0,0-7.15-11.63c-6.75-.69-16.16.21-21.49,4.72a3.16,3.16,0,0,0,1.38,5.25,20,20,0,0,0,8.75-.37c1.81-.42,12.2-3,11.22,1.08l2.8-2.12a109.09,109.09,0,0,0-18.58,1.18,2.42,2.42,0,0,0,0,4.84Z"/><path class="cls-4" d="M161.29,87.89c1.76,3.19,5.86,2.32,8.93,3.08,2.64.65,5,3.12,7.7,3.08a2.28,2.28,0,0,0,2.18-1.66c.59-3.74-3.13-6.45-6.25-7.73s-9.59-2.5-12.18.27a2.51,2.51,0,0,0-.38,3Z"/><path class="cls-4" d="M177.16,96.45a3.69,3.69,0,0,0,2.46-1.57l-.84.84c.36-.17-.23,0,0,0,.05,0,.44-.11.13-.08a1.85,1.85,0,0,0,1.73-1.31,1.82,1.82,0,0,0-.82-2c-.37-.2-.72-.44-1.08-.65l.84.85a3.54,3.54,0,0,0-3.21-1.56,2.8,2.8,0,1,0,.75,5.51Z"/><path class="cls-4" d="M161.38,82.69c-.1-.08-.2-.14-.3-.21.11.07.09,0-.05-.06a6.41,6.41,0,0,0-.79-.58l.76.75-.07-.08a2.33,2.33,0,0,0-2.25-1.08,2.21,2.21,0,0,0-1.91,1.92,2.24,2.24,0,0,0,3.81,1.9l-.2.16c.16-.08.19-.09.07,0l.14-.06a1.26,1.26,0,0,0,.33-.16l-.8.22.55-.05a1.42,1.42,0,0,0,.71-2.63Z"/><path class="cls-4" d="M107,193.16c1.13,2.39,3.35,3.78,5.25,5.56s3.41,3.58,5.25,5.23c3.11,2.8,7.36,5.48,11.61,5.66,2.43.09,4.16-3.46,2.12-5.11-3.45-2.77-7.59-3.93-10.87-7.13-2.93-2.87-6.37-7-10.48-8a2.59,2.59,0,0,0-2.88,3.75Z"/><path class="cls-4" d="M107.38,190.43c-1.14,6.09,5.38,11.72,9.53,15.39,3.91,3.45,11.3,8.87,16.24,4.68a2.4,2.4,0,0,0,0-3.32c-1.21-1.5-2.45-1.77-4.21-2.38a23.55,23.55,0,0,1-6.89-3.75c-3.28-2.59-7.92-6.48-8.94-10.62-.67-2.73-5.18-2.93-5.73,0Z"/><path class="cls-4" d="M113.41,194.14c2.86,3.51,7.41,5.58,10.66,8.75a26,26,0,0,1,4,4.92c1.12,1.81,1.67,3.81,3.32,5.2s4.59,1.09,5.07-1.34c1-4.88-3.25-9.71-6.56-12.91-3.71-3.6-8.85-7.8-13.95-9a2.65,2.65,0,0,0-2.56,4.39Z"/><path class="cls-4" d="M118.76,193.48c2.94,1.86,6.1,2.56,8.8,5a21,21,0,0,1,5.49,8.19c1.65,4,7.2,2.54,6.47-1.78-1.28-7.62-12.52-19-20.76-15.45-1.72.74-1.33,3.22,0,4.06Z"/><path class="cls-4" d="M126,195.06c4.48,1.33,6.8,5.59,9.1,9.29,1.49,2.4,6.2,1.69,5.81-1.57a14.71,14.71,0,0,0-5-9.51c-2.71-2.38-6.15-4.58-9.89-3.64-2.75.7-2.6,4.66,0,5.43Z"/><path class="cls-4" d="M134.57,198.22a9.12,9.12,0,0,1,2.26,4.27c.4,1.61.18,3.27.95,4.76a2.2,2.2,0,0,0,3.44.44c3.07-3.9-.34-9.86-3.56-12.57-2.12-1.8-5.07,1-3.09,3.1Z"/><path class="cls-4" d="M133,208.27c2.63.31,5.27.46,7.89.88l-1.33-5c-1.15,1.06-4.51,1-5.92,1l.82,6.05c2.26-.64,4.9-1.41,7.26-1.18l-2.19-.91.33.31-.8-3-.16.47,1.43-1.86a9,9,0,0,1-4.33.67l.84,6.22c3.61-.67,9.47-1.31,11.27-5,1.16-2.34-1.23-5.09-3.68-3.68-2.71,1.55-6.26,2-9.27,2.56-3.56.67-2.67,6.25.84,6.22,3.29,0,7.84-.37,9.06-4a3,3,0,0,0-.8-3c-2.87-2.58-8.22-.86-11.44.23s-2.83,6.37.82,6c3.39-.3,7.61-.41,10.17-2.94,2-1.95.37-4.92-2.12-5.13a42.78,42.78,0,0,0-8.69-.05,2.54,2.54,0,0,0,0,5.07Z"/><path class="cls-4" d="M136.67,195.36l-.09-.1v3.81l.06-.08-2,.84c2.26.28,4.71-.35,7-.45,2.59-.1,4.85,0,6.52-2.26a2.65,2.65,0,0,0,0-2.72c-1.9-3-5.64-2.31-8.66-1.92-2.87.37-6.43.72-7.61,3.73-.59,1.51.67,3,2,3.51a2.68,2.68,0,0,0,2.8-4.36Z"/><path class="cls-4" d="M138,200.69a40.34,40.34,0,0,1,5.19-1.34c1.1-.2,3.41-.77,4.34-.42l-2.2-1.69.26.52-.37-2.83c.86-.82,1-1,.3-.48l-1.2.82c-.8.54-1.61,1.07-2.43,1.6-1.63,1-3.28,2-5,3-4,2.32-.49,7.92,3.56,6.08,1.9-.86,3.65-1.95,5.46-3s3.71-1.52,5.51-2.45l-4.73-3.63c-1.06,3.19-6.49,4.78-5,8.93a3.13,3.13,0,0,0,2.88,2.19c2.61.26,5.51-2.91,6.78-4.91s-1.16-3.73-3-3c-1.38.59-2.59,1.89-4.05,2.27l2.22.29-.48-.24,1.48,2.58c0,.43,1-.82,1.37-1.12s1-.85,1.45-1.31a10.85,10.85,0,0,0,2.53-4,3.23,3.23,0,0,0-2.24-4c-5.23-.9-9.26,3.31-13.76,5.23l3.56,6.08c2.82-1.56,5.61-3.19,8.3-5,2.48-1.64,4.77-4.08,3-7.22-1.57-2.81-4.75-2.35-7.42-1.81a39.22,39.22,0,0,0-8.81,3c-3.24,1.48-.95,6.88,2.42,5.75Z"/><path class="cls-4" d="M144.26,211.42c5-.12,9.1-3.55,11.63-7.68a41,41,0,0,0,3-6.15c.72-1.79.85-5.48,1.43-6.54,2.47-4.6-4.68-8.72-7-4.08-.87,1.75-.84,3.05-1.06,4.95a20.5,20.5,0,0,1-1.88,5.93,16.3,16.3,0,0,1-2.74,4.59c-1.57,1.72-3.74,2.66-5.26,4.42s-.57,4.62,1.88,4.56Z"/><path class="cls-4" d="M150.84,194.65c.68-.28,1.33-.6,2-.86l-2.1-2.73a6,6,0,0,0-.6,2.2,1.78,1.78,0,0,0,2.67,1.53c.52-.33,1-.7,1.52-1a7.84,7.84,0,0,0,1.27-1.24c.54-.58.21-1.82-.71-1.72a9,9,0,0,0-1.72.21c-.58.18-1.16.34-1.73.54l2.19,2.19a1.62,1.62,0,0,1,.32-.79,1.88,1.88,0,0,0-2.1-2.74,8,8,0,0,0-2.75,1.49c-1.3,1.11.08,3.62,1.72,3Z"/><path class="cls-4" d="M156.56,195.23c2.38-2.34,3.87-5.56,5.6-8.39l-3.08-1.3a77.35,77.35,0,0,1-4.32,11.22c-1.47,3-3.47,5.75-4.56,8.91-.3.85.85,1.84,1.62,1.25,5.85-4.52,9-13.52,10.51-20.48.39-1.77-2.2-3.1-3.08-1.3-1.46,3-3.39,5.89-4.5,9-.37,1,1.08,1.77,1.81,1Z"/><path class="cls-4" d="M110.22,190.89a24.54,24.54,0,0,0-2.53-2.24l-2,2.53c3,1.91,5.94,3.93,9.32,5a.91.91,0,0,0,.88-1.51c-2.45-2.6-5.57-4.44-8.57-6.33-1.76-1.11-3.38,1.68-1.63,2.79a7.69,7.69,0,0,0,3.81,1.35,1,1,0,0,0,.67-1.64Z"/><path class="cls-4" d="M110.3,193.21l.07-.21a1.32,1.32,0,0,0-.35-1.32c-.28-.26-1.81-1.21-1.75-1.59l-3.13.85a19.77,19.77,0,0,0,5.33,5.38c1.78,1.18,4.77,3,6.94,2.91.76,0,1.59-.83,1.26-1.64-.88-2.11-3.1-2.43-5-3.44a17.29,17.29,0,0,1-5.65-4.9c-.9-1.2-3.23-1-3.13.84.13,2.22,1.91,3.12,3.8,3.85a1.33,1.33,0,0,0,1.31-.35.86.86,0,0,0,.28-.38Z"/><path class="cls-5" d="M103,182.65a4.66,4.66,0,0,0-2.14-1.77l-.79,2.91c6.15.55,13,2,19.1,1.38,1.46-.14,2-2.27.36-2.69-6.1-1.63-13.18-1.34-19.46-1.81-1.75-.14-2.13,2.69-.42,3.07a6,6,0,0,0,3,.1c.58-.1.61-.82.31-1.19Z"/><path class="cls-5" d="M100.22,186.26c1.64-1.11,6.9.22,8.82.39q5,.42,9.88,1c1.9.21,1.9-2.47.42-3.06-5.74-2.31-12.19-2-17.7-4.9l-.81,3a43.34,43.34,0,0,1,12,.92l.46-3.37a116.15,116.15,0,0,1-13.8-1.35L99,182.14l9.45.23c3.35.09,7.32-.35,10.46,1l-.77-1.88a17.73,17.73,0,0,0-.5,3.25H121q-.09-1-.15-1.95c0-1.58-.23-.87-.52,2.13l1.74-.7.3,1.07,2.56-.68a2.31,2.31,0,0,1-.7-3.22l-1.65.67.54,1.86a4.39,4.39,0,0,1-3.92.66,14.55,14.55,0,0,1-5.47-2l.27,2c.18-.37,4,0,4.36-.06,1.12,0,1.74-1.69.61-2.25-2.33-1.16-6.48-2.34-7.89.61a1.72,1.72,0,0,0,.26,2c4.06,3.31,17.92,6.26,14.59-3.38-2-5.78-8.14,1-3.17,5.2a1.55,1.55,0,0,0,2.62-1.08c.39-3-2.26-7.26-5.7-4.83-2.47,1.74-1.2,5.82,1.57,6.32a1.58,1.58,0,0,0,1.74-.71c1.08-2.1.37-6.25-2.27-7-3.46-1-3,3.29-3,5.25,0,2.16,3.11,2.08,3.31,0l.4-2.37a1.69,1.69,0,0,0-.76-1.88c-6.34-2.76-14.83-1.53-21.59-1.74-1.86-.06-2.35,3-.45,3.31a93,93,0,0,0,14.7,1.53c1.89,0,2.39-3,.45-3.37a47.87,47.87,0,0,0-12.87-.81c-1.46.11-2.33,2.21-.8,3,5.83,3,12.46,2.73,18.48,5.13l.41-3.06c-4.48-.48-9-.86-13.48-1.05-2.21-.09-5-.81-6.71.89-1,.95.31,2.74,1.49,1.93Z"/><path class="cls-5" d="M155.22,182.31c-.17.51.11.5.85-.05a9,9,0,0,1,2.12-.35l-.69-2.55c.05,0-3.14,1.14-3.06.84-.28,1,1.59.58,1.94.54a20.67,20.67,0,0,1,4.65.15v-3.1a22.15,22.15,0,0,0-2.93.38c-1.64.32-1.29,3.06.39,2.93.83-.06,3-.28,3.67.49l-.36-1.35c-.08.27-2.43.54-2.78.59a17.41,17.41,0,0,1-3.15.14l.73,2.7A37,37,0,0,1,162,182a3.85,3.85,0,0,0,2.81-2.08c1.07-2.65-1.71-3.83-3.78-4.1l1,2.49c-.42.34.17,1.12.31,1.46.21.5.16,1.14.37.46l2.21-.9-.12-.07.53,2,.05-.08c1-1.45-1.11-2.83-2.31-1.78l-.07.06a1.49,1.49,0,0,0,0,2.1l.1.1a1.52,1.52,0,0,0,2.36-.3c.83-1.31-.47-3.58-1.27-4.65a2.73,2.73,0,0,0-4.21-.49c-1.07.9-.1,2.37,1,2.49,1.9.19-1.78.92-2.28,1.07a29.49,29.49,0,0,0-3.64,1.36c-1.4.61-.58,2.65.73,2.69,2.1.08,8.22.13,8.62-2.88.36-2.72-4.25-2.92-6-2.86l.4,2.93a11.8,11.8,0,0,1,2.14-.16c2.05,0,1.93-2.86,0-3.1-2.42-.29-9.22-.84-9.59,2.88-.4,4,5.64,1.91,7.44,1.05a1.37,1.37,0,0,0-.69-2.54c-1.5.17-7.2,1.5-4.45,4,.62.57,1.77,0,1.48-.86Z"/><path class="cls-6" d="M134.61,187.49c-1.51.15-1.22-5.88-1.16-6.66L131,182.25a7.36,7.36,0,0,1,3.77,3.78l2.26-2.26a7.92,7.92,0,0,0-2.13-1c-.46-.08-.93-.15-1.4-.21q.19,1.69,1.29.72a14.58,14.58,0,0,0,3.91-1.1c1-.29.81-.34-.65-.14-.84,0-1.69,0-2.53,0-2.26,0-2.25,3.41,0,3.49.89,0,5.16-.53,5.54.56l.45-1.68c-1.25,1.39-5.87.64-7.7,1-2,.33-1.51,3.55.47,3.53l9.21-.08-.46-3.39-5.18.9c-1.87.32-1.43,3.38.44,3.3,2.27-.11,8,.86,9.47-1.38,1.62-2.42-1-6.4-2.5-8.17-1.09-1.28-3.15.09-2.73,1.59.31,1.11,4.13.6,5,.65l-.88-3.25c-3,2.32-1.94,4.16-1.84,7.51a1.72,1.72,0,0,0,3.44,0,18.91,18.91,0,0,1,.09-3.61l-1.13,1.13c-.79.16.08,2.9,0,3.67l2.72-1.13a34.59,34.59,0,0,1-3.08-3.76,1.45,1.45,0,0,0-2.5,1.46,27,27,0,0,0,3.32,4.56c1,1.12,2.6.14,2.72-1.13.24-2.46-.6-7.4-4-6.78a1.56,1.56,0,0,0-1.13,1.13,25.52,25.52,0,0,0-.42,4.46h3.44c0-1.15-.91-3.69.16-4.5a1.76,1.76,0,0,0-.88-3.25c-2.23-.16-5.86-.55-7.75,1a3,3,0,0,0-.56,4c2.28,2.9,7.49.54,6.48-3.1l-2.73,1.59a7.72,7.72,0,0,1,1.71,3.17c.2.83,1.9.43-.38.52q-3,.12-6,.19l.45,3.3,5.21-.81c2-.31,1.43-3.38-.46-3.39l-9.21-.07.48,3.54c2.93-.54,7,.61,9.19-2a1.74,1.74,0,0,0,.45-1.68c-1.39-3.78-5.65-3-8.88-3.13v3.49c2.27,0,7.46.72,8-2.47.48-2.71-2.83-3.94-5-4-2.3-.07-6.73.87-7.75,3.33-1.35,3.27,2.86,3.17,4.53,4.23,1.51,1,2.91-.87,2.26-2.26a9.91,9.91,0,0,0-5-5,1.68,1.68,0,0,0-2.48,1.43c-.17,2.65.4,11.32,5.1,9a1.28,1.28,0,0,0-.64-2.36Z"/><path d="M122.38,96.92c1.14,2.23,4.78,3.35,7,4.26a31.35,31.35,0,0,0,12.28,2.38c7.49,0,16.83-2.33,21.93-8.13.93-1.06.06-3-1.47-2.52-6.4,2.08-11.81,5.73-18.74,6.23-7.08.51-12.09-2.42-18.51-4.5a1.93,1.93,0,0,0-2.17.88c-.2.45-.53.92-.28,1.4Z"/><path d="M89,114.32c-3.13,5.14,1.83,11.92,4.22,16.39,2.7,5,5.68,10.81,11.39,12.79a1.61,1.61,0,0,0,1.55-2.67,46.16,46.16,0,0,1-15.08-26.24,1.15,1.15,0,0,0-2.08-.27Z"/><path d="M181.58,104.05c-1,2.24-.46,4.21-.43,6.63a35.07,35.07,0,0,1-1.1,9.23c-1.62,6.22-5.52,10.69-8.35,16.28a1.45,1.45,0,0,0,2,2c5.86-3.07,9-10.11,10.67-16.28,1.31-4.89,3.08-14.21-1-18a1.14,1.14,0,0,0-1.77.22Z"/><path d="M113.12,81.84c8.5-.65,16.84-1.89,25.4-1.77,8,.11,16.77.3,24.06,3.72A1.81,1.81,0,0,0,165,81.34c-2.79-6.6-16-5.68-21.79-5.85-10.09-.3-20.87.06-30.57,3.1-1.7.53-1.5,3.4.44,3.25Z"/><path d="M150.29,80.94c2.68,1.09,5.11,4.81,6.23,7.34,1.31,3,1.09,6,1.81,9a1.73,1.73,0,0,0,3.13.41c1.83-3.94.41-8.91-1.58-12.57-1.55-2.86-5.41-8.15-9.09-7.92a1.89,1.89,0,0,0-.5,3.7Z"/><path d="M160.56,83.5a4.06,4.06,0,0,0-1.05-.45l.82,3.1.45-.35-1.14.47c1.6-.1,3.16-.48,4.75-.65a14,14,0,0,0,4.37-.81c1.41-.63.74-2.51-.39-3a9.27,9.27,0,0,0-4.82,0,21.83,21.83,0,0,0-2.53.52c-.62.18-1.35.69-2,.64-2.64-.21-2.23,4.44.49,3.64a4.06,4.06,0,0,0,1.05-.45,1.57,1.57,0,0,0,0-2.68Z"/><path d="M158.52,91.94c2.54-.58,5.61-.57,7.95-1.75a1.42,1.42,0,0,0-.33-2.56c-2.84-.83-6.14.63-8.66,1.86-1.41.69-.39,2.77,1,2.45Z"/><path d="M156.12,109.54c-3.74,7.25-9.27,20.61-3,27.9,2.8,3.27,6.61,3.5,10.61,2.72,5.56-1.07,12-2.75,16.42-6.48,1.55-1.32-.17-3.39-1.81-3.1-5.74,1-19,9.35-22.67,1.77-2.82-5.77,1.91-15.83,3.45-21.56.46-1.74-2.11-2.93-3-1.25Z"/><path d="M139,112.25c1.16,6.32,10.83,19.95,2.55,24.24-7.68,4-15.75,4.64-24.16,5.65-1.68.2-2.37,2.74-.43,3.2,9.08,2.13,22.54-.33,29.74-6.6S146,117,141.51,111.19a1.39,1.39,0,0,0-2.53,1.06Z"/><path d="M119.54,80.35c-.15,2.51,2.68,4.81,3.47,7.24,1.07,3.33.6,6.94,1.85,10.2a1.55,1.55,0,0,0,3-.41,25.26,25.26,0,0,0-1.62-12c-1-2.23-3-6.22-5.82-5.94a.94.94,0,0,0-.9.9Z"/><path d="M117,86.24c1.1.3,2.15-.38,3.23-.56s2.32-.08,3.26-.92a1.61,1.61,0,0,0,0-2.24c-1.16-1.06-2.84-.77-4.21-.28-1.19.44-2.85,1.07-3.16,2.44a1.29,1.29,0,0,0,.88,1.56Z"/><path d="M120.91,88.65l0-.23-.49,1.18c.34-.38,1.65-.55,2.19-.71.92-.27,1.88-.28,2.57-1a1.59,1.59,0,0,0-.31-2.46c-1.26-.82-3.35-.12-4.62.43s-3,1.45-2.56,3.26a1.61,1.61,0,0,0,1.78,1.16,1.66,1.66,0,0,0,1.41-1.6Z"/><path d="M100.65,139.85c-1.34,3.15.13,6.09.72,9.36.74,4.15,1,8.38,1.78,12.52,1.2,6.38,4.35,14.48,10.76,17.15,1.48.62,2.35-1.28,1.85-2.41-1.48-3.32-4.14-5.95-5.67-9.3a40.66,40.66,0,0,1-2.82-10.92c-.75-4.93-.56-13.73-5-16.83a1.2,1.2,0,0,0-1.64.43Z"/><path d="M174.58,133.82c-1.41,2.63-.75,5.05-.73,8a53.31,53.31,0,0,1-1.31,12.27c-1.6,7-5.24,13.29-6.93,20.18a2.25,2.25,0,0,0,4.1,1.72c4-6.42,6.49-15,7.84-22.36,1-5.47,2.92-15.71-1.51-20a1,1,0,0,0-1.46.19Z"/><path d="M111.24,178.08c10.36,2.57,22.08,2.88,32.66,1.94,9-.79,19.45-2.56,26.94-8,2-1.44.89-5.33-1.83-4.33-9,3.33-17.12,6.55-26.84,7.33-10.24.82-20.21-.88-30.39-.92-2.24,0-2.77,3.4-.54,4Z"/><path d="M76.4,119c-3.63,9.07,6.1,21.78,12.66,27.13a2.13,2.13,0,0,0,3-3c-3.27-3.84-6.74-7.23-9.24-11.68-2.28-4.07-2.62-8.57-4.52-12.69-.42-.91-1.61-.49-1.9.25Z"/><path d="M87.62,144.93c-1.14,9.87.36,21.13,6.1,29.48a10.37,10.37,0,0,0,9,4.94c5.92.26,13.06.43,18.77-1.25,1.73-.51,2.06-3.55,0-3.85-8.36-1.22-20.36,4-25.29-5-4.08-7.5-4.22-16-4.73-24.29a1.9,1.9,0,0,0-3.8,0Z"/><path d="M88.88,146.54c3.56,2.77,11,5.87,15.29,3.05a1.53,1.53,0,0,0-.36-2.76c-2-.68-4.28-.21-6.38-.59A22.29,22.29,0,0,1,91,143.83c-1.63-.84-3.72,1.45-2.09,2.71Z"/><path d="M89,150.74c.74,6.15,12.37,10.13,17.53,8.17a1.33,1.33,0,0,0,0-2.53c-2.78-.8-5.7-.65-8.48-1.64-3-1.07-5.22-3-7.84-4.69a.81.81,0,0,0-1.21.69Z"/><path d="M92.25,165.11a4.16,4.16,0,0,0,1.66-.7H92.3c4.36,2.94,11,5.23,16.28,4.22,1.7-.33,1.48-2.78,0-3.22-2.48-.75-5.13-.78-7.66-1.43s-4.94-1.62-7.39-2.49a1.6,1.6,0,0,0-1.8.73,2.34,2.34,0,0,0-.43,2.35.79.79,0,0,0,1,.54Z"/><path d="M93,170.9c4.59,1.93,11.09,4,16.12,3.35a1.59,1.59,0,0,0,.42-3.11c-2.45-1-5.23-1.18-7.83-1.66s-5.25-1.1-7.9-1.55a1.54,1.54,0,0,0-.81,3Z"/><path d="M80,129.4c1-.21,2.36.07,3.41,0a21.49,21.49,0,0,0,3.9-.75,10.06,10.06,0,0,0,6-3.92c.81-1.15-.52-2.31-1.64-2.13-2.92.47-5.51,2-8.43,2.56-1.86.36-4.8-.2-5.46,2.09A1.8,1.8,0,0,0,80,129.4Z"/><path d="M80.5,135.25c2.33,1.75,6.09,1.67,8.9,1.77,3,.11,6.25.34,8.79-1.45a1.51,1.51,0,0,0-.76-2.79c-3.08,0-6.14.27-9.23.22-2.59-.05-5.29-.5-7.7.57-.74.33-.51,1.29,0,1.68Z"/><path d="M140.87,153.89a11.21,11.21,0,0,0,7.41-1.35c2-1.19,4.35-3.46,4.18-6-.08-1.18-1.44-2.29-2.58-1.48-1.37,1-2.24,2.49-3.61,3.49a8.7,8.7,0,0,1-4.9,1.64c-2,.07-2.69,3.38-.5,3.7Z"/><path d="M149.2,147.94c-.27,2,2.49,4.08,4.06,4.85,2.32,1.13,5.61,2,8.14,1.28,1.23-.35,1.66-2.28.38-2.89-3.26-1.56-7.32-.74-9.78-4a1.52,1.52,0,0,0-2.8.76Z"/><path d="M142.44,162.92a15.34,15.34,0,0,0,5-2.63c1.51-1,3.46-2.29,4-4.1a1.89,1.89,0,0,0-2.3-2.3c-1.69.35-3.19,2.16-4.4,3.32A25.62,25.62,0,0,0,141,161c-.69,1,.44,2.12,1.46,1.91Z"/><path d="M147.8,157.79c3.2,3,8.83,4.93,13.22,3.94,1.49-.33,1.27-2.37,0-2.8-1.75-.61-3.73-.5-5.55-.89a12.72,12.72,0,0,1-5.48-2.45c-1.51-1.26-3.68.8-2.19,2.2Z"/><path d="M143,169.64a2.64,2.64,0,0,0,2.81.16c1.29-.53,2.27-2.14,3.44-2.57s2.93,1.06,4.1,1.53a13.66,13.66,0,0,0,5.71,1.21,1.17,1.17,0,0,0,.59-2.15,46.6,46.6,0,0,0-5.81-3.06c-1.49-.76-3.1-2.12-4.87-2-1.54.12-2.24,1.11-3.27,2.09-1.34,1.27-2.4,1.79-3.07,3.35a1.07,1.07,0,0,0,.37,1.42Z"/><path d="M91.21,118.71c.45-5.51-1.83-11.2,1.63-16.14,1.4-2-2-4-3.27-1.91a14.84,14.84,0,0,0-2.12,9.46c.23,2.89.26,7.06,2.45,9.13a.78.78,0,0,0,1.31-.54Z"/><path d="M92.32,101.57c4-3.41,9.47-3.74,14.53-4.2,5.81-.52,11.56-.14,17.38.09,2.29.09,2.9-3.71.55-4.09a70,70,0,0,0-22.32.4c-3.93.65-11,1.49-12.45,6.08a1.57,1.57,0,0,0,1.07,1.89,1.14,1.14,0,0,0,1.24-.17Z"/><path d="M183.78,107.5c2-5.55-2.62-11.5-7.29-14-4.24-2.32-12.86-5.13-16.63-.77-1.32,1.53-.09,4.13,2.06,3.53A17.87,17.87,0,0,1,174,97c5,2,7,5.61,8.45,10.55a.69.69,0,0,0,1.32,0Z"/><path d="M78.22,121.25c.65-5.84-.42-11.75.76-17.56a22.91,22.91,0,0,1,8.71-13.91c9.77-7.5,21.25-6.33,32.69-8.12,2.32-.36,1.42-3.51-.51-3.75-12.24-1.52-27.36,1.61-36.59,10.17-8.94,8.29-10.51,22.23-6.46,33.36a.72.72,0,0,0,1.4-.19Z"/><path d="M161.29,81.78c5.52,1.4,10.1,2.14,14.1,6.71s3.9,10.29,6.53,15.34c.79,1.52,2.9.67,3-.81.47-6.73-3.31-15.18-8.36-19.62-2.94-2.58-12.46-8.31-16-4.45a1.71,1.71,0,0,0,.75,2.83Z"/><path d="M98.19,177.68l-.27-.27V179l.36-.37c2.81-2.84-3.53-5.66-3.68-1.53-.1,2.85-.19,6.71,1.21,9.29,1.1,2,4.21,3.2,5.47.61a1.33,1.33,0,0,0-.78-1.93,2.85,2.85,0,0,1-.7-.22l1.06.81c-.32-.47-.83-.78-1.12-1.24a6.11,6.11,0,0,1-.46-2.08,27.82,27.82,0,0,1-.36-5.24l-2.73,2.08c.34,0,.68.11,1,.19a1,1,0,0,0,1-1.69Z"/><path d="M95.17,187.3c3.78,3.24,9.93,3.33,14.73,3.7,6.07.48,12.32.54,18.16-1.37a1.77,1.77,0,0,0-.47-3.47c-5.58-.25-11.16.36-16.76.05-4.85-.27-10.35-2.27-15.09-1.11a1.32,1.32,0,0,0-.57,2.2Z"/><path d="M125.61,178a53.46,53.46,0,0,0,.7,8.27,8.76,8.76,0,0,0,2.11,5.35c1.92,2,4.68-.53,3.62-2.79-1.67-3.54-1.5-7.64-2.72-11.33a1.9,1.9,0,0,0-3.71.5Z"/><path d="M132.08,193c3.38,1.42,7.27.73,10.81.37,3.37-.35,7.56-.24,10.36-2.3.84-.62,1.22-2.22,0-2.75-3.08-1.34-6.36-.64-9.62-.24-3.69.45-7.31.66-11,.9a2.06,2.06,0,0,0-.55,4Z"/><path d="M150.06,192c6.08-.22,2.63-8.89,3.11-12.09s-4.32-4.44-4.76-1.31A16.34,16.34,0,0,0,149,185a8,8,0,0,1,.31,2.66c-.09.88-.56,1.63-.7,2.5a1.54,1.54,0,0,0,1.47,1.91Z"/><path d="M150.73,187.24c2.59,1.2,5.68.24,8.4-.32,3.25-.69,6.57-1.33,9.29-3.33a1.81,1.81,0,0,0-.91-3.35c-3.18-.12-6.09.92-9.15,1.68-2.66.65-5.94.8-8,2.77a1.64,1.64,0,0,0,.33,2.55Z"/><path d="M163.94,174c-.93,1.22.22,3,.62,4.25.49,1.52.83,3.66,2.87,3.66,2.26,0,2.43-2.65,1.89-4.26a10.93,10.93,0,0,0-2.26-3.94,2.06,2.06,0,0,0-2-.52,1.94,1.94,0,0,0-1.13.81Z"/><path d="M103.4,186.83c.66-1.73.49-3.65.51-5.47s.31-3.8-.33-5.54a1,1,0,0,0-2,0c-.74,1.83-.44,4-.39,5.94A12.94,12.94,0,0,0,102,187c.29.67,1.19.36,1.4-.18Z"/><path d="M108.28,187.7c0-3.23.79-6.69.4-9.89-.11-1-1.64-1.77-2.15-.58-1.41,3.3-.9,7.3-.31,10.75.2,1.19,2,.88,2.06-.28Z"/><path d="M114.51,186.78a28.21,28.21,0,0,1-.3-5c.06-1.41.41-2.84,0-4.22a.89.89,0,0,0-1.49-.39c-2.19,2.52-1.32,7.34-.34,10.23a1.11,1.11,0,0,0,2.13-.59Z"/><path d="M120.39,187.68c.09-2.65-.09-6.13-1.49-8.45a1.08,1.08,0,0,0-2,.54,17,17,0,0,0,.65,4c.29,1.4.59,2.79,1,4.18a1,1,0,0,0,1.88-.26Z"/><path d="M124.71,187.07a30.21,30.21,0,0,0-.18-3.56c-.22-1.28-.51-2.54-.83-3.8s-2-.68-1.84.5.37,2.38.64,3.58a29.44,29.44,0,0,0,1.22,3.41c.18.51,1,.47,1-.13Z"/><path d="M157.37,182.82a12,12,0,0,0,0-3.17,7,7,0,0,0-.69-3,1,1,0,0,0-1.74.23,6.78,6.78,0,0,0,0,2.94,11.38,11.38,0,0,0,.55,3c.33.81,1.76,1.1,2,0Z"/><path d="M162.48,182c-.72-2.08-.74-4.36-1.51-6.39a.88.88,0,0,0-1.68,0c-.73,2.37.29,5,1.23,7.21.48,1.11,2.35.32,2-.82Z"/><path d="M133.73,182.47c-2.12,1.22-.45,3.84,1.34,4.39s4.12-.05,6-.25c1.67-.18,4.36,0,5.87-.7,2.32-1.13,1-4.1-1.08-4.57-1.69-.38-3.68,0-5.37.15a54.53,54.53,0,0,0-6.75.56c-1.81.32-1.37,3.22.43,3.18a44.12,44.12,0,0,0,5.38-.64c.71-.1,5.66-.39,5.84-.7l1.19-.68c-2.15.18-4.29.46-6.43.72-1.29.16-4.89,1.25-5-.68a.91.91,0,0,0-1.35-.78Z"/><path class="cls-4" d="M124.91,207.73l-.25.08a1.63,1.63,0,0,0-.71,2.68c2.39,2.5,7.67,2.24,10.67,1.42,2.07-.56,1.17-3.5-.87-3.16a16.47,16.47,0,0,1-7.16-.27,1.65,1.65,0,0,0-1.26,3,15.82,15.82,0,0,0,14.59,1.42c1.69-.69,1.71-3.67-.48-3.51a28.7,28.7,0,0,1-6.35-.08c-2.08-.3-3,2.64-.9,3.25,6.57,1.85,12.39-.78,17.76-4.51l-2.46-3.19c-3.23,3.91-8,4.51-12.75,5a2.13,2.13,0,0,0,0,4.25c6.28.35,16-1.69,18.74-8.14a1.56,1.56,0,0,0-2.12-2.12c-2.6,1.26-4.57,3.37-7.26,4.55a19.1,19.1,0,0,1-9.36,1.46v4.25c6-.69,11.4-1.81,15.63-6.4,1.5-1.64-.44-4.49-2.47-3.2-4.59,2.92-9,5.91-14.81,4.77v3.25a6.52,6.52,0,0,1,5.88.34v-3.44a14.5,14.5,0,0,1-12-.82l-.82,3.06a43.86,43.86,0,0,0,8,.27v-3.28c-2,.18-6.27.91-8-.47l-.33,2.52.24-.11c1.64-.74.47-3.42-1.22-2.9Z"/></svg>