<svg id="Layer_1" data-name="Layer 1" xmlns="http://www.w3.org/2000/svg" viewBox="0 0 500 500"><defs><style>.cls-1{fill:#231518;}</style></defs><title>11Artboard 1</title><path class="cls-1" d="M130.86,158.82c-.17-5.07.26-10,2.4-14.71,1.52-3.32,5.27-9.69,9-10.89H138.5l1.23.24-4.07-3.12c1.59,2.07-2.56,9.48-3.49,11.46a86.58,86.58,0,0,1-6.91,11.85L138,157.09c-.05-3.75.16-6.61,1.87-10.05a26.82,26.82,0,0,1,2.5-4.11c.72-1,3.93-3.23,1.72-2.54l-5-.66q-1.43-5.28-2-2.75c-.23.71-.44,1.44-.63,2.16-.42,1.37-.88,2.72-1.41,4.05-1.16,2.93-2.62,5.73-3.79,8.66h12.69c-1-2.58.17-5.71,1.18-8.14a58.25,58.25,0,0,1,2.88-5.91l-5.18.68.65.16-4-3.06c-1-1.92-.54-1.26-1.31.62-.48,1.16-1.06,2.26-1.6,3.39a30.09,30.09,0,0,0-3,8.42c-1.19,7.92,8.72,13.17,13.45,5.67,3.65-5.77,4.37-12.68,8.07-18.52l-14.33-6c-.47,1.66-2.87,3.08-4,4.47-3,3.84-2.43,10,3,11.43,8.12,2.07,14.33-4.24,16.07-11.73,2-8.45-9.82-14-14.33-6a51.56,51.56,0,0,0-4.56,10.47c-.85,2.8-1,6.11-2.68,8.53l13.45,5.67c1.42-7,10.89-23.23-1.36-26.42-5.74-1.49-9.55,4-11.49,8.5-2.53,5.89-1.87,11.92-3.65,17.85-2.31,7.66,7.84,10.69,12,5.08,4.54-6.08,13.53-30.27-1.76-29.27-5.82.38-9.69,6.7-12,11.42a53,53,0,0,0-5.1,18c-.69,7,9.48,8.9,12.71,3.44,4.43-7.5,9.35-16.08,11.43-24.6,2-8.17-1.5-19.2-12.05-16.45-7.54,2-13.25,10.26-16.28,17a38.77,38.77,0,0,0-2.9,24.23c1.62,7.65,13.89,5.94,13.62-1.85Z"/><path class="cls-1" d="M130.2,134.79a45.35,45.35,0,0,1,2.32-4.95,17.55,17.55,0,0,1,1.86-3.47l-2.83,2.83.76-.36-3.94,1.06c.95,0,1.85.08,2.81,0,9.78-.86,9.6-14,0-15.08-1.09-.12-1.87-1.27-.35.24l1.94,3.34-.13-.68-.76,5.82.3-.51-2.71,2.71.56-.26-3.81,1a3.47,3.47,0,0,1,1.4,0l-2-14.86a.52.52,0,0,0,.67,0l3.35,2-.41-.36,2.23,5.38,0-.45-5.59,7.34c-.64,0-.32,0,1,0V110.38c-1,.21-1.28.23-.93.05v14.43h.53c8.26-.08,9.84-12,1.94-14.32a2.37,2.37,0,0,1-1.32-.49c-7.66-3.89-13.91,5.06-8.81,11.42l.57.71L116.88,119c1,2.42,1.92,4.06,4.17,5.48a6.64,6.64,0,0,0,8-1l.37-.41c1.59-1.75,2.88-4.69,1.87-7.08a19.12,19.12,0,0,0-2.79-4.76l-8.82,11.43a36.24,36.24,0,0,0,4.78,2l3.88-14.06a22.34,22.34,0,0,0-4.46-.38c-8.27.41-10.36,12.34-2,14.7a16,16,0,0,0,4.91.61c9.68-.27,9.74-15,0-15.09a15,15,0,0,0-5,.46c-2.94,1-5.91,3.93-5.59,7.34a9.66,9.66,0,0,0,13.44,8c7.94-3.13,6.77-14.1-2-14.86-5.79-.5-10.91,4.48-9.57,10.37,1.19,5.26,6.32,7.21,11.13,7.89l2-14.81c-2.12-.27-5.06-.74-7.61.75-2.77,1.62-3.95,4.44-4.89,7.36-1.85,5.79-.6,11.19,4.4,14.77,2.63,1.88,6.31-.13,7.12-2.9Z"/><path class="cls-1" d="M119.49,114.33c-6.85-.51-9.27,5.84-10.6,11.39a91.55,91.55,0,0,0-2.58,17.66c-.38,9.61.85,25.94,10.94,30.16,3,1.27,6.74-1.4,7.52-4.27,1.16-4.34-.94-7.4-1.76-11.55a55.76,55.76,0,0,1-.94-10.71,71.65,71.65,0,0,1,1.12-11.6c.56-3.36.86-7.6,2.25-10.72,2.19-4.91-.41-10-6-10.36Z"/><path class="cls-1" d="M121,166a21.06,21.06,0,0,1-.91,3.31c-1.47,4.46,4.81,8.14,7.95,4.63,2.55-2.84,5.07-5.71,7.7-8.47l-7.54-5.82L124.64,165l8.53,5c1.37-2.52,2.74-4.91,5.32-6.31l-7.85-4.51c0,.92-1,2.28-1.39,3.09-.73,1.52-1.46,3.05-2.2,4.57l9.58,2.59c.24-3.65,4.22-6.9,6-9.93l-9.33-1.22c-.41-1.38.77-1.12-.12-.6a14.73,14.73,0,0,0-1.49,1.27,33.81,33.81,0,0,0-3.38,3.06,53.91,53.91,0,0,1-5.32,5.26c-2.73,2.22-1.13,7,2.06,7.78,5.82,1.39,8.53-3.38,12.17-6.8,1.74-1.64,3.81-2.88,5.08-5a8.78,8.78,0,0,0,.84-7.7c-1.55-3.76-7-5.44-9.32-1.21-2.84,5.19-6.76,8.9-7.45,15.08-.56,5.09,7.37,7,9.58,2.6,1.94-3.85,5.22-8.41,5.14-12.85-.07-3.86-4.41-6.62-7.85-4.5-4,2.47-6.55,6.16-8.58,10.33-2.76,5.66,5.24,10.52,8.53,5l3.27-5.5c2.71-4.56-3.92-10-7.54-5.81-2.47,2.9-5.07,5.71-7.63,8.53l8.11,3.37a13.38,13.38,0,0,0-.44-4.58c-.9-3.8-7.29-4.09-8,0Z"/><path class="cls-1" d="M110.21,168c-.34,3.54,2.14,5.85,3.5,8.86,1.54,3.4,2.49,6.93,6.83,7.55,3.62.51,7.1-1.93,9.39-4.52a25.26,25.26,0,0,0,3.22-4.59c.8-1.46,1.3-3.68,2.46-4.87l-5.13,1.36.53.08-3.16-2.42.2-1c-.38.43-.77.85-1.16,1.27a23,23,0,0,1-2.07,2c-.26.21-1.61.9-1.66,1.11,2.15,1.27,2.78,1.47,1.89.63a8.21,8.21,0,0,1-.83-.94c-2.23-2.72-7.25-1.23-8,2.1s0,6.89,3.29,8.77c3.16,1.78,6.83.59,9.66-1.3,5.17-3.44,11.33-10.2,8.38-16.85a6,6,0,0,0-7.75-3.37c-3.17,1.34-4.35,5.27-5.73,8.13-.71,1.46-1.79,2.77-2.48,4.18l-.9.76,2.49.7a13.74,13.74,0,0,0-1.11-2.46,45.82,45.82,0,0,0-5.66-7.79c-2.27-2.65-6-.27-6.25,2.59Z"/><path d="M110.62,170.71c.33-5.63-1.35-11.55-1.62-17.23a110.47,110.47,0,0,1,.37-16.77,46.46,46.46,0,0,1,4.33-15.45c2.38-4.86,5.92-8.4,9.25-12.55,1.74-2.18-.51-6.08-3.26-4.23-9,6.07-14,18-15.41,28.34a86.44,86.44,0,0,0-.17,19.69c.59,6.11,1,13.46,3.92,18.9a1.4,1.4,0,0,0,2.59-.7Z"/><path d="M140.71,171.54c4.65-11.84,17.72-24.81,15.75-38.33-.26-1.81-3-1.57-3.43,0-1.15,4.22-1.64,8.3-3.44,12.35A109,109,0,0,1,143.94,156c-1.77,3-8.79,12.46-6.35,16a1.74,1.74,0,0,0,3.12-.41Z"/></svg>