<svg id="Layer_1" data-name="Layer 1" xmlns="http://www.w3.org/2000/svg" viewBox="0 0 500 500"><defs><style>.cls-1{fill:#c11e2a;}.cls-2{fill:#892935;}.cls-3{fill:#231518;}</style></defs><title>12Artboard 1</title><path class="cls-1" d="M133.94,131.3c-1.73-.35.26-2.14.36-3.09,1.07-1,.9-1.34-.52-1.16v2.49q-.36,3,1.44-.82-1.32,2.06.38.69a1.57,1.57,0,0,1-.48,2.37,1.29,1.29,0,0,0-.51,2c0-3-4.75-4.82-6.17-1.67-2.11,4.68.54,9,5.18,10.75,4.84,1.86,9-.86,10.37-5.69,1.18-4.27,1.74-10.39-2-13.51-.71-.6-2.41-1.75-1.35,0-.69-1.14-.28-2.39-1.42-3.51-1.93-1.89-4.5-1.31-6.91-1.07l2.09,7.73c1-.72,3.85-3.38,4.16-1.6s-2.22,5.37-3,6.9c-2.26,4.6,3.3,9.28,7.22,5.57a13.2,13.2,0,0,0,2.57-3.19c.3-.66.59-1.33.86-2,.31-1.22.2-1.3-.31-.26,1.58-1.29,1.37-3.55.67-5.18l-.44-1c-1.45-3.35-5.89-1.73-6.94.91l-.44,1.12,3-3c-3.3,1.34-3.23,3.88-5.46,6.1l7.22,5.57c2.5-5.45,6.7-12.54,1.87-18s-11.53-2-16,1.58c-3.62,2.93.49,7.45,4,6.93q3.17,0,.8-.58l-1.9-2.47a14.11,14.11,0,0,0,1,3c.73,1.14,2.42,1.61,3.05,2.58.51.79.07,3-.09,4a3.55,3.55,0,0,1-.55,1.62s-1.22-.75-1.22-.75l-6.5-.88c-.15,5.11,5.58,7.09,9.42,4.44,3.63-2.5,6-8.26,3.3-12.19-2.47-3.54-7.92-3.51-11-.86-4.44,3.77-1.57,9.94,3.42,11.29a7.28,7.28,0,0,0,6.61-1c2.28-1.84,2.1-4.53,2.1-7.2,0-5-2.22-10.2-8.16-9.1-5.17,1-8.89,7.92-8.23,12.86.63,4.62,6.12,8.16,9.9,4.34,1.53-1.54,1-4.64-1.35-5.1Z"/><path class="cls-2" d="M117.57,128.63a5.91,5.91,0,0,0,1.54,3,2,2,0,0,0,3.24-.86,8.33,8.33,0,0,0-.47-5.48,2.36,2.36,0,0,0-1.44-1.47,1.83,1.83,0,0,0-2,.93,1.48,1.48,0,0,0,0,1.48A1.39,1.39,0,0,0,120,127a1.76,1.76,0,0,0,.46-.22,1.24,1.24,0,0,0,.43-.39c.23-.22.19-.22-.13,0l-1.53-1.53c-.32,1.62-.32,3.28-.57,4.9l2.85-1.16c-.71-.46-1.43-.83-2.11-1.35-.92-.71-2,.46-1.78,1.38Z"/><path class="cls-3" d="M120.34,170.55c2.06-4.74,2.7-10,3.2-15.13l-5,.68c1.55,6.86,1.56,13.8,1.49,20.8,0,3.15,4.77,3.13,4.88,0a53.44,53.44,0,0,1,3.63-18l-4.2-.57c-.2,5.87-.34,11.73-.91,17.58l5.17-.7c-.94-4.74-1.39-9.74,1.13-14.15l-3.16-1.33c-1.67,4.81-2.14,10.24-2.61,15.3-.25,2.67-.63,6.07,2.7,6.74,2,.39,4.06-2.21,2.17-3.74-1-.81.16-7,.26-8.26.26-3.19.81-6.38.88-9.58,0-2-2.82-2.28-3.4-.46-1.62,5.14-2.22,10.17-3,15.48-.59,3.77,4.9,4.53,5.17.7a99.25,99.25,0,0,0-.07-17.58,2.15,2.15,0,0,0-4.2-.57A59.36,59.36,0,0,0,120,176.9h4.88c.17-7.46.14-14.84-1.43-22.17-.65-3-4.74-2-5,.69-.5,4.7-1.53,9.42-1.68,14.15,0,1.81,2.83,2.78,3.61,1Z"/><path class="cls-3" d="M113.32,147.1c-2.14,4.94-.6,9.5,1.22,14.36a53.51,53.51,0,0,1,2.43,8.13c.59,2.88.5,5.41,2.18,7.88a3,3,0,0,0,5,0c2.33-4.05,1.06-9.41.17-13.83a64.22,64.22,0,0,0-2.06-7.29c-.91-2.76-1.1-5.64-2.08-8.35s-5.49-4.17-6.9-.9Z"/><path class="cls-3" d="M125.69,168.86c.18-2.62.43-5.23.55-7.85,0-1,.05-2,.13-3,.12-1.66.38-1-.88-.57l-4.24-1.12c-.46-1.71-.65-2-.58-.9v4.72a23.12,23.12,0,0,0,.46,6.38c1.4,5.07,9.62,2.57,7.73-2.14a5.47,5.47,0,0,1,.1-2.17c.22-2.1-2.41-2.53-3.7-1.53a3.09,3.09,0,0,1-1.33.9l4.93,4.94c1-3.57.9-8.63.49-12.33-.44-3.88-3.89-6.46-7.7-5-7.85,3-4.08,14.71-3.16,20.66.66,4.31,6.94,2.89,7.21-1Z"/><path class="cls-3" d="M128.06,155.37c-2.79,4.1-3.2,9.16-4,13.9-.5,3-1.94,8.95,3.08,8.86a4.08,4.08,0,0,0,3.76-2.87c1.53-3.66,1.37-7.88,2-11.75.56-3.24,2-6-.46-8.71a2.87,2.87,0,0,0-4.44.57Z"/><path class="cls-3" d="M133.27,159.71c1-2.4,2.42-4.44,3.6-6.74,2-4-3-8.32-6.36-4.91a14.07,14.07,0,0,0-3.52,10.8,3.21,3.21,0,0,0,6.28.85Z"/><path class="cls-3" d="M133.52,152.74a8.06,8.06,0,0,1,0-.85c0,.33,0,.26.08-.22a7.71,7.71,0,0,1,.24-.82c-.14.28-.1.2.11-.23.13-.25.28-.5.43-.74q-.36.39.09-.09c-.88.8-2,.74-3.35-.18a4.27,4.27,0,0,0,1,.72l-1.69-2.21.1.25A3.77,3.77,0,0,0,134,151a3.66,3.66,0,0,0,3.47-2.65,4.55,4.55,0,0,0-2.2-5.35,5.34,5.34,0,0,0-6.19.87c-2.36,2.18-3.41,5.73-3.37,8.85a3.89,3.89,0,1,0,7.78,0Z"/><path class="cls-3" d="M137.12,151.53a4.44,4.44,0,0,0,1.6-1.62l-.61.79.06-.08-3.84,1h0a4.22,4.22,0,0,0,2.23,0,4.69,4.69,0,0,0,2.5-1.93,4.24,4.24,0,0,0,.58-2.12v0l-.15,1.1A4.13,4.13,0,0,0,137.6,144a4.23,4.23,0,0,0-5.41,1.08,4,4,0,0,0-.91,2.54,4.13,4.13,0,0,0,1.23,3l.61.5a5.79,5.79,0,0,0,1.4.72l-.85-.36.12.07-.68-.52,0,0a3.36,3.36,0,0,0,4,.52Z"/><path class="cls-3" d="M141,148.12V148l-.54,2,0-.07-.63.8.07-.05-.81.62a2.87,2.87,0,0,0,1-.75l-.8.61,0,0a4,4,0,0,0,1.78-2.32l.13-1a3.74,3.74,0,0,0-.53-2,4,4,0,0,0-.63-.85,4,4,0,0,0-1.33-.87,4.09,4.09,0,0,0-3.65.22,4.72,4.72,0,0,0-1.54,1.57,4.17,4.17,0,0,0-.38,3.22,4,4,0,0,0,4.34,2.84,3.94,3.94,0,0,0,3.42-3.89Z"/><path class="cls-3" d="M123.41,149.75c.12-.42.25-.85.4-1.25-.22.59.19-.3.22-.36l0,0,.33-.32c.1-.12.21-.22.32-.33a1.47,1.47,0,0,1-.7.48,1.32,1.32,0,0,1-1,0,1.14,1.14,0,0,1-.4-.47c.23.41.24.42,0,0l.09.36c-.07-.46-.09-.44-.08,0a2,2,0,0,1,2-1.9l2.05.55a2.38,2.38,0,0,1,1.1,1.81c0,.33,0,.3,0-.09-.12,1.12-.59,2.42-2.45,2.18l-4.1-4.09a2.45,2.45,0,0,1,1.16-1.94,2,2,0,0,1,1.49-.2l.3.13c-.37-.27-.41-.27-.11,0-.26-.29-.33-.35-.22-.2q.35.47-.54-.69a5.22,5.22,0,0,0-2.27-1.35l1.28.74a5.17,5.17,0,0,0-1.09-.78,2.41,2.41,0,0,0-3.18.83,5.51,5.51,0,0,0-.66,1.56l1.44-1.87-.08,0a3.45,3.45,0,0,0-1.75,3,6.7,6.7,0,0,0,6.16,6.6,6,6,0,0,0,6.26-5.91c0-1.6-1.25-3.71-3-3.95a5.77,5.77,0,0,0-4,.56,6.06,6.06,0,0,0-2.47,3.22,6.5,6.5,0,0,0,.61,5.61,5.09,5.09,0,0,0,7.15,1.38,7,7,0,0,0,2.88-5.84c0-4.66-4.28-8.63-9-7.21-4,1.22-5.48,5.89-4,9.59,1,2.63,4.93,3.06,5.81,0Z"/><path class="cls-3" d="M118.54,146.35c-.11-1.24,1.11-2.71,1.71-3.81a37.28,37.28,0,0,0,2.21-4.8l-5.25,1.39a13.86,13.86,0,0,1,2.77,2.8c.79,1.17,1.1,2.44,2.1,3.46,1.63,1.67,4.88.47,4.75-2-.1-1.88-1-3.18-2.07-4.71a30.19,30.19,0,0,0-3.1-4,3.17,3.17,0,0,0-4.45,0c-2.87,3.45-6.3,7.89-5.49,12.6.66,3.82,7.18,3,6.82-.93Z"/><path class="cls-3" d="M123,117.85c.17.91,2.29-3.11,3.19-2.85l-1.57-1.2.27.55-.26-2c-.35,1-2.31,2.1-2.95,3a9,9,0,0,0-1.38,4.54c-.28,3.71,4.9,3.83,6,.82,1.9-5,6.33-5.88,11.11-5.41,3.3.33,3.46-4.42.74-5.42-7.48-2.75-15,2.42-17.79,9.19l6,.82c0-2.8,3.33-4.12,3.3-6.9,0-2.27-2.07-3.4-4.1-3.52-4.65-.26-9.65,5.39-8.65,10,.86,3.93,6.7,2.24,6-1.65Z"/><path class="cls-3" d="M120.68,120.3c2.73-1.81,3.11-4.91,6.61-6.13,2.93-1,9.09-1.52,11.16,1.25,1,1.33,3.37,1.84,4.25,0,3.8-8-9.43-8.45-14-7.76a15.21,15.21,0,0,0-9.33,4.75c-1.81,2.1-3.27,5.52-.79,7.61a1.82,1.82,0,0,0,2.15.28Z"/><path class="cls-3" d="M143.89,115c3.45-9-14.66-11-19.74-9.3-4.67,1.51-7.89,4.93-7.2,10,.55,4,3.22,7.88,7.62,7.14a2.12,2.12,0,0,0,1.58-2.06c-.2-1.74-1-3.19-1.38-4.88-.59-2.89,2.44-3.27,4.79-3.58a17.56,17.56,0,0,1,12.92,3.23,1,1,0,0,0,1.41-.58Z"/><path class="cls-3" d="M115.92,174.7c-1,3.92,3.31,7.73,6.79,8.54a5.35,5.35,0,0,0,5.48-1.35c1.42-1.62,2.33-4.61,1-6.46-.89-1.21-2.9-1.56-3.72,0-.54,1-.29,2.33-.86,3.27-.27.43.36,0-.18.11a3.52,3.52,0,0,1-1.49-.3c-2.14-.82-2.43-2.59-3.61-4.25a1.87,1.87,0,0,0-3.37.44Z"/><path class="cls-3" d="M126.92,179.13c-.39.82-.43,1-1.37,1.09a7.3,7.3,0,0,1-2.27-.25,29.8,29.8,0,0,1-3.94-1.42,1.48,1.48,0,0,0-1.81,1.8c1.4,5.44,13.84,6.1,12.65-.8a1.8,1.8,0,0,0-3.26-.42Z"/><path d="M141.1,140.09c-6.63,1.54-13.45-1.47-14-8.93-.48-6.85,3.24-12.54,10.14-13.83,3.65-.68,6.18.13,7.92,3.43a14.89,14.89,0,0,1,1.67,6.93c0,5.84-3.17,10.92-9,12.37-3.14.79-2.4,5.48.75,5.56,9.45.22,14.6-11.18,14.13-19.29a19.94,19.94,0,0,0-4.73-12c-3.47-3.87-7.63-4-12.42-2.88a18.73,18.73,0,0,0-14.09,22.5,15.46,15.46,0,0,0,21.51,10.81c2.72-1.24.74-5.28-2-4.65Z"/><path d="M114.49,121.41c.66,5.44-1.35,9.86-3.38,14.8a37.25,37.25,0,0,0-3,13.76,63,63,0,0,0,1.54,13.61c1,4.72,1.54,10.57,4.14,14.69a2.3,2.3,0,0,0,4.25-1.15c.47-4.38-1.4-9-2.32-13.28-1.17-5.43-2.32-11-1.91-16.6.66-8.92,7.63-17.34,4.82-26.39-.67-2.15-4.44-1.9-4.14.56Z"/><path d="M132.08,181.47c1.74-2.21,2-4.56,2.77-7.27q1.41-5.23,3.29-10.31c2.27-6.06,6.81-12.63,7.41-19.07.17-1.88-2.42-2.74-3.63-1.5-4.45,4.53-6.86,13.19-8.91,19.15-1.82,5.3-5.11,13.29-2.75,18.77a1.16,1.16,0,0,0,1.82.23Z"/><path d="M115.09,121.93c1,2,3.76,2.43,5.76,2.76,2.23.36,4.7.7,6.76-.39a1.93,1.93,0,0,0-.46-3.49c-1.86-.6-3.93-.2-5.86-.51-1.73-.27-3.56-1.25-5.28-.62a1.57,1.57,0,0,0-.92,2.25Z"/><path d="M115,131.08a7.44,7.44,0,0,0,3.81,3.88c1.53.75,4.1,1.51,5.6.36a1.88,1.88,0,0,0,0-3.18c-1-.72-2.54-.67-3.7-1.12a20.62,20.62,0,0,1-3.09-2c-1.25-.75-3.18.52-2.62,2Z"/><path d="M124.55,148.41c-.83,2.59,2.78,4.08,4.66,4.7,2.94,1,6.94,1.69,9.95.75a1.86,1.86,0,0,0,0-3.56c-2.11-.77-4.53-.53-6.75-.86a20.07,20.07,0,0,1-5.91-1.82,1.35,1.35,0,0,0-2,.79Z"/><path d="M124.45,157.3c3.69,1.73,8.3,3.4,12.39,2.37a1.55,1.55,0,0,0,.36-2.8c-3.46-1.63-7.55-2.09-11.21-3.23-2.12-.66-3.62,2.68-1.54,3.66Z"/><path d="M121.6,161.82c.34,2.65,3.27,3.49,5.57,4.21a14.55,14.55,0,0,0,8.87.31,1.63,1.63,0,0,0,0-3.11c-2.52-.66-5.16-.81-7.68-1.51-2-.56-4.09-2-6.12-1a1.25,1.25,0,0,0-.64,1.12Z"/><path d="M121.71,167c-1.73,2.21.26,4.31,2.44,5.11,2.79,1,6.47,1.78,9.28.53a1.74,1.74,0,0,0,0-3,22.19,22.19,0,0,0-5.32-1c-1.26-.2-3.28-.27-4.07-1.31-.51-.66-1.68-1.14-2.33-.3Z"/><path d="M120.38,174.17c0,2.25,2.07,3.44,3.93,4.16,2.62,1,5.36,1.59,8.06.66a1.64,1.64,0,0,0,0-3.13,54.22,54.22,0,0,0-5.54-1.26,12.41,12.41,0,0,1-3.93-1.88,1.7,1.7,0,0,0-2.52,1.45Z"/></svg>