<svg id="Layer_1" data-name="Layer 1" xmlns="http://www.w3.org/2000/svg" viewBox="0 0 500 500"><defs><style>.cls-1{fill:#a05827;}.cls-2{fill:#231518;}</style></defs><title>13Artboard 1</title><path class="cls-1" d="M105.71,157.67c6.09,1.64,13.11,4.1,19.46,2.53a2.56,2.56,0,0,0,1.52-3.73c-2.27-3.46-5.78-2.74-9.41-3.29-4-.61-7.42-2.21-11.57-1.27-2.92.66-2.77,5,0,5.76Z"/><path class="cls-1" d="M102.94,152.61a6.53,6.53,0,0,0,1.66,4.4,4.29,4.29,0,0,0,4.27,1.18,2,2,0,0,0-.52-3.82c-.39,0-.06,0,.06.07l-.35-.2c.29.17-.14-.14-.19-.2-.24-.25,0,0-.13-.17a5.21,5.21,0,0,1-.28-.52c.1.25,0-.19-.07-.26a7.55,7.55,0,0,0-.55-1.53,2.14,2.14,0,0,0-2.36-1,2.16,2.16,0,0,0-1.54,2Z"/><path class="cls-1" d="M118.67,159.55a62.22,62.22,0,0,0,14.9,1.83c3.53.12,8.23.92,11-1.6a1.64,1.64,0,0,0-.32-2.54c-2.86-2.1-7.37-1-10.72-1-4.8-.07-9.57-.67-14.36-.65a2,2,0,0,0-.54,4Z"/><path class="cls-1" d="M143.49,161.84c4.25.24,8.53-.37,12.76-.77,3.19-.29,3.32-5.13,0-5.07a89,89,0,0,0-13.45.78c-3,.51-2.06,4.9.69,5.06Z"/><path class="cls-2" d="M111.05,133.94c.06.82-.16,4.23.32,4.68l4.49.41a11.35,11.35,0,0,1,.09-2,13.59,13.59,0,0,1,.47-2.08c1.32-4.61-5.36-6.22-7-1.94l-2,5.18,7.17,1a2.75,2.75,0,0,1,.91-2.94c2.51-3.27-3-7.55-5.74-4.43-2.94,3.39-5.63,6.91-5.53,11.64.1,5.15,4.84,6.41,9.16,7.55,10.67,2.81,21.86,1,32.71,2.29,4.66.54,4.62-6.76,0-7.3-11.88-1.39-25.14,1.49-36.19-4.1l1.81,3.15c-.42-3.5,1-5.51,3.21-8.06l-5.74-4.43a9.19,9.19,0,0,0-1.91,6.63,3.67,3.67,0,0,0,7.18,1l2-5.18-7-1.94c-1.14,3.95-1.83,11.92,4.25,12,5.83.11,5-7.31,4.72-11.08-.36-4.65-7.67-4.69-7.3,0Z"/><path class="cls-2" d="M119.5,137a1.73,1.73,0,0,1,.51,1.21q2.14-2.24.41-.77c3.64,0,1.52,1,2.1-1.45l-6.1,1.61a2.52,2.52,0,0,1,.56,2.66l7,1.94.13-.74c.52-3-2.42-5.84-5.36-4.12-1.52.89-1.74,2.3-1.94,3.89-.47,3.82,5.06,4.65,6.81,1.84a12.64,12.64,0,0,0,2-7.05L122,139.65h2l-2.58-1.07c4.45,5.55,9.47,10.82,17.18,10.11,4.64-.43,4.68-7.73,0-7.3-3.94.36-6.43-1.51-9-4.31a40.14,40.14,0,0,0-3-3.66c-1.38-1.2-2.87-1.07-4.58-1.07a3.7,3.7,0,0,0-3.65,3.65,5.43,5.43,0,0,1-1,3.37l6.8,1.84.09-.71-1.81,3.15,0,0-5.36-4.13-.13.74c-.79,4.58,6.19,6.58,7,1.94.72-3.89.13-6.71-2.44-9.76-1.77-2.11-5.49-.92-6.1,1.61-1.11,4.62,1.38,12.32,7.52,10.19,5.58-1.95,5.15-8.64,1.67-12.4-3.21-3.46-8.36,1.71-5.17,5.16Z"/><path class="cls-2" d="M114.73,145.08a33.78,33.78,0,0,0,13.63,3.65c4,.22,5-6.42,1-7.17a84.44,84.44,0,0,0-17.45-1.42c-4.74.12-4.65,7,0,7.3,4.15.3,9.39,1.78,13.25-.43a5.34,5.34,0,0,0,2.42-6.43c-1.06-2.88-3.55-4.15-4-7.43-.7-4.64-7.74-2.67-7,1.94a13.54,13.54,0,0,0,2.25,5.71c.26.37,1.31,2.14,1.82,2.18l1.08-2.36a2.37,2.37,0,0,1-.9.15,41,41,0,0,0-4.59-.18c-1.42-.14-2.83-.34-4.25-.45v7.3a75.35,75.35,0,0,1,15.51,1.16l1-7.17a24.6,24.6,0,0,1-9.94-2.66c-4.19-2.11-7.89,4.19-3.69,6.31Z"/><path class="cls-2" d="M125.6,141.86c3.92-.15,8.73-.35,12.45,1.09,2,.79,5,2.57,5.9-.82.79-3.14-2.84-5.31-5.31-6-4.15-1.16-8.81-.89-13-.44-3.85.41-4,6.32,0,6.16Z"/><path class="cls-2" d="M132.22,142.85c3.31.44,7.8-.6,10.65,1.7,1.74,1.41,1.78,4.36,4.72,3.71a2.78,2.78,0,0,0,2-2c2.33-9-13.17-11.13-18.47-7.61-2,1.32-1,3.88,1.13,4.17Z"/><path class="cls-2" d="M137.52,143.46c2,.51,7.1,1.41,7.85,3.75l2-3.53a4.26,4.26,0,0,1-4-2.08l-2.7,2.09c.87.87,1.93,1.45,2.81,2.32a17.84,17.84,0,0,1,2.25,3.24l2.27-4c-1.4-.16-4-.4-5-1.58l.55,2.08.17-.53-2.87,1.62a9,9,0,0,1,5.82,3.91l1.74-4.29-1.58.26c-2.91.47-2.64,5,0,5.63s6.13,2.38,8.15,0c1.71-2,.88-5.25-.05-7.47-2.23-5.32-8.67-10.09-14.64-8.39-3.36,1-3.05,5.43,0,6.52,2.11.75,4.49.55,6.51,1.61a6.67,6.67,0,0,1,2.1,1.7c.4.5,1,2.91,1.59,2.26l2.08-.86a20.92,20.92,0,0,1-4.18-1v5.63l1.57-.26a2.93,2.93,0,0,0,1.75-4.29,12.53,12.53,0,0,0-10.24-5.53,2.34,2.34,0,0,0-2.24,2.95c1.2,3.19,5.18,4.15,8.12,5.19,2.3.81,4-2,3-3.86-1.5-2.86-5.07-5.76-8.4-5.84-1.63,0-2.44,2.46-.86,3.2,1.08.51,1.91,1.88,2.73,2.68a30.48,30.48,0,0,0,2.9,2.3c2.26,1.72,4.53-1.12,4.22-3.24-.78-5.24-8.4-7.07-12.77-6.85-2.55.13-3.3,4-.62,4.62Z"/><path class="cls-2" d="M112,131.22l-.31-.16.93,1.61c-.12-.95.46-2.26.14-3.15q.3-1.78-2.11.36a5.17,5.17,0,0,0,0,1.84c.3,2.71,4.23,2.85,4.33,0-.28-2.58,1.31-3.15,4.74-1.7-.1,1.08.19,1.35.86.81l1.81-.23c-.25-.08-2.13-2.31-.93-.68.15.2,2.92,2.24,2.16,2.53l1.77.24a15.84,15.84,0,0,0,.21-2.82l-1.47,1.47c-1.12.25-.13,3.38-.08,4.15a2.27,2.27,0,0,0,4.54,0c.18-3.21.1-6.75-2.22-9.26s-6.46-3.2-9.78-3.15-7.32,1.32-9.42,4.25c-1.87,2.6-1.19,5.61,1.88,6.7a2.48,2.48,0,0,0,3-3c-.79-2.15,6.71-2.34,7.78-2.26,4,.29,4.22,3.34,4.19,6.76h4.54c-.24-2.38-.43-5.56-2.31-7.3-1.25-1.15-3.46-1.6-4.53.05s-1,5.8.21,7.46c1.45,2,4,1.33,5.23-.52,2.75-4.19-2.39-10.55-6.93-10.4-5.32.17-3.52,9.17.53,10.26,6.1,1.65,3.66-7.64,1-9.75-4.45-3.59-10,.92-7.68,6a4.06,4.06,0,0,0,7.72-2.49c-1.08-4.56-8.2-6.08-9.79-1.07-.64,2-.06,5.29,2.32,5.8s4.1-1.8,4.25-3.91c.18-2.45-1.14-5.73-4.08-5.17s-3.89,4.72-3.93,7.22h4.33c-.26-2,.27-4.1-1.5-5.54a3.16,3.16,0,0,0-4.22.09c-2,2-1.39,8,1.8,8.3,1.8.2,2.41-2.55.91-3.35Z"/><path d="M106.45,131.1c-3.24,4.36-10.56,15.46-2.31,18.57,3,1.13,4.32-3.7,1.33-4.82-1.73-.66,4.48-10.12,5.3-11.23,1.92-2.58-2.42-5.08-4.32-2.52Z"/><path d="M128.42,137c6.15,2.43,12.74-.4,18.8,1.73,4.18,1.46,9.67,9.7,5.12,13.26-2.54,2,1,5.49,3.53,3.53,5.7-4.45,2.6-12.87-1.26-17.49-6.69-8-16.49-2.54-24.86-5.85-3-1.18-4.29,3.65-1.33,4.82Z"/><path d="M101.49,149.54c5.27,5.89,16,5.93,23.32,6.91,5,.66,10,1.19,15,1.52s10.7,1,15.68-.71a3,3,0,0,0-1.6-5.79c-8.53,1.47-17.71.29-26.29-.44-7.36-.63-17.46-.28-23.77-4.54-1.9-1.28-3.75,1.48-2.35,3Z"/><path d="M102.46,151.77l.08-.86-.58.58a4.47,4.47,0,0,0,1.24-.61l-3.06-1.76a49.24,49.24,0,0,1-.18,5c-.18,1.56-.86,3.24-.28,4.75a1.79,1.79,0,0,0,2.95.78c1.33-1.22,1.38-3.16,1.56-4.86a24,24,0,0,0,0-5.68c-.4-3-4.82-2.25-4,.54a2.7,2.7,0,0,0,1.11,1.75l-.41-.72a9,9,0,0,0,.14,1.27c.13.84,1.37.58,1.41-.19Z"/><path d="M101.21,159.79c8.47,4,19,5,28.27,5.72a128.75,128.75,0,0,0,14.83.3c4.91-.19,10.66-.16,15.29-2a2,2,0,0,0-.54-4c-4.82-.36-9.9.82-14.75,1a137.09,137.09,0,0,1-13.9-.1c-9.65-.59-18.75-3.33-28.25-4.48-1.83-.22-2.58,2.73-1,3.49Z"/><path d="M157.38,152.76h-.1a1.73,1.73,0,0,0-1.53.88,6.23,6.23,0,0,0-.2,4.3c.3,1.37.07,2.29.35,3.47a1.93,1.93,0,0,0,2.31,1.31c2.4-.42,2.65-3.58,2-5.43-.32-1-.83-1.87-1.16-2.84s-.7-1.65-1.71-1.69Z"/><path d="M108.83,134.74a5,5,0,0,0,1.4-3.19c.16-1.16.32-2.59-.39-3.6a2.05,2.05,0,0,0-3.7.48,12.21,12.21,0,0,0-.09,2.84,11.57,11.57,0,0,0-.14,2.69c.2,1.44,2,1.5,2.92.78Z"/><path d="M130.89,134.21a12.39,12.39,0,0,0,0-5.11c-.5-2.59-4.61-2-4.57.62a26,26,0,0,0,.43,4.49c.41,2.09,3.64,2,4.13,0Z"/></svg>