<svg id="Layer_1" data-name="Layer 1" xmlns="http://www.w3.org/2000/svg" viewBox="0 0 500 500"><defs><style>.cls-1{fill:#231518;}</style></defs><title>14Artboard 1</title><path class="cls-1" d="M138.47,212.4c-.62-.61,1.28-6.17,1.55-7.13a56.94,56.94,0,0,1,2.75-7.56l-4.1-1.11a96.49,96.49,0,0,1-2.13,16l4.34.59c-.34-4.75-.81-9.48-1.38-14.21-.34-2.83-.41-5.68-2.28-8a2.26,2.26,0,0,0-3.52.45,64,64,0,0,0-4.24,17.14h4.68a99.32,99.32,0,0,1-.21-13.69c.19-2.57-3.82-3-4.45-.6a40.3,40.3,0,0,0-1.06,9.48c0,2.34-.31,5.27.78,7.46,1.67,3.38,6,3.9,8.13.75,1.39-2.08-1.55-3.89-3.24-2.5-.37.3-.78-6.37-.77-6.46a54,54,0,0,1,.53-7.52l-4.45-.61c.18,4.55,0,9.14.06,13.69,0,2.54,4.13,3.29,4.6.62.95-5.46,1.7-10.84,3.74-16l-3.75,1c2.08,1.62,1.59,7,1.8,9.51.27,3.16.46,6.32.61,9.48.12,2.39,3.77,3.13,4.34.59a95.37,95.37,0,0,0,2.27-17.16c.11-2.68-3.45-2.71-4.32-.58A55.08,55.08,0,0,0,135,208.91c-.39,2.59-.91,5.11,1.86,6.25,1.58.66,2.7-1.69,1.61-2.76Z"/><path class="cls-1" d="M129.17,196.62c1.34-.64.24-3.65.17-5.3-.1-2.34-3.6-3-4.21-.57-2.43,9.6,5.61,16,7.66,24.68l4.14-1.14c-2.58-6.52-7.35-12.41-7.66-19.63a2.21,2.21,0,0,0-4.42,0,50,50,0,0,0,1.85,14.86l4.17-1.76a58,58,0,0,1-4.53-16.35l-4.49.61a85.68,85.68,0,0,0,3.51,14.55,2.29,2.29,0,0,0,4.42-1.22c-1.8-7.68-3.64-15.85-.3-23.39h-4.06a19.05,19.05,0,0,1,3.79,12.28c-.33,5.7-.62-.15-1-1.69-.6-2.31-1-4.76-.17-7.08,1.69-4.55,6-2.36,6.17,1.43.06,1.66.49,7.27-2.9,6.23-1.35-.41-1.87-5-1.89-5.95q-.45-5.35,4.59.86a5.88,5.88,0,0,1-2.76,5h2.34c-2.14-1.42,2.19-8,3-8.86l-4-1.05c.25,1,1.74,10-1.08,7-1.42-1.53-.61-7.23-.08-7.88,1.06-1.29,3.24-2,4.79-2.39,3-.77,3-.27,3.5,2.61A26,26,0,0,1,140,189c-.23,2.51-1.19,6.43-3,1.4a18.33,18.33,0,0,1-1-4.46l5.22-1c1.09,1.31-2.37,5.92-3.14,7.09h3.94a9.62,9.62,0,0,1-.84-9.68l-4.16.54a10,10,0,0,1,1.46,7.87l4.26-.56a17.41,17.41,0,0,1-1.5-9.41l-4.59.63a35.13,35.13,0,0,1,.94,12.75c-.3,3.09,4.59,3.11,4.85,0a42.36,42.36,0,0,0-1.28-14c-.7-2.73-4.32-1.85-4.59.62a20.58,20.58,0,0,0,2.15,11.77A2.35,2.35,0,0,0,143,192a15.22,15.22,0,0,0-2-11.41c-.81-1.3-3.23-1.66-3.93,0-2,4.75-1.84,9.38,1.06,13.75a2.31,2.31,0,0,0,3.94,0c2.91-4.61,5.69-11.14.79-15.53-3.77-3.37-9-1.27-10.61,3.19-1.46,4.1.18,14.58,5.33,16,5.78,1.61,6.73-7.17,6.81-10.71.1-4.67,0-12.35-6.08-12.22-5.25.1-11.56,3.14-12.44,8.75-.68,4.36,1.11,13,6.89,12.81,6.71-.17,5.46-10.58,4.45-14.71a2.41,2.41,0,0,0-4-1c-3,3.3-6.91,10.85-3.47,15.14s7.52-2.12,8.32-5.16c1.24-4.69-.63-10.71-6-11.44-5.73-.78-7.76,4.52-7.24,9.31.42,3.86,3.72,12.2,8.81,10.67,5.36-1.61,5.73-10.25,5.15-14.67-.68-5.14-4.23-9.49-9.83-7s-6.82,9.15-5.75,14.54c.64,3.25,4.89,14.47,9.56,7.81,3.95-5.65.25-15.61-3.23-20.47-.9-1.26-3.29-1.78-4.06,0-3.82,8.84-2.2,17.9-.06,27l4.42-1.22a85.48,85.48,0,0,1-3.52-14.55c-.38-2.52-4.81-2-4.49.61a65.47,65.47,0,0,0,5.16,18.66c1.06,2.39,4.85.68,4.17-1.76a47.75,47.75,0,0,1-1.83-13.65h-4.42c.46,7.77,5.29,13.69,7.94,20.77a2.15,2.15,0,0,0,4.14-1.14c-1.64-7.58-9.69-14.31-7.67-22.4l-4.21-.57c.19,3.39.79,11.55,6.19,8.83,2.37-1.19.29-4.65-2.07-3.53Z"/><path class="cls-1" d="M135.77,196.73c-1.62,6.44-.36,13.58,2.43,19.54,2.61,5.57,6.82,13.29,13.87,12a4.54,4.54,0,0,0,3.24-3.24c1.4-5.57-3.86-9.54-6.38-14.08-2.68-4.85-4.43-10-6.6-15.06-1.25-2.91-5.86-1.91-6.56.86Z"/><path class="cls-1" d="M134.19,197.12c-5.8,3-4.77,12-3.19,17.36a39.85,39.85,0,0,0,10.3,16.63c4.54,4.49,12.64-1.35,9-7-2.54-4-5.86-7.6-7.49-12.08s-.23-9.46-2.6-13.36a4.51,4.51,0,0,0-6.05-1.58Z"/><path class="cls-1" d="M129.63,204.4c-2.62,4.59-1,8.89,1.13,13.4,2.37,5.08,4.82,10.2,7.57,15.08,4.76,8.43,12.67,14.21,22.69,13.24a6.07,6.07,0,0,0,5.57-4.24c2.66-7.62,2.33-18-6.64-21.16-3.34-1.19-7.31-.87-9.68,2-2.69,3.31-2,8.61-2.23,12.6l10.34-4.29a7.92,7.92,0,0,1-2.29-4.28c-.19-.73-.34-1.47-.46-2.23q0-5.07-7.94-3.44l1.82-4.39,3.74-.94-1-1.36a21,21,0,0,0-1.73-2.74,39.22,39.22,0,0,1-3.14-6.61,46.54,46.54,0,0,1-1.77-6.23c-.22-1.05-.39-2.09-.51-3.16-.06-.53-.1-1.07-.12-1.61,0-1.74-.47-1.18-1.56,1.69l-4.89.64c1.5.21,2.57,3.39,3,4.6a14.07,14.07,0,0,1,.64,2.93c.22,2-.9,2.79.48.4l3.63-2.79c2.69-.61.22-.81-1-1.79a21.32,21.32,0,0,1-3.57-3.72,24.27,24.27,0,0,1-4.14-8.59c-1.36-4.91-9.8-5.63-10.69,0-1.17,7.44-.42,15.23,1.06,22.59l8.2-4.78c-3.41-3.42-2.24-8.55-2-12.94.15-2.3.05-7.93,3.21-7.56,3.72.44,6.2,8.33,7.2,11.1,2.15,6,1.84,11.34,2.3,17.51.42,5.66,8.06,8.51,11.17,3,5.24-9.22,1.16-21-2.87-29.92-3.73-8.31-10.64-16.52-20.75-15-17.87,2.68-15.35,31.2-5.25,40.73a4.94,4.94,0,0,0,8.2-4.77c-1.38-6-.91-11.11.17-17H126.83a35.67,35.67,0,0,0,12.57,19.34c2.93,2.37,6.06,4.87,10.09,3.52,3.87-1.3,5-4.9,4.94-8.62,0-7.19-3.7-17.91-11.36-20.27a8,8,0,0,0-9.83,4.39c-1.64,3.65-.62,8,.1,11.79a53.44,53.44,0,0,0,10.32,22.64c2.58,3.31,5.84,5.86,10.28,4.95a7.81,7.81,0,0,0,6.21-7.82c-.41-8.51-12.36-9.92-16-2.83-3.47,6.7.49,17.41,5.68,22.15a6.14,6.14,0,0,0,10.35-4.28l.09-4.42,0-1.76q.41-3.91-4.18,2.63c-.08.21.69,1.23.63,1.62a27.81,27.81,0,0,1-1.28,5.39l5.56-4.24c-7.24.7-10.72-3.67-13.85-9.63-3.28-6.27-7.1-12.41-8.48-19.36-.84-4.26-7-4.71-9.06-1.18Z"/><path class="cls-1" d="M136.3,183.38c3.1.71,6.57,1.67,7.89,5,2.9,7.25,13.95,4.66,12-3.3-2.34-9.47-12.81-15.14-22-12.15l5,11.77c7.11-3.41,20.71,51,22,57.4l6.45-8.47c-3.43.36-5.33-1-6.69-4.15-2.49-5.79-12.36-2.86-11.88,3.22.78,9.73,8.89,15.57,18.37,13.75,7.32-1.41,5.38-12.59-1.72-12.7-7.67-.12-10.08-8.49-13.2-14.17-3.26-5.93-11.55-1.69-10.4,4.38,2.35,12.36,11.32,24.85,25.32,22.49l-3.44-12.47a1.56,1.56,0,0,1-2.18-1.28l-12.52,1.7A17.37,17.37,0,0,0,167.54,247c4.47-.49,7.42-3.86,6.45-8.47A252.12,252.12,0,0,0,159.89,193c-2.5-6-4.72-13.61-9.84-17.94s-11.73-4.34-17.46-1.56c-6.54,3.18-2,14.05,5,11.77,2.81-.93,5.65.07,6.64,3l11.35-4.79c-3.66-6.94-11.37-11.45-19.24-9.45-4.51,1.15-4.65,8.21,0,9.28Z"/><path d="M120,197.23c-.91,5.13,2.45,10.82,4.34,15.48A178.52,178.52,0,0,0,132,229.16c4.26,8,12.69,19.46,23.19,17.6,1.9-.34,2.27-3.37.55-4.2-4.17-2-8.18-3-11.71-6.27s-5.92-7.34-8.14-11.46-4.18-8.2-6.13-12.36-5.87-10-5.7-14.7c.09-2.25-3.58-2.83-4-.54Z"/><path d="M149.8,175.88a129,129,0,0,1,21.12,63.49c.19,3.2,5.19,3.22,5,0a134.07,134.07,0,0,0-21.81-66c-1.76-2.67-6.09-.17-4.31,2.53Z"/></svg>