<svg id="Layer_1" data-name="Layer 1" xmlns="http://www.w3.org/2000/svg" viewBox="0 0 500 500"><defs><style>.cls-1{fill:#c11e2a;}.cls-2{fill:#0f090b;}</style></defs><title>16Artboard 1</title><path class="cls-1" d="M194.73,241.46c1.5-3.19,1.55-7,2.26-10.42s2.32-7,2.16-10.6a1.62,1.62,0,0,0-3-.81c-2.28,3-2.76,7.41-3.41,11-.6,3.35-1.5,7.15-.59,10.48a1.42,1.42,0,0,0,2.56.34Z"/><path class="cls-1" d="M196.21,244.46c1.56-4.25,3.13-8.49,4.4-12.84l-3.6-.49A55.43,55.43,0,0,1,196,242l4.28.58a94.32,94.32,0,0,1,2.17-13.68l-3.23-.44c0,3,0,6,0,9,0,1.73.1,3.37,1.53,4.53a2,2,0,0,0,3.21-.85l.35-1c.45-1.31-1.13-2.25-2.2-1.69l-1,.5,2.33.3c-.92-1.05-.6-4.14-.68-5.4-.11-1.79-.21-3.58-.3-5.38a1.66,1.66,0,0,0-3.24-.43A63,63,0,0,0,196,242.62c-.35,2.75,4.07,2.79,4.36,0a84.75,84.75,0,0,0,.37-11.49,1.84,1.84,0,0,0-3.6-.48c-1.5,4.26-2.69,8.62-3.89,13-.55,2,2.34,2.71,3,.84Z"/><path class="cls-1" d="M198,242.78l0-.07a1.54,1.54,0,0,0-.69-1.7,1.72,1.72,0,0,0-1.74,0,1.61,1.61,0,0,0-.72,1.76c.32,1.47,2.06,1.76,3.26,2.2,1.74.65,3.51,1.18,5.26,1.76,1.5.49,3.19-1.47,2.18-2.83-.79-1-1.4-2.46-2.83-2.74a1.07,1.07,0,0,0-1.33,1c0,.93.64,1.75.57,2.7L204.4,243c-2.49-.74-5.34-2-8-2.11l1.14.47-.13-.12.24,1.89.06-.09-1.33.76h.12l-1.45-1.1,0,.07a1.5,1.5,0,0,0,2.86,0Z"/><path class="cls-1" d="M201.21,244.18l.56.47a1.53,1.53,0,0,0,2.58-1.07,103,103,0,0,0-.66-12.28c-.25-3.44,0-7.05-.75-10.41a1.1,1.1,0,0,0-2-.26c-2.15,3.19-1.34,7-1,10.67A105.33,105.33,0,0,0,201.38,244l1.86-1.86-.69-.25a1.39,1.39,0,0,0-1.34,2.31Z"/><path class="cls-1" d="M205.63,244c1.41-4.57,1.46-10.34.92-15.07-.24-2.1-.84-4.09-1.28-6.15-.56-2.53-.49-5.17-1.4-7.59a1.21,1.21,0,0,0-2-.53c-3.08,3.26-1.11,7.8-.16,11.66,1.44,5.88.14,11.82,1.17,17.68.26,1.47,2.37,1.24,2.75,0Z"/><path class="cls-1" d="M196.86,234.87c.9-6,4-11.07,6-16.67l-2.8-.77c-1.36,4.94-3.42,9.68-5.23,14.47h3.35a20.11,20.11,0,0,1,1.7-12.54l-3.37-.91a114.48,114.48,0,0,1-.37,17.07l2.22-1.69c-1.59-.51-2.18-7.72-2.23-8.46a28.83,28.83,0,0,1,.76-8.68,1.93,1.93,0,0,0-3.72-1,32.87,32.87,0,0,0-1.67,15.7c.26,1.92,3.46,2.9,3.82.51.69-4.59-1.19-9.21-1.06-13.92.18-6.09.82-12.21,5.17-16.85l-3.38-2a28.09,28.09,0,0,0-1.08,3.92,1.09,1.09,0,0,0,1.81,1.05,26.08,26.08,0,0,0,2.65-3c1.54-2-1-4.82-2.86-2.86-3.57,3.8-5.26,8.33-5.93,13.46a62.27,62.27,0,0,0-.48,9.84c.09,3,1.86,6.36,1.41,9.3l3.82.52a31.44,31.44,0,0,1,1.5-14.68l-3.72-1a32.6,32.6,0,0,0-.25,13.52c.61,2.95,1.28,7.07,4.51,8a1.77,1.77,0,0,0,2.22-1.69c.46-5.7.46-11.36.48-17.07a1.82,1.82,0,0,0-3.37-.91,21.14,21.14,0,0,0-1.93,15.28,1.75,1.75,0,0,0,3.35,0c1.48-4.89,2.75-9.89,4.68-14.62.68-1.66-1.76-2.31-2.66-1.12-3.87,5.12-6.14,11-5.78,17.47.08,1.27,2.17,1.75,2.39.32Z"/><path class="cls-1" d="M190.46,219.29a26.2,26.2,0,0,1-.71,4.82l3.4-.44c-2.5-5.25-2.55-14.25-.59-19.71a21,21,0,0,1,5.13-7.5c1.12-1.11,5.36-5.8,6.83-5.81a1.5,1.5,0,0,0,1.43-1.88l-.11-.54a1.93,1.93,0,0,0-1.84-1.4c-3.16,0-6.35,3.25-8.54,5.26a26.51,26.51,0,0,0-6.92,9.24c-2.88,7-2.68,17.74,1.4,24.21.9,1.43,3.67,1,3.46-.93a28.66,28.66,0,0,1,.06-5.32c.13-1.93-2.83-1.9-3,0Z"/><path class="cls-1" d="M194,220.28c-.19-4.33-.16-8.42,1.25-12.59s4-7.31,6.34-10.91l-3.36-.91c-.07,4.14-2,7.9-3,11.85a52.15,52.15,0,0,0-1.33,9.64h3.43c-.22-6-1-17,5.33-20.61l-2.09-.27c1.08.88-1.86,11.51-2.14,12.92A72.85,72.85,0,0,0,197,220.09h4a43.87,43.87,0,0,1,4.72-19.3l-3.56-.47c.61,2.69-1.09,6.39-1.78,9q-1.16,4.37-2.34,8.72l4,1.1a74.69,74.69,0,0,1,4.25-15l-3.87-.53a49,49,0,0,1-2.73,12.79l3.75.51a94,94,0,0,1,1-13.92c.3-2-2.64-2.87-3.05-.84A100.35,100.35,0,0,0,199.63,217c-.1,2.21,3.13,2.51,3.75.51a71,71,0,0,0,3-13.81c.25-2.41-3.1-2.37-3.87-.52A74.52,74.52,0,0,0,198.07,218c-.49,2.58,3.35,3.72,4,1.1.92-3.8,1.88-7.59,2.84-11.39.74-2.95,1.72-5.48,1.06-8.46a2,2,0,0,0-3.56-.47,47.65,47.65,0,0,0-5.4,21.27c-.05,2.6,4,2.59,4,0,.13-6.11,1.63-12,2.43-18,.29-2.16,1.51-6.33-.44-8a1.8,1.8,0,0,0-2.09-.27c-7.94,3.58-7.5,16.66-7,23.58a1.72,1.72,0,0,0,3.43,0c.27-7.34,3.06-13.9,4.43-21,.27-1.4-1.25-3-2.65-2-7.72,5.44-10.74,17.57-8.06,26.37.47,1.56,3,1.34,2.94-.4Z"/><path class="cls-1" d="M200.59,208.51c3.67,4.11,11.11,3.52,16.13,3.42,6-.11,13.93-.33,19-3.79a1.39,1.39,0,0,0-.7-2.57c-5.41-.53-11,1.36-16.48,1.64s-11.28.5-16.55-1.15c-1.48-.47-2.35,1.42-1.43,2.45Z"/><path class="cls-1" d="M201.29,206.61a73.84,73.84,0,0,0,19.91,2.71c6.77.16,13.9-1.35,20.52.36,4.71,1.22,7.52-5.32,3.31-7.86a49.34,49.34,0,0,0-29.23-7.23c-1.42.11-2.84.28-4.24.5-1.05.16-2.08.36-3.11.6q-3,0-.52,2.62l-1.3,3.12c3-3.76,12.17-3.45,16.37-2.73l1-7.3c-7.74.78-15.55,1-23.32,1.53l3.24,5.63c2.44-4.48,6.19-5.62,10.91-6.33l-.95-7c-6,.35-11.4,1.71-16.35,5.28l4.81,4.8c3.53-6.46,10.94-6.2,17.41-7,7.49-1,13.47-1.41,18.53,4.93,2.19,2.75,6-.32,5.4-3.15-2.08-10.3-15-10.18-23.09-9.09-9.58,1.29-19,1.64-24.31,10.81-1.69,2.9,1.81,6.85,4.8,4.81a21,21,0,0,1,12.8-4.16c3.95.12,5-6.46.95-7.06-7.24-1.07-14,3.14-17.38,9.48-1.24,2.33.26,5.85,3.23,5.63,7.76-.56,15.54-1.33,23.32-1.58,4.32-.14,4.88-5.88,1-7.3a26.42,26.42,0,0,0-19.9.56c-4.59,1.94-9,7.21-3.62,11.43,2.36,1.86,5,1.45,7.72.77a42.89,42.89,0,0,1,10.57-1.7,36.88,36.88,0,0,1,20.94,6.66l3.31-7.86c-6.31-2.36-13.38-.88-19.95-.87-7.3,0-14.48-.93-21.75-1.32-4.36-.23-5,6.2-1,7.41Z"/><path class="cls-1" d="M212.68,191.68c9.41.95,18.92,6,27.27,10.13,4.69,2.32,7.77-4.77,2.81-6.65-3.55-1.35-12.57-3.87-14.13-7.77l-1.23,3c3.54-2.1,10.56,4.25,11.87,6.85l1.81-4.46c-2.61.37-5.87-.91-8.37-1.61-1.4-.39-6.72-2.81-6.9-1.33l-2.33,3.06c3.47-1.18,7.79,1.67,10.77,3s6.13-2.12,3.61-4.68c-3.63-3.7-11-6.41-16.06-4.46a3.37,3.37,0,0,0-2.33,3.06c-.33,4.07,4.55,5,7.51,6,5,1.6,10.44,3.56,15.72,2.84,2.09-.28,2.58-2.93,1.82-4.47-3-6.12-14.19-13.32-20.34-8a2.69,2.69,0,0,0-.42,3.23c1.43,2.27,3.26,3.21,5.51,4.62a95,95,0,0,1,9.94,7.18l4.41-5.72C235,191,222,184.1,212.06,187.14c-2.6.8-1.91,4.29.62,4.54Z"/><path class="cls-1" d="M213.51,184.47l-1.09-.59-2.28,4c8.71-1.8,18.51-2.28,26.68,2,7.37,3.85,10.33,10.22,12.91,17.7,1.44,4.19,8.35,3.81,8.12-1.1-.49-10.27-8.47-20-17.53-24.29a41.33,41.33,0,0,0-17.15-3.66c-5.47-.07-12-.13-16.2,3.9-3.28,3.19,2.23,7.85,5.12,3.95l.85.19c1-.05,1.66-1.61.57-2.11Z"/><path class="cls-1" d="M240.75,198.67c3.29,2.25,4.94,5.16,6.31,8.83l4.12-4.11c-1.4-.24-4.05-3.87-4.48-4.59-1.49-2.52-5-.76-4.5,1.9a25.9,25.9,0,0,0,2.59,7.39l3-5.18c-8.12-.89-16.5-1.67-24.66-1.12-5.4.36-5.5,8.68,0,8.49,10-.36,19.95.5,29.9.59,3.88,0,4.52-5.55.9-6.66-9.7-3-20.78-1.48-30.8-2.42v8.49c8.21.11,16.44-.46,24.66-.48,2.81,0,4.76-3.87,2.43-5.88a10.3,10.3,0,0,1-3.25-4.53l-4.5,1.9c2.39,3.13,2.68,7.41,7,8.55a3.38,3.38,0,0,0,3.78-4.91c-2.25-4.37-6.19-7.38-10.59-9.41a1.83,1.83,0,0,0-1.84,3.15Z"/><path class="cls-2" d="M206.56,214.31c8.87,1,17.92,1.1,26.84,1.38q6.57.21,13.13.31c4.16.06,8.72.54,12.78-.49,2.54-.64,2.7-4.75,0-5.3-3.89-.79-8-.32-12-.33-4.65,0-9.29-.08-13.93-.18-8.91-.19-17.94-.78-26.84-.26a2.44,2.44,0,0,0,0,4.87Z"/><path class="cls-2" d="M205.15,214l1.08-.43-2.85-2.17c0,6.14.76,12.31,1.27,18.43.44,5.35-.05,12,2,17,.68,1.6,3.25,2.06,3.74,0,1.33-5.59-.32-12.28-.81-18-.51-6-.84-12.1-1.82-18.06-.44-2.67-4.2-1.74-4.42.6l-.11,1.17a1.5,1.5,0,0,0,1.88,1.43Z"/><path class="cls-2" d="M210.2,246.35c-1.36-2.23-4.08-2.28-6.46-2.7s-4.49-.77-6.69-1.38-4.12-1.71-6.43-2-2.74,2.58-1.63,3.92c2.88,3.44,9,3.71,13.14,4.27,2.61.35,5.75,1.17,7.89-.68a1.21,1.21,0,0,0,.18-1.44Z"/><path class="cls-2" d="M191.43,242.61c.47-2.1.78-4.24,1.21-6.35s1.11-3.92,1-5.95c-.08-1.23-1.82-2.33-2.75-1.14-2.6,3.31-3.29,8.82-3.25,12.93,0,2.13,3.31,2.69,3.8.51Z"/><path class="cls-2" d="M193.14,231.14c-3.67-9.94-4.89-20.93-1.55-31.18,3-9.09,11.19-14.94,19.89-18,9.85-3.45,22-2.71,31.12,2.53,10.13,5.81,12.85,17.37,14.41,28.28.52,3.69,6.12,2.12,5.6-1.55-1.85-13-5.68-25.56-17.82-32.06-10.8-5.79-24.61-6.4-36-2.08-9.61,3.65-18.34,10.22-22,20.14a38.22,38.22,0,0,0-2.16,18.29c.83,5.77,1.39,13,6.15,17,1,.82,2.88.07,2.35-1.37Z"/></svg>