<svg id="Layer_1" data-name="Layer 1" xmlns="http://www.w3.org/2000/svg" viewBox="0 0 500 500"><defs><style>.cls-1{fill:#c11e2a;}.cls-2{fill:#231518;}</style></defs><title>6Artboard 1</title><path class="cls-1" d="M136.47,116.59l-.75-.22,2.47,1.89c.91,1.33,3.92-2.31,4.67-2.87a30.81,30.81,0,0,1,5.37-3.17,34.49,34.49,0,0,1,6.18-2.06,28.88,28.88,0,0,1,3.34-.62c1.77-.08,2.08-.12.91-.13l-2.31-4-.08,1,1.35-3.27c-5.45,5.93-14.1,9.57-20.87,13.75l4.79,8.18a178.3,178.3,0,0,1,24.74-14.12l-6.3-4.84c-.68,2.23-6.88,4.89-8.69,5.93-3.33,1.9-6.76,3.55-10.25,5.14-4.57,2.08-1.33,9.78,3.43,8.15,6.8-2.33,13.54-4.71,20.47-6.65l-5.44-3.09.19.66.44-3.38c.49-.86-1.82.85-2.58,1.22-1.36.67-2.74,1.28-4.14,1.86a71.59,71.59,0,0,1-8.16,3l4.24,1.12-.32-.35c-2.34-2.48-7.53-.71-7.16,3l.05.46a4.62,4.62,0,0,0,3.19,4.2c4.35,1.76,11.46-2.81,15.28-4.75,4-2,8.58-4.1,7.49-9.32-.5-2.43-3.22-3.55-5.43-3.08a99,99,0,0,0-21.55,7l4.5,7.7c4.64-2.51,9.42-4.82,13.94-7.54,3.7-2.23,7.65-4.54,8.78-9a4.35,4.35,0,0,0-6.31-4.85c-8.39,4.47-16.68,9.14-25.2,13.35-5.43,2.69-.62,11.07,4.79,8.18a140.65,140.65,0,0,0,12.32-7.37c3.39-2.27,7.73-4.8,10.3-8,2-2.51,2-6-.55-8.12-3-2.41-7.56-1.48-11-.9a35.2,35.2,0,0,0-20.73,11.91c-2.13,2.6-3.93,5.86-2,9.13a5.34,5.34,0,0,0,7.55,1.86,3.84,3.84,0,0,0-.91-6.93Z"/><path class="cls-1" d="M150.13,131.68c5.87-1,12.22-5,16.74-8.78a14.56,14.56,0,0,0,4.73-6.09,11.65,11.65,0,0,0,.68-3.8c0-.84-.8-2.84-.63-3.53L170,111.57c-1.53,1.15-2,2.73-3.29,4.07a18.67,18.67,0,0,1-3.54,2.56,47.44,47.44,0,0,0-6.15,4.07c-2.1,1.76-.16,4.56,2,4.82,5.73.69,11.11-3.53,13.88-8.31,2.26-3.89,3-10.19-1.4-13a4.74,4.74,0,0,0-5.76.23c-2.29,1.93-1.32,4.82-2.62,7.19-1.61,2.92-5.43,5-8,6.93s-5.72,3.79-8.13,6.16.13,5.85,3.1,5.34Z"/><path class="cls-1" d="M158.51,129.43c10-1.05,23.76-12.15,19.2-23.61-2.29-5.78-9.26-7-14.78-7.32-6.37-.4-16,.26-20.9,4.66a3.9,3.9,0,0,0,1.71,6.48c3.93.93,7.45-.55,11.33-1.25,2.72-.49,10.85-2.22,13.35-.17,5.59,4.58-8.14,14-11.38,15.79-2.4,1.32-1.47,5.73,1.47,5.42Z"/><path class="cls-1" d="M153.92,100c-8.8,1.06-22.18,4.09-24.29,14.35-.92,4.45-.82,9.81,3.12,12.75,4.51,3.37,11.85,3.33,17.23,3.18v-9.07c-3.94.25-8,1.55-12,1.27-1.44-.1-3.67-.32-4.63-1.65-1.48-2.08.57-3.5,2.11-4.68,4.29-3.3.65-10.3-4.38-7.49-6.73,3.76-5.93,12.81-.19,17.08,7.19,5.34,19.17,5.67,27.64,4.73l-3.84-6.7c.8-1.45-4-.6-4.71-.56l-6.41.4c-6.06.37-6,10,0,9.41,4.26-.41,8.57-.67,12.81-1.24,2.58-.34,4.69-1.08,6-3.52,1.44-2.68-.29-7.09-3.84-6.69a55.86,55.86,0,0,1-14.5.06c-.95-.14-12.78-3.19-8.57-5.48l-4.38-7.49c-5.93,4.25-10.09,10.79-4.91,17.52,5.93,7.72,15.63,4.6,23.81,4.1,5.78-.35,5.87-9.24,0-9.07-3.14.09-7,.42-10-.68-2.76-1-2.88-4.27-1.36-6.67,2.92-4.62,10.91-8.08,16-9.27,2.51-.59,2-4.91-.62-4.59Z"/><path class="cls-2" d="M114.37,168.47c-5,3.14-.48,7.83,3,9.58,3.81,1.89,11,4.93,14.86,2,1.28-.95,2.07-3.09.56-4.33-2.2-1.81-4.57-1.65-7.23-2.31a22.8,22.8,0,0,1-4.07-1.41c-.63-.3-1.25-.62-1.85-1-1.41-1.13-1.62-.43-.65,2.09,1.47-2.88-1.61-6.6-4.66-4.67Z"/><path class="cls-2" d="M122,170.27c-1.36-6.66,3.62-11.43,6.13-17.05,2.31-5.17,1.57-12.29,5.37-16.65l-6.46-2.68a37.83,37.83,0,0,1-3.14,20.72c-2.45,5.17-5.49,9.8-3.85,15.72.4,1.43,2,3,3.63,2.77,5.42-.68,9.7-3.51,10.87-9.11l-7.15-2c-1,4.8-3.44,11.07-.1,15.29,1.88,2.37,5.56.77,6.34-1.68s1.45-4.87,2-7.35l-7.43-1-.29,7.43,5.68-3.26a18.56,18.56,0,0,0-11.25-2.72l1,7.39c6-2.46,9.14-7.29,10.5-13.53.8-3.62,1.14-7.33,1.86-11,.37-1.86,1.3-10,3.17-10.64l-4.69-2.66c2,6.75-2.1,16.51-4.17,23-1.38,4.29,4.76,6.57,7.05,3,4.76-7.46,10.34-16.65,11.61-25.54.53-3.67-4.5-6.71-6.55-2.76s-3.28,8.4-5.17,12.5a105,105,0,0,1-6.55,11.9l7,3c2.55-8,6.59-18.64,4.09-27.06a3.87,3.87,0,0,0-4.7-2.66c-6.05,2-6.93,8.72-8.1,14.24-1.25,5.9-.73,18.21-7.41,21-3.54,1.47-3.65,7.73,1,7.4a11.73,11.73,0,0,1,7.44,1.71,3.82,3.82,0,0,0,5.68-3.26l.3-7.43c.18-4.24-6.43-5.15-7.42-1-.6,2.48-1.28,4.92-2.06,7.35l6.33-1.67c.47.59,1.38-4.56,1.34-4.32.26-1.54.48-3.07.69-4.62.54-4.11-6.56-5.1-7.29-1-.36,2-1.46,3.61-3.72,3.56l3.63,2.76c-1.14-5.29,4.54-12.1,6-17.22a44.48,44.48,0,0,0,1.3-17.22c-.33-2.92-4.08-5.41-6.45-2.67-5.47,6.3-4.67,15-8.57,22.16-3.12,5.71-6.73,13.54-.86,18.8a2,2,0,0,0,3.28-1.91Z"/><path class="cls-2" d="M150.69,138.92l-.61,1.58.11-.12a3.93,3.93,0,0,0,.5-.64,2.65,2.65,0,0,0-.41-3.16,3,3,0,0,0-3.57-.45,3.19,3.19,0,0,0-1.54,2.79,2.76,2.76,0,1,0,5.52,0Z"/><path d="M154.4,132c-5-1.64-10.62-.32-15.79-1.67s-11.16-5.35-11-11.41c.26-11,17.43-17.28,26.11-18.93,5.32-1,13.77-2.12,18.68.77s5,9.68,2.5,14.29c-5.27,9.69-18.86,13.51-28.31,17.58-2.21,1-1.13,4.87,1.24,4.6,8.29-.94,17-4.88,23.77-9.66,5.52-3.86,10.19-9.36,11.21-16.21.92-6.16-1.65-12.91-7.19-16.1-6.45-3.72-15.78-2.83-22.77-1.58-12.28,2.19-32.78,11.28-31.54,26.66,1.18,14.56,22,20.91,33.58,15.26,1.62-.79,1-3.11-.47-3.6Z"/><path d="M114.25,172.79c1.62-1.84,1.66-4.8,2.56-7.1,1.69-4.34,3.23-8.74,4.82-13.13,1.51-4.18,3-8.38,4.57-12.55,1.28-3.42,3.14-6.48,2.27-10.14a2.06,2.06,0,0,0-3-1.22c-2.91,1.9-3.57,4.75-4.75,7.91-1.55,4.13-3,8.3-4.48,12.45-1.55,4.39-3.23,8.75-4.67,13.17-1,3-1.88,5.92-1,9.07a2.4,2.4,0,0,0,1.7,1.7c.62.12,1.46.41,2-.16Z"/><path d="M134.39,181.28c3.2-1.93,4-5.46,4.92-8.9,1.34-5.15,4.11-8.62,7.2-12.83a57.8,57.8,0,0,0,6.8-12.1c1.66-4,4.58-9.78,2.82-14-.71-1.73-2.76-2.59-4.26-1.13-2.86,2.79-3,7.23-4.34,10.9a68.71,68.71,0,0,1-7,13.89c-2.19,3.35-4.73,6.37-6.05,10.21s-2.25,7.87-3.16,11.66a2.1,2.1,0,0,0,3,2.34Z"/></svg>