<svg id="Layer_1" data-name="Layer 1" xmlns="http://www.w3.org/2000/svg" viewBox="0 0 500 500"><defs><style>.cls-1{fill:#231518;}.cls-2{fill:#c11e2a;}.cls-3{fill:#892935;}</style></defs><title>7Artboard 1</title><path class="cls-1" d="M139.73,148.51c-3.06-7.31-1.82-16.09-1.73-23.84.05-3.75-.44-8.14.52-11.81a10.36,10.36,0,0,1,2.75-4.72,11.22,11.22,0,0,1,2.79-2q2.77,0,1.67-2.15a2.23,2.23,0,0,0,3.34,1.91l.47-.28a2.53,2.53,0,0,0,1.15-2.82c-1.46-3.55-4.89-3-8-1.68a15.36,15.36,0,0,0-9.09,11.15c-1.24,6.34-.31,13.46-.25,19.89.07,6.14,0,12.24,3.17,17.7,1,1.65,4,.53,3.2-1.35Z"/><path class="cls-1" d="M141.16,106.06a11.44,11.44,0,0,1,10.5-1.51,6.78,6.78,0,0,1,3.64,3.37c.69,1.43.54,3,1.44,4.28a1.73,1.73,0,0,0,2.67.34c4.8-4-1.91-11.3-5.85-12.87-4.36-1.74-14.68-1.47-15.35,4.7a2,2,0,0,0,2.95,1.69Z"/><path class="cls-1" d="M156.48,106.35c2.88,9.53,5.72,17.77.14,27-4.39,7.28-8.09,13.93-9.93,22.36-.62,2.83,3.6,4,4.37,1.2,1.44-5.32,2.92-10.48,5.67-15.31,2.29-4,5-7.8,6.35-12.24,2.41-7.72,1.09-18.16-3.94-24.58-1-1.29-3.1.11-2.66,1.55Z"/><path class="cls-1" d="M134.46,145.11c0,3.84,1.69,7.67,2.94,11.27a2,2,0,0,0,3.88-.52c.44-4.14-.57-7.91-1.27-12-.89-5.21-.8-10.43-1-15.68-.09-1.87-3.06-2.5-3.44-.47a42.14,42.14,0,0,0-.08,13.86c.66,4.78,2.31,9.39,1.88,14.25l3.88-.53c-1.31-3.57-2.25-7.71-4.45-10.84a1.24,1.24,0,0,0-2.3.62Z"/><path class="cls-1" d="M142,111.72c.05-2.57,1.12-3.61,2.92-5l-4.3-1.79a18.77,18.77,0,0,1-2.05,7l4.45,1.88a17.94,17.94,0,0,1,5.94-7.72l-4.18-1.73a19.16,19.16,0,0,1-2.91,10.4l4.74,1.29c0-2,0-6.19,2.26-7.13q1.6-2,1,1.4a6.63,6.63,0,0,1-1.16,3.58l2.27,1.3a7,7,0,0,1-.76-4.71c.38-1.63.28-1.91-.28-.86,1.35.13,2.62,2.57,2.94,3.6s0,3.23.71,3.16a48.67,48.67,0,0,1,.9-5.42l-4.2,1.11a9,9,0,0,1,3.55,6.54c.1,1.57-.33,5.74-2.16,6.05l2.46.65c-.88-.7-1-4.31-1-4.87,0-1.11-.43-6.47,2-4.24,2.13,2,0,8.31-1.89,9.53l3.49,1.42a13.39,13.39,0,0,1,0-11.26h-4.24c1.78,2.9,3.2,8.77.38,11.75-3.8,4-3.48-1-3.47-2.75a19,19,0,0,1,1.91-8l-4.36-.57a11.66,11.66,0,0,1-3.48,11l4.33,1.14A22.94,22.94,0,0,1,147,115.9h-4.92a18.41,18.41,0,0,1-.74,11.81l4.49-.59a22.82,22.82,0,0,1-3.1-14.35l-4.75.64a24.66,24.66,0,0,1,.14,18.7l4.49-.58a20.1,20.1,0,0,1-3.42-15.07l-3.06,1.73c1.68.57,1.68,15.58,1.84,17.61.26,3.18,5.1,3.28,5,0q-.1-6.21.2-12.41L140,125.84c1.77.55-.09,14-.32,15.27l5.05.68A19.75,19.75,0,0,1,149,128.3l-4.42-1.83a16.22,16.22,0,0,1-4,12.66l4.28,2.49a44.09,44.09,0,0,1,2.67-7.31c.38-.77,2.66-4,2.47-4.42-1.41-3.26-2.53,2.23-2.6,2.42a26.82,26.82,0,0,1-3.55,6.36l4.63,2a27.79,27.79,0,0,1,7.29-13.48l-4.2-1.74a33.08,33.08,0,0,1-4.55,13l4.16,2.43c2.13-4.82,4.31-9.52,8-13.36l-4.13-1.71a13.76,13.76,0,0,1-4.65,10.55l4.11,1.7a11.89,11.89,0,0,1,1.83-8.17l-3.89-1.64a31.78,31.78,0,0,1-6.35,13.8l4.13,1.71a10.91,10.91,0,0,1,2.75-7.56L149.34,134a127.34,127.34,0,0,1-3.72,16.13h4.52a14.76,14.76,0,0,1-.26-7.41l-4.38-.59a21.74,21.74,0,0,1-2.59,13H147a17.88,17.88,0,0,1-1.14-12h-4.79a11.84,11.84,0,0,1-1.27,10.48l4.32.56a16.53,16.53,0,0,1,0-14l-4.45-1.2a71.16,71.16,0,0,1,0,9.12l4.72-.64A30.33,30.33,0,0,1,142.55,136l-4.71.63a31,31,0,0,1,.68,18.24l4-1.05-.13-.84-4,1.05c2.1,1.65,4.12,3.72,6.63,4.69a2.29,2.29,0,0,0,2.31-.61l.27-.31a2.5,2.5,0,0,0,.37-2.88l-.16-.31c-1.39-2.72-5.49-.32-4.1,2.4l.16.31.37-2.88-.27.31,2.31-.61c-1.59-.62-3.18-2.42-4.52-3.48s-3.48-.83-4,1a5.21,5.21,0,0,0,1.35,5.48,2.41,2.41,0,0,0,4-1.05,35.48,35.48,0,0,0-.66-20.78,2.41,2.41,0,0,0-4.71.64,33.37,33.37,0,0,0,2.06,12.71,2.41,2.41,0,0,0,4.72-.63,73,73,0,0,0-.07-9.12c-.16-2.13-3.38-3.56-4.45-1.21A21.49,21.49,0,0,0,139.8,156c.73,1.72,3.25,1.35,4.08,0a17.18,17.18,0,0,0,2-14.18,2.5,2.5,0,0,0-4.79,0,21.23,21.23,0,0,0,1.84,15.73,2.39,2.39,0,0,0,4.09,0,29.57,29.57,0,0,0,3-15.37c-.17-2.39-3.77-3.18-4.38-.59a20,20,0,0,0,0,9.84,2.36,2.36,0,0,0,4.52,0c1.36-5.37,2.37-10.79,3.43-16.21.4-2-2.06-3.85-3.67-2.14a15.91,15.91,0,0,0-4.48,10.67c-.12,2.63,3.21,3,4.51,1.22a35.48,35.48,0,0,0,6.65-15.6c.38-2.26-2.59-3.85-3.88-1.64a20.27,20.27,0,0,0-3,10.32,2.43,2.43,0,0,0,4.1,1.7,18.23,18.23,0,0,0,6.08-14,2.44,2.44,0,0,0-4.12-1.7c-4,4.15-6.44,9.11-8.75,14.34-1.22,2.77,2.54,5.16,4.16,2.43a38.88,38.88,0,0,0,5.23-14.79c.31-2.26-2.21-4.32-4.12-2.4a32.41,32.41,0,0,0-8.7,15.62,2.55,2.55,0,0,0,4.63,1.95c2.08-2.89,9.49-15.1,3-17.33-6.11-2.1-10.23,12.53-11.33,16.37-.68,2.36,2.57,4.46,4.28,2.49a21.43,21.43,0,0,0,5.51-16.28c-.16-2-2.89-3.75-4.42-1.83a25,25,0,0,0-5.73,17.15c.12,2.75,4.53,3.68,5,.69.91-5.22,3.65-19.4-3.29-21.54a2.58,2.58,0,0,0-3.22,2.45q-.28,6.21-.16,12.41h5c-.46-5.41-.6-11-1.38-16.34-.42-2.94-1.22-5.06-4.17-6.06a2.5,2.5,0,0,0-3.06,1.74,25.14,25.14,0,0,0,4,18.86,2.48,2.48,0,0,0,4.48-.58,28.55,28.55,0,0,0-.21-21.29,2.43,2.43,0,0,0-4.75.64,28,28,0,0,0,3.7,16.84c1.14,2,3.75,1.27,4.49-.59a23,23,0,0,0,.92-14.48,2.57,2.57,0,0,0-4.92,0,26.16,26.16,0,0,0,.7,15.27A2.62,2.62,0,0,0,147.1,131,16.76,16.76,0,0,0,151.52,115c-.42-1.87-3.53-2.48-4.36-.57-2,4.67-6.17,21.74,4.11,20.24,9.32-1.36,9.12-15.31,5.43-21.29-.88-1.43-3.45-1.76-4.24,0a18.29,18.29,0,0,0-.11,15.57,2.39,2.39,0,0,0,3.25.85c5.09-3.42,6.33-12,2.83-17.08-1.43-2.09-4.12-3.53-6.61-2.26-3.26,1.67-3.66,6.73-3.68,10,0,2.65.06,7.51,2.91,8.84,2.35,1.1,4.36-.69,5.62-2.52,3.94-5.73,2.4-13.94-2.84-18.25a2.56,2.56,0,0,0-4.21,1.11c-1,3.36-2.66,10.36,1.21,12.65,3.63,2.14,6.63-1.73,7.25-5a11.71,11.71,0,0,0-4.53-11.37c-3.09-2.24-6.88-2.37-8.17,1.72-1,3.19-1.12,10.84,3.31,11.48s6.46-5.43,6.5-8.82c.05-3.72-2.09-8.73-6.66-7.51-5,1.32-6.74,8.95-7,13.24-.18,2.59,3.52,3.35,4.74,1.28a24.13,24.13,0,0,0,3.41-13,2.47,2.47,0,0,0-4.17-1.73,23.81,23.81,0,0,0-7.18,9.89c-1,2.55,3.19,4.3,4.46,1.87a26.49,26.49,0,0,0,2.88-9.48c.21-1.79-2.35-3.29-3.79-2.17a8.87,8.87,0,0,0-3.4,9.48c.42,2,3.49,1.5,3.53-.48Z"/><path class="cls-1" d="M140.63,150.37l-.18-.32a2,2,0,0,0-2.17-.88c-2.92.44-3,4.71-3.59,7-.9,3.73-2.59,8.22-1.42,12a2,2,0,0,0,3.74,0c.7-2.81.91-5.75,1.54-8.6l.72-3.32c.13-.6.35-3.44.81-3.76a1.57,1.57,0,0,0,.55-2.09Z"/><path class="cls-1" d="M136.75,148.65c-2.94,1.49-3.07,6-3.69,8.87-.9,4.14-3.12,9.54-2.31,13.8,1.27,6.67,11.17,7.4,16.29,9.32,2.06.77,3.84-2.32,2.17-3.74-3.65-3.09-10.9-2.13-12.81-6.62-1.23-2.91.25-6.5.87-9.55.44-2.15.39-7.4,2-8.87,1.76-1.65-.48-4.23-2.48-3.21Z"/><path class="cls-1" d="M147.4,178.9c4.42,1.63,8.53-4.2,8.87-8.07.26-3-1.58-5.17-2.91-7.66-1.14-2.11-2.52-5.86-1.28-8.27q-1.37-1.46.45,1.49-.85,5-1.75,2.52c-.55-1.17-2-1-2.84-.37l-.65.51a2.38,2.38,0,0,0-.63,2.35c1.24,4.67,6.83,4.38,9.35.81s1.43-9.85-2-12.56c-4.2-3.31-6.6,2.11-7.08,5.54a15.83,15.83,0,0,0,1,8.39,35.9,35.9,0,0,0,2.47,4c1.19,2,2.11,7.52-2.46,7.41-2.35-.05-2.52,3.14-.53,3.88Z"/><path class="cls-1" d="M153.05,158.53l.17-1-.4.69.11-.09L150,156.93c0,.22,0,.24,0,.08a3.59,3.59,0,0,1-.08.35c0,.18-.1.36-.15.54-.11.4.12-.12-.11.23a3.21,3.21,0,0,1-.19.31c.11-.13.09-.11-.05.05a2,2,0,0,0,0,2.7,1.92,1.92,0,0,0,2.69,0,5.5,5.5,0,0,0,1.28-4.72,1.73,1.73,0,1,0-2.89,1.68l.11.09-.4-.69.16,1a1.41,1.41,0,0,0,2.69,0Z"/><path class="cls-1" d="M141.66,156.83l.13-.19-3.83-1c-.06,2.13,0,4.26,0,6.39,0,.52-.26,2.23,0,2.64.61.86,2-.13,2.71-1.11l-4.06-1.1c-.16,2.94-.25,5.86-.32,8.8-.07,3.19,4.57,3.06,4.88,0q.28-2.85.56-5.7c.31-3.08-4.51-3.06-4.82,0s-1,8.1,3.67,8c4.41-.09,4.71-5,3.91-8.13-.66-2.64-4.53-2-4.62.62a20.17,20.17,0,0,0,2.11,9.81c.95,2,3.74,1.21,4.35-.56,1.71-5-.8-9.38-1.16-14.36l-4.61,1.25c1.8,2.68,6.07,7.75,5.25,11.29l1.67-1.67c1,.2.7-.07-1-.8a6,6,0,0,1-1.44-1.86c-.17-.33-1.6-4.83-.87-5.15,1.09-.47,2,2.53,2.28,3.32A11.81,11.81,0,0,1,147,169c.22,2,.27,2.4.16,1.17-3-.65-3.3-7.15-3-9.28l.22-1.36c1.1-1.37,1.06-1.79-.13-1.24.57,2.22.93,3.48.05,5.72l4.2-.55a10.15,10.15,0,0,1-1.57-6.56l-4.49.61a23.45,23.45,0,0,1,.59,5.21c0,3.12,5,3.1,4.83,0,0-.86-.13-1.63-.25-2.48-.24-1.61-3-2-3.6-.47a23.93,23.93,0,0,0-.89,2.31l4.74.64a28.63,28.63,0,0,0-1-6.43c-.71-2.58-4.32-1.91-4.49.61a14.67,14.67,0,0,0,2.17,8.88,2.33,2.33,0,0,0,4.2-.55C150,162,150,154.4,145.43,153.4s-5.75,5.46-5.72,8.49c0,4.79,1.49,11.1,6.65,12.85,5.46,1.85,5.64-4.47,4.62-8.06s-4.34-9.68-9-7.56c-4.31,2-2.42,10.16-.46,13.22,1.44,2.23,6.33,6.47,8.67,2.95,1.27-1.92,0-5.43-.67-7.31a38.47,38.47,0,0,0-4.68-8.32c-1.26-1.83-4.84-1.41-4.61,1.25.37,4.29,2.91,8.85,1.52,13.09l4.35-.57a14.42,14.42,0,0,1-1.51-7.41l-4.63.63c1.35,5.58,1.67-.06,1.78-1.13H137q-.3,2.85-.62,5.7h4.88c0-2.94-.08-5.86-.2-8.8-.07-1.68-2.47-3.14-3.72-1.54-1.84,2.36-4.21,10.27,1.47,9.7s3.53-11.69,3.3-15a2.07,2.07,0,0,0-3.83-1l-.12.2c-1.35,2.32,2,4.17,3.54,2.07Z"/><path class="cls-1" d="M148.73,170.37l-.51.6c-1,1.1-.73,3.16.92,3.5a4.17,4.17,0,0,1,1.79.81l1.08-3.95a26,26,0,0,1-6.48-.08c-1.59-.22-3.7-1.27-3.26-3.26a2.17,2.17,0,0,0-3.6-2.09c-2.58,2.29-.41,6.71,1.8,8.54,2.77,2.29,8.29,1.54,11.54,1.13a2.14,2.14,0,0,0,1.07-3.95,6.79,6.79,0,0,0-2.82-1.19l1.25,3.08.39-.69c1.1-1.93-1.62-4.23-3.17-2.45Z"/><path class="cls-1" d="M140.17,103.17a30.76,30.76,0,0,1,2.41-2.49c1.6-.7,1.67-1.09.19-1.19a1.45,1.45,0,0,1,1.41-.74c1.72-.47,3,.59,4.58,1s4.69.56,3.82,3l3.74-.49c-1.54-2.84-3-5.16-6-6.61-3.3-1.57-6.95-1.58-10.53-1.41l.64,4.78c3.7-.57,10.19-3.18,11.24,2.39a1.59,1.59,0,0,0,2.88.38c1.69-3.36,0-6.52-3.3-8-3.9-1.73-8.16-.1-12.11.52-2.71.43-2.07,4.93.65,4.79s5.41-.41,7.94.35c2.75.83,3.73,2.46,5.06,4.86a2.07,2.07,0,0,0,3.74-.49c2.47-7-10.17-10.81-11.43-4.72-.56,2.71,2.42,5.69,5.07,4.84,3.22-1,2.82-5.18,1-7.29-2.29-2.63-6.68-2.82-9.79-1.6s-4.34,4.81-1.76,7.19c2.22,2.07,6.33,2.26,8.23-.32,1.59-2.15.94-5.61-1.75-6.53-3.32-1.14-8.36,3.13-9.45,6.06-.93,2.51,1.73,5.35,4,3.33a1,1,0,0,0-.43-1.62Z"/><path class="cls-2" d="M136.93,145.84c1,2.28,5,3.07,6.83,1.52,1.24-1,.11-2.75-1.19-2.87-.69-.07-1.34.23-2,.11a9.79,9.79,0,0,1-2-.83c-1.27-.51-2,1.09-1.59,2.07Z"/><path class="cls-2" d="M141.32,147c.07-5.46-1.72-11.12,1.37-16.08l-3.86-1c.63,4.78.73,9.74,1.7,14.45l3.49-1c-.72-1.72-.4-3.56-.61-5.35-.15-1.27-2.18-1.86-2.46-.34-.35,1.87,0,3.87-.42,5.69-.65,2.52,3.39,3.16,3.55.48.27-4.58-.57-9.42-1.1-14a2.09,2.09,0,0,0-3.86-1c-3.68,5.67-2.15,12.44-.52,18.54a1.39,1.39,0,0,0,2.72-.37Z"/><path class="cls-2" d="M142.33,135.36c.85-5.9,2.35-11.85,3.74-17.65l-3.66-.49c-.66,5.43-1.34,10.87-2.08,16.3L144,134a156.42,156.42,0,0,1,2.7-22.52,2.36,2.36,0,0,0-2.86-2.85c-3.32.56-3.59,3.29-5.89,5.24l3.89,1a5,5,0,0,1-.09-5c1.21-1.61-.46-3.69-2.15-3.76L134,106l1.72,4.14c1.73-1.81,5.58-3.33,7.81-1.34l-.52-2-3.76,1,1.67,2.9q.72-2.73,2.43-.9c1.48.32,1.78,1.18.88,2.58,0,1.32-.41,2.89-.51,4.21-.14,1.87,2.6,2.06,3.14.42,1-3.06,3.37-9.61-.34-11.94-3.29-2.07-7.07,1.13-8.94,3.69a1.94,1.94,0,0,0,1.67,2.9c2.91-.27,6.43-.78,7.65-3.78a2,2,0,0,0-.52-2c-3.67-4.44-10.36-2.13-14.09.76-1.82,1.4-.15,4,1.71,4.14l5.59.35-2.16-3.75c-2,2.87-1.37,5.64-.09,8.72a2.37,2.37,0,0,0,3.89,1c1.21-1,2.25-3.75,3.84-4.06l-2.86-2.85A186.67,186.67,0,0,0,140.27,134c-.06,2.43,3.41,2.28,3.69,0q1-8.16,2.11-16.3c.31-2.3-2.88-3.36-3.59-1a59.32,59.32,0,0,0-2.3,18.35c0,1.19,2,1.56,2.15.29Z"/><path class="cls-3" d="M154.76,122.42a9.78,9.78,0,0,1,.34-1.87l-3.9-.53a63,63,0,0,0,0,8l2.45-1.87c-1.29-.25,1.45-4.85,1.6-5.6a1.55,1.55,0,0,0-2.24-1.73c-1.68.79-2.64,3.33-3,5a5.36,5.36,0,0,0,1.74,5.52c1,.91,3,.66,3.24-.85a42.54,42.54,0,0,0,.17-8.52c-.08-2.84-4.46-2.36-3.9.53a7.8,7.8,0,0,0,1,2.53,1.32,1.32,0,0,0,2.44-.66Z"/><path class="cls-3" d="M152,130.46a2.06,2.06,0,0,1,1.28-.65c.61-.13,1,.19.3-.21l-1-1.67,0,.35.56-1.37-.53.15c-.54,1.65-.43,2.28.33,1.91.2,0,.66-.14.92-.12s1.07.48,1.12.46l.56-1.66a2.79,2.79,0,0,1-.9.12,3.86,3.86,0,0,1-1.17-.18,2.29,2.29,0,0,1-.84-.38l-.43.9a24,24,0,0,0,2.9-1.12l1.09-.84c.47.11.52,0,.16-.32a2.93,2.93,0,0,1-.27-1c-.21-.6-.06-.87.46-.81.33.4.62.38.86-.08l1.34.56c-.43-.35-.09-1.1-.41-1.5l-.82-.36a4.37,4.37,0,0,1,.06,1,7.56,7.56,0,0,1-1.34,3.4,1.88,1.88,0,0,0,2.93,2.27c2.26-2,3.69-7.67.7-9.68a3.33,3.33,0,0,0-4.06.53c-1.4,1.34-1.34,3.45-.83,5.18,1.21,4.08,6.5,2.17,5.77-1.71-.67-3.6-6-4.78-7.89-1.46-1.47,2.64.11,8,3.78,7.53a2.49,2.49,0,0,0,2-3.1,3.81,3.81,0,0,0-3.87-2.91,8,8,0,0,0-5.14,1.83c-1.41,1.4-.7,3.32.71,4.38,2,1.47,8.89,2.56,8-1.76-.74-3.62-7.3-4.25-9-1.12-2.29,4.33,6.9,5.65,7,.85a1.92,1.92,0,0,0-1-1.67c-2.31-1.27-5.89.45-6.47,3a1.62,1.62,0,0,0,2.95,1.24Z"/><path d="M135,102.41c-1.89,2.17-1.46,5.49-1.66,8.2-.39,5.07-.85,10.17-.8,15.25.07,7.23-.64,18.88,4.52,24.63a1.38,1.38,0,0,0,2.32-1c.29-3.49-1.13-7.13-1.58-10.61a68.54,68.54,0,0,1-.44-12.15c.18-3.59.42-7.17.67-10.76.16-2.47-.36-9,.73-10.69,1.48-2.25-2-5-3.76-2.9Z"/><path d="M136.08,146.74a87.82,87.82,0,0,0-4.63,13.1c-1,3.34-3.19,8.22-2.23,11.78.73,2.72,3.24,4,5.6,5,4.55,2.05,9.85,4.43,14.89,4.61a1.88,1.88,0,0,0,.94-3.47c-2.65-1.52-5.56-2.19-8.43-3.2-1.49-.52-3-1.06-4.43-1.65-3.23-1.33-3.74-2.63-3.47-5.83.53-6.34,3.71-12.77,5.07-19,.41-1.9-2.39-3.35-3.31-1.4Z"/><path d="M151.55,180.35c2-2.18,5.44-4.3,6.45-7.23.52-1.5-.05-2.7-.67-4-1-2.1-1.31-4.61-2.67-6.47a1.44,1.44,0,0,0-2.65.72,9.38,9.38,0,0,0,.78,4.47c.71,2,1.86,3.19.46,5.22s-4.23,3.63-4.24,6.21a1.54,1.54,0,0,0,1.92,1.46,1.35,1.35,0,0,0,.62-.34Z"/><path d="M153.11,165c3.59-1.13,6.23-3.71,5.49-7.67a13.47,13.47,0,0,0-2.81-5.58c-1.19-1.57-2.33-3.44-4-4.56a1.12,1.12,0,0,0-1.67,1c-.13,2.22,1.65,4,3,5.67.84,1.06,2.16,2.51,2.31,3.93.23,2.19-2,3.24-3.59,4.22s-.58,3.62,1.28,3Z"/><path d="M154.2,149.93c.57-8.93,8.45-15.72,10.33-24.35,1.81-8.34-3.27-17.07-5.63-24.9-1-3.45-6.11-2-5.36,1.48,1,4.59,3,8.56,5,12.72,2.68,5.33,2.4,10.24.17,15.7s-10,13.31-7.55,19.75a1.54,1.54,0,0,0,3-.4Z"/><path d="M137.75,104.3a10.85,10.85,0,0,1,.95-3.93,11.34,11.34,0,0,1,2.86-2.88c1.61-1.38-.1-4.26-2.08-3.58-3.72,1.29-6.76,6.49-5.46,10.39.56,1.65,3.37,2,3.73,0Z"/><path class="cls-1" d="M136.74,104.28a2.05,2.05,0,0,0-.81.16.65.65,0,0,0,0,1.11,1.89,1.89,0,0,0,.81.16.72.72,0,0,0,0-1.43Z"/><path d="M135.1,145.43l-.42-.49c-1.74-2.05-5,1.17-3,2.95a15.89,15.89,0,0,0,7.34,3.63c2.36.46,5.51.94,7.35-.91a1.63,1.63,0,0,0-.33-2.55c-1.83-.93-3.88-.38-5.86-.77a16.27,16.27,0,0,1-6-2.68l-2.1,3.6.59.26a2,2,0,0,0,2.35-3Z"/><path d="M134.69,146.19c-1-6.95-2.68-13.66-3.07-20.73a49,49,0,0,1,.34-10.34c.58-3.68,2.42-6.91,3-10.51a2.14,2.14,0,0,0-3.55-2.07c-5.25,4.77-5.07,14.78-4.71,21.28a100.2,100.2,0,0,0,1.41,11.83c.66,3.69,1.13,8.23,3.14,11.46a1.89,1.89,0,0,0,2.51.66l.34-.17a1.27,1.27,0,0,0,.57-1.41Z"/><path d="M134.05,104.84c.2,1.62,3.37.35,4.53.21s2.39-.29,3.59-.35c2.54-.12,5,.7,7.48.22,1.45-.28,1.58-2.06.79-3-2.29-2.77-6.84-2.24-10.07-1.9s-7.26.44-9.6,2.82a2.13,2.13,0,0,0-.32,2.5,2.53,2.53,0,0,0,1,1c1,.63,2.78-.17,2.61-1.5Z"/><path d="M147.34,149.76c2.38-7.24,1.52-15.81,2.5-23.36.88-6.81,4.27-15.48,2.32-22.29a2.51,2.51,0,0,0-1.74-1.75l-1-.22a1.8,1.8,0,0,0-2.25,1.72c.58,7.62-1.54,15-2.44,22.54-.88,7.28-2.39,16.31.18,23.36a1.26,1.26,0,0,0,2.41,0Z"/><path class="cls-2" d="M139.15,122.59c-.64-1.81,1.95-4.74,3.15-5.8l-3.84-1c.23,1.09-.79,3.09-1.09,4.09-.42,1.35-.84,2.7-1.24,4-.77,2.57,2.76,3.82,4.16,1.76,1.5-2.22,2.67-4.61,3.94-7l-3.85-1.62c-1,2.66-1.83,5.4-2.67,8.13-.54,1.73-.81,3.56,1.1,4.54a2.06,2.06,0,0,0,2.08,0l.29-.2a1.82,1.82,0,0,0,.36-2.84q.36,1.18.48.18l.4-1.37.66-2.28c.49-1.68,1-3.34,1.37-5,.51-2.23-2.74-3.86-3.86-1.63a35.69,35.69,0,0,1-3.88,6.33l3.81,2.21c1-3.2,3.08-7.18,2.37-10.58a2.32,2.32,0,0,0-3.84-1c-2.65,2.48-5.22,7-3.47,10.55,1,2,4.32.59,3.57-1.5Z"/><path class="cls-2" d="M135.59,120.35a6.34,6.34,0,0,1,3.94-4.65l-2-2.62a8.56,8.56,0,0,1-.93,1.64c-.21.24-.54.4-.72.63l-.38.21c.89,1.27,1.3,1.57,1.22.88.05,0,.23-.57.34-.69s.67-.34.78-.57l-1.95-2.05-.24.39c-.31.23-.36.45-.76.52l2.17.58c0,.69.12.9.35.63a5.59,5.59,0,0,1,.63-.57c.58-.23.44-.44-.4-.61,0,.16,0,.31.07.47-.1.58.09,1.26,0,1.87a11,11,0,0,1-.68,2.08c-.89,2.23,2.79,3.76,3.88,1.63s1.66-5.46.5-7.82-4-2.39-6-1-3.68,4.09-1.75,6.28,4.85-.12,6-2c1.31-2.23.29-5.2-2.64-4.71a6.07,6.07,0,0,0-4.68,5.33c-.1,2.93,2.31,4.39,4.89,3.11a6.37,6.37,0,0,0,3.68-5.32,1.8,1.8,0,0,0-3.33-.9c-.8,1.22-2,2.16-2.79,3.41a7.84,7.84,0,0,0-1.27,3.86c-.08,1.41,2,1.32,2.14,0Z"/><path class="cls-2" d="M134,121.81c-2.05,1.4-.75,4.76-.08,6.65a31.13,31.13,0,0,1,1.55,4.57c.39,2,0,3.87,1.24,5.61.57.82,2.09.86,2.32-.3a16.85,16.85,0,0,0-.6-7.62c-.76-2.57-2.09-4.87-2.16-7.61a1.52,1.52,0,0,0-2.27-1.3Z"/><path class="cls-2" d="M134,134.79a81.45,81.45,0,0,0,2.39,8.55c.53,1.6,3.23,1.44,3.09-.42a9.58,9.58,0,0,0-1.63-5c-.74-1.16-3.08-.86-2.87.78a34.29,34.29,0,0,0,1.27,5.9,1.7,1.7,0,0,0,3.27-.9,11.65,11.65,0,0,0-.91-3.34,1.66,1.66,0,0,0-3.2.88,8.38,8.38,0,0,0,2.69,5.11l1.23-3c-5.69-.38-2.08-26.4-.8-30.09.58-1.65-1.44-2.94-2.82-2.17-2.62,1.45-3,3.78-3.29,6.61a99,99,0,0,0-.26,14.61c.32,6.33-1,14.63,7.17,14.51a1.76,1.76,0,0,0,1.23-3,4.3,4.3,0,0,1-1.95-3.53l-3.2.88a18.36,18.36,0,0,1,.84,3.36l3.27-.9c-.6-1.8-1.07-3.57-1.51-5.41l-2.82,1.19,1.15,3.42,3.09-.42c-1-2.79-1.91-5.61-2.82-8.43a1.35,1.35,0,0,0-2.61.72Z"/><path class="cls-2" d="M136.66,143.05a86.29,86.29,0,0,1-.74-16.77c.11-3.13-.91-15.74,3.75-16.14l-2.34-3.06c-1.72,8.19-1.76,16.43-1.81,24.78l3.9-1.06a15.05,15.05,0,0,1-3.14-7.28l-3.84,1.62a53.55,53.55,0,0,1,2.89,5.83c.79,1.63,3.43.82,3.37-.91a12.24,12.24,0,0,0-2.63-7,2.11,2.11,0,0,0-3.84,1.62,18,18,0,0,0,3.57,8.27c1.19,1.56,3.88,1.2,3.9-1,.08-7.93.41-15.76,2.3-23.49a2.45,2.45,0,0,0-2.33-3.07c-7.2.28-8,7-8.17,12.77-.26,8.76.12,17.23,3.29,25.5a1,1,0,0,0,1.87-.52Z"/><path d="M147.28,118.62c3.94,2.1,13.08,3.33,16.07-.8a1.55,1.55,0,0,0-.92-2.25c-2.16-.81-4.56.28-6.82.38a55.79,55.79,0,0,1-7.41-.7c-1.81-.18-2.44,2.56-.92,3.37Z"/><path d="M146.38,132.67l.11.34a2.2,2.2,0,0,0,1.53,1.53c4.1.75,10.37.71,13-3.08a1.77,1.77,0,0,0-1.51-2.64c-2.89,0-5.56,1.54-8.54,1.54-1.23,0-5.52-.35-4.63,2.31Z"/></svg>