<svg id="Layer_1" data-name="Layer 1" xmlns="http://www.w3.org/2000/svg" viewBox="0 0 500 500"><defs><style>.cls-1{fill:#c11e2a;}.cls-2{fill:#231518;}</style></defs><title>8Artboard 1</title><path class="cls-1" d="M122.68,103.7a12.53,12.53,0,0,1,5.35-1.53L126.73,99c-1.19,1.49-2.24,3-3.3,4.63s1.08,3.77,2.74,2.74c1.89-1.18,3.78-2.37,5.69-3.53l-3-2.28-1.94,5.25c-.69,1.88,1.59,3.05,3.07,2.36a42.8,42.8,0,0,0,7.18-4.38l-2.75-2.12a15,15,0,0,1-2.76,5.48,3.5,3.5,0,0,0-.68,3.49c1.19,2.81,4.72,1.59,6.57.21a1.53,1.53,0,0,0-.76-2.82c-1-.1-2.26.39-3.14.06l1.48,1.48c-.12-.32,1.52-2.72,1.66-3a23.24,23.24,0,0,0,1.24-3.87,1.89,1.89,0,0,0-2.75-2.12,56.22,56.22,0,0,1-7.4,4l3.07,2.36,1.82-5.29a2.05,2.05,0,0,0-3-2.29c-1.88,1.21-3.77,2.39-5.66,3.58l2.74,2.73c1-1.44,1.91-2.88,2.74-4.41.6-1.1-.13-3-1.6-2.78a13.71,13.71,0,0,0-7.2,2.83c-1.42,1.12.39,3.13,1.85,2.4Z"/><path class="cls-1" d="M121.81,105.45c.29,4.28,6.09,7.5,9.55,9.21,4.08,2,10.23,4.41,14.71,2.73a1.53,1.53,0,0,0,0-2.92c-4.27-1.78-8.94-1.55-13.27-3.7-3.35-1.67-6.23-5.57-9.83-6.2a.93.93,0,0,0-1.16.88Z"/><path class="cls-1" d="M130.21,106.91c-.58,5,4.7,8.33,8.49,10.52,3.63,2.09,9.24,5,13.35,2.92a1.9,1.9,0,0,0,.84-2.08l-.09-.55a1.24,1.24,0,0,0-1.5-.86c-3.49.69-7-.86-10.09-2.42-2.88-1.46-7.83-4-8.29-7.53a1.36,1.36,0,0,0-2.71,0Z"/><path class="cls-1" d="M137.64,109.89c.41,5,6.11,8.6,9.84,11.41a1.75,1.75,0,0,0,2.56-1c1-6.07-7.59-11.06-11.53-14.35a1.78,1.78,0,0,0-3,1.24,10.91,10.91,0,0,0,3.37,8.87c1.78,1.79,4.27-.85,2.72-2.73a69.7,69.7,0,0,0-10.16-9.94,2,2,0,0,0-3.12,2.42l5.48,10.1,3.45-2a46.05,46.05,0,0,0-5-7.2c-1-1.25-3.35-3.37-3.92-4.76q-1.83.94.57.39a12,12,0,0,1,3-.08,16.47,16.47,0,0,1,6.74,2c1,.57,3.57,3.51,4.23,3.36-2.87.61-6.55-5.39-7.53-7.21l-2.34,3a17,17,0,0,1,11.18,8.87l1.8-3.14c-1.77-.09-2.69-3-3.74-3.77-.59-.45-2.6-2.12-.46-.06,2.47,2.36,4.5,4.38,5.79,7.66l3.48-2-1.58-4.91h-3.6c1.1,4.19,2.24,8.36,3.52,12.49a1.91,1.91,0,0,0,3.69-1c-1.1-4.2-2.33-8.33-3.61-12.47-.5-1.65-3.24-1.91-3.6,0a10.07,10.07,0,0,0,2.23,8.84c1.25,1.61,4.26-.14,3.49-2-1.58-3.83-7.69-13.8-13.09-11.56a2.08,2.08,0,0,0-1.45,1.91c-.08,4.49,4.24,10.89,8.93,11.11a2.12,2.12,0,0,0,1.81-3.15,21.26,21.26,0,0,0-13.68-10.75,2.09,2.09,0,0,0-2.34,3c2,3.82,7.71,11.11,13,9.51s.4-8.3-2.07-10.11a20,20,0,0,0-9.21-3.6c-2.07-.27-7-.82-8.63,1-1.46,1.64-.71,3.43.29,5,2.58,4.1,6.3,7.24,8.66,11.55,1.23,2.26,4.68.25,3.45-2l-5.49-10.09-3.13,2.41A85.16,85.16,0,0,1,138.89,116l2.72-2.73a7.25,7.25,0,0,1-2.59-6.14l-3,1.24c2.46,2.09,11,7.71,10.58,11.4l2.63-1.5c-2.83-1.92-8.43-5.06-9.13-8.74a1.26,1.26,0,0,0-2.47.34Z"/><path class="cls-1" d="M134.79,100.85c3.56,1.54,7.61.64,11.35,1.9a14.08,14.08,0,0,1,5.86,3.51c1,1.08,4,5.13,2.29,6.59a1.48,1.48,0,0,0,.3,2.31l.58.3a2,2,0,0,0,2.33-.3c3.65-4.21-.61-10.44-4.2-13.23-4.48-3.47-13.4-5.88-18.51-2.75-.56.34-.71,1.37,0,1.67Z"/><path class="cls-1" d="M138.59,102.8a29.43,29.43,0,0,1,8,3.49c2,1.34,7.17,4.88,5.74,7.84l3-.39c-1-.83-2.07-1.49-3.16-2.23s-2.09.62-1.56,1.57,1.05,2,1.71,3a1.94,1.94,0,0,0,3.31,0c2.76-4-1.1-8.37-4.14-10.85A24.88,24.88,0,0,0,139,99.72c-1.8-.24-2,2.59-.41,3.08Z"/><path class="cls-1" d="M147.55,105.26l-.46-1.11L145,105.78c2.63,1.75,4.71,3.81,5.54,7a7.25,7.25,0,0,1,.34,2.22c.65,0,.72-.22.22-.65-1-1.62-1.79-2.88-1.64-4.88l-3.41.93a17,17,0,0,1,2,3.75c.16.45.44,2.7.79,2.06a67.27,67.27,0,0,1-6.7-3.76c-1.11-1-2.94.26-2.12,1.64a22.62,22.62,0,0,0,11.74,9.18c3.59,1,9.26,0,9.89-4.39a1.47,1.47,0,0,0-2.44-1.42c-3.23,3-5.92,3-9.72.71a37.4,37.4,0,0,1-7.35-5.72l-1.64,2.13c2.84,1.85,5.89,5.2,9.35,5.69a2.16,2.16,0,0,0,2.28-.92c2.38-3.1-1.34-8.73-3.24-11.17-1.07-1.37-3-.1-3.12,1.29a11.62,11.62,0,0,0,3.05,8.53c1.58,1.56,4.37,1.91,5.55-.36s-.12-6.23-1.22-8.36a12.41,12.41,0,0,0-7.07-6.11c-1.76-.59-2.56,2.28-.77,2.78l1.23.33c.54.16,1.24-.4,1-1Z"/><path class="cls-1" d="M142.93,120c4,1.79,18,5,17.28-3.65a3.4,3.4,0,0,0-4.6-3.07c-3.27,1.07-3.72,4.88-3.73,7.8,0,1.93,2.53,2,3.17.42s1.18-3,1.84-4.47l-3.17-.42c.49,1.25,1,2.47,1.58,3.69.77,1.7,3.45.81,3.42-.92a24.36,24.36,0,0,0-4.23-12.79L153.1,109a5.55,5.55,0,0,1,4.88,2.67,7.21,7.21,0,0,1,.19,5c1.22,1.73,2.66-2.25,2.79-3,.5-2.89-1.33-5.12-3.88-6.13-1.47-.58-2.76,1.37-2,2.6,2,3.21,6.27,4.17,5.32,8.8-.5,2.39,3.13,3.43,3.68,1a8.84,8.84,0,0,0-.6-6.27c-1.26-2.45-3.94-3.14-5.34-5.34l-2,2.61c2.39.89-1.84,7.1.43,9.22,1.84,1.72,3.91.19,4.78-1.61,2.82-5.81-1.4-13.66-8.24-12.84-1.07.13-2.19,1.32-1.39,2.43a18.55,18.55,0,0,1,3.34,11.16l3.42-.93c-.51-1.07-1-2.13-1.58-3.18a1.75,1.75,0,0,0-3.17.42c-.54,1.67-1.17,3.31-1.78,5l3.17.43c0-.82-.08-2.29-1-2.7-.66-.29-2.6.21-3.4.17a22.6,22.6,0,0,1-6.6-1.34c-1.61-.58-2.76,2.09-1.17,2.79Z"/><path class="cls-2" d="M153.61,156.08a10.61,10.61,0,0,1,1.93-6.12l-1.68-1.3c-3.1,3.76-4.24,8.49-4.15,13.3l3.54-.48c-1.21-4.74-1.24-9.56-1.17-14.42a1.66,1.66,0,0,0-3.25-.44,50.23,50.23,0,0,0-2.54,12.55c-.09,1.76,2.33,2.23,3.19.86.28-.46.56-.91.86-1.36a1.53,1.53,0,0,0-2.4-1.85L146.79,158l2.86,1.66A92.38,92.38,0,0,1,152,147.5l-3.26-.44c-.21,5.17-.33,10.33,1,15.38.51,1.92,3.67,1.59,3.54-.48-.26-4.36.82-8.23,2.34-12.26.43-1.14-1.39-1.88-2-.82a13.55,13.55,0,0,0-1.76,7.2.84.84,0,0,0,1.68,0Z"/><path class="cls-2" d="M137.86,122.41l.1-1L136.88,124l.55-.66-6.93-.9c3.2,4.54,6.56,8.32,8.06,13.84s1.19,11.28,2.29,16.84c1,5.08,8.88,3.8,8.88-1.2,0-12.38-2.41-27.76-13.19-35.51-3.56-2.56-8.47,2.49-6,6a6,6,0,0,0,3.63,2.79c2,.62,3.54-1,3.73-2.85Z"/><path class="cls-2" d="M135.64,126.47c-4.92,3.5-1.86,9.4.17,13.82,2.25,4.91,5,14.35,10.84,15.73A3.07,3.07,0,0,0,150.3,154c1.85-4.54-2.15-9.56-4.17-13.48-1.23-2.39-2.57-4.71-3.86-7.06-1.07-1.94-1.53-4.13-2.77-5.93-.81-1.16-2.54-2-3.86-1Z"/><path class="cls-2" d="M142.52,128.66c2.27,3.87,4.39,7.38,5.18,11.88.83,4.68.37,9.42,1.12,14.08,1,5.95,11.13,1.78,7.49-3.16-2.57-3.48-2.54-10-2.63-14.26s0-.43,0,.14c0,2.34.18,4.83-.53,7.1l2.11-2.74-.77.57h4.58c-1.62-.78-4.45-3.22-5-5-1.14-3.77,1.68-1.86,2.07.11.79,4-.64,8.23,1,12,.91,2.15,4.13,4,6,1.59,5.42-6.93,3.36-24.6-8.1-23.86-12.32.8-7.9,17.12-1.45,22.25a4.71,4.71,0,0,0,5.5.71c4.49-2.7,3.82-8.9,3.27-13.49-.49-4.17-2.63-9-7.41-9.42-13.11-1.16-1.07,19-5.08,23.43l6.84,4c2-9.92-.49-24.64-9.73-30.42-2.8-1.76-6.08,1.7-4.47,4.46Z"/><path class="cls-2" d="M156.19,130.42a93.83,93.83,0,0,1,1,17.56c-.33,4.86-3.46,10.9-.89,15.32a3.31,3.31,0,0,0,4.41,1.16c5.05-2.33,5.12-10.74,5.57-15.61a82.21,82.21,0,0,0-.63-19.7c-.77-5.29-10.06-4.1-9.42,1.27Z"/><path class="cls-2" d="M153.91,145.2c-2,2.86-2.18,5.94-2.28,9.33s-.91,7.52.38,10.7c1.84,4.5,8.09,3.93,8.52-1.15a67.34,67.34,0,0,0-.11-8.16c-.09-2.49-.69-5.61-.2-8.06a3.47,3.47,0,0,0-6.31-2.66Z"/><path class="cls-2" d="M146.8,147.67c-4.12,6.87-1.8,15.41,4.63,20,4,2.89,8.31-3.27,5.12-6.63a20.82,20.82,0,0,1-6-12.39,2,2,0,0,0-3.73-1Z"/><path class="cls-2" d="M144.13,149.46c-3.13,1.91-2.61,6.54-1.48,9.53a17.22,17.22,0,0,0,3.14,5.1,40.87,40.87,0,0,0,3.46,4c2.11,1.88,5.93,1.33,6.63-1.75,1-4.21-1.67-6.65-4.3-9.48-2-2.19-2.33-5.88-4.87-7.44a2.54,2.54,0,0,0-2.58,0Z"/><path class="cls-2" d="M145.74,159.45c-.47,3.44-2.31,6.74-1.08,10.22,1.16,3.27,5.3,6.8,8.77,4.27a4.13,4.13,0,0,0,1.81-4.45c-.45-1.84-2-2.85-2.83-4.33-.95-1.77-1-3.8-1.52-5.71-.67-2.31-4.77-2.76-5.15,0Z"/><path class="cls-2" d="M145.78,165.22a25.19,25.19,0,0,0,3.33,11.39c1.75,3.08,5.72,7.17,9.47,4.29,2.89-2.22,2-6.65-1.88-6.92-.69,0-.71,0,0,0-.28-.41-.57-.82-.86-1.22-.67-1-1.37-1.87-2-2.85-1.2-1.92-2.34-3.91-3.47-5.88s-4.67-1.22-4.56,1.24Z"/><path class="cls-2" d="M149,170.8c.06,5.78,6.63,12.78,12.76,11.75,7.86-1.31,5.13-11.16,3.32-16.22-1.33-3.72-7.11-4.33-8.17,0a43.06,43.06,0,0,1-1.7,6.35l2.88-2.87-.68.27,4.07,1.08a5.38,5.38,0,0,1-1.56-5.45l-3.19,3.19.85-.35-4.44-1.17c1.16,1.3,1.91,3.49,2.75,5,2.13,3.9,8.82,2.25,8.56-2.32A36.78,36.78,0,0,1,167.14,154h-8.92a139.14,139.14,0,0,1,1.58,14.1c.46,5.73,9,5.9,9,0a92.2,92.2,0,0,0-1.7-16.56c-.88-5-7.42-3.72-8.92,0a42.18,42.18,0,0,0-2.93,18.59l8.56-2.32c-1.3-2.33-2.42-4.86-4.23-6.85a4.42,4.42,0,0,0-4.44-1.17c-7.31,3-4.9,14.67,1.26,18a4.19,4.19,0,0,0,4.22,0c3.14-2.06,3.48-5.76,4.45-9.16h-8.17c.31,1,.62,2,.85,3,.16.67,1.06,5.45.93,2.34-.07-1.76-.22-1.43-1.66-2.81a26.63,26.63,0,0,1-2.34-2.63c-1.87-2.31-5.72-.34-5.69,2.36Z"/><path class="cls-2" d="M162.06,145.12c-2.22,4-2.32,8.45-2.48,13-.05,1.3.13,14.57-.16,14.64-3.41.86-4.23,5.12-2,7.54a6.82,6.82,0,0,0,8.8,1.09c3.53-2.36,4.56-7.66,5.11-11.55.73-5.15-1-9.17-2.19-14.06-1.29-5.21-.63-10.73-1.81-16s-8.83-3.78-9.17,1.24a60.43,60.43,0,0,0,1.33,16.47c.61,2.73,2,5.24,2.32,8a17.06,17.06,0,0,1-.43,5.42l-.4,1.83q-1.34,2.79,2.82,1.13l-2,7.54c6.76-1.95,6.19-8.73,6.32-14.54.15-7.05,1.42-15.26-1.79-21.78a2.5,2.5,0,0,0-4.29,0Z"/><path d="M148.65,122a80,80,0,0,1-11.43-6.62c-3.56-2.35-8.17-4.93-10.88-8.26-2-2.47-3.34-6,.88-7.78,2-.85,5.21-.63,7.35-.58a39.37,39.37,0,0,1,12.34,2.32c6,2.16,19.25,9.39,14.68,17.68-2.46,4.47-10.12,2.9-14.33,2.13a20,20,0,0,1-11.66-6.16c-2-2.23-5.16.6-3.95,3,3.07,6.2,9.2,8.69,15.77,9.56,6.14.8,14,1.64,18.27-3.8,8.6-10.91-4.14-22.36-13.44-26.52a42.85,42.85,0,0,0-20.18-3.73c-5.22.33-11.37,1.19-12.77,7.17s3,10.67,7.41,13.93c6.53,4.8,12.78,8.75,20.7,10.56,1.68.38,3-2.18,1.24-2.94Z"/><path d="M126,115.4c3.44,10.08,5.11,20.61,8.55,30.7,1.61,4.72,3.47,9.35,5.42,13.94s3.44,10.37,6.94,13.76a2,2,0,0,0,3.31-1.37c-.23-4.52-3.15-8.9-4.92-13-2.33-5.39-4.53-10.84-6.42-16.41-3.24-9.57-4.28-20.24-9.11-29.2-1.1-2-4.54-.65-3.77,1.59Z"/><path d="M162.81,121.41c-.35,3.94,1.11,7.87,1.89,11.72,1,5,1.84,10.13,2.44,15.24q.78,6.6,1.08,13.23c.19,4.3-.22,8.72.64,12.93.45,2.2,3.88,2.13,4.37,0,2-8.47,0-18.91-1.08-27.44q-.87-6.76-2.24-13.43c-.91-4.36-1.48-9.38-4.1-13.07a1.63,1.63,0,0,0-3,.82Z"/></svg>