<svg id="Layer_1" data-name="Layer 1" xmlns="http://www.w3.org/2000/svg" viewBox="0 0 500 500"><defs><style>.cls-1{fill:#231518;}.cls-2{fill:#c11e2a;}.cls-3{fill:#892935;}</style></defs><title>9Artboard 1</title><path class="cls-1" d="M128.44,126.7,128,127a1.69,1.69,0,0,0-.86,1.49l.12.95c.2,1.58,2.67,2.9,3.52,1,1.55-3.58-.14-6.38-2.47-9.21a23.84,23.84,0,0,1-3.16-5.6c-1.13-2.34-2.93-4.25-3.81-6.72l-2.76,2.76c2.68.64,3.69,4.13,4.76,6.32s2,4.48,3.58,6.35c1.41,1.62,3.71-.15,3.34-2-.7-3.43-3-7.13-4.7-10.18-1.35-2.36-3-4.27-5.78-4.87-1.53-.33-3.4,1-2.76,2.76,1.26,3.38,3.75,6,4.94,9.4,1,3,6.5,6.11,5.37,9.48l3.45-.45a3.2,3.2,0,0,0-1.2-1.62,1,1,0,0,0-1.11-.14Z"/><path class="cls-1" d="M129.62,128.94l-.1.17,1.9-.5-.21-.09.56,2.14a34.34,34.34,0,0,0,2.79-7.69l-4.28-1.18a13.71,13.71,0,0,1-1.46,4.64l3.84.5a50.36,50.36,0,0,1-2.38-12.29,2.2,2.2,0,0,0-4.39,0,12.47,12.47,0,0,0,.56,4.67l3.28-2.52c-1.8-.86-5-3.51-3.93-6l-1.89,1.09,1.18,1.29,2.46-3.2a11.9,11.9,0,0,1-6.43-2.74l-1,3.61,2.13-.55q3.48,2.32,3.62-1.38,0-3.27,3.08-1.83c2.63,1,3.28.17,2-2.51l-1.65,1.65c.37-.09,2.8,5,2.79,5a2.3,2.3,0,0,0,4.5-.61l.16-2.65-3.4,2a8.5,8.5,0,0,1,3.48,3.32l3.47-2.67c-3.93-4.47-9-12.37-16-9.07-4.19,2-6.7,8.78-1.09,10.55,2.39.75,3.91-2.34,2.34-4,1.21-2.32,2.92-2.73,5.15-1.2a19.8,19.8,0,0,1,2.29,2.1,63.64,63.64,0,0,1,4.22,4.77c1.59,1.93,4.83-.59,3.46-2.68a16.45,16.45,0,0,0-5-5c-1.55-1-3.27.36-3.4,2l-.22,2.65,4.5-.61c-1.32-3.5-3.94-9.3-8.47-8.31a2.31,2.31,0,0,0-1.65,1.65c-.76,3.76,1.39,11.93,6.87,9.83,4.85-1.85,2.31-8.18-1.08-10-4.16-2.23-10.06.63-9.49,5.76.48,4.2,6,6.35,8.92,3.2,8.6-9.14-15.7-14.9-10.4-2.6,1.29,3,7.89,7,8.56,1.39.64-5.35-7.58-5.47-10.78-4.22-1.32.51-2.37,2.5-1,3.61a17.69,17.69,0,0,0,8.32,3.88,2.21,2.21,0,0,0,2.46-3.2,5.13,5.13,0,0,0-4.94-3.48,2.2,2.2,0,0,0-1.9,1.09c-2.13,4.76,1.11,10,5.47,12.07,1.63.79,3.91-.52,3.27-2.51a6.18,6.18,0,0,1-.47-3.49h-4.39a57.44,57.44,0,0,0,2.72,13.41c.53,1.61,2.95,2.18,3.83.5a26.51,26.51,0,0,0,2.12-5.58c.74-2.78-3.41-3.9-4.28-1.18s-3.06,6.69-1,9.18a1.57,1.57,0,0,0,2.21,0l.18-.18a1.43,1.43,0,0,0,0-2l-.11-.15a1.27,1.27,0,0,0-2,.26Z"/><path class="cls-1" d="M129.71,111.42l-.09-.07.69,2.62.08-.13-2.7.71c-.53-.58-.63-.61-.31-.1.18.34.36.69.52,1,.36.69.75,1.37,1.08,2.07a23.07,23.07,0,0,1,1.51,4.59l4.48-1.89c-.8-1.4-1.94-3.77-1.45-5.46l-1.66,1.66.47-.07-1.84-.24a8.17,8.17,0,0,1,3.34,4.89l4-2.31a7.65,7.65,0,0,1-1.72-5.94l-3,2.3c1.47.27,1.19,2.16,1.34,3.32l4.39-.6a15.73,15.73,0,0,0-2.45-5,1.8,1.8,0,0,0-3.24.42c-1.24,4.73,3.1,7.07,6.86,8.38l1.15-4.18c-4-.79-6.89,1.57-9.11,4.63a2.6,2.6,0,0,0,.4,3.09,2.57,2.57,0,0,0,1.74,1,2.42,2.42,0,0,0,1.85-4.4l.4.3v2.57c1-1.53,2.18-3,4.14-2.94,2.43.08,3-3.71.58-4.26-2-.47-4.78-1.14-4.53-3.72l-3,1.25a4.86,4.86,0,0,1,.93,2.89c-.46,2.83,3.89,4,4.31,1.19.52-3.46-.5-7.74-4.46-8.52a2.43,2.43,0,0,0-3,2.31,12.34,12.34,0,0,0,3.14,9.29c1.65,1.93,4.42-.17,4-2.31-.71-3.33-4-8.41-7.82-7.9a2.36,2.36,0,0,0-1.66,1.66c-.93,2.95.36,6.64,1.81,9.2s5.17.79,4.47-1.88c-.75-2.89-3-10.66-7.05-9.92a2,2,0,0,0-1.38,2.43l0,.14a1.91,1.91,0,0,0,1.85,1.41h.12a1.89,1.89,0,0,0,.94-3.49Z"/><path class="cls-1" d="M140.3,144.52c5.91,3.83,9.92,9.53,14.2,14.94,1.38,1.74,4.63-.15,3.8-2.22a5.18,5.18,0,0,0-.94-1.54,1.84,1.84,0,0,0-3.05,1.78l.16.44,1.33-2.36-.3.1,2.57,1a38.57,38.57,0,0,0-7.73-9.58c-2.42-2.31-5.68-5.61-9.11-6.05-2-.25-2.32,2.55-.93,3.45Z"/><path class="cls-1" d="M142.91,142.58c.06,0,.9-.09,1.09-.1,1-.06,2,0,2.95,0,.55,0,4.33-.57,4.61-.31l-.33-1.21c-.27.93-5.08.88-5.86,1s-1.18,1.08-.4,1.45c2.35,1.13,6.56,1.5,8.49-.62a1.49,1.49,0,0,0,.22-1.71c-.65-1.54-2.82-1.32-4.21-1.42-2.15-.15-4.74-.51-6.87,0-2.85.65-3.67,4.7-.3,5.21a1.14,1.14,0,0,0,.61-2.2Z"/><path class="cls-1" d="M144.85,140.93l3,.46-.79-1.95,2.68,2.57-.26,1c.09.6-.19,1.27-.1,1.89a3.67,3.67,0,0,0,1.54,2.72,2.13,2.13,0,0,0,3.33-2.57,19.2,19.2,0,0,0-4.67-6,1.88,1.88,0,0,0-3.18,1.31,15.58,15.58,0,0,0,1.06,7.58c1,2.72,5.11,1.69,4.42-1.22-.37-1.5-.78-3-1.23-4.45l-3.85,2.24c4.15,3.5,8.12,7.23,12.35,10.63a2.09,2.09,0,0,0,2.95-2.95A122.56,122.56,0,0,1,154,141.87l-3.24,1.9c2.76,3.58,5.57,7.06,8.64,10.38l2.92-2.92a55,55,0,0,1-5.66-5.45l-2,2.51a15,15,0,0,1,7.69,10.06l2.47-2.46a8.09,8.09,0,0,1-5.7-5.3l-3.74,1.58a70.25,70.25,0,0,1,4.76,7.84l3.61-2.79a43.61,43.61,0,0,1-7.22-7.15l-2.77,2.78a21,21,0,0,1,4.58,5.15l3.41-2.62a105.12,105.12,0,0,1-10.69-9.87l-2.83,2.83c4.6,4,9.6,8.62,10.42,15l4-1.08a26.08,26.08,0,0,1-3.77-6.48l-3.27,1.38a13.49,13.49,0,0,1,1.68,7.44l4-1.07a51.79,51.79,0,0,1-4-8.7c-.55-1.74-3.65-2.14-4,0a35.08,35.08,0,0,0,.61,11.51l4-1.1a36.21,36.21,0,0,1-2.6-11.35l-4.16.56,2.2,10.53c.4,1.91.5,4.39,2.26,5.64a3.63,3.63,0,0,0,3.06.56c3.17-.6,5.63-1.55,9-1.53,2.19,0,3.29-3.29,1.17-4.32-1-.47-2-1-3-1.54-2.13-1.73-2.15-1,0,2.31l3-2.28-2.3-3.7-2,2A4.11,4.11,0,0,1,167,167a2.1,2.1,0,0,0,3.87,1.05c3.9-6.14-5.15-15-9.38-18.52l-.95,3.6c4-1.18,5.17,5.59,5.36,8.14a2.22,2.22,0,0,0,4.43,0c.54-9-7.39-13.56-14-17.93-2.35-1.56-4.54,2.22-2.21,3.78,5.18,3.47,12.14,6.89,11.74,14.15h4.43c-.46-5.71-3.62-14.54-10.94-12.29-1.41.43-2.27,2.52-1,3.6,2.41,1.95,11.15,9.67,8.84,13.37l3.87,1.05c-.23-4.42-1.62-8.88-6.73-8.92a2,2,0,0,0-2,2,8.71,8.71,0,0,0,4.34,7.18c1.62,1,3.24-.66,3-2.27-.64-3.81-5.54-8.31-9.44-5.33-4.9,3.74,3.6,8.35,6.25,9.63L167.7,165a37.73,37.73,0,0,0-5.1.28c-.85.12-4.21,1.61-4.78,1.4-.18-.06-2.18-11.61-2.57-13.36-.52-2.3-4.35-1.84-4.17.56a41.07,41.07,0,0,0,2.85,12.45,2.07,2.07,0,0,0,4-1.1,28.39,28.39,0,0,1-.64-9.32h-4a35.72,35.72,0,0,0,4.27,9.76c1.1,1.63,4.09,1.17,4-1.08a19.41,19.41,0,0,0-2.85-9.25,1.8,1.8,0,0,0-3.28,1.38,21,21,0,0,0,3.55,7.68,2.14,2.14,0,0,0,3.89-1.64c-1.07-7.45-6.44-12.42-11.77-17.23a2,2,0,0,0-2.83,2.83,64.07,64.07,0,0,0,10.89,10.44c1.73,1.26,4.19-1.24,3-3a25.93,25.93,0,0,0-6-6.05c-2-1.44-3.6,1.5-2.37,3.09a65.92,65.92,0,0,0,6.74,7.63,2.31,2.31,0,0,0,3.61-2.79,57.58,57.58,0,0,0-5.2-7.59c-1.28-1.67-4.53-.83-3.73,1.58a11.51,11.51,0,0,0,8.57,8.08,2,2,0,0,0,2.47-2.47,17.46,17.46,0,0,0-9.94-11.76c-1.55-.67-3.36,1.13-1.94,2.51a53.28,53.28,0,0,1,4.69,5.69,2.05,2.05,0,1,0,3.24-2.5c-2.71-3.4-5.6-6.59-8.61-9.74-1.69-1.76-4.2.84-2.65,2.66a126.32,126.32,0,0,1,7.82,10.56l3.27-2.53c-3.88-3.77-8.06-7.25-12-10.93a2.32,2.32,0,0,0-3.85,2.24c.38,1.5.79,3,1.25,4.44l4.18-1.76a15,15,0,0,1-1.52-5.82l-2.8,1.61a7.83,7.83,0,0,1,3.06,4.72l3.54-2.06c-.75-.76.54-4.45-.1-5.8-.76-1.59-2.16-2.09-3.83-2.19-3.56-.22-6.61,2.24-4.86,5.81a2,2,0,0,0,2.17.88,3.43,3.43,0,0,0,3.08-3,1.75,1.75,0,0,0-1.2-2.12,8.62,8.62,0,0,0-4.75-.1c-1.53.35-1.23,2.91.38,2.79Z"/><path class="cls-1" d="M160.68,165.15l-.76-.23,1,.76a4.16,4.16,0,0,0-2.8-1.63,7.45,7.45,0,0,0-3.56-.24l1.67,3.95a2.71,2.71,0,0,0,1.55-1.66,1.73,1.73,0,0,0-.45-1.69,2.73,2.73,0,0,0-2.19-.68,2.18,2.18,0,0,0-1.1,4,7.61,7.61,0,0,0,3.48.72,4.14,4.14,0,0,0,3.14-.82l-1.16.48h.8a1.53,1.53,0,0,0,.4-3Z"/><path class="cls-2" d="M160.84,141.59c-.06-5.05-2.08-9.23-4.72-13.47a33.84,33.84,0,0,0-3.62-5c-1.79-2-5.82-4.12-5.25-7.17l-2.16,1.64c3-.24,6,6,7.45,8.18,1.64,2.4,3.19,4.84,5,7.1,1.61,2,4.62-.55,3.45-2.66a109.83,109.83,0,0,0-8.74-12.61c-1.93-2.56-3.77-4.73-7.17-4.48a2.28,2.28,0,0,0-2.15,1.64c-.94,5,2.15,7.25,5.58,10.26,5,4.34,8.15,11.11,10.81,17,.34.76,1.52.35,1.51-.41Z"/><path class="cls-2" d="M142.29,117.58a13.67,13.67,0,0,0,5.7-1.23l-2.05-.54c7.43,8.44,13.71,16.51,16,27.79l4.32-1.19c-1.26-3-2.71-6-4.25-8.9-.75-1.43-3.45-1.27-3.7.48-.51,3.58,2.17,5.21,2.66,8.53l3.41-2c-2.89-2.51-4-6-6.16-9-1.87-2.7-4.28-4.78-5.78-7.75-1-2-3.59-.48-3.29,1.38.62,3.83,3.88,5.93,5.9,9,2.12,3.24,3.32,6.8,6.45,9.28a2.06,2.06,0,0,0,3.4-2c-.33-2-2.94-4.57-2.69-6.36l-3.7.48a67.79,67.79,0,0,1,3.43,8,2.24,2.24,0,0,0,4.32-1.19c-2.39-11.88-9-21.06-17.32-29.59a2.18,2.18,0,0,0-2.56-.33,38.78,38.78,0,0,1-4.52,1.76,1.7,1.7,0,0,0,.45,3.33Z"/><path class="cls-3" d="M136.79,138a11.26,11.26,0,0,1,1.44-5.74c.41-.68,3.12-3.38,2.84-4l-.19-1.5c-.29,1.19-2,2.52-2.77,3.42s-1.45,1.64-2.11,2.52a9.91,9.91,0,0,0-2.21,5.83c-.08,2.3,3.06,3,4.2,1.14l2.08-3.35,1-1.68c.54-.53.45-.67-.28-.4l-1-1.27c.45,1.28-1,2.7-1.81,3.43l3.5,2a4.31,4.31,0,0,1,4.17-3.71c1.31-.17,2.5-.27,3.18-1.61a3.21,3.21,0,0,0-.58-3.41c-1.26-1.77-2.54-3.1-3.31-5.22-1-2.63-5.23-1.44-4.21,1.16a19.34,19.34,0,0,0,1.93,3.86c.76,1.11,2,2.11,2.54,3.32l-.21-1.62-.11.54,1-1.26c-.63.34-1.82.15-2.56.37a8.64,8.64,0,0,0-2.75,1.45,8.48,8.48,0,0,0-3.09,5,2.11,2.11,0,0,0,3.5,2c2.16-1.81,5.23-7.19,1.52-9.13-4.2-2.2-6.82,4.58-8.43,7.17l4.2,1.14c.14-4.2,4.94-6.27,6.2-10a3.14,3.14,0,0,0-3.7-4c-2.58.48-4.91,4-6.07,6.18-1.47,2.71-1.88,5.63.26,8.06a1.07,1.07,0,0,0,1.8-.75Z"/><path class="cls-3" d="M143.65,132.56a5.7,5.7,0,0,1,.68-.39l-.12.06c.25-.07.25-.07,0,0s-.33-.06-.18,0,.1,0-.15-.07a1.2,1.2,0,0,1-.31-1.73.59.59,0,0,1,.25-.22c-.21.1-.18.1.08,0l.24,0c-.24,0-.24,0,0,0-.1,0-.52-.18-.2-.06l-.92-.38a1.71,1.71,0,0,0-1.82.62,1.78,1.78,0,0,0-.13,1.91,3.47,3.47,0,0,0,3.21,2,3.12,3.12,0,0,0,3-2.87,3,3,0,0,0-2.17-3,4.4,4.4,0,0,0-3.54.71,2,2,0,1,0,2,3.49Z"/><path d="M119.48,113.34c.84,8.87,5.41,19.32,10.57,26.55a74.14,74.14,0,0,0,8.38,9.67c3.12,3.08,6.49,6.87,10.48,8.75,1.9.89,4.59-1.07,3.17-3.16-2.25-3.3-5.74-5.6-8.64-8.29a72.1,72.1,0,0,1-8.59-9.23c-5.77-7.6-8.24-16.62-12.11-25.17-.71-1.56-3.43-.81-3.26.88Z"/><path d="M137.41,113l-.15.14a2.15,2.15,0,0,0,0,3c4.63,4,7.43,10.09,10.58,15.26,2.86,4.68,5.42,10.8,9.52,14.46a1.68,1.68,0,0,0,2.79-1.63c-1.05-4.12-18.34-35.11-22.74-31.26Z"/><path d="M138.27,115.68c2,.78,4.21-1.11,5.91-2s4.62-1.66,5.49-3.6a2.08,2.08,0,0,0-1.23-3c-2.34-.63-4.75,1.27-6.73,2.39s-4.48,2.08-4.72,4.55a1.78,1.78,0,0,0,1.28,1.69Z"/><path d="M146.54,111.71a80.72,80.72,0,0,1,11.69,15.17,70.79,70.79,0,0,1,3.78,7.35c.57,1.29,2.68,5.22,1.5,6.75-.52.67-3,.93-3.72,1.25-2.44,1-2.33,4.77.66,4.85a9.19,9.19,0,0,0,7.7-3.67c2.2-3.24.26-7-1.1-10.22a76.73,76.73,0,0,0-17.15-24.84c-2.2-2.13-5.49,1.16-3.36,3.36Z"/><path d="M161.24,145.14a3.11,3.11,0,0,0,.3,2.37,2.5,2.5,0,0,0,1.14,1,2.44,2.44,0,0,0,1.51.08,1.71,1.71,0,0,0,1.19-2.09c0-.1,0-.19-.08-.29a1.88,1.88,0,0,0-.5-.86c-.1-.13-.11-.13,0,0s.1.13,0,0l-.1-.17c-.06-.12,0-.07.07.17a2,2,0,0,1,0-.24A1.81,1.81,0,0,0,163,143.8a1.86,1.86,0,0,0-1.75,1.34Z"/><path d="M150,155.09c-1.17,1.24-1,2.6-1.05,4.22-.05,2.21-.12,4.43-.15,6.64s.84,6.24,4,5a1.62,1.62,0,0,0,1.16-1.52c-.18-1.71-.48-3.24-.51-5l0-4.09c0-.91-.3-2.4,0-3.25.79-1.94-2.11-3.41-3.43-2Z"/><path d="M160.54,147.83c6.69,4.72,12.14,11.9,9.86,20.62l1.51-1.5c-2.55,1-5.77,1.18-8.49,1.57-3,.44-6.64,1.33-9.71,1l2.12,1.21c-1-1.58-1.11-3.06-2.38-4.46a1.69,1.69,0,0,0-2.8.73c-1.33,3.89.64,7.55,4.73,7.36a81.35,81.35,0,0,0,11.18-1.7c2-.39,6-.35,7.44-2.1,1.29-1.53.84-4,.79-5.84-.08-3,.08-6.08-1-8.89-1.83-4.61-6.79-9.32-11.24-11.36a2,2,0,0,0-2,3.38Z"/><path d="M134.23,137.44a27.43,27.43,0,0,0,.9-3.22,24.79,24.79,0,0,1,2.23-4.68c1.75-3,4-4.06,6.87-5.75a2,2,0,0,0-.47-3.63c-4.59-1.68-8.64,2.71-10.74,6.3-1.62,2.78-5.21,9.23-1.62,11.72a2.08,2.08,0,0,0,2.83-.74Z"/><path d="M139.75,144.43a10.67,10.67,0,0,1,5.95-5.53c2.38-1,5.08-1.19,7.28-2.56a2,2,0,0,0-.47-3.6c-6-2.33-17,3.7-16.78,10.6.07,2,3.08,3.17,4,1.09Z"/><path d="M142.63,112c1-1.7-.16-4.17-1.09-5.7s-2.91-3.89-5-2.73a2.15,2.15,0,0,0-1.07,2.22c.15,1.08,1,1.69,1.64,2.44a7.28,7.28,0,0,1,1.34,2.11c.41,1,.62,1.77,1.59,2.33a1.91,1.91,0,0,0,2.57-.67Z"/><path d="M122.17,113a14.87,14.87,0,0,0-1-1.86,6.54,6.54,0,0,1-.55-1.74c-.44-1.94-3.38-1.46-3.41.46s1.2,4.48,3.28,4.78c.89.14,2-.58,1.64-1.64Z"/></svg>