<svg id="Layer_1" data-name="Layer 1" xmlns="http://www.w3.org/2000/svg" viewBox="0 0 500 500"><defs><style>.cls-1{fill:#9e5728;}.cls-2{fill:#682b09;}.cls-3{fill:#0f090b;}</style></defs><title>24Artboard 1</title><path class="cls-1" d="M172.71,261.41c7.74,1.73,17-2.28,23.86-5.74l-2-3.35a73.63,73.63,0,0,1-21.44,8.55l1.69,4c6.75-3.22,13.57-6.11,20.55-8.77l-1.53-3.65c-5.19,2.33-10.82,3.75-16.16,5.7-2.75,1-1.66,5.32,1.22,4.45,4.75-1.44,9.95-3.17,14-6.07,1.71-1.22.75-4.21-1.51-3.57-4.67,1.33-9.16,3.52-13.73,5.19l1.77,4.22a72.63,72.63,0,0,1,15.92-6.27c2.51-.6,1.45-4.4-1.06-3.85-7.66,1.68-14.73,5.38-21.7,8.84-2.51,1.25-.29,5.11,2.21,3.78,7-3.72,14.7-5.58,21.71-9.2,2.21-1.14.25-4.52-2-3.35-6.33,3.37-14.23,6.47-21.49,6.09a1.53,1.53,0,0,0-.41,3Z"/><path class="cls-1" d="M190,259.22c7.31-2.56,14.64-5.06,21.88-7.83,2.52-1,1.52-5-1.14-4.13-5.47,1.81-10.9,3.61-16.26,5.72-2.81,1.1-1.65,5.66,1.27,4.6,5.49-2,11-4,16.42-6.15a2.08,2.08,0,0,0-1.1-4c-4.07.79-8.15,1.72-12.26,2.24l2.16,3.76c.66-1.3,4.08-2.4,5.27-3a52.94,52.94,0,0,0,6.15-3.76c1.39-1.05,1.16-3.8-1-3.66a7,7,0,0,0-5.4,2.5c-1,1.07-.42,3.34,1.3,3.16,1.91-.2,2.94-.63,3.59-2.48.51-1.46-1.52-2.51-2.53-1.48l-.56.32.81,3.09,2.79-1.18-.52-3.86a62.76,62.76,0,0,0-8.55,3.81c-2.12,1.07-4.55,1.87-5.67,4.07-.94,1.85.63,4.34,2.82,3.67,4.18-1.27,8.46-2.16,12.7-3.14l-1.1-4c-5.57,1.76-11.08,3.65-16.59,5.56l1.84,4.36a118.46,118.46,0,0,1,15.56-5.95l-1.14-4.13c-7.33,2.53-14.56,5.31-21.82,8-2.41.91-1.41,4.79,1.08,3.92Z"/><path class="cls-1" d="M179.47,242.08a12.08,12.08,0,0,1-2.72-1.62l-1.12,4.13c6.78-.22,13.69-.62,20.45-1.14l-.61-4.51q-9.41,1.71-18.84,3.2c-2.36.37-1.83,4.52.57,4.21,4.92-.64,9.84-1.18,14.78-1.52q3.71-.24,7.42-.37c1.47-.05,5.8-.92,6.93.3l1.47-3.54a33.14,33.14,0,0,1-6.53.15l.53,3.89a15.5,15.5,0,0,1,8-.71c1.74.29,3.28-1.72,1.83-3.14a7.23,7.23,0,0,0-3.65-2.15A1.48,1.48,0,0,0,206.8,242l1,.61c1.3.82,2.63-1,1.61-2.09l-.79-.83-2.09,2.08a25.59,25.59,0,0,1,2.42,2.35l1.84-3.15a16.7,16.7,0,0,0-10,.52,2,2,0,0,0,.52,3.9,64.65,64.65,0,0,0,6.53,0c1.42-.05,2.77-1.77,1.79-3.11-2.82-3.87-8.82-2.39-13-2.17-6.69.37-13.36,1.07-20,2.06l1.14,4.13a155.43,155.43,0,0,1,18.31-2.82,2.3,2.3,0,0,0,0-4.6,89.84,89.84,0,0,0-21,1.38c-2.78.52-1.6,5.11,1.17,4.28a11.31,11.31,0,0,1,3-.69,1,1,0,0,0,.23-1.74Z"/><path class="cls-1" d="M169.9,241l-.21-1.06-4.19,1.16c.85,2.3,1.75,4.6,2.54,6.92,1,3.09.52,5.47.26,8.62-.33,4,.54,7.24,3.66,9.94,1.33,1.16,3.82.47,3.72-1.54-.18-3.73.71-10.11-2.26-13-1.23-1.18-2-1.24-2.73-2.8-1.28-2.84-1.09-6.73,2.68-7.05L171.13,240c.07,2.2-1.26,4-2,5.89a20,20,0,0,0-1.24,6.07,20.4,20.4,0,0,0,.11,5.52c.4,1.74,3,5.47,1.71,6.76-1.73,1.69,1,4.37,2.65,2.65,2.93-3,2.5-5.64.63-9-3.5-6.28,2.76-11.76,2.63-17.89a2.26,2.26,0,0,0-2.24-2.24c-5.73.41-9,3.86-7.7,9.83.42,1.9.66,4.47,2.05,6,1.85,1.95,2.39.51,3.19,4.16a41.72,41.72,0,0,1,.41,7.34L175,263.5c-4.07-3.88-1.34-8.29-1.87-13-.4-3.61-2.23-7.17-3.48-10.55a2.16,2.16,0,1,0-4,1.68l.47,1c1.07,2.17,4.13.57,3.71-1.57Z"/><path class="cls-1" d="M212.2,252.68c5.23.95,10.69.38,16,.22s10.94.35,16-1.13a1.84,1.84,0,0,0,0-3.52c-5.11-1.28-10.78-.54-16-.38s-10.85,0-16,1.37c-1.61.44-1.79,3.11,0,3.44Z"/><path class="cls-1" d="M214.19,250.28c5.15.35,10.49-.82,15.68-.95s10.56.73,15.74.24a2.09,2.09,0,0,0,.55-4.08c-5.1-1.64-11-1.38-16.29-1.21s-11.31.25-16.18,2.29a1.9,1.9,0,0,0,.5,3.71Z"/><path class="cls-1" d="M213.23,246.55c2,.46,4.59-.31,6.88-.44,2-.11,4.11-.07,6.17-.07a53.1,53.1,0,0,0,11.93-1.14c2.15-.49,1.64-3.79-.51-3.79-8.63,0-17.33-.87-25.95-1.36l.51,3.75a54.44,54.44,0,0,1,22.79,1.12l1-3.74A110,110,0,0,0,215,239.11c-2.33,0-2.3,3.47,0,3.61,12.83.75,25.74-2.35,38.43.56l-.56-4.3c-2.54,1.79-7.89,1.51-11,1.87-3.24.39-6.47.78-9.7,1.2s-3.29,5.2,0,5c8.9-.55,17.81-1,26.72-1.53l-.69-5.11c-4,.88-8.11,1.69-12.16,2.53-3.08.64-2.35,5.47.73,5.43,5.19-.07,10.38-.29,15.58-.47l-.73-5.35c-5.37,1.46-10.61,2.71-16.22,2.4l.69,5.1a33.71,33.71,0,0,1,20-1.77l.65-4.8a180.8,180.8,0,0,1-18.89-1.25v5q10-.27,20-.24c2.63,0,3.33-4.13.64-4.68q-7.18-1.5-14.28-3.33l-.61,4.52a33,33,0,0,1,13.22,1.08v-4.19c-2.92.43-12.32,1.5-11.16,6.64,1.11,4.94,11.61,2,14.66,1.46,2.5-.47,1.95-4.62-.6-4.46a47,47,0,0,0-8.57,1.38c-2.64.66-2.17,5.14.66,4.86,8.2-.8,16.39-1.65,24.59-2.33a2.53,2.53,0,0,0,0-5.06A142.23,142.23,0,0,0,266,241.69v5a158.11,158.11,0,0,1,18.47-.75c3.24,0,3.23-5,0-5-7.4-.16-14.79-.46-22.15-1.31v4.61a139.58,139.58,0,0,1,25.85.73c3.38.38,3.39-5,0-5.32a144.93,144.93,0,0,0-25.85,0,2.31,2.31,0,0,0,0,4.61c7.37.8,14.73,1.52,22.15,1.73v-5a165,165,0,0,0-18.47.76c-3.13.35-3.31,5.05,0,5a145.12,145.12,0,0,1,20.42,1.23v-5.06c-8.21.68-16.41,1.42-24.59,2.44l.66,4.87a72.67,72.67,0,0,1,7.85-1.7l-1.21-4.38c-1,.29-9.22,1.51-9,2.41-.11-.51,7.21-1.84,7.89-1.94,2.24-.33,1.88-3.64,0-4.19a37.44,37.44,0,0,0-14.38-1.49c-2.46.23-3.27,3.8-.61,4.52q7.07,1.91,14.23,3.49l.63-4.69q-10-.16-20,0c-3.28.06-3.13,4.66,0,5,6.29.69,12.57,1.06,18.89,1.14,2.71,0,3.37-4.18.65-4.8A38.6,38.6,0,0,0,244.78,245a2.61,2.61,0,0,0,.69,5.1c6.07.43,11.82-.85,17.67-2.34,3-.75,2.36-5.41-.72-5.35-5.2.11-10.39.18-15.58.39l.73,5.43c4-1,8.05-1.93,12.09-2.84,2.82-.64,2.25-5.31-.7-5.11-8.91.58-17.81,1.18-26.72,1.73v5q6.15-.8,12.29-1.64c3.49-.47,7.84-.25,10.74-2.37,1.49-1.08,1.6-3.84-.56-4.29-13.19-2.79-26.4.23-39.68.36v3.61a67.81,67.81,0,0,1,20,1.9,1.94,1.94,0,0,0,1-3.74,53.37,53.37,0,0,0-24.84-1.06c-2.2.4-1.54,3.65.51,3.75,8.63.43,17.36.51,25.95,1.4v-3.86c-4.68.41-9.38.25-14.08.39-3.84.12-9.11,0-12.65,1.79-4.15,2.09-2.45,6.44,1.85,6.27,1.66-.06,2.16-2.61.41-3Z"/><path class="cls-1" d="M284.74,245.81c5.6,1,11.55.56,17.22.47,3.75-.05,3.66-6.09,0-5.77-4.73.41-9.42.55-14.12,1.31l1.29,4.68c3.95-.83,8.36-1.24,12-2.94,2-.94.91-4-1.09-4-4-.07-8.31,1.43-12.24,2.28-3.1.66-1.74,5.18,1.29,4.68a35.41,35.41,0,0,1,12.06-.32l.77-5.67c-5.7.32-11.59.09-17.22,1-2.15.34-2.12,3.94,0,4.31Z"/><path class="cls-1" d="M239.66,251.65a3,3,0,0,0-.07,2.75c.45,1.64.26,3.33.94,5a29.07,29.07,0,0,0,2.38,3.63c1.17,2,.85,3.95,1.37,6.06.65,2.71,4.85,1.56,4.18-1.16-.71-2.92-.55-5.26-2.36-7.86a11.88,11.88,0,0,1-2.24-4.32,23.35,23.35,0,0,0-1.54-3.71c-.41-1-2.09-1.61-2.66-.35Z"/><path class="cls-1" d="M243.16,252.46a156.57,156.57,0,0,1,4.47,17.22c.48,2.79,4.6,1.56,4.21-1.16a20.69,20.69,0,0,0-2.13-6.44c-.63-1.28-1.39-2.5-2-3.78s-.79-3-1.46-4.17q0-2.3-2.73.35a12.35,12.35,0,0,1,1.39,2.2,27.67,27.67,0,0,1,1.5,3.95,39.44,39.44,0,0,0,2.82,6.94c1.15,2.08,3.84.89,4.08-1.1a21.15,21.15,0,0,0-.55-6.53c-.35-1.91-1.48-6-.08-7.68l-3.68-1c1.5,4.69,1,10.15,1,15h4.54c-.08-2.89-1.58-10.36,1.61-12.06l-3.2-1.3a4.8,4.8,0,0,1-.42,2.92h4.15a4.73,4.73,0,0,1-.43-2.75c.1-2.22-3.58-2.8-4-.53a8.39,8.39,0,0,0,.24,4.42,2.17,2.17,0,0,0,4.15,0,9.2,9.2,0,0,0,.55-4.64,2.22,2.22,0,0,0-3.28-1.88c-5.52,2.85-4.07,10.7-3.95,15.82a2.27,2.27,0,0,0,4.54,0c.09-5.32.48-11.07-1.24-16.19-.48-1.44-2.55-2.33-3.68-1-4.16,5,0,11.7-.64,17.33l4.08-1.11c-1.46-2.61-4.65-17.25-9.76-14.51-2.44,1.31-.9,5.3-.19,7.11,1.45,3.67,4.31,7.09,4.51,11.14l4.29-.58a72.94,72.94,0,0,0-5.74-17.3c-.83-1.64-3.46-.5-2.94,1.24Z"/><path class="cls-1" d="M242.94,262c-1,1.07-.9,2.22-.53,3.58.56,2.09,1.28,4.2,2,6.22.94,2.57,2.79,5.14,5.89,4.58a1,1,0,0,0,.57-1.41c-.48-.8-.77-.76-1.5-1.19-1.58-.95-2-2.19-2.64-3.85a65.72,65.72,0,0,1-2.67-7.63.7.7,0,0,0-1.15-.3Z"/><path class="cls-1" d="M246.68,271.09c-.66-1.69-3.75-8.49-1.58-9.73l-1.64-.43c2.16,3.87,1.64,8.61,4.23,12.31a1.37,1.37,0,0,0,2.47-.33c1-2.32-1-5-.89-7.46l-1.93.52c1.49,2.87,2,6.24,4.36,8.57a1.23,1.23,0,0,0,2-1.2c-.17-.7-1.05-7.64-1.35-7.67l-1.06-.61c1.38,2.8,1.77,6.58,2.37,9.62a1.45,1.45,0,0,0,2.76,0c1-4-1.63-7.32-1.46-11.27l-2.44.33c.95,3.06,1.69,6.18,2.67,9.24.44,1.37,2.82,1.23,2.66-.36a12.82,12.82,0,0,0-.37-2.23.94.94,0,0,0-1.79,0,7.08,7.08,0,0,0-.5,1.87h2.61c-.87-3.09-2-6.11-2.88-9.19a1.25,1.25,0,0,0-2.45.34c-.35,3.56,2,7,1.19,10.51h2.76a70.57,70.57,0,0,0-2.2-8.34c-.38-1.12-.89-2.66-2.41-2.36-3.31.66-1,8.75-.47,10.78l2.05-1.2c-2.34-2.16-2.54-5.62-4.47-8.08-.57-.73-1.78-.1-1.76.73,0,1.12,0,2.26.16,3.37.09.87.69,2.27.33,3.05H250c-2.71-3.54-2.29-8.33-4.5-12.15a1.21,1.21,0,0,0-1.64-.43c-3.87,2.28-.75,9.79,1,12.57.57.93,2.26.33,1.84-.77Z"/><path class="cls-1" d="M253.9,257.63c-2.71,6-.93,18.94,7.36,19.69a1,1,0,0,0,.73-1.78c-2.58-2.49-5-3.81-5.9-7.64-.8-3.34-.47-6.82-1.23-10.14a.53.53,0,0,0-1-.13Z"/><path class="cls-1" d="M255.75,269.87a13.64,13.64,0,0,0,2.73,3.15,28.49,28.49,0,0,0,3.1,2.92c1,.76,2.2-.5,2-1.54-.55-2.74-3.94-3.09-5.64-4.79-1.05-1-2.61.54-1.62,1.62a12.44,12.44,0,0,0,4.49,3.32c1,.38,1.64-.7,1.52-1.52a1.5,1.5,0,0,0-.57-1l-.87,1.5c.56.09.95.71,1.32,1.08l.81-1.95c-.64,0-1.08-.27-1.71-.05a.91.91,0,0,0-.53,1.32c.38.92,1.33,1,2.24,1,1.48,0,1.46-2.39,0-2.29-.25,0-.92.17-1-.23a.91.91,0,0,0-1.73,0l-.19.35,1.69-.44a27.31,27.31,0,0,1-3.82-2.68l-.81,2a4.78,4.78,0,0,1,2.5,1.52c.45.41,1.32,1,1.28,1.67l2.32-1a28,28,0,0,0-3-2.84,12.47,12.47,0,0,0-3.1-2.43,1,1,0,0,0-1.35,1.34Z"/><path class="cls-1" d="M257.54,269.75a3.74,3.74,0,0,0-.15-1.1,3.65,3.65,0,0,0-.67-1,4.41,4.41,0,0,1-.6-.9,6.68,6.68,0,0,0-.46-1.13.76.76,0,0,0-1-.27c-1,.55-.72,1.86-.23,2.66a8.67,8.67,0,0,0,.94,1.16c.27.31.8.6,1,.93s1.23.35,1.15-.32Z"/><path class="cls-1" d="M252.11,272.73l.36-.9c.44-.61-.18-1.27-.77-1.34l-.35,0a1.13,1.13,0,0,0-1,.56,19,19,0,0,0-1.71,4l2.83.38c-.09-1.33-.09-3.49-1.89-3.57s-2.13,2.12-2.45,3.5l2.44-.32a6,6,0,0,0-2-2,1.16,1.16,0,0,0-1.72,1c0,1.46.74,1.89,1.84,2.65,1.78,1.23,3,3.13,4.87,4.21a5,5,0,0,0,4.07.55c1.68-.58,2.65-2.34,4.05-3.37a1.31,1.31,0,0,0-1.32-2.25c-1,.57-3.12,2.11-4.32,2l1.24.71c-.61-.84,1.57-2.62,2.11-3.05,1.25-1-.38-3.07-1.69-2.19a32.9,32.9,0,0,1-3.81,2.22l2.21,1.71a2.66,2.66,0,0,1,1.41-2.12c1.49-1,.14-3.35-1.41-2.41a10.52,10.52,0,0,1-3.87,1.35l1.46,2.52a5.7,5.7,0,0,1,2.46-1.55l-1.56-2c-.75,1-1.57,2-2.32,3l2.65.72c1-1,1.47-1.09,1.3-.38a2.85,2.85,0,0,0,.12.58c.24.25.27.5.61.69a2.09,2.09,0,0,0,2.47-.66,1.14,1.14,0,0,0-.8-1.93,21.48,21.48,0,0,0-4,.6c-1.79.45-1,3,.74,2.71a27.87,27.87,0,0,0,4.55-1,1.23,1.23,0,0,0-.32-2.4,29.8,29.8,0,0,0-5,.65l1.08,2.57a5,5,0,0,1,2.91-.92l-.8-1.92-.46.23.92.52c-.68-1-.91-1.88-2.37-2a4.25,4.25,0,0,0-3.64,1.92c-.92,1.35,1.12,2.87,2.23,1.72a18.79,18.79,0,0,0,2.47-3.33,1.39,1.39,0,0,0-1.19-2.08,6,6,0,0,0-4.22,2.13,1.52,1.52,0,0,0,1.47,2.51,15.8,15.8,0,0,0,4.48-1.84l-1.41-2.41a5.82,5.82,0,0,0-2.91,3.73,1.53,1.53,0,0,0,2.22,1.7,17.65,17.65,0,0,0,4-2.64l-2-2c-1.36,1.49-4.36,4.15-2.68,6.41s5.47-.9,6.94-1.82l-1.32-2.25c-2.09,1.5-3.68,4.31-6.37,2.14-.9-.72-1.61-1.64-2.51-2.36-.33-.27-2.33-1.19-2.35-1.57l-1.94.8a4.66,4.66,0,0,1,1.09,1.59,1.35,1.35,0,0,0,2.45-.31l.28-1.28c.25-.56,0-.64-.62-.24l-1-.95c.08.61.13,1.21.17,1.82a1.45,1.45,0,0,0,2.83.39,27.1,27.1,0,0,1,1-3.94h-1.54l.4.9a.41.41,0,0,0,.78,0Z"/><path class="cls-1" d="M217.93,268.06c-1,.34,0-6.78,0-7.15.43-2,1.05-3.86,1.59-5.78h-2.84c1.47,3.67.12,8.41.49,12.29.26,2.83,2.15,3.26,4.86,3.69l.39-2.88c-1.3-.05-2.61-.08-3.91-.11a1.51,1.51,0,0,0-.76,2.79c2,1,4.73.62,4.47-2.2a27.8,27.8,0,0,0-.94-2.94,19.13,19.13,0,0,1-.26-4.14c.05-3.4,1-4.81,2.54-7.66a1.2,1.2,0,0,0-1.34-1.74c-2.67.59-3.74,3.47-4.1,6a25,25,0,0,0-.06,5.73,19.52,19.52,0,0,0,.38,2.64l.29,1.1c.18,1.18.35,1.41.53.67l-.75,2.8c1.3,0,2.61,0,3.91,0,1.92,0,1.84-2.75,0-2.93-2.78-.26-2.36-1.47-2.35-3.78,0-1.19,0-2.37,0-3.56a28.09,28.09,0,0,0-.51-6.54,1.49,1.49,0,0,0-2.84,0c-1.4,4.07-3.33,9.74-2.15,14.11.61,2.23,3.29,4,4.76,1.43.51-.89-.35-2.22-1.41-1.83Z"/><path class="cls-1" d="M219.06,238l-.8,1.3c-.21.34.32.64.54.31l.83-1.28c.23-.35-.34-.69-.57-.33Z"/><path class="cls-1" d="M219,239a.3.3,0,0,0,0-.6.3.3,0,0,0,0,.6Z"/><path class="cls-1" d="M214.18,240a4.26,4.26,0,0,0-1.14-.54.46.46,0,0,0-.25.89,3.11,3.11,0,0,1,1,.4c.48.29.89-.44.43-.75Z"/><path class="cls-1" d="M214.23,239.59c-.52-.32-1.08-.59-1.61-.9a.89.89,0,0,0-1.07.14,1.77,1.77,0,0,0-.26.35,1,1,0,0,0,.14,1.11l0,.05-.21-.37a1.11,1.11,0,0,0,1.09.85.65.65,0,0,0,.55-1,.28.28,0,0,1,0-.09l-.41.72a1.35,1.35,0,0,0,.45-.57l-1,.41a8.25,8.25,0,0,1,1.52.59.76.76,0,0,0,.77-1.31Z"/><path class="cls-1" d="M301.13,244.61c3.59.26,7.36-.46,10.95-.79a80.53,80.53,0,0,0,9.82-1c1.74-.37,1.22-2.85-.4-3-3.61-.24-7.39.38-11,.82-3.22.39-6.63.6-9.69,1.7a1.17,1.17,0,0,0,.31,2.28Z"/><path class="cls-1" d="M295.05,239.37a11.25,11.25,0,0,0,1.59-4.91,38.17,38.17,0,0,1,2.24-8h-2.66c.76,2,.17,4.53.22,6.64a21.44,21.44,0,0,0,.91,6L300,238c-1.31-1.89-3.07-4-3.72-6.28l-1.77.75a13.23,13.23,0,0,1,1.16,6.84h2.84a5.72,5.72,0,0,1,.24-2.72c.42-1.55-1.75-2-2.33-.65a10,10,0,0,0-1,4c0,1,1.5,1.51,2,.53a29.59,29.59,0,0,0,1.35-3.91l-2.33-.65a15.64,15.64,0,0,0-.75,3.37c-.22,1.78,2.72,1.85,2.84,0a11.52,11.52,0,0,0-2.48-8c-.71-.92-2,.24-1.52,1.17,1.14,2.31,1.7,4.72,3,7a1.43,1.43,0,0,0,2.6-1.1,25.48,25.48,0,0,1-.82-7.17c0-1.81.21-3.7-.4-5.44a1.39,1.39,0,0,0-2.66,0,32.59,32.59,0,0,0-2.13,6.6c-.34,1.93-.08,4.1-.95,5.88a1.11,1.11,0,0,0,1.91,1.12Z"/><path class="cls-1" d="M230.36,219.46l-.23.1c-.73.31-.74,1.24-.49,1.84s.82,1.22,1.08,1.93a11,11,0,0,1,.37,2.21,13.35,13.35,0,0,0,1,4.47,1.1,1.1,0,0,0,2-.26,15.57,15.57,0,0,0-.81-7.39c-.38-1-1.48-3.52-2.92-2.9Z"/><path class="cls-1" d="M230.85,223c-.34,1.95-1.48,6,.68,7.27a1.15,1.15,0,0,0,1.67-.68c.32-1.48-.36-3.13-.72-4.56-.22-.84-.46-1.68-.71-2.51l-.45-1.49-.15-.48c-.14-.58-.26-.31-.36.8.5.19.84-.42.64-.82s-.37-.9-.83-1.14a1.05,1.05,0,0,0-1.41.37c-.48,1.09.32,2.24.67,3.28.27.82.52,1.66.74,2.5a13.62,13.62,0,0,1,.68,2.94l1.78.24c-.49-.71-.27-2-.3-2.83a23.19,23.19,0,0,0-.29-2.89c-.11-.83-1.5-.8-1.64,0Z"/><path class="cls-1" d="M234.23,223.48a2.57,2.57,0,0,1,.9-2.63l-1.84-.75c.33,1.25-1,3-.89,4.35a1.45,1.45,0,0,0,1,1.36c2.33.36,3.5-2.31,5-3.68l-2.15-1.25a12.91,12.91,0,0,1-2.06,3c-.7,1-1.37,2-2.06,3a1.51,1.51,0,0,0,2.05,2c2.37-1.61,4.34-3.86,6.93-5.11L239.33,222c-1.3,2-3.51,3.1-4.89,5-1,1.34.85,2.72,2.09,2.09,2.57-1.31,5.16-2.57,7.8-3.75l-2.12-.55c.38.76,0,1.21,1,2a1.52,1.52,0,0,0,1.54,0,7.38,7.38,0,0,0,1.26-.92c1.27-1-.37-3-1.73-2.24l-.7.38,1.48.4c.32.31.3.49.17-.22a3.36,3.36,0,0,0-.35-.91,1.58,1.58,0,0,0-2.11-.56c-2.63,1.2-5.22,2.45-7.78,3.78l2.08,2.09c1.32-2,3.45-3.08,4.59-5.21a1.37,1.37,0,0,0-1.85-1.85c-2.56,1.33-4.54,3.51-7.08,4.85l2.05,2.06c1.45-2.13,3.77-4.57,4.06-7.2a1.3,1.3,0,0,0-2.2-.91c-.16.2-2.59,2.74-2.45,2.77l1,1c-.22-1.62,1.13-3,.53-4.64a1.27,1.27,0,0,0-2.29-.3,5.51,5.51,0,0,0-1.18,4.9c.31,1.32,2.19.73,2-.55Z"/><path class="cls-1" d="M230.81,221.48a77.66,77.66,0,0,0,8.2,1c2.92.35,6.16,1.5,9.08,1.17a1.06,1.06,0,0,0,.53-2c-2.34-1.58-5.63-1.74-8.39-2a25.49,25.49,0,0,0-9.42.29.83.83,0,0,0,0,1.59Z"/><path class="cls-1" d="M234.92,223.38a17.54,17.54,0,0,1,5.26.33c.86.21,4.44,1,4.76,2.08l.37-1.41c-.84.91-5.86.22-7.13.19l.38,2.76a52.16,52.16,0,0,1,8.37-.63l-.36-2.66a32.51,32.51,0,0,1-8.38,1.93v2.39c2.6-.34,5.19-.75,7.76-1.3,1.66-.35,4.69-.48,6-1.86,2.47-2.65-2.79-4.38-4.24-5.2a1.08,1.08,0,0,0-1.56.64,6.83,6.83,0,0,0,0,3l2.39-1.39-.4,1.47c-.31,1.87,2.46,2.71,2.89.8.2-.88.61-1.16.36-.61l1.27-.73,0-.16c-.31-.85-1.68-1-1.91,0-.4,1.72,0,2.92,1.87,3.11a1.49,1.49,0,0,0,1.27-.73,3.66,3.66,0,0,0-1.9-5c-2.43-.79-3.24,1.59-3.89,3.37l2.94.4c.25-2.13-1-4.8-3.62-4.1-2.1.57-2.24,2.82-.94,4.25,1.14,1.26,2.92-.34,2.24-1.73l-.58-1.85-1.31,1.3c1.76.42,3.17,1.23,1.09,2.1a20.27,20.27,0,0,1-3.34.79c-2.23.48-4.48.86-6.75,1.18-1.32.19-1,2.44.32,2.35a35.61,35.61,0,0,0,9.1-1.71,1.35,1.35,0,0,0-.36-2.65,61.94,61.94,0,0,0-9.12.62c-1.63.23-1.14,2.71.37,2.76s11.5,1.36,9.33-3c-1.77-3.58-9.27-4-12.59-3.8-1.79.14-1.81,2.94,0,2.82Z"/><path class="cls-1" d="M250.62,221.88a2.79,2.79,0,0,1,.11,1.43c-.16.73-.44,1.26,0,2a1.13,1.13,0,0,0,1.24.5c1.86-.29,1.59-3.33,1.09-4.58a1.29,1.29,0,0,0-1.54-.87,1.27,1.27,0,0,0-.87,1.54Z"/><path class="cls-1" d="M246.5,228.09a13.67,13.67,0,0,1,2.86,4.88c.49,1.49.53,3.18,1.41,4.5.73,1.1,2.83.81,2.7-.73a41.49,41.49,0,0,1,.09-6.78c.12-1.55.34-2.88-.73-4.13a1.39,1.39,0,0,0-2.36,1c0,1.74,0,3.48.05,5.21l2.66-.35a28.11,28.11,0,0,0-1.3-4c-.55-1.8-3.45-.9-2.75.76a2.93,2.93,0,0,1,.23,1.58c-.14,1.64,2.63,2,2.91.39a4.08,4.08,0,0,0-.53-3.07L249.49,229a6.63,6.63,0,0,1,1.08,3.37c.21,1.54,2.65,1.13,2.65-.36,0-1.73,0-3.47,0-5.21l-2.36,1c.53.62.12,2.85.13,3.69a29.55,29.55,0,0,1-.38,4.88l2.65-.34c-.83-1.66-1-3.54-1.87-5.2a13.84,13.84,0,0,0-3.55-4.07,1,1,0,0,0-1.35,1.35Z"/><path class="cls-1" d="M233.3,236.18c-.33-1.42.83-3.23,1.29-4.51.36-1,.32-2.69-1.21-2.46s-1.94,2.4-2.2,3.55c-.31,1.42-.53,2.9.3,4.18a1,1,0,0,0,1.82-.76Z"/><path class="cls-2" d="M216.89,219.62a1.91,1.91,0,0,0-1-.33,1.28,1.28,0,0,0-1.13.64,2.53,2.53,0,0,0-.36,1,1.48,1.48,0,0,0,1.4,1.84,6.63,6.63,0,0,0,4-1.5l-2.26-1.3a2.93,2.93,0,0,1-.8,1.62c-.9,1.2.87,2.93,2.06,2.07a14.58,14.58,0,0,1,4.33-2.31l-1.67-2.16a14.58,14.58,0,0,1-2.47,3.55l2.12,2.12a15.36,15.36,0,0,1,4.33-3.74l-2-2c-1,1.38-2.06,2.72-3.15,4-1.27,1.55.75,3.7,2.25,2.25.78-.76,1.61-1.47,2.42-2.19l-2.56-1.06c-.06,1-1.56,2.13-2.07,3a1.7,1.7,0,0,0,2.31,2.31l.38-.18c1.46-.65.72-3.07-.81-3l-.42,0,1.62,2.13c.64-1.61,1.87-2.51,2-4.35.09-1.42-1.65-1.82-2.57-1.06-.73.6-1.46,1.23-2.22,1.81l1.93,2.5a44.23,44.23,0,0,0,3.47-4.79c.75-1.21-.8-2.91-2-2a27.55,27.55,0,0,0-5,4.18c-1.06,1.19.36,3.42,1.82,2.35a9.63,9.63,0,0,0,3.34-4.77,1.47,1.47,0,0,0-1.81-1.8,25.19,25.19,0,0,0-5.06,2.53l2.06,2.07a5.24,5.24,0,0,0,1.2-3.15,1.51,1.51,0,0,0-2.26-1.29,5,5,0,0,1-2.48,1.19l1.39,1.06v-.56l-.51.9.24-.14a.87.87,0,0,0,0-1.49Z"/><path class="cls-2" d="M223.8,226.59l0,0-1.92-.79c-.07,1.27,0,2.54-.09,3.81a1.42,1.42,0,0,0,2.63.71,15.9,15.9,0,0,1,1.62-2.3l-2.44-1c0,.78-.07,1.57-.11,2.35h2.94a15.3,15.3,0,0,0-.21-2.34l-2.57,1.08.2,1a1.37,1.37,0,0,0,1,1.32,17.08,17.08,0,0,0,1.88.18,1.5,1.5,0,0,0,1.47-1.48c.21-3.18-1.16-6.47-2.4-9.34-.61-1.43-3.11-.72-3,.81a33.24,33.24,0,0,1,.07,6.15c-.13,1.61,2.24,2.13,3,.81a13.2,13.2,0,0,0,2-4.66,3.42,3.42,0,0,0-.2-1.76c-.24-.58-1.2-1.29-1.17-1.92l-2,1.56c.46.13.85,2.26,1,2.69a13.72,13.72,0,0,1,.78,3.89l2.72-1.13a9.64,9.64,0,0,0-1.2-1.19.94.94,0,0,0-1.26.33,2.85,2.85,0,0,0-.2,2.41c.37,1.79,3.13,1.35,3.13-.42A22.32,22.32,0,0,0,228,221c-.47-1.51-1.09-2.81-2.72-3.25a1.64,1.64,0,0,0-2,1.55c-.07,1.33.55,1.72,1.06,2.81a1.35,1.35,0,0,1,0,1.52,21.42,21.42,0,0,1-1.21,2.39l3,.81a32.39,32.39,0,0,0-.1-6.15l-3,.8c1,2.33,2.21,5.15,2.19,7.73l1.48-1.47a9.62,9.62,0,0,1-1.52.09l1.37,1.36a6.92,6.92,0,0,0-.36-2.11,1.41,1.41,0,0,0-2.76.37,11.79,11.79,0,0,0,0,2,1.47,1.47,0,0,0,2.94,0c0-.78,0-1.57,0-2.35a1.43,1.43,0,0,0-2.43-1,14.19,14.19,0,0,0-2,2.89l2.62.71a12.35,12.35,0,0,0-.52-4.11,1.14,1.14,0,0,0-2.17,0,1.37,1.37,0,0,0,.16,1.5.92.92,0,0,0,1.7-.46Z"/><path class="cls-2" d="M216.1,218l-.44.05a1.14,1.14,0,0,0,0,2.27c1.76.08,3.5.07,5.26,0a14.61,14.61,0,0,1,4.23.06.92.92,0,0,0,1.11-.62c.5-1.58-1-2.2-2.34-2.2-2.73,0-5.53.31-8.26.47l.57,2.12.39-.25c.79-.5.57-2.05-.52-1.92Z"/><path class="cls-2" d="M256.47,218.44c-.24-.87-.91-1-1.69-1.35-1.17-.46-2.22,1.1-1.6,2.09a21.72,21.72,0,0,1,1.82,2.9,9.54,9.54,0,0,1,.5,1.54,7.85,7.85,0,0,1,.16.95c0,.56,0,.6.2.11l2.5,1.46c.84-2.48,1.65-6,.14-8.36L256.8,220c2.15.58,1.63,3.87,1,5.41l1.05-1.05c.14-.17,0-.28-.27-.35l-.34,2.55a5.3,5.3,0,0,1,1.54,0,1,1,0,0,0,.94-1.23c-.55-1.4-1.83-1.7-3.22-1.45a1.41,1.41,0,0,0-.62,2.34,3.6,3.6,0,0,0,2.36,1.1,1.49,1.49,0,0,0,1.3-.74,8.71,8.71,0,0,0,.57-5.88,5,5,0,0,0-3.51-3.58,1.51,1.51,0,0,0-1.69,2.2c1,1.59.53,4.14-.28,5.68A1.51,1.51,0,0,0,258,226.8c1.32-1.09.65-3.49.2-4.86a9.57,9.57,0,0,0-3.06-4.7l-.72,2.64c.77,0,2.4-.22,2.07-1.44Z"/><path class="cls-3" d="M170.19,266.64c.95-4.24-.54-8.51-1.76-12.56a70.93,70.93,0,0,1-2.8-16,1.5,1.5,0,0,0-2.94-.4c-1.47,4.37-.22,9.13,1.08,13.41,1.55,5.11,2.8,10.51,4.62,15.51.29.8,1.58,1,1.8,0Z"/><path class="cls-3" d="M164.51,239.47c1.9.07,3.78-.06,5.67.1a22.31,22.31,0,0,0,5.22.25c1.26-.19,1.39-2.12.35-2.67-3.16-1.67-8.24-1.27-11.61-.46a1.42,1.42,0,0,0,.37,2.78Z"/><path class="cls-3" d="M174.11,239.13c-2.56,3.94-1.3,11-1.15,15.51a36.28,36.28,0,0,0,.86,6.31c.65,3.1,1.3,6.76-3.62,4.36a1.49,1.49,0,0,0-2.2,1.27v.74a2,2,0,0,0,1.41,1.85,16.9,16.9,0,0,0,7.22-.15,1.76,1.76,0,0,0,1.24-1.24c1.06-4.32-1.07-8.84-1.25-13.14-.2-4.74,1.45-11.41-1.22-15.51a.75.75,0,0,0-1.29,0Z"/><path class="cls-3" d="M173.48,240.11c5.52.77,11.1.5,16.65.27s11.24.4,16.58-.53c1.58-.28,1.29-2.48,0-2.91-4.85-1.64-10.58-.87-15.63-.66-5.72.24-11.42.33-17.14.42-1.87,0-2.47,3.13-.46,3.41Z"/><path class="cls-3" d="M174.58,248.05c4.79,1,10.15,0,15-.26,5-.31,10.28-.2,15.2-1.29,1.58-.35,1.71-3.08,0-3.33-5-.71-10.19.12-15.2.52s-10.4.13-15,1.84c-1.1.41-1.36,2.22,0,2.52Z"/><path class="cls-3" d="M176.26,258.4a123.59,123.59,0,0,0,13.82-3.95c4-1.27,8.53-2,12.13-4.31a1.51,1.51,0,0,0-.75-2.79c-4.55.11-9.05,2.18-13.34,3.61A85.64,85.64,0,0,0,175.26,256c-1.38.72-.38,2.65,1,2.38Z"/><path class="cls-3" d="M204,248.31v-.11a1.63,1.63,0,1,0-3.25,0v.11a1.63,1.63,0,1,0,3.25,0Z"/><path class="cls-3" d="M200.39,247.23a3.58,3.58,0,0,0,.53.7c-.37-.4.32.45.25.33s-.1-.13,0,0a1.85,1.85,0,0,0,1.41,1,1.72,1.72,0,0,0,1.53-.5,1.86,1.86,0,0,0,.28-2.19c-.53-1-1.95-2-3.14-1.53a1.45,1.45,0,0,0-.85,2.1Z"/><path class="cls-3" d="M176.59,266.43c6-.67,11.75-3,17.43-4.86s11.85-3.46,17.11-6.4c1.76-1,.51-3.44-1.3-3.09-6.06,1.16-11.94,3.93-17.75,6-5.38,1.89-11.09,3.42-16.07,6.24-.93.53-.59,2.27.58,2.14Z"/><path class="cls-3" d="M204,248.46a3.19,3.19,0,0,0,2.05-1.58,1.94,1.94,0,0,0-.5-2.46,1.89,1.89,0,0,0-2.5.15,9.7,9.7,0,0,0-1,1.4,1.72,1.72,0,0,0,1.92,2.49Z"/><path class="cls-3" d="M204.2,239.43a26.06,26.06,0,0,0,3.64.46,10.13,10.13,0,0,0,3.64,0,1.43,1.43,0,0,0,.34-2.58c-1.95-1.27-5.47-1.17-7.62-.48a1.34,1.34,0,0,0,0,2.56Z"/><path class="cls-3" d="M209.27,240.06c1.86,4.75.88,8.57,0,13.35a1.55,1.55,0,0,0,2.83,1.19c1.54-2.44,1.91-5.81,1.8-8.65-.09-2.24-.29-5.47-2.09-7a1.55,1.55,0,0,0-1.77-.23l-.26.12a1.11,1.11,0,0,0-.51,1.26Z"/><path class="cls-3" d="M211.84,237.59l-.2,0a1.46,1.46,0,0,0-1.06,1.39c-.13,3.05-.16,6.87,1.12,9.69.59,1.29,2.33.49,2.43-.66a26.09,26.09,0,0,0-.38-4.49c-.14-1.51-.2-3-.28-4.54a1.5,1.5,0,0,0-1.06-1.39,1.11,1.11,0,0,0-.57,0Z"/><path class="cls-3" d="M209.63,239c9,.88,18.2.24,27.24.32,8.37.07,17.43,1.33,25.7.05,1.53-.24,1.41-2.65,0-3-8.38-1.93-18.12-1-26.68-.95-8.8,0-17.86-.23-26.58,1.21-1.43.24-.92,2.23.32,2.35Z"/><path class="cls-3" d="M209.62,255.88c9.58.4,19.5-1.32,29.1-1.81,8.95-.45,19,.55,27.66-1.54a1.62,1.62,0,0,0,0-3.1c-9-1.94-19.52-.24-28.64.38-9.34.63-19.44.68-28.52,3.08a1.53,1.53,0,0,0,.4,3Z"/><path class="cls-3" d="M265.6,251.42c3.69-3.43,1.87-9.12,1-13.27-.52-2.45-4-1.34-3.67,1,.29,2.11,1.25,3.92,1.24,6.1,0,1.95-.66,3.87,0,5.77a.88.88,0,0,0,1.46.38Z"/><path class="cls-3" d="M267.16,238.48l-.2,0a.6.6,0,0,0-.73.72l0,.2a.72.72,0,0,0,1.19.32.73.73,0,0,0-.31-1.2Z"/><path class="cls-3" d="M262.82,239.39c.51-.51,6.11.48,7.31.53,3.34.14,6.67.24,10,.35,5.67.18,11.9,1.16,17.48,0,1.63-.33,1.53-2.8,0-3.19-7.09-1.8-15.64-.78-22.94-.88-3,0-12.76-2-14,1.89a1.31,1.31,0,0,0,2.18,1.27Z"/><path class="cls-3" d="M263.65,252.38c6.38.67,13.1-.51,19.47-1,5.83-.49,12.43-.28,18-2.23,1.4-.48,1.81-3,0-3.25-6.15-.88-12.8.62-18.94,1.31s-12.86.85-18.84,2.71a1.29,1.29,0,0,0,.34,2.51Z"/><path class="cls-3" d="M297,240c3.47,1.57,2.52,5.77,4.92,8.18a1.53,1.53,0,0,0,2.54-.67c.4-2.25-.68-5-1.65-7a6,6,0,0,0-4.94-3.72c-1.65-.1-2.43,2.51-.87,3.22Z"/><path class="cls-3" d="M223.73,241.55a5.36,5.36,0,0,0-.46,2,2.47,2.47,0,0,0,.6,1.92.74.74,0,0,0,1.21-.32,3.16,3.16,0,0,0-.09-1.72c-.09-.59-.24-1.19-.28-1.78a.5.5,0,0,0-1-.14Z"/><path class="cls-3" d="M224.13,246.3c4.28-.25,8.56.1,12.82-.1a1,1,0,0,0,.26-1.86c-4.16-1.21-9.15-.75-13.31.24a.88.88,0,0,0,.23,1.72Z"/><path class="cls-3" d="M223.17,242c2,.87,4.21.7,6.33.75,2.39.05,4.95.36,7.26-.28a1,1,0,0,0,0-1.83c-2.19-.53-4.52-.23-6.76-.22s-4.6-.36-6.67.38c-.47.17-.73.95-.16,1.2Z"/><path class="cls-3" d="M235.78,242.92l.12.05-.46-.36c.39.68-.32,1.91-.15,2.74a1,1,0,0,0,1.91.25,4.75,4.75,0,0,0,.4-3.06c-.22-1-1.36-1.66-2.12-.78a.71.71,0,0,0,.3,1.16Z"/><path class="cls-3" d="M300.19,241c3.83,1,8,.19,11.95.15,4.59,0,9.2.31,13.78,0,1.15-.08,1.57-1.9.29-2.15a63.06,63.06,0,0,0-14.07-.68c-4,.14-8.37-.06-12.08,1.64a.58.58,0,0,0,.13,1Z"/><path class="cls-3" d="M300.06,246.39a97.18,97.18,0,0,0,25-1.2c1.32-.24.89-2.14-.3-2.22a85.72,85.72,0,0,0-24.85,2c-.83.21-.58,1.33.19,1.41Z"/><path class="cls-3" d="M323.36,240.67a16.42,16.42,0,0,0,.59,3.7,1.09,1.09,0,0,0,2.13-.29,16.08,16.08,0,0,0-.56-3.7c-.23-1.2-2.31-.94-2.16.29Z"/><path class="cls-3" d="M317.14,237.17c-1.39,1.47-.63,4.63-.46,6.48.16,1.63.05,4,2,4.52a.8.8,0,0,0,1-1,35,35,0,0,1-.83-5.69c-.09-1.47.23-3.22-.85-4.34a.59.59,0,0,0-.83,0Z"/><path class="cls-3" d="M317.11,238.56c2.73.71,6,.42,8.81.5,3.35.1,6.87.53,10.16-.13a1.17,1.17,0,0,0,0-2.24c-2.81-.82-5.88-.5-8.79-.47-3.2.05-6.4.09-9.59.29a1.07,1.07,0,0,0-.94.54l-.15.3a.83.83,0,0,0,.5,1.21Z"/><path class="cls-3" d="M318.79,248.16c5.74,1,13.3.77,18.77-1.39,1.15-.45,1.12-2.35-.31-2.3-3,.1-6,.81-9.05,1.13s-6.1.31-9.15.61c-1,.1-1.45,1.75-.26,1.95Z"/><path class="cls-3" d="M335.14,238.58a10.45,10.45,0,0,1,1.13,6.49c-.12,1.12,1.39,1.26,1.91.52a5.25,5.25,0,0,0,.31-4.92c-.42-1.23-.94-3-2.29-3.48a1,1,0,0,0-1.06,1.39Z"/><path class="cls-3" d="M319.84,243.13a19.38,19.38,0,0,1,2.54-2l-1.3-1.68a8.24,8.24,0,0,0-2.34,3.49,1.21,1.21,0,0,0,.83,1.46c2.05.82,5.09-2.79,6.54-3.79l-1.19-1.54c-1.87,1.77-3.63,3.65-5.4,5.52a1.16,1.16,0,0,0,1.39,1.81c3.21-1.52,5.56-4.27,8.78-5.77l-1.4-1.81a53.18,53.18,0,0,0-6.87,6.55,1.18,1.18,0,0,0,1.67,1.66c2.52-2.13,4.76-4.45,7.58-6.2l-1.3-1.68c-1.23,1.58-2.37,3.21-3.5,4.86-.69,1,.65,2.24,1.63,1.63,2-1.22,3.66-4.65,5.82-5.2l-.87-1.5c-1.7,2-4,3.67-5.92,5.5-1.1,1,.51,2.6,1.63,1.64a47.66,47.66,0,0,1,6-4.5l-1.37-1.78q-1.69,1.89-3.28,3.87a1.27,1.27,0,0,0,1.79,1.79,7.86,7.86,0,0,0,2.62-3.35c.2-.52-.48-.93-.91-.69-1.12.63-2.13,1.41-3.24,2.05l1.73,1.74c.94-1.29,1.91-2.56,2.89-3.81a1.13,1.13,0,0,0-1.6-1.6c-2,1.56-4,3-6,4.46l1.4,1.82c2-1.82,4.75-3.69,5.79-6.27.36-.89-.9-1.42-1.5-.87a35.76,35.76,0,0,1-6.16,4.64l1.64,1.63c1.08-1.57,2.15-3.13,3.13-4.76a1.08,1.08,0,0,0-1.69-1.3c-2.32,2.36-5.08,4-7.71,6l1.43,1.85a62.45,62.45,0,0,1,6.83-6.58c1.06-.9-.29-2.34-1.4-1.81-3.2,1.52-5.58,4.23-8.77,5.77l1.4,1.81c1.75-1.89,3.51-3.78,5.16-5.76.65-.79-.22-2.26-1.19-1.55-.55.41-4.44,3.38-4.92,3.2l.83,1.46a6.46,6.46,0,0,1,1.56-2.61c.76-.85-.25-2.43-1.29-1.68a23.63,23.63,0,0,0-2.87,2.41c-.92.91.47,2.28,1.41,1.41Z"/><path class="cls-3" d="M334,240.12a19.88,19.88,0,0,1-1.87,3c-.77,1,.69,2.24,1.68,1.68a7.66,7.66,0,0,0,1.79-1.35l-1.89-.79,0,.68a1.09,1.09,0,0,0,1.84.76,3.94,3.94,0,0,0,.49-4.62c-.64-1.27-2.49-.15-1.9,1.12.1.22.88,1.69.69,1.95s-.62.08-.84.13c-1.14.25-2.71-.11-3.91,0a36.93,36.93,0,0,0-6.73,1.4,1.26,1.26,0,0,0,.67,2.43c3.58-.76,7.22-1.38,10.77-2.3a1.14,1.14,0,0,0-.61-2.19c-3.1.66-6.22,1.2-9.34,1.79l1.13,1.94c1.61-2,5-3.32,7.24-4.62a1.11,1.11,0,0,0,0-1.89c-2.18-1.06-5.25-.1-7.51.34l.58,2.12A40.92,40.92,0,0,1,334,240.5c1.41-.11,1.42-2.32,0-2.2-2.56.21-5.1.51-7.65.8l.31,2.27c1-.25,2.05-.48,3.09-.68.47-.09,2.47-.75,2.82-.52,1,.65,2.1-.81,1.28-1.65-1.53-1.55-6.06.2-7.81.62-1.24.29-1,2.42.31,2.27,2.65-.3,5.3-.58,7.94-.95l-.58-2.12c-2.7.41-5.38.8-8.07,1.26-1.4.24-.79,2.33.58,2.12,1.67-.26,4.44-1.15,6.08-.46l-.26-2q-2.25,1.35-4.52,2.66a11.26,11.26,0,0,0-3.25,2.21,1.17,1.17,0,0,0,1.13,1.94c3.1-.63,6.21-1.3,9.33-1.84l-.61-2.19c-3.63.53-7.23,1.37-10.83,2.06l.67,2.43a26,26,0,0,1,6.5-1.55c1.62-.14,3.7.54,5.24.13,2.56-.69,1-4.14.28-5.62l-1.9,1.12a1.89,1.89,0,0,1-.28,2.2l2,.54.08-.68c.12-1.06-1.24-1.3-1.89-.78l-1.17.68,1.2,2.05a13.17,13.17,0,0,0,2.05-3.61c.46-1.23-1.52-2.06-2.11-.89Z"/><path class="cls-3" d="M292.9,239.32a40.35,40.35,0,0,0,2.69-6.76c.9-2.5,2.12-5.05,2.55-7.68A1.17,1.17,0,0,0,296,224a28,28,0,0,0-3,7.32,27.76,27.76,0,0,0-1.64,7.61.8.8,0,0,0,1.48.4Z"/><path class="cls-3" d="M295.7,225c1.33.36,3.43.49,4.35-.71a.84.84,0,0,0-.5-1.22,2.48,2.48,0,0,0-1.32.09,10.53,10.53,0,0,1-1.36.17c-.83.07-1.49.38-1.46,1.29a.39.39,0,0,0,.29.38Z"/><path class="cls-3" d="M298.29,224.27a32.71,32.71,0,0,0,3.16,16.4c.55,1.05,1.91.26,1.76-.74-.4-2.67-1.34-5.25-1.86-7.91s-.61-5.37-1.16-8c-.24-1.13-1.8-.76-1.9.25Z"/><path class="cls-3" d="M217.09,255.19a.26.26,0,0,0,0-.51.26.26,0,0,0,0,.51Z"/><path class="cls-3" d="M215.86,254.23c-2.59,2.16-2.9,7.57-3.3,10.74-.3,2.34-.54,5,1.74,6.37a.9.9,0,0,0,1.23-1.23c-3-4.81,2.37-10.79,1.18-15.66a.51.51,0,0,0-.85-.22Z"/><path class="cls-3" d="M213.9,271.23c.82,1.56,3.23,1.81,4.84,1.93a10.75,10.75,0,0,0,6.07-1.29,1.08,1.08,0,0,0-.82-2,16,16,0,0,1-5.25.81c-1.47-.06-3-.88-4.44-.47a.68.68,0,0,0-.4,1Z"/><path class="cls-3" d="M223,254.38a17.62,17.62,0,0,0-2.31,9.08c0,.52.56,8,2.69,6.41-.85.64-.77,2.53.63,2.35l.36-.05a1.42,1.42,0,0,0,1.32-1c.41-2.34-1.95-3.76-2.27-6.05-.48-3.39.7-6.71,1.42-10a1,1,0,0,0-1.84-.78Z"/><path class="cls-3" d="M223,258.79a8.11,8.11,0,0,0,2.78-4.33,1.15,1.15,0,0,0-2.22-.61,16,16,0,0,1-1.92,3.57c-.5.81.53,2,1.36,1.37Z"/><path class="cls-3" d="M214.11,255.58l-.08.08-1.35-.36c1.44,1.87.72,3.9.48,6h2a37.52,37.52,0,0,0,.14-4.23c-.13-1.18-.84-1.78-1.53-2.67s-2.26.42-1.43,1.43c.22.27.5.49.7.76a2.43,2.43,0,0,1,.34,1.8c0,1-.12,1.93-.25,2.91-.15,1.17,1.67,1.3,2,.27.79-2.51.76-5.38-.93-7.48-.9-1.11-2.53.91-1.2,1.55a2.42,2.42,0,0,0,.59.2.41.41,0,0,0,.49-.28Z"/><path class="cls-3" d="M223.21,258c.21-.57,1-.93,1.52-1.26a17,17,0,0,1,1.54-.93c1-.54,2.18-.77,3-1.56a.78.78,0,0,0-.34-1.29c-1.49-.33-3.17.69-4.34,1.55s-2.49,1.92-2.4,3.35a.53.53,0,0,0,1,.14Z"/><path class="cls-3" d="M239,253a17.05,17.05,0,0,0-.22,2.14,5.07,5.07,0,0,0,0,2.16.89.89,0,0,0,1.61.21,4.09,4.09,0,0,0,.37-2.22,9.26,9.26,0,0,0-.21-2.29.83.83,0,0,0-1.58,0Z"/><path class="cls-3" d="M239.3,258.61a52.37,52.37,0,0,0,10.4.13c3.06-.16,6.34,0,9.13-1.38a1,1,0,0,0-.23-1.74c-3.09-.75-6.47.06-9.62.29s-6.48.25-9.68.78a1,1,0,0,0,0,1.92Z"/><path class="cls-3" d="M257.26,257.65c1.29.42,2.11-.89,2.21-2a6.48,6.48,0,0,0-.19-2c-.14-.64-.13-1.28-.28-1.91a1.11,1.11,0,0,0-1.62-.66,2.19,2.19,0,0,0-.75,2.54,11.84,11.84,0,0,1,.36,1.33c0,.16-.05.58,0,.71s0,.18.05,0,.11-.14-.07,0a1.09,1.09,0,0,0,.26,2Z"/><path class="cls-3" d="M241.73,259.14a.38.38,0,0,0,.11-.11c.06-.08.06-.07,0,0l-.56-.15c.74.92,1.86-.78.7-1.1a.7.7,0,0,0-.67.17c-.05.06-.31.48-.11.19-.22.31-.34.55-.15.91a.44.44,0,0,0,.69.09Z"/><path class="cls-3" d="M242.79,257.92a3.25,3.25,0,0,0-1.48-1.52,1.07,1.07,0,0,0-1.6.92c-.09,11,3.36,24.58,16.21,26.33a1,1,0,0,0,.56-2c-5.32-1.81-9.65-4.95-12.2-10.11-2.15-4.34-1.94-9.48-2.44-14.21l-1.35,1a4.87,4.87,0,0,1,1.63.44c.5.19.92-.45.67-.87Z"/><path class="cls-3" d="M255.88,256.47c-2.08,2.73-.55,8.5.78,11.4,1.44,3.15,5.86,6.19,9.21,6.71.68.11,1.52-.61,1-1.31-2-2.77-5.94-3.35-7.68-6.33a16,16,0,0,1-1.84-6.59c-.13-1.54.06-2.52-.68-3.88a.47.47,0,0,0-.8,0Z"/><path class="cls-3" d="M256.65,283.85c2.23-.9,4.05-3,5.82-4.59s4.22-3.18,5.14-5.4c.3-.72-.59-1.54-1.3-1.29-2.14.78-3.78,3-5.4,4.58s-4.12,3.29-5.25,5.41c-.33.6.23,1.59,1,1.29Z"/><path class="cls-3" d="M243.44,258.69c-2.43,10.06,6.36,19.54,15.21,22.59.58.2.88-.64.4-.95-4.32-2.79-8.24-4.75-11.32-9.06-2.88-4-2.35-8.12-3.7-12.58a.31.31,0,0,0-.59,0Z"/><path class="cls-3" d="M246.25,258.92c-.62,5.85,3,13.24,8.32,15.88a.56.56,0,0,0,.57-1,16.09,16.09,0,0,1-5.61-6.85c-1.16-2.64-1.39-5.52-2.43-8.18a.44.44,0,0,0-.85.12Z"/><path class="cls-3" d="M263,276.16c-.93-1.75-3.08-2.9-4.64-4.05-2.19-1.62-4.41-2.89-5.59-5.44-.26-.57-1.11-.26-1.12.3,0,2.37,1.87,3.76,3.61,5,1.26.93,2.52,1.86,3.8,2.76a9.26,9.26,0,0,0,3.5,2,.39.39,0,0,0,.44-.57Z"/><path class="cls-3" d="M261.4,278.78a4.24,4.24,0,0,0-1-1.33,3.69,3.69,0,0,0-1.42-1,.65.65,0,0,0-.78.79,2.92,2.92,0,0,0,1.12,1.41,3.57,3.57,0,0,0,1.62.79.46.46,0,0,0,.51-.67Z"/><path class="cls-3" d="M249.86,258.37c-.68.64-.26,1.89,0,2.66a7.85,7.85,0,0,0,1.48,3.06c.49.54,1.19-.06,1.1-.64-.23-1.58-1.35-2.94-1.36-4.59a.7.7,0,0,0-1.18-.49Z"/><path class="cls-3" d="M240.1,256.91c-.9-.88-.5-2.26-1.15-3.27s-2.15-.35-1.79.75c.25.77.79,1.68,1.66,1.82.42.07,1-.29.79-.79a4,4,0,0,1-.53-1.29l-1.92.26c.25,1.51.52,3.35,2.11,4,.82.31,1.41-.87.83-1.44Z"/><path class="cls-3" d="M224.71,242.34l-.39.12.57,2.06c.86-.28,1.73-.55,2.57-.89l-1.13-1.46a3,3,0,0,1-1.58,1.26l.83,2c.49-.29,2.49-2,2.87-1.92l-.44-1.66c-.48.4-1,.79-1.47,1.16-.84.64-.41,2.35.81,1.9a8.6,8.6,0,0,0,3.24-2l-1.19-1.19a3.12,3.12,0,0,1-.82.84,1.08,1.08,0,0,0,.82,2,13.26,13.26,0,0,0,5.28-2.46c.62-.52-.06-1.48-.76-1.3-1.72.45-3.39,1.16-5.09,1.69L230,244a12.19,12.19,0,0,1,.68-1.29c.47-.77-.43-1.49-1.15-1.15-.93.43-1.82.91-2.78,1.29l1,1.74c.53-.47,1.05-.94,1.6-1.38a1,1,0,0,0-.43-1.66c-1.52-.44-3.31,1.19-4.48,2a1.07,1.07,0,0,0,1.08,1.85,6.22,6.22,0,0,0,2.48-2.21c.51-.76-.34-1.66-1.13-1.47s-1.74.49-2.61.75c-1.31.4-.75,2.46.57,2.06l.39-.12c1.32-.4.74-2.49-.57-2.06Z"/><path class="cls-3" d="M222.81,263a23.39,23.39,0,0,0,5,.15,2.54,2.54,0,0,0,2.37-1.31c.58-1.26.05-3.13.2-4.49.16-1.54,1.22-2.87,1.17-4.38a1.16,1.16,0,0,0-1.46-1.11c-3.51,1.15-2.43,6.68-2.76,9.4l.43-1.05a13.75,13.75,0,0,1-2.3.09,17.24,17.24,0,0,0-2.67.33c-1.13.25-1.21,2.19,0,2.37Z"/><path class="cls-3" d="M226.28,258.9a11.75,11.75,0,0,0,0-2c-.08-.57-.21-1.14-.28-1.71-.1-.81-.16-1.84-1.21-1.88a1.93,1.93,0,0,0-1.73,2.44,10.22,10.22,0,0,0,.64,1.86,10.79,10.79,0,0,0,1,1.67.82.82,0,0,0,1.53-.41Z"/><path class="cls-3" d="M222.76,231a11.76,11.76,0,0,0-1.77-5.05c-.91-1.5-2.26-2.28-3.48-3.49-.86-.86-2.17-1.86-.47-3.15.6-.45,2.77-.47,3.31-.53,2.11-.24,4.8-.69,6.65.56,1.28.87,2.42-1.17,1.2-2.05-2.27-1.65-5.2-1.28-7.85-1-2,.23-4.87.28-6.33,2s-.67,3.2.4,4.68a20.29,20.29,0,0,0,2.69,2.79c1.59,1.53,2.35,3.58,3.18,5.61.48,1.19,2.6,1.21,2.47-.33Z"/><path class="cls-3" d="M226.85,218.93a64.89,64.89,0,0,1,1.18,8.34c.17,1.42.59,2.24-1.06,2.8a6.68,6.68,0,0,1-5.35-.48,1.32,1.32,0,0,0-1.59,2.06c2.27,2.67,9,2.41,10.69-1,.84-1.73-.18-4.57-.36-6.36-.22-2.26-.53-4.44-2-6.25-.6-.73-1.71.07-1.5.88Z"/><path class="cls-3" d="M227.9,219.67c4.59.37,9.21.41,13.82.54,4,.12,8.15.58,12.14-.11a1.13,1.13,0,0,0,0-2.17c-3.93-.9-8.12-.64-12.14-.75-4.61-.12-9.21-.33-13.82-.21a1.35,1.35,0,0,0,0,2.7Z"/><path class="cls-3" d="M229,231.84c8.12-.06,18.37-1.52,25.74-4.94a1,1,0,0,0-.5-1.85c-4.05.25-8,1.49-12,2.25-4.49.86-9.07,1.37-13.51,2.43a1.08,1.08,0,0,0,.28,2.11Z"/><path class="cls-3" d="M251.67,219.22a4.84,4.84,0,0,0,.88,1.48,5.06,5.06,0,0,1,.76,2.36c.15,1.84-.54,3.64.26,5.37a1.06,1.06,0,0,0,1.82,0,11.11,11.11,0,0,0,.18-7.16c-.46-1.38-1.71-3.4-3.42-2.89a.7.7,0,0,0-.48.84Z"/><path class="cls-3" d="M253.33,218.48c.76-1,4.28-.46,5.41-.23,1.73.36,1.67,2.22,1.94,3.8a12.52,12.52,0,0,1,.37,3c-.08,1,.13,1.1-.93,1.45-1.5.49-3.77,0-5.33.2-1.75.18-1.84,2.83,0,2.8a47.42,47.42,0,0,0,5.83-.49,3.57,3.57,0,0,0,2.44-1.15c1.56-2,.34-6.38-.23-8.55-.26-1-.45-2.43-1.36-3.09s-3.1-.58-4.28-.64c-2-.11-5.77-.51-5.76,2.41a1,1,0,0,0,1.9.52Z"/><path class="cls-3" d="M230.75,236.94a3.83,3.83,0,0,0,.71-2.65,22.46,22.46,0,0,0,0-3.38,1.37,1.37,0,0,0-.93-1.23.94.94,0,0,0-.68,0,1.29,1.29,0,0,0-.88.89,22.6,22.6,0,0,0-.15,3.49,4.1,4.1,0,0,0,.62,2.88.9.9,0,0,0,1.26,0Z"/><path class="cls-3" d="M234.9,236.94c.3-1.19.15-2.51.67-3.65.39-.87,1.27-1.24,1.8-2a1.06,1.06,0,0,0-.63-1.54c-1.45-.49-2.79.87-3.37,2.06a6.69,6.69,0,0,0-.22,5.12.92.92,0,0,0,1.75,0Z"/><path class="cls-3" d="M244,230.55a6.2,6.2,0,0,1,3.47,3.24c.76,1.43,1.36,3.7,2.91,4.4a1,1,0,0,0,1.51-.61c.25-1.24-.3-2.08-.85-3.16a29.14,29.14,0,0,0-1.87-3.43c-1.09-1.55-2.89-3.05-4.9-2.47-.83.23-1.19,1.64-.27,2Z"/><path class="cls-3" d="M252.23,228c.91,1.12.73,4,.77,5.37.06,1.88-.22,3.81.3,5.63a.89.89,0,0,0,1.7,0c.9-2.36.58-5.39.27-7.85-.2-1.57-.27-3.93-2-4.57a1,1,0,0,0-1.06.44l-.09.13a.71.71,0,0,0,.11.85Z"/></svg>