<svg id="Layer_1" data-name="Layer 1" xmlns="http://www.w3.org/2000/svg" viewBox="0 0 500 500"><defs><style>.cls-1{fill:#3c7572;}.cls-2{fill:#0f090b;}</style></defs><title>25Artboard 1</title><path class="cls-1" d="M169.9,231l-.21-1.06-4.19,1.16c.85,2.3,1.75,4.6,2.54,6.92,1,3.09.52,5.47.26,8.62-.33,4,.54,7.24,3.66,9.94,1.33,1.16,3.82.47,3.72-1.54-.18-3.73.71-10.11-2.26-13-1.23-1.18-2-1.24-2.73-2.8-1.28-2.84-1.09-6.73,2.68-7.05L171.13,230c.07,2.2-1.26,4-2,5.89a20,20,0,0,0-1.24,6.07,20.4,20.4,0,0,0,.11,5.52c.4,1.74,3,5.47,1.71,6.76-1.73,1.69,1,4.37,2.65,2.65,2.93-3,2.5-5.64.63-9-3.5-6.28,2.76-11.76,2.63-17.89a2.26,2.26,0,0,0-2.24-2.24c-5.73.41-9,3.86-7.7,9.83.42,1.9.66,4.47,2.05,6,1.85,1.95,2.39.51,3.19,4.16a41.72,41.72,0,0,1,.41,7.34L175,253.5c-4.07-3.88-1.34-8.29-1.87-13-.4-3.61-2.23-7.17-3.48-10.55a2.16,2.16,0,1,0-4,1.68l.47,1c1.07,2.17,4.13.57,3.71-1.57Z"/><path class="cls-1" d="M212.2,242.68c5.23.95,10.69.38,16,.22s10.94.35,16-1.13a1.84,1.84,0,0,0,0-3.52c-5.11-1.28-10.78-.54-16-.38s-10.85,0-16,1.37c-1.61.44-1.79,3.11,0,3.44Z"/><path class="cls-1" d="M214.19,240.28c5.15.35,10.49-.82,15.68-.95s10.56.73,15.74.24a2.09,2.09,0,0,0,.55-4.08c-5.1-1.64-11-1.38-16.29-1.21s-11.31.25-16.18,2.29a1.9,1.9,0,0,0,.5,3.71Z"/><path class="cls-1" d="M213.23,236.55c2,.46,4.59-.31,6.88-.44,2-.11,4.11-.07,6.17-.07a53.1,53.1,0,0,0,11.93-1.14c2.15-.49,1.64-3.79-.51-3.79-8.63,0-17.33-.87-25.95-1.36l.51,3.75a54.44,54.44,0,0,1,22.79,1.12l1-3.74A110,110,0,0,0,215,229.11c-2.33,0-2.3,3.47,0,3.61,12.83.75,25.74-2.35,38.43.56l-.56-4.3c-2.54,1.79-7.89,1.51-11,1.87-3.24.39-6.47.78-9.7,1.2s-3.29,5.2,0,5c8.9-.55,17.81-1,26.72-1.53l-.69-5.11c-4,.88-8.11,1.69-12.16,2.53-3.08.64-2.35,5.47.73,5.43,5.19-.07,10.38-.29,15.58-.47l-.73-5.35c-5.37,1.46-10.61,2.71-16.22,2.4l.69,5.1a33.71,33.71,0,0,1,20-1.77l.65-4.8a180.8,180.8,0,0,1-18.89-1.25v5q10-.27,20-.24c2.63,0,3.33-4.13.64-4.68q-7.18-1.5-14.28-3.33l-.61,4.52a33,33,0,0,1,13.22,1.08v-4.19c-2.92.43-12.32,1.5-11.16,6.64,1.11,4.94,11.61,2,14.66,1.46,2.5-.47,1.95-4.62-.6-4.46a47,47,0,0,0-8.57,1.38c-2.64.66-2.17,5.14.66,4.86,8.2-.8,16.39-1.65,24.59-2.33a2.53,2.53,0,0,0,0-5.06A142.23,142.23,0,0,0,266,231.69v5a158.11,158.11,0,0,1,18.47-.75c3.24,0,3.23-5,0-5-7.4-.16-14.79-.46-22.15-1.31v4.61a139.58,139.58,0,0,1,25.85.73c3.38.38,3.39-5,0-5.32a144.93,144.93,0,0,0-25.85,0,2.31,2.31,0,0,0,0,4.61c7.37.8,14.73,1.52,22.15,1.73v-5a165,165,0,0,0-18.47.76c-3.13.35-3.31,5.05,0,5a145.12,145.12,0,0,1,20.42,1.23v-5.06c-8.21.68-16.41,1.42-24.59,2.44l.66,4.87a72.67,72.67,0,0,1,7.85-1.7l-1.21-4.38c-1,.29-9.22,1.51-9,2.41-.11-.51,7.21-1.84,7.89-1.94,2.24-.33,1.88-3.64,0-4.19a37.44,37.44,0,0,0-14.38-1.49c-2.46.23-3.27,3.8-.61,4.52q7.07,1.91,14.23,3.49l.63-4.69q-10-.16-20,0c-3.28.06-3.13,4.66,0,5,6.29.69,12.57,1.06,18.89,1.14,2.71,0,3.37-4.18.65-4.8A38.6,38.6,0,0,0,244.78,235a2.61,2.61,0,0,0,.69,5.1c6.07.43,11.82-.85,17.67-2.34,3-.75,2.36-5.41-.72-5.35-5.2.11-10.39.18-15.58.39l.73,5.43c4-1,8.05-1.93,12.09-2.84,2.82-.64,2.25-5.31-.7-5.11-8.91.58-17.81,1.18-26.72,1.73v5q6.15-.8,12.29-1.64c3.49-.47,7.84-.25,10.74-2.37,1.49-1.08,1.6-3.84-.56-4.29-13.19-2.79-26.4.23-39.68.36v3.61a67.81,67.81,0,0,1,20,1.9,1.94,1.94,0,0,0,1-3.74,53.37,53.37,0,0,0-24.84-1.06c-2.2.4-1.54,3.65.51,3.75,8.63.43,17.36.51,25.95,1.4v-3.86c-4.68.41-9.38.25-14.08.39-3.84.12-9.11,0-12.65,1.79-4.15,2.09-2.45,6.44,1.85,6.27,1.66-.06,2.16-2.61.41-3Z"/><path class="cls-1" d="M284.74,235.81c5.6,1,11.55.56,17.22.47,3.75-.05,3.66-6.09,0-5.77-4.73.41-9.42.55-14.12,1.31l1.29,4.68c3.95-.83,8.36-1.24,12-2.94,2-.94.91-4-1.09-4-4-.07-8.31,1.43-12.24,2.28-3.1.66-1.74,5.18,1.29,4.68a35.41,35.41,0,0,1,12.06-.32l.77-5.67c-5.7.32-11.59.09-17.22,1-2.15.34-2.12,3.94,0,4.31Z"/><path class="cls-1" d="M217.93,258.06c-1,.34,0-6.78,0-7.15.43-1.95,1.05-3.86,1.59-5.78h-2.84c1.47,3.67.12,8.41.49,12.29.26,2.83,2.15,3.26,4.86,3.69l.39-2.88c-1.3-.05-2.61-.08-3.91-.11a1.51,1.51,0,0,0-.76,2.79c2,1,4.73.62,4.47-2.2a27.8,27.8,0,0,0-.94-2.94,19.13,19.13,0,0,1-.26-4.14c.05-3.4,1-4.81,2.54-7.66a1.2,1.2,0,0,0-1.34-1.74c-2.67.59-3.74,3.47-4.1,6a25,25,0,0,0-.06,5.73,19.52,19.52,0,0,0,.38,2.64l.29,1.1c.18,1.18.35,1.41.53.67l-.75,2.8c1.3,0,2.61,0,3.91,0,1.92,0,1.84-2.75,0-2.93-2.78-.26-2.36-1.47-2.35-3.78,0-1.19,0-2.37,0-3.56a28.09,28.09,0,0,0-.51-6.54,1.49,1.49,0,0,0-2.84,0c-1.4,4.07-3.33,9.74-2.15,14.11.61,2.23,3.29,4,4.76,1.43.51-.89-.35-2.22-1.41-1.83Z"/><path class="cls-1" d="M221.28,226.62a88,88,0,0,1,6.92-5.73c2.08-1.73,2.17-2.38,5.45-2.76a42.43,42.43,0,0,1,5.75.13c4.63.11,9.82-.64,13.87,2,3.29,2.15,5.32,6.41,7,9.76.7,1.42,2.52.33,2.33-1-.63-4.46-4.43-8.59-7.75-11.43-3.73-3.18-8.88-2.24-13.5-2.25-4.2,0-9.79-1.4-13.17,1.44-3,2.54-7.28,4.87-8.36,8.93a.9.9,0,0,0,1.49.87Z"/><path class="cls-1" d="M230.86,215.72c-1.89-2.18-4.16.81-5.26,2.22a35.31,35.31,0,0,0-5.37,8.28c-.16.42.49.65.71.3a27.21,27.21,0,0,1,4.68-6.27c.87-.78,1.83-1.41,2.68-2.2a21.67,21.67,0,0,1,2.47-1.65.45.45,0,0,0,.09-.68Z"/><path class="cls-1" d="M219.06,228l-.8,1.3c-.21.34.32.64.54.31l.83-1.28c.23-.35-.34-.69-.57-.33Z"/><path class="cls-1" d="M219,229a.3.3,0,0,0,0-.6.3.3,0,0,0,0,.6Z"/><path class="cls-1" d="M214.18,230a4.26,4.26,0,0,0-1.14-.54.46.46,0,0,0-.25.89,3.11,3.11,0,0,1,1,.4c.48.29.89-.44.43-.75Z"/><path class="cls-1" d="M214.23,229.59c-.52-.32-1.08-.59-1.61-.9a.89.89,0,0,0-1.07.14,1.77,1.77,0,0,0-.26.35,1,1,0,0,0,.14,1.11l0,.05-.21-.37a1.11,1.11,0,0,0,1.09.85.65.65,0,0,0,.55-1,.28.28,0,0,1,0-.09l-.41.72a1.35,1.35,0,0,0,.45-.57l-1,.41a8.25,8.25,0,0,1,1.52.59.76.76,0,0,0,.77-1.31Z"/><path class="cls-1" d="M301.13,234.61c3.59.26,7.36-.46,10.95-.79a80.53,80.53,0,0,0,9.82-1c1.74-.37,1.22-2.85-.4-3-3.61-.24-7.39.38-11,.82-3.22.39-6.63.6-9.69,1.7a1.17,1.17,0,0,0,.31,2.28Z"/><path class="cls-1" d="M295.05,229.37a11.25,11.25,0,0,0,1.59-4.91,38.17,38.17,0,0,1,2.24-8h-2.66c.76,2,.17,4.53.22,6.64a21.44,21.44,0,0,0,.91,6L300,228c-1.31-1.89-3.07-4-3.72-6.28l-1.77.75a13.23,13.23,0,0,1,1.16,6.84h2.84a5.72,5.72,0,0,1,.24-2.72c.42-1.55-1.75-2-2.33-.65a10,10,0,0,0-1,4c0,1,1.5,1.51,2,.53a29.59,29.59,0,0,0,1.35-3.91l-2.33-.65a15.64,15.64,0,0,0-.75,3.37c-.22,1.78,2.72,1.85,2.84,0a11.52,11.52,0,0,0-2.48-8c-.71-.92-2,.24-1.52,1.17,1.14,2.31,1.7,4.72,3,7a1.43,1.43,0,0,0,2.6-1.1,25.48,25.48,0,0,1-.82-7.17c0-1.81.21-3.7-.4-5.44a1.39,1.39,0,0,0-2.66,0,32.59,32.59,0,0,0-2.13,6.6c-.34,1.93-.08,4.1-.95,5.88a1.11,1.11,0,0,0,1.91,1.12Z"/><path class="cls-1" d="M242.51,244.54s-.85,0-.7-.09l-.12.51a.91.91,0,0,1,.16-.11,2.15,2.15,0,0,0,.79-.68,1.28,1.28,0,0,0-1.81-1.8c-.23.19-1,.88-1.25.85l.68.18-.15-.12.6.79c-.27-.73-.36-1.48-1.26-1.7s-1.5.44-2.08,1a1.31,1.31,0,0,0,.57,2.15c1.13.47,2.26,1.43,3.51.85a.8.8,0,0,0,.41-.71c0-1.58-2-2.2-3.24-2.62l.57,2.15.34-.37c.26-.23.23-.24-.08,0l-1-.13c-.26-.78-.4-1-.39-.58a1,1,0,0,0,0,.46,1.59,1.59,0,0,0,.38.82,1.67,1.67,0,0,0,1.44.55c1.06-.08,1.94-1.05,2.69-1.73l-2-1.54c-.24.39-.73.58-1,1a1.83,1.83,0,0,0,0,1.8c.77,1.32,2.26.78,3.32.24.67-.34.18-1.28-.48-1.15Z"/><path class="cls-1" d="M243.12,245.61c0-.14,1.32-.43,1.44-.46a2.85,2.85,0,0,1,.7-.12c.5,0,.56-.05.17-.26l.21-1.59a3.64,3.64,0,0,1-2.17.9l.39,2.91a20.22,20.22,0,0,1,3-.57,8.32,8.32,0,0,1,2.63-.09l-1-1,.05.14,1-1.7c-.47.12-1.48.44-1.95.16l.6.79-.07-.26-.34,1.26c.2-.21,2.31.22,2.65.26,1,.12,1.52-1.35.83-2-.45-.42-.38-.55-.37,0l-.59,1,.16-.1h-1.19l.05.35c0,2.11,3.31.93,2.22-.6l-.14-.2a1,1,0,0,0-1.78,0l-.14.2,2.22.6a2.59,2.59,0,0,0-1.24-2.39,1.2,1.2,0,0,0-1.19,0c-1.36.94-.56,2,.33,2.78l.83-2c-1.36-.16-4.88-1.11-4.85,1.3s3.27,1.85,4.69,1.49a1.39,1.39,0,0,0,1-1.7c-.75-2.59-6.37-1.11-8.14-.63s-1.05,3.13.78,2.86a6,6,0,0,0,3.64-2,1.32,1.32,0,0,0,0-1.86c-1.07-.88-2.28-.59-3.55-.25-1.11.3-2.84.74-3,2.07s2,2.06,2.21.61Z"/><path class="cls-1" d="M243.93,245.38h-.23a1.13,1.13,0,0,0-1,.57c-1.05,2.05-.48,5.56-.53,7.82l2.64-.35c-.83-2.18-1.7-4.33-2.55-6.49-.44-1.11-2.46-1.53-2.69,0a12.84,12.84,0,0,0,.17,5.09,1.42,1.42,0,0,0,2.08.85c1.92-1.21,1.73-3.77,2.94-5.55l-2.48-.67c0,2.45-1,6.81,1,8.7a1.49,1.49,0,0,0,2.44-.65c.82-2,.65-4.17,1.82-6l-2.39-1a50,50,0,0,0-.59,5.85,1.53,1.53,0,0,0,2.82.77c.86-1.6.43-3.3,1.08-4.93l-2.38-.66a11.78,11.78,0,0,0,.25,4.54c.4,1.72,2.83,1.22,2.94-.4.06-1,.1-2.08.18-3.12h-2.3a10.25,10.25,0,0,0,1,4.36,1.43,1.43,0,0,0,2.65-.72,37.22,37.22,0,0,1-.24-4,1.3,1.3,0,0,0-2.59,0,16.27,16.27,0,0,0,.06,2.42c.13,1.48,2.42,2,2.77.37s0-3.43.28-5.14,1.78-2.71,1.71-4.53-3-1.9-3,0c0,.86-.82,1.51-1.16,2.27a6.31,6.31,0,0,0-.49,1.86c-.23,1.71.07,3.44-.15,5.17l2.77-.38a10,10,0,0,1-.24-2H248c.1,1.31,0,2.64,0,4l2.79-.38c-.43-1.19-.9-2.36-1.32-3.56a1.16,1.16,0,0,0-2.22,0c-.26,1-.58,2-.86,3h2.88a26.48,26.48,0,0,1-.75-3.75c-.21-1.36-2-1-2.38,0-.55,1.33-.57,2.83-1.31,4.06l2.81.76c0-1.83.13-3.67.14-5.5a1.32,1.32,0,0,0-2.44-.66c-1,2-1.27,4.2-2.22,6.2l2.28-.29c-.63-.55-.32-2.54-.34-3.28,0-1.12-.07-2.24-.07-3.36a1.34,1.34,0,0,0-2.48-.67,9.26,9.26,0,0,0-1.21,2.09c-.22.53-.34,2-.86,2.35l2.09.85a9.09,9.09,0,0,1-.22-3.6h-2.69c.92,2.26,1.83,4.53,2.78,6.78.54,1.27,2.52.57,2.51-.68l-.06-3.45c0-1-.33-2.58,0-3.49l-1.1.83.23,0a1.13,1.13,0,0,0,0-2.25Z"/><path class="cls-1" d="M243.33,253.78c-2.83.33-3,3-3.38,5.47a42.71,42.71,0,0,0,.23,12.62c.23,1.49,2.8,1.16,2.66-.36A30.61,30.61,0,0,1,246.71,254L244.18,253a66,66,0,0,0-2.85,10.41c-.34,1.89-1.24,4.6-.06,6.31.66.94,2.51,1,2.74-.35a42,42,0,0,1,4.15-12.46l-2.74-1.16a62.24,62.24,0,0,0-2.79,11.58c-.28,2,2.52,2.87,3.07.84a78.6,78.6,0,0,1,3.63-10.65l-2.77-1.17a59.76,59.76,0,0,0-1.94,8.24c-.35,2.09,2.87,3,3.19.87.48-3.08.65-6.34,1.54-9.34.49-1.66-1.76-2.42-2.67-1.12a12.78,12.78,0,0,0-2.36,7.19,1.4,1.4,0,0,0,2.36,1,3.55,3.55,0,0,0,1.1-1.47c.44-.87-.47-2-1.39-1.39l-1.06.55,1.7,1.7a18.26,18.26,0,0,1,2.17-6.09l-2.72-.73c-.24,3-1.22,5.92-1.86,8.85l3.19.87c.41-2.8,1-5.55,1.67-8.3a1.52,1.52,0,0,0-2.92-.81c-1.45,3.61-2.77,7.26-3.93,11l3.07.84a82.35,82.35,0,0,1,2.61-11.62c.48-1.6-2-2.69-2.74-1.16a47.69,47.69,0,0,0-4.45,13.18l2.74-.36c-.93-1.36.59-5.68.95-7.33a65.33,65.33,0,0,1,2-7.14,1.39,1.39,0,0,0-2.53-1.07,36.7,36.7,0,0,0-4.19,18.87l2.66-.36a41.24,41.24,0,0,1-.48-7.69c.07-2-.23-6.47,1.52-7.81.68-.52.61-2-.5-1.87Z"/><path class="cls-1" d="M246.86,256.4a27.91,27.91,0,0,0,0,23.21c.67,1.52,3.29.44,2.7-1.14-1.22-3.3-2.22-6.69-3.43-10-.41-1.13-.47-2-1.66-2.56a1.56,1.56,0,0,0-1.8.23c-3.14,3.16,1,12.14,2.11,15.28l2.74-1.16a59.35,59.35,0,0,1-4.25-8.84c-.54-1.41-3.08-1.39-2.88.39A27.26,27.26,0,0,0,245.28,285a1.53,1.53,0,0,0,2.83-.77c0-2.06-.39-3.91-.58-6a1.25,1.25,0,0,0-2.5,0,8.52,8.52,0,0,0,2.22,6.65,1.51,1.51,0,0,0,2.51-.66c.19-.74.36-1.48.48-2.23l-2.64.34a6.7,6.7,0,0,0,1.26,2c.89,1.15,3.07-.11,2.5-1.46-2.52-6-4.76-12-3.52-18.6l-2.73-.37A64.71,64.71,0,0,0,247,279.32c.42,1.6,3,1.31,2.94-.4-.2-4.13-.27-8.28-.39-12.42a1.41,1.41,0,0,0-2.81,0,16.42,16.42,0,0,0,1.71,9.77,1.2,1.2,0,0,0,2.18-.92,20.36,20.36,0,0,1-1.08-8.85h-2.81c.08,4.14.21,8.28.21,12.42l2.93-.39a50.37,50.37,0,0,1-1.94-14.59,1.4,1.4,0,0,0-2.73-.37c-1.75,7.09.64,13.6,3.31,20.14l2.51-1.46-.88-1.37c-.55-1.18-2.32-.76-2.64.35a21,21,0,0,0-.6,2.2l2.51-.66-1.84-4.53-2.45.33a18.64,18.64,0,0,1,0,5.63l2.83-.76a24.77,24.77,0,0,1-4.62-11.62l-2.87.39a63.21,63.21,0,0,0,4.48,9.58c.82,1.43,3.34.47,2.74-1.16s-1.19-3.17-1.68-4.79c-.23-.76-1.11-6.1-1.2-6.18-1.29-1.26.23,4.06.24,4.1q.87,2.75,1.68,5.5l2.85-.79a29,29,0,0,1-.6-21.2c.41-1.2-1.55-2-2.07-.87Z"/><path class="cls-1" d="M254.74,272.34c-.48-1.87-.82-7.35-2.09-8.8-1.11-1.25-.55.45-.61,1.2-.14,1.71,0,3.51-.11,5.23l2.69-.36a23.51,23.51,0,0,1-.16-11.06l-2.68-.37A85.09,85.09,0,0,1,252,269l2.93-.4a14.44,14.44,0,0,1-.42-7l-2.66.34c2,4.36,1.51,10.12,1.7,14.85l3-.4c-1.18-3.33-2.4-7.1-1.74-10.67l-2,.25a19.9,19.9,0,0,1,1.33,10.2c-.69,4.7-1-3.65-.93-5.05l-2.52.34c.8,4.12,1.39,8.26,1.83,12.43.2,1.85,3,2,3,0-.05-3.49-.37-7-.39-10.44h-2.23a41.76,41.76,0,0,0,1.51,11.44c.46,1.73,2.89,1.26,3-.41a48.22,48.22,0,0,1,1.18-7.92l-2.82-.78-.85,5.95a1.48,1.48,0,0,0,2.86.79c1.22-3.49.83-6.77-.25-10.25-1.52-4.87-2.33-9.71-3.63-14.6a1.5,1.5,0,0,0-2.9.79c1,3.78,1.2,7.54,2.48,11.27,1.37,4,2.91,7.72,1.44,12l2.86.79.81-6c.24-1.8-2.31-2.66-2.82-.78a40.21,40.21,0,0,0-1.42,8.7l3-.41a49.21,49.21,0,0,1-2.24-10.62c-.15-1.39-2.23-1.47-2.23,0,0,3.48-.31,7-.34,10.44l2.91-.4c-.6-4.27-1.38-8.49-2.27-12.71-.31-1.51-2.39-1-2.52.34-.18,2,.17,14.74,5.21,10.87,1.85-1.43,1.2-5.62,1.14-7.5-.12-3.51-.18-7.06-2.49-9.82a1.09,1.09,0,0,0-1.84.76c.17,4.07-.13,7.77.94,11.76a1.51,1.51,0,0,0,3-.4c-.07-5.38.13-11.35-2.19-16.32a1.47,1.47,0,0,0-2.66.35,17.54,17.54,0,0,0,.34,8.57c.39,1.69,2.89,1.25,2.94-.39a76.83,76.83,0,0,0-.46-10.83c-.16-1.41-2.31-2-2.68-.36a24.27,24.27,0,0,0,.15,12.52,1.38,1.38,0,0,0,2.69-.37c0-1.64,1.12-12.17-3.12-11s.58,11.74,1.38,13.83a.94.94,0,0,0,1.81-.5Z"/><path class="cls-1" d="M253.19,261.13a9,9,0,0,1,.88,3c.1.89-.12,2,.65,2.6a.94.94,0,0,0,1.11.14c1.12-.68.87-2.13.64-3.24a9.07,9.07,0,0,0-1.61-3.46,1,1,0,0,0-1.67,1Z"/><path class="cls-1" d="M177.48,236.85a6.74,6.74,0,0,1,4.6-.19l-.52-3.93a24.08,24.08,0,0,0-6.42,6.15c-1.14,1.55.76,3.8,2.49,3.23a24.43,24.43,0,0,0,6.5-3.2l-2.63-3.41a18.24,18.24,0,0,1-5.57,3.13c-2.77,1-1.7,5.26,1.24,4.49,2.61-.69,5.2-1.41,7.78-2.2L183.32,237c-2.19,1.11-4.32,2.27-6.4,3.57a2.13,2.13,0,0,0,2.15,3.68,34.11,34.11,0,0,1,10.86-3.45l-1.08-3.91c-4.4,1.6-8.81,3.1-13.11,4.95-1.87.8-.86,3.77,1,3.72,2.8-.08,5.1-1.17,7.76-1.95A51.34,51.34,0,0,1,195.88,242c6.62-.42,13.1-.61,19.41-2.89,3-1.08,1.69-5.93-1.33-4.82-6.42,2.36-13.09,2.58-19.82,3.29a64.37,64.37,0,0,0-7.43,1.13c-3.31.75-6.57,2.74-10,2.9l1,3.73a71.35,71.35,0,0,1,12.17-4.49c2.17-.55,1.78-4.16-.54-4a30.75,30.75,0,0,0-12.47,3.76l2.15,3.68a58,58,0,0,1,6.39-3.58c2.27-1.09.59-4.34-1.64-3.88-2.64.54-5.26,1.15-7.89,1.8l1.8,4.25a39.56,39.56,0,0,0,6.84-4.31c1.93-1.5-.6-4.8-2.63-3.41a19.47,19.47,0,0,1-5.48,2.71l2.48,3.23a21.4,21.4,0,0,1,4.79-4.66c1.32-1,1.49-3.57-.51-3.92a8.67,8.67,0,0,0-7,1.3c-1.54,1-.58,3.63,1.27,3Z"/><path class="cls-1" d="M209.65,240.86a39.75,39.75,0,0,0,1-8.84l-4.06,1.68c.73.78.57,2.65.6,3.68,0,1.37-.12,2.71-.2,4.08-.13,2.37,3.86,3,4.21.57a19.56,19.56,0,0,0,.09-4.65c-.06-.63-.14-1.27-.24-1.89a10.08,10.08,0,0,1-.49-2.84c.65-3.41-4.56-4.08-4.66-.63a72,72,0,0,1-.72,7.61c-.41,2.86,3.75,4.21,4.46,1.23Z"/><path class="cls-1" d="M181.51,239.34c-.65-1.17,8.74-2.67,9.45-2.71,3.11-.17,6.24,0,9.34.17a69.22,69.22,0,0,0,18.46-1.16c2.46-.56,2-4.78-.6-4.48a109.12,109.12,0,0,1-16.15,1c-4.73-.16-9.42-.48-14.11.35-3,.54-13.89,4.15-8,8.45,1,.74,2.16-.67,1.63-1.63Z"/><path class="cls-1" d="M197.08,239.1a37.68,37.68,0,0,1,8.39-1.08l-.55-4.08a11.8,11.8,0,0,0-3.29,1.5c-1.74,1.06-1.19,4.41,1.12,4.15a62,62,0,0,1,9.22-.75c1,0,4.36,1,5.09.68.05,0-2.66-.11-3.13-.05-2,.28-1.45,2.95,0,3.5,3.21,1.22,11.43-1.23,8.09-5.89-3.65-5.07-14.86-2.8-19.86-1.87l1.72,4.08a6.11,6.11,0,0,1,2.64-1.55c1.89-.81.94-4.05-1.05-3.88a58.75,58.75,0,0,0-9.39,1.63c-2.34.58-1.35,4.2,1,3.61Z"/><path class="cls-2" d="M170.19,256.64c.95-4.24-.54-8.51-1.76-12.56a70.93,70.93,0,0,1-2.8-16,1.5,1.5,0,0,0-2.94-.4c-1.47,4.37-.22,9.13,1.08,13.41,1.55,5.11,2.8,10.51,4.62,15.51.29.8,1.58,1,1.8,0Z"/><path class="cls-2" d="M164.51,229.47c1.9.07,3.78-.06,5.67.1a22.31,22.31,0,0,0,5.22.25c1.26-.19,1.39-2.12.35-2.67-3.16-1.67-8.24-1.27-11.61-.46a1.42,1.42,0,0,0,.37,2.78Z"/><path class="cls-2" d="M174.11,229.13c-2.56,3.94-1.3,11-1.15,15.51a36.28,36.28,0,0,0,.86,6.31c.65,3.1,1.3,6.76-3.62,4.36a1.49,1.49,0,0,0-2.2,1.27v.74a2,2,0,0,0,1.41,1.85,16.9,16.9,0,0,0,7.22-.15,1.76,1.76,0,0,0,1.24-1.24c1.06-4.32-1.07-8.84-1.25-13.14-.2-4.74,1.45-11.41-1.22-15.51a.75.75,0,0,0-1.29,0Z"/><path class="cls-2" d="M209.27,230.06c1.86,4.75.88,8.57,0,13.35a1.55,1.55,0,0,0,2.83,1.19c1.54-2.44,1.91-5.81,1.8-8.65-.09-2.24-.29-5.47-2.09-7a1.55,1.55,0,0,0-1.77-.23l-.26.12a1.11,1.11,0,0,0-.51,1.26Z"/><path class="cls-2" d="M211.84,227.59l-.2,0a1.46,1.46,0,0,0-1.06,1.39c-.13,3.05-.16,6.87,1.12,9.69.59,1.29,2.33.49,2.43-.66a26.09,26.09,0,0,0-.38-4.49c-.14-1.51-.2-3-.28-4.54a1.5,1.5,0,0,0-1.06-1.39,1.11,1.11,0,0,0-.57,0Z"/><path class="cls-2" d="M209.63,229c9,.88,18.2.24,27.24.32,8.37.07,17.43,1.33,25.7.05,1.53-.24,1.41-2.65,0-3-8.38-1.93-18.12-1-26.68-.95-8.8,0-17.86-.23-26.58,1.21-1.43.24-.92,2.23.32,2.35Z"/><path class="cls-2" d="M209.62,245.88c9.58.4,19.5-1.32,29.1-1.81,8.95-.45,19,.55,27.66-1.54a1.62,1.62,0,0,0,0-3.1c-9-1.94-19.52-.24-28.64.38-9.34.63-19.44.68-28.52,3.08a1.53,1.53,0,0,0,.4,3Z"/><path class="cls-2" d="M265.6,241.42c3.69-3.43,1.87-9.12,1-13.27-.52-2.45-4-1.34-3.67,1,.29,2.11,1.25,3.92,1.24,6.1,0,1.95-.66,3.87,0,5.77a.88.88,0,0,0,1.46.38Z"/><path class="cls-2" d="M267.16,228.48l-.2,0a.6.6,0,0,0-.73.72l0,.2a.72.72,0,0,0,1.19.32.73.73,0,0,0-.31-1.2Z"/><path class="cls-2" d="M262.82,229.39c.51-.51,6.11.48,7.31.53,3.34.14,6.67.24,10,.35,5.67.18,11.9,1.16,17.48,0,1.63-.33,1.53-2.8,0-3.19-7.09-1.8-15.64-.78-22.94-.88-3,0-12.76-2-14,1.89a1.31,1.31,0,0,0,2.18,1.27Z"/><path class="cls-2" d="M263.65,242.38c6.38.67,13.1-.51,19.47-1,5.83-.49,12.43-.28,18-2.23,1.4-.48,1.81-3,0-3.25-6.15-.88-12.8.62-18.94,1.31s-12.86.85-18.84,2.71a1.29,1.29,0,0,0,.34,2.51Z"/><path class="cls-2" d="M297,230c3.47,1.57,2.52,5.77,4.92,8.18a1.53,1.53,0,0,0,2.54-.67c.4-2.25-.68-5-1.65-7a6,6,0,0,0-4.94-3.72c-1.65-.1-2.43,2.51-.87,3.22Z"/><path class="cls-2" d="M217.94,227.89c1.69-1.59,3.18-3.39,4.75-5.09s3.46-3.22,4-5.33c.22-.9-.65-2-1.65-1.65-2.29.91-3.72,3.36-5.14,5.28-1.15,1.55-3.75,4.05-3.7,6.06a1,1,0,0,0,1.75.73Z"/><path class="cls-2" d="M223.25,228.33c2.13-.87,3.69-2.73,5.2-4.4s3.76-3.47,3.78-5.87a1.42,1.42,0,0,0-1.78-1.36c-2.25.43-3.6,3-4.9,4.67s-3,3.62-3.46,5.81c-.13.62.45,1.45,1.16,1.15Z"/><path class="cls-2" d="M229.86,220c3,.44,6.2.35,9.27.49,3.93.17,8,.73,11.87.4,1.7-.14,2.25-2.63.42-3.11-4.2-1.08-8.75-1.06-13.08-1.21-3-.1-6.7-.82-9,1.41a1.21,1.21,0,0,0,.53,2Z"/><path class="cls-2" d="M248.74,220.34c.93,1.45,2.79,2.37,4,3.59s2.3,2.95,3.8,3.9a1.35,1.35,0,0,0,2-1.16c-.26-2.08-1.82-3.85-3.35-5.21s-3.43-3-5.4-3a1.27,1.27,0,0,0-1.09,1.89Z"/><path class="cls-2" d="M223.83,219.11a8.43,8.43,0,0,0,3.28-1.5c1.13-.67,2.37-1.36,2.8-2.66a1.42,1.42,0,0,0-1.37-1.8c-1.37.08-2.36,1.1-3.31,2a8.62,8.62,0,0,0-2.29,2.78.92.92,0,0,0,.89,1.16Z"/><path class="cls-2" d="M227.33,215.39c3.67.92,7.64.25,11.41.36,4.29.12,8.57.63,12.85.84,1.36.07,1.37-1.74.3-2.18-6.83-2.79-18.1-4.49-24.75-.46a.8.8,0,0,0,.19,1.44Z"/><path class="cls-2" d="M251.09,217.28c2,1.76,4.1,3.12,5.88,5.21,1.95,2.3,3.43,5.24,5.75,7.17a1.36,1.36,0,0,0,2.26-1.31c-.81-3.29-3.59-6.23-5.78-8.71-1.81-2-4.29-4.62-7.24-4.47a1.25,1.25,0,0,0-.87,2.11Z"/><path class="cls-2" d="M223.73,231.55a5.36,5.36,0,0,0-.46,2,2.47,2.47,0,0,0,.6,1.92.74.74,0,0,0,1.21-.32,3.16,3.16,0,0,0-.09-1.72c-.09-.59-.24-1.19-.28-1.78a.5.5,0,0,0-1-.14Z"/><path class="cls-2" d="M224.13,236.3c4.28-.25,8.56.1,12.82-.1a1,1,0,0,0,.26-1.86c-4.16-1.21-9.15-.75-13.31.24a.88.88,0,0,0,.23,1.72Z"/><path class="cls-2" d="M223.17,232c2,.87,4.21.7,6.33.75,2.39.05,4.95.36,7.26-.28a1,1,0,0,0,0-1.83c-2.19-.53-4.52-.23-6.76-.22s-4.6-.36-6.67.38c-.47.17-.73.95-.16,1.2Z"/><path class="cls-2" d="M235.78,232.92l.12.05-.46-.36c.39.68-.32,1.91-.15,2.74a1,1,0,0,0,1.91.25,4.75,4.75,0,0,0,.4-3.06c-.22-1-1.36-1.66-2.12-.78a.71.71,0,0,0,.3,1.16Z"/><path class="cls-2" d="M300.19,231c3.83,1,8,.19,11.95.15,4.59,0,9.2.31,13.78,0,1.15-.08,1.57-1.9.29-2.15a63.06,63.06,0,0,0-14.07-.68c-4,.14-8.37-.06-12.08,1.64a.58.58,0,0,0,.13,1Z"/><path class="cls-2" d="M300.06,236.39a97.18,97.18,0,0,0,25-1.2c1.32-.24.89-2.14-.3-2.22a85.72,85.72,0,0,0-24.85,2c-.83.21-.58,1.33.19,1.41Z"/><path class="cls-2" d="M323.36,230.67a16.42,16.42,0,0,0,.59,3.7,1.09,1.09,0,0,0,2.13-.29,16.08,16.08,0,0,0-.56-3.7c-.23-1.2-2.31-.94-2.16.29Z"/><path class="cls-2" d="M317.14,227.17c-1.39,1.47-.63,4.63-.46,6.48.16,1.63.05,4,2,4.52a.8.8,0,0,0,1-1,35,35,0,0,1-.83-5.69c-.09-1.47.23-3.22-.85-4.34a.59.59,0,0,0-.83,0Z"/><path class="cls-2" d="M317.11,228.56c2.73.71,6,.42,8.81.5,3.35.1,6.87.53,10.16-.13a1.17,1.17,0,0,0,0-2.24c-2.81-.82-5.88-.5-8.79-.47-3.2.05-6.4.09-9.59.29a1.07,1.07,0,0,0-.94.54l-.15.3a.83.83,0,0,0,.5,1.21Z"/><path class="cls-2" d="M318.79,238.16c5.74,1,13.3.77,18.77-1.39,1.15-.45,1.12-2.35-.31-2.3-3,.1-6,.81-9.05,1.13s-6.1.31-9.15.61c-1,.1-1.45,1.75-.26,1.95Z"/><path class="cls-2" d="M335.14,228.58a10.45,10.45,0,0,1,1.13,6.49c-.12,1.12,1.39,1.26,1.91.52a5.25,5.25,0,0,0,.31-4.92c-.42-1.23-.94-3-2.29-3.48a1,1,0,0,0-1.06,1.39Z"/><path class="cls-2" d="M319.84,233.13a19.38,19.38,0,0,1,2.54-2l-1.3-1.68a8.24,8.24,0,0,0-2.34,3.49,1.21,1.21,0,0,0,.83,1.46c2.05.82,5.09-2.79,6.54-3.79l-1.19-1.54c-1.87,1.77-3.63,3.65-5.4,5.52a1.16,1.16,0,0,0,1.39,1.81c3.21-1.52,5.56-4.27,8.78-5.77l-1.4-1.81a53.18,53.18,0,0,0-6.87,6.55,1.18,1.18,0,0,0,1.67,1.66c2.52-2.13,4.76-4.45,7.58-6.2l-1.3-1.68c-1.23,1.58-2.37,3.21-3.5,4.86-.69,1,.65,2.24,1.63,1.63,2-1.22,3.66-4.65,5.82-5.2l-.87-1.5c-1.7,2-4,3.67-5.92,5.5-1.1,1,.51,2.6,1.63,1.64a47.66,47.66,0,0,1,6-4.5l-1.37-1.78q-1.69,1.89-3.28,3.87a1.27,1.27,0,0,0,1.79,1.79,7.86,7.86,0,0,0,2.62-3.35c.2-.52-.48-.93-.91-.69-1.12.63-2.13,1.41-3.24,2.05l1.73,1.74c.94-1.29,1.91-2.56,2.89-3.81a1.13,1.13,0,0,0-1.6-1.6c-2,1.56-4,3-6,4.46l1.4,1.82c2-1.82,4.75-3.69,5.79-6.27.36-.89-.9-1.42-1.5-.87a35.76,35.76,0,0,1-6.16,4.64l1.64,1.63c1.08-1.57,2.15-3.13,3.13-4.76a1.08,1.08,0,0,0-1.69-1.3c-2.32,2.36-5.08,4-7.71,6l1.43,1.85a62.45,62.45,0,0,1,6.83-6.58c1.06-.9-.29-2.34-1.4-1.81-3.2,1.52-5.58,4.23-8.77,5.77l1.4,1.81c1.75-1.89,3.51-3.78,5.16-5.76.65-.79-.22-2.26-1.19-1.55-.55.41-4.44,3.38-4.92,3.2l.83,1.46a6.46,6.46,0,0,1,1.56-2.61c.76-.85-.25-2.43-1.29-1.68a23.63,23.63,0,0,0-2.87,2.41c-.92.91.47,2.28,1.41,1.41Z"/><path class="cls-2" d="M334,230.12a19.88,19.88,0,0,1-1.87,3c-.77,1,.69,2.24,1.68,1.68a7.66,7.66,0,0,0,1.79-1.35l-1.89-.79,0,.68a1.09,1.09,0,0,0,1.84.76,3.94,3.94,0,0,0,.49-4.62c-.64-1.27-2.49-.15-1.9,1.12.1.22.88,1.69.69,1.95s-.62.08-.84.13c-1.14.25-2.71-.11-3.91,0a36.93,36.93,0,0,0-6.73,1.4,1.26,1.26,0,0,0,.67,2.43c3.58-.76,7.22-1.38,10.77-2.3a1.14,1.14,0,0,0-.61-2.19c-3.1.66-6.22,1.2-9.34,1.79l1.13,1.94c1.61-2,5-3.32,7.24-4.62a1.11,1.11,0,0,0,0-1.89c-2.18-1.06-5.25-.1-7.51.34l.58,2.12A40.92,40.92,0,0,1,334,230.5c1.41-.11,1.42-2.32,0-2.2-2.56.21-5.1.51-7.65.8l.31,2.27c1-.25,2.05-.48,3.09-.68.47-.09,2.47-.75,2.82-.52,1,.65,2.1-.81,1.28-1.65-1.53-1.55-6.06.2-7.81.62-1.24.29-1,2.42.31,2.27,2.65-.3,5.3-.58,7.94-.95l-.58-2.12c-2.7.41-5.38.8-8.07,1.26-1.4.24-.79,2.33.58,2.12,1.67-.26,4.44-1.15,6.08-.46l-.26-2q-2.25,1.35-4.52,2.66a11.26,11.26,0,0,0-3.25,2.21,1.17,1.17,0,0,0,1.13,1.94c3.1-.63,6.21-1.3,9.33-1.84l-.61-2.19c-3.63.53-7.23,1.37-10.83,2.06l.67,2.43a26,26,0,0,1,6.5-1.55c1.62-.14,3.7.54,5.24.13,2.56-.69,1-4.14.28-5.62l-1.9,1.12a1.89,1.89,0,0,1-.28,2.2l2,.54.08-.68c.12-1.06-1.24-1.3-1.89-.78l-1.17.68,1.2,2.05a13.17,13.17,0,0,0,2.05-3.61c.46-1.23-1.52-2.06-2.11-.89Z"/><path class="cls-2" d="M292.9,229.32a40.35,40.35,0,0,0,2.69-6.76c.9-2.5,2.12-5.05,2.55-7.68A1.17,1.17,0,0,0,296,214a28,28,0,0,0-3,7.32,27.76,27.76,0,0,0-1.64,7.61.8.8,0,0,0,1.48.4Z"/><path class="cls-2" d="M295.7,215c1.33.36,3.43.49,4.35-.71a.84.84,0,0,0-.5-1.22,2.48,2.48,0,0,0-1.32.09,10.53,10.53,0,0,1-1.36.17c-.83.07-1.49.38-1.46,1.29a.39.39,0,0,0,.29.38Z"/><path class="cls-2" d="M298.29,214.27a32.71,32.71,0,0,0,3.16,16.4c.55,1.05,1.91.26,1.76-.74-.4-2.67-1.34-5.25-1.86-7.91s-.61-5.37-1.16-8c-.24-1.13-1.8-.76-1.9.25Z"/><path class="cls-2" d="M217.09,245.19a.26.26,0,0,0,0-.51.26.26,0,0,0,0,.51Z"/><path class="cls-2" d="M215.86,244.23c-2.59,2.16-2.9,7.57-3.3,10.74-.3,2.34-.54,5,1.74,6.37a.9.9,0,0,0,1.23-1.23c-3-4.81,2.37-10.79,1.18-15.66a.51.51,0,0,0-.85-.22Z"/><path class="cls-2" d="M213.9,261.23c.82,1.56,3.23,1.81,4.84,1.93a10.75,10.75,0,0,0,6.07-1.29,1.08,1.08,0,0,0-.82-2,16,16,0,0,1-5.25.81c-1.47-.06-3-.88-4.44-.47a.68.68,0,0,0-.4,1Z"/><path class="cls-2" d="M223,244.38a17.62,17.62,0,0,0-2.31,9.08c0,.52.56,8,2.69,6.41-.85.64-.77,2.53.63,2.35l.36-.05a1.42,1.42,0,0,0,1.32-1c.41-2.34-1.95-3.76-2.27-6.05-.48-3.39.7-6.71,1.42-10a1,1,0,0,0-1.84-.78Z"/><path class="cls-2" d="M223,248.79a8.11,8.11,0,0,0,2.78-4.33,1.15,1.15,0,0,0-2.22-.61,16,16,0,0,1-1.92,3.57c-.5.81.53,2,1.36,1.37Z"/><path class="cls-2" d="M214.11,245.58l-.08.08-1.35-.36c1.44,1.87.72,3.9.48,6h2a37.52,37.52,0,0,0,.14-4.23c-.13-1.18-.84-1.78-1.53-2.67s-2.26.42-1.43,1.43c.22.27.5.49.7.76a2.43,2.43,0,0,1,.34,1.8c0,1-.12,1.93-.25,2.91-.15,1.17,1.67,1.3,2,.27.79-2.51.76-5.38-.93-7.48-.9-1.11-2.53.91-1.2,1.55a2.42,2.42,0,0,0,.59.2.41.41,0,0,0,.49-.28Z"/><path class="cls-2" d="M223.21,248c.21-.57,1-.93,1.52-1.26a17,17,0,0,1,1.54-.93c1-.54,2.18-.77,3-1.56a.78.78,0,0,0-.34-1.29c-1.49-.33-3.17.69-4.34,1.55s-2.49,1.92-2.4,3.35a.53.53,0,0,0,1,.14Z"/><path class="cls-2" d="M228.33,213.49c3.3,1.45,7,1,10.61,1.28,4.75.32,9.48.88,14.21,1.38,1,.11,1.29-1.65.25-1.85a123.17,123.17,0,0,0-12.56-1.6c-4-.3-8.68-1.21-12.45.33-.17.07-.28.36-.06.46Z"/><path class="cls-2" d="M224.71,232.34l-.39.12.57,2.06c.86-.28,1.73-.55,2.57-.89l-1.13-1.46a3,3,0,0,1-1.58,1.26l.83,2c.49-.29,2.49-2,2.87-1.92l-.44-1.66c-.48.4-1,.79-1.47,1.16-.84.64-.41,2.35.81,1.9a8.6,8.6,0,0,0,3.24-2l-1.19-1.19a3.12,3.12,0,0,1-.82.84,1.08,1.08,0,0,0,.82,2,13.26,13.26,0,0,0,5.28-2.46c.62-.52-.06-1.48-.76-1.3-1.72.45-3.39,1.16-5.09,1.69L230,234a12.19,12.19,0,0,1,.68-1.29c.47-.77-.43-1.49-1.15-1.15-.93.43-1.82.91-2.78,1.29l1,1.74c.53-.47,1.05-.94,1.6-1.38a1,1,0,0,0-.43-1.66c-1.52-.44-3.31,1.19-4.48,2a1.07,1.07,0,0,0,1.08,1.85,6.22,6.22,0,0,0,2.48-2.21c.51-.76-.34-1.66-1.13-1.47s-1.74.49-2.61.75c-1.31.4-.75,2.46.57,2.06l.39-.12c1.32-.4.74-2.49-.57-2.06Z"/><path class="cls-2" d="M221.6,252.89c2,.6,6.14.74,7.4-1.26.73-1.17.81-2.93,1.09-4.26s.89-3.13.34-4.51a1,1,0,0,0-1.65-.44c-1.45,1.46-1.48,4.19-1.84,6.12a4.58,4.58,0,0,1-.28,1.48c-.23.31-.67.29-1.1.36a34.9,34.9,0,0,0-4,.54,1,1,0,0,0,0,2Z"/><path class="cls-2" d="M225.34,249a3.49,3.49,0,0,0,.64-2.41,7.48,7.48,0,0,0,0-2.75,1,1,0,0,0-1.58-.41,4.33,4.33,0,0,0-.92,3c0,1,.07,2.14,1,2.69a.74.74,0,0,0,.89-.12Z"/><path class="cls-2" d="M237.49,241.81c-1,.39-1,1.34-1,2.3a3.31,3.31,0,0,0,.75,2.55.9.9,0,0,0,1.4-.19,5,5,0,0,0,.3-2.74,2.68,2.68,0,0,0-.18-1.35,1.16,1.16,0,0,0-1.23-.57Z"/><path class="cls-2" d="M237.75,248a27.44,27.44,0,0,0,15.27.14,1.28,1.28,0,0,0-.34-2.5c-2.42-.15-4.88.27-7.31.28s-4.89-.32-7.31-.16a1.15,1.15,0,0,0-.31,2.24Z"/><path class="cls-2" d="M253.72,247.11c.17-1.14.3-2.23.38-3.38s.26-2.27-.61-3a1,1,0,0,0-1.44,0c-.86.81-.64,2-.52,3s.3,2.25.51,3.38c.16.81,1.56.85,1.68,0Z"/><path class="cls-2" d="M238.08,247.49a13.81,13.81,0,0,0,1.52,6.27c.36.61,1.51.59,1.64-.21a13.76,13.76,0,0,0-.87-6.37c-.43-1.16-2.34-1.08-2.29.31Z"/><path class="cls-2" d="M249.88,247.1c-.45,1.12.26,2.52.52,3.64.15.64.27,1.28.37,1.93a6.33,6.33,0,0,0,.68,1.88,1.14,1.14,0,0,0,2.07-.27,4.59,4.59,0,0,0,.17-1.91,19.57,19.57,0,0,0-.56-2.38c-.33-1.17-.72-2.89-1.9-3.44a.94.94,0,0,0-1.35.55Z"/><path class="cls-2" d="M240.39,255.13c3.56.39,8.88,1.27,12.07-.78a1,1,0,0,0-.48-1.78,50.9,50.9,0,0,0-6.17.11,34.15,34.15,0,0,0-5.72.26c-1.34.23-.85,2.07.3,2.19Z"/><path class="cls-2" d="M255.2,285.94c-3.12-4.23-2.82-9.46-3.23-14.49-.22-2.79-2-10.79.1-12.82,2.76-2.68,3,2.48,3.36,4,.43,2,.69,4,.94,6.05s2.86,16.16-2,15.61c-1.4-.16-1.9,2-.71,2.62,7.53,3.89,6.88-8.29,6.55-12.18a108.76,108.76,0,0,0-1.68-13c-.53-2.55-1.23-7.26-3.83-8.79-5.77-3.39-6.94,8.85-6.81,11.74.22,5,.78,10.19,1.49,15.13.46,3.24,1.17,6,4,7.84,1,.65,2.53-.7,1.75-1.75Z"/><path class="cls-2" d="M239.11,252.92c-2.36,5.5-1.67,12.2-.72,18,.8,4.8,2.07,13.67,7.24,15.87.79.34,2.06-.46,1.37-1.37-5.84-7.69-9.17-22.11-5.46-31.43.56-1.39-1.84-2.41-2.43-1Z"/><path class="cls-2" d="M245.89,285.18l0,.36a1.31,1.31,0,0,0,1,1.25c3.39,1.11,9.25,2.17,12.16-.47a1.23,1.23,0,0,0-.87-2.08c-1.31,0-2.51.51-3.84.58a26.78,26.78,0,0,1-4.64-.28c-.83-.1-3.53-.9-3.72.64Z"/><path class="cls-2" d="M253.38,284.79a8.22,8.22,0,0,0-3.85-.52c-1.5,0-3,0-4.52.21-2.16.27-2.31,3.52,0,3.5,1.51,0,3-.24,4.52-.4a8.49,8.49,0,0,0,3.85-1,1.05,1.05,0,0,0,0-1.81Z"/><path class="cls-2" d="M245,286.83c-.54-4.19-3.53-7.87-4.45-12.14-1.16-5.43-2.61-14.1.84-18.9,1.2-1.67-1.48-3.72-2.85-2.2-4.23,4.7-2.85,12.62-2,18.35.77,4.93,2.37,13.44,7.57,15.53a.67.67,0,0,0,.85-.64Z"/><path class="cls-2" d="M243.75,288.18c1.84.23,3.71.2,5.56.25a25.79,25.79,0,0,0,5.05-.11,1.21,1.21,0,0,0,.29-2.19c-1.53-.89-3.21-.8-4.94-.82a59.22,59.22,0,0,0-6,.05,1.41,1.41,0,0,0,0,2.82Z"/><path class="cls-2" d="M207.4,229.46l.21-.11-.85.23c1.92-.13,4.28.39,6-.58a1.39,1.39,0,0,0,0-2.38,6.59,6.59,0,0,0-3.65-.59c-1.07,0-2.51-.1-3.42.55a1.67,1.67,0,0,0,1.69,2.88Z"/><path class="cls-2" d="M209.46,244a3.59,3.59,0,0,0-2.5-.92,1.37,1.37,0,0,0,0,2.73,4.89,4.89,0,0,0,2.08-.22,1,1,0,0,0,.42-1.59Z"/><path class="cls-2" d="M205.6,228.2c-1.67,2-.91,4.78-1,7.27-.09,3.06-1,6.54-.21,9.51a1.21,1.21,0,0,0,2.19.28c1.44-2.66,1.19-6.21,1.25-9.18.05-2.54.72-6-1.23-7.88a.72.72,0,0,0-1,0Z"/><path class="cls-2" d="M174.72,233.42c11.07,1.06,25,1.24,35.58-2.62,1.45-.53,1.36-2.94-.38-2.85-5.85.3-11.64,1.75-17.52,2.18a176.7,176.7,0,0,1-17.68.15c-2.05-.06-2,2.95,0,3.14Z"/><path class="cls-2" d="M174.07,246.72a12.2,12.2,0,0,0,7.37-.06,1.16,1.16,0,0,0,0-2,12.2,12.2,0,0,0-7.37-.06,1.24,1.24,0,0,0,0,2.11Z"/><path class="cls-2" d="M180.86,246.14c2.11-1.61,1.25-4.74,1.27-7.15a28.47,28.47,0,0,1,.37-4.79c.27-1.45.54-2-.15-3.29a1.07,1.07,0,0,0-1.44-.37c-2.53,1.11-2.21,5.14-2.22,7.49,0,2.5-.81,6.49,1.45,8.11a.69.69,0,0,0,.72,0Z"/><path class="cls-2" d="M180.84,244.55c4.31,1.94,9,1,13.59.48,3.69-.42,8.62,0,11.47-2.64a1.4,1.4,0,0,0-1-2.37c-3.71-.13-7.69.87-11.4,1.31-4,.49-8,.58-12.07.95-1.06.1-1.83,1.72-.61,2.27Z"/><path class="cls-2" d="M186.27,239.4c2.41.79,5.36.17,7.86,0,2-.16,4.3,0,5.52-1.85a1,1,0,0,0-.15-1.16c-1.58-1.71-4.24-1-6.31-.75-2.39.24-5.09.17-7.24,1.32a1.36,1.36,0,0,0,.32,2.45Z"/></svg>