<svg id="Layer_1" data-name="Layer 1" xmlns="http://www.w3.org/2000/svg" viewBox="0 0 500 500"><defs><style>.cls-1{fill:red;}.cls-2{fill:#afff00;}.cls-3{fill:#ffbdbd;}.cls-4{fill:#4d773c;}.cls-5{fill:#0f090b;}</style></defs><title>26Artboard 1</title><path class="cls-1" d="M232,246.93q25.47,2.22,51,2.18c3.2,0,3.2-5,0-5q-25.56,0-51-2.18c-3.18-.28-3.17,4.69,0,5Z"/><path class="cls-1" d="M230,252.92q27.47-.42,54.92,0l-.66-4.88a85.07,85.07,0,0,1-16.11,1l-7.78,0c-.82,0-8,.47-8.13.25v2.51c.79-1.19,7.72-1.27,9-1.34,2.91-.15,5.83,0,8.74,0,3.22.1,3.18-4.78,0-5l-14.44-.83c-3.2-.19-3.19,4.78,0,5l14.44.83v-5a78.73,78.73,0,0,0-13.73.45c-2.84.42-6.57.75-8.3,3.31a2.46,2.46,0,0,0,0,2.51c1,1.58,1.79,1.91,3.67,2.18,4,.59,8.61,0,12.65,0,7.15,0,14.27.19,21.32-1.14,2.82-.53,2.07-4.84-.66-4.88q-27.45-.37-54.92,0c-3.19.05-3.2,5,0,5Z"/><path class="cls-1" d="M241.51,246.42a67.73,67.73,0,0,1-14.6,1.65l2.14,3.74c2.72-3.93,9.26-4.19,13.53-4.92q7.2-1.23,14.46-2a235.5,235.5,0,0,1,28.6-1.14v-5l-15-.06-7.49,0c-1.22,0-5,.19-5.38-.08l1.15,2.81a16.3,16.3,0,0,1,3.07-.95c2.66-.67,2.18-5.07-.66-4.88-5.47.38-12.61-1.53-15.39,4.8a2.52,2.52,0,0,0,2.81,3.65c15.69-3.39,32-3,48-3.59l-2.14-3.74c-2.41,4.31-9.66,4.73-14,4.76-2.92,0-5.35-.43-7.1,2.24-1.09,1.67.37,3.65,2.15,3.74l16.14.83-2.15-3.74-3.34.86-.66,4.88c4-.14,9.35.62,13-1.13,2.61-1.23,6.73-3.53,7.46-6.54a4.22,4.22,0,0,0-3.2-5.33c-3.78-.8-8.27,3.22-11.18,5l3.73,2.14c0,.11,5.53-2,6-2.15,2-.79,2.71-4.35,0-4.79l-6.43-1-.66,4.88c7.78-.53,17.16-2.86,17.3-12.34l-4.88.66a19.48,19.48,0,0,1-.42,10.08c-1.51,4.06-5.17,4.33-8.82,5.35l2.42,4.15a68.38,68.38,0,0,1,10.29-8.44l-3-.39.18.34c.17,2,2.67,3.46,4.24,1.76a8.23,8.23,0,0,0,2.47-6.34c-.05-3.19-5-3.2-5,0l-1,2.82,4.24,1.76a5.21,5.21,0,0,0-1.64-3.85,2.51,2.51,0,0,0-3-.39,75.1,75.1,0,0,0-11.3,9.22,2.5,2.5,0,0,0,2.42,4.15c4.82-1.35,9-1.91,11.48-6.8,2.26-4.51,2.12-9.93,1.23-14.74-.52-2.82-4.84-2.06-4.88.66-.09,6.41-7.59,7.05-12.33,7.37-2.61.18-3.6,4.41-.66,4.88l6.43,1v-4.79c-3.19,1.28-9.9,2.39-9.63,6.94a2.52,2.52,0,0,0,3.74,2.15c.7-.42,6.41-3.21,6.4-3.81,0-1.42-1.89.35-2.4.61-4,2.12-8.09,1.82-12.61,2a2.5,2.5,0,0,0-.66,4.88c3.66,1.17,6.74-.12,9-3.14,1.19-1.62-.45-3.65-2.15-3.74l-16.14-.83,2.14,3.74s5.5.11,6.16,0a35.89,35.89,0,0,0,7-1.3c3.34-1,6.13-2.63,7.87-5.74a2.51,2.51,0,0,0-2.15-3.74c-16.45.62-33.12.28-49.27,3.77l2.8,3.65c1.71-3.9,7.77-2.11,11.1-2.34l-.66-4.88c-2.46.62-6.08,1.5-6.54,4.42a2.63,2.63,0,0,0,1.14,2.8c2.8,2.14,9.24.77,12.56.78l17.77.08c3.2,0,3.2-4.91,0-5a236.61,236.61,0,0,0-36.18,2.05c-8,1.08-19.63,1.13-24.7,8.46-1.09,1.58.37,3.75,2.15,3.74a74.18,74.18,0,0,0,15.92-1.83c3.12-.7,1.8-5.5-1.32-4.79Z"/><path class="cls-1" d="M232.07,248.71c-6.65,1.51-12.35,1.35-19.06,1.17-2.9-.07-7.28-.07-7.83,3.59a2.53,2.53,0,0,0,3.65,2.81,82.88,82.88,0,0,1,17-5.17c2.3-.45,2.43-4.46,0-4.79a52.26,52.26,0,0,0-7.8-.54c-2.76,0-6.45,1.05-9.1.31l1.82,2.4s4.94-1.53,5.62-1.68c2.84-.64,2-4.74-.66-4.88a42.07,42.07,0,0,0-6.64.17l2.39,1.82c-.06-.21,15.51-1.63,17.65-1l-1.73-1.73c1.52,4-7.57,5.92-8.75,3.57l-1.49,3.65a43.56,43.56,0,0,1,11.71-1.34c3.19-.05,3.2-4.95,0-5-4,0-9.35-1.09-13,.55a2.44,2.44,0,0,0-1.23,2.14v.33c0,3.2,4.93,3.2,5,0v-.33l-1.23,2.15c.79-.35,4.07.1,4.88.1l5.65,0v-5a48.4,48.4,0,0,0-13,1.52,2.51,2.51,0,0,0-1.48,3.65c1.93,3.83,9.11,3.81,12.49,2.34,3.14-1.38,7.79-6.65,5.09-10.34-1.11-1.51-2.87-1.4-4.59-1.49a51.74,51.74,0,0,0-11.6.45c-3.21.55-10.47,2.27-9.06,7a2.53,2.53,0,0,0,2.4,1.83,42.07,42.07,0,0,1,6.64-.17l-.66-4.88c-3.24.73-9.26,2.32-9.27,6.47a2.54,2.54,0,0,0,1.83,2.39c2.17.61,4.6.11,6.83,0a53.79,53.79,0,0,1,10.07.23v-4.79a88.5,88.5,0,0,0-18.2,5.67l3.65,2.8c0-.25,11,.63,12.22.57a64.34,64.34,0,0,0,11.2-1.86c3.11-.71,1.79-5.5-1.32-4.79Z"/><path class="cls-1" d="M174.05,266.23c4.74-3.33,10.9-4.61,16.38-6.27,6-1.85,12.13-3.57,18.24-5.2,3.09-.83,1.78-5.62-1.32-4.79q-10.08,2.68-20.06,5.75c-5.33,1.64-11.13,3-15.75,6.22-2.6,1.82-.12,6.13,2.51,4.29Z"/><path class="cls-1" d="M181,265.52a100.71,100.71,0,0,0,12.26-7.25c.86-.6,9.06-7.44,9.43-7.17L201.46,249l0,1,1.23-2.15-.78.47,3.73,2.14c-.64-6.73-.71-7.87-7.71-8.06l-25.86-.7c-2.86-.07-3.31,4.09-.66,4.88a23.29,23.29,0,0,0,8.75,1l-.66-4.88c-2.14.3-4.25.48-6.4.6-3.18.19-3.2,5.16,0,5,2.59-.15,5.15-.42,7.72-.77,2.75-.38,2.12-5.09-.66-4.88a19.67,19.67,0,0,1-7.43-.81l-.66,4.88L187,247c4.48.12,10.62-.81,14.9.51l-1.74-1.73a24.48,24.48,0,0,1,.53,4.61,2.51,2.51,0,0,0,3.73,2.15c4.33-2.56.92-8-3.53-6.3-3.67,1.4-6.89,5.49-10.11,7.73a100,100,0,0,1-12.26,7.25c-2.86,1.44-.34,5.73,2.51,4.29Z"/><path class="cls-2" d="M170.63,267.13c.11-5.62.43-11.5-.35-17.08-.46-3.26-2.17-7.67-6.07-8-4.05-.34-4.36,3.84-4.32,6.9.07,5.92,2.53,11.49,2.41,17.43a2.5,2.5,0,0,0,3.74,2.14c6.9-4.31-2.33-21.12,2.19-22.63,3-1,1.72-5.8-1.32-4.79-3.79,1.26-4.82,2.43-4.8,6.6,0,2.82,3.76,15.07,1.42,16.53l3.74,2.15c.13-6.4-4.4-15-2-21l-1.73,1.74c2.69-.67,2.12,18.27,2.08,20-.06,3.2,4.91,3.2,5,0Z"/><path class="cls-2" d="M210.12,270.79l-.15.67,1.15-1.49-.56.4,3.74,2.14c-.14-1.38-2-10,.79-9.7l-2.15-1.23c.43.63-.16,4.22-.17,5.29,0,2.12.08,4.24.22,6.36.21,3.17,5.18,3.19,5,0-.24-3.6-.2-7.16-.09-10.77.09-2.65-1-5.35-4.2-4.48-6.78,1.83-4.85,9.4-4.34,14.53.17,1.68,2,3.36,3.74,2.15a3.67,3.67,0,0,0,1.84-2.55c.66-3.12-4.13-4.45-4.79-1.32Z"/><path class="cls-2" d="M276.22,257.16a15.9,15.9,0,0,0,8.34,2.25c3,0,4.31-1.45,6.64-3a2.5,2.5,0,0,0-1.91-4.54,44.28,44.28,0,0,1-8.61.52l.66,4.88c1.57-.21,3.14-.38,4.71-.5l1.35-.09c1.41.38,1.77,0,1.08-1.27l3.65,2.81c-.33,1.4,3.33-1.18,3.91-1.73a12.8,12.8,0,0,0,3-4.67l-4.16,1.1c-1,.41-1.95.79-2.94,1.16-3,1.12-1.67,5.92,1.32,4.79,2.29-.87,5.24-1.52,6.38-4a4.43,4.43,0,0,0-1.24-5.47,2.53,2.53,0,0,0-4.16,1.09c-1.08,2.6-2.88,2.87-5,4.09a3.25,3.25,0,0,0-1.9,2.31,2.52,2.52,0,0,0,3.65,2.81c2.95-1.36,3.87-5.38.81-7.34s-8.47-.34-11.78.11c-2.86.4-2,4.8.66,4.88a50,50,0,0,0,9.93-.7l-1.91-4.54c-3.35,2.19-6.24,3.11-10,.73-2.7-1.73-5.19,2.57-2.51,4.29Z"/><path class="cls-3" d="M279.56,259.22l-1.17-.36c-2.13-.67-3.82,1.82-2.81,3.65l3.28,5.94c1.56,2.82,5.69.33,4.29-2.51,1.66,0,2.25-.8,1.77-2.3a9.5,9.5,0,0,0-1.8.91c-2.48,1.35-.8,5.3,1.91,4.54a171.67,171.67,0,0,1,20.53-3.92c7.28-1.1,14.69-.68,21.89-2.36,3.11-.73,1.79-5.52-1.32-4.79-7.17,1.67-14.63,1.24-21.89,2.36-6.83,1.06-13.87,2.05-20.53,3.92l1.91,4.54c2-1.11,4.8-1.92,4.84-4.78,0-2.13-1.53-3.21-3.37-3.62-5.14-1.13-10.92,2.49-8.23,8l4.29-2.51L279.87,260l-2.8,3.65,1.17.37c3.06,1,4.37-3.84,1.32-4.8Z"/><path class="cls-3" d="M290.33,265.23q18.75-3.48,37.73-5.29c3.12-.3,3.25-5.08,0-5q-13,.43-26,.16l2.14,1.23c.67,1.28,7.29.34,8.73.32l10.27-.1c6-.06,12.22.3,18.06-1.53,2.59-.81,2.23-5-.66-4.88l-23,.67c-3.19.1-3.21,5.07,0,5l23-.67-.67-4.88c-9.11,2.86-20.31,1.39-29.8,1.48-4.19,0-13.85.19-10.22,7.13a2.49,2.49,0,0,0,2.15,1.23q13,.28,26-.16v-5q-19.65,1.88-39.06,5.47c-3.14.58-1.81,5.37,1.33,4.79Z"/><path class="cls-3" d="M326.5,262.26c3.74-.89,5.27-4.15,8.39-6l-3.65-1.48c.12.37-8.85,3.53-10.07,4.44a5.86,5.86,0,0,0-2.39,6.31l4.15-2.42c-3.37-2.74-6.08-1-9.9-.18C307.8,264,302.49,263,297.3,264c-3.14.58-1.81,5.37,1.32,4.79,3.58-.65,7.42-.06,11.05-.46,1.58-.18,9-2.34,9.74-1.72a2.51,2.51,0,0,0,4.16-2.41c-.37-2.09,8.68-4,10.24-5,2.16-1.4,3-3.31,2.22-5.78a2.52,2.52,0,0,0-3.65-1.49c-2.48,1.5-4.37,4.86-7.2,5.53-3.11.74-1.79,5.54,1.32,4.79Z"/><path class="cls-3" d="M330.05,263.11a82.84,82.84,0,0,1,7.42-6.72l-3.9-.51c.28.41.51.2.7-.62a2.55,2.55,0,0,0-2.49,2.48,2.51,2.51,0,0,0,2.49,2.49c3.36-.31,5.72-3.8,3.59-6.85a2.55,2.55,0,0,0-3.91-.51,86,86,0,0,0-7.42,6.73c-2.24,2.28,1.27,5.8,3.52,3.51Z"/><path class="cls-1" d="M249.84,259.63A63.46,63.46,0,0,0,263.22,258c3.12-.72,1.8-5.52-1.32-4.79a56.92,56.92,0,0,1-12.06,1.48c-3.19.06-3.2,5,0,5Z"/><path class="cls-1" d="M250.7,260.67c.68.92.13,3.47.2,4.63a33.13,33.13,0,0,0,.85,5.53,2.52,2.52,0,0,0,3.65,1.49,8.28,8.28,0,0,0,4.12-10.63L255,263.6a9.27,9.27,0,0,1,1.74,6.22h5c-.32-2.44.88-4.77,1.67-7h-4.79a36.46,36.46,0,0,1,.57,5.71c.08,3.19,5.05,3.21,5,0a45,45,0,0,0-.75-7c-.48-2.6-4.06-2.11-4.79,0-.94,2.7-2.23,5.42-1.85,8.35.42,3.1,4.76,3.28,5,0a13.62,13.62,0,0,0-2.42-8.73c-1.49-2.12-5.7-.87-4.54,1.92.9,2.18.31,4-1.84,5l3.65,1.48a25.47,25.47,0,0,1-.7-6.68c0-1.66.19-3.26-.85-4.67-1.87-2.55-6.18-.08-4.29,2.51Z"/><path class="cls-4" d="M209.18,243a4.26,4.26,0,0,0-1.14-.54.46.46,0,0,0-.25.89,3.11,3.11,0,0,1,1,.4c.48.29.89-.44.43-.75Z"/><path class="cls-4" d="M209.23,242.59c-.52-.32-1.08-.59-1.61-.9a.89.89,0,0,0-1.07.14,1.77,1.77,0,0,0-.26.35,1,1,0,0,0,.14,1.11l0,.05-.21-.37a1.11,1.11,0,0,0,1.09.85.65.65,0,0,0,.55-1,.28.28,0,0,1,0-.09l-.41.72a1.35,1.35,0,0,0,.45-.57l-1,.41a8.25,8.25,0,0,1,1.52.59.76.76,0,0,0,.77-1.31Z"/><path class="cls-5" d="M165.19,269.64c.95-4.24-.54-8.51-1.76-12.56a70.93,70.93,0,0,1-2.8-16,1.5,1.5,0,0,0-2.94-.4c-1.47,4.37-.22,9.13,1.08,13.41,1.55,5.11,2.8,10.51,4.62,15.51.29.8,1.58,1,1.8,0Z"/><path class="cls-5" d="M159.51,242.47c1.9.07,3.78-.06,5.67.1a22.31,22.31,0,0,0,5.22.25c1.26-.19,1.39-2.12.35-2.67-3.16-1.67-8.24-1.27-11.61-.46a1.42,1.42,0,0,0,.37,2.78Z"/><path class="cls-5" d="M169.11,242.13c-2.56,3.94-1.3,11-1.15,15.51a36.28,36.28,0,0,0,.86,6.31c.65,3.1,1.3,6.76-3.62,4.36a1.49,1.49,0,0,0-2.2,1.27v.74a2,2,0,0,0,1.41,1.85,16.9,16.9,0,0,0,7.22-.15,1.76,1.76,0,0,0,1.24-1.24c1.06-4.32-1.07-8.84-1.25-13.14-.2-4.74,1.45-11.41-1.22-15.51a.75.75,0,0,0-1.29,0Z"/><path class="cls-5" d="M168.48,243.11c5.52.77,11.1.5,16.65.27s11.24.4,16.58-.53c1.58-.28,1.29-2.48,0-2.91-4.85-1.64-10.58-.87-15.63-.66-5.72.24-11.42.33-17.14.42-1.87,0-2.47,3.13-.46,3.41Z"/><path class="cls-5" d="M169.58,251.05c4.79,1,10.15,0,15-.26,5-.31,10.28-.2,15.2-1.29,1.58-.35,1.71-3.08,0-3.33-5-.71-10.19.12-15.2.52s-10.4.13-15,1.84c-1.1.41-1.36,2.22,0,2.52Z"/><path class="cls-5" d="M171.26,261.4a123.59,123.59,0,0,0,13.82-3.95c4-1.27,8.53-2,12.13-4.31a1.51,1.51,0,0,0-.75-2.79c-4.55.11-9.05,2.18-13.34,3.61A85.64,85.64,0,0,0,170.26,259c-1.38.72-.38,2.65,1,2.38Z"/><path class="cls-5" d="M199,251.31v-.11a1.63,1.63,0,1,0-3.25,0v.11a1.63,1.63,0,1,0,3.25,0Z"/><path class="cls-5" d="M195.39,250.23a3.58,3.58,0,0,0,.53.7c-.37-.4.32.45.25.33s-.1-.13,0,0a1.85,1.85,0,0,0,1.41,1,1.72,1.72,0,0,0,1.53-.5,1.86,1.86,0,0,0,.28-2.19c-.53-1-1.95-2-3.14-1.53a1.45,1.45,0,0,0-.85,2.1Z"/><path class="cls-5" d="M171.59,269.43c6-.67,11.75-3,17.43-4.86s11.85-3.46,17.11-6.4c1.76-1,.51-3.44-1.3-3.09-6.06,1.16-11.94,3.93-17.75,6-5.38,1.89-11.09,3.42-16.07,6.24-.93.53-.59,2.27.58,2.14Z"/><path class="cls-5" d="M199,251.46a3.19,3.19,0,0,0,2.05-1.58,1.94,1.94,0,0,0-.5-2.46,1.89,1.89,0,0,0-2.5.15,9.7,9.7,0,0,0-1,1.4,1.72,1.72,0,0,0,1.92,2.49Z"/><path class="cls-5" d="M199.2,242.43a26.06,26.06,0,0,0,3.64.46,10.13,10.13,0,0,0,3.64,0,1.43,1.43,0,0,0,.34-2.58c-1.95-1.27-5.47-1.17-7.62-.48a1.34,1.34,0,0,0,0,2.56Z"/><path class="cls-5" d="M204.27,243.06c1.86,4.75.88,8.57,0,13.35a1.55,1.55,0,0,0,2.83,1.19c1.54-2.44,1.91-5.81,1.8-8.65-.09-2.24-.29-5.47-2.09-7a1.55,1.55,0,0,0-1.77-.23l-.26.12a1.11,1.11,0,0,0-.51,1.26Z"/><path class="cls-5" d="M206.84,240.59l-.2,0a1.46,1.46,0,0,0-1.06,1.39c-.13,3.05-.16,6.87,1.12,9.69.59,1.29,2.33.49,2.43-.66a26.09,26.09,0,0,0-.38-4.49c-.14-1.51-.2-3-.28-4.54a1.5,1.5,0,0,0-1.06-1.39,1.11,1.11,0,0,0-.57,0Z"/><path class="cls-5" d="M204.62,259.29q21.23-2.3,42.57-3.07c2.47-.09,2.49-4,0-3.87q-21.34.78-42.57,3.08c-2.44.26-2.47,4.13,0,3.86Z"/><path class="cls-5" d="M212.09,258.19a.26.26,0,0,0,0-.51.26.26,0,0,0,0,.51Z"/><path class="cls-5" d="M210.86,257.23c-2.59,2.16-2.9,7.57-3.3,10.74-.3,2.34-.54,5,1.74,6.37a.9.9,0,0,0,1.23-1.23c-3-4.81,2.37-10.79,1.18-15.66a.51.51,0,0,0-.85-.22Z"/><path class="cls-5" d="M208.9,274.23c.82,1.56,3.23,1.81,4.84,1.93a10.75,10.75,0,0,0,6.07-1.29,1.08,1.08,0,0,0-.82-2,16,16,0,0,1-5.25.81c-1.47-.06-3-.88-4.44-.47a.68.68,0,0,0-.4,1Z"/><path class="cls-5" d="M218,257.38a17.62,17.62,0,0,0-2.31,9.08c0,.52.56,8,2.69,6.41-.85.64-.77,2.53.63,2.35l.36-.05a1.42,1.42,0,0,0,1.32-1c.41-2.34-1.95-3.76-2.27-6.05-.48-3.39.7-6.71,1.42-10a1,1,0,0,0-1.84-.78Z"/><path class="cls-5" d="M218,261.79a8.11,8.11,0,0,0,2.78-4.33,1.15,1.15,0,0,0-2.22-.61,16,16,0,0,1-1.92,3.57c-.5.81.53,2,1.36,1.37Z"/><path class="cls-5" d="M209.11,258.58l-.08.08-1.35-.36c1.44,1.87.72,3.9.48,6h2a37.52,37.52,0,0,0,.14-4.23c-.13-1.18-.84-1.78-1.53-2.67s-2.26.42-1.43,1.43c.22.27.5.49.7.76a2.43,2.43,0,0,1,.34,1.8c0,1-.12,1.93-.25,2.91-.15,1.17,1.67,1.3,2,.27.79-2.51.76-5.38-.93-7.48-.9-1.11-2.53.91-1.2,1.55a2.42,2.42,0,0,0,.59.2.41.41,0,0,0,.49-.28Z"/><path class="cls-5" d="M218.21,261c.21-.57,1-.93,1.52-1.26a17,17,0,0,1,1.54-.93c1-.54,2.18-.77,3-1.56a.78.78,0,0,0-.34-1.29c-1.49-.33-3.17.69-4.34,1.55s-2.49,1.92-2.4,3.35a.53.53,0,0,0,1,.14Z"/><path class="cls-5" d="M216.6,265.89c2,.6,6.14.74,7.4-1.26.73-1.17.81-2.93,1.09-4.26s.89-3.13.34-4.51a1,1,0,0,0-1.65-.44c-1.45,1.46-1.48,4.19-1.84,6.12a4.58,4.58,0,0,1-.28,1.48c-.23.31-.67.29-1.1.36a34.9,34.9,0,0,0-4,.54,1,1,0,0,0,0,2Z"/><path class="cls-5" d="M220.34,262a3.49,3.49,0,0,0,.64-2.41,7.48,7.48,0,0,0,0-2.75,1,1,0,0,0-1.58-.41,4.33,4.33,0,0,0-.92,3c0,1,.07,2.14,1,2.69a.74.74,0,0,0,.89-.12Z"/><path d="M208.63,242.79a22.61,22.61,0,0,1,5.34-4.7c.78-.54.62-2.18-.55-2a6.33,6.33,0,0,0-2.11.46,13.05,13.05,0,0,0-1.93,1.17,11.81,11.81,0,0,0-3.07,3.31c-.83,1.4,1.27,3.14,2.32,1.79Z"/><path d="M206.75,243.79c2.94-2.72,6.65-4,10.49-4.82.73-.16.78-1.42,0-1.54-4.73-.72-9,1.69-11.61,5.5-.48.68.55,1.39,1.12.86Z"/><path d="M207.55,243c1.11-2.51,6.34-3.92,8.75-4.66a82.84,82.84,0,0,1,8.51-2c1-.19.66-1.56-.22-1.62a25.47,25.47,0,0,0-12.27,2.3c-2.25,1-6.69,2.48-6.58,5.51,0,.88,1.4,1.44,1.81.49Z"/><path d="M208.34,242.23c1.33-3.1,10.49-3.14,13.32-3.32,4.2-.27,8.42-.18,12.62-.51a1,1,0,0,0,0-2,66.61,66.61,0,0,0-18.33.39c-3.27.54-8.45.94-9.85,4.48-.51,1.28,1.7,2.22,2.24.94Z"/><path d="M212.29,240.67c5.44-3.28,13.31-2.66,19.47-3.2s12.46-.89,18.52-2.26c1.05-.24.77-1.78-.25-1.82-7.67-.29-15.45.86-23.08,1.62-5.37.53-11.22.55-15.89,3.56-1.31.84-.12,2.92,1.23,2.1Z"/><path d="M223.05,237.28c7.31.24,14.7-.5,22-.87,6.78-.34,13.72-.13,20.44-1.1,1.45-.21.94-2.29-.33-2.4-7.23-.61-14.78.28-22,.73-6.75.41-13.66.75-20.3,2.06-.92.18-.67,1.56.21,1.58Z"/><path d="M240.34,235.91c5.69.24,11.41.12,17.11.28s11.45.85,17.1.45c1.25-.09,1.71-2.06.32-2.32-5.38-1-11-.91-16.47-1-6-.12-12.07-.27-18.06.14a1.24,1.24,0,0,0,0,2.47Z"/><path d="M236.37,238c5.38.33,10.92-.66,16.26-1.23,4.89-.53,9.85-.92,14.66-1.9,1.31-.27,1-2.31-.31-2.31a150.36,150.36,0,0,0-16.26,1.45c-4.84.57-9.91.86-14.58,2.28a.87.87,0,0,0,.23,1.71Z"/><path d="M260,237.17c9.26-.16,19.31.22,28.44-1.4,1-.18,1-1.89,0-2-9.11-1.35-19.35-.14-28.44,1-1.52.19-1.63,2.49,0,2.46Z"/><path d="M266.31,235.31l1.16.29-.61,1.5c2.31-.6,5.49-.1,7.91-.24,2.93-.17,5.85-.44,8.77-.73,4.95-.51,10.11-.78,14.82-2.43a1,1,0,0,0-.25-1.9c-6.43-.3-13,1.16-19.44,1.78-3.22.31-10.23-.4-12.8,1.81a1,1,0,0,0,.2,1.6l.14.09a1,1,0,0,0,1.35-.36l.06-.1a1,1,0,0,0-1.31-1.31Z"/><path d="M263.64,236.18c6.54.39,13.14-.11,19.68-.09s13.16.55,19.69.08c1.2-.09,1.67-2,.3-2.27-6.56-1.12-13.35-1-20-.89s-13.4,0-19.95,1.17c-1.19.2-.82,1.94.27,2Z"/><path d="M280.6,235.59c8.91-.9,19.41,1.6,27.87-1.63,1.17-.45,1.11-2.35-.31-2.32-4.91.12-9.8.57-14.73.63a41.6,41.6,0,0,0-13,1.75c-.8.27-.74,1.66.21,1.57Z"/><path d="M288.18,235.94c7.09-.87,14.52-.6,21.51-1.93,1.46-.28.93-2.25-.32-2.39-7-.8-14.66,1-21.45,2.44-1,.22-.82,2,.26,1.88Z"/><path d="M306.05,250.28a19.11,19.11,0,0,0,4.18-2.63,1.51,1.51,0,0,0,0-2.12,1.53,1.53,0,0,0-2.12,0,16.65,16.65,0,0,1-3.57,2.16,1.5,1.5,0,0,0-.54,2.05,1.54,1.54,0,0,0,2.05.54Z"/><path d="M306.19,250.65a12.94,12.94,0,0,0,6-6.8c.66-1.82-2.24-2.6-2.89-.8a9.79,9.79,0,0,1-4.59,5,1.5,1.5,0,0,0,1.51,2.59Z"/><path d="M306.44,250.56l2.78-1.89a1.53,1.53,0,0,0,.54-2,1.51,1.51,0,0,0-2.05-.54L304.93,248a1.53,1.53,0,0,0-.54,2.05,1.51,1.51,0,0,0,2.05.54Z"/><path d="M304.32,235.87l0-.13-.51,1.25c.7-.54,3-.36,3.83-.44l3.51-.34c2.05-.2,4.13-.2,6-1.11a1,1,0,0,0-.23-1.8c-2.84-.83-6.28,0-9.16.44-1.48.2-5.28-.06-5.59,2a1.13,1.13,0,0,0,.77,1.36l.14,0a1,1,0,0,0,1.27-1.27Z"/><path d="M303,236.9c2.12-.44,4.27-.84,6.42-1.12,1.81-.23,3.65-.14,5.33-.91.88-.4.52-1.65-.25-1.92-1.79-.6-3.8-.12-5.62.2a34.76,34.76,0,0,0-6.43,1.76,1,1,0,0,0,.55,2Z"/><path d="M305.13,235.89c4.4-.4,9.46-.3,13.59-2a.91.91,0,0,0-.24-1.77c-4.45-.44-9.26,1.13-13.58,2-1,.2-.77,1.84.23,1.75Z"/><path d="M306,235.06c1.84,0,3.67-.3,5.52-.31,1.68,0,3.51.39,5.13-.11a1.18,1.18,0,0,0,.28-2.14c-1.71-.91-3.9-.66-5.78-.48a19,19,0,0,0-5.63,1.26c-.91.39-.4,1.79.48,1.78Z"/><path d="M305.93,234.17a18.71,18.71,0,0,1,4.29-.3,11.77,11.77,0,0,0,3.65.08.94.94,0,0,0,.22-1.69c-2.26-1.54-6.2-.47-8.61.26a.86.86,0,0,0,.45,1.65Z"/><path d="M315.23,245.32a1.71,1.71,0,0,0,.84,0,.74.74,0,0,0,0-1.41,1.71,1.71,0,0,0-.84,0,.71.71,0,0,0,0,1.35Z"/><path d="M315.66,245.58l.1,0-.71-1.25-.06.15,1.6-.65c-.42-.32-.73-2.8-.69-3.75a6.1,6.1,0,0,1,.51-2.49c.14-.29,1.43-2.05,2-1.65.89.57-.18,4.31-.52,5.06-1,2.28-2.44.58-2.67-1.14a5,5,0,0,1,.73-3.51c2-2.34,3,1.39,2.94,3.08a5.29,5.29,0,0,1-2.16,4.21c-1,.62-.59.73-1.19-.61-.25-.56-.53-1.11-.78-1.67-.42-.95-2-.47-2,.53.13,1.84.62,5.29,3.18,5s4.49-2.78,5.21-4.94a9.26,9.26,0,0,0-1.41-8.36c-1.67-2-4.11-1.14-5.59.63-2.33,2.78-2.52,11.12,2.74,10.77,2.59-.17,3.72-3.06,4.14-5.25.34-1.85.72-5.45-1.47-6.36-2.57-1.06-5.24,1.38-6.1,3.58-1,2.51-.87,6.77,1.41,8.63a1.29,1.29,0,0,0,1.47.18l.16-.07a1.11,1.11,0,0,0,.4-1.5l-.08-.13a1,1,0,0,0-1.39-.37l-.09.06a1,1,0,0,0,.23,1.77Z"/><path d="M309.52,247.87a26.41,26.41,0,0,1,3.32-1.44,13.66,13.66,0,0,0,3.13-1.09,1.29,1.29,0,0,0-1.3-2.22,3.57,3.57,0,0,1-3.65-.37l-.31,2.35a31.29,31.29,0,0,1,5.25-1.23l-.36-2.62-4.07.66,1,2.45c.79-.42,1.63-.67,2.42-1.08a1,1,0,0,0-.22-1.71,4.85,4.85,0,0,0-3.55.47c-1.5.66-.34,2.67,1,2.45l4.07-.66c1.71-.28,1-2.8-.71-2.58a25.34,25.34,0,0,0-5.57,1.37,1.29,1.29,0,0,0,.34,2.53c1.52.2,3.11,0,4.61.32l.34-2.52c-2.43-.3-5.41,1.61-7.22,3.08-1.1.88.3,2.38,1.42,1.84Z"/><path d="M213.05,236.93l-.08-.07.16.39v-.11l-.46.6a1,1,0,0,0,.76-1.21,1,1,0,1,0-1.75.74,1.79,1.79,0,0,0,1,.62.53.53,0,0,0,.41-1Z"/><path d="M306.55,231a22.18,22.18,0,0,0,2.41-4.09c.18-.46-.5-.81-.82-.48a22.53,22.53,0,0,0-2.71,3.91c-.43.72.66,1.34,1.12.66Z"/><path d="M305.65,232.94l2.6-3.12a1.54,1.54,0,0,0,0-2.12,1.51,1.51,0,0,0-2.12,0,24.82,24.82,0,0,1-2.86,2.66c-1.19,1,.42,3.19,1.71,2.22.79-.6,1.56-1.22,2.3-1.88a5.9,5.9,0,0,0,1.86-2.3c.28-.85-.66-1.91-1.55-1.55a7.24,7.24,0,0,0-2.11,1.64,25.09,25.09,0,0,1-1.93,1.65l1.71,2.22a22.63,22.63,0,0,1,2.69-2.31l-1.82-2.35-2.58,3.14a1.53,1.53,0,0,0,0,2.1,1.51,1.51,0,0,0,2.1,0Z"/><path d="M307.48,228c.92-.17,1.78-.58,2.72-.72s1.92-.62,1.6-1.68c-.62-2.11-4.44-.37-5.32.69a1,1,0,0,0,1,1.71Z"/><path d="M309.75,225.93a10,10,0,0,0-.1,3.74c.1,1.13.06,2.43.94,3.23a1,1,0,0,0,1.53-.19c.56-1,.21-2.06.05-3.14a15.83,15.83,0,0,0-.61-3.64,1,1,0,0,0-1.81,0Z"/><path d="M303.82,232.92c1.58.26,2.42-1.6,3.29-2.66s2.44-2.32,2.54-3.86a1,1,0,0,0-1-1c-1.35.13-2.21,1.23-3,2.22a23.21,23.21,0,0,0-2.47,3.38,1.28,1.28,0,0,0,0,1.31,1,1,0,0,0,.64.57Z"/><path d="M308.23,227.36a.66.66,0,0,1,.84-.21c.43.2.55.69.8,1.07a1,1,0,0,0,1.79,0,2.62,2.62,0,0,0-1.78-3.47,3.19,3.19,0,0,0-3.56,1.49c-.72,1.26,1.1,2.26,1.91,1.12Z"/><path d="M233.94,234.82a6,6,0,0,0-2.54,2.74,6,6,0,0,0-.55,1.67,2.06,2.06,0,0,0,.42,1.85.75.75,0,0,0,1.26,0,2.86,2.86,0,0,0,.56-1.08,6.69,6.69,0,0,1,.43-1.38,6.22,6.22,0,0,1,1.76-2.06c1-.88-.26-2.27-1.34-1.74Z"/><path d="M234.78,235.38c-1.56,0-2.67,1.56-3.26,2.86s-1.22,3.34-.1,4.5a1.19,1.19,0,0,0,1.84-.24c.62-.89.32-2.17.76-3.19s1.34-1.71,1.66-2.74a1,1,0,0,0-.9-1.19Z"/><path d="M233.39,242.72c1.88.57,3.72.21,5.67.09,2.2-.13,4.4-.11,6.6-.22a1.71,1.71,0,0,0,1.56-1.19c.79-1.9,2-3.54,2.8-5.41a1.25,1.25,0,0,0-2-1.51,16,16,0,0,0-3.81,5.67l1.41-.81c-3.71-.19-9.24-.53-12.53,1.4a1.1,1.1,0,0,0,.26,2Z"/><path d="M237.31,240.1a3.06,3.06,0,0,0-1.61-.79l.33,2.53a10.14,10.14,0,0,1,3.21-1l-.76-2.77a14.47,14.47,0,0,1-3.21.28L236,241a13.35,13.35,0,0,1,3.73-1l-1.12-2.66a2.8,2.8,0,0,1-2.7.4v2.19a12.3,12.3,0,0,1,7.35-1,1.2,1.2,0,0,0,.64-2.31,4.81,4.81,0,0,0-3.2-.08.91.91,0,0,0,.24,1.77,9.25,9.25,0,0,1,2.32.62l.64-2.31a19.67,19.67,0,0,0-9,1,1.28,1.28,0,0,0-.3,2.32,5.47,5.47,0,0,0,5.44-.08c1.51-.9.44-2.88-1.12-2.65a16,16,0,0,0-4.41,1.35c-1.35.62-.61,2.68.73,2.69a18.9,18.9,0,0,0,4-.4c1.82-.37,1-3.07-.76-2.77a11,11,0,0,0-3.84,1.41A1.39,1.39,0,0,0,235.7,242a2.81,2.81,0,0,0,1.61-.67.87.87,0,0,0,0-1.21Z"/><path d="M235.08,241.12l-.14-.16a.93.93,0,1,0,0,1.31l.14-.16a.72.72,0,0,0,0-1Z"/><path d="M317.75,240.41a3.73,3.73,0,0,1,1.14-2.49l-2.12-.56a3.55,3.55,0,0,1,.07,1.83c-.14.56-.41.51.29.81s.41-.07.3-.68c-.18-1-.3-2.59.92-2.9l-1.55-.89a4.29,4.29,0,0,1-.05,2.58c-.27.79-.84,1.28-.48,2.16a1,1,0,0,0,1,.72h.22a1.34,1.34,0,0,0,1.13-.65,7.12,7.12,0,0,0,.67-5.49,1.29,1.29,0,0,0-1.56-.88,4.15,4.15,0,0,0-2.84,2.79,7.05,7.05,0,0,0,.43,4.93c.85,1.46,2.68,1.07,3.46-.23a6,6,0,0,0,.49-4.78,1.28,1.28,0,0,0-2.12-.56,5.09,5.09,0,0,0-1.67,4c.09,1.23,2.11,1.72,2.32.31Z"/><path class="cls-5" d="M247.53,256.3q12.72-.57,25.43-1.49c2.46-.17,2.48-4,0-3.86q-12.7.92-25.43,1.48c-2.47.11-2.49,4,0,3.87Z"/><path class="cls-5" d="M245.87,254.47c.15,1.18.22,2.38.3,3.56s0,2.5.92,3.36a1.2,1.2,0,0,0,1.42.19c1.22-.89,1.28-2.36,1.23-3.78a9,9,0,0,0-.82-4.15c-.78-1.26-3.27-.89-3,.82Z"/><path class="cls-5" d="M249,261.18c2.3.68,4.84.09,7.21,0,3-.08,6,0,9.05-.16.89,0,1.94-.81,1.82-1.82-.23-1.85,0-3.76-.58-5.54a1.33,1.33,0,0,0-2.4-.31c-.91,1.88-.76,3.78-.66,5.85l1.82-1.82c-3.36,0-6.78,0-10.14.2-2.35.15-4.87.31-6.49,2.17a.85.85,0,0,0,.37,1.4Z"/><path class="cls-5" d="M249.3,259.42c-1.71,1.56-1.28,4.4-1.17,6.54.14,2.7.07,5.73,1,8.29.27.76,1.54,1.17,1.94.26,1.06-2.43.66-5,.43-7.55-.21-2.28.35-5.45-.92-7.38a.81.81,0,0,0-1.25-.16Z"/><path class="cls-5" d="M251.05,275.25c2.8-.5,5.75-.2,8.58-.57,2.34-.3,5.35-.33,6.92-2.27.36-.44.45-1.29-.2-1.57-2.57-1.1-5.58.2-8.28.55-2.53.33-5.91-.17-8.13,1.21a1.46,1.46,0,0,0,1.11,2.65Z"/><path class="cls-5" d="M263.86,258.54c-1.38,1.69-1.2,3.88-1.23,6,0,2.44-.16,5.22.52,7.59.57,1.95,3.79,1.66,3.66-.5-.26-4.12-.68-8.27-1.22-12.37-.1-.75-1.11-1.48-1.73-.71Z"/><path class="cls-5" d="M274.6,251.75a12.89,12.89,0,0,0,.94-4.36.85.85,0,0,0-1.67-.22c-.42,2.19-1.18,5.42-.12,7.49a.85.85,0,0,0,1.53-.2,11.3,11.3,0,0,0,.1-3.39,34.85,34.85,0,0,1,.16-3.68h-1.7a27.9,27.9,0,0,0,.2,4.29.31.31,0,0,0,.56.07Z"/><path class="cls-5" d="M273.2,246.93a25.08,25.08,0,0,0,.28,7.13c.21,1.3,2.4,1,2.29-.31-.18-2.33-.35-4.76-.73-7.07-.19-1.14-1.71-.69-1.84.25Z"/><path class="cls-5" d="M275,247.31l.08-.05-.73.1a40.16,40.16,0,0,0,4.91-.12,1.17,1.17,0,0,0,0-2.34,15.51,15.51,0,0,0-2.34.33c-.85.12-1.71.16-2.57.31s-.83,1.31-.22,1.72l.08.05a.75.75,0,0,0,.79,0Z"/><path class="cls-5" d="M278.74,246.48c.07,1.71.24,3.42.35,5.12.09,1.46,2.37,1.46,2.27,0a51.29,51.29,0,0,0-.57-5.39c-.21-1.16-2.11-.89-2.05.27Z"/><path class="cls-5" d="M280.53,252.21a34.91,34.91,0,0,0,6.62-.13c2.19-.09,4.58.25,6.68-.38a1,1,0,0,0,0-2c-2.18-.79-4.88-.41-7.17-.25a19.39,19.39,0,0,0-6.34,1.11.91.91,0,0,0,.21,1.64Z"/><path class="cls-5" d="M294.92,250.88c.6-1.44.12-3.28-.06-4.76s-2.42-1.43-2.24,0c.1.79.29,1.55.34,2.35a17.53,17.53,0,0,0,.12,2.41c.22,1,1.51.77,1.84,0Z"/><path class="cls-5" d="M293.75,245.92a7.65,7.65,0,0,0,2.19.13c.86,0,1.69.11,2.54.14a1.21,1.21,0,0,0,.32-2.37,8.94,8.94,0,0,0-3.22-.19c-.81.09-1.92.22-2.35,1a.88.88,0,0,0,.52,1.27Z"/><path class="cls-5" d="M297.87,245.74c.05,1.71-.16,3.86.42,5.48.31.85,1.72,1.05,1.93,0,.34-1.72-.08-3.74-.23-5.48-.11-1.34-2.16-1.39-2.12,0Z"/><path class="cls-5" d="M299.44,251.57a8.63,8.63,0,0,0,3.26-.32c1-.18,2.35,0,3.1-.88a1.08,1.08,0,0,0,0-1.52c-1-.81-2.2-.46-3.42-.23a6.34,6.34,0,0,0-3.39,1.25,1,1,0,0,0,.45,1.7Z"/><path class="cls-5" d="M274.54,253c-.68.74-.54,2-.51,2.9a1,1,0,0,0,.69.91,1,1,0,0,0,.73-.1.9.9,0,0,0,.47-.81c-.12-.95,0-2.12-.62-2.9a.53.53,0,0,0-.76,0Z"/><path class="cls-5" d="M274.18,255.58c.5,6.82,11.09,5.77,15.85,5.13,3.18-.42,7.92-.27,10.21-2.92,1.76-2.05,1.7-5,1.29-7.47-.22-1.32-2.19-.92-2.25.3-.1,2.28-.59,4.9-2.66,6.38-1.16.82-4.17.73-5.59.94-3.7.57-13.47,2.34-15.34-2.56-.29-.75-1.58-.73-1.51.2Z"/><path class="cls-5" d="M302.36,251.49l3.47.06a1,1,0,0,0,0-2l-3.47-.06a1,1,0,0,0,0,2Z"/><path class="cls-5" d="M273.46,254.92A17,17,0,0,0,279,271.83c1.09.91,2.66-.64,1.57-1.56a15.16,15.16,0,0,1-5.21-14.83c.25-1.23-1.6-1.76-1.89-.52Z"/><path class="cls-5" d="M280.45,272c.86-.68.86-2,1.24-3s1.28-2,1.23-3.17a.59.59,0,0,0-.74-.56c-1.37.28-2,1.82-2.41,3s-1,2.72,0,3.7a.54.54,0,0,0,.72,0Z"/><path class="cls-5" d="M281.05,266.58c0,1,.83,1.89,1.38,2.67a13.12,13.12,0,0,0,1.85,2.51c.8.68,2.13-.18,1.52-1.17a32.13,32.13,0,0,0-1.87-2.63c-.57-.75-1.09-1.73-2-2a.69.69,0,0,0-.87.65Z"/><path class="cls-5" d="M285.18,272.18c1.07-.17,1.54-1.76,2-2.6s1.46-2.16,1.12-3.3a.72.72,0,0,0-.87-.49c-1.2.39-1.63,1.87-2.15,2.91s-1.41,2.13-.87,3.16a.71.71,0,0,0,.78.32Z"/><path class="cls-5" d="M286.78,266.19c.58,1.09,1.14,2.18,1.61,3.32.38.9.66,2.2,1.76,2.39a.74.74,0,0,0,.91-.51c.17-1.08-.65-2.18-1.1-3.13a10.53,10.53,0,0,0-2.08-2.91.7.7,0,0,0-1.1.84Z"/><path class="cls-5" d="M290.9,271.93c.58-1,1.44-1.91,2-3s1.16-2.11.87-3.21a.62.62,0,0,0-.89-.36c-1.08.61-1.42,2.07-1.93,3.12a7.87,7.87,0,0,0-1.24,3.12.64.64,0,0,0,1.18.31Z"/><path class="cls-5" d="M292.26,266c.79,1.09,1.63,2.14,2.46,3.2s1.41,2.28,2.59,2.67a.68.68,0,0,0,.86-.66c-.07-1.2-1.11-2.13-1.85-3a40.2,40.2,0,0,0-2.86-3.12c-.6-.58-1.73.19-1.2.92Z"/><path class="cls-5" d="M297.18,271.37a15.2,15.2,0,0,0,2.89-3.58c.43-.68,1.72-2.4.55-3.08s-1.91,1.14-2.3,1.81A29.79,29.79,0,0,0,296,270.7c-.28.71.68,1.06,1.15.67Z"/><path class="cls-5" d="M299.66,266.38c.48,1,.82,2.06,1.25,3.07s.66,2.11,1.59,2.52a.76.76,0,0,0,1.1-.45c.36-1-.46-2.25-.89-3.2a11.45,11.45,0,0,0-1.6-3.06c-.74-.81-1.89.23-1.45,1.12Z"/><path class="cls-5" d="M303.24,272a10.35,10.35,0,0,0,2-3.63c.43-1.06,1.57-2.61,1.17-3.79a.57.57,0,0,0-.68-.38c-1.22.24-1.59,1.76-2,2.79a23.27,23.27,0,0,0-1.54,4.38.65.65,0,0,0,1.08.63Z"/><path class="cls-5" d="M304.79,265.08c-.29,1,1,2.39,1.45,3.19.61,1,1.32,3.05,2.6,3.27a.7.7,0,0,0,.83-.48c.28-.87-.22-1.44-.67-2.16-.56-.9-1.11-1.81-1.68-2.7-.33-.5-.77-1.31-1.38-1.54-.4-.14-1-.06-1.15.42Z"/><path class="cls-5" d="M309.53,271.36a13,13,0,0,0,2-2.95,5,5,0,0,0,.79-3.08.66.66,0,0,0-1-.39,5.46,5.46,0,0,0-1.54,2.53,26.85,26.85,0,0,0-1.14,3.38c-.12.48.52.92.88.51Z"/><path class="cls-5" d="M312,265.36l0-.1-.35.46.11-.05-1.17-.31a17.8,17.8,0,0,0,2.05,3c.6.79,1.17,1.85,2.26,1.89a.7.7,0,0,0,.67-.51c.23-1.07-.64-1.88-1.26-2.67a17.27,17.27,0,0,0-2.38-2.74.86.86,0,0,0-1.43.83l0,.11a.74.74,0,0,0,.53.54l.1,0a.66.66,0,0,0,.82-.47Z"/><path class="cls-5" d="M315.31,270.6c1.17-.17,1.8-1.87,2.27-2.82s1.18-2.29.85-3.53a.62.62,0,0,0-.9-.37c-1,.74-1.35,1.9-1.9,3s-1.54,2.09-1.22,3.22a.76.76,0,0,0,.9.51Z"/><path class="cls-5" d="M317.49,265a6.48,6.48,0,0,0,.86,2.5,17.6,17.6,0,0,0,1.41,2.6,1.07,1.07,0,0,0,1.84-1.08c-.38-.83-.89-1.62-1.35-2.42a7.51,7.51,0,0,0-1.44-2.15.78.78,0,0,0-1.32.55Z"/><path class="cls-5" d="M321.53,270.82c.64-1.2,1.43-2.32,2.1-3.51.57-1,1.42-2.11,1.14-3.3a.68.68,0,0,0-.82-.46c-1.22.46-1.66,1.83-2.22,2.94a26.78,26.78,0,0,0-1.62,3.73.78.78,0,0,0,1.42.6Z"/><path class="cls-5" d="M301.75,252.42c10.26-1,20.47-1.48,30.78-1.7a1.35,1.35,0,0,0,0-2.7c-6.33.09-12.65.21-19,.71-3.75.29-9.27,0-12.32,2.49a.71.71,0,0,0,.5,1.2Z"/><path class="cls-5" d="M328.17,250.27a29.48,29.48,0,0,0,5.71.38c2.22,0,4.69.1,6.8-.61a1,1,0,0,0-.26-1.94c-2.54-.33-5.38.28-7.95.46-1.45.1-3.45-.09-4.45,1.16a.33.33,0,0,0,.15.55Z"/><path class="cls-5" d="M332.06,249.41a27.61,27.61,0,0,0,4.9.23c1.5,0,3,.26,4.41-.38a.69.69,0,0,0,0-1.19c-1.32-.76-2.93-.57-4.41-.53a15.86,15.86,0,0,0-4.9.63c-.55.18-.67,1.11,0,1.24Z"/><path class="cls-5" d="M323.65,266c9.43.48,20.22-8.47,18.85-18.4-.15-1.09-1.76-.91-2,0-.65,2.16-.67,4.41-1.65,6.49a15.39,15.39,0,0,1-3.62,4.78c-3.41,3.09-7.65,3.92-11.75,5.64a.76.76,0,0,0,.2,1.49Z"/><path class="cls-5" d="M332.75,249.62c1.66-.32,3.36-.3,5-.48,1.31-.15,2.88,0,4-.88a.67.67,0,0,0-.16-1.19c-1.33-.54-3,0-4.38.27a27.58,27.58,0,0,0-4.76,1.17.58.58,0,0,0,.3,1.11Z"/><path class="cls-5" d="M279.35,256.63c-.5-.5-.92-1.46-.3-2s2.05-.51,2.31.38a1.23,1.23,0,0,1-.22,1.28,2,2,0,0,1-1,.24c-.49,0-.75-.35-.9-.79a1.22,1.22,0,0,1,.2-1.19c.21-.31-.13-.67-.45-.6-1.7.38-.85,3.38.51,3.66a3.22,3.22,0,0,0,2.14-.45,2,2,0,0,0,.74-2.06c-.25-1.75-2.12-2.25-3.59-1.5a2,2,0,0,0,.12,3.61.35.35,0,0,0,.43-.55Z"/><path class="cls-5" d="M278.88,256a4,4,0,0,1,1.74-.34,13.39,13.39,0,0,0,1.65.24.31.31,0,0,0,.26-.47c-.71-1.3-3-.91-4-.17-.33.25-.16.92.31.74Z"/><path class="cls-5" d="M280.07,253.62a6.23,6.23,0,0,0-.05,1.88,3.24,3.24,0,0,0,.39,1.69.37.37,0,0,0,.67-.08,4.46,4.46,0,0,0-.09-1.74,14.74,14.74,0,0,0-.25-1.75.35.35,0,0,0-.67,0Z"/><path class="cls-5" d="M294,255.54a1.76,1.76,0,0,1-.58-2.08,1.3,1.3,0,0,1,.9-.62,1.08,1.08,0,0,1,1.32.56,2,2,0,0,1,.31,1.26,2,2,0,0,1-.92,1c-.88.51-1.42.08-2-.6-.17-.21-.46,0-.54.14-.3.71.31,1.35.93,1.6a2.26,2.26,0,0,0,2.15-.37,2.62,2.62,0,0,0,1.25-1.84,3.28,3.28,0,0,0-.86-2.33c-1.11-1.05-3.36-.28-3.77,1.13a3.19,3.19,0,0,0,.45,2.57.87.87,0,0,0,1.43.08.34.34,0,0,0-.12-.45Z"/><path class="cls-5" d="M292.73,255a13.65,13.65,0,0,0,2.12,0c.61,0,1.26.18,1.74-.27a.38.38,0,0,0,0-.51c-.41-.52-1.28-.4-1.88-.35a4.74,4.74,0,0,0-2.07.45.39.39,0,0,0,.09.7Z"/><path class="cls-5" d="M294.23,252.05q0,1.22.09,2.43a2.84,2.84,0,0,0,.38,1.73.31.31,0,0,0,.49-.06,3.17,3.17,0,0,0,.13-2c-.06-.75-.16-1.48-.29-2.23-.07-.46-.81-.34-.8.11Z"/><path class="cls-5" d="M300.94,255.19c10.81.3,21.84-1,32.62-1.76,1-.06,1-1.58,0-1.51q-8.15.59-16.3,1.15c-5.43.36-10.91.43-16.32,1a.55.55,0,0,0,0,1.1Z"/><path class="cls-5" d="M324.16,261.38c1.87-.18,3.71-1.63,5.16-2.74a15.5,15.5,0,0,0,4.47-5.19.72.72,0,0,0-1.25-.73,35,35,0,0,1-3.89,4.86c-1.41,1.36-3.25,2.12-4.63,3.45-.12.11,0,.37.14.35Z"/></svg>