<svg id="Layer_1" data-name="Layer 1" xmlns="http://www.w3.org/2000/svg" viewBox="0 0 500 500"><defs><style>.cls-1{fill:#3c7572;}.cls-2{fill:#0f090b;}</style></defs><title>27Artboard 1</title><path class="cls-1" d="M192.9,231l-.21-1.06-4.19,1.16c.85,2.3,1.75,4.6,2.54,6.92,1,3.09.52,5.47.26,8.62-.33,4,.54,7.24,3.66,9.94,1.33,1.16,3.82.47,3.72-1.54-.18-3.73.71-10.11-2.26-13-1.23-1.18-2-1.24-2.73-2.8-1.28-2.84-1.09-6.73,2.68-7.05L194.13,230c.07,2.2-1.26,4-2,5.89a20,20,0,0,0-1.24,6.07,20.4,20.4,0,0,0,.11,5.52c.4,1.74,3,5.47,1.71,6.76-1.73,1.69,1,4.37,2.65,2.65,2.93-3,2.5-5.64.63-9-3.5-6.28,2.76-11.76,2.63-17.89a2.26,2.26,0,0,0-2.24-2.24c-5.73.41-9,3.86-7.7,9.83.42,1.9.66,4.47,2.05,6,1.85,1.95,2.39.51,3.19,4.16a41.72,41.72,0,0,1,.41,7.34L198,253.5c-4.07-3.88-1.34-8.29-1.87-13-.4-3.61-2.23-7.17-3.48-10.55a2.16,2.16,0,1,0-4,1.68l.47,1c1.07,2.17,4.13.57,3.71-1.57Z"/><path class="cls-1" d="M235.2,242.68c5.23.95,10.69.38,16,.22s10.94.35,16-1.13a1.84,1.84,0,0,0,0-3.52c-5.11-1.28-10.78-.54-16-.38s-10.85,0-16,1.37c-1.61.44-1.79,3.11,0,3.44Z"/><path class="cls-1" d="M237.19,240.28c5.15.35,10.49-.82,15.68-.95s10.56.73,15.74.24a2.09,2.09,0,0,0,.55-4.08c-5.1-1.64-11-1.38-16.29-1.21s-11.31.25-16.18,2.29a1.9,1.9,0,0,0,.5,3.71Z"/><path class="cls-1" d="M240.93,258.06c-1,.34,0-6.78,0-7.15.43-1.95,1.05-3.86,1.59-5.78h-2.84c1.47,3.67.12,8.41.49,12.29.26,2.83,2.15,3.26,4.86,3.69l.39-2.88c-1.3-.05-2.61-.08-3.91-.11a1.51,1.51,0,0,0-.76,2.79c2,1,4.73.62,4.47-2.2a27.8,27.8,0,0,0-.94-2.94,19.13,19.13,0,0,1-.26-4.14c.05-3.4,1-4.81,2.54-7.66a1.2,1.2,0,0,0-1.34-1.74c-2.67.59-3.74,3.47-4.1,6a25,25,0,0,0-.06,5.73,19.52,19.52,0,0,0,.38,2.64l.29,1.1c.18,1.18.35,1.41.53.67l-.75,2.8c1.3,0,2.61,0,3.91,0,1.92,0,1.84-2.75,0-2.93-2.78-.26-2.36-1.47-2.35-3.78,0-1.19,0-2.37,0-3.56a28.09,28.09,0,0,0-.51-6.54,1.49,1.49,0,0,0-2.84,0c-1.4,4.07-3.33,9.74-2.15,14.11.61,2.23,3.29,4,4.76,1.43.51-.89-.35-2.22-1.41-1.83Z"/><path class="cls-1" d="M242.06,228l-.8,1.3c-.21.34.32.64.54.31l.83-1.28c.23-.35-.34-.69-.57-.33Z"/><path class="cls-1" d="M242,229a.3.3,0,0,0,0-.6.3.3,0,0,0,0,.6Z"/><path class="cls-1" d="M237.18,230a4.26,4.26,0,0,0-1.14-.54.46.46,0,0,0-.25.89,3.11,3.11,0,0,1,1,.4c.48.29.89-.44.43-.75Z"/><path class="cls-1" d="M237.23,229.59c-.52-.32-1.08-.59-1.61-.9a.89.89,0,0,0-1.07.14,1.77,1.77,0,0,0-.26.35,1,1,0,0,0,.14,1.11l0,.05-.21-.37a1.11,1.11,0,0,0,1.09.85.65.65,0,0,0,.55-1,.28.28,0,0,1,0-.09l-.41.72a1.35,1.35,0,0,0,.45-.57l-1,.41a8.25,8.25,0,0,1,1.52.59.76.76,0,0,0,.77-1.31Z"/><path class="cls-1" d="M265.51,244.54s-.85,0-.7-.09l-.12.51a.91.91,0,0,1,.16-.11,2.15,2.15,0,0,0,.79-.68,1.28,1.28,0,0,0-1.81-1.8c-.23.19-1,.88-1.25.85l.68.18-.15-.12.6.79c-.27-.73-.36-1.48-1.26-1.7s-1.5.44-2.08,1a1.31,1.31,0,0,0,.57,2.15c1.13.47,2.26,1.43,3.51.85a.8.8,0,0,0,.41-.71c0-1.58-2-2.2-3.24-2.62l.57,2.15.34-.37c.26-.23.23-.24-.08,0l-1-.13c-.26-.78-.4-1-.39-.58a1,1,0,0,0,0,.46,1.59,1.59,0,0,0,.38.82,1.67,1.67,0,0,0,1.44.55c1.06-.08,1.94-1.05,2.69-1.73l-2-1.54c-.24.39-.73.58-1,1a1.83,1.83,0,0,0,0,1.8c.77,1.32,2.26.78,3.32.24.67-.34.18-1.28-.48-1.15Z"/><path class="cls-1" d="M266.12,245.61c0-.14,1.32-.43,1.44-.46a2.85,2.85,0,0,1,.7-.12c.5,0,.56-.05.17-.26l.21-1.59a3.64,3.64,0,0,1-2.17.9l.39,2.91a20.22,20.22,0,0,1,3-.57,8.32,8.32,0,0,1,2.63-.09l-1-1,.05.14,1-1.7c-.47.12-1.48.44-1.95.16l.6.79-.07-.26-.34,1.26c.2-.21,2.31.22,2.65.26,1,.12,1.52-1.35.83-2-.45-.42-.38-.55-.37,0l-.59,1,.16-.1h-1.19l.05.35c0,2.11,3.31.93,2.22-.6l-.14-.2a1,1,0,0,0-1.78,0l-.14.2,2.22.6a2.59,2.59,0,0,0-1.24-2.39,1.2,1.2,0,0,0-1.19,0c-1.36.94-.56,2,.33,2.78l.83-2c-1.36-.16-4.88-1.11-4.85,1.3s3.27,1.85,4.69,1.49a1.39,1.39,0,0,0,1-1.7c-.75-2.59-6.37-1.11-8.14-.63s-1.05,3.13.78,2.86a6,6,0,0,0,3.64-2,1.32,1.32,0,0,0,0-1.86c-1.07-.88-2.28-.59-3.55-.25-1.11.3-2.84.74-3,2.07s2,2.06,2.21.61Z"/><path class="cls-1" d="M200.48,236.85a6.74,6.74,0,0,1,4.6-.19l-.52-3.93a24.08,24.08,0,0,0-6.42,6.15c-1.14,1.55.76,3.8,2.49,3.23a24.43,24.43,0,0,0,6.5-3.2l-2.63-3.41a18.24,18.24,0,0,1-5.57,3.13c-2.77,1-1.7,5.26,1.24,4.49,2.61-.69,5.2-1.41,7.78-2.2L206.32,237c-2.19,1.11-4.32,2.27-6.4,3.57a2.13,2.13,0,0,0,2.15,3.68,34.11,34.11,0,0,1,10.86-3.45l-1.08-3.91c-4.4,1.6-8.81,3.1-13.11,4.95-1.87.8-.86,3.77,1,3.72,2.8-.08,5.1-1.17,7.76-1.95A51.34,51.34,0,0,1,218.88,242c6.62-.42,13.1-.61,19.41-2.89,3-1.08,1.69-5.93-1.33-4.82-6.42,2.36-13.09,2.58-19.82,3.29a64.37,64.37,0,0,0-7.43,1.13c-3.31.75-6.57,2.74-10,2.9l1,3.73a71.35,71.35,0,0,1,12.17-4.49c2.17-.55,1.78-4.16-.54-4a30.75,30.75,0,0,0-12.47,3.76l2.15,3.68a58,58,0,0,1,6.39-3.58c2.27-1.09.59-4.34-1.64-3.88-2.64.54-5.26,1.15-7.89,1.8l1.8,4.25a39.56,39.56,0,0,0,6.84-4.31c1.93-1.5-.6-4.8-2.63-3.41a19.47,19.47,0,0,1-5.48,2.71l2.48,3.23a21.4,21.4,0,0,1,4.79-4.66c1.32-1,1.49-3.57-.51-3.92a8.67,8.67,0,0,0-7,1.3c-1.54,1-.58,3.63,1.27,3Z"/><path class="cls-1" d="M232.65,240.86a39.75,39.75,0,0,0,1-8.84l-4.06,1.68c.73.78.57,2.65.6,3.68,0,1.37-.12,2.71-.2,4.08-.13,2.37,3.86,3,4.21.57a19.56,19.56,0,0,0,.09-4.65c-.06-.63-.14-1.27-.24-1.89a10.08,10.08,0,0,1-.49-2.84c.65-3.41-4.56-4.08-4.66-.63a72,72,0,0,1-.72,7.61c-.41,2.86,3.75,4.21,4.46,1.23Z"/><path class="cls-1" d="M204.51,239.34c-.65-1.17,8.74-2.67,9.45-2.71,3.11-.17,6.24,0,9.34.17a69.22,69.22,0,0,0,18.46-1.16c2.46-.56,2-4.78-.6-4.48a109.12,109.12,0,0,1-16.15,1c-4.73-.16-9.42-.48-14.11.35-3,.54-13.89,4.15-8,8.45,1,.74,2.16-.67,1.63-1.63Z"/><path class="cls-1" d="M220.08,239.1a37.68,37.68,0,0,1,8.39-1.08l-.55-4.08a11.8,11.8,0,0,0-3.29,1.5c-1.74,1.06-1.19,4.41,1.12,4.15a62,62,0,0,1,9.22-.75c1,0,4.36,1,5.09.68.05,0-2.66-.11-3.13-.05-2,.28-1.45,2.95,0,3.5,3.21,1.22,11.43-1.23,8.09-5.89-3.65-5.07-14.86-2.8-19.86-1.87l1.72,4.08a6.11,6.11,0,0,1,2.64-1.55c1.89-.81.94-4.05-1.05-3.88a58.75,58.75,0,0,0-9.39,1.63c-2.34.58-1.35,4.2,1,3.61Z"/><path class="cls-1" d="M241.23,225.86a17,17,0,0,0-.35-5.06c-.31-2.15-3.34-1.37-3.53.48a102.24,102.24,0,0,1-1.67,10.87l3.54.48c-.6-1.8.23-2.94,2.47-3.45a10,10,0,0,1-1.37,4.82l3.35,1.41a22.55,22.55,0,0,1,3.18-5.82l-3.38-.92c-.26,2.49-.62,5-1.08,7.41l3.78.51c-.09-2-.2-3.89-.28-5.84H242.6l-.81,3.12,2.88-.37a6.17,6.17,0,0,1-2.55-5.43l-3,1.26.12,1.67,3.39.92c-.36-4.12,3-9.07-2.51-10.46l-.45,3.32a7.78,7.78,0,0,1,7.53,4.08l2.5-2.49a37.82,37.82,0,0,0-6.41-3.75,1.74,1.74,0,0,0-1.76,3,21.27,21.27,0,0,1,5.1,4.59l.77-2.9-3.66.69c-2,.37-1.44,3.38.47,3.41,7.71.15,15.41.64,23.13.59,2.44,0,2.42-3.67,0-3.78-7.71-.34-15.42-.14-23.13-.28l.46,3.41,3.65-.69c1.41-.27,1.52-2,.77-2.91a24.27,24.27,0,0,0-5.8-5.13l-1.76,3a33.91,33.91,0,0,1,6.32,3.9c1.51,1.15,3.36-1,2.5-2.5a10.91,10.91,0,0,0-10.68-5.62c-1.78.13-2.42,2.89-.45,3.32.7.15-.36,6-.23,7.2.18,1.7,2.41,2.61,3.39.92a4.58,4.58,0,0,0-.75-6,1.79,1.79,0,0,0-3,1.25,10.61,10.61,0,0,0,3.51,8,1.85,1.85,0,0,0,2.88-.37,7.89,7.89,0,0,0,.93-5,1.65,1.65,0,0,0-3.29,0c-.09,1.95-.19,3.89-.28,5.84-.09,2.13,3.4,2.67,3.78.51a76.63,76.63,0,0,0,1-8.43c.12-2-2.41-2.21-3.38-.91a25.74,25.74,0,0,0-3.59,6.67c-.71,1.94,2.46,3.29,3.36,1.42,1.44-3,3.56-10.17-.72-12.18-5.18-2.44-7.45,5.53-7.15,9,.16,1.89,3.09,2.6,3.54.48a96.48,96.48,0,0,0,1.78-11.83l-3.53.48c.39,2.16.82,3.4,2.71,4.55a.77.77,0,0,0,1.11-.45Z"/><path class="cls-1" d="M255.68,235.18a41,41,0,0,0,12.06.08c1.79-.32,1.39-3.33-.43-3.18a55.38,55.38,0,0,1-12.34-.35l-.42,3.17c8-.17,16-.09,24.05.52l-.48-3.57c-4.58.67-9.25,1.11-13.78,2.05-1.53.32-1.1,2.57.36,2.63a77.28,77.28,0,0,0,14.39-1.17c2.13-.32,1.43-3.44-.49-3.58a173.91,173.91,0,0,0-24.05-.11c-2.07.15-2.07,3.39,0,3.23a54.7,54.7,0,0,1,12.33.36l.43-3.18c-3.88.25-7.73.44-11.63.53a1.29,1.29,0,0,0,0,2.57Z"/><path class="cls-1" d="M254.73,236.79a85.06,85.06,0,0,1,16.09-3.58c1.24-.16,2.48-.27,3.73-.33,2.24-.25,2.48-.14.72.3-2,1.84-4.73,2.63-7.23,3.46l1,3.67a70.57,70.57,0,0,1,15.5-3.69l-1-3.65c-4.07,2.4-8.47,3.3-13.06,4.14l1.05,3.83c4.59-.95,9.22-1.5,13.83-2.31l-.84-3a36.76,36.76,0,0,1-13.77,1.81c-3.23-.23-3.32-2-.59-3.68a15.92,15.92,0,0,1,8.06-2.14l-.43-3.2a22.53,22.53,0,0,1-10.78.85v3.43c6.48-2.23,15.17-.69,22-.7,1.72,0,2.24-2.84.42-3.11a23.79,23.79,0,0,0-5.72-.21c-.84.07-1.78.89-1.4,1.84a26,26,0,0,1,1.63,6.25l2.6-1.52a6.24,6.24,0,0,1-2.53-3.76,1.34,1.34,0,0,0-1.62-.92c-1.46.23-2.91.46-4.36.74-1.77.35-1.24,2.92.4,3a20.21,20.21,0,0,0,7.21-.87l-2.14-1.62a14.35,14.35,0,0,0,1,7.67,1.74,1.74,0,0,0,3.4-.46c.25-3.38,1.3-4.09-1-6.38l-1.19,2.87c9-.34,18.1-1,27.06-2,2.62-.28,2.71-4.37,0-4.18-9.16.64-18.41,1.58-27.5,2.83-1.56.22-1.46,2.36-.4,3.07l1.29.86-.7-1.72a36.41,36.41,0,0,1-1,4.13h3.33a14.07,14.07,0,0,1-1-6.74,1.7,1.7,0,0,0-2.14-1.63,15.45,15.45,0,0,1-6.31,1.06l.41,3c1.43-.35,2.84-.75,4.25-1.15l-1.62-.93c.66,2.2,1.16,3.68,2.87,5.27a1.57,1.57,0,0,0,2.6-1.52,26.55,26.55,0,0,0-2-6.54l-1.26,2.19a13,13,0,0,1,4.88.36l.42-3.11c-7.06-.33-16.08-1.81-22.9.43-1.51.5-1.86,3.14,0,3.43a24.89,24.89,0,0,0,12.6-1.14c1.65-.59,1.5-3.25-.44-3.2-4.26.1-15.91,2.64-14,9.27s16.89,2.23,21.17,1a1.59,1.59,0,0,0-.42-3.1,58.29,58.29,0,0,0-14.46,1.58c-2.52.54-1.44,4.3,1.05,3.83,4.92-.92,9.65-2,14-4.59,1.55-.92,1-3.89-1-3.65A66.93,66.93,0,0,0,268,236.64c-2.26.86-1.32,4.51,1,3.67s14.2-5.47,9.84-9.83c-1.88-1.87-6.34-.34-8.45,0a90.49,90.49,0,0,0-16.39,3.9c-1.54.51-.9,2.95.68,2.46Z"/><path class="cls-1" d="M291.56,233.11c-1.6,0-3.21-.1-4.81-.05a1.76,1.76,0,0,0,0,3.52c1.6,0,3.21,0,4.81-.05a1.71,1.71,0,0,0,0-3.42Z"/><path class="cls-1" d="M308.51,227.44c-.17.21-.13.14.14-.19.08-.17.14-.33.21-.5-.16.37.19-.49.22-.59a1.63,1.63,0,0,0-.95-1.92,1.61,1.61,0,0,0-2,.67,2.21,2.21,0,0,0,.68,3,1.29,1.29,0,0,0,1.74-.46Z"/><path class="cls-1" d="M264.63,245.71c1.33,7.58.12,15.71.87,23.42.22,2.35,3.92,2.37,3.69,0-.58-5.93-2-14.87.71-20.4l-3.42-.44c1.78,6.65,0,13.89,3,20.24.92,2,4,.23,2.93-1.72-1.68-3.14-3.28-13.61-.57-16.81L269,248.84c.53,5.81.74,11.64,1.23,17.45.21,2.41,3.83,2.5,3.83,0a111,111,0,0,0-1.83-17.89c-.26-1.55-2.27-1.4-3-.39-3.81,5.21.61,13.8,0,19.66l3.34-.45c-1.42-6.59-.7-13.43-2.5-19.93-.41-1.45-2.7-1.94-3.42-.44-3.13,6.54-1.61,15.32-1.17,22.28h3.69c-.4-4.9-.66-9.81-.72-14.73,0-3.41.2-6.61-1.62-9.62a1.22,1.22,0,0,0-2.22.93Z"/><path class="cls-1" d="M261.67,246.85a22.55,22.55,0,0,0,3.05,11.47,1.85,1.85,0,0,0,3.42-.93,6.27,6.27,0,0,0-.78-4.44,1,1,0,0,0-1.77,0,17.2,17.2,0,0,0-1.06,3.95l3.36-.44a18.34,18.34,0,0,1-3.35-9.61,1.44,1.44,0,0,0-2.87,0Z"/><path class="cls-1" d="M264.79,251.79c.64,5.72,1.67,11.31,2.09,17.06.18,2.55,4.05,2,3.43-.46l-.07-4.28-2.31-.32c-.54,4.91-1.05,9.76-2,14.61h3.52a44.18,44.18,0,0,1-1-9.45c0-2.18-3.21-2.14-3.36,0a23.29,23.29,0,0,0,1,9.12c.51,1.59,3.35,2,3.62,0,.39-2.86.42-5.92,1.23-8.7l-3-.41c.15,2.35-1,11.38,3.25,11s2.58-10.31,2.63-12.65h-3.69a112.15,112.15,0,0,1,.19,12.3c-.09,2.48,3.76,2.47,3.85,0,.23-5.88-.75-9.26-3.86-14.11-4-6.27-3.12-12.08-2.39-19,.17-1.67-2.53-2.39-3.22-.87-2.2,4.85-1.45,10.44.34,15.34.95,2.61,2.56,4.69,3.85,7.11,2,3.67,1.8,7.54,1.43,11.56h3.85a75.42,75.42,0,0,0-.35-12.3,1.85,1.85,0,0,0-3.69,0c-.09,2-1.16,7.58.8,8s1-.83.75-2.36-.49-3-.74-4.42c-.32-1.8-2.87-1.2-3,.4-.22,2.73-1.24,5.45-1.85,8.12h3.62A25.49,25.49,0,0,1,268.4,269H265a41.87,41.87,0,0,0,.86,10.42c.36,1.7,3.21,1.77,3.52,0a59,59,0,0,0,.86-15.58c-.14-1.48-2.44-1.52-2.35,0l-.81,4.18,3.25.88c0-5.9-1-12.27-3.58-17.6-.45-.93-2.12-.52-2,.54Z"/><path class="cls-2" d="M193.19,256.64c.95-4.24-.54-8.51-1.76-12.56a70.93,70.93,0,0,1-2.8-16,1.5,1.5,0,0,0-2.94-.4c-1.47,4.37-.22,9.13,1.08,13.41,1.55,5.11,2.8,10.51,4.62,15.51.29.8,1.58,1,1.8,0Z"/><path class="cls-2" d="M187.51,229.47c1.9.07,3.78-.06,5.67.1a22.31,22.31,0,0,0,5.22.25c1.26-.19,1.39-2.12.35-2.67-3.16-1.67-8.24-1.27-11.61-.46a1.42,1.42,0,0,0,.37,2.78Z"/><path class="cls-2" d="M197.11,229.13c-2.56,3.94-1.3,11-1.15,15.51a36.28,36.28,0,0,0,.86,6.31c.65,3.1,1.3,6.76-3.62,4.36a1.49,1.49,0,0,0-2.2,1.27v.74a2,2,0,0,0,1.41,1.85,16.9,16.9,0,0,0,7.22-.15,1.76,1.76,0,0,0,1.24-1.24c1.06-4.32-1.07-8.84-1.25-13.14-.2-4.74,1.45-11.41-1.22-15.51a.75.75,0,0,0-1.29,0Z"/><path class="cls-2" d="M232.27,230.06c1.86,4.75.88,8.57,0,13.35a1.55,1.55,0,0,0,2.83,1.19c1.54-2.44,1.91-5.81,1.8-8.65-.09-2.24-.29-5.47-2.09-7a1.55,1.55,0,0,0-1.77-.23l-.26.12a1.11,1.11,0,0,0-.51,1.26Z"/><path class="cls-2" d="M234.84,227.59l-.2,0a1.46,1.46,0,0,0-1.06,1.39c-.13,3.05-.16,6.87,1.12,9.69.59,1.29,2.33.49,2.43-.66a26.09,26.09,0,0,0-.38-4.49c-.14-1.51-.2-3-.28-4.54a1.5,1.5,0,0,0-1.06-1.39,1.11,1.11,0,0,0-.57,0Z"/><path class="cls-2" d="M232.63,229c9,.88,18.2.24,27.24.32,8.37.07,17.43,1.33,25.7.05,1.53-.24,1.41-2.65,0-3-8.38-1.93-18.12-1-26.68-.95-8.8,0-17.86-.23-26.58,1.21-1.43.24-.92,2.23.32,2.35Z"/><path class="cls-2" d="M232.62,245.88c9.58.4,19.5-1.32,29.1-1.81,8.95-.45,18.95.55,27.66-1.54a1.62,1.62,0,0,0,0-3.1c-9-1.94-19.52-.24-28.64.38-9.34.63-19.44.68-28.52,3.08a1.53,1.53,0,0,0,.4,3Z"/><path class="cls-2" d="M288.6,241.42c3.69-3.43,1.87-9.12,1-13.27-.52-2.45-4-1.34-3.67,1,.29,2.11,1.25,3.92,1.24,6.1,0,1.95-.66,3.87,0,5.77a.88.88,0,0,0,1.46.38Z"/><path class="cls-2" d="M290.16,228.48l-.2,0a.6.6,0,0,0-.73.72l0,.2a.72.72,0,0,0,1.19.32.73.73,0,0,0-.31-1.2Z"/><path class="cls-2" d="M246.73,231.55a5.36,5.36,0,0,0-.46,2,2.47,2.47,0,0,0,.6,1.92.74.74,0,0,0,1.21-.32,3.16,3.16,0,0,0-.09-1.72c-.09-.59-.24-1.19-.28-1.78a.5.5,0,0,0-1-.14Z"/><path class="cls-2" d="M247.13,236.3c4.28-.25,8.56.1,12.82-.1a1,1,0,0,0,.26-1.86c-4.16-1.21-9.15-.75-13.31.24a.88.88,0,0,0,.23,1.72Z"/><path class="cls-2" d="M246.17,232c2,.87,4.21.7,6.33.75,2.39.05,4.95.36,7.26-.28a1,1,0,0,0,0-1.83c-2.19-.53-4.52-.23-6.76-.22s-4.6-.36-6.67.38c-.47.17-.73.95-.16,1.2Z"/><path class="cls-2" d="M258.78,232.92l.12.05-.46-.36c.39.68-.32,1.91-.15,2.74a1,1,0,0,0,1.91.25,4.75,4.75,0,0,0,.4-3.06c-.22-1-1.36-1.66-2.12-.78a.71.71,0,0,0,.3,1.16Z"/><path class="cls-2" d="M240.09,245.19a.26.26,0,0,0,0-.51.26.26,0,0,0,0,.51Z"/><path class="cls-2" d="M238.86,244.23c-2.59,2.16-2.9,7.57-3.3,10.74-.3,2.34-.54,5,1.74,6.37a.9.9,0,0,0,1.23-1.23c-3-4.81,2.37-10.79,1.18-15.66a.51.51,0,0,0-.85-.22Z"/><path class="cls-2" d="M236.9,261.23c.82,1.56,3.23,1.81,4.84,1.93a10.75,10.75,0,0,0,6.07-1.29,1.08,1.08,0,0,0-.82-2,16,16,0,0,1-5.25.81c-1.47-.06-3-.88-4.44-.47a.68.68,0,0,0-.4,1Z"/><path class="cls-2" d="M246,244.38a17.62,17.62,0,0,0-2.31,9.08c0,.52.56,8,2.69,6.41-.85.64-.77,2.53.63,2.35l.36-.05a1.42,1.42,0,0,0,1.32-1c.41-2.34-1.95-3.76-2.27-6.05-.48-3.39.7-6.71,1.42-10a1,1,0,0,0-1.84-.78Z"/><path class="cls-2" d="M246,248.79a8.11,8.11,0,0,0,2.78-4.33,1.15,1.15,0,0,0-2.22-.61,16,16,0,0,1-1.92,3.57c-.5.81.53,2,1.36,1.37Z"/><path class="cls-2" d="M237.11,245.58l-.08.08-1.35-.36c1.44,1.87.72,3.9.48,6h2a37.52,37.52,0,0,0,.14-4.23c-.13-1.18-.84-1.78-1.53-2.67s-2.26.42-1.43,1.43c.22.27.5.49.7.76a2.43,2.43,0,0,1,.34,1.8c0,1-.12,1.93-.25,2.91-.15,1.17,1.67,1.3,2,.27.79-2.51.76-5.38-.93-7.48-.9-1.11-2.53.91-1.2,1.55a2.42,2.42,0,0,0,.59.2.41.41,0,0,0,.49-.28Z"/><path class="cls-2" d="M246.21,248c.21-.57,1-.93,1.52-1.26a17,17,0,0,1,1.54-.93c1-.54,2.18-.77,3-1.56a.78.78,0,0,0-.34-1.29c-1.49-.33-3.17.69-4.34,1.55s-2.49,1.92-2.4,3.35a.53.53,0,0,0,1,.14Z"/><path class="cls-2" d="M247.71,232.34l-.39.12.57,2.06c.86-.28,1.73-.55,2.57-.89l-1.13-1.46a3,3,0,0,1-1.58,1.26l.83,2c.49-.29,2.49-2,2.87-1.92l-.44-1.66c-.48.4-1,.79-1.47,1.16-.84.64-.41,2.35.81,1.9a8.6,8.6,0,0,0,3.24-2l-1.19-1.19a3.12,3.12,0,0,1-.82.84,1.08,1.08,0,0,0,.82,2,13.26,13.26,0,0,0,5.28-2.46c.62-.52-.06-1.48-.76-1.3-1.72.45-3.39,1.16-5.09,1.69L253,234a12.19,12.19,0,0,1,.68-1.29c.47-.77-.43-1.49-1.15-1.15-.93.43-1.82.91-2.78,1.29l1,1.74c.53-.47,1.05-.94,1.6-1.38a1,1,0,0,0-.43-1.66c-1.52-.44-3.31,1.19-4.48,2a1.07,1.07,0,0,0,1.08,1.85,6.22,6.22,0,0,0,2.48-2.21c.51-.76-.34-1.66-1.13-1.47s-1.74.49-2.61.75c-1.31.4-.75,2.46.57,2.06l.39-.12c1.32-.4.74-2.49-.57-2.06Z"/><path class="cls-2" d="M244.6,252.89c2,.6,6.14.74,7.4-1.26.73-1.17.81-2.93,1.09-4.26s.89-3.13.34-4.51a1,1,0,0,0-1.65-.44c-1.45,1.46-1.48,4.19-1.84,6.12a4.58,4.58,0,0,1-.28,1.48c-.23.31-.67.29-1.1.36a34.9,34.9,0,0,0-4,.54,1,1,0,0,0,0,2Z"/><path class="cls-2" d="M248.34,249a3.49,3.49,0,0,0,.64-2.41,7.48,7.48,0,0,0,0-2.75,1,1,0,0,0-1.58-.41,4.33,4.33,0,0,0-.92,3c0,1,.07,2.14,1,2.69a.74.74,0,0,0,.89-.12Z"/><path class="cls-2" d="M260.49,241.81c-1,.39-1,1.34-1,2.3a3.31,3.31,0,0,0,.75,2.55.9.9,0,0,0,1.4-.19,5,5,0,0,0,.3-2.74,2.68,2.68,0,0,0-.18-1.35,1.16,1.16,0,0,0-1.23-.57Z"/><path class="cls-2" d="M260.75,248a27.44,27.44,0,0,0,15.27.14,1.28,1.28,0,0,0-.34-2.5c-2.42-.15-4.88.27-7.31.28s-4.89-.32-7.31-.16a1.15,1.15,0,0,0-.31,2.24Z"/><path class="cls-2" d="M276.72,247.11c.17-1.14.3-2.23.38-3.38s.26-2.27-.61-3a1,1,0,0,0-1.44,0c-.86.81-.64,2-.52,3s.3,2.25.51,3.38c.16.81,1.56.85,1.68,0Z"/><path class="cls-2" d="M230.4,229.46l.21-.11-.85.23c1.92-.13,4.28.39,6-.58a1.39,1.39,0,0,0,0-2.38,6.59,6.59,0,0,0-3.65-.59c-1.07,0-2.51-.1-3.42.55a1.67,1.67,0,0,0,1.69,2.88Z"/><path class="cls-2" d="M232.46,244a3.59,3.59,0,0,0-2.5-.92,1.37,1.37,0,0,0,0,2.73,4.89,4.89,0,0,0,2.08-.22,1,1,0,0,0,.42-1.59Z"/><path class="cls-2" d="M228.6,228.2c-1.67,2-.91,4.78-1,7.27-.09,3.06-1,6.54-.21,9.51a1.21,1.21,0,0,0,2.19.28c1.44-2.66,1.19-6.21,1.25-9.18.05-2.54.72-6-1.23-7.88a.72.72,0,0,0-1,0Z"/><path class="cls-2" d="M197.72,233.42c11.07,1.06,25,1.24,35.58-2.62,1.45-.53,1.36-2.94-.38-2.85-5.85.3-11.64,1.75-17.52,2.18a176.7,176.7,0,0,1-17.68.15c-2.05-.06-2,2.95,0,3.14Z"/><path class="cls-2" d="M197.07,246.72a12.2,12.2,0,0,0,7.37-.06,1.16,1.16,0,0,0,0-2,12.2,12.2,0,0,0-7.37-.06,1.24,1.24,0,0,0,0,2.11Z"/><path class="cls-2" d="M203.86,246.14c2.11-1.61,1.25-4.74,1.27-7.15a28.47,28.47,0,0,1,.37-4.79c.27-1.45.54-2-.15-3.29a1.07,1.07,0,0,0-1.44-.37c-2.53,1.11-2.21,5.14-2.22,7.49,0,2.5-.81,6.49,1.45,8.11a.69.69,0,0,0,.72,0Z"/><path class="cls-2" d="M203.84,244.55c4.31,1.94,9,1,13.59.48,3.69-.42,8.62,0,11.47-2.64a1.4,1.4,0,0,0-1-2.37c-3.71-.13-7.69.87-11.4,1.31-4,.49-8,.58-12.07.95-1.06.1-1.83,1.72-.61,2.27Z"/><path class="cls-2" d="M209.27,239.4c2.41.79,5.36.17,7.86,0,2-.16,4.3,0,5.52-1.85a1,1,0,0,0-.15-1.16c-1.58-1.71-4.24-1-6.31-.75-2.39.24-5.09.17-7.24,1.32a1.36,1.36,0,0,0,.32,2.45Z"/><path class="cls-2" d="M261.17,246.81c-.33,5.84.46,11.89.84,17.73.33,5.3.26,10.94,1.75,16.07a1,1,0,0,0,2,0c1.15-5.51.46-11.49,0-17.06s-.72-11.6-2.17-17.07a1.25,1.25,0,0,0-2.45.33Z"/><path class="cls-2" d="M272.82,247.1c-1.95,4.28-.08,10.15.28,14.74.49,6.1.73,12.21,1.06,18.32.12,2.27,3.55,2.31,3.55,0,0-6.43-.42-12.88-1-19.28-.4-4.39,0-10.37-2.85-13.91a.66.66,0,0,0-1,.13Z"/><path class="cls-2" d="M264.9,282.67c3.77,1.08,9.33,1.5,12.51-1.22,1.12-1,.13-2.59-1.12-2.69-1.69-.13-3.3.48-5,.61a24.78,24.78,0,0,1-5.44-.24c-2.27-.33-3.31,2.87-1,3.54Z"/><path class="cls-2" d="M288.37,231c3.9,1.64,8.78.68,13,.71,4.38,0,8.74.3,13.08-.46,1.27-.22,1.14-2.13,0-2.44-4.59-1.23-9.35-1.07-14.07-1-4,.08-8.59-.42-12.19,1.6a.87.87,0,0,0,.21,1.56Z"/><path class="cls-2" d="M289.8,238.74c7.61.9,17.34-.07,24.79-1.87,2.15-.53,1.64-3.77-.52-3.81-4.35-.07-8.74.7-13.06,1.18-3.88.43-7.82.64-11.59,1.73a1.42,1.42,0,0,0,.38,2.77Z"/><path class="cls-2" d="M315.32,236.13a5.52,5.52,0,0,0,.7-2.92,15.5,15.5,0,0,0,0-2.89,2,2,0,0,0-3.92,0c-.07.89,0,1.79-.06,2.69a6.39,6.39,0,0,0,.14,2.72,1.73,1.73,0,0,0,3.11.4Z"/><path class="cls-2" d="M237.41,228c.86-1.13.77-3,.62-4.35a5.87,5.87,0,0,0-1.66-4,1.24,1.24,0,0,0-2.05.54,11.33,11.33,0,0,0,.25,3.93c.2,1.3.06,2.7.66,3.89a1.28,1.28,0,0,0,2.18,0Z"/><path class="cls-2" d="M234.81,221.37c1.36,1,3.48.4,5.06.27s3.59-.06,5-1.09a1.23,1.23,0,0,0,0-2.1c-1.63-1-3.57-.72-5.38-.53-1.62.16-3.92.08-5,1.45a1.3,1.3,0,0,0,.25,2Z"/><path class="cls-2" d="M242,221.51c1.95,1.21,3.72,2.56,5.55,3.93s3.58,2.94,5.81,3.59a1.44,1.44,0,0,0,1.61-2.1c-1.44-2.15-3.75-3.49-5.84-5s-3.89-2.9-6.37-3.24c-1.57-.21-1.91,2.09-.76,2.8Z"/><path class="cls-2" d="M304.52,230.11c1.13-.85,1.44-2.24,2.16-3.42s1.7-2.22,1.72-3.64a1.29,1.29,0,0,0-1.29-1.29c-1.68.22-2.69,1.52-3.45,3-.68,1.26-1.71,3.11-1.19,4.56a1.41,1.41,0,0,0,2,.84Z"/><path class="cls-2" d="M307.14,224.63c1.24.18,3.17.53,4.13-.51a1.36,1.36,0,0,0,0-1.86c-1-1-2.89-.69-4.13-.51-1.42.22-1.42,2.67,0,2.88Z"/><path class="cls-2" d="M308.33,223a13.69,13.69,0,0,0-.41,3.94,8.43,8.43,0,0,0,.49,3.8,1.48,1.48,0,0,0,2.53,0,8.3,8.3,0,0,0,.49-3.8A13.68,13.68,0,0,0,311,223a1.41,1.41,0,0,0-2.7,0Z"/></svg>