<svg id="Layer_1" data-name="Layer 1" xmlns="http://www.w3.org/2000/svg" viewBox="0 0 500 500"><defs><style>.cls-1{fill:#b2b2b2;}.cls-2{fill:#0f090b;}</style></defs><title>2Artboard 1</title><path class="cls-1" d="M80.9,118,80.69,117l-4.19,1.16c.85,2.3,1.75,4.6,2.54,6.92,1,3.09.52,5.47.26,8.62-.33,4,.54,7.24,3.66,9.94,1.33,1.16,3.82.47,3.72-1.54-.18-3.73.71-10.11-2.26-13-1.23-1.18-2-1.24-2.73-2.8-1.28-2.84-1.09-6.73,2.68-7L82.13,117c.07,2.2-1.26,3.95-2,5.89A20,20,0,0,0,78.88,129a20.4,20.4,0,0,0,.11,5.52c.4,1.74,3,5.47,1.71,6.76-1.73,1.69,1,4.37,2.65,2.65,2.93-3,2.5-5.64.63-9-3.5-6.28,2.76-11.76,2.63-17.89a2.26,2.26,0,0,0-2.24-2.24c-5.73.41-9,3.86-7.7,9.83.42,1.9.66,4.47,2,6,1.85,1.95,2.39.51,3.19,4.16a41.72,41.72,0,0,1,.41,7.34L86,140.5c-4.07-3.88-1.34-8.29-1.87-13-.4-3.61-2.23-7.17-3.48-10.55a2.16,2.16,0,1,0-4,1.68l.47,1c1.07,2.17,4.13.57,3.71-1.57Z"/><path class="cls-1" d="M123.2,129.68c5.22.95,10.7.42,16,.28s10.93.29,16-1.19a1.84,1.84,0,0,0,0-3.52c-5.13-1.29-10.77-.62-16-.44s-10.86,0-16,1.43c-1.61.44-1.79,3.11,0,3.44Z"/><path class="cls-1" d="M125.19,127.28c5.15.35,10.49-.76,15.68-.89s10.57.73,15.74.18a2.09,2.09,0,0,0,.55-4.08c-5.09-1.7-11-1.44-16.29-1.27s-11.32.32-16.18,2.35a1.9,1.9,0,0,0,.5,3.71Z"/><path class="cls-1" d="M128.93,145.06c-1,.35,0-6.78.07-7.15.44-1.95,1.08-3.84,1.57-5.78h-2.84c1.47,3.67.12,8.41.49,12.29.26,2.83,2.15,3.26,4.86,3.69l.39-2.88c-1.3,0-2.61-.09-3.91-.11a1.51,1.51,0,0,0-.76,2.8c2,1,4.73.61,4.47-2.21a27.8,27.8,0,0,0-.94-2.94,19.13,19.13,0,0,1-.25-4.14c.08-3.38,1.08-4.8,2.53-7.66a1.2,1.2,0,0,0-1.34-1.74c-2.7.52-3.78,3.48-4.14,6a25,25,0,0,0,0,5.73,19.52,19.52,0,0,0,.38,2.64l.29,1.1c.18,1.19.35,1.41.54.67l-.76,2.8c1.3,0,2.61,0,3.91,0,1.92,0,1.84-2.75,0-2.93-2.78-.26-2.36-1.47-2.35-3.78,0-1.19,0-2.37,0-3.56a28.09,28.09,0,0,0-.51-6.54c-.37-1.52-2.36-1.27-2.84,0-1.49,4-3.31,9.8-2.16,14.11.61,2.24,3.29,4,4.77,1.43.51-.89-.35-2.21-1.41-1.83Z"/><path class="cls-1" d="M130.06,115l-.8,1.3c-.21.34.32.64.54.31l.83-1.28c.23-.35-.34-.69-.57-.33Z"/><path class="cls-1" d="M130,116a.3.3,0,0,0,0-.6.3.3,0,0,0,0,.6Z"/><path class="cls-1" d="M125.18,117a4.26,4.26,0,0,0-1.14-.54.46.46,0,0,0-.25.89,3.11,3.11,0,0,1,1,.4c.48.29.89-.44.43-.75Z"/><path class="cls-1" d="M125.23,116.59c-.52-.32-1.08-.59-1.61-.9a.89.89,0,0,0-1.07.14,1.77,1.77,0,0,0-.26.35,1,1,0,0,0,.14,1.11l0,0-.21-.37a1.11,1.11,0,0,0,1.09.85.65.65,0,0,0,.55-1,.28.28,0,0,1,0-.09l-.41.72a1.35,1.35,0,0,0,.45-.57l-1,.41a8.25,8.25,0,0,1,1.52.59.76.76,0,0,0,.77-1.31Z"/><path class="cls-1" d="M153.51,131.54s-.85,0-.7-.09l-.12.51a.91.91,0,0,1,.16-.11,2.15,2.15,0,0,0,.79-.68,1.28,1.28,0,0,0-1.81-1.8c-.23.19-1,.88-1.25.85l.68.18-.15-.12.6.79c-.27-.73-.36-1.48-1.26-1.7s-1.5.44-2.08,1a1.31,1.31,0,0,0,.57,2.15c1.13.47,2.26,1.43,3.51.85a.8.8,0,0,0,.41-.71c0-1.58-2-2.2-3.24-2.62l.57,2.15.34-.37c.26-.23.23-.24-.08,0l-1-.13c-.26-.78-.4-1-.39-.58a1,1,0,0,0,0,.46,1.59,1.59,0,0,0,.38.82,1.67,1.67,0,0,0,1.44.55c1.06-.08,1.94-1.05,2.69-1.73l-2-1.54c-.24.39-.73.58-1,1a1.83,1.83,0,0,0,0,1.8c.77,1.32,2.26.78,3.32.24.67-.34.18-1.28-.48-1.15Z"/><path class="cls-1" d="M154.12,132.61c0-.14,1.32-.43,1.44-.46a2.85,2.85,0,0,1,.7-.12c.5,0,.56-.05.17-.26l.21-1.59a3.64,3.64,0,0,1-2.17.9l.39,2.91a20.22,20.22,0,0,1,3-.57,8.32,8.32,0,0,1,2.63-.09l-1-1,.05.14,1-1.7c-.47.12-1.48.44-1.95.16l.6.79-.07-.26-.34,1.26c.2-.21,2.31.22,2.65.26,1,.12,1.52-1.35.83-2-.45-.42-.38-.55-.37,0l-.59,1,.16-.1h-1.19l.05.35c0,2.11,3.31.93,2.22-.6l-.14-.2a1,1,0,0,0-1.78,0l-.14.2,2.22.6a2.59,2.59,0,0,0-1.24-2.39,1.2,1.2,0,0,0-1.19,0c-1.36.94-.56,2,.33,2.78l.83-2c-1.36-.16-4.88-1.11-4.85,1.3s3.27,1.85,4.69,1.49a1.39,1.39,0,0,0,1-1.7c-.75-2.59-6.37-1.11-8.14-.63s-1.05,3.13.78,2.86a6,6,0,0,0,3.64-2,1.32,1.32,0,0,0,0-1.86c-1.07-.88-2.28-.59-3.55-.25-1.11.3-2.84.74-3,2.07s2,2.06,2.21.61Z"/><path class="cls-1" d="M88.48,123.85a6.74,6.74,0,0,1,4.6-.19l-.52-3.93a24.08,24.08,0,0,0-6.42,6.15c-1.14,1.55.76,3.8,2.49,3.23a24.43,24.43,0,0,0,6.5-3.2L92.5,122.5a18.24,18.24,0,0,1-5.57,3.13c-2.77,1-1.7,5.26,1.24,4.49,2.61-.69,5.2-1.41,7.78-2.2L94.32,124c-2.19,1.11-4.32,2.27-6.4,3.57a2.13,2.13,0,0,0,2.15,3.68,34.11,34.11,0,0,1,10.86-3.45l-1.08-3.91c-4.4,1.6-8.81,3.1-13.11,4.95-1.87.8-.86,3.77,1,3.72,2.8-.08,5.1-1.17,7.76-1.95A51.34,51.34,0,0,1,106.88,129c6.61-.42,13.12-.59,19.41-2.86,3-1.09,1.72-6-1.34-4.88-6.42,2.37-13.07,2.61-19.81,3.32a64.37,64.37,0,0,0-7.43,1.13c-3.31.75-6.57,2.74-10,2.9l1,3.73a71.35,71.35,0,0,1,12.17-4.49c2.17-.55,1.78-4.16-.54-4a30.75,30.75,0,0,0-12.47,3.76l2.15,3.68a58,58,0,0,1,6.39-3.58c2.27-1.09.59-4.34-1.64-3.88-2.64.54-5.26,1.15-7.89,1.8l1.8,4.25a39.56,39.56,0,0,0,6.84-4.31c1.93-1.5-.6-4.8-2.63-3.41a19.47,19.47,0,0,1-5.48,2.71l2.48,3.23a21.4,21.4,0,0,1,4.79-4.66c1.32-1,1.49-3.57-.51-3.92a8.67,8.67,0,0,0-7,1.3c-1.54,1-.58,3.63,1.27,3Z"/><path class="cls-1" d="M120.65,127.86a39.75,39.75,0,0,0,1-8.84l-4.06,1.68c.73.78.57,2.65.6,3.68,0,1.37-.12,2.71-.2,4.08-.13,2.37,3.86,3,4.21.57a19.56,19.56,0,0,0,.09-4.65c-.06-.63-.14-1.27-.24-1.89a10.08,10.08,0,0,1-.49-2.84c.65-3.41-4.56-4.08-4.66-.63a72,72,0,0,1-.72,7.61c-.41,2.86,3.75,4.21,4.46,1.23Z"/><path class="cls-1" d="M92.51,126.34c-.65-1.17,8.74-2.67,9.45-2.71,3.11-.17,6.24,0,9.34.17a69.22,69.22,0,0,0,18.46-1.16c2.46-.56,2-4.78-.6-4.48a109.12,109.12,0,0,1-16.15,1c-4.73-.16-9.42-.48-14.11.35-3,.54-13.89,4.15-8,8.45,1,.74,2.16-.67,1.63-1.63Z"/><path class="cls-1" d="M108.08,126.1a37.68,37.68,0,0,1,8.39-1.08l-.55-4.08a11.8,11.8,0,0,0-3.29,1.5c-1.74,1.06-1.19,4.41,1.12,4.15a62,62,0,0,1,9.22-.75c1,0,4.36,1,5.09.68.05,0-2.66-.11-3.13,0-2,.28-1.45,2.95,0,3.5,3.21,1.22,11.43-1.23,8.09-5.89-3.65-5.07-14.86-2.8-19.86-1.87l1.72,4.08a6.11,6.11,0,0,1,2.64-1.55c1.89-.81.94-4-1-3.88a58.75,58.75,0,0,0-9.39,1.63c-2.34.58-1.35,4.2,1,3.61Z"/><path class="cls-1" d="M129.23,112.86a17,17,0,0,0-.35-5.06c-.31-2.15-3.34-1.37-3.53.48a102.24,102.24,0,0,1-1.67,10.87l3.54.48c-.6-1.8.23-2.94,2.47-3.45a10,10,0,0,1-1.37,4.82l3.35,1.41a22.55,22.55,0,0,1,3.18-5.82l-3.38-.92c-.26,2.49-.62,5-1.08,7.41l3.78.51c-.09-2-.2-3.89-.28-5.84H130.6l-.81,3.12,2.88-.37a6.17,6.17,0,0,1-2.55-5.43l-3,1.26.12,1.67,3.39.92c-.36-4.12,3-9.07-2.51-10.46l-.45,3.32a7.78,7.78,0,0,1,7.53,4.08l2.5-2.49a37.82,37.82,0,0,0-6.41-3.75,1.74,1.74,0,0,0-1.76,3,21.27,21.27,0,0,1,5.1,4.59l.77-2.9-3.66.69c-2,.37-1.44,3.38.47,3.41,7.71.15,15.41.64,23.13.59,2.44,0,2.42-3.67,0-3.78-7.71-.34-15.42-.14-23.13-.28l.46,3.41,3.65-.69c1.41-.27,1.52-2,.77-2.91a24.27,24.27,0,0,0-5.8-5.13l-1.76,3a33.91,33.91,0,0,1,6.32,3.9c1.51,1.15,3.36-1,2.5-2.5a10.91,10.91,0,0,0-10.68-5.62c-1.78.13-2.42,2.89-.45,3.32.7.15-.36,6-.23,7.2.18,1.7,2.41,2.61,3.39.92a4.58,4.58,0,0,0-.75-6,1.79,1.79,0,0,0-3,1.25,10.61,10.61,0,0,0,3.51,8,1.85,1.85,0,0,0,2.88-.37,7.89,7.89,0,0,0,.93-5,1.65,1.65,0,0,0-3.29,0c-.09,2-.19,3.89-.28,5.84-.09,2.13,3.4,2.67,3.78.51a76.63,76.63,0,0,0,1-8.43c.12-2-2.41-2.21-3.38-.91a25.74,25.74,0,0,0-3.59,6.67c-.71,1.94,2.46,3.29,3.36,1.42,1.44-3,3.56-10.17-.72-12.18-5.18-2.44-7.45,5.53-7.15,9,.16,1.89,3.09,2.6,3.54.48a96.48,96.48,0,0,0,1.78-11.83l-3.53.48c.39,2.16.82,3.4,2.71,4.55a.77.77,0,0,0,1.11-.45Z"/><path class="cls-1" d="M143.68,122.18a41,41,0,0,0,12.06.08c1.79-.32,1.39-3.33-.43-3.18a55.38,55.38,0,0,1-12.34-.35l-.42,3.17c8-.17,16-.09,24,.52l-.48-3.57c-4.58.67-9.25,1.11-13.78,2.05-1.53.32-1.1,2.57.36,2.63a77.28,77.28,0,0,0,14.39-1.17c2.13-.32,1.43-3.44-.49-3.58a173.91,173.91,0,0,0-24-.11c-2.07.15-2.07,3.39,0,3.23a54.7,54.7,0,0,1,12.33.36l.43-3.18c-3.88.25-7.73.44-11.63.53a1.29,1.29,0,0,0,0,2.57Z"/><path class="cls-1" d="M152.63,132.71c1.33,7.58.12,15.71.87,23.42.22,2.35,3.92,2.37,3.69,0-.58-5.93-2-14.87.71-20.4l-3.42-.44c1.78,6.65,0,13.89,3,20.24.92,2,4,.23,2.93-1.72-1.68-3.14-3.28-13.61-.57-16.81L157,135.84c.53,5.81.74,11.64,1.23,17.45.21,2.41,3.83,2.5,3.83,0a111,111,0,0,0-1.83-17.89c-.26-1.55-2.27-1.4-3-.39-3.81,5.21.61,13.8,0,19.66l3.34-.45c-1.42-6.59-.7-13.43-2.5-19.93-.41-1.45-2.7-1.94-3.42-.44-3.13,6.54-1.61,15.32-1.17,22.28h3.69c-.4-4.9-.66-9.81-.72-14.73,0-3.41.2-6.61-1.62-9.62a1.22,1.22,0,0,0-2.22.93Z"/><path class="cls-1" d="M149.67,133.85a22.55,22.55,0,0,0,3.05,11.47,1.85,1.85,0,0,0,3.42-.93,6.27,6.27,0,0,0-.78-4.44,1,1,0,0,0-1.77,0,17.2,17.2,0,0,0-1.06,4l3.36-.44a18.34,18.34,0,0,1-3.35-9.61,1.44,1.44,0,0,0-2.87,0Z"/><path class="cls-1" d="M152.79,138.79c.64,5.72,1.67,11.31,2.09,17.06.18,2.55,4.05,2,3.43-.46l-.07-4.28-2.31-.32c-.54,4.91-1.05,9.76-2,14.61h3.52a44.18,44.18,0,0,1-1-9.45c0-2.18-3.21-2.14-3.36,0a23.29,23.29,0,0,0,1.05,9.12c.51,1.59,3.35,2,3.62,0,.39-2.86.42-5.92,1.23-8.7l-3-.41c.15,2.35-1,11.38,3.25,11s2.58-10.31,2.63-12.65h-3.69a112.15,112.15,0,0,1,.19,12.3c-.09,2.48,3.76,2.47,3.85,0,.23-5.88-.75-9.26-3.86-14.11-4-6.27-3.12-12.08-2.39-19,.17-1.67-2.53-2.39-3.22-.87-2.2,4.85-1.45,10.44.34,15.34,1,2.61,2.56,4.69,3.85,7.11,2,3.67,1.8,7.54,1.43,11.56h3.85a75.42,75.42,0,0,0-.35-12.3,1.85,1.85,0,0,0-3.69,0c-.09,2-1.16,7.58.8,8s1-.83.75-2.36-.49-2.95-.74-4.42c-.32-1.8-2.87-1.2-3,.4-.22,2.73-1.24,5.45-1.85,8.12h3.62A25.49,25.49,0,0,1,156.4,156H153a41.87,41.87,0,0,0,.86,10.42c.36,1.7,3.21,1.77,3.52,0a59,59,0,0,0,.86-15.58c-.14-1.48-2.44-1.52-2.35,0l-.81,4.18,3.25.88c0-5.9-1-12.27-3.58-17.6-.45-.93-2.12-.52-2,.54Z"/><path class="cls-1" d="M157.86,124c4-.76,7.92-1.5,11.94-2l-2-2c0,.63-4.57,2.4-5.19,2.69-2.27,1-4.58,2-6.92,2.85s-1.44,4.62,1.06,3.86c5.24-1.59,10.46-3.22,15.69-4.85L170.94,121c-4.62,2-9.63,2.87-14.57,3.71l2,3.39c2-2.64,6.21-4.11,9.12-5.65,1.85-1,.54-3.73-1.39-3.29-3.92.89-7.82,1.89-11.72,2.86l1,3.76c4-1.51,8-3.2,11.85-5.05,1.73-.83.74-3.29-.92-3.38-4.37-.23-8.73.9-13,1.89l1.51,3.57a19.67,19.67,0,0,1,8.39-3.57l-1.74-3a8.72,8.72,0,0,1-2.27,1.79,1.53,1.53,0,0,0,1.17,2.78,6.61,6.61,0,0,0,3.64-2c1.38-1.34-.09-3.29-1.75-3a27.67,27.67,0,0,0-9.42,3.66,2,2,0,0,0,1.51,3.57c3.94-.83,7.86-2.12,11.92-2l-.91-3.38c-3.63,1.63-7.31,3.09-11.05,4.42-2.34.83-1.42,4.41,1,3.76,3.89-1,7.78-2,11.65-3.15l-1.39-3.29c-3.24,1.7-7.78,3-10.16,5.89a2,2,0,0,0,2,3.39c5.37-.87,10.53-1.91,15.51-4.17,2.07-.94.6-4.31-1.55-3.65-5.23,1.6-10.46,3.2-15.68,4.84l1.06,3.86a103.5,103.5,0,0,0,10.26-4.45c2.31-1.16,4.57-2.11,4.7-5a2,2,0,0,0-1.95-2,95.34,95.34,0,0,0-12.88,2.47c-2.21.61-1.27,3.82.94,3.4Z"/><path class="cls-1" d="M168.38,122.84l-.11.19a1.75,1.75,0,0,0,.27,2.06l.17.2a1.74,1.74,0,0,0,2.06.27,5.21,5.21,0,0,0,1.22-1c.63-.61,2.33-3.58-1-.88-.84.69-.93,2.55-.83,3.49A1.53,1.53,0,0,0,173,128c.74-1.27,1.45-2.54,2.13-3.85l-2.69-.73.12,1.15a1.41,1.41,0,0,0,2.09,1.2l.53-.28a1.1,1.1,0,0,0,.49-1.21c-.36-1.8-2-4.4-1.69-6,.26-1.39-1.62-2.35-2.38-1-1.21,2.12-9-.2-10.57-.58v3.51a41.46,41.46,0,0,1,10.58-1.1v-3.39c-6,.55-11.94.9-18,1l.49,3.55c3.52-1.17,18.58-4.07,18.65,2.45a1.52,1.52,0,0,0,2.8.76c5.61-10.95-17.88-8.08-22.42-6.7-1.91.59-1.6,3.58.48,3.55a153.85,153.85,0,0,0,18-1.19,1.7,1.7,0,0,0,0-3.39,42.33,42.33,0,0,0-11.55,1c-1.81.34-1.65,3.07,0,3.51,3.61,1,12.21,2.7,13.92-1.93l-2.56-.34c-.09,2.52,2.4,4.31,2.13,6.66l1.63-.93.15-.21a1.46,1.46,0,0,0-2.7-.73c-.78,1.24-1.52,2.5-2.25,3.77l2.78.37c-.4-2,2.13-4.22.2-6a1.59,1.59,0,0,0-1.83-.24c-1,.46-1.56,1.51-2.51,2l2.06.27-.18-.2.27,2.06.11-.2a1.7,1.7,0,0,0-2.94-1.71Z"/><path class="cls-2" d="M81.19,143.64c1-4.24-.54-8.51-1.76-12.56a70.93,70.93,0,0,1-2.8-16,1.5,1.5,0,0,0-2.94-.4c-1.47,4.37-.22,9.13,1.08,13.41,1.55,5.11,2.8,10.51,4.62,15.51.29.8,1.58,1,1.8,0Z"/><path class="cls-2" d="M75.51,116.47c1.9.07,3.78-.06,5.67.1a22.31,22.31,0,0,0,5.22.25c1.26-.19,1.39-2.12.35-2.67-3.16-1.67-8.24-1.27-11.61-.46a1.42,1.42,0,0,0,.37,2.78Z"/><path class="cls-2" d="M85.11,116.13c-2.56,3.94-1.3,11-1.15,15.51a36.28,36.28,0,0,0,.86,6.31c.65,3.1,1.3,6.76-3.62,4.36a1.49,1.49,0,0,0-2.2,1.27v.74a2,2,0,0,0,1.41,1.85,16.9,16.9,0,0,0,7.22-.15,1.76,1.76,0,0,0,1.24-1.24c1.06-4.32-1.07-8.84-1.25-13.14-.2-4.74,1.45-11.41-1.22-15.51a.75.75,0,0,0-1.29,0Z"/><path class="cls-2" d="M120.27,117.06c1.86,4.75.88,8.57,0,13.35a1.55,1.55,0,0,0,2.83,1.19c1.54-2.44,1.91-5.81,1.8-8.65-.09-2.24-.29-5.47-2.09-7a1.55,1.55,0,0,0-1.77-.23l-.26.12a1.11,1.11,0,0,0-.51,1.26Z"/><path class="cls-2" d="M122.84,114.59l-.2,0a1.46,1.46,0,0,0-1.06,1.39c-.13,3-.16,6.87,1.12,9.69.59,1.29,2.33.49,2.43-.66a26.09,26.09,0,0,0-.38-4.49c-.14-1.51-.2-3-.28-4.54a1.5,1.5,0,0,0-1.06-1.39,1.11,1.11,0,0,0-.57,0Z"/><path class="cls-2" d="M120.63,116c9,.88,18.2.26,27.24.35,8.36.09,17.45,1.37,25.7,0,1.53-.25,1.41-2.64,0-3-8.35-2-18.14-1-26.68-1-8.8.06-17.87-.19-26.58,1.25-1.43.24-.92,2.23.32,2.35Z"/><path class="cls-2" d="M120.62,132.88c9.59.4,19.49-1.27,29.1-1.76q6.79-.35,13.61-.56c4.64-.15,9.54.17,14-1a1.62,1.62,0,0,0,0-3.1c-8.85-2.15-19.62-.28-28.64.33-9.35.64-19.42.73-28.52,3.13a1.53,1.53,0,0,0,.4,3Z"/><path class="cls-2" d="M176.6,128.42c3.66-3.4,1.94-9.14,1-13.27-.46-2.08-4.06-1.67-3.78.51s1.24,4,1.32,6.15-.69,4.2,0,6.23a.88.88,0,0,0,1.46.38Z"/><path class="cls-2" d="M178.16,115.48l-.2,0a.6.6,0,0,0-.73.72l.05.2a.72.72,0,0,0,1.19.32.73.73,0,0,0-.31-1.2Z"/><path class="cls-2" d="M134.73,118.55a5.36,5.36,0,0,0-.46,2,2.47,2.47,0,0,0,.6,1.92.74.74,0,0,0,1.21-.32,3.16,3.16,0,0,0-.09-1.72c-.09-.59-.24-1.19-.28-1.78a.5.5,0,0,0-1-.14Z"/><path class="cls-2" d="M135.13,123.3c4.28-.25,8.56.1,12.82-.1a1,1,0,0,0,.26-1.86c-4.16-1.22-9.15-.75-13.31.24a.88.88,0,0,0,.23,1.72Z"/><path class="cls-2" d="M134.17,119c2,.87,4.21.72,6.33.78,2.37.06,5,.4,7.26-.31a1,1,0,0,0,0-1.83c-2.16-.59-4.53-.26-6.76-.25s-4.61-.33-6.67.41c-.47.17-.73,1-.16,1.2Z"/><path class="cls-2" d="M146.78,119.92l.12,0-.46-.36c.39.68-.32,1.91-.15,2.74a1,1,0,0,0,1.91.25,4.75,4.75,0,0,0,.4-3.06c-.22-1-1.36-1.66-2.12-.78a.71.71,0,0,0,.3,1.16Z"/><path class="cls-2" d="M128.09,132.19a.26.26,0,0,0,0-.51.26.26,0,0,0,0,.51Z"/><path class="cls-2" d="M126.86,131.23c-2.62,2.14-2.93,7.57-3.33,10.74-.31,2.35-.55,5,1.77,6.37a.9.9,0,0,0,1.23-1.23c-2.93-4.83,2.44-10.8,1.18-15.66a.51.51,0,0,0-.85-.22Z"/><path class="cls-2" d="M124.9,148.23c.82,1.56,3.24,1.83,4.84,2a10.25,10.25,0,0,0,6.07-1.32,1.08,1.08,0,0,0-.82-2,17.72,17.72,0,0,1-5.25.78c-1.46,0-3-.85-4.44-.44a.68.68,0,0,0-.4,1Z"/><path class="cls-2" d="M134,131.38a17.22,17.22,0,0,0-2.34,9.08c0,.56.54,8,2.7,6.38-.87.66-.78,2.59.65,2.4l.36,0a1.44,1.44,0,0,0,1.34-1c.42-2.35-1.94-3.76-2.26-6.06-.48-3.39.71-6.7,1.39-10a1,1,0,0,0-1.84-.78Z"/><path class="cls-2" d="M134,135.79a8.11,8.11,0,0,0,2.78-4.33,1.15,1.15,0,0,0-2.22-.61,16,16,0,0,1-1.92,3.57c-.5.81.53,2,1.36,1.37Z"/><path class="cls-2" d="M125.11,132.58l-.08.08-1.35-.36c1.44,1.87.72,3.9.48,6h2a37.52,37.52,0,0,0,.14-4.23c-.13-1.18-.84-1.78-1.53-2.67s-2.26.42-1.43,1.43c.22.27.5.49.7.76a2.43,2.43,0,0,1,.34,1.8c0,1-.12,1.93-.25,2.91-.15,1.17,1.67,1.3,2,.27.79-2.51.76-5.38-.93-7.48-.9-1.11-2.53.91-1.2,1.55a2.42,2.42,0,0,0,.59.2.41.41,0,0,0,.49-.28Z"/><path class="cls-2" d="M134.21,135c.21-.57,1-.93,1.52-1.26a17,17,0,0,1,1.54-.93c1-.54,2.18-.77,3-1.56a.78.78,0,0,0-.34-1.29c-1.49-.33-3.17.69-4.34,1.55s-2.49,1.92-2.4,3.35a.53.53,0,0,0,1,.14Z"/><path class="cls-2" d="M135.71,119.34l-.39.12.57,2.06c.86-.28,1.73-.55,2.57-.89l-1.13-1.46a3,3,0,0,1-1.58,1.26l.83,2c.49-.29,2.49-2,2.87-1.92l-.44-1.66c-.48.4-1,.79-1.47,1.16-.84.64-.41,2.35.81,1.9a8.6,8.6,0,0,0,3.24-2l-1.19-1.19a3.12,3.12,0,0,1-.82.84,1.08,1.08,0,0,0,.82,2,13.26,13.26,0,0,0,5.28-2.46c.62-.52-.06-1.48-.76-1.3-1.72.45-3.39,1.16-5.09,1.69L141,121a12.19,12.19,0,0,1,.68-1.29c.47-.77-.43-1.49-1.15-1.15-.93.43-1.82.91-2.78,1.29l1,1.74c.53-.47,1.05-.94,1.6-1.38a1,1,0,0,0-.43-1.66c-1.52-.44-3.31,1.19-4.48,2a1.07,1.07,0,0,0,1.08,1.85,6.22,6.22,0,0,0,2.48-2.21c.51-.76-.34-1.66-1.13-1.47s-1.74.49-2.61.75c-1.31.4-.75,2.46.57,2.06l.39-.12c1.32-.4.74-2.49-.57-2.06Z"/><path class="cls-2" d="M132.6,139.89c2,.6,6.14.74,7.4-1.26.73-1.17.81-2.93,1.09-4.26s.89-3.13.34-4.51a1,1,0,0,0-1.65-.44c-1.45,1.46-1.48,4.19-1.84,6.12a4.58,4.58,0,0,1-.28,1.48c-.23.31-.67.29-1.1.36a34.9,34.9,0,0,0-4,.54,1,1,0,0,0,0,2Z"/><path class="cls-2" d="M136.34,136a3.49,3.49,0,0,0,.64-2.41,7.48,7.48,0,0,0,0-2.75,1,1,0,0,0-1.58-.41,4.33,4.33,0,0,0-.92,3c0,1,.07,2.14,1,2.69a.74.74,0,0,0,.89-.12Z"/><path class="cls-2" d="M148.49,128.81c-1,.39-1,1.34-1,2.3a3.31,3.31,0,0,0,.75,2.55.9.9,0,0,0,1.4-.19,5,5,0,0,0,.3-2.74,2.68,2.68,0,0,0-.18-1.35,1.16,1.16,0,0,0-1.23-.57Z"/><path class="cls-2" d="M148.75,135a27.17,27.17,0,0,0,15.27.14,1.28,1.28,0,0,0-.34-2.5c-2.43-.15-4.88.24-7.31.27s-4.89-.31-7.31-.15a1.15,1.15,0,0,0-.31,2.24Z"/><path class="cls-2" d="M164.72,134.11c.17-1.14.3-2.23.38-3.38s.26-2.27-.61-3a1,1,0,0,0-1.44,0c-.86.81-.64,2-.52,3s.3,2.25.51,3.38c.16.81,1.56.85,1.68,0Z"/><path class="cls-2" d="M118.4,116.46l.21-.11-.85.23c1.92-.13,4.28.39,6-.58a1.39,1.39,0,0,0,0-2.38,6.59,6.59,0,0,0-3.65-.59c-1.07,0-2.51-.1-3.42.55a1.67,1.67,0,0,0,1.69,2.88Z"/><path class="cls-2" d="M120.46,131a3.59,3.59,0,0,0-2.5-.92,1.37,1.37,0,0,0,0,2.73,4.89,4.89,0,0,0,2.08-.22,1,1,0,0,0,.42-1.59Z"/><path class="cls-2" d="M116.6,115.2c-1.67,2-.91,4.78-1,7.27-.09,3.06-1,6.54-.21,9.51a1.21,1.21,0,0,0,2.19.28c1.44-2.66,1.19-6.21,1.25-9.18.05-2.54.72-6-1.23-7.88a.72.72,0,0,0-1,0Z"/><path class="cls-2" d="M85.72,120.42c11.07,1.06,25,1.24,35.58-2.62,1.45-.53,1.36-2.94-.38-2.85-5.85.3-11.64,1.75-17.52,2.18a176.7,176.7,0,0,1-17.68.15c-2-.06-2,3,0,3.14Z"/><path class="cls-2" d="M85.07,133.72a8,8,0,0,0,3.7.54,7.94,7.94,0,0,0,3.67-.6,1.16,1.16,0,0,0,0-2,7.92,7.92,0,0,0-3.67-.6,8,8,0,0,0-3.7.54,1.24,1.24,0,0,0,0,2.11Z"/><path class="cls-2" d="M91.86,133.14c2.11-1.61,1.25-4.74,1.27-7.15a28.47,28.47,0,0,1,.37-4.79c.27-1.45.54-2-.15-3.29a1.07,1.07,0,0,0-1.44-.37c-2.53,1.11-2.21,5.14-2.22,7.49,0,2.5-.81,6.49,1.45,8.11a.69.69,0,0,0,.72,0Z"/><path class="cls-2" d="M91.84,131.55c4.31,1.94,9,1,13.59.48,3.69-.42,8.62,0,11.47-2.64a1.4,1.4,0,0,0-1-2.37c-3.71-.13-7.69.87-11.4,1.31-4,.49-8,.58-12.07.95-1.06.1-1.83,1.72-.61,2.27Z"/><path class="cls-2" d="M97.27,126.4c2.41.79,5.36.17,7.86,0,2-.15,4.3,0,5.52-1.85a1,1,0,0,0-.15-1.16c-1.59-1.72-4.23-1-6.31-.75-2.39.24-5.08.17-7.24,1.32a1.36,1.36,0,0,0,.32,2.45Z"/><path class="cls-2" d="M149.17,133.81c-.33,5.84.46,11.89.84,17.73.33,5.3.26,10.94,1.75,16.07a1,1,0,0,0,2,0c1.15-5.51.46-11.49,0-17.06s-.72-11.6-2.17-17.07a1.25,1.25,0,0,0-2.45.33Z"/><path class="cls-2" d="M160.82,134.1c-1.95,4.28-.08,10.15.28,14.74.49,6.1.73,12.21,1.06,18.32.12,2.27,3.55,2.31,3.55,0,0-6.43-.42-12.88-1-19.28-.4-4.39,0-10.37-2.85-13.91a.66.66,0,0,0-1,.13Z"/><path class="cls-2" d="M152.9,169.67c3.77,1.08,9.33,1.5,12.51-1.22,1.12-1,.13-2.59-1.12-2.69-1.69-.13-3.3.48-5,.61a24.78,24.78,0,0,1-5.44-.24c-2.27-.33-3.31,2.87-1,3.54Z"/><path class="cls-2" d="M125.41,115c.86-1.13.77-3,.62-4.35a5.87,5.87,0,0,0-1.66-4,1.24,1.24,0,0,0-2.05.54,11.33,11.33,0,0,0,.25,3.93c.2,1.3.06,2.7.66,3.89a1.28,1.28,0,0,0,2.18,0Z"/><path class="cls-2" d="M122.81,108.37c1.36,1,3.48.4,5.06.27s3.59-.06,5-1.09a1.23,1.23,0,0,0,0-2.1c-1.63-1-3.57-.72-5.38-.53-1.62.16-3.92.08-5,1.45a1.3,1.3,0,0,0,.25,2Z"/><path class="cls-2" d="M130,108.51c1.95,1.21,3.72,2.56,5.55,3.93s3.58,2.94,5.81,3.59a1.44,1.44,0,0,0,1.61-2.1c-1.44-2.15-3.75-3.49-5.84-5s-3.89-2.9-6.37-3.24c-1.57-.21-1.91,2.09-.76,2.8Z"/><path class="cls-2" d="M179,115c-.55,1.66.4,3.38.72,5.05.43,2.28.45,4.62.74,6.92.12.94,1.53,1.34,1.8.24a17.14,17.14,0,0,0,0-7c-.32-1.93-.54-4.51-2.32-5.62a.68.68,0,0,0-1,.4Z"/><path class="cls-2" d="M179.67,116.74c4.51,1.22,9.63.6,14.28.75,5.25.16,10.64.92,15.87.35,1.24-.14,1.69-2,.31-2.32-4.92-1.29-10.18-1.16-15.24-1.3s-10.48-.86-15.22.55a1,1,0,0,0,0,2Z"/><path class="cls-2" d="M181.81,128.6c6,.78,12.26.1,18.28,0,5.52-.06,11.32.54,16.75-.56a1.42,1.42,0,0,0,0-2.72c-5.69-1.3-11.91-.64-17.71-.5s-12,0-17.66,1.3c-1.48.36-.95,2.28.34,2.45Z"/><path class="cls-2" d="M183.25,117.29c10.51-1.08,21.5,1,31.9-.82,1.63-.28,1-2.46-.36-2.64-5.36-.68-11.13.11-16.53.31-5.14.19-10.27.15-15.19,1.76-.72.24-.65,1.47.18,1.39Z"/><path class="cls-2" d="M215.34,116.87c.86-.08.64,3.86.59,4.15-.34,1.71-1.27,3.19-1.82,4.83s1.9,2.59,2.85,1.2a12.71,12.71,0,0,0,2.26-8.91c-.35-1.86-1.88-5.1-4.26-4.12-1.37.56-1.4,3,.38,2.85Z"/><path class="cls-2" d="M218,127.05a4.94,4.94,0,0,0,1.61-4.62c-.22-1.61-.49-3.62-1.86-4.64a.9.9,0,0,0-1.22.32c-.66,1.24-.21,2.64.08,3.94a4.29,4.29,0,0,1,.17,2.1c-.22.82-.67,1.26-.63,2.14a1.1,1.1,0,0,0,1.85.76Z"/><path class="cls-2" d="M178.53,117.93l0,0-1.43,1.44c1.05.35,2.19-.1,3.25-.25s2.28-.2,3.41-.46c1.36-.31,1.45-2.58,0-2.83a10.39,10.39,0,0,0-4,.2,5,5,0,0,0-3.31,1.63c-.68.92.66,2.25,1.59,1.59H178a.81.81,0,0,0,.56-1.35Z"/><path class="cls-2" d="M177.56,126a21.63,21.63,0,0,0,3-.16,4.38,4.38,0,0,0,2.62-1c.58-.45.25-1.26-.2-1.6-1.62-1.24-4.41-.67-6.12.16-1.33.65-.55,2.48.7,2.58Z"/><path class="cls-2" d="M180.12,121.12a.65.65,0,0,1,.14-.46l-.59.45.25,0-1.45-1.46a10,10,0,0,0-.2,3,1.43,1.43,0,0,0,1.42,1.43,1.46,1.46,0,0,0,1.43-1.43,4.88,4.88,0,0,0-.43-3,1.29,1.29,0,0,0-2.39.64c0,.8.06,1.58,0,2.37l2.8-.38c-.27-.83-.13-1.72-.32-2.57a1.19,1.19,0,0,0-2.33.32v.24l.13-.49a2.73,2.73,0,0,0-.28,2,1,1,0,0,0,1.84-.51Z"/><path class="cls-2" d="M177.88,128.15c1.24-1.38,1.3-3,1.13-4.8s-.28-3.73-.54-5.54c-.48-3.31-3.73-4-6.59-4.27l.4,3c1-.16,2.05-.07,3.09-.14a1.35,1.35,0,0,0,.36-2.64,7.53,7.53,0,0,0-4.26-.18c-1.83.31-1.18,2.86.41,3,.75.07,2.6.17,3.19.78s.48,2.59.6,3.52a58.46,58.46,0,0,1,.36,6.47,1.1,1.1,0,0,0,1.85.77Z"/><path class="cls-2" d="M180.31,121.15a39.39,39.39,0,0,1,6.37-2.28l-1.13-2.68c-1.83,1.16-3.62,2.38-5.42,3.59-1.36.91-.53,3.54,1.2,2.83a84.38,84.38,0,0,0,8.75-4.17l-2-2.54a80.3,80.3,0,0,1-6.89,4.83c-1.44.94-.55,3.65,1.25,3a62,62,0,0,0,7.87-3.7l-1.52-2.61a50.12,50.12,0,0,1-7.07,4.24c-1.58.79-.48,3.37,1.2,2.85a61.3,61.3,0,0,0,8.26-3.3l-1.44-2.47c-1.86,1.15-3.74,2.26-5.62,3.37A1.6,1.6,0,0,0,185.4,125a30.25,30.25,0,0,0,7-2.66l-1.6-2.74c-2.35,1.43-4.76,2.72-7.17,4l1.44,2.47,2.42-1.86a1.13,1.13,0,0,0-.87-2c-.46.12-3.28,1.64-3.47,1.57v2.52q9.49-1.74,19.07-2.75c1.63-.17,1.63-2.76,0-2.57-4.61.54-9.15.86-13.8,1l.34,2.48a37.08,37.08,0,0,1,12.91.17c1.84.36,2.65-2.4.78-2.85-4-1-8.13-1.77-12.17-2.77v2.65a31.46,31.46,0,0,1,12.06-.92v-3c-4.43.06-8.85,0-13.28,0l.43,3.15a36.64,36.64,0,0,1,10.9-.63v-3.13q-6.44.13-12.85.6l.41,3a53.59,53.59,0,0,1,6.44-.75c1,0,5.62-.58,4.31.53-1.75,1.49-6.51,1.87-8.7,2.45-1.92.52-1.1,3.33.81,3a66.5,66.5,0,0,1,13.83-1.58v-3.09c-3.59.11-7.14.4-10.74.45a1.35,1.35,0,0,0-.36,2.63,18.57,18.57,0,0,0,11.71.68,1.45,1.45,0,0,0-.39-2.83c-4.71.14-9.42.2-14.13.34l.35,2.65A72.64,72.64,0,0,1,204,123.32a14.52,14.52,0,0,0,6-1.23c1.19-.57.7-2.21-.34-2.58a48.74,48.74,0,0,0-7.14-2v2.77c.68-.24,4.92-1.75,5.47-.83l.86-2.1a24.31,24.31,0,0,1-6.66,1.54l.65,2.43c3.41-2.25,1.59-1.17,3.15.61a4.6,4.6,0,0,0,3,1.37v-3a12.52,12.52,0,0,1-5.33,1l.4,3a11.52,11.52,0,0,1,5.91.4l.4-3c-2.72.31-5.43.68-8.14,1-1.72.23-1.81,2.9,0,2.77,2.46-.19,6.67-.09,8.51-2.14a4.4,4.4,0,0,0,.93-1.73c.92-3-1.21,0-2.1.85l2.24.93c0-3.12,2.78-3.87-.89-.69l2.59.68q-.3-3.08-1.66.14l2.64,1.09c.33-2.62,2-4.58,2.22-7.23l-2.87.39c1.32,4.31,1,2.32-.08,1-.41-.52-1.13.05-1,.59a17.93,17.93,0,0,0,1.07,4.1,1.55,1.55,0,0,0,1.72.7c3-.86,1.86-5,1.13-7.18a1.47,1.47,0,0,0-2.87.39c-.12,2.54-2.07,4.67-2.39,7.23-.18,1.46,1.74,1.86,2.64,1.1,2.41-2.07,3.78-7.36,0-9.08-4.87-2.22-4.14,5-3.52,7.57a1.56,1.56,0,0,0,2.58.68c2-1.62,4.79-7.11.71-8.22-3.86-1-4.86,4.13-4.64,6.73.09,1,1.43,1.86,2.25.93,1.4-1.6,3.6-7-.37-7.53a2.2,2.2,0,0,0-2.11,1.19c-.27.49,0,1.17-.21,1.64.61,1.15.14,2-1.4,2.51a22.56,22.56,0,0,1-5.11.58v2.77c2.71-.24,5.43-.46,8.14-.73,1.62-.17,2.19-2.53.41-3a17.28,17.28,0,0,0-7.12-.48c-1.9.25-2,3,0,3.07a13.94,13.94,0,0,0,6.15-1.1c1.23-.51,1.68-2.67,0-3-2.43-.45-1.8-2.17-3.55-2.77-1.38-.46-3.62,1-4.75,1.51s-.56,2.41.66,2.43a19.14,19.14,0,0,0,7.42-1.39,1.45,1.45,0,0,0,.85-2.1c-1.7-2.84-6.22-1.38-8.7-.5-1.22.44-1.51,2.49,0,2.77a49,49,0,0,1,7.15,1.94l-.34-2.58c-2.95,1.44-7,.95-10.27,1.36a67.88,67.88,0,0,0-7.87,1.52,1.36,1.36,0,0,0,.36,2.65c4.71-.18,9.41-.29,14.13-.16l-.38-2.83a16.1,16.1,0,0,1-10.22-.48l-.36,2.63c3.59-.12,7.16,0,10.74,0a1.55,1.55,0,0,0,0-3.09A70.78,70.78,0,0,0,190,122.92l.81,3c2.4-.65,13.65-1.66,11.6-6.74-1.78-4.43-11.95-1.87-15.27-1.37-1.68.25-1.29,3.08.4,3,4.29-.27,8.56-.42,12.85-.49a1.57,1.57,0,0,0,0-3.13,39.26,39.26,0,0,0-11.75.67c-1.81.37-1.35,3.13.42,3.15,4.43,0,8.85-.06,13.28-.21a1.51,1.51,0,0,0,0-3,33.37,33.37,0,0,0-12.8,1.29,1.39,1.39,0,0,0,0,2.65c4.06.92,8.07,2,12.13,3l.78-2.85a33.28,33.28,0,0,0-14.36.25c-1.34.33-1.1,2.63.33,2.47,4.63-.5,9.15-.85,13.8-1v-2.57q-9.94,1-19.76,2.8a1.32,1.32,0,0,0,0,2.52l.68.17a1.29,1.29,0,0,0,1.24-.32l2.84-1.78-.86-2-2.73,1.33c-1.68.81-.21,3.19,1.44,2.47,2.51-1.12,4.93-2.42,7.33-3.77,1.8-1,.22-3.6-1.6-2.74a42,42,0,0,1-6.25,2.33l1.23,2.91c1.81-1.22,3.61-2.46,5.45-3.65a1.43,1.43,0,0,0-1.44-2.47,72,72,0,0,1-7.65,2.77l1.2,2.84a60.09,60.09,0,0,0,7-4.32,1.51,1.51,0,0,0-1.52-2.61,58.77,58.77,0,0,1-7.21,3.2l1.24,3a65,65,0,0,0,7.54-5.34c1.44-1.19-.4-3.41-2-2.53a79.47,79.47,0,0,1-8.32,4.13l1.57,2.68c1.79-1.24,3.58-2.46,5.33-3.74,1.23-.89.56-3.29-1.13-2.68a45.34,45.34,0,0,0-6.75,3.12c-1.3.75-.16,2.59,1.16,2Z"/></svg>