<svg id="Layer_1" data-name="Layer 1" xmlns="http://www.w3.org/2000/svg" viewBox="0 0 500 500"><defs><style>.cls-1{fill:#d80e0e;}.cls-2{fill:#0f27d6;}.cls-3{fill:#d3c011;}.cls-4{fill:#4bd113;}.cls-5{fill:#a8a8a8;}.cls-6{fill:#4d773c;}.cls-7{fill:#0f090b;}</style></defs><title>3Artboard 1</title><path class="cls-1" d="M85.11,161.17a8.83,8.83,0,0,0,.61-5.95c-.45-2.44-1.06-4.85-1.52-7.29-.38-2-3.33-1.78-3.86,0-1.18,4,2.1,7.68,1.2,11.74-.47,2.06,2.51,3.56,3.57,1.5Z"/><path class="cls-1" d="M86.56,161.52c.55-4.87-1.71-10.32-2.92-15-.31-1.22-.73-5.73-1.71-6.51-1.38-1.11-.57,2.23-.47,2.77l.82,4.39,4.55-1.25a20.19,20.19,0,0,1-1.16-8.34l-4.58.62a10.78,10.78,0,0,0,1.51,3.35,1.73,1.73,0,0,0,3.2-.86,11.16,11.16,0,0,0-.22-3.73c-.45-2.74-4.4-1.85-4.58.62a23.17,23.17,0,0,0,1.28,9.59,2.36,2.36,0,0,0,4.55-1.25c-.63-3.16-.64-8.77-3.44-11a3.79,3.79,0,0,0-5.9,1c-1.61,3,.76,7.84,1.64,10.8,1.47,4.9,2.38,11.17,5.53,15.26a1,1,0,0,0,1.9-.51Z"/><path class="cls-1" d="M86.24,149a3.84,3.84,0,0,1-.11-.46L86,149.58a2,2,0,0,0,.2-.45l.06-.41c0,.16,0,.18,0,.06a3.06,3.06,0,0,0,.09-1,1.77,1.77,0,1,0-3.54,0,2.5,2.5,0,0,0,1.62,2.44l-.61-.36a3.17,3.17,0,0,0,.3.34A1.29,1.29,0,0,0,86.24,149Z"/><path class="cls-1" d="M210.62,148.2c1.25-3.87,0-8.32-.28-12.31s-.81-8.43-.37-12.46l-1.25,2.17c-1,.54,1.25.91,1.21.9l-1.74-2.29c.11,7.3,2.19,14.42,1.49,21.74-.23,2.4,3.26,3.07,4.37,1.18l.7-1.19-4.33-1.17,0,1.79c0,2.94,4.16,2.79,4.47,0l.2-1.79c.27-2.44-3.21-3-4.34-1.18l-.73,1.18,4.37,1.18c.72-7.33-1.37-14.43-1.42-21.74a2.45,2.45,0,0,0-1.75-2.3c-1.62-.54-2.47-1.72-4.3-1-2.2.89-2,2.73-2.05,4.81a113.2,113.2,0,0,0,.65,12.89c.33,3.41.36,7.05,2.35,9.92a1.54,1.54,0,0,0,2.77-.36Z"/><path class="cls-1" d="M210.18,120.59a1.79,1.79,0,0,0-.8,2.29,1.81,1.81,0,0,0,2.58.86,1.85,1.85,0,0,0,.65-2.48,1.83,1.83,0,0,0-2.43-.67Z"/><path class="cls-1" d="M149.66,119.78c-.09-1.63-.15-3.25-.26-4.88-.05-.67-.67-2.92-.14-3.4l-3.87-1c.59,3.24,1.21,6.47,2,9.67.66,2.74,4.87,1.58,4.22-1.16a74.86,74.86,0,0,1-1.65-9.12,2.35,2.35,0,0,0-3.48-2c-1.67.88-2.16,2.56-2.17,4.35,0,2.51.37,5.06.59,7.56.28,3,5,3.11,4.78,0Z"/><path class="cls-1" d="M177,118.38a12.06,12.06,0,0,1,.09-1.79,16.15,16.15,0,0,0-.31-2.86c-.31-1.7-.74-3.55-2.29-4.5a1.72,1.72,0,0,0-2.52,1c-.39,1.92.72,3.81.88,5.75.14,1.7-.19,3.42,1.39,4.5s3-.66,2.76-2.13Z"/><path class="cls-1" d="M174.52,110.8a2,2,0,1,0-2-2,2.05,2.05,0,0,0,2,2Z"/><path class="cls-1" d="M198.16,136.42a1,1,0,0,0,0-2.08,1,1,0,0,0,0,2.08Z"/><path class="cls-1" d="M198.51,139a.85.85,0,0,0,0-1.69.85.85,0,0,0,0,1.69Z"/><path class="cls-1" d="M169.62,134.69l-.13-.24-.4.69,1.66.12v-.95l-1.19,0a.49.49,0,0,0-.34.83,1.83,1.83,0,0,0,.95.55l.25-.93-.87-.16.21.81.13-.16a.5.5,0,0,0,.08-.58c-.22-.39-.39-.35-.67-.7s-1,.2-.66.66c1,1.29,2.86.58,4.29.45,2.54-.24,5.16-.12,7.66-.56.54-.1.34-.83-.12-.89a29.5,29.5,0,0,0-5.86.25c-1,.09-4.66,1-5.24.18l-.81.47c.19.27.25.53.52.2a.49.49,0,0,0,.21.81l.88.15a.48.48,0,0,0,.25-.93l-.52-.31-.34.83h1.19a.48.48,0,0,0,0-.95l-1.66-.09c-.77,0-.42,1.38.32.79l.19-.15a.14.14,0,0,0,0-.17Z"/><path class="cls-1" d="M168.83,135.2a.42.42,0,0,0,0-.84.42.42,0,0,0,0,.84Z"/><path class="cls-2" d="M171.11,139.67a1.86,1.86,0,0,0-1.16-.18c-.61,0-.62,1,0,1a8.54,8.54,0,0,1,1.34.05l-.24-.92a1.41,1.41,0,0,1-.79.32l.38.9.63-.18v-1l-1.33.1a.52.52,0,0,0-.5.5v.56a.51.51,0,0,0,.76.44,13.08,13.08,0,0,1,6.06-1.86l-.41-1c-.86,1-2.82,1.09-4,1.31-.66.12-.51,1.23.16,1.18,1.75-.14,3.4-.85,5.16-.73l-.42-1-.16.08c-.5.1-.41.77,0,.92a1,1,0,0,0,.88-.08c.58-.27.22-1-.3-1.09-1.77-.17-3.41.54-5.16.7l.16,1.18c1.46-.29,3.49-.48,4.53-1.66.29-.32.13-1-.4-1-2.26.3-4.71.74-6.57,2.14l.76.43v-.56l-.49.5,1.33-.11a.5.5,0,0,0,0-1,1.69,1.69,0,0,0-1.13.32.5.5,0,0,0,.38.9,2.48,2.48,0,0,0,1-.42.49.49,0,0,0-.25-.91,7.48,7.48,0,0,0-1.34,0l.13.94a6.29,6.29,0,0,0,1-.36.21.21,0,0,0,0-.4Z"/><path class="cls-2" d="M179.88,138.93a3.78,3.78,0,0,1-.63-.33l-.24.88a18.64,18.64,0,0,0,5.9-.64l-.28-1-1.69.59c-.53.18-.48,1.08.14,1,1.13-.08,2.46-.3,2.87-1.54a6,6,0,0,0,0-1.9c0-.32.19-1.63-.15-.43a5.15,5.15,0,0,1-.63,1.7l.79.46a9,9,0,0,0,.5-4.4l-.89.12a5.5,5.5,0,0,1,.33,3c-.08.53.71.77.82.22a5.94,5.94,0,0,0-.28-3.46c-.16-.44-.92-.42-.89.12a8.71,8.71,0,0,1-.43,4c-.21.5.57.77.84.35.47-.74,1.5-3.82-.18-3.93-.53,0-.71.35-.81.8a8.74,8.74,0,0,0-.05,2.11c0,1.25-.62,1.59-1.87,1.68l.14,1,1.69-.59a.52.52,0,0,0-.28-1,18.69,18.69,0,0,1-5.62.7c-.67,0-.56,1.1.13.93l.63-.12c.19,0,.33-.31.11-.41Z"/><path class="cls-2" d="M186.68,131.33a7.46,7.46,0,0,1,.18-2.26l-.58.24.07.05-.19-.34v0l.24-.18c-.45.18-.89.27-1,.83a.9.9,0,0,0,.59,1c.29.1.51-.21.46-.46a2.05,2.05,0,0,0-.16-.55c-.09-.21-.4-.13-.45.06a5.35,5.35,0,0,1-.35.86l.69.19c0-.18,0-.38,0-.55l-.65-.09a1.83,1.83,0,0,0,.22.78c.12.24.46.06.41-.18a2.18,2.18,0,0,1,0-.51.33.33,0,1,0-.65-.09c0,.17-.09.37-.12.54a.37.37,0,0,0,.72.2,4.41,4.41,0,0,0,.15-1.09l-.48-.06a2.29,2.29,0,0,0-.12.59l.64-.27c-.23-.27,0-.35.21-.44a.54.54,0,0,0,.34-.29.52.52,0,0,0-.23-.69.39.39,0,0,0-.58.23,5.45,5.45,0,0,0,0,2.54c.08.31.6.26.57-.07Z"/><path class="cls-2" d="M187,135.36a1.79,1.79,0,0,0-.42.75c-.12.27-.31.88-.57,1l.3,0-.08,0,.28.28c-.06-.25,0-.49-.12-.73a.29.29,0,0,0-.56,0c-.1.3-.23.79,0,1.07a.51.51,0,0,0,.78,0c.41-.42.92-1.69.57-2.23a.13.13,0,0,0-.17,0Z"/><path class="cls-2" d="M186.3,131.17a4.47,4.47,0,0,1,0-.73c.12-.49-.11-.17.25-.28s1-.08,1.43-.23l-.24-.58a5.23,5.23,0,0,1-1.51.41c-.48.07-.29.84.2.74a9.21,9.21,0,0,1,2.22-.14v-.83c-.31,0-1.55.12-1.68-.3l-.38.5a8.53,8.53,0,0,1,2.35.41c.51.16.74-.65.22-.81l-1.14-.35-.2.75,3.43.54.11-.85a9.72,9.72,0,0,1-1.62-.06l.11.81a8.73,8.73,0,0,1,1.84-.08v-.81a5.27,5.27,0,0,1-1,0l.08.6a3.67,3.67,0,0,1,1.27-.16c.4,0,.4-.61,0-.63a4.09,4.09,0,0,0-1.43.2.31.31,0,0,0,0,.59,3.94,3.94,0,0,0,1.13.19.41.41,0,0,0,0-.81,10.58,10.58,0,0,0-1.95.08c-.42,0-.62.72-.11.81a7.71,7.71,0,0,0,1.73.12.44.44,0,0,0,0-.87L188,129c-.46-.07-.49.62-.1.76l1.12.41.22-.81a9.3,9.3,0,0,0-2.57-.39.4.4,0,0,0-.37.5c.31.94,1.6.92,2.43.92a.42.42,0,0,0,0-.83,10.35,10.35,0,0,0-2.42.23l.2.74c.53-.16,1-.36,1.55-.57s.21-.77-.17-.61a7.82,7.82,0,0,1-1.64.2.75.75,0,0,0-.41.17c-.42.41-.14,1.18.08,1.6a.23.23,0,0,0,.42-.12Z"/><path class="cls-3" d="M151.09,134.71a2.48,2.48,0,0,0,.54-.74l-.72-.31a7.73,7.73,0,0,0-.21,2.09.44.44,0,0,0,.82.22c.3-.44.6-.88.91-1.31l-.78-.33c-.21.65-.42,1.3-.64,1.95s.65.88.9.38c.15-.3.59-1.74.94-1.82l-.54-.53a11.77,11.77,0,0,1-1.28,3.62.52.52,0,0,0,.9.52c.62-.92,1.24-1.84,1.85-2.78l-.9-.38c-.43,1.12-1,2.19-1.47,3.27a.54.54,0,0,0,.93.55c.54-.87,1.1-1.74,1.59-2.64l-.74-.31a14.16,14.16,0,0,1-1.49,3c-.37.6.56,1.14.94.55s.73-1.14,1.1-1.7l-.87-.37c-.44,1.15-.92,2.28-1.3,3.45-.2.63.68.93,1,.43a3.41,3.41,0,0,0,.46-.78c.21-.43-.37-1-.71-.55a3.29,3.29,0,0,1-.63.66l.94.54a34,34,0,0,1,1.14-3.5c.22-.54-.58-.76-.87-.36l-1.22,1.63.94.55a24.08,24.08,0,0,0,1.33-3.29c.11-.37-.42-.72-.68-.4-.67.83-1.27,1.71-1.88,2.58l1,.42c.46-1.1.87-2.23,1.39-3.31a.49.49,0,0,0-.85-.49c-.64.91-1.28,1.82-1.9,2.75l.95.4a18.68,18.68,0,0,0,1.17-3.79.44.44,0,0,0-.53-.53c-.84.16-1.22,1.49-1.56,2.15l.9.38q.27-1,.51-2a.43.43,0,0,0-.78-.33c-.3.44-.61.87-.93,1.3l.82.22a14.6,14.6,0,0,1,.11-2c0-.45-.67-.53-.78-.11a2.24,2.24,0,0,0-.13.92.19.19,0,0,0,.31.13Z"/><path class="cls-3" d="M152.07,141.48l-.12,0,.28.28c-.09-.31.35-1,.51-1.26a7.61,7.61,0,0,1,.89-1.24l-.68-.39c-.32.82-.7,1.61-1.1,2.4-.26.52.4,1.1.84.65.83-.87,1.09-2.22,2.07-2.93l-.57-.57c-.33.7-.74,1.36-1.12,2a3.75,3.75,0,0,0-.69,1.57.53.53,0,0,0,.9.38c.89-.86,1.13-2.26,2.17-3l-.64-.49a26,26,0,0,1-1,2.59c-.21.52.51.78.85.49a5.26,5.26,0,0,0,1.75-2.19.32.32,0,0,0-.47-.36,19.29,19.29,0,0,0-2,1.84l.85.49a26.8,26.8,0,0,1,.84-2.63c.16-.38-.34-.64-.64-.49-1.23.62-1.5,2.09-2.48,3l.9.37a4.74,4.74,0,0,1,.74-1.7c.24-.5.46-1,.73-1.49a.41.41,0,0,0-.56-.56c-1.24.56-1.49,2-2.4,2.88l.83.65a22.1,22.1,0,0,0,1-2.73c.11-.37-.41-.71-.67-.39-.48.57-2.58,3.13-1.21,3.61.49.17.7-.61.22-.78Z"/><path class="cls-3" d="M152.6,142a22.16,22.16,0,0,1-.81-6c0-.64-1-.66-1,0a51.55,51.55,0,0,0,.59,6.92c.06.41.66.28.68-.09l0-.39c0-.26-.4-.4-.51-.14l-.16.35.65.18a51.87,51.87,0,0,1-.26-6.83h-1c.15,2,.06,4.59,1.41,6.21a.25.25,0,0,0,.41-.24Z"/><path class="cls-3" d="M152.21,135.5v0l-.24.6a30.46,30.46,0,0,1,4.76-.56l-.14-1a17.72,17.72,0,0,1-2.29.3c-.28,0-1.55.28-.56,0a5.29,5.29,0,0,1,3.57.17l.25-.92a17.26,17.26,0,0,0-4.92,0c-.49.06-.35.83.11.84,1.21,0,3.35-.16,4.24.84l.08-.64a14.5,14.5,0,0,1-4.44.9.39.39,0,0,0,0,.77,24.66,24.66,0,0,0,3,.07,13.09,13.09,0,0,1,3-.06.31.31,0,0,0,.16-.59,5.52,5.52,0,0,0-2.62-.2,25.84,25.84,0,0,1-3.52,0l.1.76a17.29,17.29,0,0,0,4.75-1,.41.41,0,0,0,.09-.64c-1-1.24-3.42-1.1-4.82-1.12l.11.84a13.85,13.85,0,0,1,4.45.1c.48.08.89-.64.36-.87a5.7,5.7,0,0,0-2.91-.49c-.73.09-2.18.34-2.54,1.12-.8,1.74,3.88.82,4.51.75s.67-1.07,0-1a19.49,19.49,0,0,0-5,.81.41.41,0,0,0-.09.74.53.53,0,0,0,.54.06.31.31,0,0,0,0-.6Z"/><path class="cls-3" d="M155.42,139.31h0a.44.44,0,0,0-.52.3l0,.05a.43.43,0,0,0,.29.52,13,13,0,0,0,2.08.14,10.59,10.59,0,0,1,3,.88l.24-.85-5.84.27a.5.5,0,0,0,0,1c1.6,0,3.21,0,4.81,0l-.13-.94a45.27,45.27,0,0,1-5.8.72l.34.81c1.48-1.61,4.72-1.7,6.74-2.07l-.24-.86a17,17,0,0,1-4.75.66l.33.79a12.74,12.74,0,0,1,3.73-1.89c.3-.11.28-.6-.08-.59a6.88,6.88,0,0,0-4.3,1.83.46.46,0,0,0,.32.79,30,30,0,0,0,5-.73c.47-.12.39-.92-.12-.87-2.25.21-5.68.5-7.3,2.27-.25.28-.1.85.34.81a55.84,55.84,0,0,0,6.05-.75c.55-.1.4-.93-.12-.93-1.6,0-3.21,0-4.81,0v1l5.84-.35c.41,0,.68-.65.23-.85a11.84,11.84,0,0,0-2.6-.86c-.85-.16-2,.05-2.74-.19l.29.52,0-.05-.52.3h0c.52.08.76-.71.22-.81Z"/><path class="cls-3" d="M157.37,140.2l-.23.16.65.37c-.12-1.92.92-4,1.85-5.62l-.81-.34c-.29,1.17-.61,2.33-1,3.48l.87.12a11.67,11.67,0,0,1,0-2.13c0-.29-.39-.3-.48-.06a6.11,6.11,0,0,0-.44,2.19.44.44,0,0,0,.87.12q.53-1.73,1-3.48a.45.45,0,0,0-.82-.34c-1,1.76-2.09,4-2,6.06a.44.44,0,0,0,.65.38l.24-.16c.45-.31,0-1.06-.44-.75Z"/><path class="cls-3" d="M159,135.4a5.05,5.05,0,0,1-1.5,2.85l.62.26c-.05-.49-.1-1-.19-1.47-.05-.24-.39-.2-.45,0a3.33,3.33,0,0,0-.08,1.57.37.37,0,0,0,.61.16,7,7,0,0,0,1.51-3.23c0-.34-.46-.49-.52-.14Z"/><path class="cls-3" d="M157.75,135c0-.07.64-.06.72-.05.5-.06.73.18.68.73q.43.5,0,.81c-.75.61-.79-.74-.72-1.21a1.84,1.84,0,0,1,.29-.85l.85,0c.19.13.28.69.35.91a5.2,5.2,0,0,1,.16,1.92,1.11,1.11,0,0,1-.28.8c-.37.31-.26-.3-.26-.65a3.6,3.6,0,0,1,.33-1.49c.14-.29.81-1,1.2-.76s.33,1.39.32,1.74a4,4,0,0,1-.87,2.25l.68.09a5.79,5.79,0,0,1-.63-2.11,2.48,2.48,0,0,1,0-1c0-.37.16-.52.59-.44q.66-.44.63.24a3.86,3.86,0,0,1,0,1.94c-.05.25-.12.94-.44.88s-.08-.82,0-1.06a.37.37,0,0,0-.71-.19c-.23.67-.49,3.28,1,2.47,1.3-.7,1.21-3.07.91-4.24s-1.29-2.07-2.21-.87-.59,3.5.11,4.86a.44.44,0,0,0,.75,0,4.76,4.76,0,0,0,.84-3.9c-.22-.9-.77-1.79-1.76-1.17a4,4,0,0,0-1.47,3.58c.06,1.07.79,1.75,1.59.7s.65-6.46-1.63-5.53c-2,.8-1.24,5.69.69,4.05.83-.7,1.25-2.14.13-2.8-.57-.35-2.4-.54-2.41.45a.27.27,0,0,0,.54,0Z"/><path class="cls-3" d="M161,136l-.54.48.53.41a3.42,3.42,0,0,0,.47-.86c.13-.31-.33-.43-.5-.21A14.9,14.9,0,0,1,158.2,139l.58.45a9.81,9.81,0,0,1,.66-1.48c.12-.25-.19-.52-.4-.3a6.08,6.08,0,0,0-1,1.47.4.4,0,0,0,.62.48,11.49,11.49,0,0,0,2.81-3.65l-.5-.21a2.35,2.35,0,0,1-.5.66c-.29.25.09.76.41.53l.58-.42A.37.37,0,1,0,161,136Z"/><path class="cls-3" d="M159.59,136.75c-.67,1-1.36,1.91-2.09,2.83l.73.43a10.69,10.69,0,0,1,1.91-4l-.61-.35c-.2,1.09-.27,2.21-.38,3.32-.06.67-.32,1.45.3,1.89a.47.47,0,0,0,.64-.16c.67-1.17,1.38-2.34,1.94-3.57.11-.24-.2-.56-.4-.31-.86,1.08-1.59,2.26-2.34,3.41l.63-.17s.19-1.82.21-2c.05-.77.12-1.55.11-2.33a.36.36,0,0,0-.67-.18,24.6,24.6,0,0,0-2.18,4.2c-.17.49.53.72.8.33.69-1,1.37-2,2-3,.26-.39-.36-.74-.63-.36Z"/><path class="cls-3" d="M161.38,137.46c-.44.85-.95,1.7-1.33,2.58-.19.45-.24,1,.25,1.24a.49.49,0,0,0,.68-.18,23.55,23.55,0,0,1,2.07-3.13l-.57-.45c-.51,1.17-1.11,2.29-1.72,3.41-.29.54.55,1,.82.48a25.56,25.56,0,0,1,1.78-3l-.6-.25a8.61,8.61,0,0,1-.87,2.24.49.49,0,0,0,.84.49,7.7,7.7,0,0,0,1.28-2.58c0-.22-.24-.43-.41-.24-.63.72-1.13,1.57-1.71,2.33l.89.37c.22-.81.45-1.6.61-2.43.06-.3-.31-.58-.54-.32a13.78,13.78,0,0,0-2.09,2.94l.82.48c.55-1.19,1.1-2.38,1.57-3.61.13-.35-.37-.59-.61-.35a14.84,14.84,0,0,0-2.42,3.15l.68-.18c.08.18.13.18.17,0l.18-.36.36-.7.71-1.42c.29-.56-.55-1-.84-.49Z"/><path class="cls-3" d="M163.42,138.58a4.61,4.61,0,0,0-.85,2.14.43.43,0,0,0,.79.33,10.57,10.57,0,0,0,.73-1.26l-.57-.24a5.41,5.41,0,0,0-.32,1,.44.44,0,0,0,.73.42c.31-.32.6-.63.88-1l-.61-.25a1.65,1.65,0,0,1-.2,1h.74l-1.09-7.21-.78.22c.46,1.91.92,3.83,1.37,5.74a.43.43,0,0,0,.84-.11,20.4,20.4,0,0,0-.82-4.71l-.68.19a8.77,8.77,0,0,1,.35,1.24,3.42,3.42,0,0,1,.09.63c.2.73-.26.83-1.39.29-.28-.64,1-2.09,1.34-2.57l-.76-.32a2,2,0,0,1-1.3,1.67l.54.3a1.23,1.23,0,0,1,1-1.59l-.38-.64a2.36,2.36,0,0,1-2.48.84l.19.69a3.17,3.17,0,0,1,1.66-.68l-.5-.5a9.39,9.39,0,0,1-3.15.1l.07.57a2.94,2.94,0,0,1,2.68-.34c.95.3,2.58,1.66,1.08,2.77l.55.22a2.12,2.12,0,0,1,.48-2l-.5-.21a4.15,4.15,0,0,1-.82,2.09l.72.3.15-.9c.08-.47-.64-.68-.73-.2l-.18.89a.4.4,0,0,0,.72.31,5.6,5.6,0,0,0,.72-2.49c0-.28-.33-.35-.5-.21a2.43,2.43,0,0,0-.78,2.63.37.37,0,0,0,.55.23,2.17,2.17,0,0,0,.13-3.36,4,4,0,0,0-4.7-.29.36.36,0,0,0,0,.62c.74.57,2.15.16,3,.1.59,0,1.09,0,1.27-.61.07-.23-.13-.55-.39-.51a3.9,3.9,0,0,0-2.14.89.42.42,0,0,0,.18.7,3.43,3.43,0,0,0,3.25-1.1.39.39,0,0,0-.38-.64,2.05,2.05,0,0,0-1.62,2.57.43.43,0,0,0,.54.3,2.82,2.82,0,0,0,1.86-2.29.42.42,0,0,0-.76-.32c-.74,1.14-2.74,4.29-.1,4.8,2.41.46,1.5-3.07,1.11-4.16a.35.35,0,0,0-.68.19,22.2,22.2,0,0,1,.65,4.52l.83-.11-1.41-5.74c-.13-.52-.86-.29-.78.22L164,140.9c.06.4.63.33.74,0a4.84,4.84,0,0,0,.18-1.2c0-.35-.39-.43-.61-.26s-.67.57-1,.87l.75.31a4.72,4.72,0,0,0,.07-1,.31.31,0,0,0-.53-.22c-.35.39-.68.78-1,1.2l.81.22a4,4,0,0,1,.65-1.87c.26-.42-.38-.77-.65-.38Z"/><path class="cls-3" d="M167.74,135.66a4.61,4.61,0,0,0-.14-2.33A.47.47,0,0,0,167,133c-1.18.38-.63,2.51-.36,3.34l.57-.57c-.13,0-.17-.28-.15-.4a.28.28,0,0,0-.34-.34c-.87.27-.52,1.46.25,1.63a.46.46,0,0,0,.56-.57,5.8,5.8,0,0,1-.28-1.18,4.34,4.34,0,0,1,0-1l-.57-.32a8.62,8.62,0,0,1,.18,2c0,.48.74.61.85.12Z"/><path class="cls-3" d="M168.13,141a6.84,6.84,0,0,1-.34-2.29l-.63.26a1.44,1.44,0,0,1,.36.69c0,.09.08.8-.13.77l.32.14c-.33-.26.07-1.06.22-1.3l-.65.09a2.05,2.05,0,0,1,.32,1.9l.87.12a18.83,18.83,0,0,1-.13-2.37l-.73.3c.45.45.07.86.07,1.36a.32.32,0,0,0,.4.3c1-.24.62-1.73.13-2.26a.42.42,0,0,0-.72.3,12.1,12.1,0,0,0,.11,2.48c.06.45.75.4.85,0a3,3,0,0,0-.52-2.64.42.42,0,0,0-.71,0,2.36,2.36,0,0,0-.45,1.79c.09.48.53.88,1,.62,1-.54.52-2.19-.11-2.81a.37.37,0,0,0-.63.26,7.73,7.73,0,0,0,.63,2.41c.12.27.56.17.45-.12Z"/><path class="cls-3" d="M179.71,133a.7.7,0,0,1,1.12.37c.1.25.27,1.24-.22,1.19s-.49.64-.1.78c1.38.52,1.58-1.44,1.2-2.34s-1.88-1.62-2.54-.54a.4.4,0,0,0,.54.54Z"/><path class="cls-3" d="M195.83,136.68a.22.22,0,0,0,0-.44.22.22,0,0,0,0,.44Z"/><path class="cls-3" d="M195.12,136.35l-.21-.41.19.67c-.18.6-.49.9-.92.88a.2.2,0,0,1-.11,0s.19.08.1,0c.1.11.13.14.1.09-.14-.29,0-.59.3-.91a1.59,1.59,0,0,0-.41.12,2.61,2.61,0,0,1-.51,0s.2.18.21.19c-.14-.18,0-.05,0,.21a1.12,1.12,0,0,0-.65-1.33,1.14,1.14,0,0,0-1.4.46,1.87,1.87,0,0,0,1.31,2.84c1.09.24,2.93-.11,3.39-1.26a2.66,2.66,0,0,0-1.42-3.05,1.88,1.88,0,0,0-2.19.28,1.66,1.66,0,0,0-.05,2.35,1.35,1.35,0,0,0,2.23-.58c.09-.23.18-.39.07-.62Z"/><path class="cls-3" d="M193.25,137.71c-.15-.18,0-.59,0-.79a3.57,3.57,0,0,0-.07-.87,2.91,2.91,0,0,0-.29-.76l-.18-.29c0-.25,0-.26-.1,0l-1.26.51c.8.12,1.57.38,2.37.42a1.14,1.14,0,0,0,.58-2.11,4.6,4.6,0,0,0-2.81-.52,1.49,1.49,0,0,0-.94,1.93,2.91,2.91,0,0,0,.43,1,2.39,2.39,0,0,1,.35,1,2.39,2.39,0,0,0,1.09,1.66c.73.44,1.4-.53.87-1.13Z"/><path class="cls-3" d="M190.92,133.19c-1.76-.06-1.11,2.06-.86,3.07.33,1.33-.16,3.59,1.38,4.18a.66.66,0,0,0,.81-.46,2,2,0,0,0-.06-1c-.11-.57-.07-1.15-.14-1.73s-.77-2.43-.62-2.73l-.51.4.22,0c1-.17.68-1.6-.22-1.64Z"/><path class="cls-3" d="M191.72,140.67a3.25,3.25,0,0,0,2.34.18,2.39,2.39,0,0,0,1.89-1.34c.26-.63-.47-1.09-1-1s-1,.42-1.58.53a4.2,4.2,0,0,0-1.65.43.7.7,0,0,0,0,1.19Z"/><path class="cls-3" d="M192.17,139.62c.06,0,.55-.09.35-.1.06,0,.38.16.14,0,.25.14.43.25.71.09a.57.57,0,0,0,.29-.5,1,1,0,0,0-1.07-1.07,1,1,0,0,0-1,1.13.57.57,0,0,0,.55.42Z"/><path class="cls-3" d="M192.07,140.33c-.07.3-.06.33,0,.08a.74.74,0,0,0,0-.26.62.62,0,0,0-.45-.59h-.06a.71.71,0,0,0-.79.32.85.85,0,0,0,.29,1.2.66.66,0,0,0,1-.74Z"/><path class="cls-3" d="M194.7,139.14a2.89,2.89,0,0,1,1.15.5c.37.22.59.62,1,.8a.66.66,0,0,0,1-.73,2.38,2.38,0,0,0-1.31-1.28,3.47,3.47,0,0,0-1.77-.29.5.5,0,0,0,0,1Z"/><path class="cls-3" d="M197,138.74a2.06,2.06,0,0,1,.24-1.46c.21-.37.36-.66.06-1a.63.63,0,0,0-.75-.1,1.9,1.9,0,0,0-.76,1.29,3.41,3.41,0,0,0,0,1.62c.18.77,1.35.44,1.19-.33Z"/><path class="cls-3" d="M197,136.51l-.05.1a.29.29,0,0,0,.25.43l.12,0c.75.1.1-1.29-.32-.55Z"/><path class="cls-3" d="M197,136.56l-.05.06c-.15.21.15.52.36.36l.07,0a.27.27,0,1,0-.38-.37Z"/><path class="cls-3" d="M197.26,137.58a.82.82,0,0,0,0-1.64.82.82,0,0,0,0,1.64Z"/><path class="cls-3" d="M196.87,136.41c-.39-1.17-.47-2.82-1.48-3.69a.69.69,0,0,0-.69-.18l0,0a.66.66,0,0,0-.46.8c.16.54.54,1,.75,1.53s.35,1.28.61,1.89c.32.79,1.61.49,1.32-.37Z"/><path class="cls-3" d="M195.54,132.81a10.27,10.27,0,0,0,0-2.93c-.1-.66-.24-1.6-.86-2a1,1,0,0,0-1.34.18c-.48.62-.17,2-.13,2.73l1-.13c-.15-.82-.32-1.62-.52-2.43a.46.46,0,0,0-.89.25c.19.81.34,1.62.46,2.44.07.56,1,.41,1-.13s0-1,0-1.49c0-.23-.16-.6.13-.35a1.24,1.24,0,0,1,.29.75,27.49,27.49,0,0,1,.21,3c0,.41.71.59.79.11Z"/><path class="cls-3" d="M194.7,128.71c.93.1,1.88-.16,2.81-.08.66.07,1.27.4,1.93.46a.39.39,0,0,0,.37-.27l0-.12a.52.52,0,0,0-.24-.58,3.65,3.65,0,0,0-.92-.23,4.83,4.83,0,0,0-1.18-.28,8.69,8.69,0,0,0-2.9.48.32.32,0,0,0,.09.62Z"/><path class="cls-3" d="M199.32,128.4c-.4,1.36.11,3,.07,4.37a15.64,15.64,0,0,0,.42,4.73.37.37,0,0,0,.72-.1c-.08-1.66-.32-3.26-.26-4.94a15.49,15.49,0,0,0-.42-4.06.28.28,0,0,0-.53,0Z"/><path class="cls-3" d="M199.78,132.82a6,6,0,0,0,.46,2.2,13,13,0,0,1,.51,3.11.45.45,0,0,0,.9,0,8.53,8.53,0,0,0-.4-2.79,26.77,26.77,0,0,1-.95-2.59.27.27,0,0,0-.52.07Z"/><path class="cls-3" d="M200.34,136.54a10.37,10.37,0,0,0-.13,3.24c.1.59,1.12.28.81-.34l-.08-.16a.33.33,0,0,0-.56,0l-.12.16.81.34a14.42,14.42,0,0,0,0-3.15c0-.39-.66-.54-.73-.09Z"/><path class="cls-3" d="M200.3,136.1c0,.46-.09.92-.12,1.38s0,1.19-.28,1.55l.67.27a6.52,6.52,0,0,1-.16-1.51.24.24,0,0,0-.47-.13,6.47,6.47,0,0,1-.29,1.09c-.2.42-.49.34-.86.47-.2.08-.51.32-.71.31s-.19-.11-.29-.12a.43.43,0,0,0-.37.63.68.68,0,0,0,.74.38,2,2,0,0,0,.65-.23,4.68,4.68,0,0,1,.8-.2c.92-.21.91-1.49.81-2.26l-.48.06a6.5,6.5,0,0,1-.15,1.51.39.39,0,0,0,.67.28c.75-.87.47-2.5.29-3.54-.05-.27-.43-.18-.45.06Z"/><path class="cls-3" d="M199.51,139.26c.13-.66.26-1.33.43-2l-.75-.1c0,.5-.07,1-.09,1.51a.39.39,0,0,0,.77.1c.23-.94.28-2-.74-2.43l-.19.72c1.25.12,1.13-1,1.06-2a.35.35,0,1,0-.69.09,2.54,2.54,0,0,1-.23,1.36c-.14.38.5.57.62.17.4-1.23.38-3.25-1.28-3.49-1.06-.15-2.27,1-2.63,1.91-.2.5.65.86.89.37a3.8,3.8,0,0,1,.53-1c.48-.41,1-.08,1.5.14a.46.46,0,0,0,.69-.39c0-.44,0-.88,0-1.32h-.66a4.4,4.4,0,0,0,.47,1.78c.17.32.72.1.6-.25a6.65,6.65,0,0,1-.41-1.53.33.33,0,0,0-.66,0,4.42,4.42,0,0,1-.25,1.2l.67-.28a2.7,2.7,0,0,0-2.07-.58c-.63.23-1,1.16-1.26,1.71l.88.37c.15-.37.7-1,1.14-1.1.15-.22.37-.14.68.23.5,0,.73.2.68.61a3.27,3.27,0,0,1-.14,1.42l.62.17a8.79,8.79,0,0,1,.29-1.53l-.7-.09c0,.38.15,1.28-.35,1.21s-.53.57-.2.73a1.29,1.29,0,0,1,.38,1.55l.77.11c0-.51,0-1,.07-1.51s-.64-.51-.76-.11a4.7,4.7,0,0,0-.15,2.2.24.24,0,0,0,.46,0Z"/><path class="cls-3" d="M195.44,133.5c.21.28.88.93,1.23.5s-.36-1.19-.67-1.44l-.24.58c.58-.06.85.68,1.44.69a.3.3,0,0,0,.21-.51c-.42-.47-1.07-1-1.74-.85a.34.34,0,0,0-.08.62c.14.08.75.49.62.7l.2-.12a.81.81,0,0,1-.69-.38c-.13-.15-.4.05-.28.21Z"/><path class="cls-3" d="M197,133.8c-.22-.6-.43-1.18-1.16-1.09a.34.34,0,0,0-.31.23c-.23.74.36,1,1,1.06.22,0,.34-.25.24-.42a1.73,1.73,0,0,0-.46-.61.31.31,0,0,0-.52.14,45.46,45.46,0,0,1-1.67,7.12.39.39,0,0,0,.57.44,1.92,1.92,0,0,0,.76-.76c.14-.2-.13-.45-.33-.33l-.73.38.47.48c.54-2.36,1.16-4.77,1.53-7.17l-.52.14.41.45.32-.41c-.41-.13.38.76.16.48.08.11.27,0,.22-.13Z"/><path class="cls-4" d="M196.72,130.29a.29.29,0,0,1,.05-.27l-.33,0,.14,0-.26-.2c0-.08,0,.35,0,.44V131c0,.55.8.54.85,0a2.86,2.86,0,0,1,.22-1l-.74-.2A3.12,3.12,0,0,1,196,132l.77.45a3.49,3.49,0,0,1,.75-1.74l-.76-.2a3.16,3.16,0,0,1-.07,1.67l.87.12a1.94,1.94,0,0,1,.26-1.24l-.73-.09a1.93,1.93,0,0,1,0,1.36H198a3,3,0,0,1,.17-1.55h-.82a3.25,3.25,0,0,1,.24,1.37c0,.59.84.57.9,0,0-.37,0-.75,0-1.12l-.83.11a9.35,9.35,0,0,1,.32,1.15c.1.49.81.34.84-.12a7.11,7.11,0,0,0,0-1.9c-.12-.51-.55-.55-1-.63l.33.59,0,0,.12-.87a.57.57,0,0,1-.51,0c-.56-.23-.82.69-.25.91a1.41,1.41,0,0,0,1,0,.48.48,0,0,0,.11-.87.88.88,0,0,0-1.35.53.49.49,0,0,0,.46.61,3.19,3.19,0,0,1,.53.06l-.26-.2c.11.16.05.65.05.83s0,.6,0,.89l.84-.11a9.45,9.45,0,0,0-.34-1.15.42.42,0,0,0-.82.12,8.45,8.45,0,0,1-.09,1.12h.9a4.28,4.28,0,0,0-.37-1.69c-.15-.37-.67-.21-.77.1a3.89,3.89,0,0,0-.21,1.88c0,.46.73.65.86.12a3,3,0,0,0-.12-1.81.41.41,0,0,0-.73-.09,3,3,0,0,0-.46,1.64.45.45,0,0,0,.88.12,3.84,3.84,0,0,0,.08-2.15.45.45,0,0,0-.75-.2,4.21,4.21,0,0,0-1,2.25c-.07.51.62.55.86.24a3.76,3.76,0,0,0,.7-2.83c-.06-.44-.65-.31-.77,0a5.18,5.18,0,0,0-.32,1.15l.83.11c0-.48.26-1.74-.53-1.77s-.85.84-.49,1.29a.35.35,0,0,0,.6-.25Z"/><path class="cls-5" d="M90.23,157.83a19,19,0,0,1,6.58-3.13.4.4,0,0,0-.21-.78A18.11,18.11,0,0,0,91.31,156a.45.45,0,0,0,.23.84,1.26,1.26,0,0,0,1-.43.31.31,0,0,0-.38-.49l-.5,0,.11.82a21.47,21.47,0,0,1,5-2.12l-.21-.78a17.21,17.21,0,0,0-6.75,3.42c-.27.23.09.7.38.49Z"/><path class="cls-5" d="M91.71,158.17c5.25-3.47,11.16-6.14,16.79-8.93,2.49-1.24,1.07-4.74-1.33-4.89-3-.18-6.74,2.71-9.26,4.06-3.07,1.65-6.74,3.36-9.25,5.81-2,2,.63,5.55,3,3.95Z"/><path class="cls-5" d="M93.42,155.32l-.29-.26-1.45,3.51c5.84.05,15.82-2.56,19.06-7.84a2.26,2.26,0,0,0-2.52-3.28c-3.08.88-5.75,2.94-8.77,4.08s-6,1.76-8.8,3.21.95,5.82,2.8,2.81l.21-.34a1.56,1.56,0,0,0-.24-1.89Z"/><path class="cls-5" d="M92.15,155.85l-1,.09c-2.26-.28-2.35,3.74,0,3.58,4.23-.3,8.42-2.3,12.18-4.19,3.37-1.71,8.79-3.71,10.42-7.3a1.55,1.55,0,0,0-1.32-2.3c-3.64-.17-7.12,3.05-10.21,4.75-3.89,2.14-8.12,3.57-12,5.71l2.63,2,.43-.45a1.11,1.11,0,0,0-1.12-1.91Z"/><path class="cls-5" d="M107.53,152.29a27.7,27.7,0,0,0,6.49-2.88c2-1,4.17-1.85,5.52-3.7a1.69,1.69,0,0,0-1.45-2.52c-2,0-3.75,1.21-5.51,2.11a26.33,26.33,0,0,1-6.21,2.77c-2.74.61-1.59,4.85,1.16,4.22Z"/><path class="cls-5" d="M114.17,149.9a28.91,28.91,0,0,1,5.43-1.83l-2.1-2.73a1.29,1.29,0,0,1-.78.8c-2.28,1.2-.61,4.31,1.65,3.91a11.5,11.5,0,0,1,1.66,0,2.12,2.12,0,0,0,2.1-2.1,34.18,34.18,0,0,1,.31-4.26c.07-1.41.16-2.83.2-4.25l-4.55.62a21.24,21.24,0,0,1,.08,5l3.81-1.58c-.58-.46-.21-2.19-.19-2.87a5.68,5.68,0,0,0-.56-3.4,2,2,0,0,0-3.37,0c-1,1.51-.83,3.88-.72,5.65a5.07,5.07,0,0,0,2.14,4.13c1.49,1.09,3.23-.42,3.36-1.93a36.88,36.88,0,0,0,0-5.66,2.32,2.32,0,0,0-4.63,0c-.05,1.29-.06,2.58-.09,3.87a32.82,32.82,0,0,1,.09,4.08l2.58-1.46a5.74,5.74,0,0,0-3.36,0l2.42,3.15a14.74,14.74,0,0,0,1.06-1.85,1.89,1.89,0,0,0-2.1-2.73,33.44,33.44,0,0,0-6.16,2.47c-2,1-.24,3.84,1.72,2.94Z"/><path class="cls-5" d="M90,140.87a124.37,124.37,0,0,0,16.83,0c4.11-.17,8.84.11,12.82-1a2,2,0,0,0,1.38-2.43l-.08-.55c-.16-1.17-1.43-1.74-2.43-1.85-4.4-.51-9.24.43-13.67.61-4.94.19-9.91.1-14.85.5a2.35,2.35,0,0,0,0,4.69Z"/><path class="cls-5" d="M125.35,133.16c-.34,2-.26,4.05-1.28,5.85-1.54,2.75,2.83,5.23,4.18,2.45s1.61-5.74,2.24-8.77a2.24,2.24,0,0,0-3.71-2.16,9.44,9.44,0,0,0-2.75,5.9c-.21,2,0,4.89,2.08,5.86a1.9,1.9,0,0,0,2.75-1.12c.43-1.41-.28-2.82-.19-4.26a6.9,6.9,0,0,1,1.6-3.69l-4.14-1.12c-.09,2.6-1.41,5.1-2.3,7.49l4.67,1.29c.42-2.52,1.06-5.21.25-7.72-.49-1.51-3.08-1.83-3.4,0Z"/><path class="cls-5" d="M127.6,140.35a17.24,17.24,0,0,1,1-3.32l-1-.79c.67,1,.31,3.09.07,4.15a9.83,9.83,0,0,1-1.8,3.84l4.85,1.31a9.9,9.9,0,0,1,2.6-5.83l-3.79-2.2A17.33,17.33,0,0,1,125,144l3.8,2.22a14.17,14.17,0,0,1,3.4-6.6l-2.75-1.14a11.17,11.17,0,0,1-.2,3.91,1.1,1.1,0,0,0,2,.85,9.65,9.65,0,0,0,1.42-4.76,1.62,1.62,0,0,0-2.42-1.39,13.57,13.57,0,0,0-5.84,7.91,2.3,2.3,0,0,0,3.81,2.22,23.38,23.38,0,0,0,5.46-8c1-2.22-1.58-4.69-3.56-2.74a14.93,14.93,0,0,0-4.5,8.34,2.66,2.66,0,0,0,1.5,3.07,2.59,2.59,0,0,0,3.25-1.07,15.92,15.92,0,0,0,1.69-6.19c.08-1.84-.12-4.52-1.28-6s-2.93-1.09-4,.17a9.07,9.07,0,0,0-1.8,5.56c-.06,1.76,2.52,1.69,2.69,0Z"/><path class="cls-5" d="M130.53,145.25c-.38-4-.56-8.09-.73-12.14a9.73,9.73,0,0,0-.46-3.76,4.19,4.19,0,0,0-.71-1c-.87-.91-.75-.67-.47.16l-.58,2.19.28-.23-3.77-2.2a21.47,21.47,0,0,0-1,7.16c.08,2.93,4.57,3,4.57,0a9.59,9.59,0,0,1,.41-2.44c.33-1.31-1.19-2.72-2.43-1.87a5.51,5.51,0,0,0-2.47,3.7l4.49.61a21.41,21.41,0,0,1,.79-6c.64-2.27-2.14-3.64-3.77-2.2l-.28.25a2.22,2.22,0,0,0-.58,2.19c.35.93,1,1.22,1.47,1.9l.49.2c.34.06.32.19-.08.38,0,.15-.14,2.51-.11,2.86.3,3.58.89,7.13,1.45,10.68.32,2,3.69,1.53,3.5-.47Z"/><path class="cls-5" d="M126.06,130.36c1.68,1.64,4.18,1.54,6.4,1.63a30.9,30.9,0,0,0,8-.34c2.92-.66,1.86-4.46-.65-4.78a48.64,48.64,0,0,0-7.82.1c-2.15.07-4.19-.06-5.91,1.35a1.47,1.47,0,0,0,0,2Z"/><path class="cls-5" d="M131.42,129.19a13.64,13.64,0,0,0-.42,9.07,2.21,2.21,0,0,0,3.65,1c1.78-1.59,1-4,2.39-5.59l-3.26-1.9c-.74,3.37-1.34,6.77-2,10.16a2.28,2.28,0,0,0,4.14,1.75c1.73-2.74,1.58-6,3.23-8.61l-3.38-2c-1.93,3.48-3.85,7.07-5.5,10.68l4.27.56a17.23,17.23,0,0,1,.27-8.56l-4.22-.57c-.11,4.27.26,8.61-1.25,12.69l4.12.56c-.16-2.09-.3-4.18-.58-6.26s-2-6.7-.24-8.5l-3.23-1.33c.12,2.14.15,4.27.13,6.42,0,.87,0,1.77-.06,2.64,0,.3-.48,2.22,0,1.89l2.06.26-.08-.08a1.67,1.67,0,0,0-2.83,1.17v.12a1.74,1.74,0,0,0,1.7,1.69c5,.4,3-11.69,2.84-14.11-.11-1.54-2-2.6-3.22-1.34-1.86,2-1.86,4.17-1.73,6.79.2,3.77.59,7.47,1.1,11.19.3,2.21,3.48,1.77,4,0a34.47,34.47,0,0,0,1.5-13.8c-.23-2.73-4.26-2.82-4.3,0-.05,3.27-.46,6.49-.64,9.75-.13,2.36,3.23,3.12,4.35,1.18a61.65,61.65,0,0,0,5.05-11.53c.8-2.44-2.87-3.34-3.78-1-1,2.59-1.38,5.12-3.2,7.38l3.78,2.2c.5-3.61,1.05-7.23,1.44-10.85.24-2.17-2.62-2.31-3.63-1-.77,1-1.1,4-2,4.53l3.21,1.3a13.65,13.65,0,0,1-.21-6.92,1.86,1.86,0,0,0-3.58-1Z"/><path class="cls-5" d="M127.25,129.91a5.11,5.11,0,0,0-.42-1.72l-3.24,1.89A15.08,15.08,0,0,0,140,132l-3.24-1.86a30.72,30.72,0,0,1-2.54,12.06l4.49,1.23a74.09,74.09,0,0,1,3.78-8.26l-4.13-1.12a33.14,33.14,0,0,1-2.78,10.3l4.54,1.92a43.8,43.8,0,0,0,.46-8.33c-.08-1.69-2.55-2.65-3.41-.93a93.12,93.12,0,0,1-5.07,8.9c-1.25,2,1.28,4.56,3.24,3.24a16.77,16.77,0,0,0,4-3.81l-3.89-1,.15.11,2.57,3.34c.33-.74,5.07-.13,5.45-.07a2.37,2.37,0,0,0,2.86-1.63c.9-4.93-1.25-9.78-1-14.79h-4.55c0,3.56-1.16,9.32,1.77,12a2.22,2.22,0,0,0,3.75-1.55,10.31,10.31,0,0,0-2.43-7,1.85,1.85,0,0,0-3.13,0c-1.71,2.27-4,8.74.58,9.63,5,1,5.41-7.67,5.08-10.54H143A55.51,55.51,0,0,0,144.82,146a2.29,2.29,0,0,0,4.14.54c1.08-1.65.6-3.65.47-5.54l-.66-9.52c-.19-2.91-4.77-2.93-4.56,0l.51,7.14c.08,1.16.93,4.71.33,5.64l4.14.54a56.56,56.56,0,0,1-2.65-10.89c-.28-2.16-3.46-2.33-3.5,0,0,1.84-.75,3.32-1,5.05-.74,1.39-.64,1.49.3.32a5.31,5.31,0,0,0,1.67-2.63h-3.13a6.33,6.33,0,0,1,1.17,5.14l3.75-1.55c-1.33-1.28-.37-7.27-.33-8.93.06-2.94-4.38-2.9-4.55,0a31.08,31.08,0,0,0,.23,6.32c.34,2.39,1.29,4.8.83,7.24l2.87-1.63c-3.14-.44-8.93-1.24-10.62,2.27-.78,1.62.54,4.06,2.57,3.34,2.63-.94,3.86-3,3.12-5.74a2.33,2.33,0,0,0-3.88-1,28.81,28.81,0,0,1-3.61,3.37l3.72,2.87a86.64,86.64,0,0,0,4.32-9.88l-3.53-1c-.44,2.53-1,5-1.66,7.5-.86,3.14,3.68,4.25,4.8,1.32a44.9,44.9,0,0,0,2.67-12.22c.2-2.24-3.1-2.93-4.13-1.11a75,75,0,0,0-4.44,9.26c-1.11,2.8,3.36,3.95,4.49,1.23A31.66,31.66,0,0,0,141,130.15a2.18,2.18,0,0,0-3.23-1.85c-4.06,1.94-8.24,1.25-11.85-1.26-2-1.41-4.16,2.12-2,3.34a10.39,10.39,0,0,0,1.94.85c.86.29,1.45-.58,1.33-1.32Z"/><path class="cls-5" d="M140.07,131.59c2.33-.74,4.75.35,7.12.41,2,0,4.35.39,6.23-.08a2,2,0,0,0,1.19-2.91c-1.59-2.79-4.73-1.94-7.42-1.78-3,.17-5.91-.91-8.56.93-1.65,1.14-.71,4.11,1.44,3.43Z"/><path class="cls-5" d="M147.16,133.46A45.2,45.2,0,0,1,158.3,133c2.46.23,4.82.29,6.66-1.58s-.5-4.54-2.75-3.56c-2.5,1.08-5.18.29-7.82.31a56.85,56.85,0,0,0-8.43.89c-2.88.47-1.65,4.81,1.2,4.37Z"/><path class="cls-5" d="M153.52,129.55c3.11,2.16,7.22,1.66,10.83,1.91,3.17.22,7,2.64,9.9.69a1.56,1.56,0,0,0,0-2.67c-5.79-3.55-13.21-3.34-19.79-3.42-2,0-2.4,2.48-.94,3.49Z"/><path class="cls-5" d="M155.88,109.58a3.05,3.05,0,0,0-1.34-1.25c-1.54-.69-4.17.51-3.32,2.56a11.91,11.91,0,0,1,1.07,6.3,2.1,2.1,0,0,0,1.41,2.49,2,2,0,0,0,2.48-1.41,16.81,16.81,0,0,0-.59-8.59l-2.79,2.79-.36-.24c1.76,1.55,4.91-.48,3.44-2.65Z"/><path class="cls-5" d="M153.89,119.07c1.43,1.83,4.56.66,6.51.55,2.12-.11,5.13.54,6.69-1.22a1.53,1.53,0,0,0,.23-1.8c-1.54-2.79-6.25-2-8.85-1.59-1.58.22-6.65,1.4-4.58,4.06Z"/><path class="cls-5" d="M156.1,117.57a19.55,19.55,0,0,0,3.74.4c1.34.1,2.65.63,4,.47l-1.1-4.09c-1.52,1.09-5.06-1-5.69-2.47l.19,1.4.09-.41-1.83,1.39a31.37,31.37,0,0,1,6.12,1.47l.58-4.33a6.06,6.06,0,0,1-4.45-2.33l-1.36,3.27c3.12.41,6.27,1.2,9.41,1.3,2.27.06,2.34-3,.5-3.69-3-1.22-6.65-1.37-9.91-1.44a1.94,1.94,0,0,0-1.35,3.27,12.11,12.11,0,0,0,6.58,4,2.21,2.21,0,0,0,1.17-4.25,20.24,20.24,0,0,0-7.29-1c-.93,0-2,.84-1.89,1.9.22,1.89,1.5,2.93,3.11,3.84a12.55,12.55,0,0,0,2.5,1.07c1.07.33,2.54.33,3.52.86,2.14,1.17,4.48-1.66,2.65-3.44-2.43-2.38-7.67-2.18-9.94.36a1.52,1.52,0,0,0,.66,2.51Z"/><path class="cls-5" d="M165.05,111.25a9.18,9.18,0,0,0-1.25,2.48,10,10,0,0,0-.82,2.71c-.14,2.1,2.11,3.61,3.83,2.1a1.82,1.82,0,0,0,0-2.55,5.27,5.27,0,0,0-.63-.52l.71.71c.06.6.13.64.21.1l.08-.39.27-1.36a8,8,0,0,0,.19-2.58,1.4,1.4,0,0,0-2.59-.7Z"/><path class="cls-5" d="M167.23,113l-.12.22-1.92-.51c.43,1.45,1.08,2.75,1.41,4.24.46,2.11,3.85,1.21,3.26-.9a2.14,2.14,0,0,1,0-1.3L167,114c-.24,1.35-.65,2.66-.2,4a2,2,0,0,0,3.88-.53,39.57,39.57,0,0,0-.07-6.71,2.22,2.22,0,0,0-4.44,0,2.47,2.47,0,0,0,1.38,2.64c1.17.35,2.18-.67,2.75-1.52l-4.05-.53a44.8,44.8,0,0,1,.48,6.12l3.68-1c-.24-.53-.72-1.11-.6-1.73.35-1.82-2.3-2.6-2.81-.77a20.57,20.57,0,0,0-.44,2.07h3.26a6.74,6.74,0,0,0-3-4.63c-.93-.5-2.31.59-1.57,1.57a8,8,0,0,1,.43.88c.58,1,1.91.12,1.49-.87Z"/><path class="cls-5" d="M167.82,123.94l.22.2c1.05,1,3.16.71,3.46-.91l.05-.28a2.31,2.31,0,0,0-.57-2.17,2.28,2.28,0,0,0-2.18-.58,2.25,2.25,0,0,0-1,3.74Z"/><path class="cls-5" d="M156.94,126.12a2.3,2.3,0,1,0-2.29-2.29,2.32,2.32,0,0,0,2.29,2.29Z"/><path class="cls-5" d="M133.22,165.09c1.1-1.94-.4-4.38-.57-6.38a18.06,18.06,0,0,1,1.43-8c.85-2.25-2.58-4.28-4.11-2.4-2.45,3-2.82,8.26-1.87,11.94.38,1.5,1,3.94,2.36,4.94.78.59,2.16.89,2.76-.15Z"/><path class="cls-5" d="M133.76,152.07l.22-.26-1.85.49.3.07-1.24-3.05a21.91,21.91,0,0,0-1.7,6.54c-.31,2.08-.66,4.08.25,6.06.55,1.2,2.14.87,2.78,0,1.16-1.61,1.21-3.7,1.56-5.6a40.12,40.12,0,0,0,1-5.95,2.1,2.1,0,0,0-3.55-1.47,3.55,3.55,0,0,0-.83,1.38c-.67,1.71,1.91,3.15,3.08,1.79Z"/><path class="cls-5" d="M128.06,156.9c-.87,1.16-1.85,1.95-2.29,3.41a8.36,8.36,0,0,0,.26,4.32c.71,3,4.65,2.57,7,2.61,3,0,2.92-4.39,0-4.58-.8,0-2.57.49-3.06-.08l.68,1.64a13.38,13.38,0,0,1-.3-2.91c.08-.49.31-.95.39-1.45s.05-1.19.16-1.78a1.54,1.54,0,0,0-2.8-1.18Z"/><path class="cls-5" d="M151,147.24c3.21,0,6.44-.73,9.65-1,2.76-.18,6.23.4,8.53-1.29.55-.4.91-1.36.24-1.89-2.6-2-6.29-1.31-9.43-1.07-2.82.22-7.55.08-9.92,1.78-1.4,1-1,3.44.93,3.42Z"/><path class="cls-5" d="M168.49,145.71a3.27,3.27,0,0,0,2.6.24c.5-.09,1-.09,1.67-.16a2.18,2.18,0,0,0,2-1.54,2.13,2.13,0,0,0-1-2.36,4.18,4.18,0,0,0-3.49-.31c-1,.31-2.43,1-2.6,2.24a1.81,1.81,0,0,0,.77,1.89Z"/><path class="cls-5" d="M172.2,144.5c.64.17,1.19.57,1.85.74a8.41,8.41,0,0,0,2,.23,8.73,8.73,0,0,0,3.87-.87,1.76,1.76,0,0,0,0-3c-1.27-.79-2.49-.4-3.87-.2-.67.1-1.34.13-2,.25-.49.09-1,.35-1.51.39a1.27,1.27,0,0,0-.33,2.48Z"/><path class="cls-5" d="M177.44,141.94c-.46-.07-1.25.05-1.62-.23v2.79l.6-.1-.42-3.21-1.66.26v3.35c4.59-1.42,9.95.45,14.5-1.37,1.57-.63,2-3.17,0-3.62-3.08-.69-6.29.18-9.38.51-2.26.25-5,.14-6.81,1.58-1.23.95-.16,3,1.23,3a11.27,11.27,0,0,0,3.47-.46c1.79-.59,1.61-3.61-.46-3.45a7.41,7.41,0,0,0-2.7.76,1.63,1.63,0,0,0,0,2.79c1.6,1,3.72.26,3.87-1.74a.85.85,0,0,0-.62-.82Z"/><path class="cls-5" d="M164.43,131.1a2.15,2.15,0,0,0,.34,1.28,2.23,2.23,0,0,0,3.45.44,2.83,2.83,0,0,0,.61-.8l-.73.73.33-.22-2-.54a4.19,4.19,0,0,0,.49.7,1.52,1.52,0,0,0,2,.12,1.55,1.55,0,0,0,.4-2,2.53,2.53,0,0,0-.88-.87l.69.9-.08-.4a2.06,2.06,0,0,0-2.52-1.43l-.44.15,2.14.56-.08-.07.56,1,0-.1a2.17,2.17,0,0,0-4.25.58Z"/><path class="cls-5" d="M168.31,133.79c1.11,0,2.07-.49,3.17-.42a9.83,9.83,0,0,0,2.59-.17c1.21-.2,2.25.44,3.63-.37l-1.44.19.38.08-1.38-1.82,0,.3a2,2,0,0,0,3.91,0c0-.05.9-.44,1-.48a1.59,1.59,0,0,0-.38-2.87,3.57,3.57,0,0,0-4.49,3.35l3.64-1c-.85-1.39-2-1.29-3.42-1l1.49.19a5.33,5.33,0,0,0-2.3-.81c-.93,0-1.71.6-2.6.66-2.16.15-3.89-.58-5.29,1.5a1.75,1.75,0,0,0,1.5,2.61Z"/><path class="cls-5" d="M173.8,128l-.54-.29.79,1-.14-.45L171.84,131c1.57.12,3.1.19,4.66.43V127c-1.72.64-4.27,1.58-6.08.94-2.13-.75-3.67,2.8-1.56,3.69s4.61.65,7,.48,5.51.11,7.08-1.74a1.72,1.72,0,0,0,0-2.39c-1.9-1.48-3.88-.9-6.18-.74s-4.55.57-6.84.63l1,3.76c1.45-.87,4-.45,5.59-.14,2.92.6,4.18-3.85,1.24-4.49a15.35,15.35,0,0,0-6.47-.14c-2.72.55-1.54,4.6,1.14,4.13H173a1.59,1.59,0,0,0,.8-2.94Z"/><path class="cls-5" d="M179.19,131a2.14,2.14,0,0,0,1.44-.59,1.33,1.33,0,0,0,.28-1.41,1.32,1.32,0,0,0-1.19-.77,2.07,2.07,0,0,0-1.42.61,1.27,1.27,0,0,0,.89,2.16Z"/><path class="cls-5" d="M167.08,138c.35.36.94.26,1.4.24s1.1,0,1.45-.33a.36.36,0,0,0-.08-.55c-.44-.24-1,0-1.46,0s-.95-.07-1.31.24a.27.27,0,0,0,0,.39Z"/><path class="cls-5" d="M169,138.51a1.26,1.26,0,0,0,.91.18c.39,0,.53-.64.1-.72s-.53-.11-.95.17a.37.37,0,0,0,.37.64,3.69,3.69,0,0,0,1-.55l-.43-.56-.41.35c-.33.28.09.69.42.55l1.17-.4-.28-.68-.79.46c-.45.18-.27.91.21.74a5.42,5.42,0,0,1,1.78-.4v-.82c-.46.06-2.85.46-.87.42.45,0,.6-.75.11-.82-.81-.11-1.59-.27-2.39-.46v.8a3.62,3.62,0,0,1,2.2-.18l-.11-.8q-1.41.16,0,1.08l.29-.7a3.77,3.77,0,0,1-2.1-.13v.81a4.06,4.06,0,0,1,3.39.08l.1-.78a4.08,4.08,0,0,1-1.8.32l.3.73c1.44-.83,1.67-1,.69-.53a.46.46,0,0,0,.47.8l1.85-.85-.55-.72a3.84,3.84,0,0,1-1.15,1c-.44.29-.18,1.1.37.9l2.16-.8-.37-.89-.94.6.59.77,1.33-.8-.6-.6-.07.46c0,.28.12.64.46.61l.68-.07a.45.45,0,0,0,.44-.43v-.53a.42.42,0,0,0-.42-.42,16.17,16.17,0,0,1-2.67-.44v.84a4.32,4.32,0,0,1,2.59,0l.12-.87a5.27,5.27,0,0,1-1.19,0v.91l2.35-.21-.34-.82-.24.06.13,1h1v-1l-.22,0,.35.86c.56-.44,1.45.72,1.78,1s1.14-.27.68-.68c-.93-.83-1.78-2.07-3.07-1.13-.35.26-.29,1,.26.93l.22,0a.5.5,0,0,0,0-1,3.5,3.5,0,0,0-1.29.07c-.56.09-.41,1,.13,1a1,1,0,0,0,.92-.36.48.48,0,0,0-.34-.82l-2.35.26a.46.46,0,0,0,0,.91,5.92,5.92,0,0,0,1.19,0,.45.45,0,0,0,.11-.88,6.42,6.42,0,0,0-3.05,0,.44.44,0,0,0,0,.84,6.72,6.72,0,0,0,1.44.3l.41.05c.33.16.45.08.34-.25l.46.6.09-.46c.06-.34-.22-.73-.6-.6a4.72,4.72,0,0,0-1.76,1.05.49.49,0,0,0,.59.77l.94-.61c.44-.28.17-1.1-.38-.89l-2.16.79.38.9a6.62,6.62,0,0,0,1.31-1.17.46.46,0,0,0-.56-.72l-1.86.84.57.73a3.08,3.08,0,0,0,1.12-1.26.45.45,0,0,0-.11-.44c-.79-.8-2.27.33-2.88.89a.44.44,0,0,0,.31.74,6.37,6.37,0,0,0,2-.36c.31-.1.47-.62.11-.77a5.07,5.07,0,0,0-4-.16.42.42,0,0,0,0,.81,5.55,5.55,0,0,0,2.43.12.41.41,0,0,0,.18-.68c-.71-.76-2.39-1.38-2.84,0a.4.4,0,0,0,.1.4c.69.65,1.55.23,2.35-.08a.42.42,0,0,0-.11-.81,5.5,5.5,0,0,0-2.42.2.42.42,0,0,0,0,.8,24,24,0,0,0,2.39.47l.11-.82a4.92,4.92,0,0,0-1.91.12.47.47,0,0,0-.31.55c.33,1.24,2.29.67,3.2.55.45-.07.35-.86-.11-.81a8.14,8.14,0,0,0-2,.48l.3.71a2.58,2.58,0,0,0,.94-.59c.29-.24,0-.73-.36-.62a8.94,8.94,0,0,0-1.33.52l.42.54.43-.33c.31-.26-.1-.77-.44-.56a4.13,4.13,0,0,1-1,.52l.37.64.38-.1V138l-.59,0c-.29-.05-.54.37-.22.52Z"/><path class="cls-5" d="M178.71,136.65c.3.31.6.62.91.92l.44-.57a2.46,2.46,0,0,1-.69-.42c-.25-.18-.49.12-.46.36.13.9,1.78.42,2.34.34.39-.06.28-.67-.1-.68l-.94,0,.1.74a7.09,7.09,0,0,1,1.72-.07c.47,0,.59-.76.12-.82a18.94,18.94,0,0,0-2-.19c-.47,0-.59.75-.11.82.65.1,2.59.84,2.85-.28a.71.71,0,0,0-1.11-.75c-.74.52-.11,1.39.64,1.36a1.76,1.76,0,0,0,1.55-2,.46.46,0,0,0-.91,0c-.05.5-.09,1-.13,1.5a.45.45,0,0,0,.68.39,1.81,1.81,0,0,0,.65-2.45l-.6.46c-.09.41-.07.36.06-.14a.35.35,0,0,0-.64-.27c-.2.32-.4.62-.61.93s.36.74.62.36a3.31,3.31,0,0,0,.47-1,.38.38,0,0,0-.63-.36l-.26.29.64.26a4.27,4.27,0,0,0-.09-2c-.32-.92-.92-1.48-1-2.5l-.55.42c1.22.33,1.07,2.53,1.09,3.44a.42.42,0,0,0,.83,0c0-1.48.06-3.79-1.69-4.28a.43.43,0,0,0-.54.42,4.49,4.49,0,0,0,.44,1.65,5,5,0,0,1,.78,2.83.38.38,0,0,0,.64.27l.26-.3-.62-.36a2.11,2.11,0,0,1-.37.87l.62.36c.19-.31.38-.63.59-.94l-.64-.27c-.22.55-.72,1.8.4,1.62a1.21,1.21,0,0,0,.82-1.75c-.19-.39-.85-.12-.7.29s.11.94-.41,1.39l.68.38c.05-.5.09-1,.14-1.5h-.91c.18,1.47-2,1-2.8.87l-.11.83a17.21,17.21,0,0,1,1.75.15l.11-.82a5.92,5.92,0,0,0-1.92.19.37.37,0,0,0,.1.73l.94,0-.17-.64-1.45.21-.47.27.56.44c.34.31.86-.2.51-.51s-.66-.56-1-.84-.7.14-.42.43Z"/><path class="cls-5" d="M183.13,133.85a2.65,2.65,0,0,1,.35.79l0-.3,0,.09.24-.18-.09,0,.5.39a7.82,7.82,0,0,1,0-1.18l-.65.17c.33.58.16,1.06.17,1.68,0,.29.41.51.62.26a2,2,0,0,0-.24-2.36c-.2-.26-.58,0-.6.25s0,.78,0,1.18a.4.4,0,0,0,.5.38c.79-.31.23-1.1,0-1.6s-.92-.06-.69.4Z"/><path class="cls-5" d="M184.66,135.57c0-.72,0-1.43-.08-2.14l-.69.18a3,3,0,0,1,.29,1.91h.68c-.11-.57-.1-1.13-.17-1.7l-.39.05a3.31,3.31,0,0,1-.05,1,.29.29,0,0,0,.55.15,2,2,0,0,0-.14-1.34c-.09-.2-.35-.08-.37.1,0,.57,0,1.13-.11,1.7s.57.64.68.19a3.48,3.48,0,0,0-.33-2.47.37.37,0,0,0-.69.19c.06.71.14,1.42.24,2.14,0,.36.59.38.58,0Z"/><path class="cls-5" d="M184.82,133.94c-.2-.07-.29,0-.26.12a1.32,1.32,0,0,1,0,.34,2.09,2.09,0,0,0,0,.43.29.29,0,0,0,.49.21c.42-.47.34-2.3-.54-1.61-.29.22.09.71.39.51Z"/><path class="cls-5" d="M184.43,133.24a2.65,2.65,0,0,1-.92-2.44l-.72.1a12.08,12.08,0,0,1,.74,2.42c.06.34.65.27.62-.09a16.52,16.52,0,0,1-.34-2.88h-.72c0,.57.12,1.14.2,1.72.07.42.7.29.72-.1,0-.69.18-2.42-.67-2.68a.27.27,0,0,0-.27.08,3.08,3.08,0,0,0-.63,1.06c-.18.41.37.77.62.36a4.79,4.79,0,0,0,.45-1l-.55-.16L182.6,131c-.14.5.58.67.75.21a10,10,0,0,0,.52-2.72h-.7c0,.81,0,1.61-.07,2.41,0,.45.71.56.79.11.11-.67.19-1.34.31-2l-.51-.14q-.13.81-.24,1.62c0,.39.58.54.75.2a3.36,3.36,0,0,0,.34-1.65.24.24,0,0,0-.44-.12c-.25.34-.54.83-.28,1.24a.39.39,0,0,0,.52.14l0,0a.38.38,0,0,0,.18-.42v0a.37.37,0,0,0-.73.09v0l.28-.36h0l.47.27a1.44,1.44,0,0,1,0-.77l-.46-.12a6.88,6.88,0,0,1-.58,1.3l.75.21c0-.52,0-1,0-1.55a.27.27,0,0,0-.52-.07,14.74,14.74,0,0,0-.58,1.93l.79.11c0-.8,0-1.6,0-2.41a.35.35,0,0,0-.7,0,10.64,10.64,0,0,1-.57,2.51l.76.11c.06-.46.11-.92.16-1.38,0-.29-.4-.38-.53-.14s-.35.58-.55.87l.65.28c.3-1,.21,1.06.19,1.26l.72-.1c-.08-.51-.15-1-.19-1.52a.36.36,0,0,0-.72,0,12.05,12.05,0,0,0,.44,3l.61-.17a14.6,14.6,0,0,0-.64-2.44.37.37,0,0,0-.72.09,2.75,2.75,0,0,0,1.41,2.85.24.24,0,0,0,.24-.41Z"/><path class="cls-5" d="M184.47,130.5a8.06,8.06,0,0,1,.55-2.68.32.32,0,0,0-.36-.47c-.54.08-.66.69-.73,1.14a6.78,6.78,0,0,0-.09,2,.33.33,0,0,0,.63,0Z"/><path class="cls-5" d="M184.43,128.66a7.56,7.56,0,0,0,.47-.89c.09-.2-.21-.33-.34-.2a7,7,0,0,0-.62.71c-.29.36.27.76.49.38Z"/><path class="cls-5" d="M183.41,127.7a1.24,1.24,0,0,1-.66,0l.09.76a2.61,2.61,0,0,1,1.4-.3v-.76c-.41,0-1.56.19-1.92-.05l.19.33v-.1l-.19.34a2.59,2.59,0,0,1,2,.08v-.77a10,10,0,0,1-1.64.15.4.4,0,0,0,0,.8,9.55,9.55,0,0,1,1.59.15l.05-.42a2.6,2.6,0,0,1-1.34.29c-.5,0-.49.79,0,.76a3.39,3.39,0,0,0,2.33-.66.32.32,0,0,0-.38-.5,2.38,2.38,0,0,0-.81.7c-.25.33.21.65.51.51a3.1,3.1,0,0,0,1.19-1c.25-.33-.26-.65-.54-.41s-.76.67-1.16,1a.44.44,0,0,0,.09.7.57.57,0,0,0,.52,0c.12,0,.57-.46.59-.44l-.15-.27c0,.43-.8.8-1.1,1l.49.37c.08-.21.15-.41.21-.63s-.35-.47-.47-.2a1.63,1.63,0,0,1-.3.51c-.22.27.06.74.41.52.52-.33,1.33-.83,1.38-1.53a.49.49,0,0,0-.39-.55c-.42-.09-.64.38-1,.47l.42.11-.07-.06v.63c.31-.4.67-.77,1-1.14l-.48-.48a2.91,2.91,0,0,1-1,.77l.51.51a1.47,1.47,0,0,1,.49-.53l-.39-.5c-.41.36-1.36.3-1.88.35l.1.75a5.56,5.56,0,0,0,1.67-.49.37.37,0,0,0,.16-.4c-.19-.72-1.65-.64-2.23-.68v.8a11.6,11.6,0,0,0,1.86-.18c.42-.07.33-.65,0-.77a3.22,3.22,0,0,0-2.6,0,.4.4,0,0,0-.17.44c0,.29.28.41.55.45a15.68,15.68,0,0,0,1.94,0c.49,0,.49-.74,0-.76a3.32,3.32,0,0,0-1.81.34c-.28.17-.27.7.1.76a2.51,2.51,0,0,0,1.09-.05.4.4,0,0,0-.21-.78Z"/><path class="cls-5" d="M185,129.08a10.45,10.45,0,0,1,1.57-.7c.51-.15,1.07,0,1.54-.18.15-.06.29-.25.17-.41-.88-1.13-2.86.17-3.65.8-.3.23.07.63.37.49Z"/><path class="cls-5" d="M184.94,128.48a7.68,7.68,0,0,1,3-.39l-.19-.71-.15.08a.3.3,0,0,0,0,.51l.15.07c.52.25.81-.59.29-.69a5.92,5.92,0,0,0-3.31.51c-.38.15-.24.74.17.62Z"/><path class="cls-5" d="M184.85,127.21l-.13-.11-.37.63c1.46.27,3.55.66,4.9-.1a.28.28,0,0,0-.07-.51,8.68,8.68,0,0,0-2.22,0,17.59,17.59,0,0,1-2.51-.13c-.37,0-.52.56-.19.72l.16.07c.35.17.75-.26.43-.56Z"/><path class="cls-5" d="M187.06,128.07a23.5,23.5,0,0,1,3.94-.23l-.21-.77-.23.18c-.14.1-.2.35,0,.44l.23.1A.41.41,0,1,0,191,127a12.38,12.38,0,0,0-4.16.26c-.51.13-.29.9.22.79Z"/><path class="cls-5" d="M189.46,128c.56,0,1.12.08,1.68.11s.58-.86,0-.91c-.33,0-.65,0-1-.1V128c.62,0,1.26.07,1.88,0l-.21-.77a1.88,1.88,0,0,1-1,.28l.32.42c.22-.54,1.29-.42,1.78-.58a.29.29,0,0,0-.15-.55c-.8.16-1.81,0-2.24.87a.33.33,0,0,0,.37.49A8,8,0,0,1,192,128c.44,0,.6-.7.11-.81a7.78,7.78,0,0,0-2-.11.46.46,0,0,0,0,.91c.33,0,.65.08,1,.1v-.91a15.09,15.09,0,0,0-1.77.15c-.4.06-.25.62.09.65Z"/><path class="cls-5" d="M192.9,127.37a1.93,1.93,0,0,0,.34-.11.2.2,0,0,0-.11-.39,1.89,1.89,0,0,0-.34.09.21.21,0,0,0,.11.41Z"/><path class="cls-5" d="M186.31,140.78c.06-.55.69-1.16,1-1.64a2.75,2.75,0,0,0,.48-1.54.31.31,0,0,0-.6-.08c-.34.84-.58,1.9-1.43,2.37l.46.59a10.25,10.25,0,0,0,1.88-3l-.68-.19a8.52,8.52,0,0,0-.41,1.88c-.05.45.68.53.78.1a7.44,7.44,0,0,1,.69-1.8h-.59c.08.16-.27,1-.31,1.18-.1.4-.21.8-.3,1.2a.44.44,0,0,0,.85.23,17.82,17.82,0,0,1,.74-2.49h-.69a3.32,3.32,0,0,1,0,1.09,10.85,10.85,0,0,0,0,1.14.44.44,0,0,0,.87,0,12,12,0,0,1,.26-1.88l-.82-.11c0,.66,0,1.33,0,2h.91a7.29,7.29,0,0,1,.08-1.81l-.76-.11c0,.66-.06,1.32-.08,2s1,.59.93,0-.06-1.32-.08-2c0-.41-.67-.54-.76-.1a11.37,11.37,0,0,0-.24,2,.46.46,0,0,0,.91,0,8.4,8.4,0,0,0-.13-2.12c-.08-.49-.78-.32-.82.12a12,12,0,0,1-.29,1.88l.85.11a12.86,12.86,0,0,0,0-1.52,2.22,2.22,0,0,0-.15-1,.37.37,0,0,0-.66.09c-.31.81-.64,1.62-.9,2.45l.85.23c.13-.63.24-1.26.35-1.89.07-.36.21-.74,0-1.06a.34.34,0,0,0-.59,0A13.34,13.34,0,0,0,187,139l.78.11a7.48,7.48,0,0,1,.29-1.69c.11-.38-.46-.64-.65-.28a13.61,13.61,0,0,1-1.76,2.78c-.27.31.07.83.46.59,1-.59,1.25-1.88,1.63-2.86l-.59-.16c-.33,1.08-1.4,2.11-1.41,3.26,0,.37.51.34.55,0Z"/><path class="cls-5" d="M186.76,140.31a4.15,4.15,0,0,1,.71-.74l-.57-.44c-.13.21-.26.42-.38.63a.42.42,0,0,0,.65.5c.22-.23.42-.47.63-.71l.18-.24c.09,0,.26.51.29.58a.17.17,0,0,0,.34,0c0-.42-.05-1.1-.58-1.16s-1.1.65-1.44,1l.64.49c.11-.22.2-.45.3-.67s-.26-.76-.57-.44a2.77,2.77,0,0,0-.65,1.06c-.1.28.3.4.45.19Z"/><path class="cls-5" d="M189.44,140.71a7.41,7.41,0,0,0,.41-2.42h-.58a10.37,10.37,0,0,0,.26,3.89c.15.38.71.12.5-.21l-.1-.16a.17.17,0,0,0-.29,0l-.08.16.51.14c0-1.28-.22-2.54-.22-3.82a.29.29,0,0,0-.57-.08,7.71,7.71,0,0,0-.25,2.44.21.21,0,0,0,.41.06Z"/><path class="cls-5" d="M189.67,140.12a.1.1,0,0,0,0-.2.1.1,0,0,0,0,.2Z"/><path class="cls-5" d="M189.74,139.31h0a.2.2,0,0,0,0-.24v0a.22.22,0,0,0-.37,0c-.2.33.18,1,.26,1.3.16.65.12,1.3.24,1.95a.26.26,0,0,0,.5,0,5.28,5.28,0,0,0-.63-3.25l-.19.32h0l-.19-.25v0a.19.19,0,0,0,.32.18Z"/><path class="cls-5" d="M189.2,138.67a16.89,16.89,0,0,0-.22-4.08c-.08-.45-.81-.35-.79.11a14.57,14.57,0,0,1-.35,3.6l.76.1a11.81,11.81,0,0,1,.15-3.56l-.67-.09a16.07,16.07,0,0,1-.58,3.24l.6.09a17.39,17.39,0,0,1,.5-4.31l-.66-.09a12.51,12.51,0,0,0,.33,2.73.34.34,0,0,0,.65,0c.28-.92.13-1.89.47-2.78l-.68-.1a39.9,39.9,0,0,0,.14,4.51c.05.45.77.45.71,0a12.78,12.78,0,0,1-.15-3h-.62a38,38,0,0,0,.53,4.1A.33.33,0,0,0,190,139a21.08,21.08,0,0,0-.57-4.1c-.09-.39-.68-.22-.6.17a11.56,11.56,0,0,1,0,2.94h.71c-.05-1.51-.16-3-.16-4.51a.35.35,0,0,0-.68-.09c-.34.91-.17,1.87-.45,2.79h.65a11,11,0,0,1-.3-2.55.34.34,0,0,0-.67-.09,16.17,16.17,0,0,0-.46,4.49.31.31,0,0,0,.6.08c.28-1.1.47-2.2.66-3.32a.34.34,0,0,0-.66-.18,18,18,0,0,0-.26,3.74c0,.43.66.52.76.1a17.34,17.34,0,0,0,.41-3.8l-.8.1c.24,1.31.18,2.64.4,3.95.06.36.58.24.6-.08Z"/><path class="cls-5" d="M189,134.24c0-.81.37-1.46.14-2.28-.16-.55-.43-1.28-1-1.49l.28.48v0l-.27.27c-.26.09,0,.25.08.45a3.45,3.45,0,0,1,.25.63,3.07,3.07,0,0,1,.14.67c0,.11-.06.53.12.45l.48.06a6.4,6.4,0,0,1-.66-1.14,4.37,4.37,0,0,0-.23-.49c0-.23-.1-.3-.24-.2s-.18.1.05.2l.25-.6-.24-.18-.18.31c.21-.14.44.27.48.43a1.14,1.14,0,0,1-.16.92l.67.28a1,1,0,0,1,0-.62c.13-.25.12-.31,0-.16s-.14.54-.22.84l.77.1c0-.29-.23-1.11-.06-1.34-.08.1,0,.77,0,.93s-.15.5-.31.51l.32.18a1.13,1.13,0,0,1,0-.68c0-.25-.3-.45-.44-.19a1.51,1.51,0,0,0-.2,1.15.39.39,0,0,0,.35.27c1.17.13,1.37-1.94.9-2.63a.61.61,0,0,0-.93-.12c-.48.42-.36,1.36-.37,1.92a.39.39,0,0,0,.76.11c.14-.49.31-1.84-.45-1.95s-.93,1.22-.87,1.68c0,.29.43.57.66.27.66-.82.59-2.46-.66-2.62s-.74,1.3.21,1.3c.28,0,.49-.4.25-.6s-1.1-.86-1.19,0c0,.41.32.86.49,1.2a6.49,6.49,0,0,0,.72,1.5.41.41,0,0,0,.48.07c.73-.35.14-2-.09-2.54-.15-.34-.4-1-.8-1.1a.45.45,0,0,0-.6.33.41.41,0,0,0,.27.48c.17.06.33.67.38.84a2.28,2.28,0,0,1,.07,1.07,1.76,1.76,0,0,0,0,1.26.32.32,0,0,0,.59-.16Z"/><path class="cls-5" d="M188.57,131.38a5.45,5.45,0,0,1,1.29.49c.32.14.69.23,1,.39v-.55c-.16.08-.47-.12-.64-.16a3.29,3.29,0,0,0-.63-.08c-.45,0-.47.59-.1.74a11.45,11.45,0,0,0,1.73.51l.12-.82a17,17,0,0,0-2,.19c-.45.07-.34.79.1.78a3.69,3.69,0,0,0,1.68-.29.36.36,0,0,0-.18-.66c-.5,0-1,.14-1.5.16l.11.78a9.13,9.13,0,0,1,1.81-.12.42.42,0,0,0,.11-.82l-1.76-.44.16.63a.85.85,0,0,1,1,.15.32.32,0,0,0,.47-.19l0-.07a.44.44,0,0,0-.1-.38,3.72,3.72,0,0,0-1.36-.61,2.37,2.37,0,0,0-1.41-.23c-.36.09-.23.56.08.6Z"/><path class="cls-5" d="M190.74,131.8a2.46,2.46,0,0,0,1.68-.24l-.73-.42a.74.74,0,0,1-.47.64l.47.81c.05-.06.27-.31.38-.26l-.18-.25,0,.08.11-.4c-.11.09-.42.07-.54.07l.22.81c.12-.08.75-.39.87-.14v-.39l.13-.08.1.39c-.08.21.16.14.34.27l.1-.75,0,.09.11.41,0-.07-.2.25.14,0,.06-.48a.42.42,0,0,0-.1.39c.11.5.94.26.76-.21s-1-.92-1.4-.37a.51.51,0,0,0,0,.68.8.8,0,0,0,.9,0,.42.42,0,0,0,0-.71c-.49-.29-1.3-.44-1.52.23a.38.38,0,0,0,.1.39c.39.33,1.39.2,1.09-.49s-1.45-.52-2-.22a.44.44,0,0,0,.22.81,1.61,1.61,0,0,0,1.12-.36.42.42,0,0,0,.1-.4c-.29-.71-1.26-.49-1.69,0s.12,1.1.58.75a2.29,2.29,0,0,0,.95-1.29.45.45,0,0,0-.65-.5c-.24.16-.87.06-1.15.06a.44.44,0,0,0,0,.87Z"/><path class="cls-5" d="M193.35,132a.76.76,0,0,0,.23.5.27.27,0,0,0,.45-.11.75.75,0,0,0,0-.57.33.33,0,0,0-.64.18Z"/><path class="cls-5" d="M193.45,127a17.79,17.79,0,0,0,4.13.22,23.85,23.85,0,0,0,4.14,0c.33-.06.28-.54,0-.62a16.83,16.83,0,0,0-4.14-.33,13.6,13.6,0,0,0-4.13.15.3.3,0,0,0,0,.57Z"/><path class="cls-5" d="M201.28,127.38a1.91,1.91,0,0,1,.41-1.21l-.6-.16a5.22,5.22,0,0,1-.06,2l.67.19a2.12,2.12,0,0,1,.61-1.44l-.42-.32c-.19.83-.62,1.57-.81,2.4a.44.44,0,0,0,.85.23c.06-.2.54-2.13.77-2.13l-.34-.46c-.19,1.31-.33,2.63-.56,3.93l.91.12a9.73,9.73,0,0,0,0-1.08.29.29,0,0,0-.57-.07,8.83,8.83,0,0,0-.33,1c-.13.58.79.82.89.25a14.05,14.05,0,0,0,.37-4.08.35.35,0,0,0-.45-.34c-.42.14-.5.43-.7.83-.3.58-.58,1.16-.83,1.77l.85.23a9.89,9.89,0,0,0,.52-2.55.29.29,0,0,0-.53-.15A4.61,4.61,0,0,0,201,128c-.09.44.56.62.67.19a5.33,5.33,0,0,0,.08-2.35c-.06-.34-.49-.31-.65-.09a1.9,1.9,0,0,0-.36,1.72.26.26,0,0,0,.51-.07Z"/><path class="cls-5" d="M201.16,128.66a14.47,14.47,0,0,1,.21,2.72,11.33,11.33,0,0,0,.46,2.23.18.18,0,0,0,.35-.05,20.58,20.58,0,0,0,0-2.72,7.83,7.83,0,0,0-.3-2.37c-.17-.43-.84-.27-.7.19Z"/><path class="cls-5" d="M202,128.65v0l-.39,0c.5.55.49,1.95.55,2.64a13.87,13.87,0,0,1-.07,2.41h.63q0-.34-.06-.69c0-.21-.34-.29-.39,0s-.11.44-.17.65c-.11.41.56.56.61.17a13.82,13.82,0,0,0,0-3.69c-.08-.65-.09-1.58-.72-1.94a.32.32,0,0,0-.48.27.71.71,0,0,0,0,.32.23.23,0,0,0,.45-.06Z"/><path class="cls-5" d="M202.26,129.05a1.47,1.47,0,0,0-.08.86,6.12,6.12,0,0,0,.1,1.05c.07.31.51.22.53-.07a7.59,7.59,0,0,0-.09-1.17,1.12,1.12,0,0,0-.21-.7.16.16,0,0,0-.25,0Z"/><path class="cls-5" d="M200.85,127.58a1,1,0,0,0,.32,1.16.22.22,0,0,0,.33-.19,5.43,5.43,0,0,1,0-.81c.07-.39-.54-.56-.61-.16Z"/><path class="cls-5" d="M201.16,127.34a7.94,7.94,0,0,0,.57,1c.1.11.19.17.34.11s.2-.24.26-.38a11,11,0,0,0,.37-1.24c0-.18-.23-.31-.31-.13s-.2.42-.29.63-.15.71-.25.78l.24,0a4.53,4.53,0,0,1-.61-1,.18.18,0,0,0-.32.18Z"/><path class="cls-5" d="M203,125.9a15.72,15.72,0,0,1-.5,2.36h.63a.57.57,0,0,0-.07-.22c-.07-.18-.35-.28-.45-.06a1.17,1.17,0,0,0-.11.28c-.12.41.48.56.63.17a4,4,0,0,0,.16-2.57c-.05-.17-.27-.11-.29,0Z"/><path class="cls-5" d="M203.07,126.77a17.34,17.34,0,0,0-.2,2.7c0,.39.58.39.61,0a4,4,0,0,0,0-.6.22.22,0,0,0-.43-.06c-.07.2-.13.38-.18.58l.6.08a7,7,0,0,0-.09-2.7.17.17,0,0,0-.32,0Z"/><path class="cls-5" d="M203.13,127a25.57,25.57,0,0,0-.39,3.15,7.66,7.66,0,0,0,.1,3,.37.37,0,0,0,.73-.1,10.4,10.4,0,0,0,0-2.16.22.22,0,0,0-.44,0,17.67,17.67,0,0,1-.33,2.06h.71a10.07,10.07,0,0,1,.06-3c.07-.95.16-1.89.19-2.84a.34.34,0,0,0-.67-.09Z"/><path class="cls-5" d="M203.88,126.23v-.17a.16.16,0,0,0-.3-.08,3.59,3.59,0,0,0-.31,3c.07.18.41.25.45,0a13.31,13.31,0,0,0,.07-1.41c0-.52.09-1,.09-1.54l-.3.08.07.15a.12.12,0,0,0,.23-.06Z"/><path class="cls-5" d="M203,129.14a15.67,15.67,0,0,0,.1,8.1.35.35,0,0,0,.68-.18,29.59,29.59,0,0,1-.33-7.86c0-.25-.39-.3-.45-.06Z"/><path class="cls-5" d="M202.18,131.48c0,2-.13,4-.11,6l.67-.1-.13-.42a.21.21,0,0,0-.41,0l-.12.42c-.12.43.57.61.66.19a22.6,22.6,0,0,0,.22-6.09.39.39,0,0,0-.78,0Z"/><path class="cls-5" d="M202.42,132.91l0-.1-.63-.26a27.47,27.47,0,0,0,.38,4.35.32.32,0,0,0,.63-.09,2.63,2.63,0,0,0-.09-.55c0-.19-.36-.2-.39,0l-.12.39.6.16a26.43,26.43,0,0,0-.27-4.26c-.07-.68-1-.25-.69.19l.07.17a.24.24,0,0,0,.48,0Z"/><path class="cls-5" d="M201.79,133.31a23.1,23.1,0,0,0,.76,3.77.19.19,0,0,0,.36,0,2.1,2.1,0,0,0,.09-.61.14.14,0,0,0-.28,0l-.15.46.34.1c-.11-1.25-.3-2.48-.47-3.72-.05-.41-.7-.42-.65,0Z"/><path class="cls-5" d="M203,132.35c-.06.65,0,1.32,0,2s-.14,1.31-.13,2l.67-.09c0-.15-.07-.29-.1-.43a.23.23,0,0,0-.44,0,3,3,0,0,0-.12.43.34.34,0,0,0,.66.18,7.88,7.88,0,0,0-.1-4.09.22.22,0,0,0-.43,0Z"/><path class="cls-5" d="M203.25,133.13a20.14,20.14,0,0,0,.14,4.32l.46-.13,0-.14a.2.2,0,0,0-.38,0l0,.14c-.09.33.42.42.47.07a35.64,35.64,0,0,0,.09-4.26.35.35,0,0,0-.7,0Z"/><path class="cls-5" d="M203.08,134.52c-.05,1.56-.18,3.11-.3,4.66l.79-.1a5.17,5.17,0,0,1-.24-2.67l-.64-.09a19,19,0,0,1-.2,4.94h.81a9.56,9.56,0,0,1-.18-3.41h-.8a16.54,16.54,0,0,1-.39,3.12l.94.13c0-.84,0-1.67.11-2.5a.42.42,0,0,0-.83-.11c-.14.73-.31,1.45-.51,2.17l.91.12a8.65,8.65,0,0,1,.16-1.83h-.66a19.08,19.08,0,0,1,.39,2.24c.05.43.75.62.82.12a15.84,15.84,0,0,0-.16-4.61c0-.42-.61-.3-.73,0a9.53,9.53,0,0,0-.62,2.93c0,.55.8.53.85,0s.13-1,.18-1.5l-.75.1a2.41,2.41,0,0,0,.41.91.21.21,0,0,0,.39-.17l-.05-.84A.38.38,0,0,0,202,138a9.87,9.87,0,0,0-.28,1.61h.85a8.73,8.73,0,0,1,.5-2.73l-.74-.1c0,1.47.22,2.92.08,4.39l.82-.11a13.16,13.16,0,0,0-.55-2.31.34.34,0,0,0-.67.09,12.61,12.61,0,0,1-.4,1.8.46.46,0,0,0,.89.24,20.21,20.21,0,0,0,.44-2.19l-.83-.11c-.06.84-.14,1.66-.23,2.5-.06.53.85.66.94.12a18.1,18.1,0,0,0,.27-3.37.4.4,0,0,0-.8,0,14.72,14.72,0,0,0,.17,3.63c.09.5.77.31.82-.11a15.5,15.5,0,0,0,0-5.13c-.07-.37-.64-.28-.64.08a15.48,15.48,0,0,0,.11,3c.08.48.73.3.78-.11.17-1.55.22-3.1.24-4.66a.37.37,0,0,0-.74,0Z"/><path class="cls-5" d="M203.29,140.32a5.64,5.64,0,0,1,.16-1.92h-.67a21.3,21.3,0,0,1,.37,4.58H204a33.89,33.89,0,0,1-.09-4l-.76.1c.18.92.6,2.29.27,3.21l.77-.1c-.31-.72-.58-1.45-.91-2.16a.26.26,0,0,0-.48.13,7.44,7.44,0,0,0,.67,2.45c.15.36.65.2.76-.1.37-1.1-.16-2.53-.34-3.64-.07-.44-.72-.3-.75.11a24.65,24.65,0,0,0,0,4,.42.42,0,0,0,.83,0,15.34,15.34,0,0,0-.53-4.77.35.35,0,0,0-.69.1,11.25,11.25,0,0,0,0,2c0,.33.53.33.52,0Z"/><path class="cls-5" d="M190.56,142.5l-.07-.14-.05.39a2.24,2.24,0,0,0,.61-1.14c0-.17-.19-.26-.33-.18a2.55,2.55,0,0,0-.79.93c-.19.29.17.57.44.44l.12-.06a.19.19,0,0,0,.07-.24Z"/><path class="cls-5" d="M190.22,142.05a9.32,9.32,0,0,1-1.21.74l.44.44a1.83,1.83,0,0,1,1.1-.78l-.44-.34c0,.26-.47.55-.59.81a.44.44,0,0,0,.68.53,8.21,8.21,0,0,1,1.77-1.22l-.57-.58a3.35,3.35,0,0,1-1,1.16l.77.6a4.27,4.27,0,0,1,.57-.63,2.1,2.1,0,0,1,.27-.24c.21-.08.23-.16,0-.25,0-.1-.15-.13-.07.08a.81.81,0,0,0,.21.3c.42.33,1.33.05,1.79,0,.21,0,.22-.29.11-.42a.83.83,0,0,0-.82-.34c-.2,0-.43.16-.63.08,0,0-.13-.2-.23-.25-.7-.34-1.59.64-2,1.09s.25,1.15.7.7a4.71,4.71,0,0,0,1.09-1.53.43.43,0,0,0-.52-.52,6.23,6.23,0,0,0-2.07,1.37l.73.43c.1-.46.48-.66.5-1.15a.35.35,0,0,0-.44-.34,2.11,2.11,0,0,0-1.48,1.13c-.14.31.26.69.51.39a8.58,8.58,0,0,1,1-1c.13-.11,0-.32-.17-.23Z"/><path class="cls-5" d="M191.25,143.2a27.62,27.62,0,0,0,6.1-.25.33.33,0,0,0,0-.63,20.46,20.46,0,0,0-6.1.14.37.37,0,0,0,0,.74Z"/><path class="cls-5" d="M192.83,142.65c1.88-.08,3.79.29,5.65.16a.32.32,0,0,0,.08-.63,15.32,15.32,0,0,0-5.73-.31c-.5,0-.51.8,0,.78Z"/><path class="cls-5" d="M193,141.68l0,0-.16.59a7.75,7.75,0,0,1,4.42-.25.23.23,0,0,0,.22-.38c-1.16-1.18-3.48-.59-4.83,0a.36.36,0,0,0-.15.59.51.51,0,0,0,.48.18c.44,0,.45-.73,0-.7Z"/><path class="cls-5" d="M191.88,141.86a.85.85,0,0,0,1.11.22l.85-.12a13.9,13.9,0,0,1,2,0c.41,0,3.64.05,3.74.34a.32.32,0,0,0,.58.08l.11-.15a.4.4,0,0,0,0-.41c-.49-1-3.19-.7-4.14-.75-1.28-.07-3.52-.28-4.52.79a.34.34,0,0,0-.06.4l0,0a.33.33,0,0,0,.37.15h.06c.39-.14.23-.75-.18-.63Z"/><path class="cls-5" d="M196.35,142.75a12.52,12.52,0,0,1,3.45-.17c.54,0,.92.12-.31-.12a4.62,4.62,0,0,1-1.54-.64v.73c.91-.45,2.54,0,3.45.21v-.84a4.88,4.88,0,0,1-3.19-.37l.09.69c.75-.65,2.55.14,3.34.4l.22-.79a8.42,8.42,0,0,1-2.1-.77l-.34.82a8.15,8.15,0,0,1,2.43.31l.11-.86c.11,0-.24,1.2-.28,1.26l.76-.09c-.33-.86-.68-.9-1.07-.11l.79.33.06.25a.48.48,0,0,0,.93.12c.2-.36.08-.53-.37-.51l.86-.12a9,9,0,0,1-.47-2c0-.13-.25-.1-.24,0a8,8,0,0,1-.14,2c-.12.56.76.79.85.24s0-1.1-.67-1.13a.46.46,0,0,0-.4.22,2.58,2.58,0,0,0-.33,1.05l.92.13c0-.63,0-1.66-.88-1.71s-1.05.82-1.05,1.46a.47.47,0,0,0,.79.33c.56-.63,1.19-2.32-.23-2.47-1.61-.17-.36,2-.11,2.5a.5.5,0,0,0,.76.1c.5-.6,1.07-1.95,0-2.38a1.27,1.27,0,0,0-1.66,1.05.5.5,0,0,0,.35.47,1.35,1.35,0,0,0,1-.09c.34-.13.51-.66.11-.85a7.24,7.24,0,0,0-2.78-.38c-.54-.05-.55.71-.12.88a16.06,16.06,0,0,0,2.22.74.41.41,0,0,0,.22-.79c-1.21-.45-3.07-1.24-4.18-.23a.44.44,0,0,0,.09.69,6.21,6.21,0,0,0,3.87.45.44.44,0,0,0,0-.84c-1.24-.27-2.93-.72-4.11-.1a.43.43,0,0,0,0,.73c.81.39,3,1.29,3.77.37a.4.4,0,0,0,.06-.44c-.28-.61-1.28-.74-1.84-.83a6.57,6.57,0,0,0-3.37.37.38.38,0,0,0,.2.73Z"/><path class="cls-5" d="M203.81,138.9a4.87,4.87,0,0,0,.11-2,.2.2,0,0,0-.36-.05,6.75,6.75,0,0,0-.37,1.85c-.06.4.56.58.62.17Z"/><path class="cls-6" d="M126.18,136a4.26,4.26,0,0,0-1.14-.54.46.46,0,0,0-.25.89,3.11,3.11,0,0,1,1,.4c.48.29.89-.44.43-.75Z"/><path class="cls-6" d="M126.23,135.59c-.52-.32-1.08-.59-1.61-.9a.89.89,0,0,0-1.07.14,1.77,1.77,0,0,0-.26.35,1,1,0,0,0,.14,1.11l0,.05-.21-.37a1.11,1.11,0,0,0,1.09.85.65.65,0,0,0,.55-1,.28.28,0,0,1,0-.09l-.41.72a1.35,1.35,0,0,0,.45-.57l-1,.41a8.25,8.25,0,0,1,1.52.59.76.76,0,0,0,.77-1.31Z"/><path class="cls-7" d="M82.19,162.64c1-4.24-.54-8.51-1.76-12.56a70.93,70.93,0,0,1-2.8-16,1.5,1.5,0,0,0-2.94-.4c-1.47,4.37-.22,9.13,1.08,13.41,1.55,5.11,2.8,10.51,4.62,15.51.29.8,1.58,1,1.8,0Z"/><path class="cls-7" d="M76.51,135.47c1.9.07,3.78-.06,5.67.1a22.31,22.31,0,0,0,5.22.25c1.26-.19,1.39-2.12.35-2.67-3.16-1.67-8.24-1.27-11.61-.46a1.42,1.42,0,0,0,.37,2.78Z"/><path class="cls-7" d="M86.11,135.13c-2.56,3.94-1.3,11-1.15,15.51a36.28,36.28,0,0,0,.86,6.31c.65,3.1,1.3,6.76-3.62,4.36a1.49,1.49,0,0,0-2.2,1.27v.74a2,2,0,0,0,1.41,1.85,16.9,16.9,0,0,0,7.22-.15,1.76,1.76,0,0,0,1.24-1.24c1.06-4.32-1.07-8.84-1.25-13.14-.2-4.74,1.45-11.41-1.22-15.51a.75.75,0,0,0-1.29,0Z"/><path class="cls-7" d="M85.48,136.11c5.52.82,11.09.54,16.65.32s11.27.45,16.58-.58c1.58-.31,1.28-2.45,0-2.91-4.81-1.72-10.59-.92-15.63-.71-5.72.25-11.42.33-17.14.47-1.87,0-2.47,3.11-.46,3.41Z"/><path class="cls-7" d="M86.58,144.05c4.81,1,10.14.09,15-.21s10.32-.13,15.2-1.34c1.57-.39,1.72-3,0-3.33-5-.83-10.21.07-15.2.47s-10.38.17-15,1.89c-1.1.41-1.36,2.22,0,2.52Z"/><path class="cls-7" d="M88.26,154.4a125.65,125.65,0,0,0,13.82-3.93c4-1.25,8.6-2,12.13-4.33a1.51,1.51,0,0,0-.75-2.79c-4.54,0-9.08,2.16-13.35,3.59A88.24,88.24,0,0,0,87.26,152c-1.38.72-.38,2.65,1,2.38Z"/><path class="cls-7" d="M116,144.31v-.11a1.63,1.63,0,1,0-3.25,0v.11a1.63,1.63,0,1,0,3.25,0Z"/><path class="cls-7" d="M112.39,143.23a3.58,3.58,0,0,0,.53.7c-.37-.4.32.45.25.33s-.1-.13,0,0a1.85,1.85,0,0,0,1.41,1,1.72,1.72,0,0,0,1.53-.5,1.86,1.86,0,0,0,.28-2.19c-.53-1-1.95-2-3.14-1.53a1.45,1.45,0,0,0-.85,2.1Z"/><path class="cls-7" d="M88.59,162.43c6-.67,11.77-2.91,17.44-4.81s11.94-3.39,17.1-6.45c1.75-1,.52-3.39-1.3-3.09-6,1-12,3.89-17.77,5.92-5.37,1.89-11.08,3.47-16,6.29-.93.53-.59,2.27.58,2.14Z"/><path class="cls-7" d="M116,144.46a3.19,3.19,0,0,0,2-1.58,1.94,1.94,0,0,0-.5-2.46,1.89,1.89,0,0,0-2.5.15,9.7,9.7,0,0,0-1,1.4,1.72,1.72,0,0,0,1.92,2.49Z"/><path class="cls-7" d="M116.2,135.43a26.06,26.06,0,0,0,3.64.46,10.13,10.13,0,0,0,3.64,0,1.43,1.43,0,0,0,.34-2.58c-1.95-1.27-5.47-1.17-7.62-.48a1.34,1.34,0,0,0,0,2.56Z"/><path class="cls-7" d="M121.27,136.06c1.86,4.75.88,8.57,0,13.35a1.55,1.55,0,0,0,2.83,1.19c1.54-2.44,1.91-5.81,1.8-8.65-.09-2.24-.29-5.47-2.09-7a1.55,1.55,0,0,0-1.77-.23l-.26.12a1.11,1.11,0,0,0-.51,1.26Z"/><path class="cls-7" d="M123.84,133.59l-.2,0a1.46,1.46,0,0,0-1.06,1.39c-.13,3.05-.16,6.87,1.12,9.69.59,1.29,2.33.49,2.43-.66a26.09,26.09,0,0,0-.38-4.49c-.14-1.51-.2-3-.28-4.54a1.5,1.5,0,0,0-1.06-1.39,1.11,1.11,0,0,0-.57,0Z"/><path class="cls-7" d="M121.62,152.29q21.23-2.29,42.57-3.07c2.47-.09,2.49-4,0-3.87q-21.34.78-42.57,3.08c-2.44.26-2.47,4.13,0,3.86Z"/><path class="cls-7" d="M129.09,151.19a.26.26,0,0,0,0-.51.26.26,0,0,0,0,.51Z"/><path class="cls-7" d="M127.86,150.23c-2.62,2.14-2.93,7.57-3.33,10.74-.31,2.35-.55,5,1.77,6.37a.9.9,0,0,0,1.23-1.23c-2.93-4.83,2.44-10.8,1.18-15.66a.51.51,0,0,0-.85-.22Z"/><path class="cls-7" d="M125.9,167.23c.82,1.56,3.24,1.83,4.84,2a10.25,10.25,0,0,0,6.07-1.32,1.08,1.08,0,0,0-.82-2,17.72,17.72,0,0,1-5.25.78c-1.46,0-3-.85-4.44-.44a.68.68,0,0,0-.4,1Z"/><path class="cls-7" d="M135,150.38a17.22,17.22,0,0,0-2.34,9.08c0,.56.54,8,2.7,6.38-.87.66-.78,2.59.65,2.4l.36,0a1.44,1.44,0,0,0,1.34-1c.42-2.35-1.94-3.76-2.26-6.06-.48-3.39.71-6.7,1.39-10a1,1,0,0,0-1.84-.78Z"/><path class="cls-7" d="M135,154.79a8.11,8.11,0,0,0,2.78-4.33,1.15,1.15,0,0,0-2.22-.61,16,16,0,0,1-1.92,3.57c-.5.81.53,2,1.36,1.37Z"/><path class="cls-7" d="M126.11,151.58l-.08.08-1.35-.36c1.44,1.87.72,3.9.48,6h2a37.52,37.52,0,0,0,.14-4.23c-.13-1.18-.84-1.78-1.53-2.67s-2.26.42-1.43,1.43c.22.27.5.49.7.76a2.43,2.43,0,0,1,.34,1.8c0,1-.12,1.93-.25,2.91-.15,1.17,1.67,1.3,2,.27.79-2.51.76-5.38-.93-7.48-.9-1.11-2.53.91-1.2,1.55a2.42,2.42,0,0,0,.59.2.41.41,0,0,0,.49-.28Z"/><path class="cls-7" d="M135.21,154c.21-.57,1-.93,1.52-1.26a17,17,0,0,1,1.54-.93c1-.54,2.18-.77,3-1.56a.78.78,0,0,0-.34-1.29c-1.49-.33-3.17.69-4.34,1.55s-2.49,1.92-2.4,3.35a.53.53,0,0,0,1,.14Z"/><path class="cls-7" d="M133.6,158.89c2,.6,6.14.74,7.4-1.26.73-1.17.81-2.93,1.09-4.26s.89-3.13.34-4.51a1,1,0,0,0-1.65-.44c-1.45,1.46-1.48,4.19-1.84,6.12a4.58,4.58,0,0,1-.28,1.48c-.23.31-.67.29-1.1.36a34.9,34.9,0,0,0-4,.54,1,1,0,0,0,0,2Z"/><path class="cls-7" d="M137.34,155a3.49,3.49,0,0,0,.64-2.41,7.48,7.48,0,0,0,0-2.75,1,1,0,0,0-1.58-.41,4.33,4.33,0,0,0-.92,3c0,1,.07,2.14,1,2.69a.74.74,0,0,0,.89-.12Z"/><path class="cls-7" d="M122.15,126.73c-1.7,3.25-.87,7.27-.59,10.83.31,4.06.46,8.68,2,12.47a1.1,1.1,0,0,0,2.15-.29c.18-4.33-1-8.71-1.26-13.05-.24-3.36.33-6.92-1.23-10a.63.63,0,0,0-1.07,0Z"/><path class="cls-7" d="M123.75,127.49c25.7,0,51.43.92,77.08-1.08,1.91-.14,1.93-3.15,0-3-25.65,2-51.38,1.11-77.08,1.08a1.5,1.5,0,0,0,0,3Z"/><path class="cls-7" d="M163.5,148.29c6.62,1.11,14-.33,20.68-.71,6.89-.4,14.15.15,20.93-1,1.69-.29,1.72-3.16,0-3.43-6.75-1.06-14.13-.13-20.93.27-6.62.38-14.47.24-20.68,2.74-.9.35-1.22,1.94,0,2.15Z"/><path class="cls-7" d="M200.2,125.85c1.19.89,3.8.58,5.15.24a1.53,1.53,0,0,0-.4-3c-.81,0-1.63.15-2.44.23a4.66,4.66,0,0,0-2.31.58,1.14,1.14,0,0,0,0,1.94Z"/><path class="cls-7" d="M204,125c-1.16,3.16-.39,6.89-.26,10.2s0,7,.72,10.39c.3,1.35,2.6,1.45,2.83,0,.59-3.67.08-7.47-.18-11.16-.23-3.17-.06-6.79-1.65-9.62A.81.81,0,0,0,204,125Z"/><path class="cls-7" d="M205.43,125.92l.14-.21-1.59-.92a15.88,15.88,0,0,0,0,3.71c.11,1.05.19,1.95,1.11,2.58a.74.74,0,0,0,1-.26c.56-.88.27-1.78.17-2.75a27.59,27.59,0,0,1-.11-3.28,1.07,1.07,0,0,0-1.81-.74,1.73,1.73,0,0,0-.61,1.4c0,.87,1.35,1.35,1.75.47Z"/><path class="cls-7" d="M205.74,126.29a1.56,1.56,0,0,1,.26-.82l-1.62-.69c-.38,1.34-.06,2.89,0,4.27s-.19,2.69.45,3.92a.89.89,0,0,0,1.51,0c.83-1.21.65-2.8.56-4.21a9.19,9.19,0,0,0-.86-4.19c-.51-.81-2-.3-1.62.68a4.15,4.15,0,0,0,.74,1.21.34.34,0,0,0,.62-.17Z"/><path class="cls-7" d="M148.66,133.41c0,2,.09,4,.24,6,.13,1.64.06,3.35.84,4.82a.87.87,0,0,0,1.57-.21c.43-1.61,0-3.36-.18-5-.18-1.86-.31-3.73-.52-5.59a1,1,0,0,0-2,0Z"/><path class="cls-7" d="M149.85,133.81c2.6.63,5.36.36,8,.31s5.39.24,7.93-.28a1,1,0,0,0,.22-1.72c-2.31-1.25-5-.71-7.55-.56-2.84.16-5.89.08-8.61,1a.67.67,0,0,0,0,1.29Z"/><path class="cls-7" d="M164.05,132.76c.11,1.75.42,3.48.59,5.22.14,1.53.14,3.09.42,4.6a1.12,1.12,0,0,0,.79.79l.39.07a.8.8,0,0,0,1-.76,19.81,19.81,0,0,0-.41-4.84,35.28,35.28,0,0,0-.95-5.32c-.29-1-1.88-.83-1.82.24Z"/><path class="cls-7" d="M151.2,144.12a78.29,78.29,0,0,0,8.53-.17c2.29-.19,4.86-.19,6.88-1.36a.89.89,0,0,0-.21-1.6c-2.73-.6-5.67.31-8.44.57-2.34.21-5.09-.08-7.12,1.22a.72.72,0,0,0,.36,1.34Z"/><path class="cls-7" d="M166,134.08a5,5,0,0,1,1.85.12c.67.08.76-1,.15-1.15s-2.48-.36-2.49.66a.39.39,0,0,0,.49.37Z"/><path class="cls-7" d="M166.43,137.41a1.62,1.62,0,0,0,1,.15c.37,0,.75.05,1-.27a.42.42,0,0,0,.06-.48,1.5,1.5,0,0,0-2.17.23.28.28,0,0,0,.09.37Z"/><path class="cls-7" d="M167.58,133.45c-.34.54-.12,1.34,0,1.94s0,1.48.65,1.83a.43.43,0,0,0,.57-.15c.39-.51,0-1.28-.08-1.86s-.14-1.4-.6-1.83a.32.32,0,0,0-.5.07Z"/><path class="cls-7" d="M166.4,138.83a2.15,2.15,0,0,0,1.1.11,5.59,5.59,0,0,0,1.29-.07.54.54,0,0,0,0-1,2.59,2.59,0,0,0-2.51.57.31.31,0,0,0,.12.43Z"/><path class="cls-7" d="M168.29,138.14a12,12,0,0,0,.16,2.23,3,3,0,0,0,.48,1.7c.23.28.63.08.73-.2a3.15,3.15,0,0,0-.14-1.79,11.92,11.92,0,0,0-.54-2,.35.35,0,0,0-.69.09Z"/><path class="cls-7" d="M166.69,142.31c.25.32.67.28,1,.28s.89.06,1.33,0c.69,0,.93-1.11.17-1.27a5,5,0,0,0-1.5,0c-.42.05-.91.08-1.11.5a.46.46,0,0,0,.07.5Z"/><path class="cls-7" d="M168.3,134.27a.7.7,0,0,0-.13-.29.18.18,0,0,0-.3,0,.35.35,0,0,0-.05.42c.11.29.57.19.48-.13Z"/><path class="cls-7" d="M168,134.14c2,.64,4.08.33,6.19.17,1.93-.15,3.94.17,5.82-.32.74-.2.42-1.27-.32-1.14-1.93.34-4,.1-5.94.29a48.35,48.35,0,0,1-5.64.22.4.4,0,0,0-.11.78Z"/><path class="cls-7" d="M168.64,135.12l0,0a.47.47,0,0,0-.28.68c.66,1.12,3.71.5,4.7.35a33,33,0,0,1,4.54-.23,8,8,0,0,0,3.19-.71c.49-.21.2-.92-.26-.94-1,0-1.91.29-2.93.32-.86,0-1.68-.19-2.55-.11s-2,.39-2.95.51l-3,.29a.42.42,0,0,0-.45-.18Z"/><path class="cls-7" d="M179.49,133.59a.68.68,0,0,0,.49.22c.05,0,.24,0,.28,0s0,.37-.13.42a.54.54,0,0,0,.54.93,1.36,1.36,0,0,0,.4-2c-.4-.45-1.4-.55-1.65.09a.29.29,0,0,0,.07.28Z"/><path class="cls-7" d="M179.4,133.26a1.27,1.27,0,0,1,1.64-.82c.58.19.69.86.75,1.39s.08,1.15-.56,1.41-.94-.29-1.39-.62a.49.49,0,0,0-.72.29c-.36,1.37,1.43,1.94,2.46,1.59,1.43-.49,1.66-1.76,1.44-3.11a2.35,2.35,0,0,0-2.36-2.17c-1.09,0-2.51.88-1.92,2.12.15.32.56.17.66-.08Z"/><path class="cls-7" d="M169.06,139.75c2.65-.15,5.27-.73,7.93-.94,2.19-.18,4.67.17,6.81-.34,3.39-.81,2.27-5.4,1.76-7.9-.16-.77-1.33-.44-1.18.33.29,1.56,1.18,5.17-.67,6.17-1.11.6-3.65.16-4.84.22a33.67,33.67,0,0,0-9.93,1.61c-.42.16-.41.88.12.85Z"/><path class="cls-7" d="M169.21,141.73c2.83.22,5.82-.47,8.63-.82,2.27-.28,4.76,0,6.92-.79,4.16-1.46,3.4-6.05,2.54-9.49-.11-.45-.71-.3-.76.11-.23,1.91.69,4,.08,5.84-1,3.08-4.5,2.57-7,2.79-3.39.29-7.32.57-10.52,1.71a.33.33,0,0,0,.09.65Z"/><path class="cls-7" d="M185.28,131.27c.11-.74-.06-1.61.85-2.05a4.71,4.71,0,0,1,2.05-.07c1.33.07,2.66.13,4,.14a.62.62,0,0,0,0-1.23c-2.07-.09-9.21-.94-7.37,3.27a.27.27,0,0,0,.48-.06Z"/><path class="cls-7" d="M187,132c.1-.22.07-.69.19-.85.36-.5,1.5-.14,2,0a5.66,5.66,0,0,0,3,0c.68-.25.39-1.34-.3-1.1-1.46.51-2.87-.23-4.34,0-1.19.22-1,1-.86,1.93a.18.18,0,0,0,.32,0Z"/><path class="cls-7" d="M191.81,129c.14.45.13,1,.31,1.38a.46.46,0,0,0,.89,0,2.48,2.48,0,0,0-.24-1.64c-.23-.57-1.15-.37-1,.26Z"/><path class="cls-7" d="M191.93,127.67a3.22,3.22,0,0,0,0,1.57,13.71,13.71,0,0,0,.32,1.81c.15.52,1,.44,1-.13a16.54,16.54,0,0,0-.24-1.72,3.76,3.76,0,0,0-.43-1.62.36.36,0,0,0-.66.09Z"/><path class="cls-7" d="M192.8,131.83a3.12,3.12,0,0,0,1.77,0,.46.46,0,0,0,.09-.72c-.54-.5-1.45-.26-2,0-.38.19-.15.69.19.72Z"/><path class="cls-7" d="M192.24,127.84c.18.27.42.27.72.32s.65.17,1,.2c.48,0,.68-.61.38-.92a1.53,1.53,0,0,0-1.43-.3c-.26,0-.91.31-.65.7Z"/><path class="cls-7" d="M193.42,127.94a12.07,12.07,0,0,0,.21,2.16c.06.52,0,1.15.41,1.52a.51.51,0,0,0,.85-.35,8.15,8.15,0,0,0-.21-1.7,5.73,5.73,0,0,0-.55-1.82.38.38,0,0,0-.71.19Z"/><path class="cls-7" d="M183.9,130.55c-.12.68-.29,2.16.47,2.53a.46.46,0,0,0,.62-.16c.25-.37.09-.71,0-1.11s-.15-.84-.21-1.26a.46.46,0,0,0-.88,0Z"/><path class="cls-7" d="M184.45,133.43c.42.11.84.13,1.27.21a9.74,9.74,0,0,1,1.07.39c.62.19,1.38.13,1.58-.58a.47.47,0,0,0-.31-.55c-.27-.08-.54,0-.81-.1s-.57-.23-.87-.31a3.72,3.72,0,0,0-1.93.09.44.44,0,0,0,0,.85Z"/><path class="cls-7" d="M184.52,131a7.52,7.52,0,0,0,1.59,1.1,2.94,2.94,0,0,0,1.87.35.57.57,0,0,0,.24-.94c-.47-.43-1.15-.41-1.73-.64a4.76,4.76,0,0,0-1.68-.56c-.33,0-.57.47-.29.69Z"/><path class="cls-7" d="M187.42,132a3.75,3.75,0,0,0,.17,1.33c.16.76,1.4.36,1-.43a1.77,1.77,0,0,0-1-1.11,4,4,0,0,0-.84-.1c-.27,0-.78,0-1-.18l-.21.8c.2-.08.76.41.89.51l.38-.91a10.47,10.47,0,0,0-1.25-.34.52.52,0,0,0-.58.75c.38.6,1,.44,1.57.68l-.25-.31,0,.1,0-.41-.08.08c-.47.4.12,1.06.62.81a.7.7,0,0,0,.28-1.1,1.1,1.1,0,0,0-.58-.23,3.75,3.75,0,0,1-.74-.14l-.58.76c.43.08.84.19,1.26.31.57.18.82-.6.38-.91s-1.13-.79-1.76-.53a.48.48,0,0,0-.09.75,1.45,1.45,0,0,0,1.29.32,7.52,7.52,0,0,1,.82-.05c.44,0,.38.24.32.58h1.09a2,2,0,0,0-.66-1.27.41.41,0,0,0-.6.24Z"/><path class="cls-7" d="M176.71,136.76a7.09,7.09,0,0,0,.21,2.46c.08.69,0,1.52.5,2a.41.41,0,0,0,.64-.08c.45-.61.14-1.57,0-2.27a4.78,4.78,0,0,0-.7-2.32.4.4,0,0,0-.67.18Z"/><path class="cls-7" d="M177.36,137a3,3,0,0,0,1.25.32l-.52-.91c-.4.73,0,1.41,0,2.18a19,19,0,0,0,.26,2.72l.59-.77-1.15.07.16,1.22c.83-.29,1-1.07.93-1.87,0-.53-.15-1-.18-1.58a9.08,9.08,0,0,0-.09-1.73.62.62,0,0,0-1.21.16c0,.87.1,1.73.19,2.59l1-.42-.17-.19a.44.44,0,0,0-.73.19l-.09.26c-.29.84,1.25,1,1.16.16s-.13-1.72-.14-2.59l-1.21.16a16.79,16.79,0,0,1,.09,1.88c0,.21.3,1.7.11,1.78a.62.62,0,0,0,.33,1.2,5.5,5.5,0,0,1,1-.07.62.62,0,0,0,.59-.77c-.11-.75-.09-1.49-.15-2.24a7,7,0,0,0-.1-.8c0-.22-.27-.72-.18-.93a.62.62,0,0,0-.52-.91,2.48,2.48,0,0,0-1.15.15.41.41,0,0,0-.1.74Z"/><path class="cls-7" d="M194.21,128.09a18.28,18.28,0,0,0,2.86.23,9.65,9.65,0,0,0,2.84,0,.59.59,0,0,0,0-1.12,10,10,0,0,0-2.84-.17,18.23,18.23,0,0,0-2.86.09c-.51.07-.48.9,0,1Z"/><path class="cls-7" d="M194.1,130.52c-.4.33-.23,1.07-.19,1.52s0,1.22.47,1.53a.41.41,0,0,0,.49-.07c.42-.43.16-1.06.06-1.6s-.11-1.2-.58-1.41a.23.23,0,0,0-.25,0Z"/><path class="cls-7" d="M190,133.71a10,10,0,0,0,2.73.12c.79,0,1.56.19,2.21-.31a.42.42,0,0,0,0-.59c-.61-.54-1.44-.38-2.21-.38a7.37,7.37,0,0,0-2.73.27.47.47,0,0,0,0,.89Z"/><path class="cls-7" d="M189.54,133.45a8.14,8.14,0,0,0,.13,3.33c.2,1.33.12,2.72.38,4a.45.45,0,0,0,.82.1,5,5,0,0,0,.18-3.17,41.25,41.25,0,0,0-.77-4.28.39.39,0,0,0-.74,0Z"/><path class="cls-7" d="M190.65,141.82c1.72,0,3.4-.46,5.13-.52s3.73,0,5.57-.22a.64.64,0,0,0,0-1.27,28.92,28.92,0,0,0-10.84.95.54.54,0,0,0,.14,1.06Z"/><path class="cls-7" d="M201.73,140.4c.75-2,.35-4.27.12-6.36a34,34,0,0,0-1-6.68.5.5,0,0,0-1,.13,41.29,41.29,0,0,0,.76,7,55.5,55.5,0,0,0,.64,5.92c.06.26.4.22.49,0Z"/><path class="cls-7" d="M154.25,135.35a11.74,11.74,0,0,0-.64,1.65,2.63,2.63,0,0,0-.34,1.63.37.37,0,0,0,.61.16,4.15,4.15,0,0,0,.55-1.56,5,5,0,0,0,.4-1.72.31.31,0,0,0-.58-.16Z"/><path class="cls-7" d="M153.27,138.78c.21.51.85.5,1.33.46s1.13-.1,1.33-.63a.28.28,0,0,0-.13-.32c-.43-.32-1.15,0-1.64,0-.22,0-1.08,0-.89.51Z"/><path class="cls-7" d="M154.5,135.67a4.32,4.32,0,0,0,2.37.17,3.41,3.41,0,0,0,2.1-.61.26.26,0,0,0-.12-.44,4.73,4.73,0,0,0-2.3.07,5.06,5.06,0,0,0-2.05.39.25.25,0,0,0,0,.42Z"/><path class="cls-7" d="M158.43,134.8c-.61.2-.94.82-1.32,1.3a16.92,16.92,0,0,0-1.49,1.91c-.21.4.25,1,.68.67a6.82,6.82,0,0,0,1.39-1.63,11.23,11.23,0,0,0,1-1.85c.09-.2-.06-.48-.3-.4Z"/><path class="cls-7" d="M153.81,139.25a10.79,10.79,0,0,0,2.2-.12c.6-.09,1.36-.15,1.68-.72a.35.35,0,0,0-.13-.47c-.55-.29-1.13,0-1.7.15s-1.42.36-2.14.52c-.37.08-.27.62.09.64Z"/><path class="cls-7" d="M154.29,138.23a17.17,17.17,0,0,0,2.38.12,2.5,2.5,0,0,0,1.76-.44.4.4,0,0,0-.08-.63,3.59,3.59,0,0,0-2,0c-.73.06-1.46.13-2.19.23-.46.06-.28.71.11.76Z"/><path class="cls-7" d="M155.26,138.43a4.23,4.23,0,0,0-.43,1.7c-.06.34-.16.94.34,1s.61-.66.67-1a2.45,2.45,0,0,0-.05-1.69.31.31,0,0,0-.53,0Z"/><path class="cls-7" d="M155.3,141.43a7.13,7.13,0,0,0,1.78-1.81c.42-.52,1.1-1.13,1-1.84a.3.3,0,0,0-.3-.22c-.71.09-1.09.89-1.49,1.43a8.54,8.54,0,0,0-1.37,2.12.29.29,0,0,0,.41.32Z"/><path class="cls-7" d="M156.28,139.4c.17-.29.34-.57.54-.85l-.54-.31a2,2,0,0,1-.46.68c-.47.34-.06,1.1.46.78.33-.2.89-.66.89-1.08l-.52-.14a1.14,1.14,0,0,1-.54.52l.33.56c.35-.28.68-.58,1-.88s.76-.58.93-1c.1-.23-.07-.61-.38-.49a2.76,2.76,0,0,0-.95.79c-.34.34-.69.68-1,1.05s.27.79.5.39a2.1,2.1,0,0,1,.49-.58.29.29,0,0,0,0-.48l-.06,0a.46.46,0,0,0-.41,0c-.26.17-.47.43-.75.58l.68.39a1,1,0,0,1,.27-.69.31.31,0,1,0-.49-.38,3.46,3.46,0,0,0-.44,1,.24.24,0,0,0,.44.18Z"/><path class="cls-7" d="M156.58,139.6a8.17,8.17,0,0,0,1.25-.94c.33-.29.69-.54.59-1a.31.31,0,0,0-.2-.2c-.47-.11-.74.26-1,.58a8.74,8.74,0,0,0-1,1.22.26.26,0,0,0,.36.36Z"/><path class="cls-7" d="M154.31,138l-.23,0v.66a7.72,7.72,0,0,1,1.55-.48l-.29-.69a7.06,7.06,0,0,0-.68.39c0-.1.27-.51.32-.59a8.28,8.28,0,0,1,1-1.35c.28-.27-.09-.79-.43-.55a6,6,0,0,0-1,1,.42.42,0,0,0,.6.6,1.53,1.53,0,0,0,.49-.78.46.46,0,0,0-.32-.55c-.73-.12-1.1.88-.86,1.47a.49.49,0,0,0,.45.34c.58.08,1.18-.82,1.55-1.16l-.55-.56c-.34.43-.63.89-1,1.32s.23,1.17.71.72a15.85,15.85,0,0,0,1.32-1.4l-.67-.66c-.33.42-.66.84-1,1.24a.56.56,0,0,0,.79.79,4,4,0,0,0,.65-.65c.16-.19.3-.53.5-.66.46-.28,0-1-.41-.71a3,3,0,0,0-.94,1.08c-.22.45.26,1.1.75.75a2.18,2.18,0,0,0,.87-1.23.31.31,0,0,0-.45-.34,4.54,4.54,0,0,0-1.09.71l.93.53a4.14,4.14,0,0,1,.49-.93l-.71-.42c-.18.39-.92.74-1.27,1l.68.88a5.86,5.86,0,0,0,1-1.58.47.47,0,0,0-.79-.45A11.47,11.47,0,0,1,154.9,137l.79.61a3.83,3.83,0,0,0,.83-1.55.39.39,0,0,0-.65-.38l-.66.52c-.08.05-.4.27-.34.27l.4.23a.58.58,0,0,1,.13-.37l-.43.11h.08l-.31-.55a.61.61,0,0,1-.23.42l.6.6c.27-.35.59-.67.87-1l-.56-.43a14.44,14.44,0,0,1-1,1.47,1.76,1.76,0,0,0-.4,1c.09.84,1.22.41,1.68.18s.09-.74-.29-.69a5.09,5.09,0,0,0-1.61.58c-.37.18-.1.7.26.63l.23,0a.3.3,0,0,0,0-.58Z"/><path class="cls-7" d="M159.82,135.58c.54.33,1.31.11,1.91.07s1.29.08,1.73-.31a.25.25,0,0,0,.07-.27c-.26-.7-1.07-.58-1.68-.51s-1.63.05-2.08.57a.29.29,0,0,0,0,.45Z"/><path class="cls-7" d="M160.29,136.89a8.12,8.12,0,0,0,1.78.11,3,3,0,0,0,1.6-.15.26.26,0,0,0,.05-.42,2.23,2.23,0,0,0-1.65-.42,3.89,3.89,0,0,0-1.85.34.3.3,0,0,0,.07.54Z"/><path class="cls-7" d="M160.47,138.26c.56.05,1.12.06,1.68.07a2.42,2.42,0,0,0,1.41-.19.34.34,0,0,0,.07-.52c-.77-.69-2.36-.36-3.26-.08a.37.37,0,0,0,.1.72Z"/><path class="cls-7" d="M160.57,139.67a7.22,7.22,0,0,0,1.8,0,2.34,2.34,0,0,0,1.45-.35c.14-.11.07-.33,0-.42a2.39,2.39,0,0,0-1.52-.16,5.93,5.93,0,0,0-1.68.3c-.25.11-.33.53,0,.6Z"/><path class="cls-7" d="M191.24,135.14a3.22,3.22,0,0,0,1.8.22,3.68,3.68,0,0,0,1.83-.24.32.32,0,0,0,0-.55,3.53,3.53,0,0,0-2-.22,2.86,2.86,0,0,0-1.73.38.26.26,0,0,0,.06.41Z"/><path class="cls-7" d="M191.39,136.62a8.63,8.63,0,0,0,2,.2,2.33,2.33,0,0,0,1.63-.27.29.29,0,0,0,0-.42,2.33,2.33,0,0,0-1.63-.3,7.67,7.67,0,0,0-2,.16.33.33,0,0,0,0,.63Z"/><path class="cls-7" d="M191.8,138.32a10.63,10.63,0,0,1,1.87.06,2.46,2.46,0,0,0,1.81-.2.34.34,0,0,0,0-.58,4.58,4.58,0,0,0-2.15-.35,2.2,2.2,0,0,0-1.78.46.36.36,0,0,0,.25.61Z"/><path class="cls-7" d="M192.11,139.88c.56,0,1.13,0,1.69,0a2.8,2.8,0,0,0,1.41-.12.34.34,0,0,0,.07-.54c-.83-.66-2.32-.3-3.27-.08a.38.38,0,0,0,.1.75Z"/><path class="cls-7" d="M195.17,129.05a12.86,12.86,0,0,0,.24,2.14,5.15,5.15,0,0,0,.36,1.75.35.35,0,0,0,.63-.08,4.77,4.77,0,0,0-.06-1.88,10,10,0,0,0-.37-2,.41.41,0,0,0-.8.11Z"/><path class="cls-7" d="M195.52,129.45a3.91,3.91,0,0,0,1.64.21,3.24,3.24,0,0,0,1.67-.08.35.35,0,0,0,.07-.54,2.44,2.44,0,0,0-1.74-.42,2.69,2.69,0,0,0-1.7.37.29.29,0,0,0,.06.46Z"/><path class="cls-7" d="M198.7,129a4.78,4.78,0,0,0,0,1.92,10.4,10.4,0,0,0,.25,1.94.34.34,0,0,0,.66-.09,10.89,10.89,0,0,0-.13-2.13,4.39,4.39,0,0,0-.31-1.7.28.28,0,0,0-.51.06Z"/><path class="cls-7" d="M196.24,133.27a22.35,22.35,0,0,0,2.83.14c.65-.13.51-1.25-.15-1.17-1,.13-1.92-.14-2.87.3a.39.39,0,0,0,.19.73Z"/><path class="cls-7" d="M198.45,136c-.15-.15-.49-.23-.59-.4s.17-.53.4-.45.3.59,0,.64-.47-.23-.64-.35-.56.07-.59.34c-.09,1,1.31,1.34,1.94.73a1.68,1.68,0,0,0-.29-2.28,1.42,1.42,0,0,0-2,1c-.15.86,1,2,1.74,1.16a.3.3,0,0,0,0-.42Z"/><path class="cls-7" d="M198.12,138.81c-.07,0-.16-.16-.21-.22s-.17-.26,0-.48.45-.52.66-.27a.45.45,0,0,1-.07.56c-.15.1-.12.09-.27,0s-.32-.49-.54-.67a.41.41,0,0,0-.63.08c-.56.84.7,2,1.56,1.71a1.59,1.59,0,0,0,.57-2.32c-.62-.81-1.74-.34-2.2.38a1.23,1.23,0,0,0,0,1.46,1.05,1.05,0,0,0,1.17.46c.29-.12.37-.6,0-.68Z"/><path class="cls-7" d="M205.27,126.23c1-1,.9-2.55,1-3.85a1.94,1.94,0,0,0-.45-1.79,1.45,1.45,0,0,0-1.72-.19,1.22,1.22,0,0,0,.61,2.25h.08l-1.18-1.56c.08-.34-.07.11-.1.2a2.72,2.72,0,0,0,0,.9l.12,1.56a3.34,3.34,0,0,0,.88,2.47.56.56,0,0,0,.78,0Z"/><path class="cls-7" d="M204.93,121.67a22.62,22.62,0,0,1,5,.07c1.64.07,3.17.39,4.51-.7a1.24,1.24,0,0,0,0-1.72c-1.36-1.57-4.29-1.15-6.18-1.07-1.53.07-4-.08-4.78,1.52a1.31,1.31,0,0,0,1.45,1.9Z"/><path class="cls-7" d="M205.41,144c-1.31,1.37-1,3.53-.49,5.2s3,.88,2.49-.69c-.48-1.38-.25-2.81-.71-4.17a.78.78,0,0,0-1.29-.34Z"/><path class="cls-7" d="M205.16,151c2.42,1.92,6.91,1.31,9.42-.22a1.73,1.73,0,0,0-1.33-3.15,28.71,28.71,0,0,1-3.87.94,17.91,17.91,0,0,0-3.67.34c-.8.27-1.34,1.47-.55,2.09Z"/><path class="cls-7" d="M212.47,120.18c-.14,4.94.86,9.93,1.23,14.86.33,4.46,0,9.09.91,13.47a1.4,1.4,0,0,0,2.68,0c.83-4.69.05-9.7-.45-14.4s-.93-9.71-2.67-14.16a.87.87,0,0,0-1.7.23Z"/><path class="cls-7" d="M145.19,122.77c1.85-1.45,1.12-4.44.87-6.52-.16-1.36-.39-2.72-.49-4.09s.14-2.9-.42-4.34a1.05,1.05,0,0,0-1.89-.24c-1.35,2-.64,4.73-.3,7,.24,1.56.53,3.13.62,4.72.08,1.42-.18,2.2.67,3.34a.62.62,0,0,0,.94.12Z"/><path class="cls-7" d="M144.58,108.49a35.83,35.83,0,0,0,6.3-.07,1.62,1.62,0,0,0,0-3.23,19.54,19.54,0,0,0-6.68.52,1.42,1.42,0,0,0,.38,2.78Z"/><path class="cls-7" d="M150.37,107.54l-.44.24a1.39,1.39,0,0,0-.67,1.18,54.24,54.24,0,0,0,.51,7.32c.25,2,.3,4.09,1.45,5.75.51.73,1.89.77,2.09-.27a11,11,0,0,0-.31-4.33c-.37-2.11-.6-4.23-.8-6.37,0-.43-.17-4.45-1.83-3.52Z"/><path class="cls-7" d="M145.77,123.91a22.21,22.21,0,0,0,8.3-1,1.73,1.73,0,0,0,1.25-1.63,1.84,1.84,0,0,0-.23-.86,1.76,1.76,0,0,0-1.92-.78c-2.6.4-5.2.89-7.79,1.32-1.76.29-1.18,2.82.39,2.94Z"/><path class="cls-7" d="M150.79,108.63c7.1,1.49,14.22,1.05,21.39,1.48a1.08,1.08,0,0,0,1-.8l.11-.43a1.7,1.7,0,0,0-.75-1.85c-2.85-2.19-8.38-.31-11.82-.66s-7.33-1.35-10.31,1a.78.78,0,0,0,.34,1.29Z"/><path class="cls-7" d="M152,122.65c2.77,1.89,9.14.09,12.2-.32s9.55.94,11-2.43a1.12,1.12,0,0,0-.66-1.62c-2.68-1.06-6.8-.32-9.59.06-4,.56-8.64.7-12.5,1.8a1.42,1.42,0,0,0-.62,2.35.53.53,0,0,0,.2.16Z"/><path class="cls-7" d="M170.77,107.9c-1.13,2-.73,4.3-.41,6.46.28,1.9,0,5.18,1.62,6.5a.94.94,0,0,0,1.08.14c1.84-1.1,1.31-3.37,1-5.17-.49-2.57-.8-5.09-1.21-7.66-.15-1-1.61-1-2-.27Z"/><path class="cls-7" d="M171,109.16c1.51.07,3.2-.45,4.65.12l-1-1c.86,2.41.76,5.51,1,8,.06.66.11,1.32.16,2,.24,1.13.16,1.3-.22.51a22.78,22.78,0,0,0-2.6.06c-1.37.28-1,2,0,2.46,1.56.64,4.57,1.12,5.58-.68a5,5,0,0,0,.16-2.85c-.13-1.81-.3-3.62-.5-5.43s.12-5-1.77-5.9-4.64-.1-6.06,1.18a.9.9,0,0,0,.63,1.52Z"/><path class="cls-7" d="M156.1,125.62a5.81,5.81,0,0,1,.54-2.56c.29-.71.39-1.87-.67-1.92s-1.54,1.07-1.78,1.89a5,5,0,0,0-.19,1.44,4.44,4.44,0,0,0,.35,1.39c.28.91,1.85.8,1.75-.24Z"/><path class="cls-7" d="M159.51,126.35a46,46,0,0,0,2-4.46c.52-1.44-1.72-2.34-2.46-1a14.23,14.23,0,0,0-1.5,4.69c-.17,1.07,1.36,2,1.92.8Z"/><path class="cls-7" d="M163.55,120.93c.18,1,1.34,1.9,2,2.71s1.16,2.27,2.32,2.47a1.24,1.24,0,0,0,1.37-.55c.64-1.45-.47-2.75-1.41-3.8-.76-.85-2.09-2.19-3.33-2a1,1,0,0,0-.91,1.2Z"/><path class="cls-7" d="M172.9,126.06a27.24,27.24,0,0,0,0-4c-.07-1.08,0-2.37-.88-3.11a.86.86,0,0,0-1.17,0c-.87.92-.62,2.18-.54,3.36a29.15,29.15,0,0,0,.56,4.06c.25,1.19,1.93.82,2-.27Z"/></svg>