<svg id="Layer_1" data-name="Layer 1" xmlns="http://www.w3.org/2000/svg" viewBox="0 0 500 500"><defs><style>.cls-1{fill:#b2b2b2;}.cls-2{fill:#0f090b;}</style></defs><title>Artboard 1</title><path class="cls-1" d="M38.71,63.41c7.74,1.73,17-2.28,23.86-5.74l-2-3.35a73.63,73.63,0,0,1-21.44,8.55l1.69,4c6.75-3.22,13.57-6.11,20.55-8.77l-1.53-3.65c-5.19,2.33-10.82,3.75-16.16,5.7-2.75,1-1.66,5.32,1.22,4.45,4.75-1.44,10-3.17,14-6.07,1.71-1.22.75-4.21-1.51-3.57-4.67,1.33-9.16,3.52-13.73,5.19l1.77,4.22A72.63,72.63,0,0,1,61.41,58.1c2.51-.6,1.45-4.4-1.06-3.85-7.66,1.68-14.73,5.38-21.7,8.84-2.51,1.25-.29,5.11,2.21,3.78,7-3.72,14.7-5.58,21.71-9.2,2.21-1.14.25-4.52-2-3.35-6.33,3.37-14.23,6.47-21.49,6.09a1.53,1.53,0,0,0-.41,3Z"/><path class="cls-1" d="M56,61.22c7.31-2.56,14.64-5.06,21.88-7.83,2.52-1,1.52-5-1.14-4.13-5.47,1.81-10.9,3.61-16.26,5.72-2.81,1.1-1.65,5.66,1.27,4.6,5.49-2,11-4,16.42-6.15a2.08,2.08,0,0,0-1.1-4c-4.07.79-8.15,1.72-12.26,2.24L67,55.42c.66-1.3,4.08-2.4,5.27-3.05a52.94,52.94,0,0,0,6.15-3.76c1.39-1,1.16-3.8-1-3.66a7,7,0,0,0-5.4,2.5c-.95,1.07-.42,3.34,1.3,3.16,1.91-.2,2.94-.63,3.59-2.48.51-1.46-1.52-2.51-2.53-1.48l-.56.32.81,3.09,2.79-1.18L76.87,45a62.76,62.76,0,0,0-8.55,3.81c-2.12,1.07-4.55,1.87-5.67,4.07-.94,1.85.63,4.34,2.82,3.67,4.18-1.27,8.46-2.16,12.7-3.14l-1.1-4C71.5,51.18,66,53.07,60.48,55l1.84,4.36a118.46,118.46,0,0,1,15.56-6l-1.14-4.13c-7.33,2.53-14.56,5.31-21.82,8-2.41.91-1.41,4.79,1.08,3.92Z"/><path class="cls-1" d="M45.47,44.08a12.08,12.08,0,0,1-2.72-1.62l-1.12,4.13c6.78-.22,13.69-.62,20.45-1.14l-.61-4.51q-9.4,1.71-18.84,3.2c-2.36.37-1.83,4.52.57,4.21C48.12,47.71,53,47.17,58,46.83q3.71-.24,7.42-.37c1.47-.05,5.8-.92,6.93.3l1.47-3.54a33.14,33.14,0,0,1-6.53.15l.53,3.89a15.5,15.5,0,0,1,8-.71c1.74.29,3.28-1.72,1.83-3.14a7.23,7.23,0,0,0-3.65-2.15A1.48,1.48,0,0,0,72.8,44l1,.61c1.3.82,2.63-1,1.61-2.09l-.79-.83L72.5,43.72a25.59,25.59,0,0,1,2.42,2.35l1.84-3.15a16.7,16.7,0,0,0-10,.52,2,2,0,0,0,.52,3.9,64.65,64.65,0,0,0,6.53,0c1.42,0,2.77-1.77,1.79-3.11-2.82-3.87-8.82-2.39-13-2.17-6.69.37-13.36,1.07-20,2.06l1.14,4.13a155.43,155.43,0,0,1,18.31-2.82,2.3,2.3,0,0,0,0-4.6,89.84,89.84,0,0,0-21,1.38c-2.78.52-1.6,5.11,1.17,4.28a11.31,11.31,0,0,1,3-.69,1,1,0,0,0,.23-1.74Z"/><path class="cls-1" d="M35.9,43,35.69,42,31.5,43.11c.85,2.3,1.75,4.6,2.54,6.92,1,3.09.52,5.47.26,8.62-.33,4,.54,7.24,3.66,9.94,1.33,1.16,3.82.47,3.72-1.54-.18-3.73.71-10.11-2.26-12.95-1.23-1.18-2-1.24-2.73-2.8-1.28-2.84-1.09-6.73,2.68-7L37.13,42c.07,2.2-1.26,4-2,5.89A20,20,0,0,0,33.88,54,20.4,20.4,0,0,0,34,59.49c.4,1.74,3,5.47,1.71,6.76-1.73,1.69.95,4.37,2.65,2.65,2.93-3,2.5-5.64.63-9-3.5-6.28,2.76-11.76,2.63-17.89a2.26,2.26,0,0,0-2.24-2.24c-5.73.41-9,3.86-7.7,9.83.42,1.9.66,4.47,2,5.95,1.85,2,2.39.51,3.19,4.16a41.72,41.72,0,0,1,.41,7.34L41,65.5c-4.07-3.88-1.34-8.29-1.87-13-.4-3.61-2.23-7.17-3.48-10.55a2.16,2.16,0,1,0-4,1.68l.47.95c1.07,2.17,4.13.57,3.71-1.57Z"/><path class="cls-1" d="M78.2,54.68c5.22,1,10.7.42,16,.28s10.93.29,16-1.19a1.84,1.84,0,0,0,0-3.52c-5.13-1.29-10.77-.62-16-.44s-10.86,0-16,1.43c-1.61.44-1.79,3.11,0,3.44Z"/><path class="cls-1" d="M80.19,52.28c5.15.35,10.49-.76,15.68-.89s10.57.73,15.74.18a2.09,2.09,0,0,0,.55-4.08c-5.09-1.7-11-1.44-16.29-1.27s-11.32.32-16.18,2.35a1.9,1.9,0,0,0,.5,3.71Z"/><path class="cls-1" d="M79.23,48.55c2,.46,4.59-.31,6.88-.44,2-.11,4.11-.07,6.17-.07a53.1,53.1,0,0,0,11.93-1.14c2.15-.49,1.64-3.79-.51-3.79-8.63,0-17.33-.87-25.95-1.36l.51,3.75a54.44,54.44,0,0,1,22.79,1.12l1-3.74a110,110,0,0,0-21-1.77c-2.33,0-2.3,3.47,0,3.61,12.83.75,25.74-2.35,38.43.56L118.9,41c-2.54,1.79-7.89,1.51-11,1.87L98.24,44c-3.13.38-3.32,5.22,0,5L125,47.58l-.7-5.23c-4.05.88-8.11,1.69-12.17,2.53-3.15.65-2.4,5.59.75,5.55,5.19-.07,10.38-.29,15.58-.48l-.74-5.45c-5.37,1.46-10.61,2.72-16.21,2.41l.7,5.18a33.93,33.93,0,0,1,20-1.81l.65-4.8a178.2,178.2,0,0,1-18.89-1.31V49.3q10-.3,20-.28c2.66,0,3.37-4.18.64-4.74q-7.17-1.48-14.28-3.3l-.61,4.53a32.83,32.83,0,0,1,13.22,1.07V42.39c-2.92.43-12.32,1.5-11.16,6.64,1.11,4.94,11.61,2,14.66,1.46,2.5-.47,1.95-4.62-.6-4.46a48.94,48.94,0,0,0-8.58,1.34c-2.69.66-2.2,5.2.67,4.94,8.2-.75,16.39-1.62,24.59-2.3a2.6,2.6,0,0,0,0-5.19A138,138,0,0,0,132,43.67v5.06A147.93,147.93,0,0,1,150.49,48c3.31,0,3.3-5.06,0-5.14-7.4-.18-14.79-.41-22.15-1.26v4.61a140.45,140.45,0,0,1,25.85.79c3.46.39,3.47-5.1,0-5.44a144,144,0,0,0-25.85,0,2.31,2.31,0,0,0,0,4.61c7.37.8,14.73,1.59,22.15,1.79V42.88a175.2,175.2,0,0,0-18.47.79c-3.15.35-3.33,5.08,0,5.06A146.67,146.67,0,0,1,152.44,50V44.82c-8.2.68-16.42,1.39-24.59,2.46l.67,4.94a70.3,70.3,0,0,1,7.84-1.73l-1.21-4.38c-1,.29-9.22,1.51-9,2.41-.11-.51,7.21-1.84,7.89-1.94,2.24-.33,1.88-3.64,0-4.19a37.63,37.63,0,0,0-14.38-1.49c-2.47.23-3.28,3.8-.62,4.52q7.08,1.94,14.23,3.51l.64-4.74q-10-.18-20,0c-3.36.06-3.22,4.79,0,5.13,6.29.66,12.57,1,18.89,1.07,2.71,0,3.37-4.17.65-4.8A38.38,38.38,0,0,0,110.77,47a2.65,2.65,0,0,0,.7,5.18c6.07.44,11.83-.84,17.68-2.33,3-.77,2.41-5.51-.73-5.45-5.2.1-10.39.16-15.58.38l.75,5.55c4-.95,8-1.93,12.08-2.84,2.89-.66,2.31-5.43-.71-5.23L98.24,44v5l12.29-1.66c3.49-.47,7.84-.25,10.74-2.37,1.49-1.08,1.6-3.84-.56-4.29C107.52,38,94.31,41,81,41.11v3.61a67.81,67.81,0,0,1,20,1.9,1.94,1.94,0,0,0,1-3.74,53.37,53.37,0,0,0-24.84-1.06c-2.2.4-1.54,3.65.51,3.75,8.63.43,17.36.51,26,1.4V43.11c-4.68.41-9.38.25-14.08.39-3.84.12-9.11,0-12.65,1.79-4.15,2.09-2.45,6.44,1.85,6.27,1.66-.06,2.16-2.61.41-3Z"/><path class="cls-1" d="M150.74,47.81c5.61,1,11.54.63,17.22.54,3.83-.06,3.74-6.23,0-5.9-4.74.41-9.42.61-14.12,1.37l1.29,4.68c4-.83,8.36-1.24,12-2.94,2-.94.91-4-1.09-4-4-.07-8.31,1.43-12.24,2.28-3.1.66-1.74,5.18,1.29,4.68a35.29,35.29,0,0,1,12-.26l.79-5.79c-5.71.32-11.58.12-17.22,1-2.15.35-2.12,3.93,0,4.31Z"/><path class="cls-1" d="M105.66,53.65a3,3,0,0,0-.07,2.75c.45,1.64.26,3.33.94,5A29.07,29.07,0,0,0,108.91,65c1.17,2,.85,4,1.37,6.06.65,2.71,4.85,1.56,4.18-1.16-.71-2.92-.55-5.26-2.36-7.86a11.88,11.88,0,0,1-2.24-4.32A23.35,23.35,0,0,0,108.32,54c-.41-1-2.09-1.61-2.66-.35Z"/><path class="cls-1" d="M109.16,54.46a156.57,156.57,0,0,1,4.47,17.22c.48,2.79,4.6,1.56,4.21-1.16a20.69,20.69,0,0,0-2.13-6.44c-.63-1.28-1.39-2.5-2-3.78s-.79-3-1.46-4.17q0-2.3-2.73.35a12.35,12.35,0,0,1,1.39,2.2,27.67,27.67,0,0,1,1.5,4,39.44,39.44,0,0,0,2.82,6.94c1.15,2.08,3.84.89,4.08-1.1a21.15,21.15,0,0,0-.55-6.53c-.35-1.91-1.48-6-.08-7.68l-3.68-1c1.5,4.69,1,10.15,1,15h4.54c-.08-2.89-1.58-10.36,1.61-12.06l-3.2-1.3a4.8,4.8,0,0,1-.42,2.92h4.15a4.73,4.73,0,0,1-.43-2.75c.1-2.22-3.58-2.8-4-.53a8.39,8.39,0,0,0,.24,4.42,2.17,2.17,0,0,0,4.15,0,9.2,9.2,0,0,0,.55-4.64,2.22,2.22,0,0,0-3.28-1.88c-5.52,2.85-4.07,10.7-3.95,15.82a2.27,2.27,0,0,0,4.54,0c.09-5.32.48-11.07-1.24-16.19-.48-1.44-2.55-2.33-3.68-1-4.16,5,0,11.7-.64,17.33L119,67.36c-1.46-2.61-4.65-17.25-9.76-14.51-2.44,1.31-.9,5.3-.19,7.11,1.45,3.67,4.31,7.09,4.51,11.14l4.29-.58a72.94,72.94,0,0,0-5.74-17.3c-.83-1.64-3.46-.5-2.94,1.24Z"/><path class="cls-1" d="M108.94,64c-1,1.07-.9,2.22-.53,3.58.56,2.09,1.28,4.2,2,6.22.94,2.57,2.79,5.14,5.89,4.58A1,1,0,0,0,116.9,77c-.48-.8-.77-.76-1.5-1.19-1.58-1-2-2.19-2.64-3.85a65.72,65.72,0,0,1-2.67-7.63.7.7,0,0,0-1.15-.3Z"/><path class="cls-1" d="M112.68,73.09c-.66-1.69-3.75-8.49-1.58-9.73l-1.64-.43c2.16,3.87,1.64,8.61,4.23,12.31a1.37,1.37,0,0,0,2.47-.33c1-2.32-1-5-.89-7.46l-1.93.52c1.49,2.87,2,6.24,4.36,8.57a1.23,1.23,0,0,0,2-1.2c-.17-.7-1-7.64-1.35-7.67l-1.06-.61c1.38,2.8,1.77,6.58,2.37,9.62a1.45,1.45,0,0,0,2.76,0c1-4-1.63-7.32-1.46-11.27l-2.44.33c1,3.06,1.69,6.18,2.67,9.24.44,1.37,2.82,1.23,2.66-.36a12.82,12.82,0,0,0-.37-2.23.94.94,0,0,0-1.79,0,7.08,7.08,0,0,0-.5,1.87h2.61c-.87-3.09-2-6.11-2.88-9.19a1.25,1.25,0,0,0-2.45.34c-.35,3.56,2,7,1.19,10.51h2.76a70.57,70.57,0,0,0-2.2-8.34c-.38-1.12-.89-2.66-2.41-2.36-3.31.66-1,8.75-.47,10.78l2.05-1.2c-2.34-2.16-2.54-5.62-4.47-8.08-.57-.73-1.78-.1-1.76.73,0,1.12,0,2.26.16,3.37.09.87.69,2.27.33,3.05H116c-2.71-3.54-2.29-8.33-4.5-12.15a1.21,1.21,0,0,0-1.64-.43c-3.87,2.28-.75,9.79,1,12.57.57.93,2.26.33,1.84-.77Z"/><path class="cls-1" d="M119.9,59.63c-2.71,6-.93,18.94,7.36,19.69a1,1,0,0,0,.73-1.78c-2.58-2.49-5-3.81-5.9-7.64-.8-3.34-.47-6.82-1.23-10.14a.53.53,0,0,0-1-.13Z"/><path class="cls-1" d="M121.75,71.87A13.64,13.64,0,0,0,124.48,75a28.49,28.49,0,0,0,3.1,2.92c1,.76,2.2-.5,2-1.54-.55-2.74-3.94-3.09-5.64-4.79-1.05-1-2.61.54-1.62,1.62a12.44,12.44,0,0,0,4.49,3.32c1,.38,1.64-.7,1.52-1.52a1.5,1.5,0,0,0-.57-1l-.87,1.5c.56.09,1,.71,1.32,1.08l.81-2c-.64,0-1.08-.27-1.71,0a.91.91,0,0,0-.53,1.32c.38.92,1.33,1,2.24,1,1.48,0,1.46-2.39,0-2.29-.25,0-.92.17-1-.23a.91.91,0,0,0-1.73,0l-.19.35,1.69-.44a27.31,27.31,0,0,1-3.82-2.68l-.81,2a4.78,4.78,0,0,1,2.5,1.52c.45.41,1.32,1,1.28,1.67l2.32-1a28,28,0,0,0-3-2.84,12.47,12.47,0,0,0-3.1-2.43,1,1,0,0,0-1.35,1.34Z"/><path class="cls-1" d="M123.54,71.75a3.74,3.74,0,0,0-.15-1.1,3.65,3.65,0,0,0-.67-1,4.41,4.41,0,0,1-.6-.9,6.68,6.68,0,0,0-.46-1.13.76.76,0,0,0-1-.27c-1,.55-.72,1.86-.23,2.66a8.67,8.67,0,0,0,.94,1.16c.27.31.8.6,1,.93s1.23.35,1.15-.32Z"/><path class="cls-1" d="M118.11,74.73l.36-.9c.44-.61-.18-1.27-.77-1.34l-.35,0a1.13,1.13,0,0,0-1,.56,19,19,0,0,0-1.71,4l2.83.38c-.09-1.33-.09-3.49-1.89-3.57s-2.13,2.12-2.45,3.5L115.6,77a6,6,0,0,0-2-2,1.16,1.16,0,0,0-1.72,1c0,1.46.74,1.89,1.84,2.65,1.78,1.23,3,3.13,4.87,4.21a5,5,0,0,0,4.07.55c1.68-.58,2.65-2.34,4-3.37a1.31,1.31,0,0,0-1.32-2.25c-1,.57-3.12,2.11-4.32,2l1.24.71c-.61-.84,1.57-2.62,2.11-3,1.25-1-.37-3.05-1.69-2.19a37.13,37.13,0,0,1-3.83,2.19l2.27,1.75A2.76,2.76,0,0,1,122.52,77c1.49-1,.15-3.34-1.41-2.41a10.45,10.45,0,0,1-3.88,1.32l1.5,2.57a5.29,5.29,0,0,1,2.43-1.57l-1.56-2c-.75,1-1.57,2-2.32,3l2.65.72c1-1,1.47-1.09,1.3-.38a2.85,2.85,0,0,0,.12.58c.24.25.27.5.61.69a2.09,2.09,0,0,0,2.47-.66,1.14,1.14,0,0,0-.8-1.93,21.48,21.48,0,0,0-4,.6c-1.79.45-1,3,.74,2.71a27.87,27.87,0,0,0,4.55-1,1.23,1.23,0,0,0-.32-2.4,29.8,29.8,0,0,0-5,.65l1.08,2.57a5,5,0,0,1,2.91-.92l-.8-1.92-.46.23.92.52c-.68-1-.91-1.88-2.37-2a4.25,4.25,0,0,0-3.64,1.92c-.92,1.35,1.12,2.87,2.23,1.72A18.79,18.79,0,0,0,122,76.27a1.39,1.39,0,0,0-1.19-2.08,5.94,5.94,0,0,0-4.24,2.1,1.55,1.55,0,0,0,1.5,2.57A15.94,15.94,0,0,0,122.52,77l-1.41-2.41a5.85,5.85,0,0,0-2.94,3.72A1.56,1.56,0,0,0,120.44,80a16.6,16.6,0,0,0,4-2.67l-2-2c-1.36,1.49-4.36,4.15-2.68,6.41s5.47-.9,6.94-1.82l-1.32-2.25c-2.09,1.5-3.68,4.31-6.37,2.14-.9-.72-1.61-1.64-2.51-2.36-.33-.27-2.33-1.19-2.35-1.57l-1.94.8a4.66,4.66,0,0,1,1.09,1.59,1.35,1.35,0,0,0,2.45-.31l.28-1.28c.25-.56,0-.64-.62-.24l-1-1c.08.61.13,1.21.17,1.82a1.45,1.45,0,0,0,2.83.39,27.1,27.1,0,0,1,1-3.94h-1.54l.4.9a.41.41,0,0,0,.78,0Z"/><path class="cls-1" d="M83.93,70.06c-1,.35,0-6.78.07-7.15.44-1.95,1.08-3.84,1.57-5.78H82.73c1.47,3.67.12,8.41.49,12.29.26,2.83,2.15,3.26,4.86,3.69l.39-2.88c-1.3,0-2.61-.09-3.91-.11a1.51,1.51,0,0,0-.76,2.8c2,1,4.73.61,4.47-2.21a27.8,27.8,0,0,0-.94-2.94,19.13,19.13,0,0,1-.25-4.14c.08-3.38,1.08-4.8,2.53-7.66a1.2,1.2,0,0,0-1.34-1.74c-2.7.52-3.78,3.48-4.14,6a25,25,0,0,0,0,5.73,19.52,19.52,0,0,0,.38,2.64l.29,1.1c.18,1.19.35,1.41.54.67l-.76,2.8c1.3,0,2.61,0,3.91,0,1.92,0,1.84-2.75,0-2.93-2.78-.26-2.36-1.47-2.35-3.78,0-1.19,0-2.37,0-3.56a28.09,28.09,0,0,0-.51-6.54c-.37-1.52-2.36-1.27-2.84,0-1.49,4-3.31,9.8-2.16,14.11.61,2.24,3.29,4,4.77,1.43.51-.89-.35-2.21-1.41-1.83Z"/><path class="cls-1" d="M87.28,38.62c2.14-2.18,4.61-3.75,6.94-5.7,2.07-1.73,2.16-2.4,5.43-2.79a40.9,40.9,0,0,1,5.75.13c4.63.11,9.82-.64,13.87,2,3.31,2.17,5.24,6.43,7,9.76.56,1.07,2.53.63,2.38-.64-.55-4.5-4-8.26-7.23-11.24-3.79-3.47-8.2-2.76-13.12-2.78-4.43,0-10.54-1.5-14.14,1.42-3,2.47-7.28,5-8.34,9a.9.9,0,0,0,1.49.87Z"/><path class="cls-1" d="M96.86,27.72c-1.89-2.18-4.16.81-5.26,2.22a35.31,35.31,0,0,0-5.37,8.28c-.16.42.49.65.71.3a27.21,27.21,0,0,1,4.68-6.27c.87-.78,1.83-1.41,2.68-2.2a21.67,21.67,0,0,1,2.47-1.65.45.45,0,0,0,.09-.68Z"/><path class="cls-1" d="M85.06,40l-.8,1.3c-.21.34.32.64.54.31l.83-1.28c.23-.35-.34-.69-.57-.33Z"/><path class="cls-1" d="M85,41a.3.3,0,0,0,0-.6.3.3,0,0,0,0,.6Z"/><path class="cls-1" d="M80.18,42A4.26,4.26,0,0,0,79,41.45a.46.46,0,0,0-.25.89,3.11,3.11,0,0,1,1,.4c.48.29.89-.44.43-.75Z"/><path class="cls-1" d="M80.23,41.59c-.52-.32-1.08-.59-1.61-.9a.89.89,0,0,0-1.07.14,1.77,1.77,0,0,0-.26.35,1,1,0,0,0,.14,1.11l0,.05L77.27,42a1.11,1.11,0,0,0,1.09.85.65.65,0,0,0,.55-1,.28.28,0,0,1,0-.09l-.41.72a1.35,1.35,0,0,0,.45-.57l-1,.41a8.25,8.25,0,0,1,1.52.59.76.76,0,0,0,.77-1.31Z"/><path class="cls-1" d="M167.13,46.61c3.6.27,7.35-.43,11-.75a80.69,80.69,0,0,0,9.83-1c1.79-.39,1.25-2.93-.41-3-3.61-.24-7.39.38-11,.82-3.23.4-6.62.64-9.69,1.74a1.17,1.17,0,0,0,.31,2.28Z"/><path class="cls-1" d="M161.05,41.37a11.25,11.25,0,0,0,1.59-4.91,38.17,38.17,0,0,1,2.24-8h-2.66c.76,2,.17,4.53.22,6.64a21.44,21.44,0,0,0,.91,6L166,40c-1.31-1.89-3.07-4-3.72-6.28l-1.77.75a13.23,13.23,0,0,1,1.16,6.84h2.84a5.72,5.72,0,0,1,.24-2.72c.42-1.55-1.75-2-2.33-.65a10,10,0,0,0-1,4c0,1,1.5,1.51,2,.53a29.59,29.59,0,0,0,1.35-3.91L162.38,38a15.64,15.64,0,0,0-.75,3.37c-.22,1.78,2.72,1.85,2.84,0a11.52,11.52,0,0,0-2.48-8c-.71-.92-2,.24-1.52,1.17,1.14,2.31,1.7,4.72,3,7a1.43,1.43,0,0,0,2.6-1.1,25.48,25.48,0,0,1-.82-7.17c0-1.81.21-3.7-.4-5.44a1.39,1.39,0,0,0-2.66,0,32.59,32.59,0,0,0-2.13,6.6c-.34,1.93-.08,4.1-1,5.88a1.11,1.11,0,0,0,1.91,1.12Z"/><path class="cls-2" d="M36.19,68.64c1-4.24-.54-8.51-1.76-12.56a70.93,70.93,0,0,1-2.8-16,1.5,1.5,0,0,0-2.94-.4c-1.47,4.37-.22,9.13,1.08,13.41,1.55,5.11,2.8,10.51,4.62,15.51.29.8,1.58,1,1.8,0Z"/><path class="cls-2" d="M30.51,41.47c1.9.07,3.78-.06,5.67.1a22.31,22.31,0,0,0,5.22.25c1.26-.19,1.39-2.12.35-2.67-3.16-1.67-8.24-1.27-11.61-.46a1.42,1.42,0,0,0,.37,2.78Z"/><path class="cls-2" d="M40.11,41.13c-2.56,3.94-1.3,11-1.15,15.51A36.28,36.28,0,0,0,39.82,63c.65,3.1,1.3,6.76-3.62,4.36A1.49,1.49,0,0,0,34,68.58v.74a2,2,0,0,0,1.41,1.85A16.9,16.9,0,0,0,42.63,71a1.76,1.76,0,0,0,1.24-1.24c1.06-4.32-1.07-8.84-1.25-13.14-.2-4.74,1.45-11.41-1.22-15.51a.75.75,0,0,0-1.29,0Z"/><path class="cls-2" d="M39.48,42.11c5.52.82,11.09.54,16.65.32s11.27.45,16.58-.58c1.58-.31,1.28-2.45,0-2.91-4.81-1.72-10.59-.92-15.63-.71-5.72.25-11.42.33-17.14.47-1.87,0-2.47,3.11-.46,3.41Z"/><path class="cls-2" d="M40.58,50.05c4.81,1,10.14.09,15-.21s10.32-.13,15.2-1.34c1.57-.39,1.72-3,0-3.33-5-.83-10.21.07-15.2.47s-10.38.17-15,1.89c-1.1.41-1.36,2.22,0,2.52Z"/><path class="cls-2" d="M42.26,60.4a125.65,125.65,0,0,0,13.82-3.93c4-1.25,8.6-2,12.13-4.33a1.51,1.51,0,0,0-.75-2.79c-4.54,0-9.08,2.16-13.35,3.59A88.24,88.24,0,0,0,41.26,58c-1.38.72-.38,2.65,1,2.38Z"/><path class="cls-2" d="M70,50.31V50.2a1.63,1.63,0,1,0-3.25,0v.11a1.63,1.63,0,1,0,3.25,0Z"/><path class="cls-2" d="M66.39,49.23a3.58,3.58,0,0,0,.53.7c-.37-.4.32.45.25.33s-.1-.13,0,0a1.85,1.85,0,0,0,1.41,1.05,1.72,1.72,0,0,0,1.53-.5,1.86,1.86,0,0,0,.28-2.19c-.53-1-1.95-2-3.14-1.53a1.45,1.45,0,0,0-.85,2.1Z"/><path class="cls-2" d="M42.59,68.43c6-.67,11.77-2.91,17.44-4.81S72,60.23,77.13,57.17c1.75-1,.52-3.39-1.3-3.09-6,1-12,3.89-17.77,5.92C52.69,61.89,47,63.47,42,66.29c-.93.53-.59,2.27.58,2.14Z"/><path class="cls-2" d="M70,50.46a3.19,3.19,0,0,0,2-1.58,1.94,1.94,0,0,0-.5-2.46,1.89,1.89,0,0,0-2.5.15A9.7,9.7,0,0,0,68,48,1.72,1.72,0,0,0,70,50.46Z"/><path class="cls-2" d="M70.2,41.43a26.06,26.06,0,0,0,3.64.46,10.13,10.13,0,0,0,3.64,0,1.43,1.43,0,0,0,.34-2.58c-1.95-1.27-5.47-1.17-7.62-.48a1.34,1.34,0,0,0,0,2.56Z"/><path class="cls-2" d="M75.27,42.06c1.86,4.75.88,8.57,0,13.35A1.55,1.55,0,0,0,78.1,56.6C79.64,54.16,80,50.79,79.9,48c-.09-2.24-.29-5.47-2.09-7A1.55,1.55,0,0,0,76,40.68l-.26.12a1.11,1.11,0,0,0-.51,1.26Z"/><path class="cls-2" d="M77.84,39.59l-.2,0A1.46,1.46,0,0,0,76.58,41c-.13,3-.16,6.87,1.12,9.69.59,1.29,2.33.49,2.43-.66a26.09,26.09,0,0,0-.38-4.49c-.14-1.51-.2-3-.28-4.54a1.5,1.5,0,0,0-1.06-1.39,1.11,1.11,0,0,0-.57,0Z"/><path class="cls-2" d="M75.63,41c9,.88,18.2.26,27.24.35,8.36.09,17.45,1.37,25.7,0,1.53-.25,1.41-2.64,0-3-8.35-2-18.14-1-26.68-1-8.8.06-17.87-.19-26.58,1.25-1.43.24-.92,2.23.32,2.35Z"/><path class="cls-2" d="M75.62,57.88c9.59.4,19.49-1.27,29.1-1.76q6.8-.34,13.61-.56c4.64-.15,9.54.17,14-1a1.62,1.62,0,0,0,0-3.1c-8.85-2.15-19.62-.28-28.64.33-9.35.64-19.42.73-28.52,3.13a1.53,1.53,0,0,0,.4,3Z"/><path class="cls-2" d="M131.6,53.42c3.66-3.4,1.94-9.14,1-13.27-.46-2.08-4.06-1.67-3.78.51s1.24,4,1.32,6.15-.69,4.2,0,6.23a.88.88,0,0,0,1.46.38Z"/><path class="cls-2" d="M133.16,40.48l-.2,0a.6.6,0,0,0-.73.72l.05.2a.72.72,0,0,0,1.19.32.73.73,0,0,0-.31-1.2Z"/><path class="cls-2" d="M128.82,41.39c.52-.52,6.11.49,7.31.54,3.34.15,6.67.26,10,.37,5.63.19,12,1.27,17.48,0a1.67,1.67,0,0,0,0-3.19c-7-2-15.74-.83-22.94-.91-3,0-12.76-2-14,1.92a1.31,1.31,0,0,0,2.18,1.27Z"/><path class="cls-2" d="M129.65,54.38c6.38.67,13.1-.46,19.47-1,5.79-.49,12.51-.2,18-2.28,1.38-.52,1.82-3,0-3.25-6.09-1-12.85.58-18.94,1.26s-12.86.9-18.84,2.76a1.29,1.29,0,0,0,.34,2.51Z"/><path class="cls-2" d="M163,42c3.43,1.55,2.52,5.77,4.92,8.18a1.53,1.53,0,0,0,2.54-.67c.41-2.28-.64-5-1.64-7a6,6,0,0,0-5-3.71c-1.65-.1-2.43,2.51-.87,3.22Z"/><path class="cls-2" d="M83.94,39.89c1.69-1.59,3.18-3.39,4.75-5.09,1.43-1.55,3.46-3.22,4-5.33.22-.9-.65-2-1.65-1.65-2.29.91-3.72,3.36-5.14,5.28-1.15,1.55-3.75,4-3.7,6.06a1,1,0,0,0,1.75.73Z"/><path class="cls-2" d="M89.25,40.33c2.13-.87,3.68-2.73,5.21-4.39s3.84-3.47,3.77-5.88a1.42,1.42,0,0,0-1.78-1.36c-2.26.35-3.58,2.89-4.85,4.57s-3,3.68-3.51,5.91c-.13.62.45,1.45,1.16,1.15Z"/><path class="cls-2" d="M95.86,32c3,.44,6.2.35,9.27.5,3.94.2,7.94.72,11.87.39,1.7-.14,2.25-2.63.42-3.11-4.22-1.09-8.74-1.09-13.08-1.22-3-.09-6.7-.81-9,1.42a1.21,1.21,0,0,0,.53,2Z"/><path class="cls-2" d="M114.74,32.34c.93,1.45,2.79,2.37,4,3.59s2.3,3,3.8,3.9a1.35,1.35,0,0,0,2-1.16c-.26-2.08-1.82-3.85-3.35-5.21s-3.43-3-5.4-3a1.27,1.27,0,0,0-1.09,1.89Z"/><path class="cls-2" d="M89.83,31.11a8.43,8.43,0,0,0,3.28-1.5c1.13-.67,2.37-1.36,2.8-2.66a1.42,1.42,0,0,0-1.37-1.8c-1.37.08-2.36,1.1-3.31,2A8.62,8.62,0,0,0,88.94,30a.92.92,0,0,0,.89,1.16Z"/><path class="cls-2" d="M93.33,27.39c3.67.92,7.64.25,11.41.36,4.29.12,8.57.63,12.85.84,1.36.07,1.37-1.74.3-2.18-6.83-2.79-18.1-4.49-24.75-.46a.8.8,0,0,0,.19,1.44Z"/><path class="cls-2" d="M117.09,29.28c2,1.76,4.1,3.12,5.88,5.21,2,2.3,3.43,5.24,5.75,7.17A1.36,1.36,0,0,0,131,40.35c-.81-3.29-3.59-6.23-5.78-8.71-1.81-2-4.29-4.62-7.24-4.47a1.25,1.25,0,0,0-.87,2.11Z"/><path class="cls-2" d="M89.73,43.55a5.36,5.36,0,0,0-.46,2,2.47,2.47,0,0,0,.6,1.92.74.74,0,0,0,1.21-.32A3.16,3.16,0,0,0,91,45.47c-.09-.59-.24-1.19-.28-1.78a.5.5,0,0,0-1-.14Z"/><path class="cls-2" d="M90.13,48.3c4.28-.25,8.56.1,12.82-.1a1,1,0,0,0,.26-1.86c-4.16-1.22-9.15-.75-13.31.24a.88.88,0,0,0,.23,1.72Z"/><path class="cls-2" d="M89.17,44c2,.87,4.21.72,6.33.78,2.37.06,5,.4,7.26-.31a1,1,0,0,0,0-1.83c-2.16-.59-4.53-.26-6.76-.25s-4.61-.33-6.67.41c-.47.17-.73,1-.16,1.2Z"/><path class="cls-2" d="M101.78,44.92l.12,0-.46-.36c.39.68-.32,1.91-.15,2.74a1,1,0,0,0,1.91.25,4.75,4.75,0,0,0,.4-3.06c-.22-1-1.36-1.66-2.12-.78a.71.71,0,0,0,.3,1.16Z"/><path class="cls-2" d="M166.19,43c3.8,1,8,.22,11.95.17,4.59,0,9.2.35,13.78,0,1.14-.1,1.58-1.88.29-2.15-4.61-1-9.38-.86-14.07-.71-4,.14-8.39-.09-12.08,1.67a.58.58,0,0,0,.13,1Z"/><path class="cls-2" d="M166.06,48.39a92.44,92.44,0,0,0,25-1.2c1.32-.26.89-2.12-.3-2.22a82.09,82.09,0,0,0-24.85,2c-.83.21-.58,1.33.19,1.41Z"/><path class="cls-2" d="M189.36,42.67a13.23,13.23,0,0,0,.69,4,1.12,1.12,0,0,0,1.23.5,1.14,1.14,0,0,0,.8-1.05,12.67,12.67,0,0,0-.56-3.7c-.24-1.2-2.29-1-2.16.29Z"/><path class="cls-2" d="M183.14,39.17c-1.39,1.47-.63,4.63-.46,6.48.14,1.64,0,4.05,2,4.52a.8.8,0,0,0,1-1,36.13,36.13,0,0,1-.83-5.69c-.1-1.47.23-3.22-.85-4.34a.59.59,0,0,0-.83,0Z"/><path class="cls-2" d="M183.11,40.56c2.73.74,6,.45,8.81.53,3.35.1,6.88.53,10.17-.14,1.19-.24,1.06-2,0-2.29-3.81-1.11-8.29-.48-12.22-.41-1.81,0-6.31-.87-7.26,1.1a.83.83,0,0,0,.5,1.21Z"/><path class="cls-2" d="M184.79,50.16c5.67,1.08,13.36.78,18.78-1.36,1.18-.46,1.14-2.41-.32-2.36-3,.11-6,.81-9.05,1.13s-6.11.28-9.15.64c-1,.12-1.46,1.72-.26,1.95Z"/><path class="cls-2" d="M201.14,40.58c1.19,1.92,1.25,4.33,1.13,6.49-.05.83,1.2,1.44,1.75.73a5,5,0,0,0,.57-4.91c-.39-1.27-1-3.24-2.39-3.7a1,1,0,0,0-1.06,1.39Z"/><path class="cls-2" d="M185.84,45.13a19.38,19.38,0,0,1,2.54-2l-1.3-1.68A8.12,8.12,0,0,0,184.71,45a1.25,1.25,0,0,0,.85,1.5c2.15.86,5.06-2.8,6.55-3.82l-1.19-1.54c-1.87,1.77-3.63,3.65-5.4,5.52a1.16,1.16,0,0,0,1.39,1.81c3.21-1.52,5.56-4.28,8.78-5.76l-1.41-1.82a51.13,51.13,0,0,0-6.87,6.53,1.2,1.2,0,0,0,1.7,1.7,59.93,59.93,0,0,1,7.56-6.22l-1.3-1.68c-1.24,1.57-2.39,3.19-3.53,4.84-.7,1,.67,2.3,1.67,1.68,2-1.24,3.63-4.67,5.81-5.23l-.87-1.5c-1.71,2-4,3.66-5.94,5.48-1.13,1.06.53,2.67,1.67,1.68a46.67,46.67,0,0,1,6-4.52l-1.37-1.78c-1.14,1.25-2.24,2.52-3.3,3.85a1.29,1.29,0,0,0,1.83,1.83,7.83,7.83,0,0,0,2.6-3.37c.2-.52-.48-.93-.91-.69-1.12.63-2.15,1.38-3.26,2l1.78,1.77q1.5-2,3-4c.85-1.1-.86-2.1-1.78-1.37-2,1.56-4,3-6,4.44l1.43,1.86c2-1.82,4.74-3.72,5.77-6.29.36-.89-.9-1.42-1.5-.87a34.68,34.68,0,0,1-6.17,4.61L194,47.26c1.08-1.58,2.14-3.14,3.11-4.78a1.08,1.08,0,0,0-1.69-1.3,58.49,58.49,0,0,1-7.72,6l1.46,1.89a65.21,65.21,0,0,1,6.81-6.59c1.05-.92-.28-2.36-1.4-1.82-3.19,1.53-5.58,4.23-8.77,5.77l1.4,1.81c1.75-1.89,3.51-3.78,5.16-5.76.65-.79-.22-2.26-1.19-1.55-.58.43-4.44,3.35-4.91,3.17l.85,1.5A7,7,0,0,1,188.59,43c.75-.86-.25-2.43-1.29-1.68a23.63,23.63,0,0,0-2.87,2.41c-.92.91.47,2.28,1.41,1.41Z"/><path class="cls-2" d="M200,42.11a22.22,22.22,0,0,1-1.87,3c-.8,1.05.71,2.29,1.71,1.71a7.23,7.23,0,0,0,1.78-1.37l-1.89-.79,0,.68a1.09,1.09,0,0,0,1.84.76,3.94,3.94,0,0,0,.49-4.62c-.64-1.27-2.49-.15-1.9,1.12.1.21.88,1.69.69,2s-.63.08-.84.12c-1.14.25-2.71-.11-3.91,0a37.69,37.69,0,0,0-6.74,1.39,1.29,1.29,0,0,0,.69,2.49c3.57-.76,7.24-1.33,10.76-2.32a1.15,1.15,0,0,0-.61-2.21c-3.09.7-6.23,1.22-9.34,1.79l1.14,2c1.61-2,5-3.33,7.23-4.63a1.11,1.11,0,0,0,0-1.89c-2.18-1.06-5.25-.1-7.51.34l.58,2.12A40.92,40.92,0,0,1,200,42.5c1.41-.11,1.42-2.32,0-2.2-2.56.21-5.1.51-7.65.8l.31,2.27c1-.25,2.05-.48,3.09-.68.47-.09,2.47-.75,2.82-.52,1,.65,2.1-.81,1.28-1.65-1.53-1.55-6.06.2-7.81.62-1.24.29-1,2.42.31,2.27,2.65-.3,5.3-.58,7.94-.95l-.58-2.12c-2.7.41-5.38.8-8.07,1.26-1.4.24-.79,2.33.58,2.12,1.67-.26,4.44-1.15,6.08-.46l-.26-2q-2.25,1.35-4.52,2.66a11.28,11.28,0,0,0-3.26,2.2,1.18,1.18,0,0,0,1.14,2c3.1-.64,6.21-1.33,9.33-1.84L200.46,44c-3.73.47-7.44,1.37-11.14,2.08l.69,2.49A26.86,26.86,0,0,1,196.5,47c1.53-.13,3.81.55,5.24.12,2.54-.76,1-4.07.28-5.62l-1.9,1.12a1.89,1.89,0,0,1-.28,2.2l2,.54.08-.68c.12-1.07-1.23-1.29-1.89-.78l-1.17.65,1.22,2.1A13.4,13.4,0,0,0,202.14,43c.45-1.26-1.55-2.09-2.16-.91Z"/><path class="cls-2" d="M158.9,41.32a40,40,0,0,0,2.72-6.75c.89-2.49,2.16-5.06,2.52-7.69A1.17,1.17,0,0,0,162,26c-1.5,2.11-2.23,4.85-3,7.31a27.44,27.44,0,0,0-1.62,7.62.8.8,0,0,0,1.48.4Z"/><path class="cls-2" d="M161.7,27c1.33.36,3.43.49,4.35-.71a.84.84,0,0,0-.5-1.22,2.48,2.48,0,0,0-1.32.09,10.53,10.53,0,0,1-1.36.17c-.83.07-1.49.38-1.46,1.29a.39.39,0,0,0,.29.38Z"/><path class="cls-2" d="M164.29,26.27a32.16,32.16,0,0,0,3.16,16.4c.56,1,1.9.26,1.76-.74-.38-2.68-1.31-5.26-1.83-7.92s-.63-5.36-1.19-8c-.24-1.13-1.8-.76-1.9.25Z"/><path class="cls-2" d="M83.09,57.19a.26.26,0,0,0,0-.51.26.26,0,0,0,0,.51Z"/><path class="cls-2" d="M81.86,56.23C79.24,58.37,78.93,63.8,78.53,67c-.31,2.35-.55,5,1.77,6.37a.9.9,0,0,0,1.23-1.23C78.6,67.28,84,61.31,82.71,56.45a.51.51,0,0,0-.85-.22Z"/><path class="cls-2" d="M79.9,73.23c.82,1.56,3.24,1.83,4.84,2a10.25,10.25,0,0,0,6.07-1.32,1.08,1.08,0,0,0-.82-2,17.72,17.72,0,0,1-5.25.78c-1.46,0-3-.85-4.44-.44a.68.68,0,0,0-.4,1Z"/><path class="cls-2" d="M89,56.38a17.22,17.22,0,0,0-2.34,9.08c0,.56.54,8,2.7,6.38-.87.66-.78,2.59.65,2.4l.36,0a1.44,1.44,0,0,0,1.34-1c.42-2.35-1.94-3.76-2.26-6.06-.48-3.39.71-6.7,1.39-10A1,1,0,0,0,89,56.38Z"/><path class="cls-2" d="M89,60.79a8.11,8.11,0,0,0,2.78-4.33,1.15,1.15,0,0,0-2.22-.61,16,16,0,0,1-1.92,3.57c-.5.81.53,2,1.36,1.37Z"/><path class="cls-2" d="M80.11,57.58l-.08.08-1.35-.36c1.44,1.87.72,3.9.48,6h2a37.52,37.52,0,0,0,.14-4.23c-.13-1.18-.84-1.78-1.53-2.67s-2.26.42-1.43,1.43c.22.27.5.49.7.76a2.43,2.43,0,0,1,.34,1.8c0,1-.12,1.93-.25,2.91-.15,1.17,1.67,1.3,2,.27.79-2.51.76-5.38-.93-7.48C79.33,55,77.7,57,79,57.66a2.42,2.42,0,0,0,.59.2.41.41,0,0,0,.49-.28Z"/><path class="cls-2" d="M89.21,60c.21-.57,1-.93,1.52-1.26a17,17,0,0,1,1.54-.93c1-.54,2.18-.77,3-1.56a.78.78,0,0,0-.34-1.29c-1.49-.33-3.17.69-4.34,1.55s-2.49,1.92-2.4,3.35a.53.53,0,0,0,1,.14Z"/><path class="cls-2" d="M105,55a17.05,17.05,0,0,0-.22,2.14,5.07,5.07,0,0,0,0,2.16.89.89,0,0,0,1.61.21,4.09,4.09,0,0,0,.37-2.22,9.26,9.26,0,0,0-.21-2.29A.83.83,0,0,0,105,55Z"/><path class="cls-2" d="M105.3,60.61a47.57,47.57,0,0,0,10.4.16c3-.16,6.37,0,9.13-1.41a1,1,0,0,0-.23-1.74c-3.06-.81-6.49,0-9.62.26a84.42,84.42,0,0,0-9.68.81,1,1,0,0,0,0,1.92Z"/><path class="cls-2" d="M123,59.54c1.31.6,2.31-.45,2.47-1.73a6.16,6.16,0,0,0-.16-2.18,13.12,13.12,0,0,0-.31-1.91,1.13,1.13,0,0,0-1.62-.66,2.09,2.09,0,0,0-.78,2.54c.17.7.7,1.74.18,2.26a1.08,1.08,0,0,0,.22,1.68Z"/><path class="cls-2" d="M107.73,61.14a.38.38,0,0,0,.11-.11c.06-.08.06-.07,0,0l-.56-.15c.74.92,1.86-.78.7-1.1a.7.7,0,0,0-.67.17c0,.06-.31.48-.11.19-.22.31-.34.55-.15.91a.44.44,0,0,0,.69.09Z"/><path class="cls-2" d="M108.79,59.92a3.25,3.25,0,0,0-1.48-1.52,1.07,1.07,0,0,0-1.6.92c-.12,11.1,3.43,24.84,16.49,26.37,1.24.14,1.31-1.68.28-2-5.3-1.91-9.6-4.93-12.18-10.13-2.14-4.32-2-9.47-2.46-14.19l-1.35,1a4.87,4.87,0,0,1,1.63.44c.5.19.92-.45.67-.87Z"/><path class="cls-2" d="M121.88,58.47c-2.13,2.78-.52,9,1,11.85,1.58,3,5.93,5.87,9.27,6.3a.9.9,0,0,0,.77-1.35c-1.91-2.84-5.9-3.35-7.66-6.35a16.19,16.19,0,0,1-1.86-6.57c-.13-1.54.06-2.52-.68-3.88a.47.47,0,0,0-.8,0Z"/><path class="cls-2" d="M122.65,85.85c2.24-.88,4.07-3,5.84-4.57s4.3-3.19,5.12-5.42a1.06,1.06,0,0,0-1.3-1.29c-2.15.69-3.82,3-5.42,4.56s-4.11,3.29-5.23,5.43c-.32.61.23,1.58,1,1.29Z"/><path class="cls-2" d="M94.33,25.49c3.3,1.45,7,1,10.61,1.28,4.75.32,9.48.88,14.21,1.38,1,.11,1.29-1.65.25-1.85a123.17,123.17,0,0,0-12.56-1.6c-4-.3-8.68-1.21-12.45.33-.17.07-.28.36-.06.46Z"/><path class="cls-2" d="M109.44,60.69C107,70.75,115.8,80.23,124.65,83.28c.58.2.88-.64.4-1-4.32-2.79-8.24-4.75-11.32-9.06-2.88-4-2.35-8.12-3.7-12.58a.31.31,0,0,0-.59,0Z"/><path class="cls-2" d="M112.25,60.92c-.62,5.85,3,13.24,8.32,15.88a.56.56,0,0,0,.57-1A16.09,16.09,0,0,1,115.53,69c-1.16-2.64-1.39-5.52-2.43-8.18a.44.44,0,0,0-.85.12Z"/><path class="cls-2" d="M129,78.16c-.93-1.75-3.08-2.9-4.64-4-2.19-1.62-4.41-2.89-5.59-5.44-.26-.57-1.11-.26-1.12.3,0,2.37,1.87,3.76,3.61,5,1.26.93,2.52,1.86,3.8,2.76a9.26,9.26,0,0,0,3.5,2,.39.39,0,0,0,.44-.57Z"/><path class="cls-2" d="M127.4,80.78a4.24,4.24,0,0,0-1.05-1.33,3.69,3.69,0,0,0-1.42-1,.65.65,0,0,0-.78.79,2.92,2.92,0,0,0,1.12,1.41,3.57,3.57,0,0,0,1.62.79.46.46,0,0,0,.51-.67Z"/><path class="cls-2" d="M115.86,60.37c-.68.64-.26,1.89,0,2.66a7.85,7.85,0,0,0,1.48,3.06c.49.54,1.19-.06,1.1-.64-.23-1.58-1.35-2.94-1.36-4.59a.7.7,0,0,0-1.18-.49Z"/><path class="cls-2" d="M106.1,58.91c-.9-.88-.5-2.26-1.15-3.27s-2.15-.35-1.79.75c.25.77.79,1.68,1.66,1.82.42.07,1-.29.79-.79a4,4,0,0,1-.53-1.29l-1.92.26c.25,1.51.52,3.35,2.11,4,.82.31,1.41-.87.83-1.44Z"/><path class="cls-2" d="M90.71,44.34l-.39.12.57,2.06c.86-.28,1.73-.55,2.57-.89l-1.13-1.46a3,3,0,0,1-1.58,1.26l.83,2c.49-.29,2.49-2,2.87-1.92L94,43.81c-.48.4-1,.79-1.47,1.16-.84.64-.41,2.35.81,1.9a8.6,8.6,0,0,0,3.24-2L95.4,43.7a3.12,3.12,0,0,1-.82.84,1.08,1.08,0,0,0,.82,2A13.26,13.26,0,0,0,100.68,44c.62-.52-.06-1.48-.76-1.3-1.72.45-3.39,1.16-5.09,1.69L96,46a12.19,12.19,0,0,1,.68-1.29c.47-.77-.43-1.49-1.15-1.15-.93.43-1.82.91-2.78,1.29l1,1.74c.53-.47,1-.94,1.6-1.38A1,1,0,0,0,95,43.56c-1.52-.44-3.31,1.19-4.48,2a1.07,1.07,0,0,0,1.08,1.85,6.22,6.22,0,0,0,2.48-2.21c.51-.76-.34-1.66-1.13-1.47s-1.74.49-2.61.75c-1.31.4-.75,2.46.57,2.06l.39-.12c1.32-.4.74-2.49-.57-2.06Z"/><path class="cls-2" d="M87.6,64.89c2,.6,6.14.74,7.4-1.26.73-1.17.81-2.93,1.09-4.26s.89-3.13.34-4.51a1,1,0,0,0-1.65-.44c-1.45,1.46-1.48,4.19-1.84,6.12A4.58,4.58,0,0,1,92.66,62c-.23.31-.67.29-1.1.36a34.9,34.9,0,0,0-4,.54,1,1,0,0,0,0,2Z"/><path class="cls-2" d="M91.34,61A3.49,3.49,0,0,0,92,58.55a7.48,7.48,0,0,0,0-2.75,1,1,0,0,0-1.58-.41,4.33,4.33,0,0,0-.92,3c0,1,.07,2.14,1,2.69a.74.74,0,0,0,.89-.12Z"/></svg>