<svg xmlns="http://www.w3.org/2000/svg" xmlns:xlink="http://www.w3.org/1999/xlink" viewBox="0 0 154.29 67.22"><defs><style>.cls-1{fill:url(#linear-gradient);}</style><linearGradient id="linear-gradient" y1="33.61" x2="154.29" y2="33.61" gradientUnits="userSpaceOnUse"><stop offset="0" stop-color="#ff1d25"/><stop offset="1" stop-color="#d9e021"/></linearGradient></defs><title>Asset 26</title><g id="Layer_2" data-name="Layer 2"><g id="Layer_62" data-name="Layer 62"><path class="cls-1" d="M152.17,26.94c-1.77.77-4.26,2.34-6.08,2.65-2,.33-3.93-.14-5.87-.18a11.13,11.13,0,0,0-2.2.13,57,57,0,0,0-29.67,2.09,2.41,2.41,0,0,0-.62-.57l0-3.27A1.91,1.91,0,0,0,105.31,26q-5.36,1.2-10.72,2.44a4.45,4.45,0,0,0-3.41-2.1c-.1-.73-.21-1.46-.3-2.19a2.17,2.17,0,0,0-2.69-2.06c-3.71.73-7.45,1.38-11.16,2.11a2.83,2.83,0,0,0-.69-1.07,22.65,22.65,0,0,0,.43-5.45c-.06-1.31-1.39-2.66-2.8-2.13l-11.4,4.34a5.34,5.34,0,0,0-1.61-.5,7.91,7.91,0,0,0-1.54,0c.07-1,.16-1.92.31-2.87a2.1,2.1,0,0,0-2.55-2.55A55.79,55.79,0,0,0,51.33,16a9.69,9.69,0,0,0,.63-4.4,2.13,2.13,0,0,0-1.86-2,2.09,2.09,0,0,0-1.64-.4A31,31,0,0,0,38.3,13.4l-1.23.4q-.34-2.76-.79-5.53a1.22,1.22,0,0,0-1.79-.73c-1.13.87-2.27,1.68-3.42,2.47.46-1,.92-1.92,1.37-2.89a1.84,1.84,0,0,0-2-2.7c.23-.72.46-1.44.68-2.17A1.59,1.59,0,0,0,28.53.71,52.27,52.27,0,0,0,21.09,11.5l-.16.07h-.1c-.32-.47.82-8.8.9-9.83.12-1.64-2-2.23-3-1.26A25.78,25.78,0,0,0,10.23,17a5,5,0,0,0-3.51,1.37c-3.17,2.74-2.44,7-1.34,10.58a1.8,1.8,0,0,0,.23.46c-2.66,2.55-6.34,6-5.48,9C.64,40.05,2.19,40.87,4,41.22a5,5,0,0,0-.73,5.88,5.79,5.79,0,0,0,2.87,2.72,2.17,2.17,0,0,0,1.35.55c.11,0,.21,0,.32,0a17.72,17.72,0,0,0,1.82.32c.28,1.14.56,2.27.86,3.4a2.12,2.12,0,0,0,2.76,1.58c1.14,2.28,2.37,4.51,3.7,6.67.78,1.26,3.06,1.46,3.86.19a50.18,50.18,0,0,0,8.83,4.55c1.49.61,3-.92,3.05-2.33a27.62,27.62,0,0,0-.17-3.3,20.1,20.1,0,0,0,2.57,1.46,2.42,2.42,0,0,0,3.61-2.07,34.08,34.08,0,0,0-.49-5.59,22.91,22.91,0,0,0,4.45,1.86,2.37,2.37,0,0,0,3-2.26c.1-1.28.17-2.56.24-3.85a8.26,8.26,0,0,0,7.27,3.19,7.45,7.45,0,0,0,5.25-2.81,11.46,11.46,0,0,0,.77-3.8l3.33-1a25.05,25.05,0,0,0,4,1.33c3.24.16,6.39-.91,9.37-2,3.94-1.46,7.66-3.09,11.93-3.28a35.29,35.29,0,0,1,3.85.08,50.07,50.07,0,0,0,7.89.64l.54,0a1.67,1.67,0,0,0,1.7-2.11c5.54-1.74,11.17-3.63,16.59-5.88,6,.56,13.09,2.05,18.29-.5a23.27,23.27,0,0,1,2.63-1.14c1.76.29,3.54.63,5.32,1a1.74,1.74,0,0,0,2-1.82,17.66,17.66,0,0,0,7.23-3.9C155.11,28,153.46,26.37,152.17,26.94ZM97.82,39a23.9,23.9,0,0,0-4.13-1c1.75-.35,3.49-.72,5.24-1.08A2.13,2.13,0,0,0,97.82,39Zm-86.37-6.5c.11-.14.25-.27.37-.41a3.76,3.76,0,0,0-.45,1.58s0,0,0,0A16.35,16.35,0,0,0,10,35.16l0-.07C9.82,34.23,10.3,33.35,11.45,32.45ZM61.61,29.7c-1.76,0-3.53.12-5.29.27a8,8,0,0,0-2.58-.9L53.68,29c3.6-.83,6.7-1.75,8-2.15A28.88,28.88,0,0,1,61.61,29.7ZM23.81,29c-.12.47-.25.94-.36,1.41,0-.37-.05-.74-.07-1.11Zm6.55,7,.49-.39h.25l-.69.4ZM19.88,35.9l-.1-.1.15-.38c0,.16,0,.31,0,.46Zm-6.29,1.61c-.24.23-.48.43-.73.63.18-.26.38-.5.58-.75Zm27.07-2.09.56-.25,2.34-.07h-.13a1.92,1.92,0,0,0-1.62,1.1l-2.13,0Zm-7.32-9c.42,0,.83,0,1.25,0C34.32,26.85,33.91,26.87,33.34,26.4ZM13.62,30.6a2.9,2.9,0,0,0-.41.16l.33-.27ZM21,43.7c.07-.16.13-.32.19-.49,0,.18,0,.36,0,.54Zm3.78-1.24q.39.21.87.42a8.49,8.49,0,0,0,1.48.44c-.56.1-1.38.25-2.26.37A8.09,8.09,0,0,1,24.73,42.46Zm-2.37-23.8c0-.05-.07-.11-.12-.17l.17.05Zm-2.71,4.49a1.76,1.76,0,0,0-.33,1.41c.09.58.17,1.15.24,1.73l-.92.68a7.84,7.84,0,0,0-1.12-1.39A11.44,11.44,0,0,1,19.65,23.15Zm49.81,5.34c-.55.44-1.19.88-1.84,1.31-.58,0-1.17-.06-1.76-.08,0-.48,0-1,0-1.5a10.4,10.4,0,0,1,3.26-.66h.27A2.12,2.12,0,0,0,69.46,28.49Zm-52.12-7.6c-.16.14-.31.29-.46.44l.38-.51ZM19.23,49.5c.57,0,1.14,0,1.7,0l-.84.91A10.22,10.22,0,0,0,19.23,49.5ZM74.11,35.11a3.05,3.05,0,0,0-.13-.32l1.89-.43.25,0a4,4,0,0,1,2.87.9A34.18,34.18,0,0,1,74.11,35.11Zm-8.37-8.86c0-.34-.07-.67-.11-1a16.8,16.8,0,0,1,4,0A16.5,16.5,0,0,0,65.74,26.25ZM41.51,20.63c-.88-.19-1.77-.38-2.66-.59a8.33,8.33,0,0,1,1.82-1.1A5.94,5.94,0,0,1,43,18.46C42.49,19.19,42,19.91,41.51,20.63Zm2.88-4.87.24-.09-.07.13Zm-13,5A37.48,37.48,0,0,0,27.49,22a1.86,1.86,0,0,0-.34-.07l4-1.41ZM24.79,50.18a6.15,6.15,0,0,0,1.14.17,2.55,2.55,0,0,0-.6.78l-1.7.54C24,51.18,24.41,50.68,24.79,50.18ZM69.15,40c-.07-.38-.14-.77-.21-1.14,1.39.06,2.94.19,4.55.28C72,39.41,70.59,39.7,69.15,40Zm15.64-3.27a1.93,1.93,0,0,0-.13-2.48,8.12,8.12,0,0,0-1.74-1.57,42.05,42.05,0,0,1,4.3-1.19l0,.46a2.41,2.41,0,0,0,3,2.29h0c-.12.3-.25.59-.35.84a2.09,2.09,0,0,0,1,2.62,49.37,49.37,0,0,0-6,0C84.89,37.42,84.84,37.08,84.79,36.75Zm18.75-5.61-7,1.3,7.09-2ZM71.61,21.19l.54-.22c0,.1,0,.2,0,.3Zm-54.71-9a4.36,4.36,0,0,0-1.1.86,4.11,4.11,0,0,0-.91,4.69c-.3.18-.59.37-.87.56A23.68,23.68,0,0,1,17.25,8,37,37,0,0,0,16.9,12.15ZM7.73,44.47h0ZM21.09,57c1.75-.53,3.49-1.12,5.19-1.78A20.83,20.83,0,0,1,27.74,61a35,35,0,0,1-6.64-3.91Zm20.15-6.22c0,.27-.05.55-.07.82-.28-.13-.55-.26-.81-.4ZM45.9,42.6a2,2,0,0,0-.73-.85l-.09-.18c.84-.44,1.66-.89,2.48-1.36,2-.07,4-.16,5.95-.29q-3.63,1.71-7.27,3.39C46.11,43,46,42.8,45.9,42.6Zm11.9-2.16a2.28,2.28,0,0,0-.65-.8q2.79-.24,5.55-.59c.82.62,1.61,1.26,2.38,1.91l-2.64.68A10.43,10.43,0,0,0,57.8,40.44ZM51.64,21.38l-1.28.37C52,20.84,53.61,20,55.3,19.21l-.15,1C53.93,20.62,52.74,21.06,51.64,21.38ZM33.7,10.94c-.09,1.34-.17,2.68-.22,4l-2.77.89c-.58-.41-1.17-.81-1.78-1.19.1-.21.19-.43.29-.64Q31.41,12.43,33.7,10.94ZM5.47,36.06a8.36,8.36,0,0,0,0,1.11A1.5,1.5,0,0,1,5.47,36.06ZM32.11,55l1.36-.62c.12.71.22,1.41.28,2.13A14.68,14.68,0,0,1,32.11,55Zm16.47-7.83,1.29-.63a2.53,2.53,0,0,0,3.07,2.9l.66-.2C51.78,50.4,50,49,48.58,47.19Z"/></g></g></svg>