<svg id="Layer_1" data-name="Layer 1" xmlns="http://www.w3.org/2000/svg" viewBox="0 0 500 500"><defs><style>.cls-1{fill:#c11e2a;}.cls-2{fill:#0f090b;}.cls-3{fill:#231518;}</style></defs><title>15Artboard 1</title><path class="cls-1" d="M193.49,252.05l-.12-.07.64,1.11c.12-2,.32-3.59,2-5l-2.71-.35a5.14,5.14,0,0,1,.78,3.89h3.38c0-1,0-2,.1-3l-3.11.42c.13.67.32,1.36.41,2a5.32,5.32,0,0,0,0,.94l.88,0c.2,0-.39.33.07.24s.85-.31,1.25-.42a1.18,1.18,0,0,0,.52-1.95c-3.07-2.81-7.28,2.29-3.85,4.75a2.72,2.72,0,0,0,4-1c.83-1.66.09-3.7-.3-5.37s-3-1.31-3.11.42c-.05,1-.19,2-.31,3-.23,1.91,2.88,2.27,3.32.45a7.57,7.57,0,0,0-1.12-6.08,1.75,1.75,0,0,0-2.71-.35,7.94,7.94,0,0,0-2.84,5.63,3,3,0,0,0,.95,2.76,1.53,1.53,0,0,0,2.27-.47,1.16,1.16,0,0,0-.41-1.56Z"/><path class="cls-1" d="M194.3,256.46a79.34,79.34,0,0,0,17.38,3.6,1.63,1.63,0,0,0,1.62-1.62c-.53-5.29-19.7-3.57-18.73-7.58a1.72,1.72,0,0,0-.78-1.92l.85-.77.78,1.08a17.76,17.76,0,0,1,1.47,2.37,20.25,20.25,0,0,0,2.18,3c1.06,1.14,3,3,4.59,1.68,4-3.42-6.26-6-8-6.17-2-.21-2,2.89,0,3.1a44.06,44.06,0,0,1,13.52,4.18,1.43,1.43,0,0,0,1.44-2.46c-4.46-3-9.64-4.34-15-4.82v3.1c.61.06,5.26,1.65,5.35,1.31l1.17-1.17c-.91.38-4.45-9.43-8.44-8.61-2.91.59-5,5.69-1.7,7.11l-.78-1.92c-.84,3.41,1.76,5,4.7,6,1.92.65,13.76,3.09,14.13,2.09l2-1.14c-5.6-1.28-11.35-2.36-17-3.3a1.5,1.5,0,0,0-.8,2.89Z"/><path class="cls-1" d="M191.13,251.42l-.28-.3-1.84.24c2.32,2,6.86,3.78,9.88,2.67a.84.84,0,0,0,.19-1.51,17.39,17.39,0,0,0-4.3-1.43c-1.6-.45-3.05-1.21-4.63-1.69a1.18,1.18,0,0,0-1.32,1.72,3.2,3.2,0,0,0,1.83,1.42c.69.21,1-.74.47-1.12Z"/><path class="cls-1" d="M199.81,253.2l-.11-.11-1.63.66c7.18,2.29,15.51,4.48,23.06,4.8,1.81.08,2.07-2.58.41-3.08-7.18-2.2-15.27-3.32-22.71-4.5-1.45-.23-2.74,1.93-1.11,2.64a5.78,5.78,0,0,1,1.11.56c.6.34,1.38-.36,1-1Z"/><path class="cls-1" d="M206.51,258.61c3.26.29,6.53.48,9.81.52,2.28,0,5.06.43,7.18-.5a1.65,1.65,0,0,0,.85-1.48l0-.23a1.46,1.46,0,0,0-1-1.33l-.19-.06a1.07,1.07,0,0,0-1,.27l-.16.16a.9.9,0,0,0,.18,1.39l.2.14-.39-1.47-.14.21,1.55-.64c-2-.77-4.89-.19-7-.17-3.27,0-6.54,0-9.81.05-2,0-2,3,0,3.14Z"/><path class="cls-1" d="M214.26,255.65l-1.21.3c-1.77.43-1.21,2.82.4,3,3.29.31,16.07,1.8,16.05-3.82a1.79,1.79,0,0,0-1.28-1.68c-4.37-1.46-10.31-.3-14.67.76l.82,3a57.85,57.85,0,0,1,12.54-2l-.44-3.25a30,30,0,0,1-7.68.5L220,255.2c.42-.34,10.09-1.91,10.18-1.41l.44-1.66c-.61.67-3,1-3.88,1.27l2.14,2.13c1.31-1.86,2-1.78,2.16.26a1.49,1.49,0,0,0,2.88.79c1.59-6.06-5.93-7.35-8.21-2.38a1.76,1.76,0,0,0,2,2.55c1.79-.56,9.08-2.66,4.63-5.63-2-1.32-5.56-.5-7.73-.23-2.4.29-5,.45-6.88,2-1.19,1-.13,2.72,1.15,2.79a36.11,36.11,0,0,0,8.56-.58c1.82-.35,1.41-3.34-.44-3.25a51.39,51.39,0,0,0-13.36,2.34,1.55,1.55,0,0,0,.82,3c3.48-.95,9-2.09,12.5-.55l-.87-1.51,0,.61.88-1.52c-3.51,2.51-9.32,1.69-13.4,1.69l.77,2.83,1.11-.54c1.45-.7.41-2.89-1.07-2.53Z"/><path class="cls-1" d="M230.58,257.14a12,12,0,0,0,7.32-3.47,1.69,1.69,0,0,0-2-2.65c-.46.28-2,1.1-2.48.51l.48,1.16c-.21.25-.12.37.26.35l-.77-1c-.24-.88-.51-.6-1.42-.58-.72,0-1.44,0-2.17,0-1.44,0-2.89-.05-4.33-.14v3.74c3.13-.07,4.22,1.87,6.53,3.44a1.47,1.47,0,0,0,2.19-1.26c-.38-3.94-5.23-6-8.72-5.92-2.43,0-2.38,3.57,0,3.74a49.16,49.16,0,0,0,6.07.12c1.44-.07,3.25,0,4.4-1.06a2.56,2.56,0,0,0-1.75-4.49c-2-.11-4.45,1.71-3.35,3.89,1.26,2.5,4.89,1.22,6.76.41l-1.7-2.91a47.08,47.08,0,0,1-6.06,3.25,1.55,1.55,0,0,0,.78,2.87Z"/><path class="cls-1" d="M231.94,254.79c-2.83-.87-6.27-.1-9.13.4-2.39.42-1.64,3.9.54,4,3.58.21,17.31,0,14.35-6.95-1.07-2.51-3.81-3.11-6.26-3.09s-6.3.36-7.48,2.92A1.26,1.26,0,0,0,225,254a21.91,21.91,0,0,0,3.69-1c.65-.15,4.21-.82,4.78-.11l-.16,1.35q-.65.17-1.32.27c-.93.17-1.88.3-2.82.42a32.66,32.66,0,0,1-5.85.23l.55,4c2.7-.86,5.76-1.13,8.31-2.34a1.11,1.11,0,0,0-.27-2Z"/><path class="cls-1" d="M237.32,254.69c-3.62-3.92-9.27-6.61-14.72-5.7-1.83.31-1.21,2.89.41,3,5,.42,9.06,1.1,13.24,4.06.85.6,1.73-.68,1.07-1.39Z"/><path class="cls-2" d="M202.22,232c0,4.69,6.68,10,10.05,12.58,4.93,3.71,11.44,7,17.76,6.46,1.46-.12,2.52-2.4.84-3.12-4.35-1.87-8.87-3.07-13-5.5-3.69-2.17-10.18-6.63-11.65-11-.72-2.13-4-1.85-4,.55Z"/><path class="cls-2" d="M204,232c.2-5.09,2.29-10-.09-14.85-2.77-5.73-7.81-10.22-7.93-17.06-.25-14.05,15.2-20,26.83-20.77,6.93-.48,12.39.46,17.74,5.13,4.39,3.83,9.44,8.6,11.2,14.28,1.7,5.47,1.3,11.93,1.27,17.62a58.08,58.08,0,0,1-3,18.34c-1,3,3.61,4.93,5.09,2.14,3.45-6.55,4.05-14,4-21.34,0-6.76.2-14.33-2.53-20.66s-8.63-11.78-14-15.88c-5.52-4.23-11.31-5.41-18.17-5-12.63.74-26.5,5.26-31.76,17.92a20.87,20.87,0,0,0,.77,17.46c1.74,3.64,4.76,6.58,6.44,10.18,1.88,4,.59,8.62,1.64,12.82A1.27,1.27,0,0,0,204,232Z"/><path class="cls-2" d="M205.17,232.3a12.2,12.2,0,0,1-.72-3.37c-.21-1.26,0-2.34-1.1-3.19a1.23,1.23,0,0,0-1.28,0c-1.38.78-1.12,2.74-.77,4.06a7.79,7.79,0,0,0,2.5,3.56.88.88,0,0,0,1.37-1.06Z"/><path class="cls-2" d="M203,230.32a12,12,0,0,0,1-1.95L200.9,228a15.74,15.74,0,0,0,3.24,9.29c1.2,1.49,3.14-.19,2.89-1.69-.52-3-.7-6-1.48-9-.25-.93-1.81-1-2,0a34.78,34.78,0,0,0,.07,9.45l3.23-.87a17.59,17.59,0,0,1-2.77-7.19c-.25-2.41-3.85-1.69-3.13.42a12,12,0,0,0,1,1.95.64.64,0,0,0,1.08,0Z"/><path class="cls-2" d="M196.64,212.78c.17,2.13.86,4.21,1,6.34a27.67,27.67,0,0,1-1.41,8.64c-1.23,4.55-3.53,9.54-3.33,14.28a2,2,0,0,0,3.67,1c3.23-4.8,4.23-12.6,5.19-18.27.78-4.56.31-9.3-2.58-13a1.48,1.48,0,0,0-2.51,1Z"/><path class="cls-2" d="M194.89,241.48l-.47.3a2.16,2.16,0,0,0-.75,2.87c4.7,8.84,21.69,11.6,29.69,6.36,2.3-1.51.73-4.54-1.77-4.2-5.18.72-9.46,2-14.76.76a20.83,20.83,0,0,1-6.6-2.67c-1.54-1-2.67-2.58-4.28-3.42a1.06,1.06,0,0,0-1.06,0Z"/><path class="cls-2" d="M230.05,251.4c6.25-.3,11.71-4.55,17-7.57,3.55-2,9.42-4.7,7.7-9.77a2.37,2.37,0,0,0-4.52,0c-1.47,3.68-6.27,5.44-9.49,7.38-3.63,2.18-7,4.54-11.29,5.3-2.63.46-2,4.79.64,4.66Z"/><path class="cls-3" d="M239.78,210.11c1.87-.85,3.44-2.2,5.4-2.85s3.93-.4,5.72-1.23c1.3-.6,1.06-2.47,0-3.13-2.21-1.38-5.46-.42-7.66.59s-4.53,2.7-5.2,5.28a1.2,1.2,0,0,0,1.74,1.34Z"/><path class="cls-3" d="M217.3,206.12c.65-.35,3.59.31,4.39.41a30.08,30.08,0,0,1,4.29.83,22.24,22.24,0,0,1,6.24,3.16,1.75,1.75,0,0,0,2.54-2c-1.95-6.3-13.26-6.62-18.45-5.8a1.75,1.75,0,0,0-.76,2.9l.31.26a1.23,1.23,0,0,0,1.44.19Z"/><path class="cls-3" d="M230.48,224.66c2.53,2.31,7.84,2.56,10.28,0a1.12,1.12,0,0,0-.78-1.88c-1.36.08-2.64.48-4,.44a21.79,21.79,0,0,1-4.17-.8c-1.24-.26-2.4,1.31-1.32,2.28Z"/><path class="cls-3" d="M240.91,224.46c1.26-2.7.63-6.3-.78-8.82a1.07,1.07,0,0,0-2,.53,30.74,30.74,0,0,0-.1,4.07,16.33,16.33,0,0,0,.34,3.89,1.4,1.4,0,0,0,2.52.33Z"/><path class="cls-3" d="M219.15,211.88a18.21,18.21,0,0,1,2.9-.39,9.7,9.7,0,0,1,2.62.43,6.62,6.62,0,0,1,4.35,3.73c.56,1.12,2.14.3,1.92-.81-.56-2.84-3.44-4.5-6.06-5.11-2.12-.5-6-.83-7.31,1.41a.85.85,0,0,0,0,.87l.15.25a.77.77,0,0,0,1.43-.38Z"/><path class="cls-3" d="M218.2,211.71c-1.46,2.24,2.17,4.62,3.92,5.3,2.51,1,5.81,1.06,7.89-.85.62-.57,0-1.4-.74-1.29-2.12.36-4,.94-6.15.23a6.62,6.62,0,0,1-3-1.95c-.54-.64-.67-1.16-1.4-1.58a.4.4,0,0,0-.52.14Z"/><path class="cls-3" d="M242.1,214.74c2-1.73,3.88-4.85,6.93-3.54a.72.72,0,0,0,1-.8c-.48-2.59-3.84-1.77-5.39-.82-1.38.84-4.22,3-3.54,4.91a.59.59,0,0,0,1,.25Z"/><path class="cls-3" d="M241.51,215.59c1.93.7,4.7,1.61,6.62.4,1.67-1.06,3.11-3.47,2.21-5.39a.83.83,0,0,0-1.5.2c-.36,1.52-.93,3.54-2.79,3.65-1.47.08-2.88-.55-4.32-.42a.8.8,0,0,0-.22,1.56Z"/><path class="cls-3" d="M224,214.18c0-.56,1.44-.23,1.41.09l.23-.56c.21-.1.18-.13-.07-.08a2.56,2.56,0,0,1-.39,0c-.12,0-.55-.22-.44-.06l.13.49v-.13l-.13.49c.21-.46,1.33.07.48-1-.09-.11-.36,0-.1,0s.3,0,.45,0,.36.16.41,0c0,.1-.72.12-.82.12s-.48-.13-.6-.08c-.19-.1-.2,0,0,.19,0,.26.12.31.29.16.21,0,.42-.16.66-.13,0,0,.46.15.41,0s-1.44.46-1.31-.33a.56.56,0,0,0-.8-.62,1.33,1.33,0,0,0-.51,1.75,1.93,1.93,0,0,0,2.13,1c.69-.09,1.65-.41,1.85-1.18a1.53,1.53,0,0,0-1-1.61,3.31,3.31,0,0,0-2.3,0,1.3,1.3,0,0,0-.72,1.9,2.28,2.28,0,0,0,2.07.72,2.32,2.32,0,0,0,2.11-1.1,1.45,1.45,0,0,0-.56-1.87,2.85,2.85,0,0,0-2.22-.17,1.62,1.62,0,0,0-1.2,1.22,1.58,1.58,0,0,0,1.51,1.84,1.75,1.75,0,0,0,1.84-1.2,1.27,1.27,0,0,0-1.23-1.53,3,3,0,0,0-2.22.64,1.31,1.31,0,0,0,.61,2.17,3.28,3.28,0,0,0,2.62-.22c.89-.61.34-1.6-.35-2.09a2.5,2.5,0,0,0-2.32-.3,1.15,1.15,0,0,0-.67,1.72.44.44,0,0,0,.81-.22Z"/><path class="cls-3" d="M246.34,212.64c0,.22.07.27.22.15a.19.19,0,0,1,.11.17l.05-.11a1.63,1.63,0,0,1-.37.08c-.26,0-1,.12-1-.19v.46c.06-.36.73-.38,1-.39h.33c.21-.71.16-.93-.15-.65-.18.06-.3.19-.5.2s-.26-.1-.33-.09c-.32.31-.38.43-.15.36h.25a.84.84,0,0,1,.74.69v-.49q.34-.18,0-.06a1.27,1.27,0,0,1-.28.06,3,3,0,0,1-.67,0,.85.85,0,0,0-.45,1.64c1.07.44,2.86.28,3.13-1.09.23-1.14-.94-2.19-1.95-2.44-1.16-.27-2.73.28-2.44,1.73a2.09,2.09,0,0,0,2.8,1.42c1-.35,2.25-1.69,1-2.55a3.52,3.52,0,0,0-3.27.18,1.48,1.48,0,0,0,.2,2.71c.94.36,2.67.19,3.27-.73a1.54,1.54,0,0,0-1.54-2.25c-1.17.23-1.83,1.82-.5,2.34.65.26,1.12-.84.48-1.14Z"/><path class="cls-3" d="M226.07,214.21c-.1-.12-.3-.51-.47-.53l0-.08a.22.22,0,0,1,0,.16c-.52,0-.67,0-.46.2l.07.1c0,.18.08.14.14-.14a.43.43,0,0,1-.26.09c-.35.07-.53-.11-.82-.23a.42.42,0,0,1-.09-.14c-.07.09-.07.14,0,.16s.26-.07.36-.05.12,0,0,.12-.27.09-.21.11-.16.12,0-.12c.45-.54,1.3-.11,1.78.16a.67.67,0,0,0,1-.74c-.18-1.28-1.76-1.63-2.83-1.43a2.24,2.24,0,0,0-1.92,2.24,2,2,0,0,0,2.6,1.77,2.21,2.21,0,0,0,1.56-2.66c-.8-2.73-5.59-1.22-4.11,1.45a2.92,2.92,0,0,0,3.18,1.29,1.91,1.91,0,0,0,1.39-2.72c-.56-1.17-2.23-1.92-3.09-.6a2,2,0,0,0,1.41,3,.85.85,0,0,0,.82-1.4Z"/><path class="cls-2" d="M192.2,240.81c-2.42,1.91-8.15,8.06-4.69,11.12a1.78,1.78,0,0,0,2.75-.35,6.64,6.64,0,0,0,.61-1.89A6.67,6.67,0,0,1,192,247.5a25.79,25.79,0,0,1,3.11-3.8c1.94-1.89-.88-4.48-2.89-2.89Z"/><path class="cls-2" d="M186.8,254.42c5.37,7.15,14.26,8.54,22.68,9.17,10.13.76,21.6.93,30.41-4.94a2.74,2.74,0,0,0-2.76-4.72c-8,4.17-16.21,4.8-25.15,4.45-7.76-.31-15.86-.81-21.55-6.76-1.76-1.85-5.23.66-3.63,2.8Z"/><path class="cls-2" d="M239.23,258.24l.11,0a1.67,1.67,0,0,0,1.66-.44c3.32-3.46.85-8.21-1.78-11.14a2.28,2.28,0,0,0-2.26-.59,2.1,2.1,0,0,0-1,.59,2.38,2.38,0,0,0-.36,2.81c1.19,1.59,2.57,2.64,2.65,4.77.05,1.26-.69,3.43,1,4Z"/><path class="cls-2" d="M229.67,234.9c2,.68,4.4.23,6.5.33s4.31.69,6.35-.23c1.42-.64,1-2.52,0-3.26-1.84-1.33-5-1.08-7.18-1s-4.66.26-6.26,1.9a1.36,1.36,0,0,0,.59,2.25Z"/><path class="cls-2" d="M207.26,215.27c-4.62,2.09-5.59-4.08-5.89-7.18-.19-2,.4-4.81,2.86-3.2,1.58,1,1.31,3.29,1.61,4.9s2.32,1.22,2.73,0a7,7,0,0,0-3.74-8.31,4.88,4.88,0,0,0-6.77,3.7c-.52,3.42.4,8.81,2.73,11.49s5.83,2.73,7.41-.46a.69.69,0,0,0-.94-.94Z"/></svg>