<svg id="Layer_1" data-name="Layer 1" xmlns="http://www.w3.org/2000/svg" viewBox="0 0 500 500"><defs><style>.cls-1{opacity:0.53;}.cls-2{fill:#00b700;}.cls-3{fill:#2b2bbf;}.cls-4{fill:#0f090b;}.cls-5{fill:#04b204;}</style></defs><title>17Artboard 1</title><g class="cls-1"><path class="cls-2" d="M135.26,121.68c4.65.52,9.33.77,14,1l2.8.12q3,.81,1.15-.74c.28,1-.91,5.22-1.34,6.22l2.84-2.19c-.88.24-3.93-2.49-4.66-3l-2.73-2c-.32-.23-2.72-2.4-2-.74l-.47,3.58.46-.73-2.78,2.14c1.25-.48,2.89-.23,4-.64q1.4.56,1.68-1.2,1.91-1.64-.5-1.74c-1.7-1.41-5.95-1-7.19-2.81-3.59-5.19-12-.5-8.58,5,1.64,2.68.73,6.29,1.55,9.27a12.08,12.08,0,0,0,5.37,7.18l1.22-9.33-1.39.21,2.71,9.82c2.92-1.13,7.46,1.81,10.44,2.3a27.6,27.6,0,0,0,10.71-.38c5.44-1.18,4.34-10.3-1.33-9.84-2.92.24-5.83.48-8.75.63-2.16.11-5.12.75-7.11-.33l-1.18,9.08c4.53-1,9.43-.29,14-.11l14.26.58v-10l-12.72-.13,2.51,9.27c3.22-2.28,6.45-4.53,9.68-6.79,2.76-1.92,3.75-7,0-8.67a14.79,14.79,0,0,0-6.26-1.51c-2.15,0-4.52.79-6.42-.45l.92,7.09a9.89,9.89,0,0,1,6-2.08c4.86-.35,6.69-8.09,1.23-9.08-2.61-.48-5.58-.82-7.6-2.72l-3.29,8c2.39-.17,4.78-.26,7.17-.51,7-.73,5.72-10.82-1.3-9.56a7.22,7.22,0,0,1-4.69-.46l-2.34,8.49c9.54,1.45,18.85,1.7,28.27-.72l-5.72-7.44c-2.28,4.33-.65,8.88-1.28,13.52a11,11,0,0,0,.41,5.54,8.41,8.41,0,0,0,1.51,2.61c.7.82,2.23,3.15.76.54v-5l-.27.45,2.94-2.27c-3.59,1.52-7.92,1.15-11.65.48-5.14-.91-9.39,6.58-3.86,9.16,5.21,2.43,14.66,4.06,17.93-2.44a7.47,7.47,0,0,0-1.2-8.25,23.29,23.29,0,0,0-4.83-3.89c-1.35-.93-4.51-1.93-5.47-3.12l1.28,4.87c-1.53.92-2.07.57-1.64-1-2.55,3.56,2.45,8.33,6,6s4.71-6.82,2.09-10.38c-3-4-8.42-3.94-12.46-1.64-3.5,2-5.26,6.48-2,9.66,1.88,1.86,5,2.78,7.18,4.33,1.46,2,2.25,1.91,2.38-.35q1.66-2.42-.73-1.66c-1-.65-3.4-.74-4.63-1.22l-1.33,9.84c5.44.6,15.25,1.57,18.85-3.51,1.07-1.51.72-3.47,0-5-.24-.53-2-2.06-2-2.26a8.06,8.06,0,0,0,1.13-2.42c.28-1.78-1-6.11-.33-7.43a5.13,5.13,0,0,0-5.72-7.44c-8,2.15-16.23,1.6-24.4,1.84-4.77.15-6.21,7.59-1.17,8.65,2.34.49,4.67,1,7,1.36l1.3-9.56a25.78,25.78,0,0,0-8.41,1.1c-3.08.86-4.89,5.52-2.05,7.78a25.09,25.09,0,0,0,11.73,5l1.22-9.08a24.67,24.67,0,0,0-11.46,4.24c-2.13,1.44-3.37,5.17-.91,7.09a12.62,12.62,0,0,0,5.94,2.8c2.26.41,5-.18,7.15.74v-8.67c-3.21,2.3-6.41,4.6-9.64,6.87-3.9,2.75-2.69,9.2,2.51,9.27l12.72.18c6.46.09,6.41-9.73,0-10-10-.41-21.14-2.34-30.94-.05-4.07,1-4.94,7.12-1.18,9.08,6.24,3.25,14.12,1.38,20.87,1.13l-1.33-9.83c-7.52,1.45-13.91-4.19-21.2-2.08-5.28,1.53-4.53,10.78,1.35,10l1.4-.18c4.92-.64,7.07-6.49,2.58-9.51-1.36-.92-1.06-5.05-1.28-6.52a14.82,14.82,0,0,0-2.22-6.13l-8.58,5c4.76,6.63,27,13.53,24.72-1.19-1.89-12.37-25.26-7.69-19.55,1.75,1.34,2.21,4.25,3.59,6.3,5.06,2.52,1.79,4.95,3.87,7.82,5.07,6.26,2.61,9.41-1.14,10.89-6.9,1.37-5.39,2.27-11.69-4.07-14.15-3.11-1.21-7.31-.88-10.57-.94-4.06-.07-8.1-.08-12.14.2-5.75.39-5.58,8.18,0,8.81Z"/></g><path class="cls-3" d="M120.73,142.46c1.5-3.19,1.55-7,2.26-10.42s2.32-7,2.16-10.6a1.62,1.62,0,0,0-3-.81c-2.28,3-2.76,7.41-3.41,11-.6,3.35-1.5,7.15-.59,10.48a1.42,1.42,0,0,0,2.56.34Z"/><path class="cls-3" d="M122.21,145.46c1.56-4.25,3.13-8.49,4.4-12.84l-3.6-.49A55.43,55.43,0,0,1,122,143l4.28.58a94.32,94.32,0,0,1,2.17-13.68l-3.23-.44c0,3,0,6,0,9,0,1.73.1,3.37,1.53,4.53a2,2,0,0,0,3.21-.85l.35-1c.45-1.31-1.13-2.25-2.2-1.69l-1,.5,2.33.3c-.92-1.05-.6-4.14-.68-5.4-.11-1.79-.21-3.58-.3-5.38a1.66,1.66,0,0,0-3.24-.43A63,63,0,0,0,122,143.62c-.35,2.75,4.07,2.79,4.36,0a84.75,84.75,0,0,0,.37-11.49,1.84,1.84,0,0,0-3.6-.48c-1.5,4.26-2.69,8.62-3.89,13-.55,2,2.34,2.71,3,.84Z"/><path class="cls-3" d="M124,143.78l0-.07a1.54,1.54,0,0,0-.69-1.7,1.72,1.72,0,0,0-1.74,0,1.61,1.61,0,0,0-.72,1.76c.32,1.47,2.06,1.76,3.26,2.2,1.74.65,3.51,1.18,5.26,1.76,1.5.49,3.19-1.47,2.18-2.83-.79-1-1.4-2.46-2.83-2.74a1.07,1.07,0,0,0-1.33,1c0,.93.64,1.75.57,2.7L130.4,144c-2.49-.74-5.34-2-8-2.11l1.14.47-.13-.12.24,1.89.06-.09-1.33.76h.12l-1.45-1.1,0,.07a1.5,1.5,0,0,0,2.86,0Z"/><path class="cls-3" d="M127.21,145.18l.56.47a1.53,1.53,0,0,0,2.58-1.07,103,103,0,0,0-.66-12.28c-.25-3.44,0-7.05-.75-10.41a1.1,1.1,0,0,0-2-.26c-2.15,3.19-1.34,7-1,10.67A105.33,105.33,0,0,0,127.38,145l1.86-1.86-.69-.25a1.39,1.39,0,0,0-1.34,2.31Z"/><path class="cls-3" d="M131.63,145c1.41-4.57,1.46-10.34.92-15.07-.24-2.1-.84-4.09-1.28-6.15-.56-2.53-.49-5.17-1.4-7.59a1.21,1.21,0,0,0-2-.53c-3.08,3.26-1.11,7.8-.16,11.66,1.44,5.88.14,11.82,1.17,17.68.26,1.47,2.37,1.24,2.75,0Z"/><path class="cls-3" d="M122.86,135.87c.9-6,4-11.07,6-16.67l-2.8-.77c-1.36,4.94-3.42,9.68-5.23,14.47h3.35a20.11,20.11,0,0,1,1.7-12.54l-3.37-.91a114.48,114.48,0,0,1-.37,17.07l2.22-1.69c-1.59-.51-2.18-7.72-2.23-8.46a28.83,28.83,0,0,1,.76-8.68,1.93,1.93,0,0,0-3.72-1,32.87,32.87,0,0,0-1.67,15.7c.26,1.92,3.46,2.9,3.82.51.69-4.59-1.19-9.21-1.06-13.92.18-6.09.82-12.21,5.17-16.85l-3.38-2a28.09,28.09,0,0,0-1.08,3.92,1.09,1.09,0,0,0,1.81,1,26.08,26.08,0,0,0,2.65-3c1.54-2-1-4.82-2.86-2.86-3.57,3.8-5.26,8.33-5.93,13.46a62.27,62.27,0,0,0-.48,9.84c.09,3,1.86,6.36,1.41,9.3l3.82.52a31.44,31.44,0,0,1,1.5-14.68l-3.72-1a32.6,32.6,0,0,0-.25,13.52c.61,2.95,1.28,7.07,4.51,8a1.77,1.77,0,0,0,2.22-1.69c.46-5.7.46-11.36.48-17.07a1.82,1.82,0,0,0-3.37-.91,21.14,21.14,0,0,0-1.93,15.28,1.75,1.75,0,0,0,3.35,0c1.48-4.89,2.75-9.89,4.68-14.62.68-1.66-1.76-2.31-2.66-1.12-3.87,5.12-6.14,11-5.78,17.47.08,1.27,2.17,1.75,2.39.32Z"/><path class="cls-3" d="M116.46,120.29a26.2,26.2,0,0,1-.71,4.82l3.4-.44c-2.5-5.25-2.55-14.25-.59-19.71a21,21,0,0,1,5.13-7.5c1.12-1.11,5.36-5.8,6.83-5.81A1.5,1.5,0,0,0,132,89.77l-.11-.54a1.93,1.93,0,0,0-1.84-1.4c-3.16,0-6.35,3.25-8.54,5.26a26.51,26.51,0,0,0-6.92,9.24c-2.88,7-2.68,17.74,1.4,24.21.9,1.43,3.67,1,3.46-.93a28.66,28.66,0,0,1,.06-5.32c.13-1.93-2.83-1.9-3,0Z"/><path class="cls-3" d="M120,121.28c-.19-4.33-.16-8.42,1.25-12.59s4-7.31,6.34-10.91l-3.36-.91c-.07,4.14-2,7.9-3,11.85a52.15,52.15,0,0,0-1.33,9.64h3.43c-.22-6-1-17,5.33-20.61l-2.09-.27c1.08.88-1.86,11.51-2.14,12.92A72.85,72.85,0,0,0,123,121.09h4a43.87,43.87,0,0,1,4.72-19.3l-3.56-.47c.61,2.69-1.09,6.39-1.78,9q-1.16,4.37-2.34,8.72l4,1.1a74.69,74.69,0,0,1,4.25-15l-3.87-.53a49,49,0,0,1-2.73,12.79l3.75.51a94,94,0,0,1,1-13.92c.3-2-2.64-2.87-3.05-.84A100.35,100.35,0,0,0,125.63,118c-.1,2.21,3.13,2.51,3.75.51a71,71,0,0,0,3-13.81c.25-2.41-3.1-2.37-3.87-.52A74.52,74.52,0,0,0,124.07,119c-.49,2.58,3.35,3.72,4,1.1.92-3.8,1.88-7.59,2.84-11.39.74-3,1.72-5.48,1.06-8.46a2,2,0,0,0-3.56-.47,47.65,47.65,0,0,0-5.4,21.27c0,2.6,4,2.59,4,0,.13-6.11,1.63-12,2.43-18,.29-2.16,1.51-6.33-.44-8a1.8,1.8,0,0,0-2.09-.27c-7.94,3.58-7.5,16.66-7,23.58a1.72,1.72,0,0,0,3.43,0c.27-7.34,3.06-13.9,4.43-21,.27-1.4-1.25-3-2.65-2-7.72,5.44-10.74,17.57-8.06,26.37.47,1.56,3,1.34,2.94-.4Z"/><path class="cls-3" d="M126.59,109.51c3.67,4.11,11.11,3.52,16.13,3.42,6-.11,13.93-.33,19-3.79a1.39,1.39,0,0,0-.7-2.57c-5.41-.53-11,1.36-16.48,1.64s-11.28.5-16.55-1.15c-1.48-.47-2.35,1.42-1.43,2.45Z"/><path class="cls-3" d="M127.29,107.61a73.84,73.84,0,0,0,19.91,2.71c6.77.16,13.9-1.35,20.52.36,4.71,1.22,7.52-5.32,3.31-7.86a49.34,49.34,0,0,0-29.23-7.23c-1.42.11-2.84.28-4.24.5-1.05.16-2.08.36-3.11.6q-3,0-.52,2.62l-1.3,3.12c3-3.76,12.17-3.45,16.37-2.73l1-7.3c-7.74.78-15.55,1-23.32,1.53l3.24,5.63c2.44-4.48,6.19-5.62,10.91-6.33l-.95-7c-6,.35-11.4,1.71-16.35,5.28l4.81,4.8c3.53-6.46,10.94-6.2,17.41-7.05,7.49-1,13.47-1.41,18.53,4.93,2.19,2.75,6-.32,5.4-3.15-2.08-10.3-15-10.18-23.09-9.09-9.58,1.29-19,1.64-24.31,10.81-1.69,2.9,1.81,6.85,4.8,4.81a21,21,0,0,1,12.8-4.16c3.95.12,5-6.46.95-7.06-7.24-1.07-14,3.14-17.38,9.48-1.24,2.33.26,5.85,3.23,5.63,7.76-.56,15.54-1.33,23.32-1.58,4.32-.14,4.88-5.88,1-7.3a26.42,26.42,0,0,0-19.9.56c-4.59,1.94-9,7.21-3.62,11.43,2.36,1.86,5,1.45,7.72.77a42.89,42.89,0,0,1,10.57-1.7,36.88,36.88,0,0,1,20.94,6.66l3.31-7.86c-6.31-2.36-13.38-.88-19.95-.87-7.3,0-14.48-.93-21.75-1.32-4.36-.23-5,6.2-1,7.41Z"/><path class="cls-3" d="M137.68,92.68c9.41.95,18.92,6,27.27,10.13,4.69,2.32,7.77-4.77,2.81-6.65-3.55-1.35-12.57-3.87-14.13-7.77l-1.23,3c3.54-2.1,10.56,4.25,11.87,6.85l1.81-4.46c-2.61.37-5.87-.91-8.37-1.61-1.4-.39-6.72-2.81-6.9-1.33l-2.33,3.06c3.47-1.18,7.79,1.67,10.77,3s6.13-2.12,3.61-4.68c-3.63-3.7-11-6.41-16.06-4.46a3.37,3.37,0,0,0-2.33,3.06c-.33,4.07,4.55,5,7.51,6,5,1.6,10.44,3.56,15.72,2.84,2.09-.28,2.58-2.93,1.82-4.47-3-6.12-14.19-13.32-20.34-8a2.69,2.69,0,0,0-.42,3.23c1.43,2.27,3.26,3.21,5.51,4.62a95,95,0,0,1,9.94,7.18l4.41-5.72C160,92,147,85.1,137.06,88.14c-2.6.8-1.91,4.29.62,4.54Z"/><path class="cls-3" d="M139.51,85.47l-1.09-.59-2.28,4c8.71-1.8,18.51-2.28,26.68,2,7.37,3.85,10.33,10.22,12.91,17.7,1.44,4.19,8.35,3.81,8.12-1.1-.49-10.27-8.47-20-17.53-24.29a41.33,41.33,0,0,0-17.15-3.66c-5.47-.07-12-.13-16.2,3.9-3.28,3.19,2.23,7.85,5.12,4l.85.19c1,0,1.66-1.61.57-2.11Z"/><path class="cls-3" d="M166.75,99.67c3.29,2.25,4.94,5.16,6.31,8.83l4.12-4.11c-1.4-.24-4.05-3.87-4.48-4.59-1.49-2.52-5-.76-4.5,1.9a25.9,25.9,0,0,0,2.59,7.39l3-5.18c-8.12-.89-16.5-1.67-24.66-1.12-5.4.36-5.5,8.68,0,8.49,10-.36,19.95.5,29.9.59,3.88,0,4.52-5.55.9-6.66-9.7-3-20.78-1.48-30.8-2.42v8.49c8.21.11,16.44-.46,24.66-.48,2.81,0,4.76-3.87,2.43-5.88a10.3,10.3,0,0,1-3.25-4.53l-4.5,1.9c2.39,3.13,2.68,7.41,7,8.55a3.38,3.38,0,0,0,3.78-4.91c-2.25-4.37-6.19-7.38-10.59-9.41a1.83,1.83,0,0,0-1.84,3.15Z"/><path class="cls-4" d="M132.56,115.31c8.87,1,17.92,1.1,26.84,1.38q6.57.21,13.13.31c4.16.06,8.72.54,12.78-.49,2.54-.64,2.7-4.75,0-5.3-3.89-.79-8-.32-12-.33-4.65,0-9.29-.08-13.93-.18-8.91-.19-17.94-.78-26.84-.26a2.44,2.44,0,0,0,0,4.87Z"/><path class="cls-4" d="M131.15,115l1.08-.43-2.85-2.17c0,6.14.76,12.31,1.27,18.43.44,5.35-.05,12,2,17,.68,1.6,3.25,2.06,3.74,0,1.33-5.59-.32-12.28-.81-18-.51-6-.84-12.1-1.82-18.06-.44-2.67-4.2-1.74-4.42.6l-.11,1.17a1.5,1.5,0,0,0,1.88,1.43Z"/><path class="cls-4" d="M136.2,147.35c-1.36-2.23-4.08-2.28-6.46-2.7s-4.49-.77-6.69-1.38-4.12-1.71-6.43-2-2.74,2.58-1.63,3.92c2.88,3.44,9,3.71,13.14,4.27,2.61.35,5.75,1.17,7.89-.68a1.21,1.21,0,0,0,.18-1.44Z"/><path class="cls-4" d="M117.43,143.61c.47-2.1.78-4.24,1.21-6.35s1.11-3.92,1-5.95c-.08-1.23-1.82-2.33-2.75-1.14-2.6,3.31-3.29,8.82-3.25,12.93,0,2.13,3.31,2.69,3.8.51Z"/><path class="cls-4" d="M119.14,132.14c-3.67-9.94-4.89-20.93-1.55-31.18,3-9.09,11.19-14.94,19.89-18,9.85-3.45,22-2.71,31.12,2.53,10.13,5.81,12.85,17.37,14.41,28.28.52,3.69,6.12,2.12,5.6-1.55-1.85-13-5.68-25.56-17.82-32.06-10.8-5.79-24.61-6.4-36-2.08-9.61,3.65-18.34,10.22-22,20.14a38.22,38.22,0,0,0-2.16,18.29c.83,5.77,1.39,13,6.15,17,1,.82,2.88.07,2.35-1.37Z"/><path class="cls-4" d="M133.78,141c2.26,3.77,8.13,4.4,12.13,5.17a76.52,76.52,0,0,0,16.89,1.24,126.07,126.07,0,0,0,16.9-1.87c3.73-.63,8.29-.64,9.69-4.72.74-2.15-2.34-3.92-3.84-2.23-2.34,2.61-8.62,2.47-11.92,2.95a111.27,111.27,0,0,1-15.57,1.33,63.79,63.79,0,0,1-13.65-1.28c-3.38-.72-6.7-2.7-10.11-1.87a.87.87,0,0,0-.52,1.28Z"/><path class="cls-4" d="M185.17,114.11c-1.55,3.61.39,7.76.91,11.53.69,5,0,10.14,1,15,.37,1.72,2.73,1.46,3.23,0,1.63-4.76.69-10.66,0-15.56-.54-3.84-.71-8.9-4.16-11.21a.73.73,0,0,0-1,.26Z"/><g class="cls-1"><path class="cls-5" d="M180.39,138.73c2-2.37,1-6.24.65-9.12a24.26,24.26,0,0,0-2.49-9,1.22,1.22,0,0,0-2.2.29,5.52,5.52,0,0,0,.22,3.6,29.1,29.1,0,0,1,1,5.73c.28,2.73-.25,6.42,1.76,8.47a.78.78,0,0,0,1.08,0Z"/></g></svg>