<svg id="Layer_1" data-name="Layer 1" xmlns="http://www.w3.org/2000/svg" xmlns:xlink="http://www.w3.org/1999/xlink" viewBox="0 0 500 500"><defs><style>.cls-1{opacity:0.96;fill:url(#radial-gradient);}</style><radialGradient id="radial-gradient" cx="59.01" cy="62.36" r="15.59" gradientUnits="userSpaceOnUse"><stop offset="0.34" stop-color="red"/><stop offset="1" stop-color="#d4145a" stop-opacity="0.1"/></radialGradient></defs><title>18Artboard 1</title><path class="cls-1" d="M74.83,55.15c-1.77-3.43-7-6.28-10.84-5.46-1.83.39-2.25,1-4.33.7s-2.33-.9-3.94-1.71a9,9,0,0,0-5.46-.83,8.05,8.05,0,0,0-6.64,8.82,11.93,11.93,0,0,0,.78,2.57,6.14,6.14,0,0,1,.77,3.94l-1.32,1.15a4.15,4.15,0,0,0-1.25,3.79,6.82,6.82,0,0,0,3.09,4.1,7.27,7.27,0,0,0,2.81,1c.16,0,1.06,0,1.94,0a1.59,1.59,0,0,0,.35.26c.92.5,1.2,1.86,2.05,2.55a4.5,4.5,0,0,0,3.38.92,6.47,6.47,0,0,0,3.18-1.36c.34-.26.73-.52,1.11-.79a12.24,12.24,0,0,0,3.71.89A6.33,6.33,0,0,0,68.92,74c3.52-3.66-2.41-8.24,1.85-11C73.66,61.06,76.94,59.25,74.83,55.15Zm-4.62.22.13.15Z"/></svg>