<svg id="Layer_1" data-name="Layer 1" xmlns="http://www.w3.org/2000/svg" viewBox="0 0 1579 2313"><defs><style>.cls-1{fill:#ea6400;}.cls-2{fill:#964000;}.cls-3{fill:#b24d09;}</style></defs><title>21Artboard 1</title><rect x="600.31" y="80.3" width="732.39" height="761.46"/><path d="M1329.41,83.59V838.46H603.61V83.59h725.8M1336,77H597V845.05h739V77Z"/><rect class="cls-1" x="600.31" y="85.76" width="732.39" height="761.46" rx="41.55"/><path d="M1291.15,89.06a38.3,38.3,0,0,1,38.26,38.25V805.67a38.3,38.3,0,0,1-38.26,38.25H641.86a38.29,38.29,0,0,1-38.25-38.25V127.31a38.29,38.29,0,0,1,38.25-38.25h649.29m0-6.6H641.86A44.85,44.85,0,0,0,597,127.31V805.67a44.85,44.85,0,0,0,44.85,44.85h649.29A44.85,44.85,0,0,0,1336,805.67V127.31a44.85,44.85,0,0,0-44.85-44.85Z"/><rect x="206.3" y="1422.24" width="732.39" height="761.46"/><path d="M935.39,1425.54v754.87H209.59V1425.54h725.8M942,1419H203V2187H942V1419Z"/><rect class="cls-2" x="206.3" y="1416.78" width="732.39" height="761.46" rx="41.55"/><path d="M897.14,1420.08a38.29,38.29,0,0,1,38.25,38.25v678.36a38.29,38.29,0,0,1-38.25,38.25H247.85a38.3,38.3,0,0,1-38.26-38.25V1458.33a38.3,38.3,0,0,1,38.26-38.25H897.14m0-6.6H247.85A44.85,44.85,0,0,0,203,1458.33v678.36a44.85,44.85,0,0,0,44.85,44.85H897.14A44.85,44.85,0,0,0,942,2136.69V1458.33a44.85,44.85,0,0,0-44.85-44.85Z"/><polygon points="207.49 1417.17 599.2 846.17 1331.26 846.17 939.55 1417.17 207.49 1417.17"/><path d="M1325.83,849,938.05,1414.31H212.92L600.7,849h725.13m10.85-5.71h-739L202.07,1420h739l395.62-576.7Z"/><path class="cls-3" d="M238.3,1417.17c-4.53,0-10.5-1.09-13.22-6.26-3.61-6.87-.65-18.43,7.93-31L571.46,886.61c15.29-22.3,43.32-40.44,62.47-40.44h666.52c4.52,0,10.5,1.09,13.22,6.26,3.61,6.86.65,18.43-7.93,31L967.29,1376.73C952,1399,924,1417.17,904.82,1417.17Z"/><path d="M1300.45,849c5.44,0,9,1.59,10.69,4.73,2.4,4.56,1.63,14.31-7.76,28L964.93,1375.12c-14.57,21.24-42.1,39.19-60.11,39.19H238.3c-5.44,0-9-1.59-10.69-4.73-2.4-4.56-1.63-14.31,7.76-28L573.82,888.22C588.39,867,615.92,849,633.93,849h666.52m0-5.71H633.93c-20,0-49,18.65-64.83,41.67L230.66,1378.35c-15.79,23-12.37,41.67,7.64,41.67H904.82c20,0,49-18.66,64.83-41.67L1308.09,885c15.79-23,12.37-41.67-7.64-41.67Z"/></svg>