<svg id="Layer_1" data-name="Layer 1" xmlns="http://www.w3.org/2000/svg" viewBox="0 0 500 500"><defs><style>.cls-1{opacity:0.53;}.cls-2{fill:#00b700;}.cls-3{fill:#2b2bbf;}.cls-4{fill:#0f090b;}</style></defs><title>28helmetArtboard 1</title><g class="cls-1"><path class="cls-2" d="M234.26,259.68c4.65.52,9.33.77,14,1l2.8.12q3,.81,1.15-.74c.28,1-.91,5.22-1.34,6.22l2.84-2.19c-.88.24-3.93-2.49-4.66-3l-2.73-2c-.32-.23-2.72-2.4-2-.74l-.47,3.58.46-.73-2.78,2.14c1.25-.48,2.89-.23,4-.64q1.4.56,1.68-1.2,1.91-1.63-.5-1.74c-1.7-1.41-5.95-1-7.19-2.81-3.59-5.2-12-.47-8.58,5,1.68,2.68.84,6.25,1.67,9.24a12,12,0,0,0,5.3,7.13l1.2-9.15-1.4.2,2.66,9.64c2.94-1,7.52,1.89,10.47,2.38a28.14,28.14,0,0,0,10.7-.4c5.42-1.16,4.32-10.22-1.32-9.78-2.92.22-5.83.45-8.75.6-2.16.11-5.12.75-7.11-.33l-1.18,9.08c4.53-1,9.43-.29,14-.11l14.26.58v-10l-12.72-.13,2.51,9.27c3.22-2.28,6.45-4.54,9.67-6.81,2.73-1.92,3.74-7,0-8.62a14.94,14.94,0,0,0-6.25-1.52c-2.15,0-4.53.77-6.42-.47l.92,7.09a9.89,9.89,0,0,1,6-2.08c4.86-.35,6.69-8.09,1.23-9.08-2.61-.48-5.58-.82-7.6-2.72l-3.29,8c2.39-.17,4.78-.28,7.17-.53,6.94-.72,5.71-10.71-1.29-9.52a7.44,7.44,0,0,1-4.7-.48l-2.34,8.49c9.5,1.44,18.88,1.68,28.25-.78l-5.65-7.35c-2.28,4.31-.68,8.88-1.32,13.5a10.93,10.93,0,0,0,.41,5.53,8.49,8.49,0,0,0,1.5,2.61c.7.82,2.23,3.16.76.54v-5l-.27.45,2.94-2.27c-3.57,1.51-7.94,1.17-11.66.54-5.06-.87-9.34,6.52-3.82,9.05,5.2,2.39,14.6,4.09,17.87-2.4a7.43,7.43,0,0,0-1.19-8.22,23,23,0,0,0-4.81-3.9c-1.36-.94-4.51-1.94-5.47-3.13l1.28,4.87c-1.53.92-2.07.57-1.64-1.05-2.55,3.56,2.45,8.33,6,6s4.71-6.82,2.09-10.38c-2.95-4-8.42-3.94-12.46-1.64-3.5,2-5.26,6.48-2,9.66,1.88,1.86,5,2.78,7.19,4.32,1.45,2,2.25,1.9,2.38-.33,1.1-1.59.86-2.13-.74-1.62-1.06-.65-3.39-.72-4.64-1.21l-1.32,9.73c5.45.63,15.24,1.63,18.85-3.46,1.07-1.51.72-3.47,0-5-.25-.53-2-2.06-2-2.26a8.6,8.6,0,0,0,1.1-2.42c.28-1.79-1.06-6.14-.35-7.46a5.07,5.07,0,0,0-5.65-7.35c-8,2.11-16.23,1.54-24.42,1.78-4.77.15-6.21,7.59-1.17,8.65,2.34.49,4.67,1,7,1.34l1.29-9.52a26,26,0,0,0-8.41,1.08c-3.08.86-4.89,5.52-2.05,7.78a25.09,25.09,0,0,0,11.73,5l1.22-9.08a24.67,24.67,0,0,0-11.46,4.24c-2.13,1.44-3.37,5.17-.91,7.09a12.48,12.48,0,0,0,5.94,2.8c2.26.41,5.05-.21,7.16.72v-8.62c-3.21,2.28-6.42,4.57-9.65,6.84-3.9,2.75-2.69,9.2,2.51,9.27l12.72.18c6.46.09,6.41-9.73,0-10-10-.41-21.14-2.34-30.94-.05-4.07,1-4.94,7.12-1.18,9.08,6.24,3.25,14.12,1.38,20.87,1.11l-1.33-9.79c-4.43.87-7.81,0-12-1.49-3.13-1.11-6-1.54-9.2-.52-6.31,2-3.55,10.48,2.66,9.64l1.4-.19c4.64-.63,4.36-7,1.19-9.15-1.42-.95-1.06-5.07-1.27-6.6a14.79,14.79,0,0,0-2.17-6.13l-8.58,5c4.76,6.63,27,13.53,24.72-1.19-1.89-12.37-25.26-7.69-19.55,1.75,1.34,2.21,4.25,3.59,6.3,5.06,2.52,1.79,4.95,3.87,7.82,5.07,6.26,2.61,9.41-1.14,10.89-6.9,1.37-5.39,2.27-11.69-4.07-14.15-3.11-1.21-7.31-.88-10.57-.94-4.06-.07-8.1-.08-12.14.2-5.75.39-5.58,8.18,0,8.81Z"/></g><path class="cls-3" d="M219.73,280.46c1.5-3.19,1.55-7,2.26-10.42s2.32-7.05,2.16-10.6a1.62,1.62,0,0,0-3-.81c-2.28,3-2.76,7.41-3.41,11-.6,3.35-1.5,7.15-.59,10.48a1.42,1.42,0,0,0,2.56.34Z"/><path class="cls-3" d="M221.21,283.46c1.56-4.25,3.13-8.49,4.4-12.84l-3.6-.49A55.43,55.43,0,0,1,221,281l4.28.58a94.32,94.32,0,0,1,2.17-13.68l-3.23-.44c0,3,0,6,0,9,0,1.73.1,3.37,1.53,4.53a2,2,0,0,0,3.21-.85l.35-1c.45-1.31-1.13-2.25-2.2-1.69l-1,.5,2.33.3c-.92-1-.6-4.14-.68-5.4-.11-1.79-.21-3.58-.3-5.38a1.66,1.66,0,0,0-3.24-.43A63,63,0,0,0,221,281.62c-.35,2.75,4.07,2.79,4.36,0a84.75,84.75,0,0,0,.37-11.49,1.84,1.84,0,0,0-3.6-.48c-1.5,4.26-2.69,8.62-3.89,13-.55,2,2.34,2.71,3,.84Z"/><path class="cls-3" d="M223,281.78l0-.07a1.54,1.54,0,0,0-.69-1.7,1.72,1.72,0,0,0-1.74,0,1.61,1.61,0,0,0-.72,1.76c.32,1.47,2.06,1.76,3.26,2.2,1.74.65,3.51,1.18,5.26,1.76,1.5.49,3.19-1.47,2.18-2.83-.79-1-1.4-2.46-2.83-2.74a1.07,1.07,0,0,0-1.33,1c0,.93.64,1.75.57,2.7L229.4,282c-2.49-.74-5.34-2-8-2.11l1.14.47-.13-.12.24,1.89.06-.09-1.33.76h.12l-1.45-1.1,0,.07a1.5,1.5,0,0,0,2.86,0Z"/><path class="cls-3" d="M226.21,283.18l.56.47a1.53,1.53,0,0,0,2.58-1.07,103,103,0,0,0-.66-12.28c-.25-3.44,0-7.05-.75-10.41a1.1,1.1,0,0,0-2-.26c-2.15,3.19-1.34,7-1,10.67A105.33,105.33,0,0,0,226.38,283l1.86-1.86-.69-.25a1.39,1.39,0,0,0-1.34,2.31Z"/><path class="cls-3" d="M230.63,283c1.41-4.57,1.46-10.34.92-15.07-.24-2.1-.84-4.09-1.28-6.15-.56-2.53-.49-5.17-1.4-7.59a1.21,1.21,0,0,0-2-.53c-3.08,3.26-1.11,7.8-.16,11.66,1.44,5.88.14,11.82,1.17,17.68.26,1.47,2.37,1.24,2.75,0Z"/><path class="cls-3" d="M221.86,273.87c.9-6,4-11.07,6-16.67l-2.8-.77c-1.36,4.94-3.42,9.68-5.23,14.47h3.35a20.11,20.11,0,0,1,1.7-12.54l-3.37-.91a114.48,114.48,0,0,1-.37,17.07l2.22-1.69c-1.59-.51-2.18-7.72-2.23-8.46a28.83,28.83,0,0,1,.76-8.68,1.93,1.93,0,0,0-3.72-1,32.87,32.87,0,0,0-1.67,15.7c.26,1.92,3.46,2.9,3.82.51.69-4.59-1.19-9.21-1.06-13.92.18-6.09.82-12.21,5.17-16.85l-3.38-2a28.09,28.09,0,0,0-1.08,3.92,1.09,1.09,0,0,0,1.81,1.05,26.08,26.08,0,0,0,2.65-3c1.54-2-1-4.82-2.86-2.86-3.57,3.8-5.26,8.33-5.93,13.46a62.27,62.27,0,0,0-.48,9.84c.09,3,1.86,6.36,1.41,9.3l3.82.52a31.44,31.44,0,0,1,1.5-14.68l-3.72-1a32.6,32.6,0,0,0-.25,13.52c.61,2.95,1.28,7.07,4.51,8a1.77,1.77,0,0,0,2.22-1.69c.46-5.7.46-11.36.48-17.07a1.82,1.82,0,0,0-3.37-.91,21.14,21.14,0,0,0-1.93,15.28,1.75,1.75,0,0,0,3.35,0c1.48-4.89,2.75-9.89,4.68-14.62.68-1.66-1.76-2.31-2.66-1.12-3.87,5.12-6.14,11-5.78,17.47.08,1.27,2.17,1.75,2.39.32Z"/><path class="cls-3" d="M215.46,258.29a26.2,26.2,0,0,1-.71,4.82l3.4-.44c-2.5-5.24-2.57-14.26-.64-19.72a20.81,20.81,0,0,1,5.14-7.53c1.23-1.23,5.21-5.76,6.87-5.77a1.5,1.5,0,0,0,1.43-1.88l-.11-.54a1.93,1.93,0,0,0-1.84-1.4c-3.13,0-6.33,3.31-8.5,5.3a26.66,26.66,0,0,0-6.91,9.22c-2.91,7-2.73,17.71,1.35,24.19.9,1.43,3.67,1,3.46-.93a28.66,28.66,0,0,1,.06-5.32c.13-1.93-2.83-1.9-3,0Z"/><path class="cls-3" d="M219,259.28c-.19-4.33-.16-8.42,1.25-12.59s4-7.31,6.34-10.91l-3.36-.91c-.07,4.14-2,7.9-3,11.85a52.15,52.15,0,0,0-1.33,9.64h3.43c-.22-6-1-17,5.33-20.61l-2.09-.27c1.08.88-1.86,11.51-2.14,12.92A72.85,72.85,0,0,0,222,259.09h4a43.87,43.87,0,0,1,4.72-19.3l-3.56-.47c.61,2.69-1.09,6.39-1.78,9q-1.16,4.37-2.34,8.72l4,1.1a74.69,74.69,0,0,1,4.25-15l-3.87-.53a49,49,0,0,1-2.73,12.79l3.75.51a94,94,0,0,1,1-13.92c.3-2-2.64-2.87-3.05-.84A100.35,100.35,0,0,0,224.63,256c-.1,2.21,3.13,2.51,3.75.51a71,71,0,0,0,3-13.81c.25-2.41-3.1-2.37-3.87-.52A74.52,74.52,0,0,0,223.07,257c-.49,2.58,3.35,3.72,4,1.1.92-3.8,1.88-7.59,2.84-11.39.74-2.95,1.72-5.48,1.06-8.46a2,2,0,0,0-3.56-.47,47.65,47.65,0,0,0-5.4,21.27c-.05,2.6,4,2.59,4,0,.13-6.11,1.63-12,2.43-18,.29-2.16,1.51-6.33-.44-8a1.8,1.8,0,0,0-2.09-.27c-7.94,3.58-7.5,16.66-7,23.58a1.72,1.72,0,0,0,3.43,0c.27-7.34,3.06-13.9,4.43-21,.27-1.4-1.25-3-2.65-2-7.72,5.44-10.74,17.57-8.06,26.37.47,1.56,3,1.34,2.94-.4Z"/><path class="cls-3" d="M225.59,247.51c3.68,4.12,11.1,3.49,16.13,3.38,5.95-.13,14-.3,19-3.75a1.39,1.39,0,0,0-.7-2.57c-5.4-.53-11,1.4-16.48,1.69s-11.29.45-16.55-1.2c-1.48-.47-2.35,1.42-1.43,2.45Z"/><path class="cls-3" d="M226.29,245.61c6.34,1.94,13.31,2.46,19.91,2.61,6.78.15,13.92-1.35,20.55.36,4.61,1.19,7.32-5.18,3.23-7.67a48.73,48.73,0,0,0-19.18-7,46.46,46.46,0,0,0-10-.31c-1.41.11-2.83.29-4.23.52-1,.17-2.07.37-3.1.62q-3,0-.64,2.55l-1.27,3.05c3.08-3.82,12.21-3.47,16.44-2.68l1-7.27c-7.75.73-15.55,1-23.32,1.52l3.24,5.63c2.44-4.48,6.19-5.62,10.91-6.33l-.95-7c-6,.35-11.4,1.71-16.35,5.28l4.81,4.8c3.53-6.46,10.94-6.2,17.41-7,7.49-1,13.47-1.41,18.53,4.93,2.19,2.75,6-.32,5.4-3.15-2.08-10.3-15.05-10.18-23.09-9.09-9.58,1.29-19,1.64-24.31,10.81-1.69,2.9,1.81,6.85,4.8,4.81a21,21,0,0,1,12.8-4.16c3.95.12,5-6.46.95-7.06-7.24-1.07-14,3.14-17.38,9.48-1.24,2.33.26,5.85,3.23,5.63,7.77-.56,15.54-1.29,23.32-1.59a3.72,3.72,0,0,0,1-7.28,27,27,0,0,0-19.87.64c-4.5,1.92-8.84,7.1-3.58,11.26,2.33,1.84,5,1.42,7.64.76a44,44,0,0,1,10.59-1.61,37.3,37.3,0,0,1,21,6.57l3.24-7.67c-6.31-2.36-13.37-.88-19.93-.86-7.31,0-14.48-1-21.75-1.43-4.36-.23-5,6.2-1,7.41Z"/><path class="cls-3" d="M236.68,230.68c9.41.95,18.92,6,27.27,10.13,4.69,2.32,7.77-4.77,2.81-6.65-3.55-1.35-12.57-3.87-14.13-7.77l-1.23,3c3.54-2.1,10.56,4.25,11.87,6.85l1.81-4.46c-2.61.37-5.87-.91-8.37-1.61-1.4-.39-6.72-2.81-6.9-1.33l-2.33,3.06c3.47-1.18,7.79,1.67,10.77,3s6.13-2.12,3.61-4.68c-3.63-3.7-11-6.41-16.06-4.46a3.37,3.37,0,0,0-2.33,3.06c-.33,4.07,4.55,5,7.51,6,5,1.6,10.44,3.56,15.72,2.84,2.09-.28,2.58-2.93,1.82-4.47-3-6.12-14.19-13.32-20.34-8a2.69,2.69,0,0,0-.42,3.23c1.43,2.27,3.26,3.21,5.51,4.62a95,95,0,0,1,9.94,7.18l4.41-5.72C259,230,246,223.1,236.06,226.14c-2.6.8-1.91,4.29.62,4.54Z"/><path class="cls-3" d="M238.51,223.47l-1.09-.59-2.28,4c8.72-1.8,18.52-2.3,26.71,1.94,7.24,3.75,10.74,10.2,12.9,17.75,1.23,4.28,8.56,3.67,8.07-1.09-1.05-10.32-8.22-19.82-17.53-24.24a41.22,41.22,0,0,0-17.12-3.69c-5.47-.09-12-.16-16.2,3.88-3.28,3.19,2.23,7.85,5.12,3.95l.85.19c1-.05,1.66-1.61.57-2.11Z"/><path class="cls-3" d="M265.75,237.67c3.29,2.25,4.94,5.16,6.31,8.83l4.12-4.11c-1.4-.24-4.05-3.87-4.48-4.59-1.49-2.52-5-.76-4.5,1.9a25.9,25.9,0,0,0,2.59,7.39l3-5.18a150.62,150.62,0,0,0-24.66-1c-5.31.3-5.4,8.36,0,8.32,10-.06,19.94.59,29.9.68,3.88,0,4.52-5.55.9-6.66-9.62-2.94-20.84-1.69-30.8-2.34v8.32c8.22,0,16.44-.37,24.66-.39,2.81,0,4.76-3.87,2.43-5.88a10.3,10.3,0,0,1-3.25-4.53l-4.5,1.9c2.39,3.13,2.68,7.41,6.95,8.55a3.38,3.38,0,0,0,3.78-4.91c-2.25-4.37-6.19-7.38-10.59-9.41a1.83,1.83,0,0,0-1.84,3.15Z"/><path class="cls-4" d="M231.56,253.31c8.89.84,17.91,1,26.84,1.32q6.57.21,13.13.31c4.15.06,8.71.54,12.76-.49,2.48-.63,2.64-4.64,0-5.18-3.88-.79-8-.32-12-.33-4.65,0-9.29-.08-13.93-.18-8.92-.19-17.92-.68-26.84-.32-3.18.12-3.09,4.58,0,4.87Z"/><path class="cls-4" d="M230.15,253l1.08-.43-2.85-2.17c0,6.14.78,12.31,1.3,18.43.45,5.4,0,11.94,2,17,.64,1.6,3.3,2.06,3.74,0,1.2-5.66-.35-12.23-.83-18-.51-6-.83-12.1-1.8-18.06-.44-2.67-4.2-1.73-4.42.6l-.11,1.17a1.5,1.5,0,0,0,1.88,1.43Z"/><path class="cls-4" d="M235.2,285.35c-1.28-2.1-3.62-2.19-5.86-2.59-2-.36-4.08-.65-6.1-1.13-2.4-.58-4.6-1.85-7-2.27A2.32,2.32,0,0,0,214,283.2c3.14,3.37,9.12,3.7,13.42,4.29,2.55.35,5.52,1.11,7.61-.7a1.21,1.21,0,0,0,.18-1.44Z"/><path class="cls-4" d="M216.43,281.61c.47-2.1.78-4.24,1.21-6.35s1.11-3.92,1-5.95c-.08-1.23-1.82-2.33-2.75-1.14-2.6,3.31-3.29,8.82-3.25,12.93,0,2.13,3.31,2.69,3.8.51Z"/><path class="cls-4" d="M218.14,270.14c-3.68-9.95-5-20.94-1.61-31.2,3-9.11,11.22-15,19.93-18,9.87-3.45,22-2.71,31.17,2.54,10.14,5.82,12.88,17.38,14.44,28.31.51,3.61,6,2.08,5.48-1.51-1.85-12.95-5.67-25.54-17.79-32-10.79-5.77-24.58-6.39-36-2.07-9.58,3.64-18.3,10.2-21.94,20.1a38.48,38.48,0,0,0-2.18,18.26c.79,5.8,1.34,13,6.11,17,1,.82,2.88.07,2.35-1.37Z"/><path class="cls-4" d="M232.78,279c2.26,3.77,8.14,4.38,12.14,5.14a77.69,77.69,0,0,0,16.88,1.22,126.1,126.1,0,0,0,16.89-1.87c3.7-.62,8.26-.63,9.65-4.68.73-2.11-2.28-3.84-3.76-2.19-2.34,2.63-8.62,2.49-11.93,3a111.55,111.55,0,0,1-15.59,1.33,62.65,62.65,0,0,1-13.66-1.31c-3.37-.73-6.68-2.72-10.1-1.89a.87.87,0,0,0-.52,1.28Z"/><path class="cls-4" d="M284.17,252.11c-1.53,3.63.44,7.75,1,11.52.69,5,.07,10.1,1,15,.32,1.72,2.77,1.47,3.23,0,1.51-4.83.64-10.61-.06-15.55-.54-3.84-.68-8.9-4.11-11.22a.73.73,0,0,0-1,.26Z"/></svg>