<svg xmlns="http://www.w3.org/2000/svg" width="47.57" height="29.58" viewBox="0 0 47.57 29.58"><defs><style>.cls-1{fill:#d2d3d1;}</style></defs><title>foot-r</title><g id="Layer_2" data-name="Layer 2"><g id="Layer_27" data-name="Layer 27"><path class="cls-1" d="M45.71,16A10,10,0,0,0,44,14.39C40.53,9.49,34.35,9.5,28.71,9c-2.14-.2-4.39-.49-6.6-.55-3-5.45-8.9-9.85-15.23-8C-.7,2.68-.67,12.17.7,18.53a6.22,6.22,0,0,0,.72,1.89c.71,3.43,2.75,6.36,6.11,6.73a6.47,6.47,0,0,0,3.08.67c1.65,0,3.34-.11,5.05-.23a65,65,0,0,0,9.27,1.08c4.22.47,8.93,1.2,13.17.79a5.14,5.14,0,0,0,3-1C46.91,28.25,49.68,20.65,45.71,16Z"/></g></g></svg>