<svg xmlns="http://www.w3.org/2000/svg" width="41.5" height="82.77" viewBox="0 0 41.5 82.77"><defs><style>.cls-1{fill:#d2d3d1;}</style></defs><title>hand-r-1</title><g id="Layer_2" data-name="Layer 2"><g id="hand-r-1"><path class="cls-1" d="M40.89,66.86a31.39,31.39,0,0,0-1.58-9.23c1.14-5.73,0-12.55-.67-18.13a122.19,122.19,0,0,0-4.32-20.12c-1.89-6.15-4.07-12.72-9.64-16.52s-13.22-4-18.51.69C.3,8.72-.26,16.13.08,23.47S1.51,37.59,4.92,44.13c1.46,2.8,3.47,5.37,4.7,8.28,1,2.38,1.61,4.94,2.48,7.37a38,38,0,0,0,2.69,6c.36,6.79,5,14,11.69,14.89a12.61,12.61,0,0,0,5.82,2.09c2.89.35,5.75-1.86,7.19-4.12A14.7,14.7,0,0,0,40.89,66.86Z"/></g></g></svg>