<svg xmlns="http://www.w3.org/2000/svg" width="67.22" height="81.7" viewBox="0 0 67.22 81.7"><defs><style>.cls-1{fill:#d2d3d1;}</style></defs><title>hand-l-1</title><g id="Layer_2" data-name="Layer 2"><g id="Layer_29" data-name="Layer 29"><path class="cls-1" d="M62,6.65a17.18,17.18,0,0,0-1.66-1.43A7.93,7.93,0,0,0,55.92.84c-5.35-2-11.7-.15-16.93,2.5C30.82,6.4,23.22,13.11,19.71,21.07a105.93,105.93,0,0,0-9.08,16.68,60.19,60.19,0,0,0-4,9.24c-2.28,5.39-4.33,11-4.85,16.7v.13a13.46,13.46,0,0,0-1.52,3.9C-1.07,73.6,3.61,77.88,8.73,79.59a8.19,8.19,0,0,0,2.52.37,9.47,9.47,0,0,0,8.28,1.32c5-1.55,7.44-6.7,7.39-11.65a13.65,13.65,0,0,0-.12-1.56,34.74,34.74,0,0,0,6-7.58c2.93-4.94,5.17-10.32,7.63-15.56,5.23-4.8,11.06-10.12,12.84-16.63a14.93,14.93,0,0,0,.47-2.79,7.26,7.26,0,0,0,11.63-1C69.11,18.62,66.75,11.32,62,6.65Z"/></g></g></svg>