<svg xmlns="http://www.w3.org/2000/svg" width="50.67" height="72.34" viewBox="0 0 50.67 72.34"><defs><style>.cls-1{fill:#d2d3d1;}</style></defs><title>hand-r-2</title><g id="Layer_2" data-name="Layer 2"><g id="hand-r-2"><path class="cls-1" d="M7,.5c-13.14,4.86-4.63,24,.69,32C11,37.54,15,42,18.33,47c2.8,4.16,4.16,8.54,8.66,11.12s11.84-.62,11.28-6.48A83.9,83.9,0,0,0,30,22.05,75.7,75.7,0,0,0,22.08,9.51C19.14,5.68,16,1.42,11,.5,1.52-1.22-2.53,13.24,7,15c1.28.24,4.4,5.06,5.6,6.87a73.06,73.06,0,0,1,5.19,9.26,63.46,63.46,0,0,1,5.51,20.57l11.29-6.47c-2.62-1.5.13-.56.17.11C34.64,44,33,42,32.22,40.87c-2.29-3.62-5-6.95-7.59-10.35-3.5-4.6-11.37-13.95-9.35-20.46L10.05,15.3,11,15C19.94,11.65,16.05-2.86,7,.5Z"/><path class="cls-1" d="M50,55.65c-1.6-4.94-3.65-10.06-8.12-13.09-4.71-3.18-11.79-3.3-15,2.73-1.25,2.35-1.32,4.94-1.32,7.53,0,3.17-.32,6.65.31,9.77a12.08,12.08,0,0,0,12,9.75c3.79,0,7.84-3.42,7.5-7.5l-.07-.72-7.5,7.5c9.49.36,14.86-7,12.2-16-2.74-9.23-17.22-5.3-14.46,4,.47,1.57.23.85,1.95-1.12,2.15-2.48,2.09-1.83.31-1.9-3.8-.14-7.83,3.56-7.5,7.5l.07.72,7.5-7.5c2.42,1.18,2.91,1.28,1.48.28Q37,55.69,40.56,59.51c.29-.16,0-3,0-3.34,0-1.12,0-2.23,0-3.35V51.48c.12-1.72-.19-1.13-.95,1.76l-3.31,1.93-.62.07-3.79-1c.63.34,2.8,1.95,2,.93-1.2-1.52.94,2.79.18.7.47,1.27,1.07,2.49,1.49,3.8C38.5,68.78,53,64.87,50,55.65Z"/></g></g></svg>