<svg xmlns="http://www.w3.org/2000/svg" width="32.37" height="86.1" viewBox="0 0 32.37 86.1"><defs><style>.cls-1{fill:#d2d3d1;}</style></defs><title>hand-l-2</title><g id="Layer_2" data-name="Layer 2"><g id="Layer_30" data-name="Layer 30"><path class="cls-1" d="M18.82.05C6.07,1,4.56,16.22,4.66,26c.06,6-.15,12.21.43,18.2a13.48,13.48,0,0,0,.2,1.4,18.31,18.31,0,0,0-1.14,3.8A8.49,8.49,0,0,0,5,55.07C1.43,60-1.07,68.23.45,73.79A15.11,15.11,0,0,0,1,77.12a12.4,12.4,0,0,0,14.71,8.69c6.68-1.41,9.62-6.75,9.52-13.19-.08-4.74.17-10.07-1.43-14.68a8.2,8.2,0,0,0-1.51-7.29c2-3.17,3.62-6.69,5.17-9.66a41.91,41.91,0,0,0,4.74-16.73C32.88,14.46,32.35-1,18.82.05Z"/></g></g></svg>