<svg xmlns="http://www.w3.org/2000/svg" width="64.73" height="85.81" viewBox="0 0 64.73 85.81"><defs><style>.cls-1{fill:#d2d3d1;}</style></defs><title>head</title><g id="Layer_2" data-name="Layer 2"><g id="Layer_24" data-name="Layer 24"><path class="cls-1" d="M46.53,2.67C31.86-3.46,3.47.5.42,19.47c-.77,4.79-.66,11,1.93,15.29.94,1.54,2.8,2.67,3.57,4.23s.55,3.45.51,5c-.15,6.64-2.69,13.58-2.91,20.3A14.71,14.71,0,0,0,3.77,78c4.7,7.9,18.13,8.25,26.18,7.5,5.32-.49,7.79-2.71,11.88-5.67,1.47-1.06,3.12-1.81,4.57-2.93,2-1.52,3-3.29,4.64-5.1,2.72-3,5.89-5.27,8.1-8.81a35.34,35.34,0,0,0,4.72-14C66.21,31.78,64.81,10.31,46.53,2.67Z"/></g></g></svg>