<svg xmlns="http://www.w3.org/2000/svg" width="32.23" height="81.96" viewBox="0 0 32.23 81.96"><defs><style>.cls-1{fill:#d2d3d1;}</style></defs><title>leg-2-r</title><g id="Layer_2" data-name="Layer 2"><g id="Layer_25" data-name="Layer 25"><path class="cls-1" d="M29.16,5.38C25.3-.49,17.67-1.37,11.8,1.83,1.24,7.59-.95,21.54.33,32.33a70.17,70.17,0,0,0,5,18.19c.38,1,.71,1.92,1,2.89a66,66,0,0,0-1.14,7.24A6.37,6.37,0,0,0,6,64.44C5.3,70,6,75.41,10,79.8c5,5.39,15.18-.18,12.66-7.37-.38-2.76-1-4.84-.52-7.67.52-3.11,1.59-6.14,2.4-9.18a107.42,107.42,0,0,0,2.8-14.07,149.08,149.08,0,0,0,4.28-17.58C32.6,17.76,32.73,10.79,29.16,5.38Z"/></g></g></svg>