<svg xmlns="http://www.w3.org/2000/svg" width="53.99" height="92.07" viewBox="0 0 53.99 92.07"><defs><style>.cls-1{fill:#d2d3d1;}</style></defs><title>leg-r-1</title><g id="Layer_2" data-name="Layer 2"><g id="Layer_22" data-name="Layer 22"><path class="cls-1" d="M53.94,74.26c-.47-6.22-2.54-12-5.21-17.52.31-6.31-2.1-13.68-4-19A134.89,134.89,0,0,0,33.24,14.93C29.24,8.25,24.75.84,16.17.08-1.56-1.51-1.2,22,1.15,33.7a59.08,59.08,0,0,0,17.38,31,75.11,75.11,0,0,0,10.79,15c.05.18.09.36.15.54A9.77,9.77,0,0,0,31,83.12a8.91,8.91,0,0,0,1.14,2.41,7.13,7.13,0,0,0,.74,2.29,8.39,8.39,0,0,0,14.58.12C52.23,85.78,54.34,79.71,53.94,74.26Z"/></g></g></svg>