<svg xmlns="http://www.w3.org/2000/svg" width="113.72" height="144.44" viewBox="0 0 113.72 144.44"><defs><style>.cls-1{fill:#d2d3d1;}</style></defs><title>torso</title><g id="Layer_2" data-name="Layer 2"><g id="Layer_23" data-name="Layer 23"><path class="cls-1" d="M97.39,3.41C97,3.1,96.5,2.8,96,2.51,91.13-.39,84.8,0,79,.8A69.91,69.91,0,0,0,66,0c-3.21.1-6.48.21-9.77.4-4,0-8,.26-11.89.55-5.78.44-11.6.92-17,3.18a53.06,53.06,0,0,0-9.15,5.05,29.13,29.13,0,0,0-3.11,2.09c-4.93,3.14-9.16,7.18-11.33,12.33A24.77,24.77,0,0,0,.19,37.11C-.38,42.62.26,48.42,3,53.2a17.18,17.18,0,0,0,5.16,5.32c.57,1.07,1.16,2.12,1.76,3.16.26,6.38,0,12.77.27,19.15.47,12.75,3.16,24.6,13.75,32.63a51.26,51.26,0,0,0,6.41,4,22.84,22.84,0,0,0,6.44,14.7,23.56,23.56,0,0,0,6.9,5.11,20.71,20.71,0,0,0,8.62,5.84c5.76,2.08,11.91,1.49,17.65-.33a7.67,7.67,0,0,0,3.45-2.17l.51-.26c6.88-3.9,9.09-11.92,9.58-19.69a46,46,0,0,0,6.25-17.29A69.09,69.09,0,0,0,90.35,95c.83-3.28,1.6-6.58,2.34-9.88a52.94,52.94,0,0,0,1.49-6.84.88.88,0,0,0,0-.16c1-4.64,2-9.3,2.92-13.95,2.68-7.55,5.4-15.1,6.83-23.09l.18-1,1.18-1c5-4.43,8.57-9.36,8.4-16.36C113.54,15.23,105.8,2.13,97.39,3.41ZM25.45,49.22c0-.17-.05-.34-.09-.51l.48-.81Q25.66,48.56,25.45,49.22Z"/></g></g></svg>