<svg xmlns="http://www.w3.org/2000/svg" width="42.55" height="91.13" viewBox="0 0 42.55 91.13"><defs><style>.cls-1{fill:#22b573;}.cls-2{fill:#b21106;}.cls-3{fill:#720805;}</style></defs><title>armor-1-hand-l-2</title><g id="Layer_2" data-name="Layer 2"><g id="Layer_4" data-name="Layer 4"><path class="cls-1" d="M15.92,19.1c1.94,1.32,3.58-.44,3.83-2.34C20.1,14,20,11,22.42,9.13L19.68,8.4a6.93,6.93,0,0,1-.28,3.72c-.12.32-1.43,2.9-1.83,2.77l1.12.85c-1.1-1.66,0-5.78,1.87-6.64.33-.16.44-.27.5-.21a6.05,6.05,0,0,1,.09,1.93,29.53,29.53,0,0,0,0,4.1,1.4,1.4,0,0,0,2.58.7C25.28,13,26.2,6,22.15,5c-3.9-.92-6.9,3.83-7.39,7-.26,1.69-.4,4.18.74,5.6s2.95,1,4.21,0A10.25,10.25,0,0,0,22.84,7.53a1.65,1.65,0,0,0-2.41-1A8.32,8.32,0,0,0,17,10.61a12.22,12.22,0,0,0-.75,2.85c-.12.88.08,2.35-.34,3.11l1.14-.87-.39.13,1.47.19-.31-.2c-2-1.38-3.92,1.9-1.92,3.28Z"/><path class="cls-1" d="M19.54,14a1.75,1.75,0,0,0-.94,1.54,16.85,16.85,0,0,0,0,1.74c0,.27-.29,2,.13,1.54l1.35-.56c.72,0-1-1.27-.85-1.74l-1.63,1.24c1.07,0,2.78.65,3.18,1.7l1.6-2.09a25.17,25.17,0,0,1-6.18-.53,1.66,1.66,0,0,0-1.6,2.75C16,21,18.07,21,19.92,21.27c2.26.31,4.73.86,7,.41,1.5-.3,1.26-2.38,0-2.8a22.83,22.83,0,0,0-4.9-.63c-1.14-.13-4.16-.06-5.07-1L15.32,20a27,27,0,0,0,7.05.67,1.68,1.68,0,0,0,1.43-2.49c-.86-2-3.18-3.31-5.27-3.72C16,14,15.07,16.23,15.82,18.33c.62,1.71,2.6,4.35,4.75,3.68a2.28,2.28,0,0,0,1.52-2,8.44,8.44,0,0,0,0-1.88,17.22,17.22,0,0,1-.43-2.46A1.47,1.47,0,0,0,19.54,14Z"/><path class="cls-1" d="M24.46,21.3c.56-2.71,1.14-5,3.11-7L24.78,12.1a33.69,33.69,0,0,0-2.94,6.33c-.68,2,2.2,3,3.26,1.38A18.68,18.68,0,0,1,29,15.51L26.3,13.45c-1.08,2-2.26,3.88-3.47,5.76a1.9,1.9,0,0,0,2.57,2.58,55.54,55.54,0,0,0,6-4.1L28.63,16.1A39.9,39.9,0,0,0,27,20.45a2,2,0,0,0,.89,2.19C29.74,24,32.7,22.47,34,21c.77-.87.33-2.68-1.05-2.54a23.83,23.83,0,0,0-3,.82l1,1.67a12.87,12.87,0,0,1,.92-4c.48-1.47-1.19-2.41-2.39-1.85a53,53,0,0,0-5.88,3.42l2.58,2.57c1-2,2-4,3.17-5.94,1-1.79-1.24-3.19-2.68-2.07A21.67,21.67,0,0,0,22,18l3.26,1.37a30.84,30.84,0,0,1,2.57-5.49c1-1.7-1.4-3.66-2.79-2.15a12,12,0,0,0-3.42,9.56c.2,1.44,2.54,1.35,2.82,0Z"/><path class="cls-1" d="M28.8,23.9,28,23.75l-.49,3.63a45.13,45.13,0,0,0,5.18-.48c2.05-.3,1.59-3.86-.49-3.65l-6.76.69c-2.34.23-2.43,3.87,0,3.72,2.25-.13,4.5-.28,6.74-.42l-.47-3.51c-.89.17-2.92.93-3.81.56l1.05.81c-.69-1.29,1.17-4,1.92-4.75l-2.95-.78a9.12,9.12,0,0,1-.25,3.92l2.59-1c.22.16.25-3.07,0-.22a5.12,5.12,0,0,0,.18,2.06,1.82,1.82,0,0,0,3.48,0A9.66,9.66,0,0,1,36,19.81l-2.27-.6c.64,1.72-1.2,3.48-1.69,5.11l3.34.92a21.83,21.83,0,0,1,1.41-4.62l-2.6-.7c0,.81.06,1.61,0,2.42l0,.81c.11,1.27-.26,1.18-1.11-.29L32.19,24a2.91,2.91,0,0,1,2.09.92A2.49,2.49,0,0,1,35,26.07q.36,1.18.27-.75c-.19-.4-2-.86-2.33-1A16.87,16.87,0,0,0,31,23.58l.33,2.54.49-.24a1,1,0,0,0,.2-1.51l-.4-.44c-1.34-1.45-3.48,1.1-1.69,2.19,1.53.94,7.78,4.73,8.2.63.29-2.76-3.71-5.94-6.35-5.09-3.18,1,0,5.27,2.16,5.53,4.42.51,3.44-5,3-7.64-.23-1.25-2-1.27-2.55-.33A19.49,19.49,0,0,0,32,24.32c-.61,2.14,2.82,3.08,3.34.92.6-2.51,2-4.52.83-7.08a1.37,1.37,0,0,0-2.13-.27,12.88,12.88,0,0,0-3.65,5.43h3.48c-.29-1.61.17-3.12-1-4.48a2.73,2.73,0,0,0-3.27-.79c-2.52,1.17-3.78,5.23-1.54,7.16A1.79,1.79,0,0,0,31,24.43a12.92,12.92,0,0,0,.26-5.8,1.78,1.78,0,0,0-3-.78c-1.86,2-3.55,5.28-2.81,8.12.82,3.16,4.92,1.57,7.1,1.21,2-.34,1.52-3.6-.48-3.52l-6.74.28v3.72l6.76-.7-.5-3.64a36.62,36.62,0,0,1-4.19.36A1.84,1.84,0,1,0,28,27.32l.83-.19c1.56-.35,1.64-2.94,0-3.23Z"/><path class="cls-1" d="M37.4,26.27c.78-5,1.32-10,2.05-15,.27-1.89-2.46-2.78-3-.81A96,96,0,0,1,33.18,21h3.26a11.62,11.62,0,0,1,.7-9.66l-2.58-1.09a21.51,21.51,0,0,1-6.25,8.53l2.77.36a5.33,5.33,0,0,1-.26-4.94c2.08-3.85,1.59.28-.06,1.32-2.92,1.6-4.14,1-3.67-1.85-1.05-2.09-.52-3,1.58-2.63,1.3-.39,1.83.17,1.59,1.67q1.44,2.75-1.7,1.51a11.84,11.84,0,0,1-4.35-1.81C21.28,10.41,22.85,9,26,9.66c.77.15,7.4,2.18,2.5,3.76-.67.22-3.74-1.19-4.21-1.69l-.87-2.1q2.89-1.94,3.84,2.28l.78-4a20,20,0,0,1-2.79-.05c-.39,0-3.92-.45-3.81-1.08.07-.38,5.65.5,5.41.45.55.11,4.12,1,4.12,1l-2.62.43a2.1,2.1,0,0,1-2.73-1.14C23.25,4.94,27.36,6.3,29,6.69c1.46.34,5.46,1.15,5.74,3l.49-1.84C34,9,27.92,8.31,27,7c-.4-.57,3.86-.64,3.54-.65,1.23,0,7.86,1.28,5.83,3.91-1.48,1.94,1.85,3.92,3.31,1.93,5.22-7.12-7.82-10-12.43-9-2.16.44-5.34,1.36-4.47,4.23.94,3.06,5.24,4.14,8,4.45,2.11.24,6.49.55,7.57-2,1.3-3.07-2.75-4.82-4.88-5.64C30.19,3,17.21.86,20,8.54c1.69,4.6,14.09,5.68,14.9.15S21.37,2.2,18.26,3.79c-1.9,1-2.16,2.82-.91,4.46,2.2,2.87,7.45,3.37,10.71,3.15,2.05-.14,4.13-.6,4.11-3.05s-2.6-4-4.82-3.78c-6.19.73-4.55,11,1.45,10s3.34-9.72-2.35-8.46-4.06,9.26,1.37,9.61c6.68.44,7.49-8.39,1.42-10.2C24.31,4,15.68,8.48,21,13.87c3.17,3.2,15.51,6.27,14.39-1.81C34.63,6.4,22.71,3.22,19.11,7.58,14.29,13.4,26.34,18.32,30.63,18c7.19-.52,7.58-8.94.48-10.12-3.14-.52-7.47,0-8.92,3.28a6,6,0,0,0,2.66,7.57,7.69,7.69,0,0,0,9.51-2.08c1.26-1.63,2-5.08.08-6.6S30.24,10.44,29,12a8.14,8.14,0,0,0-1,8.9,1.77,1.77,0,0,0,2.76.36A22.78,22.78,0,0,0,37.28,11,1.42,1.42,0,0,0,34.7,9.88a15,15,0,0,0-1.52,12,1.71,1.71,0,0,0,3.26,0,107.23,107.23,0,0,0,3-10.58l-3-.81A51.09,51.09,0,0,0,35.21,26c.1,1.15,2,1.62,2.19.3Z"/><path class="cls-1" d="M20.83,6.6c2-3.31,6.35-2.93,9.71-2.58a10.09,10.09,0,0,1,4.62,1.3C36.9,6.57,36.66,8.2,37.23,10a1.62,1.62,0,0,0,2.68.7C44.64,5.87,36.5.74,32.32.21s-14.74-.5-13.8,6.08c.17,1.14,1.8,1.14,2.31.31Z"/><path class="cls-1" d="M24.73,42.73a12.46,12.46,0,0,0,.9-3.11c0-.36.08-.71.09-1.07s.23-1.79-.16-.92l-1,.76c.92-.36,2.11,1.32.17,1.07L26,40c.16.44.36.5.6.19a3,3,0,0,1,.71-.43l-.82-.67a3.34,3.34,0,0,1-.87.72l2.67,1.09a1.23,1.23,0,0,1,.83-1.35c.76-.22.74-.33-.05-.32-.53.62-.47,1-1.34,1.4l2.6.69c-.47-.92,1.18-1.53,1.29-2.07q-.29-2.17-.66-.51a3.51,3.51,0,0,1-.88,1H32.4c-.66-.83,0-2.13.18-3A.74.74,0,0,0,31.35,36a5.1,5.1,0,0,0-1.72,5.32,1.68,1.68,0,0,0,2.77.73,5.51,5.51,0,0,0,1.93-4.21,2.24,2.24,0,0,0-2.67-1.92c-2.88.41-5.62,4-4.82,6.83a1.94,1.94,0,0,0,2.79,1.14c2.61-1.21,4.88-6.17,1.33-7.77-1.46-.65-3.09.08-4.29,1a4.49,4.49,0,0,0-1.91,4.76,1.84,1.84,0,0,0,2.68,1.09c1.4-1,3.07-2.64,2.69-4.56S28,36,26.39,36.47,23,38.26,22.69,40c-.33,2,1.18,3.16,3,3,4.12-.36,4.81-5.32,1.41-7.34-1.2-.72-3.33-1.12-4.33.14a2.47,2.47,0,0,0-.35,1.91,14.26,14.26,0,0,1-.2,4.37,1.28,1.28,0,0,0,2.46.67Z"/><path class="cls-1" d="M32.94,38.49c.15-.13.15-.13,0,0l.25-.15c.18-.09.18-.09,0,0l.22-.06.51-.1c.21,0,.2,0,0,0a1.37,1.37,0,0,0,.6-.12,1.72,1.72,0,0,0,1.22-1.42,1.7,1.7,0,0,0-.81-1.7,3.79,3.79,0,0,0-4.36,1.15,1.7,1.7,0,1,0,2.4,2.4Z"/><path class="cls-1" d="M20.47,51.28a12.06,12.06,0,0,0-.61,4.59c0,1.76-.12,3.55,0,5.3l3.84-.52c-.41-1.74,0-6.29,1.78-7.25l-2.78-1.59a20.56,20.56,0,0,1-.7,7.76l3.92.53a8.07,8.07,0,0,1,2.55-6l-3.14-1.3a13.23,13.23,0,0,1-1.46,5.06l3.81,1a8.63,8.63,0,0,1,2-5.48l-2.84-1.17c.15,2.79-1.08,5.24-1.18,8l3.78-.51a7.42,7.42,0,0,1-.1-4.4,1,1,0,0,0-1.83-.77,11.11,11.11,0,0,0-1.85,5.68c-.1,2.14,3.38,2.67,3.78.51.52-2.79,1.7-6.16.67-8.94a1.68,1.68,0,0,0-2.78-.74,13.87,13.87,0,0,0-3.71,7.28c-.31,2.07,2.66,3.87,3.74,1.58s2.27-5,1.55-7.62a1.86,1.86,0,0,0-3.08-.81,13.33,13.33,0,0,0-3.94,8.62c-.26,2.32,3.27,2.58,3.92.53a19.48,19.48,0,0,0,.48-9.32c-.3-1.75-2.54-1.55-3.38-.44-2.29,3-2.51,6.15-3,9.78-.4,2.8,3.67,3.36,3.84.52.18-3-.17-6-.18-9,0-1.54-2.43-2.44-3.11-.85Z"/><path class="cls-1" d="M18.61,65.29a16.89,16.89,0,0,1,5.63-3.49l-2-1.16c0,.06-5.51,5.12-6,5.73l2.69,2.07c1.9-3.23,4.8-5.14,8.06-6.83l-2.65-1.52c.25,3-4.6,5.33-6.75,6.34l3.05,2.34C21,66.09,25.11,64,27.27,63l-2.92-1.19c.43,2-5.89,5.69-7.27,6.68l2.63,3.41c1.46-1.28,4.33-4.81,6.3-5L24.45,65.7c.28,1.21-2.13,3.25-2.94,4a20.82,20.82,0,0,1-2.22,1.86c-1.2.87-1.61,1.91-2,.06-.68-3.51,4.9-7.8,7.38-9.66l-2.56-2c-.93,2.25-6.74,5.93-9.17,6.09l1.9,1.09c.39.52,2.54-2.21,2.88-2.53a29.73,29.73,0,0,1,4.18-3.32L19.33,58a23.86,23.86,0,0,1-7.4,5.43l3,3a49.91,49.91,0,0,1,5.7-7.48l-3-3A17.29,17.29,0,0,1,11,60.66l2.71,3.5c.65-.8,3.93-4.76,5-4.33l-.85-3.24c-.63.71-5,4.59-1.23,1.73l-2.56-2.57.4,0L13.59,59l.68.32A1.59,1.59,0,0,0,17,57.72a3.79,3.79,0,0,0-3.42-2.18c-1.83-.23-2.17,2.39-.87,3.23a3.14,3.14,0,0,0,4.59-1.13,1.89,1.89,0,0,0-2.57-2.56c-2.13,1.37-5.41,5.19-2.75,7.67s7-1.53,8.61-3.42a2,2,0,0,0-.85-3.24c-3.24-1.25-7.41,2.67-9.21,4.92a2.24,2.24,0,0,0,2.7,3.5,22.66,22.66,0,0,0,7.39-5.6c1.81-2-1.09-5-3-3a52.34,52.34,0,0,0-6.5,8.25c-1.24,2,1.15,4,3,3A30,30,0,0,0,22.38,61c1.62-1.71-.5-4.78-2.61-3.38C17.05,59.41,8,65.31,11.08,69.41a2.34,2.34,0,0,0,2.49,1c2.79-.46,5.54-2.7,7.76-4.34a11.17,11.17,0,0,0,4.18-5.14A1.76,1.76,0,0,0,23,59c-3.31,2.39-6.73,5.28-8.61,9-1.27,2.48-2,6.69.71,8.54,4.54,3.09,13.88-7.23,12.52-11.66A1.66,1.66,0,0,0,26,63.65c-3.42,0-6.27,2.93-8.93,4.8C14.81,70,17,73.79,19.27,72.2c3.49-2.42,10-6.53,8.91-11.48a2,2,0,0,0-2.92-1.19c-3.16,1.6-8.08,4.27-8.69,8.14A2.1,2.1,0,0,0,19.62,70c3.73-1.9,8.69-5.15,8.17-9.92a1.79,1.79,0,0,0-2.65-1.51c-3.78,2-7.07,4.38-9.24,8.13-.94,1.64,1.41,3.61,2.7,2.08,1.74-2.07,3.91-3.66,5.69-5.65,1-1.08,1.5-1.9,1.11-3.39a1.68,1.68,0,0,0-2.44-1,20.27,20.27,0,0,0-6.35,4.53,1.41,1.41,0,0,0,2,2Z"/><path class="cls-1" d="M12,68.11l-.12.07L10,66.29a17.36,17.36,0,0,1-4.8,7.26l2.48-.32-.24-.18.95,1.24C8,72,11.73,68.9,13.25,67.65L10.34,65.4a24.52,24.52,0,0,1-4,4.42l3.34.88c-.5-1.46.11-2.44,1.32-3.23l-2.4-1.85C8,69,5.93,72.86,6.66,76.33c.71,3.31,4.72,2.73,7.28,3.12a1.65,1.65,0,0,0,1.84-2.39,5.9,5.9,0,0,0-.94-1.23A1.16,1.16,0,0,0,12.92,77l-.11.5,2.71-.72A4.42,4.42,0,0,0,13,75.3c-1.34-.29-2.23.24-2.31-1.27-.14-2.61,1.08-5.33,1.19-8a1.64,1.64,0,0,0-2.46-1.41c-2.61,1.71-4,3.93-3.52,7.13.23,1.57,2.35,1.8,3.34.88a24.75,24.75,0,0,0,4.34-5.38c1.16-2-1.35-3.46-2.91-2.25C8.32,66.81,6.2,68.57,5,71.31c-.77,1.78-1.44,4.29.56,5.46a2.06,2.06,0,0,0,2.48-.32c2.25-2.58,5.58-6.52,4.88-10.16a1.56,1.56,0,0,0-2.82-.37,2.22,2.22,0,0,0-.31,1.28,1.29,1.29,0,0,0,2.17.91Z"/><path class="cls-1" d="M6.46,72.4c-1.66,2.22.68,5.14,2.07,6.93,1.94,2.5,4.15,4.77,7.35,5.17,1.43.18,2.07-1.4,1.92-2.51-.29-2.09-1.28-3.5-2.34-5.29a12.52,12.52,0,0,1-2-8.11h-3c0,3.16-1.52,9.28,1.29,11.6a2,2,0,0,0,3.14-.41c1.75-3.34-.14-7.2-1.27-10.51a1.29,1.29,0,0,0-2.12-.56C7.11,73.49,10,81.77,15.21,84.56A1.9,1.9,0,0,0,18,82.94c0-2.6.06-5.2.15-7.8a1.59,1.59,0,0,0-2.93-.8C13.86,76.83,10,83.06,13,85.45a2,2,0,0,0,2.81,0,3.22,3.22,0,0,0,1-2.28c.37-2.59.42-5,1.28-7.56l-3.21-.44c-.14,3.3-.27,6.58-.28,9.87,0,1.95,2.82,2.84,3.77,1,1.64-3.15,2.88-6.51,4.35-9.74l-3.4-.92c-.38,3.28-.86,6.55-1.33,9.83l3.89.52c0-3.46.11-6.44,1.42-9.7h-3c.46,3,0,6.25-3.48,6.63L18.26,86c2.46-2.07,6.91-.59,7.9-4.66.85-3.47-2.52-3.49-3.85-5.72l-2.48,1.91a26.71,26.71,0,0,1,4.06,4.56l2.91-2.26a10.14,10.14,0,0,1-4.38-7.7l-3,1.26c2.41,2.2,5.43,5.94,5.08,9.47l1-1.73c-1.66.78-4,.66-5.77.74-2.17.09-2.94,3.69-.54,4,3.88.52,7.21.46,9.66-2.92,1.56-2.17-2-4.27-3.58-2.1-1.25,1.76-3.83,1.22-5.54,1V86c2.88-.15,9,.23,8.87-3.94S25,73.45,21.9,70.91a1.8,1.8,0,0,0-3,1.73,16.24,16.24,0,0,0,5.26,9.86c1.47,1.32,4.27-.48,2.91-2.25a25.18,25.18,0,0,0-5.35-5.16c-1.44-1-2.69.9-2.16,2.16a15.7,15.7,0,0,0,1.12,1.64c.34.27.69.53,1,.77.32,1.21,0,1.76-1.06,1.63-.73.44-2.15.29-3,.6a8,8,0,0,0-2.24,1.37c-1.33,1-.22,3.47,1.4,3.36,6.72-.48,7.36-5.56,6.49-11.4-.22-1.45-2.18-1.36-2.86-.37C18.32,78,18,82,18,85.75c0,2.6,3.72,2.5,4,0,.34-3.45.66-6.91,1.09-10.35.22-1.79-2.64-2.49-3.4-.92-1.62,3.35-3.46,6.59-4.9,10l4,.54c-.27-3.28-.47-6.57-.5-9.87A1.64,1.64,0,0,0,15,74.74c-.44,1.53-.85,3.06-1.25,4.6-.17.67-.32,3-.71,3.29l2.41-.31L14.92,82l1,1.7C15.62,81.2,17,78.12,18,75.93L15,75.14c-.21,2.6-.49,5.2-.75,7.8l2.82-1.62c-2.25-1.36-7-8.31-3.84-10.81l-2.16-.9c0,2,1.11,6.27.31,8.16l2.73-.72c-.79-.55-.63-7.41-.71-8.46a1.5,1.5,0,0,0-3,0c-.5,5.21,3.19,8.94,3.47,13.93l2-2c-.91-.11-7.56-5.82-7.09-6.78A1.35,1.35,0,0,0,6.46,72.4Z"/><path class="cls-1" d="M24.87,76.21c2.37-2.28,4.26-4.67,6.92-6.7l-2.59-.68.22.42V67.42A16.42,16.42,0,0,1,24.35,73L27,75.62c1.69-2.39,3.79-4,5.82-6.05L30,68.83c.3,1.43-2.52,3.29-3.3,4.34-1.25,1.67,1.42,3.61,2.83,2.19,1.79-1.8,4.66-4.4,4.47-7.18-.21-3.22-5.12-4.82-4.73-8.1l-1.17,1.55c-1.22.47-.46,1.73-.51,2.72a11.31,11.31,0,0,1-.67,3.09h3.85a19.51,19.51,0,0,1-1.4-7.7l-2.42,1.84c2,.57,4.78,5.44,2.29,6.82l2.69,1.09c-.65-3.63.89-7-2.58-9.5L28,62.37a6.29,6.29,0,0,1,2.43,6.86c-.6,1.9-2.27,3-3.32,4.54A1.48,1.48,0,0,0,28.33,76c3.38-.45,5.42-3.93,5.71-7.16A9.57,9.57,0,0,0,29.34,60c-1.3-.82-2.9,1.16-1.67,2.16,2.13,1.74.76,5.45.66,7.83a1.84,1.84,0,0,0,2.31,1.76C37.34,69.65,33,59.35,28,57.9a1.93,1.93,0,0,0-2.42,1.84,21.77,21.77,0,0,0,1.37,8.76c.63,1.66,3.43,2.12,3.85,0,.51-2.66.82-6.12-.54-8.61-.69-1.29-2.47-2.31-3.7-.94s.18,4.13,1.11,5.45c.81,1.16,2.32,2.2,2.62,3.58S28,71.68,27,72.81L29.8,75c1.59-2.59,4.11-3.64,3.42-7a1.7,1.7,0,0,0-2.46-1c-3,1.31-5.31,4.09-7.09,6.75-1.22,1.82,1.5,3.84,3,2.31,2.07-2.12,6.54-5.28,6-8.63-.21-1.27-1.8-1.63-2.78-1.13-3.25,1.68-6.58,4.91-7.48,8.54a1.49,1.49,0,0,0,2.47,1.43Z"/><path class="cls-2" d="M11.66,33.87A6.9,6.9,0,0,1,13.42,28l-3.05-.4c.87,1.26-2,8.07-2.39,9.46-.75,2.63,3.39,3.77,4.09,1.13a33.19,33.19,0,0,1,4.33-9.59L13.52,27.4c-1.06,3.38-7.14,11.1-3,14.06a2.16,2.16,0,0,0,3.14-1.27,34.82,34.82,0,0,1,3.54-7.6L14,32.16c.72,1.81-.85,5.42-1.28,7.26a34.8,34.8,0,0,0-1.13,6.31c-.12,2.32,3.09,2.45,3.81.52,1.18-3.17,1.52-6.74,2.11-10.07.34-2,.59-3.52-.27-5.38-.6-1.29-2.39-1-3.06,0a60.88,60.88,0,0,0-4.39,7.74l2.93-.77c.74.41,3.59-8.5,3.84-9.54.35-1.43-1.55-2.78-2.63-1.53A31.82,31.82,0,0,0,8,37.07l4.09,1.13c.77-3.58,2.89-8.43,1.85-12.09a2,2,0,0,0-3.25-.85c-2.76,2.42-3.54,5.61-2.92,9.14.39,2.18,4.18,1.7,3.91-.53Z"/><path class="cls-2" d="M13.59,44.31a8.94,8.94,0,0,1-.89-3.42c-.08-1.74-2.78-2.29-3.17-.43a62.81,62.81,0,0,1-2,7.78l3.9.53c-.21-2.46-.23-4.92-.51-7.38-.17-1.53-2.62-2.22-3-.4-.61,3.28-.36,6.42,1.82,9.12a1.79,1.79,0,0,0,2.8-.36c.62-1.38.25-2.81.9-4.19l-3-.81a23.35,23.35,0,0,1-.42,5,2,2,0,0,0,3.79,1c.66-1.61,1.41-5.09-.92-5.8-1.81-.55-3.89,1.19-4.63,2.68-.93,1.85-.48,3.93,1.76,4.32,1.39.24,2.7-.06,4.09.3a5.92,5.92,0,0,0,3.15.31A1.64,1.64,0,0,0,18,49.89,19.62,19.62,0,0,1,15.8,47c-.39-.68-1.34-2.46-1-3.28l-1,.75.25-.08-1.86-.75c1.83,2.89,0,7.2,3.52,9.1.94.5,2.5.13,2.68-1.09a20,20,0,0,0-.32-7.89,1.71,1.71,0,0,0-3.28,0c-.64,2.88.87,5.3,2.07,7.83l.26-2a3.31,3.31,0,0,0-.9,2.14l2.92-.8-.29-.41a1.48,1.48,0,0,0-2.69,1.14l.11.48c.39,1.63,2.51,1.35,3,0l.14-.22a1.73,1.73,0,0,0,.26-2c-.72-1.55-2.06-3.51-1.63-5.28H14.86a16.92,16.92,0,0,1,.09,6l2.68-1.09c-1.13-.59-1-3.09-1.3-4.16a9.93,9.93,0,0,0-1.22-3.46,1.72,1.72,0,0,0-1.87-.76c-1.9.74-1.82,2.88-1.42,4.63.57,2.5,2.26,4.51,3.92,6.37l.72-2.7c-.83.2-2.1-.56-2.9-.69-.49-.08-2.37.1-2.68-.2l.52,1.26c0-.46.48-1.35,1.07-1.28l-1.76-1.33c.21.73-.36,1.84-.63,2.51l3.86.52a39.2,39.2,0,0,0-.21-5.52c-.14-1.39-2.29-2.44-3-.81A13.31,13.31,0,0,0,10,45.82c-.15.58-.1,1.64-.46,2.12h3.08c-1.11-1.86-2.1-3.89-1.7-6.14l-3-.41c-.26,2.46-.26,4.92-.44,7.38-.17,2.24,3.38,2.69,3.9.53a40,40,0,0,0,1.3-8.41l-3.17.42a18.12,18.12,0,0,0,1.66,4.4c.88,1.59,3.12.19,2.4-1.4Z"/><path class="cls-2" d="M18.85,49.25c-.55-6-2.09-12-1.64-18l-2.22.3c.94,3.87,2.74,9.42,1.54,13.37l3.13.43a24,24,0,0,0-.76-5.46.94.94,0,0,0-1.79,0,16,16,0,0,0-.64,5.46c.07,1.72,2.76,2.27,3.14.42.93-4.57-1.31-10.39-2.45-14.82a1.13,1.13,0,0,0-2.17,0c-1.93,6.45-.77,12.33.86,18.71.41,1.63,3.16,1.35,3-.4Z"/><path class="cls-2" d="M18.54,40.91c1.11-4.11,2.42-9,2-13.3-.17-1.59-2.71-2.28-3.05-.41a11.36,11.36,0,0,1-3.35,6.34l3,1.24a22.72,22.72,0,0,1,2.54-7.61c.7-1.41-.84-3.44-2.37-2.37-1,.72-2.15,1.77-3.52,1.65l1.59.91a3.7,3.7,0,0,0,.11-2.25l-.8-1.4a21.55,21.55,0,0,1-2.78.35l.38,2.82c1-.29,4.07-1.26,5-.33l-.39-1.48-.07.35,1.09-1.08a13.93,13.93,0,0,1-2.22.48L17,27.91a12.45,12.45,0,0,1,3.09-1.28L17.92,25l-.33,1.41a1.92,1.92,0,0,0,2.71,2.71l1.46-.74-2.13-2.13a5.59,5.59,0,0,1-1.38,2.17c-.86,1-.05,3.11,1.45,2.48,2-.82,3.2-2,3.33-4.19A1.75,1.75,0,0,0,20.84,25,7.52,7.52,0,0,0,18,26.11l2.62,2.63a5.17,5.17,0,0,0,.63-4.19,1.7,1.7,0,0,0-2.07-1.18A13.15,13.15,0,0,0,15.25,25a1.7,1.7,0,0,0,1.3,3.09c1.48-.43,4.27-1.18,3.08-3.37s-5.92-.86-7.74-.65-1.9,2.87,0,2.87c2.06,0,5.9,0,6-2.89.07-2.23-2.42-2.89-4.05-1.81-2,1.3-3.27,5.05-1.65,7,2,2.46,5.53-.1,7.22-1.71l-2.72-2.1a33.82,33.82,0,0,0-3.07,9.36c-.25,2,3,2.34,3.46.47a19.51,19.51,0,0,1,3.24-6.86l-2.67-1.56C15.72,30.89,15.3,36,15,40.43c-.15,2.06,3,2.42,3.56.48Z"/><path class="cls-2" d="M7.86,44.62,7.25,46.3c-.77,2.11,3.05,3,3.19.43.3-5.25.92-10.79-.84-15.84-.69-2-.94-3.94-1.48-5.9-.47-1.67-1.29-2.45-2-4L4.54,22.59c-.15-.08-.06,9.22.07,10.42A58.33,58.33,0,0,0,6.82,43.7a1.6,1.6,0,0,0,3.12-.43,42.28,42.28,0,0,0-.36-7.2c-.2-1.53-.47-3.06-.63-4.6,0-.1.05-4.34-.79-3l1.68-.69c-1.17-.17-.71-2.09-.25-2.4,0,0,3.4,1,3.24,1V24c-.14,0-5.49.8-5.94-.22l-.81,1.41c.72,0,1.44-.08,2.16-.14a1,1,0,1,0-.27-2c-.71.09-1.43.19-2.14.31s-.77.89-.56,1.38c1,2.16,5.88,1.28,7.56,1.59a1.21,1.21,0,0,0,.93-2.2c-2-1.29-6.64-4.35-8-.64-.71,2,1,6.65,3.25,7.12a1.54,1.54,0,0,0,1.68-.68c1.74-2.44.23-8.63-3.68-6.85-2.35,1.07-2,4.71-1.89,6.7.31,4.54,1.66,8.9,1.61,13.48l3.12-.42A61.08,61.08,0,0,1,6.81,29.51c-.27-2.68.2-5.66-.57-8.23A1.16,1.16,0,0,0,4,21.59c-.23,3.06.94,6.76,1.81,9.7,1.54,5.2.43,10.6,1.47,15.87L10,45.58,9,44.33c-.34-.41-.94-.12-1.09.29Z"/><path class="cls-2" d="M7.32,17.59c.34.25.15-1.1.15-1.07a4.6,4.6,0,0,0,0-1.28q.2-.64-.63-.18c-.67-.12-.84.09-.51.61l.06.62c-.17.7-.12.81.14.32l1.25-.16-.27-.09,1,.74c-.14-.31-.17-1.82-.89-1.49a5.55,5.55,0,0,1,0,1.84l1-.73-.25.05,1.81.74a4.15,4.15,0,0,1-.41-2.76h-2a22.68,22.68,0,0,1,1.07,3.3,23.49,23.49,0,0,0,.58,3.37,1,1,0,0,0,1.65.44c2.33-2.36.61-6.68-1.74-8.31a1.07,1.07,0,0,0-1.45.38c-.82,1.48-1.58,3.67-.43,5.2a1.68,1.68,0,0,0,1.81.74c2.9-.82,1.86-7-1.23-6.54-2.8.4-3.87,6.75-.36,6.27,3.35-.45,2.39-7.49-.77-7.55-2,0-2.57,1.84-2.61,3.47s0,3.84,1.63,4.6a1.47,1.47,0,0,0,1.48-2.53Z"/><path class="cls-2" d="M8.74,13H8.58l.93.93v-.3L7,14.66c.39.41.92.64,1.3,1.05A4.24,4.24,0,0,1,9,16.78c.27.58.43,1.29,1,1.65a1.39,1.39,0,0,0,1.84-.37c.83-1.08.29-2.83-.41-3.83S9.4,12,8,12.11a1.5,1.5,0,1,0,.76,2.79,4.1,4.1,0,0,0,.58-.45A.87.87,0,0,0,8.74,13Z"/><path class="cls-3" d="M8.32,15.7l-.26-.09.69.4a5.7,5.7,0,0,0-1.23-.84L7.22,15c-.2-.23-.25-.25-.13-.06a.8.8,0,0,1,.13.52l-.54.93c.13-.16.67-.11.77,0,0,0,.13.18.17.29s.24-.38-.1.06l.7-.7c.72.41,1,.44,1,.09a.94.94,0,0,0-.07-.3c.47-.67-1.21.17-.47.21l-.8-.22c.52.24.68,1.38.54,1.92l3.42-.45a3.71,3.71,0,0,0-.89-1.18,1.34,1.34,0,0,0-1.84,0,2.72,2.72,0,0,0-.69,2.62c.35,2.33,4.14,1.4,3.61-1-.36-1.65-.56-3.67-2.25-4.56a2.74,2.74,0,0,0-3.94,1.47,4.21,4.21,0,0,0,.79,4.48A2.87,2.87,0,0,0,11.24,18c1.39-3.67-3.16-6.94-6.45-5.4a3.14,3.14,0,0,0-.92,5A4.16,4.16,0,0,0,6,18.89a3.27,3.27,0,0,0,2.71-.54,1.47,1.47,0,0,0-.34-2.65Z"/><path class="cls-3" d="M23.34,33.21c2.26.94,4.9.91,7.32.85a16.35,16.35,0,0,0,6.76-1.16c1.64-.78.65-3-.84-3.12-2.27-.2-4.63.43-6.92.52a49.4,49.4,0,0,0-6.32.24c-1.52.25-1.09,2.22,0,2.67Z"/><path class="cls-3" d="M21.41,49.36c3.17.21,11.61.69,12.63-3.42A1.6,1.6,0,0,0,32.94,44c-1.89-.37-3.43.87-5.28,1.22-2.21.43-4.55.38-6.64,1.27a1.47,1.47,0,0,0,.39,2.87Z"/><path d="M12.59,10.71c-5-1.15-16.43-.45-11.29,7.55,1.93,3,5.39,4.49,8.75,5.19,4.71,1,10.08,1.85,14.87,1.48a1.63,1.63,0,0,0,.43-3.19c-4.57-1.55-9.48-1.41-14.18-2.33a14.16,14.16,0,0,1-3-.88,6.48,6.48,0,0,1-2.78-1.72l.05-2.74c.76-.75,5.87-.91,7.15-1.36.9-.32,1.07-1.76,0-2Z"/><path d="M2.59,14C.14,15.27.48,17.19.32,19.82A72.88,72.88,0,0,0,.54,31.36c.64,6.8,1.53,15,5.31,20.85,1,1.47,3.9,1.09,3.65-1-.84-7-3.63-13.64-4.38-20.74a90.33,90.33,0,0,1-.45-10.66c0-2.49.66-4.09-1.4-5.72A.59.59,0,0,0,2.59,14Z"/><path d="M5.94,50.63l-.08.17a1.77,1.77,0,0,0,.26,2.08C9.54,55.79,17,57.84,21,55.13a1.49,1.49,0,0,0-.74-2.75,29.87,29.87,0,0,1-9.57-1.26c-1-.31-3.93-2.13-4.71-.49Z"/><path d="M20.94,53.91c.86-5.33,1.35-10.7,2-16.06a48.63,48.63,0,0,1,1.6-8.21c.75-2.52,2-4.56,2.17-7.18a1.41,1.41,0,0,0-2.11-1.21c-4,2.68-4.73,8.65-5.34,13.08a130.09,130.09,0,0,0-.88,19.23c0,1.43,2.33,1.86,2.57.35Z"/><path d="M9.54,12.12c-.06,1.12.84,2.36,1.35,3.34a5.37,5.37,0,0,0,2.32,2.63c.57.27,1.52.1,1.63-.67a4.9,4.9,0,0,0-.5-3c-.46-1-1-2-1.57-2.92l.24.88v-.24c0-2.25-3.37-2.22-3.48,0Z"/><path d="M14.76,21.55c1.61-2.35.77-5.57,1.47-8.27s2.16-4.94,2.95-7.51a1.91,1.91,0,0,0-2.32-2.33c-3.4.95-4.4,5-5.1,8.08S10.83,19.19,13,21.77a1.12,1.12,0,0,0,1.75-.22Z"/><path d="M12,57.13a1.13,1.13,0,0,0,0-2.25,1.13,1.13,0,0,0,0,2.25Z"/><path d="M32.32,56.9c2.79-8.51,5.2-17.43,7.61-26.08,1.85-6.62,4.41-16.21.8-22.6-.57-1-2.51-1-2.7.35-.55,3.82.13,7.66-.29,11.52a72,72,0,0,1-3,13.21c-2.23,7.36-5.8,15.42-5,23.25a1.33,1.33,0,0,0,2.6.35Z"/><path d="M22.85,29.51C26.63,32,33.79,32,37.79,30a1.49,1.49,0,0,0-.35-2.69c-2.42-.38-4.81,0-7.25.05s-4.8-.26-7.11.36a1,1,0,0,0-.23,1.78Z"/><path d="M19.89,35.51c5.05,2.13,13.71,2.31,17.7-2a1.45,1.45,0,0,0-1.4-2.4c-2.78.77-5.28,1.78-8.2,2-2.7.18-5.43-.19-8.1.26-1.22.21-.87,1.78,0,2.15Z"/><path d="M19.14,45.63c2.17,1.1,5,1,7.43.85a10.74,10.74,0,0,0,6.57-2.22,1.45,1.45,0,0,0-1-2.46c-2.3.21-4.57.7-6.89.86-2.07.15-4.21,0-6.09.94a1.18,1.18,0,0,0,0,2Z"/><path d="M19.19,51.47c4.06.56,12.36,2.33,13.28-3.8a1.25,1.25,0,0,0-1.81-1.4,14.13,14.13,0,0,1-4.34,1.9c-2.19.45-4.53.28-6.76.58-1.37.18-2.09,2.49-.37,2.72Z"/><path d="M10,55.59c-1.18,3.54-1.89,7-4,10.19-1.38,2.09-3.06,4.29-1.67,6.75a1.41,1.41,0,0,0,2.2.28,26.13,26.13,0,0,0,1.89-3.4C9.23,68,10.25,66.69,11,65.18a29.75,29.75,0,0,0,2.56-9.11c.27-2.13-3-2.32-3.59-.48Z"/><path d="M2.07,71.88C1.34,76.51,5,81.31,7.91,84.66c2.74,3.13,7.65,7.39,12.1,6.28a1.57,1.57,0,0,0,.69-2.61C18,86.16,14.59,85.5,12,82.94S5.74,76.1,5.43,72.33c-.15-1.77-3-2.5-3.36-.45Z"/><path d="M17.82,91.05c2.23.45,4.25-1.07,6.25-2a51.14,51.14,0,0,0,7.29-3.55c1.08-.71.8-2.85-.72-2.68a23.89,23.89,0,0,0-7.36,2.21c-2,.92-5.3,1.86-6.24,4.05a1.33,1.33,0,0,0,.78,1.93Z"/><path d="M31.32,85.56c1.31-2.25.53-4.7-.83-6.76-1.59-2.43-3.54-5.23-6.16-6.56a1.14,1.14,0,0,0-1.65,1.27c.59,2.31,2,3.83,3.52,5.64a11.66,11.66,0,0,1,3,6.14c.14,1,1.65,1.06,2.1.27Z"/><path d="M28.93,57.42c2.37,3,7,8.74,4.6,12.83-1.64,2.87-6,4.59-8.59,6.61-1.6,1.26.13,4.22,2,3.47,4.08-1.62,11-6.15,11.46-11,.47-5.29-3.78-11.18-7.74-14.2-1.41-1.08-2.66,1.1-1.75,2.26Z"/><path d="M24.39,73.75c1.1-.91,1.86-2.29,2.9-3.29s2.79-1.89,3.07-3.32A1.75,1.75,0,0,0,29.15,65c-1.88-.4-3.57,1.25-4.8,2.52s-2.63,2.77-3,4.46a1.83,1.83,0,0,0,3,1.76Z"/></g></g></svg>