<svg xmlns="http://www.w3.org/2000/svg" width="53.06" height="81.18" viewBox="0 0 53.06 81.18"><defs><style>.cls-1{fill:#22b573;}</style></defs><title>armor-1-leg-l-1</title><g id="Layer_2" data-name="Layer 2"><g id="Layer_20" data-name="Layer 20"><path class="cls-1" d="M25.89,55c2.22-4.16,3.88-9.44,7.58-12.61l-2.82,1.64L31,44l-5-.65.49.34-3-3.86c1.19,3.59-1.72,8.42-3.55,11.46L32.85,54.7c-.05-3.23,1.21-5.28,3.72-7.32L25.06,42.62a7.48,7.48,0,0,1-1.66,4.59l11.7,4.85c0-2.3.84-3.51,2.63-4.91l-11.28-3c1.18,3.2-.44,4.21-1,7.25-.93,5.33,2.94,8.84,8.11,8.11,7.92-1.11,8.08-13.37,5.89-19-1.41-3.58-6.08-6.91-9.92-4-5.07,3.8-8.29,9-8.16,15.51.12,5.38,7.81,9.76,11.7,4.85a23.37,23.37,0,0,0,5.45-14.29c.22-6.33-7.29-8.24-11.5-4.77A22.85,22.85,0,0,0,19.13,54.7c-.27,6.89,9.46,9.24,12.78,3.47,2.48-4.31,4.58-9,5.07-14,.47-4.81-.54-11.17-5.95-12.65s-8.69,4-10.82,7.89c-2.23,4.12-3.76,8.4-3.41,13.11.34,4.52,6.65,7,9.09,2.46Z"/><path class="cls-1" d="M24.54,42l-.66-.54,1.53,3.7c.28-4.2,1-11,3.71-14.36L17.51,26c.41,4.84-2.25,8-5.6,11.14L23,38.54c-1.71-3.42-.72-6.62,1.2-9.66L12.59,27.36c.79,3.31-2.25,6.8-4,9.28l11.86,1.55c-1.05-3.52.23-6.3,2-9.37,4.06-7.21-6.69-13.44-11.06-6.47A60.45,60.45,0,0,0,5.64,35L18.8,36.74a44.68,44.68,0,0,1,2.95-12L9.46,23.08C9,27.59,7.05,34,8.45,38.35a6.29,6.29,0,0,0,4.39,4.39l.5.1c7.88,1.56,11-9.5,3.33-12.07l-.49-.16L20.58,35c-.26-1.36.55-4,.7-5.5.22-2.14.46-4.28.7-6.42.73-6.78-8.5-7.65-11.66-3.16-3.06,4.34-4,9.89-4.68,15C4.48,43.26,16,47,18.56,38.52a76.46,76.46,0,0,1,3.85-9.7l-11.7-4.94c-2.3,5.9-4.4,11.39-2.79,17.77,1.45,5.71,8.88,6,11.87,1.55,4.09-6.09,6.34-11.84,5.06-19.22-.81-4.75-7.56-6.07-10.62-2.81C7.81,28,7.16,37.33,10.81,45.67,12.67,49.93,19,50,21.9,47.1,27.57,41.44,32.06,34.31,31.11,26c-.78-6.9-8.5-9-12.67-3.43-5.08,6.77-8.29,21.86-.21,27.6C23,53.53,29.13,45.7,24.54,42Z"/><path class="cls-1" d="M22.08,28.61c2.46-5.1,3.44-11.58,4.82-17.1,1.22-4.87-3-8.6-7.7-7.7-8.17,1.59-8.75,14-8.72,20.53,0,8.29,13.05,8.3,12.88,0-.07-3-.57-6.58-.1-9.58.09-.61.41-1.58,0-.64.6-1.45,1.59-2.52,2.11-4.1l-4.79,4.8c3.7-.5,4.85.68,5.32,4.13.72,5.21-.09,10.43.19,15.62L35,27.78c-.88-.22-5.9-11-5.76-11.31l-3,2.3.8-.13-4.31-.57c3.62,2.12,4.41,10.69,3.06,14.12l3.28-4.27-.37.28,5.51-.72c-1.37-.2-1.92-3.57-2.61-4.6.1-1.36-.13-1.7-.67-1-.73.47-.44.79.86,1,.65.84,1.79,1.33,2.47,2.24,1.44,1.95.63,3,.88,4.89a1,1,0,0,1-.48.59l3.66.4c.3-.52-1.52-3.51-1.73-3.94-2-3.87-7.78-2.66-8.91,1.17-1.91,6.47-.33,15.44,8.2,15.61,6.51.14,11.35-6.07,12.5-11.94,2.46-12.5-15-30.39-26.16-18.66-8.88,9.29,4.16,37.06,15.32,26.07,4.52-4.45,3.18-13.89,1.32-19.26-2-5.74-7.63-14.75-14.79-12.17A5.9,5.9,0,0,0,20,13.24c-.16,1.81.48,3.28,1,5a75.25,75.25,0,0,1,1.63,9.47c.73,4.55,1.93,8.79,5.57,11.89S38.8,42,40,36.45c1.62-7.93,1.72-19.84-2.32-27.16C33.37,1.57,24.93.32,17,1.58c-2.33.37-4.16,2.69-4.79,4.8C13,3.62,11.5,7,11.08,7.77a13.21,13.21,0,0,0-1.31,5.17,55.13,55.13,0,0,0,.71,11.4l12.65-1.71a23.16,23.16,0,0,1-.26-5.26l.28-1.89Q24,13.14,23,15l-4.63.6.86.32L15.47,6.69C12.32,12.37,9.84,20.93,12,27.29c1.39,4.13,7.9,5.88,10.1,1.32Z"/><path class="cls-1" d="M30.77,13.73l.06-.12-4.32,2.48c3.35.36,8.43.44,10.13,4.13.83,1.8-.24,3.09-.24,5.12,0,4,3.1,6.58,6.85,6.85a6.69,6.69,0,0,0,5.91-3.39c3.65-7.23,1.08-15.31-5.25-20.08C38.64,4.75,28,1.6,23,7.54c-4.11,4.86,2.63,11.86,7.09,7.09a6.18,6.18,0,0,0,.72-.9Z"/><path class="cls-1" d="M33.69,52.39c5.82,1.3,9.72-4.17,12.3-8.54a6.45,6.45,0,0,0-1.66-8.31c-2.71-2.09-5.93-1.55-8.46.5-.81.59-.45.5,1.08-.29a2.84,2.84,0,0,1,2.42-.52l2.7,1.57a6.12,6.12,0,0,0-.49-.4c-2.21-1.73-6-2.67-8.13,0-1.43,1.82-2.23,3.67-1.68,6a7.22,7.22,0,0,0,3.3,4.41c3.47,2,7.09.72,9.91-1.66L34.86,37.35C33,41.1,29.44,45,30.74,49.44a4.22,4.22,0,0,0,2.95,3Z"/><path class="cls-1" d="M11.23,41.22l.77-.85L4.38,35.94C1.51,43.7,3.23,53,6.06,60.54c2.21,5.9,11.36,5.37,11.42-1.55a36.16,36.16,0,0,1,1.83-11.1H7.66c1.64,6.39.91,12.84,4,18.88,2.93,5.77,11.93,2.89,11.91-3.23a9.74,9.74,0,0,1,3-7.15L16.29,53.68a17.55,17.55,0,0,1,1,8.33C16,70.17,28,73.87,30,65.5a13.28,13.28,0,0,1,3.89-7l-10.8-2.85A6.11,6.11,0,0,1,22.41,60l11.94,5a19,19,0,0,1,3-6.39l-10.87-4.5C26,58,22.69,62.65,21.21,66.31L33.55,68c.34-3.1,1.81-6.07,3-8.92,1.06-2.6,1.84-5.61,3.3-8l-3.66,2.82.48-.16-6-1.57c-.22-1.47-.59-1.83-1.1-1.11l9.61,7.42c1.46-3.46,3.37-6.93,4.08-10.62a5.77,5.77,0,0,0-10.49-4.42C30.62,46.5,29.46,50.28,28,53.74c-2.45,5.84,6.27,10.06,10.23,6,4.16-4.31,5.55-11.51,1.11-16.2a6.06,6.06,0,0,0-6-1.58c-4.42,1.42-5.29,5.48-6.82,9.42-1.89,4.86-4.37,9.84-5.35,15C20,72.87,29.28,77.92,32.7,71.15c2.72-5.38,5.79-11,6.5-17C40,47,30.62,46.62,27.33,50.91a35.73,35.73,0,0,0-5.57,10.64c-2.52,7.55,7.84,10.56,11.93,5,3-4.09,3.25-9.65,1.83-14.39a6.54,6.54,0,0,0-10.81-2.85A25.92,25.92,0,0,0,17.3,62L30,65.5c.84-6,.36-11.13-2.42-16.56-1.79-3.51-7-4-9.67-1.25A24.88,24.88,0,0,0,11,61.84H23.32c-2.15-5.58-2.23-11.5-4-17.16s-10-5.86-11.65,0A47.42,47.42,0,0,0,5.85,59l11.42-1.54c-2.8-6.74-3-13.19-3.94-20.3-.95-7.54-11.77-4.23-8.5,2.3l.51,1a3.78,3.78,0,0,0,5.89.76Z"/><path class="cls-1" d="M6.61,58.57c-2.88,2.34-2.09,7.34-.51,10.2A11.2,11.2,0,0,0,8.89,72,8.63,8.63,0,0,0,12,73.87a6.18,6.18,0,0,0,4.45-.65c2.15-1,2.82-3.78,2.38-5.85a5.62,5.62,0,0,0-1.48-2.7c.63.63-1.8-1.38-1.8-1.32,0,.33.85.52,0-.09-.27-.29-.21-.18.19.32-.32-.43-.65-.85-1-1.27s-.17-.21.23.27l-.22-.35c-.67-1.09.26,1-.16-.26a7.92,7.92,0,0,0-1.88-3.4,4.5,4.5,0,0,0-6.17,0Z"/><path class="cls-1" d="M7.4,64.13l-.37.2a3.86,3.86,0,0,0-1.91,3.32C4.81,82,27,81,33.87,73L23.16,66.72c.91-.39.7-.38-.63,0a4.49,4.49,0,0,1-1.78.24c-.77,0-2.69.29-3.4-.21-1.43-1-1.48-4.33-2.39-5.84-1.48-2.47-5.35-4-7.9-2.08C-1.32,65,4.33,77.31,12.84,80.2c8.89,3,19.49-1.09,22.68-10.07C37.6,64.24,28.87,59,24.81,63.9c-2.28,2.75-6.2,3.15-9.63,2.7-2.71-.35-4.88-4-7.78-2.47Z"/><path d="M12,18.62A30.31,30.31,0,0,1,15.39,3.76C16.85.92,12.57-1.6,11.1,1.25a35.69,35.69,0,0,0-4,17.37c.08,3.2,5,3.21,5,0Z"/><path d="M5.56,69.92c1.33-8.4.12-16.56-.4-25-.65-10.2,1.65-18.09,6.64-27,1.56-2.79-2.73-5.3-4.3-2.5C3.15,23.23.05,30.71,0,39.75,0,49.4,2.3,59,.77,68.6c-.5,3.13,4.29,4.47,4.79,1.32Z"/><path d="M40.94,64.16c1.62-6.32,5.12-11.11,7.79-16.92,2.47-5.36,2.5-11.36,4.21-17,.94-3.06-3.86-4.37-4.79-1.32-1.95,6.39-1.92,12.95-5.36,18.87-2.82,4.88-5.24,9.52-6.64,15-.79,3.1,4,4.42,4.79,1.32Z"/><path d="M50.77,29.83a4.82,4.82,0,0,0-.44.35c-1.16,1.06.66,2.88,1.72,1.72a2.94,2.94,0,0,0,.35-.44,1.2,1.2,0,0,0-1.63-1.63Z"/><path d="M34.58,74.36h.29a2.33,2.33,0,0,0,2-1.16c1-2,1.87-4.17,2.86-6.24s2-3.79,2.08-6a2.06,2.06,0,0,0-3.08-1.77c-1.89,1.38-2.81,3.36-3.72,5.47a40.28,40.28,0,0,0-2.41,6.7,2.34,2.34,0,0,0,.6,2.28,2.07,2.07,0,0,0,1.36.69Z"/></g></g></svg>