<svg xmlns="http://www.w3.org/2000/svg" width="74.45" height="95.61" viewBox="0 0 74.45 95.61"><defs><style>.cls-1{fill:#b21106;}.cls-2{fill:#720805;}.cls-3{fill:#22b573;}</style></defs><title>armor-1-hand-l-1</title><g id="Layer_2" data-name="Layer 2"><g id="Layer_3" data-name="Layer 3"><path class="cls-1" d="M28.84,34.82c.65,4.68,5.65,14.92,12,11.88,8-3.81-2.53-10.31-4.52-13.45l-5.18,4c.67.56,4.84,4.9,4.88,4.84l2.79-1.6c-4.27-.38-9.29-3.13-13.29-4.63C21.91,34.5,19.8,40.08,23,42c3.66,2.2,6.94,5.39,10.7,7.29,3.57,1.81,8.07,2.4,11.92,3.43,2.16.58,4.74-1.11,4.59-3.5a4.82,4.82,0,0,1,2.24-4.88L47,40.17a27.73,27.73,0,0,1-3.39,6L50.39,49A43.75,43.75,0,0,1,54,41.7c2.4-4.1-3.69-7.54-6.31-3.69a39.58,39.58,0,0,0-4.39,9c-1.48,4.2,4.49,6,6.76,2.85a35.24,35.24,0,0,0,4.09-7.78c1.16-3-2.84-5.83-5.39-4.15-3.94,2.6-6.14,6.43-5.8,11.22l4.6-3.51c-3.58-.91-7.94-1.39-11.21-3.08-3.43-1.77-6.55-4.5-10-6.41l-2.58,6.12c4.71,1.68,10.05,4.27,15.07,4.63a3.19,3.19,0,0,0,2.79-1.6c2.59-4.57-2.62-9.86-5.8-12.76a3.31,3.31,0,0,0-5.17,4,15.21,15.21,0,0,0,2.83,3.66c.37.37,3.12,2.4,3.14,2.62l1-2.47c1.17-1.38-.38-1.93-1.22-3.16a15.87,15.87,0,0,1-2-4c-1.26-3.64-6.14-2.1-5.64,1.56Z"/><path class="cls-1" d="M30.27,34.87c-.17-.55,7.11-7.55,8.26-8.62l-5.89-4.54c-2.33,4.07-13,14.2-5.21,18.42,2.24,1.21,6.88,2,9.07.34,1.34-1,1.53-2.51,1.94-4,.25-.93,2.62-7.21,1.68-7.23l-3.48-2c.49.76-2.79,7.39-3.15,8.29C31.67,40,38.57,42.35,41,38.68c1.37-2.06,2.59-4,4.7-5.44l-6.21-3.56c.11,2.37-1.62,4.27-2.6,6.28-2.12,4.34,3.33,9.3,7,5.41a25.6,25.6,0,0,1,4.42-4l-6.61-3.79c0,2-1.93,4.46-2.7,6.34-2.08,5,5.6,7.51,8.31,3.51a28.08,28.08,0,0,1,3.15-3.64l-6.33-4.89c-.74,1.65-1.55,3.25-2.36,4.86-2,4.07,3.32,9,6.67,5.15,2.38-2.73,4.68-5.57,7.26-8.12l-6.51-2.7c0,2.42-1.38,5-1.9,7.39-1.14,5.2,6.11,7.1,7.91,2.18,1.64-4.47,5.83-7.93,6.77-12.56.86-4.3-3.73-6.64-7-4.06-2.54,2-6.51-1.34-8.14-3.12L43,30.67c2.43.48,5.87,1.06,7.7,2.9,2.15,2.16,5.26.37,5.55-2.3.61-5.66-6.88-7.47-11.12-8.35a4.05,4.05,0,0,0-3.91,6.71c5.17,5.76,13.34,8.73,19.73,3.36l-7-4.07C53.62,30.87,52,32.45,51,34.11c-1.22,2.08-2.21,4.27-3.29,6.43l7.49,3.16c1.17-3.53,2.11-6.91,1.48-10.58-.49-2.83-4.54-3.66-6.38-1.68-2.46,2.65-5.22,5-7.87,7.5l7.1,4.14c.51-1.36,1-2.72,1.56-4.07,1.5-3.54-1.68-7.62-5.51-5.52A20.21,20.21,0,0,0,40.21,38l7.6,4.43c1.13-3,2.61-5.44,2.71-8.76a4.43,4.43,0,0,0-6.61-3.79,23.48,23.48,0,0,0-6.3,5.22l7.47,4.35c1.34-3.4,3-5.92,2.68-9.72-.27-2.9-3.36-5.42-6.21-3.56a24.83,24.83,0,0,0-7.64,8.4l7.52,3.18c1.3-3.7,6.9-16.14-1.31-16.55-7.53-.37-6.51,10.48-9.09,14.52l3.21-1.84c-1,.05-2.94,0-3.74-.51l1.69,2.2c-.73-2.2,5.67-8.08,6.93-10,2.4-3.71-2.84-7.29-5.89-4.54s-13.31,13.29-5.55,16.5c1.52.62,3-1.18,2.59-2.58Z"/><path class="cls-1" d="M50.83,25.91c-.1-3.79-2.81-5.09-5.93-6.6A9.5,9.5,0,0,0,40.5,18c-1.7,0-3.43.89-5.08,1.23L40.19,24a1.34,1.34,0,0,1,.33-1.1l-5.59-4.31.5-.55,5,5a21.38,21.38,0,0,1,3.19-4.55,5.25,5.25,0,0,0,1.63-4.69,3.12,3.12,0,0,0-2.67-3A3,3,0,0,0,39.22,13l-.09.6,1.45-1.89a26.65,26.65,0,0,0-6.47,7.65c-2.2,3.71,2.7,7.11,5.76,4.44a4.4,4.4,0,0,0,1.21-1.62c1.54-3.61-2.4-7.16-5.59-4.31A9,9,0,0,0,33.1,21c-1.38,3.21.87,6.29,4.38,5.69.25,0,3.31-.7,3.28-.77q-2.07-.69-.27.06c.59.26,1.19.51,1.79.73,1,.42,2.07.85,3.12,1.2l1.13.35c1.13.15,1.2.16.2,0,1.69,1.22,4.15-.42,4.1-2.35Z"/><path class="cls-1" d="M46,11.55l.3-.54L41,9.56c.25,2.1-.17,4.16.13,6.27s1.29,3.71,1.79,5.66c.95,3.71,6.85,2.09,5.73-1.58a26.45,26.45,0,0,0-1.91-4.49A3.9,3.9,0,0,1,46,13.18c.05-1,.49-1.9.63-2.86a3,3,0,0,0-1.67-3.39,2.85,2.85,0,0,0-3.59,1.18l-.24.57c-1.39,3.26,3.11,6.17,4.91,2.87Z"/><path class="cls-2" d="M52.36,16.17a11,11,0,0,1,1.12-4.5,26.54,26.54,0,0,1,3.16-4.22,2.36,2.36,0,0,0-1-3.9C52.69,2.72,49.9,5.86,48.32,8s-1.92,6.13,1.55,6.44a1.8,1.8,0,0,0,1.71-1.3c.32-1.17-.09-1.85.79-2.83.42-.47.91-.89,1.37-1.33.27-.26,1.22-.77.64-.94l-1-3.9c-2.76,3.14-6.74,8-4.88,12.54a2,2,0,0,0,3.89-.52Z"/><path class="cls-2" d="M52.49,54.42c.56,1.25,1.55,2.21,2,3.53s.24,2.91,1.3,3.88a1.68,1.68,0,0,0,2.32,0c1.4-1.4.66-3.71,0-5.33s-1.68-3.6-3.37-4.35a1.68,1.68,0,0,0-2.27,2.27Z"/><path class="cls-2" d="M60.74,40.67c1.58.8,3.33,1.16,4.91,2a7.25,7.25,0,0,1,1.62,1c.54.5.74,1.19,1.3,1.69a1.86,1.86,0,0,0,3.08-.81c1.24-4.38-6.91-7.23-10.09-6.86-1.44.17-2.41,2.22-.82,3Z"/><path class="cls-3" d="M29.28,80.34A16.76,16.76,0,0,1,35.69,69.1l-3.3-3.3a50.15,50.15,0,0,1-7.9,12.37c-2.27,2.57,1.36,6.29,3.79,3.79,3.93-4.06,7.34-8.54,11.89-12L36.55,67.9c-.06,1.64-3.09,4.61-4,5.82l-4.82,6.7C26,82.9,30,86,32,83.7c3.16-3.62,6.25-7.31,9.37-11l-3.68-2.84A76,76,0,0,1,28.9,81.06l4.34,3.35a68.26,68.26,0,0,1,8.88-11.22l-3.92-3c-2.37,3.47-4.91,6.79-7.46,10.13l4.38,2.56q5.21-9.1,10.51-18.16c1.64-2.81-2.52-5.15-4.32-2.52a80.45,80.45,0,0,1-5.72,7.42l3.93,3a18,18,0,0,1,6.62-7.15l-3.58-2c.31,3.5-2.07,5.6-4.47,7.71L41.82,74C44,69,47.9,64.84,51,60.4H47.4l.67,1.51c.32,1.61,3,2.1,3.72.49a9.76,9.76,0,0,0,.92-4.63,2,2,0,0,0-3.75-1l-.65.91,3.78.5-.2-.9c-.38-1.69-2.38-1.86-3.53-.93a36.79,36.79,0,0,1-10.82,6.12l2.9,3.77A15.47,15.47,0,0,1,46,60.73l-3.08-4a48,48,0,0,1-12.7,9L34,67.3c0-.15,6.93-6,7.42-6.37l-3-3.81a10,10,0,0,1-2.52,2.2c-2.22.74-2.47,1-.77.76q2.6.09-.8-1-3.14,3.64,2.31.81l-2.25-1.71-.54,1.09,3.27.85a2.13,2.13,0,0,0,2.9-.62,1.53,1.53,0,0,0-.4-3c-3-.4-9.47,2-6.62,6,.68,1,2.15,1.67,3.26.86a5.92,5.92,0,0,0,2.64-6.46,2.36,2.36,0,0,0-2.26-1.71c-2.87-.15-6.11.63-7.81,3.18a4.28,4.28,0,0,0,.66,5.86c3.87,2.88,12.72-2.49,9.83-7.45S29,57.91,29.22,62c.36,7.22,10.54,1.17,12.66-1.46a2.43,2.43,0,0,0-3.44-3.43c-2.86,2.32-10.78,7.1-9.44,11.55a2.62,2.62,0,0,0,3.79,1.54,52.1,52.1,0,0,0,13.69-9.87c2-2-.58-5.49-3.07-4A21.72,21.72,0,0,0,36,63.63c-1.15,1.81.78,4.54,2.89,3.77a30.94,30.94,0,0,0,12.45-8.09l-3.53-.93.29.88a2.09,2.09,0,0,0,3.77.49l.56-1-3.76-1-.41,2.57,3.72.49a4.43,4.43,0,0,0-1-2.5,2.08,2.08,0,0,0-3.23-.42c-3.52,4.19-7.78,8.66-10,13.7a2.39,2.39,0,0,0,3.73,2.88c3.42-3,6.25-6.25,5.87-11.07a2.41,2.41,0,0,0-3.58-2.06A21.89,21.89,0,0,0,35.2,70.1c-1.28,2.39,2,5.26,3.93,3a91.45,91.45,0,0,0,6.5-8.44l-4.32-2.52q-5.23,9.09-10.57,18.12c-1.69,2.85,2.53,5.19,4.38,2.56,2.28-3.27,4.54-6.53,7-9.66a2.5,2.5,0,0,0-3.53-3.54,51.15,51.15,0,0,0-10.12,12c-1.56,2.61,2.37,5.87,4.33,3.34a141.64,141.64,0,0,0,9-12.7c1.39-2.26-1.84-4.78-3.68-2.84-3.3,3.48-6.63,6.93-9.88,10.45l4.25,3.28L38.52,74c1.34-2,2.84-3.65,2.85-6.13,0-1.67-2.11-3.2-3.62-2.07A75.33,75.33,0,0,0,24.49,78.17l4.2,3.25a68,68,0,0,0,7.87-13.19c.85-1.91-1.13-4.91-3.3-3.3C28,68.87,25,73.73,24.43,80.34c-.27,3.16,4.44,3,4.85,0Z"/><path class="cls-3" d="M44.74,56.79a14.44,14.44,0,0,0-6.05-3c-2.57-.75-5-1.88-7.63-2.54a2.77,2.77,0,0,0-3.37,3.37c.52,1.88,3.21,2.81,4.58,1.21a4.53,4.53,0,0,0,.43-.55l-3.75,1a28.82,28.82,0,0,0,6.9,2.57c2.31.56,4.74.56,7,1.18,1.77.48,3.32-1.88,1.86-3.18Z"/><path class="cls-3" d="M29.44,54.47A6.59,6.59,0,0,1,28.17,51l-2.71,2.07,2.69,2.84,2.29-3c-2.53,0-2.58-1.74-4.21-2.53a2.56,2.56,0,0,0-2.92.38c-2.67,2.08-4.6,6.42-6,9.42s3.24,5.85,4.64,2.71a19.62,19.62,0,0,1,4.89-6.75l-4.18-2.43c-1.43,4-2.86,8-4.24,12.08-1,3,3.41,4.67,5,2.11a39.19,39.19,0,0,1,7-9l-4-3.09Q23,62.36,19.63,69a2.91,2.91,0,0,0,5,2.93c2.09-2.87,4.41-5.57,6.67-8.3L26.91,61.1c-1.05,5.63-5.46,9.81-7,15.31l5.64.76a14.42,14.42,0,0,1,5.12-9.55L27,64.78a52.91,52.91,0,0,1-7.66,10.5l4.39.56a13.16,13.16,0,0,1-.34-13l-4.73-1.29c.35,3.26-1.33,6.12-2.09,9.22-.4,1.63-.22,6.39-1.33,7.39l4.47,1.18a10.84,10.84,0,0,1,1.63-7.86L17.2,69C14.57,73,9.29,82.24,13.29,86.52a2.52,2.52,0,0,0,3.93-.5,31.39,31.39,0,0,0,3.3-7.81c.8-2.9-3.31-3.84-4.38-1.21A32.56,32.56,0,0,0,14,85.22c-.38,2.93,3.86,3,4.77.65a40.31,40.31,0,0,0,1.84-6.09c.51-2.24-2.27-4.11-4-2.32-2.41,2.51-4.57,5.31-3.95,9,.65,3.9,4.27,6.66,7.72,8.09,7.74,3.21,15.89-.9,17-9.29.42-3.22-5.13-4-5.71-.77-.71,3.88-4,5.89-7.89,5.24A7.81,7.81,0,0,1,19,87.42q-2.13-1.07-.51-3.26A3.86,3.86,0,0,1,20,80.84l-4-2.33a36.89,36.89,0,0,1-1.92,6.07l4.77.64a22.87,22.87,0,0,1,1.67-7L16.14,77a26.3,26.3,0,0,1-3.25,6.49L16.83,83c-1.13-1.37,4-10.38,4.54-11.5,1.39-2.76-2.64-5.17-4.17-2.44a19.73,19.73,0,0,0-2.72,11A2.72,2.72,0,0,0,19.05,82c2.69-2.25,1.82-5.86,2.39-9C22.16,69,24,65.63,23.77,61.55,23.62,59.13,20.34,58,19,60.27a18.48,18.48,0,0,0-.11,18.4,2.82,2.82,0,0,0,4.4.56,51.82,51.82,0,0,0,7.75-12.08c1-2.28-1.69-4.9-3.69-2.84A31.55,31.55,0,0,0,20,76.41c-1.2,3.5,4.37,5,5.54,1.53C27.28,72.57,30.9,68.13,32,62.5c.46-2.35-2.55-4.73-4.41-2.56-2.46,2.87-4.87,5.79-7.5,8.51L24.65,72q3.17-6.8,6.21-13.65c1.13-2.53-1.77-5.2-4-3.08a62.52,62.52,0,0,0-8.18,9.88l5,2.11C25,63.17,26.23,59.1,27.47,55c.75-2.5-2.41-4.06-4.18-2.44a30.37,30.37,0,0,0-6,7.58l4.64,2.71c1.34-2.6,2.58-6.75,4.78-8.73l-2.34.62c-1.85-.74.8,1.33,1.55,1.82a7,7,0,0,0,4.52,1.06,2.4,2.4,0,0,0,2.29-3,7.68,7.68,0,0,0-6.13-5.72A2.18,2.18,0,0,0,24,51.55a6.8,6.8,0,0,0,3.3,5.1c1.3.94,3-.89,2.18-2.18Z"/><path class="cls-3" d="M31.22,83.25a12.42,12.42,0,0,1-7.83,1.13L25,85.61l-.22-.4.27,2c-.68.64-.53.61.44-.11.43-.26.87-.52,1.31-.76s2.5-1.54,2.85-1.3l-1.13-2c.05,1.1-2.36,2.33-3.24,2.62-1.67.54-4.1.19-4.91-1.64-.49-1.11.19-1.78,1.27-2.36.24-.13,2-1,2.2-.86,1,1-3.2,2.34-3.88,2.29l1.78.74c.71.59,1.46-.93,1.9-1.34A9.68,9.68,0,0,1,26.06,81L23,78.64a9.28,9.28,0,0,1-4.36,4.87L22.86,86c0-1.64,2.05-3.13,3.25-4l-3.46-.91.22.48-.25-2c-.24,1.18-1.36,2.36-2.05,3.32-1.67,2.36,1.48,4.62,3.62,3.61A2.69,2.69,0,0,0,25.63,85a2.17,2.17,0,0,0-1.85-3.22l.41.13.94,3.61c1.35-2.32,3.26-4.35,1.89-7.06a2.54,2.54,0,0,0-3.46-.91c-3.18,2-6,4.4-6.36,8.36C17,88.69,20.32,89.28,22,88a15.14,15.14,0,0,0,5-8.19,2.14,2.14,0,0,0-3.1-2.38c-2.79,1.28-6.66,4-6.85,7.4-.22,4.16,4.71,3.85,7.26,2.41,2.9-1.63,5.58-5.45,3.78-8.78-1.94-3.6-6.48-2.11-9.31-.52-8,4.52-1.27,14.92,6.51,13.25,3.19-.69,7.6-3.63,7.85-7.26.33-4.82-5.32-3.24-7.83-2.2S17,85.8,21.06,89.05c1.66,1.31,4.5.73,6.41.47a12.24,12.24,0,0,0,6.42-2.81c2-1.62-.56-4.67-2.67-3.46Z"/><path class="cls-3" d="M55.34,51.17c.62.36,3.29,1.38,3.33,2.2.16,3.67,5.89,2.68,4.8-.65a20.91,20.91,0,0,0-1.25-3.21c-.37-.74-1.48-2-1.25-2.9l-1,1.26.37-.16-1.62.21a4.76,4.76,0,0,1,1.69.83,3.9,3.9,0,0,1,.69.52c.49.44.56.52.23.25l.57-2.16c1.14,0,1.42-.13.86-.41-.24-.15-.48-.3-.72-.47a8,8,0,0,1-1.3-1.1c-.7-.77-.37-1.39-1.23,0q-1.24,1,0,1.26l.9.45c.5.26,1,.53,1.49.81l.87.52c.58.48.68.08.3-1.21-.32-.07-2.29,2.25-2.58,2.56l4,3.05c.93-1.94,2.93-4.93.62-6.71a4.71,4.71,0,0,0-3.57-.66c-.61.09-1.21.28-1.82.33-1.15.08-.25-.21-.53.63A2.21,2.21,0,0,0,56,44a3,3,0,0,0,2.36,5.52c2.87-.66,1.58-4.71-1.19-4.31l1.48,2.23L55,45.28a4,4,0,0,0,1.77,4.87,5.27,5.27,0,0,0,2.77.55c1.07-.05,2.52-.8,3.53-.41L61.63,49.2l.18.38-.24-1.83a8.21,8.21,0,0,1-1.42,2.56c-1.52,2.48,1.91,5,3.95,3,1.7-1.6,4.36-3.66,3.65-6.33-.66-2.5-4.27-3.74-6.43-4.52S56.15,42,56,44.86c-.14,2.34,2.43,4.37,4.1,5.58s5.17,1.87,5.59-1.21c.33-2.48-2.68-4.16-4.59-5-2.37-1-4.6.14-4.28,2.9a9.31,9.31,0,0,0,1.08,3.1c.22.46.49.89.7,1.36a4,4,0,0,1,.34.87c0-.37,0-.3-.18.22l4.81.65a6.62,6.62,0,0,0-7.78-5.52c-1.59.3-1.7,2.57-.44,3.32Z"/><path class="cls-3" d="M54.08,18.91l-.3-.54c-1.41-2.57-4.72-.65-4.37,1.85.47,3.35,6.21,5.13,9,5.9,3.1.85,8.84,2.12,10.75-1.25a1.92,1.92,0,0,0-.3-2.26c-1.8-1.88-4.22-1.06-6.6-1.3a21.35,21.35,0,0,1-4.48-.92c-.49-.16-3.63-1.1-3.74-1.44l-.24,1.84c.32-.62.67-1.2.3-1.88Z"/><path class="cls-3" d="M57.37,21.59c3.34,1.1,6.89,1.82,9.08,4.82a2.49,2.49,0,0,0,2.61,1.06,1.71,1.71,0,0,0,1-.6,2.38,2.38,0,0,0,.36-2.79c-2.67-4.33-7.91-5.51-12.65-5.65-1.87-.05-2.1,2.61-.42,3.16Z"/><path class="cls-3" d="M66.91,23.29c1.52,2.11-2.62,6.71-3.64,8.44A2.45,2.45,0,0,0,64.14,35c1.21.79,2.78.89,4,1.69l1.13-4.18c-2.15-.19-4.48-.77-6.42.43-2.14,1.33-.75,5.31,1.81,4.28,1.33-.53,3.81-.87,5,.42L69,35.37l-.11.36c-.84,3,3.58,4.12,4.59,1.27a15.23,15.23,0,0,0-4.38-16.48l-2.91,3.76c1.39.77,5.2,6.22,1.92,6.77l3,3c1.14-3,2.52-5.63,1-8.67L68.4,28.21c2.15,1.87.57,7,1.3,9.63a2.14,2.14,0,0,0,4.1,0c1.19-3.53.89-10.24-2.12-12.92A2.33,2.33,0,0,0,68,27.74c.57,1.15-.92,3.35-1.44,4.44a2.48,2.48,0,0,0,2.77,3.59c3.4-.56,4.91-3.88,4.61-7.05a11.17,11.17,0,0,0-5.41-8.58c-2.3-1.35-5,1.91-2.9,3.77a10.84,10.84,0,0,1,3.18,11.82L73.44,37c1.27-4.92-7.15-5.43-10.08-4.26L65.17,37c.68-.43,3.21,0,4,0a2.27,2.27,0,0,0,1.14-4.19c-1.1-.64-2.4-.62-3.29-1.61l.38,2.93c1.4-2.28,3.16-4.74,3.42-7.47.23-2.42-.79-3.43-2.57-4.8-.8-.62-2,.59-1.39,1.39Z"/><path class="cls-1" d="M14.52,73.3a13.74,13.74,0,0,1,1.58-7.56L12,64.62A50.82,50.82,0,0,1,11,72c-.52,2.48,2.9,4.2,4.25,1.79l1.3-2.32c.29-.53.69-1.73,1.24-2l-3.3-1.89a13.15,13.15,0,0,1-1.12,4.28,3.5,3.5,0,0,0,.5,4c2.27,2.23,5.78-.14,5.93-2.86a2.2,2.2,0,0,0-2.17-2.18c-1,0-1.41.57-2.23.79l2,.26c.75.33.57,2.72,1,.63.12-.54.19-1.08.26-1.62a22.48,22.48,0,0,0,.19-3.28,2.22,2.22,0,0,0-3.3-1.89c-2,1-3.19,3.91-4.35,5.78l4.34,1.18c.35-2.66.6-5.32.87-8,.19-1.82-2.62-3.05-3.78-1.57-2.51,3.2-2.8,6.93-1.72,10.74.54,1.91,3.9,1.63,3.62-.49Z"/><path class="cls-1" d="M10.48,73,10,72.83l1.73,3a20.64,20.64,0,0,1,1.36-5.24c.72-1.67,1.67-3.22,2.25-5s-1.27-3.68-3-3a8.86,8.86,0,0,0-3.59,3.1C7.44,67.39,6.05,69,4.71,70.55L9,71.1c.38.75.24.18.46-.3s.39-1.24.62-1.83a31.06,31.06,0,0,1,1.52-3.26c1.32-2.53-2.14-5.63-4.17-3.21-2.23,2.66-6,10.58-.4,11.75a2.43,2.43,0,0,0,2.71-3.52c-.62-1.26,1.27-4,1.86-5L7,63c-1.45,3.11-4.37,7.38-2.76,10.83,1,2.06,3.65,1.49,4.74,0,.9-1.23,1.75-2.5,2.66-3.73l1.24-1.68c.24-.32,1.29-1.24.73-1.09l-2.36-4.06c-2.63,3.13-4.7,7.75-4.42,11.9A2.51,2.51,0,0,0,11.09,77l.35-.31c1.33-1.16.48-3.15-1-3.66Z"/><path class="cls-1" d="M6.44,72.69a2.78,2.78,0,0,0-1.22,3.78C6,78.2,7.58,78.78,9.31,79.1c2.55.46,4.64,1.65,7.12,2.32,1.91.52,4.06,1.07,5.47-.63a1.84,1.84,0,0,0,.28-2.14c-1.19-2.16-4-1.93-6.09-2.73-1.08-.4-2.1-1-3.21-1.32s-3.84,0-4.28-1a1.51,1.51,0,0,0-2.16-.88Z"/><path class="cls-1" d="M8.17,74.72l-.07-.07.62,1.51c.08-.64-.13.42,0-.22,0-.16.09-.33.13-.5A7,7,0,0,0,9,73.93a2.15,2.15,0,0,0-1.55-2h0l1.14.88-.06-.14a1.8,1.8,0,0,0-2.8-.36l-.13.11,1.35-.56h0a2.15,2.15,0,0,0-2,1.55c.07-.21.06-.2,0,0a2.46,2.46,0,0,0-.28.74c0,.2-.06.41-.09.62a3.75,3.75,0,0,0,.3,2.48A2.14,2.14,0,0,0,7.67,78l.09-.06a2.08,2.08,0,0,0,.41-3.22Z"/><path class="cls-1" d="M8.6,69.27c.14-3-.5-6.24-.14-9.18.31-2.61,1.81-4.64,1.91-7.3.13-3.12-4.35-2.92-4.72,0-.52,4,1.67,9.44,2.51,13.43.56,2.7,4.18,2.2,5,0,1.19-3.25.23-7.66-.44-11L8.22,57.87c2.34,2.52,3.6,5.54,6.18,7.93s6.56-1.69,3.86-3.87l-1.7-1.67L13.3,63.52a71.54,71.54,0,0,0,13.12,6.2l-1.63-4c-1.55,2.06-3.64,3.69-5.12,5.78-1.25,1.77-1,3.74-1.8,5.63l1.89-1.89c3.57-.65,2.93-1.79,4.28-4.58H19.72q2.31,2.39-.5,5.16l3.65,3.65c1.72-2.85,3.56-5.77,4.07-9.08.27-1.79-1.81-3.5-3.29-1.92-2.29,2.43-3.55,5.53-5.38,8.31C16.85,79,19.73,82,21.91,80.43c4.31-3.05,5.46-8,2.13-12.28-1-1.35-3.4-1.88-4.32,0-1.31,2.66-5.61,11.44-.07,12.42a3.18,3.18,0,0,0,3.56-2.16c.87-2,1.2-3.63,2.6-5.45C27,71.43,28.33,70,29.49,68.47s-.13-3.51-1.62-4A114.8,114.8,0,0,1,15.7,59.4a2.41,2.41,0,0,0-3.26,3.26A8,8,0,0,0,14,65.24l4.29-3.31c-2.56-2.32-3.89-5.39-6.25-7.85-1.93-2-5,.09-4.48,2.61s1.43,5.72.63,8.15h5c-.8-3.37-3.06-8.59-2.77-12.05H5.65c0,2.8-2,5.23-1.92,8.22a27,27,0,0,0,1.5,8.72,1.72,1.72,0,0,0,3.37-.46Z"/><path class="cls-2" d="M18.62,51.79c-1.3-1.48-3.47-2.35-5.25-3.09-1.59-.67-3.28,1-3.28,2.5a2.64,2.64,0,0,0,3.28,2.5l.43-.09H12.61a3.12,3.12,0,0,0,1.66.06,2.05,2.05,0,0,0,1.22-3,3.12,3.12,0,0,0-1.15-1.16l.8.81-.22-.43L12,53.7c1.36.57,2.84,1.58,4.32,2.06a2.38,2.38,0,0,0,2.31-4Z"/><path class="cls-2" d="M31.44,71.6c1.25,1.18,3.48,1.66,5.05,2.36,1.82.81,4,2.28,6,1.59a2.1,2.1,0,0,0,1.23-3c-1-2.11-4.28-2.73-6.32-3.52-1.82-.71-4.53-1.68-6,.14a1.79,1.79,0,0,0,0,2.46Z"/><path class="cls-2" d="M25.16,83c1.52.46,3.11.64,4.65,1s3.09,1,4.66,1.33c2.6.61,4.4-3.09,1.87-4.45a15.53,15.53,0,0,0-11.18-1.31,1.79,1.79,0,0,0,0,3.43Z"/><path d="M58.55.42c-8.91-2.64-16,7.64-14.21,15.76,1.95,8.7,13.26,15.9,21.92,12.72a1.52,1.52,0,0,0,0-2.91C60.48,24.25,54.6,25,50.54,19.52,45.87,13.18,49.37,3.29,58.1,3.76c2,.11,2.25-2.8.45-3.34Z"/><path d="M50.78,2l-.51-.59A1.72,1.72,0,0,0,48.57,1c-7,2.15-12.39,10.65-16.67,16.13-5,6.35-11.24,13.73-13.83,21.43-.6,1.81,2,3.37,3.26,1.9,5.33-6.2,9-14.11,14-20.68,2.71-3.56,5.54-7,8.52-10.39a28.16,28.16,0,0,1,4.89-4.62c1.27-.9,1.53-.56,2.14-2a.65.65,0,0,0-.1-.74Z"/><path d="M47.31,4.93a14.85,14.85,0,0,0,3.51-1.14,9.75,9.75,0,0,0,3.71-1.62A.89.89,0,0,0,54.15.7c-1.54-.58-3.06-.06-4.53.5-1.26.47-2.8,1-3.26,2.34a1,1,0,0,0,.29,1.06,1,1,0,0,0,.66.33Z"/><path d="M49.13,4.17c.5-.12,1-.36,1.47-.5a10.79,10.79,0,0,0,1.5-.57,1,1,0,0,0,0-1.73A2.93,2.93,0,0,0,49.86,1a3.8,3.8,0,0,0-2,1.06,1.29,1.29,0,0,0,1.24,2.14Z"/><path d="M63.87,29.31,65.41,29l-1.54-2.65c-3.93,3.47-6.22,9-8.77,13.52-2.64,4.67-6.93,10-7.83,15.3a1.8,1.8,0,0,0,3,1.73c4.06-3.59,6.28-10,8.86-14.69s5.48-9.36,7.42-14.32C67.27,26,63.78,25,63.46,27l-.25,1.61a.54.54,0,0,0,.66.66Z"/><path d="M20.57,37.39h-.13a2.07,2.07,0,0,0-2,2.58c3.84,11.13,19.44,15.85,29.63,17.5,3.16.51,4.59-4.2,1.35-4.9-6.9-1.48-13.84-2.88-19.84-6.82-3-2-4.86-4.31-7.24-6.93-.53-.59-.74-1.55-1.81-1.44Z"/><path d="M50,19.87c3.82,0,7.29-.51,11.09.55,3.36.93,6.18,3.6,9.52,4.18,1.13.2,2.6-.76,2.09-2.1C69.83,15,55.46,13.4,49.18,16.79A1.66,1.66,0,0,0,50,19.87Z"/><path d="M59.71,2.27l-.16-.16a1.83,1.83,0,0,0-2.54,0c-1.95,1.84-2.92,5-3.81,7.52-1,2.68-2.05,6.15-1,8.92a2.13,2.13,0,0,0,4.07,0c.57-1.66.47-3.4.78-5.12A39.22,39.22,0,0,1,58.4,8.32C58.81,7,61,3.56,59.71,2.27Z"/><path d="M47.72,65.87C53.62,67,60.39,63,64.62,59.18s9.7-10.36,8.65-16.25a2.16,2.16,0,0,0-3.58-1c-1.68,1.77-2.23,4-3.39,6.14a26.93,26.93,0,0,1-5.16,6.66C56.94,58.78,52,60,47.34,63c-1.05.67-1,2.62.38,2.88Z"/><path d="M19.6,61.71c1.17-2.34,1.71-4.87,3-7.21s3.33-4.86,3.75-7.64c.18-1.23-1.05-2.64-2.32-1.78-2.84,1.9-4.4,5.54-5.89,8.53-1.27,2.53-2.53,5.39-1.24,8.1a1.56,1.56,0,0,0,2.69,0Z"/><path d="M47.85,63.55C44.5,67.74,42.06,72.66,39,77.08c-2.4,3.45-6.57,7-5.54,11.56a1.92,1.92,0,0,0,2.8,1.14c3.33-2.47,5.69-7.13,8-10.57,2.81-4.17,5.8-8.7,7.17-13.58.54-1.93-2.19-3.81-3.58-2.08Z"/><path d="M14,80.38c2.42-3.24,3.23-7.45,4.27-11.31C19.34,65,20.42,61,21.75,57c.62-1.85-1.72-2.75-3-1.73-3.41,2.77-4,7.65-4.86,11.72-.94,4.28-2.3,8.79-1.57,13.17.14.84,1.23.75,1.63.21Z"/><path d="M13.12,86.24c.7-1.74,1.18-3.55,1.77-5.33s1.38-3.56,1.26-5.44c-.07-1.22-1.77-2.28-2.69-1.12a15.13,15.13,0,0,0-2.39,5.9,9.38,9.38,0,0,0,0,6,1.09,1.09,0,0,0,2.08,0Z"/><path d="M49.27,54.45c.44.76,1.23,1.13,1.68,1.91a6.77,6.77,0,0,1,.84,2.77c.1,1,.08,2,1.1,2.52a1.81,1.81,0,0,0,2.31-.75c1-1.66-.1-4.47-1.06-5.91-.85-1.26-2.83-3.27-4.46-2.1a1.17,1.17,0,0,0-.41,1.56Z"/><path d="M51.79,51.44a14.05,14.05,0,0,1,4.32,4.43c.92,1.66.74,3.89,2.34,5a1.51,1.51,0,0,0,1.81-.23c1.73-1.92,0-5.28-1.27-7.11a10.84,10.84,0,0,0-6.13-4.65,1.4,1.4,0,0,0-1.07,2.54Z"/><path d="M59.36,42.66A15.09,15.09,0,0,1,65,45.38c1.67,1.26,2.62,3.06,4.14,4.41,1.26,1.12,3.59.06,3-1.75-1.52-4.71-7.49-7.47-11.93-8.42-2-.42-2.82,2.57-.83,3Z"/><path d="M60.52,39.2c2.65.93,5.72.28,8.17,2,1.28.91,2.63,3.4,4.36,1.68A1.89,1.89,0,0,0,73.54,41c-1-2.5-2.91-3.77-5.44-4.55-2.34-.71-5.77-1.31-7.92.15a1.42,1.42,0,0,0,.34,2.56Z"/><path d="M71,46.21c1.49-.46,2.18-2.15,2.59-3.53s.87-3.41,0-4.75a1.32,1.32,0,0,0-2-.26c-1.06.94-1.14,2.51-1.4,3.82s-.85,2.72-.49,3.95a1.11,1.11,0,0,0,1.35.77Z"/><path d="M4.83,79.12c.81-4.84.15-9.82.37-14.71.25-5.36,1.88-10.35,2.42-15.62.2-2-2.43-2.18-3.35-.91-5.52,7.58-5.14,22.79-2,31.24.41,1.07,2.3,1.41,2.53,0Z"/><path d="M5.49,50.54c2.35-.43,5.76,5.08,7.26,6.57a48.87,48.87,0,0,0,6.6,5.5c4.27,3,9.29,5.68,14.6,4.84,1.37-.22,1.49-2.27.38-2.89C31.14,62.8,27.6,62,24.41,60.23a45.89,45.89,0,0,1-10.16-8c-1.89-1.9-7.7-8.91-10.1-3.41a1.21,1.21,0,0,0,1.34,1.75Z"/><path d="M1,79c5.1,4.13,17,9.72,23.32,5.79,1-.63,1.29-2.5,0-3-3.26-1.39-6.94-.93-10.4-1.82-3.84-1-7.34-2.86-11.12-4C1.13,75.36-.45,77.76,1,79Z"/><path d="M23.81,85.14a68.54,68.54,0,0,0,5.9-9.33C31.28,73,34,69.69,33.57,66.38A1.63,1.63,0,0,0,31.15,65c-3,1.47-4.33,5.43-5.76,8.29a59.81,59.81,0,0,0-4.45,10.19c-.45,1.55,1.76,3,2.87,1.67Z"/><path d="M7.18,50.17c2-.79,4.45.39,6.37,1.07s4,2,6.09,2.28c1.8.24,3.31-1.7,1.87-3.22-2.13-2.24-6.09-3.32-9-4-2.7-.6-5.15-.6-6.8,1.89-.61.91.42,2.38,1.5,2Z"/><path d="M4.55,78.3Q3.1,75.53,4,76.85a.18.18,0,0,1-.05-.2,4.13,4.13,0,0,0,0-1.11A3.4,3.4,0,0,0,3,73.27a1.07,1.07,0,0,0-1.5,0,4.63,4.63,0,0,0-.62,3.79,2.49,2.49,0,0,0,2.28,2.3,1.41,1.41,0,0,0,1.27-.73c0-.11.1-.22.14-.33Z"/><path d="M24.68,83.39c3.47,2.64,8.73,4.09,13,3.09,1.45-.35,1.18-2.23,0-2.69a35.74,35.74,0,0,0-6-1.41c-2-.41-4-1-6-1.3a1.27,1.27,0,0,0-1,2.31Z"/><path d="M26.46,79.26a35,35,0,0,0,6.72,3.54c2.07.91,4.13,2,6.44,1.81a1.62,1.62,0,0,0,1.13-2.72c-1.56-1.69-3.76-2.34-5.84-3.18A53.72,53.72,0,0,0,27.82,76a1.78,1.78,0,0,0-1.36,3.23Z"/><path d="M30.09,74.25c1.94.78,4,1.32,5.93,2S39.65,78,41.63,78a1.78,1.78,0,0,0,1.25-3c-1.48-1.52-3.76-2.12-5.75-2.73a28,28,0,0,0-6.59-1.32c-2.05-.11-2.08,2.66-.45,3.31Z"/><path d="M32.56,68.81c4.12,2.25,9.06,5.86,13.95,5.49,1.34-.1,2.5-1.92,1.23-3-2.27-1.86-5.09-2.65-7.76-3.82-2.34-1-4.39-2.3-7-1.85-1.48.25-1.64,2.47-.41,3.14Z"/><path class="cls-1" d="M10.1,78c2.55,1.39,7.79,3.56,10.12.69a1.94,1.94,0,0,0-.38-3c-1.34-.81-2.73-.46-4.2-.61A24.41,24.41,0,0,1,11.81,74C9.42,73.32,7.87,76.82,10.1,78Z"/><path class="cls-1" d="M9.05,76.83c1.08,2.06,4.53,2.66,6.62,2.94a2.43,2.43,0,0,0,2.88-1.63,2.37,2.37,0,0,0-1.64-2.89c-1.09-.18-2.18-.38-3.26-.61a8.6,8.6,0,0,0-3.45-.32h1l-.17,0a1.74,1.74,0,0,0-1.94,2.53Z"/><path class="cls-1" d="M14.23,73.37l-.85-.7-2.14,2.79a10.22,10.22,0,0,1,4.14,1.46l1.72-4.07c-.58-.24-2.87-1-3.1-1.66l-2.38,2.37a8.14,8.14,0,0,1,4.62,2.34c2.23,2.32,5.58-1.62,2.78-3.61-1.66-1.18-3.44-2.31-4.26-4.24l-1.28,3.14a26.4,26.4,0,0,1,3.1,2.49l2.94-3.81c-1.37-1-3.23-2.14-4.17-3.59L15.58,68l.07-.44L14.11,69.1c-.77-.09-.83,0-.17.16a8.63,8.63,0,0,1,1.17.51,9.09,9.09,0,0,1,2.06,1.47L19.63,67c-.74-.23-4.17-1.42-4.32-2.31l-2.67,2.66a16.34,16.34,0,0,1,4.43,1.76l1.84-4.35c-1.06-.4-5.15-1.67-5.45-2.91l-3,2.28c2.81,1.4,5.42,3.23,8.22,4.6,2,1,4.24-1.51,2.5-3.24-2.42-2.4-6-4-9.17-5.05A2,2,0,0,0,9.5,62.41c.44,3.73,5,5.74,8.14,7,2.56,1,4.1-3,1.83-4.35a14,14,0,0,0-6.25-1.91,2.18,2.18,0,0,0-2.09,2.75c.92,2.73,4.22,4.39,6.55,5.78s5.26-2,3.06-4c-1.88-1.64-6.75-4.83-8.95-2-2.42,3.06,3.2,7,5.28,8.42,2.26,1.55,5.05-2,2.94-3.81s-5.42-4.55-8.17-3a2.19,2.19,0,0,0-.77,2.93,14.53,14.53,0,0,0,5.63,6.05l1.77-4.2c-2-.79-3.6-1.89-5.82-2.22-1.09-.16-2.6.48-2.44,1.86.33,3,3.12,4.47,5.7,5.45,2.37.9,3.93-2.91,1.72-4.08a10.45,10.45,0,0,0-5.89-1.34C10.27,71.84,9,73.83,10.4,75a5.17,5.17,0,0,0,3,1.31c1.53.18,2.16-2.28.79-2.91Z"/><path class="cls-1" d="M13.71,62.06V62H10.83a37.19,37.19,0,0,0,3.56,2.55c1.18.84,2.27,1.79,3.43,2.68,2.07,1.6,4.69-1.87,2.79-3.62-2.14-2-5-4.15-7.79-5-2.53-.79-3.64,3.43-1.09,3.92a5.41,5.41,0,0,1,.79.21,1,1,0,0,0,1.19-.68Z"/></g></g></svg>