<svg xmlns="http://www.w3.org/2000/svg" width="61.19" height="84.3" viewBox="0 0 61.19 84.3"><defs><style>.cls-1{fill:#22b573;}.cls-2{fill:#b21106;}.cls-3{fill:#720805;}</style></defs><title>armor-1-hand-r-2</title><g id="Layer_2" data-name="Layer 2"><g id="Layer_13" data-name="Layer 13"><path class="cls-1" d="M8.35,17.93c.16-5.17.85-13.52,8.22-10.2C20.84,9.65,22,14,25.5,16.55a2.76,2.76,0,0,0,4.05-1.65C30.83,7.13,20.38.5,13.57,0,4.58-.61-.65,11.28,2.29,18.75c1.23,3.13,5.94,2.86,6.06-.82Z"/><path class="cls-1" d="M12.12,22.67A12.79,12.79,0,0,1,17,12.51l-5.12-2.12c-.11,2.73-.77,6.27-3,8.13l2.29-.95h-.49l2.79,1.6c-1-2,.19-4.64-.39-6.62-.3-1-.14-.24-.67.57s-.84,1.77-1.73,2.28l2.69-.35L12.9,15,15,16.6c.31.71.28-1.22.41-1.6.22-.65.74-1.81,1.49-1.92l-2.63-.34c-.26-.19-.2,2.66-.2,2.66a11.64,11.64,0,0,1-1,3.31h7.22C20.18,18.16,20,15,19.93,15l-2.47-1c.84.65.25,3.71,1.27,3l4.84,1.27a2,2,0,0,1,0-2.79l-2.16.89c-1.1,0-1.12-1.09-.15.73a15.05,15.05,0,0,1,1.11,2.61L28.47,17a12.2,12.2,0,0,1-.9-2.63c-.87-3.19-6.21-2.68-5.93.8.11,1.31.32,1.4-.35,2.37-.52.74-2.51,1.65-3.31,2a14.07,14.07,0,0,1-6.71.76l.94,6.92c1.77-.4,4.12-1,6-.67L16.11,25l.38.53,2.07-5.09c-4.06,1-11.33,0-10,6.5a3.57,3.57,0,0,0,3.41,2.59c6.21-.17,12.58-2.43,16.06-7.86,2.06-3.24-2.46-6.35-5.12-3.95-3.26,2.93-6.37,5.05-10.94,4.75L15.47,26l-.06-.56-1,2.52c-1.37.39-1.28.47.27.26.57-.06,1.13-.13,1.7-.21a31.38,31.38,0,0,0,4.07-.88c1.92-.55,3.48-3.27,2.07-5.1-2.85-3.69-8.09-2.41-12.14-1.56s-2.89,6.74.93,6.91a19.53,19.53,0,0,0,11.65-3.14A15.15,15.15,0,0,0,27,20.59c1.29-1.83.95-3.29.7-5.38h-6a15.93,15.93,0,0,0,.77,4.39c1.35,4,7.82,2.26,6.4-1.76-1.14-3.21-3.42-8.71-7.78-7.63s-5.24,7-3.93,10.67A3.6,3.6,0,0,0,22.3,23c4.74-2.5,3.82-12.72-1-14.74-6.91-2.87-9.48,7.8-8.18,12.44,1.06,3.77,6,3.34,7.22,0,1.32-3.56,1.54-8-.27-11.44-1.64-3.13-5-3.59-7.66-1.49a11.51,11.51,0,0,0-4.26,9.17c.08,3.39,2.89,6.3,6.3,4.34,5.34-3.08,7.41-14.52-.36-15.88-8.3-1.46-8.2,12.31-6.19,17a3.18,3.18,0,0,0,2.8,1.6c5.7.09,7.6-9.38,7.2-13.65-.22-2.45-3.18-4.14-5.12-2.12A19.21,19.21,0,0,0,7,22.67c.13,3.31,5.11,3.34,5.16,0Z"/><path class="cls-1" d="M19,43.44a13.27,13.27,0,0,0,9.5-1c2.87-1.45,6.84-3.58,7.66-6.9a2.58,2.58,0,0,0-2.47-3.24c-2.68.19-4.78,1.91-7,3.3a13.65,13.65,0,0,1-3.06,1.74,16.73,16.73,0,0,1-3.81.24c-3.28.18-4.21,5-.8,5.9Z"/><path class="cls-1" d="M29.23,53.51c.65,3,5.24,4.13,7.37,6A20.65,20.65,0,0,1,42,67.87c1.69,4.31,8.09,2.74,7-1.94A22,22,0,0,0,41.7,54.45c-2.79-2.33-8.43-6.45-11.83-3.39a2.53,2.53,0,0,0-.64,2.45Z"/><path class="cls-1" d="M37.84,54.43c0,1.51,4.43-.24,5.83-.33l-1.55-5.73a10.8,10.8,0,0,1-6.5,1.11l2.07,5c3.42-3.15,8.63-1,9.36-6.73H40.93a108.8,108.8,0,0,0-.08,15.32c.25,4,6,4,6.21,0,.13-3.07.43-6.13.77-9.18l-5.25,1.42a21.41,21.41,0,0,1,2.35,8.54c0,.31-.22,3.05.42,2.27.75-.11.62-.37-.39-.77q-2.49-1.47-1.78-5l-3.27-.45c-.47,3.58-1,6.81-2.78,10h5.7c-1.26-2.78-.64-5.47,0-8.32l-5.06-1.4A31.17,31.17,0,0,0,37.73,71c.58,3.56,6.27,2.66,6.21-.84a8.21,8.21,0,0,1,.33-3.19c.85-3.31-3.76-4.38-5-1.38a13,13,0,0,0-.4,9.88c.79,2.2,4.2,3.19,5.43.71,1-2.07,1.89-4.19,2.76-6.33l-5.52-.75c.37,3-1.06,5.28.91,7.92,1.3,1.75,4.71,2.59,5.81,0a30.59,30.59,0,0,0,1.65-5.15l-4.6-.62a10.79,10.79,0,0,1-.7,3.93c-1.29,3.6,3.85,5.17,5.79,2.44a11.06,11.06,0,0,0,2-4.8,2.71,2.71,0,0,0-5.23-1.44l-1.77,2.4,5.29,1.4A10.82,10.82,0,0,1,50,71.22a2.37,2.37,0,0,0-4-1.66,30.85,30.85,0,0,0-3.54,4l5.28-.68c-.54-.47-.48-3.73-.67-4.6-.63-3-4.5-2.33-5.42,0a35.41,35.41,0,0,1-2.47,4.83l5.43.71a11.59,11.59,0,0,1-.35-6.92l-5-1.38a7.8,7.8,0,0,1-1.24,3l5.78.76a62.34,62.34,0,0,1-.89-8.39c-.12-2.88-4.39-3.66-5.15-.7-1.06,4.1-1.87,8.07-1,12.27.69,3.33,5.47,3,6.37,0,1.32-4.36,1.74-8.71,0-13a1.68,1.68,0,0,0-3.21,0c-1.62,4.22,1.52,14.3,7.63,12.68,7.15-1.89,2-15.9-.16-19.7-1.5-2.65-4.94-1.16-5.25,1.43-.33,2.8-.71,5.58-1.23,8.35l6.1.83q-.11-7.66,0-15.32c.05-4-5.88-3.9-6.12,0,.08-1.41,1-.61-.19-1-.68-.24-2.37.64-2.91.87a15.49,15.49,0,0,0-4.28,2.77c-2.17,1.86-.17,4.71,2.07,5a16.37,16.37,0,0,0,9.6-1.66c2.68-1.24,1.46-6.11-1.55-5.74S31.39,50.11,33.2,55.06c.86,2.36,4.74,2.2,4.64-.63Z"/><path class="cls-1" d="M47.74,73.75a15.39,15.39,0,0,0,.1,4c.25,1.71,2.51,2.81,4.06,2.3A3.35,3.35,0,0,0,54.21,76c.07.41.09.42,0,0,0,.33,0,.31.06,0s.33-1.53.14-.85c.08-.27.18-.54.25-.81a2.69,2.69,0,0,0,0-1.38c0-.25-.05-.27,0,0-.15-1.23-1.21-2.47-2.6-2a4.92,4.92,0,0,0-1.47.68A6.43,6.43,0,0,0,49.46,73c.31-.43-.36.45-.36.45a5,5,0,0,0-.25.52c-.27.58-.57,1.14-.82,1.75l.81-1.4-.15.18,5.64,2.34c0-.47.07-.94.09-1.41s-.11.49,0,0c0-.25.09-.51.15-.76a3.49,3.49,0,0,0-2.89-4.34c-2.23-.3-3.72,1.33-3.94,3.41Z"/><path class="cls-1" d="M51.49,72.63a15.33,15.33,0,0,0-1.73,4.31,3,3,0,0,0,5.46,2.3c3.18-5.11,3.09-10.55.61-16-1.5-3.3-3.55-6-4.77-9.43a10.8,10.8,0,0,0-4.49-6.12c-2-1.4-4.41,1.3-3.26,3.26,4.39,7.48,5.87,13.18,4.48,21.84l6.94.94a24.64,24.64,0,0,1,1.5-11.23l-5,.66.67,3.08,6.27-1.69a39.19,39.19,0,0,0-5.58-7.7c-1.88-2-5.16.57-3.78,2.92A15.8,15.8,0,0,0,52,64a1.76,1.76,0,0,0,2.92-1.7,15.68,15.68,0,0,0-2-5l-4.16,2.43A22.75,22.75,0,0,1,52,67.14c1,4.31,8.12,2.14,6.49-1.79a23.66,23.66,0,0,0-2.51-5A2.8,2.8,0,0,0,50.9,61a47,47,0,0,0-3.11,11.75c-.63,4.37,5.86,6.43,6.81,1.88,1.94-9.16-1.33-19.7-7.54-26.61L44.17,51.8c2.63,1.37,3.6,7.14,5.5,9.68,3.55,4.73,3.21,9.69.39,14.74l5.46.72a16.29,16.29,0,0,1-.4-3.33,2,2,0,0,0-3.63-1Z"/><path class="cls-2" d="M29.14,20.77c-.5,3.46,2.72,6.91,4.66,9.56a69,69,0,0,0,8.64,9.83c1.65,1.54,5.25,1.18,5.63-1.49.64-4.42-.81-7.6-3.06-11.35-2.16-3.59-4-9.06-7.79-11.11A2.12,2.12,0,0,0,34.06,18c-.1,6.7,9.18,11.92,7.51,18.86l5.64-1.48c-2.25-2.25-4.44-4.55-6.5-7-1-1.18-1.94-2.37-2.85-3.61-.72-1-2.65-2.9-2.89-4.05-.6-2.78-5.39-3-5.83,0Z"/><path class="cls-3" d="M12.19,35.82c5.53,3.38,13.09-2,17.14-5.45a2.12,2.12,0,0,0,.55-2.1,2,2,0,0,0-1-1.29,2.15,2.15,0,0,0-2.18,0,17.22,17.22,0,0,1-6.3,2.85c-1.48.33-4.51,1.19-5.95.6-3.17-1.3-5,3.71-2.27,5.39Z"/><path class="cls-3" d="M24.74,49.8c3.3,1.23,7.49-.11,10.6-1.38,3-1.21,6.67-2.9,6.93-6.46a2.21,2.21,0,0,0-1.6-2.11c-3-.45-5.12,1.69-7.75,2.82-2.83,1.23-6,1.28-8.78,2.57-2.14,1-1.2,3.88.6,4.56Z"/><path d="M26.17,21.49c.09,4.25,4.2,8.16,6.53,11.55,2.49,3.63,4.47,8,7.5,11.16,1.1,1.15,3.55.34,3.36-1.39-.5-4.72-3.73-8.63-6.46-12.34-2.48-3.36-5.15-8.82-9.21-10.29a1.36,1.36,0,0,0-1.72,1.31Z"/><path d="M26.46,22.64c5.89,1.14,9.76-6.09,7.58-11-.79-1.79-4-1.38-4.32.57-.23,1.43.07,3.07-.61,4.39a3.71,3.71,0,0,1-2.65,1.86c-2,.54-2.17,3.77,0,4.19Z"/><path d="M40.35,45.06c1.82.78,3.73.32,5.6-.18s3.84-1.1,4.87-2.81a1.93,1.93,0,0,0-1.14-2.8c-1.71-.55-3.46.18-5.08.72s-3.51.89-4.63,2.15c-.7.79-.8,2.42.38,2.92Z"/><path d="M30.81,13.39c3,4.27,6.64,8,9.44,12.4s4.16,9.75,7.09,14c1.09,1.57,3.94,1.16,3.85-1-.22-5.38-3.74-11-6.62-15.45-3-4.59-6.67-9.36-11.41-12.22-1.41-.85-3.36.91-2.35,2.35Z"/><path d="M43.36,42.83c-.18,1.62,1.22,3.09,1.91,4.46s1.35,3.53,2.95,4.35A1.72,1.72,0,0,0,50.55,51c.78-1.81.11-3.56-.89-5.16a20,20,0,0,0-1.54-2c-.5-.58-1.54-1.15-1.85-1.83-.7-1.58-2.77-.56-2.91.79Z"/><path d="M5,24c-1.71,2.72.87,6.6,2.13,9.05a86.45,86.45,0,0,0,8.07,12.72,72,72,0,0,0,9.57,10.4c3.24,2.89,7.32,6.78,11.72,7.52a2.49,2.49,0,0,0,2.4-4.13c-2.54-3.17-6.68-5.07-9.75-7.76a77.33,77.33,0,0,1-7.71-7.86,98.1,98.1,0,0,1-7.19-9.52c-1.18-1.76-2.29-3.56-3.43-5.35-.14-.22-2.8-3.62-2.75-3.78C8.63,23.42,6,22.42,5,24Z"/><path d="M33.3,61.56c1.24,4.17-1.28,8.87.21,13A1.93,1.93,0,0,0,37,75c1.52-2.45,1.24-5.78,1.26-8.57,0-2.46.26-4.93-1.43-6.89-1.39-1.62-4.09.1-3.52,2Z"/><path d="M37.25,73a7.21,7.21,0,0,0-1.89-.33c-1.72-.11-2.86,2.42-1.47,3.55a38.08,38.08,0,0,0,10.73,6c3.33,1.26,7.57,3.14,11,1.49a1.61,1.61,0,0,0,.32-2.51c-2.18-2.25-5.84-2.39-8.72-3.37a93.9,93.9,0,0,1-10.78-4.85v3.59l.84-.39c1.67-.32,1.44-2.71,0-3.16Z"/><path d="M47.4,51.21c2.84,4.94,8.81,8.28,8.79,14.5a29.41,29.41,0,0,1-1.73,8.94c-.9,2.72-2.25,4.67-2.39,7.5a1.85,1.85,0,0,0,2.77,1.6c5.07-3.7,6.82-13.64,6.25-19.59-.6-6.23-6.32-12.19-11.68-15a1.48,1.48,0,0,0-2,2Z"/><path d="M23.44,7.1c-.82,3.18,1.3,6.06,3.15,8.45,1.49,1.93,4.13,5.49,7,4.33a1.7,1.7,0,0,0,1.14-2c-.32-1.94-2.6-3.37-3.82-4.8a18.15,18.15,0,0,1-3.67-6c-.61-1.75-3.29-2-3.79,0Z"/><path d="M.06,16.72C.92,19.6,2.79,22.18,4,24.94s1.37,5.91,3.79,7.64a1.86,1.86,0,0,0,2.54-.66c1.44-2.93-.47-6.37-1.81-9.06C7.09,20,5.12,16.67,2.29,15A1.53,1.53,0,0,0,.06,16.72Z"/><path d="M9.77,32.1c7.92,1.33,18,.28,21.51-8.28.64-1.53-1.35-2.56-2.54-2-3,1.49-4.77,4.44-7.89,5.79-3.33,1.44-7.09,1.5-10.67,1.41-1.7,0-2.16,2.75-.41,3Z"/><path d="M13.68,39.41c7.16.94,17.57-1.61,20.49-9.08.62-1.57-1.38-2.68-2.64-2-3.05,1.59-5.39,4-8.67,5.31s-6.61.73-9.73,1.8c-2.28.79-1.68,3.71.55,4Z"/><path d="M22.74,46.76a34.58,34.58,0,0,0,11-3.72c2.76-1.52,6.35-3.58,7.23-6.77a1.72,1.72,0,0,0-2.08-2.08c-2.85.44-5.29,2.93-7.82,4.29A40.22,40.22,0,0,1,21.44,42c-3.12.75-1.75,5.22,1.3,4.73Z"/><path d="M26.25,51.26a.5.5,0,0,0,0-1,.5.5,0,0,0,0,1Z"/><path d="M25.21,52.14c3.49.73,7.94-1,11.18-2.27s7.06-2.93,8.55-6.3c.55-1.22-.37-3.09-1.94-2.52-3.15,1.15-5.75,3.33-8.93,4.51-2.91,1.08-6.83,1.32-9.3,3.2-1.15.86-1.28,3,.44,3.38Z"/></g></g></svg>