<svg xmlns="http://www.w3.org/2000/svg" width="58.23" height="76.59" viewBox="0 0 58.23 76.59"><defs><style>.cls-1{fill:#22b573;}</style></defs><title>armor-1-leg-r-1</title><g id="Layer_2" data-name="Layer 2"><g id="Layer_24" data-name="Layer 24"><path class="cls-1" d="M2.5,25.21c1.58,3.71,3.27,6.67,3.89,10.72.54,3.46.82,6.94,2.05,10.25,2.17,5.87,6.81,11.43,13.31,12.39C24.44,59,27.2,57.94,28,55a5.44,5.44,0,0,0,0-2.69,5,5,0,0,0-3.53-3.53c-6-1.62-7.21-7.68-8.47-13-.57-2.41-1-4.95-2.19-7.14-1.42-2.56-3.88-4.34-5.46-6.84C5.94,18,.83,21.31,2.5,25.21Z"/><path class="cls-1" d="M30.33,59.17a10.26,10.26,0,0,0-1.66,2.43h8.11c-2.66-4.55-5.85-8.78-5.94-14.25l-5,5c2.15.1,1.71,1.38,3.34,2,3.48-.15,4.49-.67,3-1.57a10.52,10.52,0,0,1-1.53-1.3A25.46,25.46,0,0,1,25.75,45a25.78,25.78,0,0,1-2.81-16.45l-7.3,3c4.53,2.24,4.34,7.18,4,11.63l8.57-3.55a27.62,27.62,0,0,1-5.17-7.06,24.12,24.12,0,0,1-1.52-3.82c-.29-.93-.14-3.79-1.41-2.51l-3.59,1.49c1.87-.14,4.6,6.36,3.31,7.55l3.51-1.45q1.66.62-.85-1a24.83,24.83,0,0,1-2.12-2.23,44.22,44.22,0,0,1-2.63-4.17A2.65,2.65,0,0,0,16,24a3.32,3.32,0,0,1,2.6,1.29c.2,1.72.92,1.94,2.14.64a3.91,3.91,0,0,1-1.9-1.32c-2.88-2.22.68-.06,1.6.91A11.29,11.29,0,0,1,23,31.24c.86,4,1.09,7.92,2.58,11.77,2,5.16,9.66,3.26,8.41-2.32-1.77-7.88-1-16.35-7.5-22.31C21.67,14,13,12.26,9.56,19.22c-3.23,6.52,2.2,14.15,8.62,16,7.5,2.13,12.21-5,10.15-11.7-1.92-6.28-9.45-10.73-15.78-8.22-7.79,3.08-5.13,12.43-1.91,18,2.74,4.74,10.08,14.2,16.21,9,4.9-4.14,3.34-13.14.35-17.89C23.78,18.94,12.58,13,10.66,23.07c-1.58,8.26,5,18.17,10.46,23.66,3.24,3.24,8.29.67,8.58-3.55.53-7.92-1.3-16.43-9-20.21-2.57-1.26-6.75-.43-7.3,3-2,12.68,2.49,28.92,14.54,35.59,5.78,3.2,11.72-.62,11.15-7.17-.6-7-6.62-11.5-13.21-12-2.64-.21-5.09,2.46-5,5,.25,7.67,3.91,14,8.58,19.94,3.42,4.33,9.79-1.18,7.37-5.69v.24c-.38-2.86-4.06-5.45-6.44-2.67Z"/><path class="cls-1" d="M9.21,19.58H8.78l2.94,1.69-.27-.37.35,2.7c.72-2.15,2.42-3.05,4-4.38a2.31,2.31,0,0,0,2.22-2q-.3,1.25-1.35,1c-.75.21-1.11-.17-1.1-1.13a16.52,16.52,0,0,1,3.57-.5q-2-2,2.25-1.86c-.41-2-.36-2.44.13-1.21l5.38-2.19c-1.29-.31-.33-3.75-1.06-2.14l-2.74,2.1c-.78.26.43,2.54.72,2.81,1.39,1.3,2.33-.37.85-.13l-3.43-.45c3.57,2.11,5,6.89,5.64,10.74A47.29,47.29,0,0,1,27.34,32q0,1.81-.09,3.63-.34,3.4.29.45l3-2.32c-1.05.29-3.12-7.33-3.22-7.95-.48-3-4.7-2-4.92.67-.51,5.91.5,16.86,8.57,17.31,8.58.47,6.74-12.14,6.23-17.23-.71-7-3.32-14.87-9.15-19.29-5.43-4.11-11.71-.54-11.68,6.23,0,5.82,5.48,12.9,11.94,11.08,7.47-2.11,5.86-10.76,3.09-15.81C29,4.27,21.06-2.1,17.58,5.32c-2.65,5.64.62,13.85,6.82,15.2,1.94.42,4.43-.25,5.38-2.19C32.37,13,30.91,6.13,24.89,3.87a10.06,10.06,0,0,0-13.07,7.2C10.57,16.54,13.63,24.43,20,24.68c6,.24,9.8-7.48,7.61-12.53C22.52.38-2.21,10.26,7.79,23.45c3.64,4.81,10.62,6.62,15.47,2.43,4.4-3.81,6.18-11.25.59-14.88s-13.1.63-16.52,5.33c-1.53,2.1-3.5,5.49-1.93,8.11,1.2,2,3.54,2.24,5.48,1.32,3-1.42,1.5-6.31-1.67-6.18Z"/><path class="cls-1" d="M30.16,17.07l0-.09-3.59,2.74h.1l-3.41-2C24.79,20,27.22,21.65,29,23.64a31.28,31.28,0,0,1,5.46,8.52,40.92,40.92,0,0,1,3,11.07c.45,3.62-.11,6.86,2.76,9.52a3.43,3.43,0,0,0,4.74,0c3.52-3.21,2.39-8.29,1.71-12.57A45.81,45.81,0,0,0,42,26C39.32,20.9,31.66,9.14,24.7,12.36c-2.52,1.16-2.26,4.44-.8,6.2l.05.07a3.58,3.58,0,0,0,3.63,1,3.93,3.93,0,0,0,2.58-2.52Z"/><path class="cls-1" d="M28,62.85C26.47,70.5,34.51,75.5,41.1,76.35c3.33.42,7.61.52,10.28-1.83,3.21-2.82,3.16-8,2.51-11.77-1-5.81-9.51-4-9.81,1.33a16.69,16.69,0,0,0-.2,2.53l-.18,1.12,1.51-1.49c-.11-.17-4.64,0-5-.1-3-.58-4.24-2.78-6.13-4.88-1.75-1.94-5.48-1-6,1.59Z"/><path class="cls-1" d="M41.38,65.21C39.32,64.9,37.64,64,37,61.91c-.83-2.59.55.25,1.46-.62l3.4-1.41C40.88,60,38.24,56.7,39,56l-3.21,1.33c1.18,0,2.59,3.37,2.23,4.34l3.3-3.3-1.08.27,3.65.48c-3.56-1.56-6.4-5-8.25-8.36a22,22,0,0,1-2.2-5.64c-.18-.75-.43-5.16-1.18-4.32l-3.12,1.29c1.86.19,5.28,7.59,6.14,9.17A30.77,30.77,0,0,1,39.2,63.58l7.94-3.29a20.55,20.55,0,0,1-5.49-7.15,17.92,17.92,0,0,1-1.24-3.86l-.25-1.88c.07-1.89,0-2.07-.23-.55l-3.85,2.21c.43-.06,3.06,3.22,3.44,3.7,1.29,1.64,3.53,4.45,3.17,6.72l5.78-3.28a6.7,6.7,0,0,1-4.21-7.26l-6.07,2.47c4.6,2.55,5.48,6.89,5.72,11.74.22,4.46,6.8,5.69,8,1.08,2.13-8.1-2.89-15.77-9.56-20a4.17,4.17,0,0,0-6.07,2.47c-1.69,7.28,1.48,15,8.56,18,2.4,1,6.44.54,6.89-2.8.77-5.61-1.29-10-4.78-14.31-2.62-3.25-7.72-9.41-12.59-7.14-4.39,2-3.38,8.11-2.56,11.93a26.11,26.11,0,0,0,8.75,14.41C43.3,69.2,48.92,68,48.5,63.58c-.78-8.32-4.2-15.6-8.92-22.43-2.69-3.91-10-12.09-14.48-5.56-3.57,5.17-.12,15,2.42,19.93s8.89,13.4,15.22,12.28C51.29,66.29,46.43,56,43,52c-4.73-5.56-13.26-4.34-13.37,3.92C29.58,62,35,70.33,41.83,69.49c7.85-1,6.24-10.28,2.7-14.82C39.62,48.38,29.61,49.18,28,57.8c-1.37,7.56,5.2,13.81,12.52,13.48,3.28-.14,4.44-5.53.82-6.07Z"/><path d="M1.24,23.76c-2.62,2.83-.42,7.13.5,10.34A71,71,0,0,0,7,47.93a49.85,49.85,0,0,0,9.67,12.22c3.63,3.54,7.75,9,12.74,10.34,1.52.42,3.41-1.12,2.77-2.77-1.38-3.53-4.29-5.51-7-8.06-3.47-3.24-7.07-6.44-10-10.22A44.75,44.75,0,0,1,9.13,38.09c-.69-1.81-1.3-3.65-1.88-5.51-.46-1.45-2.17-4.82-1.72-6.33.73-2.42-2.54-4.38-4.29-2.49Z"/><path d="M27.26,3.71A110.7,110.7,0,0,1,39.67,25.26a103.12,103.12,0,0,1,4.11,11.56c1.06,3.7,1.49,7.65,3.39,11,.88,1.56,3.8,1.43,4.11-.54,1.23-7.7-3-17-6-23.91A93.57,93.57,0,0,0,31.12.74c-1.79-2.1-5.49.7-3.86,3Z"/><path d="M46.71,47.66a48.2,48.2,0,0,1,4.62,11.85c.77,3.76.1,7.47.76,11.14.25,1.42,1.92,1.72,3,1.22,4.48-2.05,3.08-8.44,2.26-12.39a32.23,32.23,0,0,0-7-14.62c-1.81-2.08-4.76.56-3.64,2.8Z"/></g></g></svg>