<svg xmlns="http://www.w3.org/2000/svg" width="107.43" height="144.68" viewBox="0 0 107.43 144.68"><defs><style>.cls-1{fill:#22b573;}.cls-2{fill:#13633d;}.cls-3{fill:#b21106;}</style></defs><title>armor-1-torso</title><g id="Layer_2" data-name="Layer 2"><g id="Layer_7" data-name="Layer 7"><path class="cls-1" d="M46.65,69.8l-.2-.74-.32,2.46A42.06,42.06,0,0,1,60.15,57l-4.08-5.29A167.35,167.35,0,0,1,42.8,65.83c-3.28,3.11.87,7.55,4.53,5.88,6.56-3,11.26-9.43,17.07-13.6L61.76,54.7c-6.07,4.93-12.31,9.63-18.46,14.47-3.49,2.74,1,8.44,4.72,6.12A124.77,124.77,0,0,0,63.53,63.75c2.26-2-.63-4.81-3-3.81a120.76,120.76,0,0,0-16.49,8.62l4.72,6.12c5.35-5.63,10.58-11.36,16-16.91a2.18,2.18,0,0,0-2.63-3.41C59.08,56,56,57.42,53,59.3s-5.34,4.38-8.54,5.57l3.64,6.25q6.45-7.28,12.75-14.66a3.39,3.39,0,0,0-4.09-5.3c-4.58,2.11-8.25,5.69-11.32,9.63-2.29,3-6.84,7.48-4.41,11.39,1.82,2.93,6.57,1.06,5.63-2.38Z"/><path class="cls-1" d="M59.61,62.73c-4.81,3.67-10,7.32-14.33,11.55-3.37,3.29.9,8.43,4.9,6.35A11.67,11.67,0,0,0,55,76.48a2.67,2.67,0,0,0-2.28-4c-1.52,0-3,.44-4.54.59L51,80c4.45-3.69,8.56-7.8,13.09-11.45,3.23-2.6-1.14-8.36-4.48-5.81Z"/><path class="cls-1" d="M63.23,43.4l-.3-.76v3.9l.22-.81c2.78-10.42-13.55-13.25-14.93-2-.6,4.92-8,11.25-11.65,14l13.36,3.51.21-.14v5.24c.15-1.1.43-1.67-.28-.44A17.05,17.05,0,0,1,52.52,63a57.48,57.48,0,0,1,5.16-4.83c3-2.34,7.07-5.24,10.82-5.82l-5.59-.73c-1-3.5-1.52-4.18-1.49-2A6.39,6.39,0,0,1,60.35,52a23.42,23.42,0,0,1-3.9,4.81,59.37,59.37,0,0,1-5.15,4.75A25.05,25.05,0,0,1,49,63.34c-2.15,1.2-1.87,1.39.84.55-7.12-.52-10.29,7.71-7.58,13.2l.37.75a9,9,0,0,0,8,4.58c9.63-.67,17.06-12.16,21.72-19.74,4.24-6.92,7.52-20.29-2.64-23.94-7.93-2.85-18.45,2.11-25.06,6.31-8.27,5.26-18.39,15.81-11.54,26.06,3.51,5.24,10.62,6.56,15.34,2C56.75,65,64.86,53.83,63.15,41.69l-14.65,4a10.19,10.19,0,0,0,4.36,5.65c4.87,3.22,12.62-2.22,10.37-8Z"/><path class="cls-1" d="M46.59,46.46c-.68,1.35-.65,2,.09,2,1.56-.45,1.83-.57.83-.39L43,46.87c-1.39-.82-.92-.83-.39.54.33.84.89,1.47,1.22,2.3a12.67,12.67,0,0,1,.86,4.63,21.33,21.33,0,0,1-3.18,11.12c-2.08,3.6-4.88,6.45-7.47,9.67-3.8,4.73-5.95,9.55-6,15.7-.1,9.3,10.89,12.64,17.28,7.15A68.2,68.2,0,0,1,60.87,87.71a86.52,86.52,0,0,1,8.05-3.29c2.27-.81,6.47-2.42,7.83-2.31l-4.63-1.26.85.43-3.35-3.35.5.76-1.29-4.8,0,1.08,1.31-4.84c-.78,1.76-4.23,4.22-6.33,5.7a56,56,0,0,0-8.92,7.56A7.65,7.65,0,0,0,60.28,96.3c9.21.48,16.79-4.52,22.8-11.26,3.2-3.59,5.74-7.58,4.63-12.62a10.7,10.7,0,0,0-10-8.55c-7.43-.36-15.38,3.62-22,6.51A180.37,180.37,0,0,0,33,82.09L47.9,93.52c.78-2.83,3.44-5.53,5.31-7.87A58.88,58.88,0,0,0,60.88,74c4.06-8.54,5.76-18.26,2.9-27.47-2.47-8-9.66-18.79-19.52-15.76-8.56,2.63-15.13,12.43-9.44,20.66,4,5.84,13.65,2.41,11.77-5Z"/><path class="cls-1" d="M63,80.83c-9,1.32-18.46,1.25-27.58,1.49-14.24.37-12,22.2,2.66,19.62,3-.52,8.23-.32,10.94,1.13l-3.22-3.23.49.69-.9-6.9-.28.87,4.14-5.38c1.79-1.05-2-.2-2.79-.2a26.62,26.62,0,0,1-4.18-.29,31.44,31.44,0,0,1-4.08-1l-1.74-.56Q33.58,85.84,38,90.92l-2.35,5.66.46-.54C39.23,92.38,39,87,34.64,84.36c-9.53-5.76-18.49,6.43-13,14.94,4.66,7.17,17,8.56,24.81,8.36,4.47-.11,9.47-.59,12.93-3.72A10.24,10.24,0,0,0,61.77,91.5c-4.45-8.19-16-7.34-23.66-8.82L35.45,102.3c11.07.15,21.51-2.27,31.86-5.92,10-3.52,5.85-17-4.28-15.55Z"/><path class="cls-1" d="M32.47,91.3l-1.21-.73,2.15,2.79c-1-3.23-1.61-6.6-2.66-9.87a18,18,0,0,1-.55-9.32L16.12,76c2.9,4.37,5.71,8.8,8.55,13.21a8,8,0,0,0,14.77-4A37.46,37.46,0,0,0,38,74.76,40,40,0,0,1,36.8,70l-.08-1.68q.57-2.67-.87-.46L25,61.59c.13,3.36.56,6.69.71,10.06.15,3.56-.08,7,.95,10.5,2.28,7.62,13.31,7.71,15.55,0S41.66,64.92,38.43,58c-1.65-3.56-6.73-4.36-9.86-2.59-10.5,6-4.09,20.44-5,29.86l14.77-4c-3-4.33-6-8.63-8.93-13-3.67-5.47-12.12-4.74-14.09,1.84a28.35,28.35,0,0,0,.29,17.59,20.68,20.68,0,0,0,4.51,7.65A12.37,12.37,0,0,0,23.75,98l1.52.64c1.81-.07,2.22.08,1.22.44,4.15,5.32,12.6-3.79,6-7.75Z"/><path class="cls-1" d="M26.39,61.25a18.65,18.65,0,0,0-3-1.23l2.25.95c-.39-.19-.8-.39-1.17-.61A9.13,9.13,0,0,0,12.71,62.7a8.73,8.73,0,0,0-2,5.52l.32,2.42a9.21,9.21,0,0,0,2.35,4,11.4,11.4,0,0,0,2.42,2A12.81,12.81,0,0,0,18.76,78c2.17.79,4.08.31,6.23,0l-2.06.28a3.4,3.4,0,0,1,.45,0,7.46,7.46,0,0,0,5.85-2.94c1.32-1.7,2.19-4.35,1.33-6.49a18.88,18.88,0,0,0-1.25-2.75,11.22,11.22,0,0,0-3.66-3.75l1.74,1.35a5.13,5.13,0,0,1-.72-.68l1.38,1.78a2,2,0,0,1-.26-.39l.9,2.11-.07-.22.32,2.37a1.71,1.71,0,0,1,0-.45L11.08,70.64c1.05,4.47,5.84,8.45,10.56,8.13a10,10,0,0,0,5.7-2,9,9,0,0,0,3.37-4.89,9.67,9.67,0,0,0-4.32-10.62Z"/><path class="cls-1" d="M15.87,70a8,8,0,0,0-.46,7.13A13.78,13.78,0,0,1,16,79.3l-.29-2.16a1.63,1.63,0,0,1,0,.38L16,75.35l0,.16,2.09-3.6L18,72,21.53,70l-.19,0h4.31l-.2,0,1.92.82a12.54,12.54,0,0,1-2.3-1.45l1.55,1.2a13.18,13.18,0,0,1-1.47-1.32l1.9,3.26L27,72.2a7.55,7.55,0,0,0-6.21-5.35,7.42,7.42,0,0,0-7.44,3.57,9.16,9.16,0,0,0,0,9.39A9,9,0,0,0,18.43,84a8.1,8.1,0,0,0,7.27-1.41A8.25,8.25,0,0,0,26.77,70.5a7.61,7.61,0,0,0-5.31-2.19,10.19,10.19,0,0,0-4.68,1.39l6.06-.79-.24,0,1.87.79-.2-.15,1.59,1.22-.17-.18,1.22,1.58a3.68,3.68,0,0,1-.37-.64l.78,1.86A6.63,6.63,0,0,1,27,72.2L16,80.64l.21.15-2.65-2.64a27.64,27.64,0,0,0,3.29,4.54,9.68,9.68,0,0,0,4.49,2.92,8.58,8.58,0,0,0,9.53-3.82,9,9,0,0,0,0-8.77,16.32,16.32,0,0,0-1-1.71,10.86,10.86,0,0,0-3.65-4A7.73,7.73,0,0,0,15.87,70Z"/><path class="cls-1" d="M26.75,77a13.92,13.92,0,0,0,.35-2.21c0-2.16-.35-2.14-1.14.06,1.25-.82,2.63-1.37,3.87-2.24a112.92,112.92,0,0,0,10.88-9.14C46.71,58,53.65,51,53.06,42.23c-.68-10-13.76-11.65-17.21-2.33-1,2.57-4.33,5.13-6,7.36q-3.11,4.11-6.14,8.27l14.25,3.86c.27-2.43,2.12-4.55,3.26-6.62a25.85,25.85,0,0,0,3.14-10.3c.71-6.91-9.6-11.07-14-5.8-3.49,4.16-6.77,8.5-10.06,12.82-2.54,3.32-.86,8.69,2.18,11,3.55,2.65,7.87,2.18,11.17-.66,3.6-3.1,6.19-7.1,8.51-11.21,2.66-4.7,6.11-9.48,6.09-15A6.89,6.89,0,0,0,38,27.67C30.26,32,28.49,42.35,21.58,47.77l13.35,10.3c2.82-3.78,5.63-7.56,8.28-11.46L27.92,42.47c-.32,2.42-2.83,5.41-3.83,7.7a16.51,16.51,0,0,0-1.18,11.25c1.54,6,11.1,7.89,14,1.83,1.69-3.56,5.58-11.46,9.74-12.58L38.11,36c-2.48,3.18-4.5,6.69-7.3,9.59-3,3.09-6.13,6-9.11,9.11-3.19,3.33-6.37,6.51-7.36,11.19a17.67,17.67,0,0,0,1.56,11.9,6.11,6.11,0,0,0,6.79,2.76l.66-.18a4.82,4.82,0,0,0,3.4-3.4Z"/><path class="cls-1" d="M52.47,38.14l0-.24-6,4.56c4.69-.51,10,.93,14.57,1.63,5.54.85,11.06,1.76,16.63,2.48V31.48A116.39,116.39,0,0,1,63.05,30c-4.1-.67-10-.89-13.7-2.72l3.06,4-.21-.66-.65,5,.36-.64L48.1,37.94c2.73-.38,6.33.59,9.07,1,3.12.41,6.24.88,9.34,1.41l1.77-13.11c-3.48-.46-7-.28-10.51-.58a45.27,45.27,0,0,1-5.19-.71l-1.71-.38q-3.16-1-.41.16l1.85,4.46,0-.91-1.84,4.44c-.8.94-1.82.15-.1.42a30.41,30.41,0,0,0,4.65-.17c2.79,0,5.59,0,8.37.26,5.56.42,11,2.14,16.53,2.31,5.73.18,8.6-8.71,3.05-11.26-6.46-3-14.38-3.46-21.44-3.74C56,21.27,46.26,20.07,42,24.43c-5.09,5.16-.94,11.26,4.68,13.16a61.12,61.12,0,0,0,21.64,2.94c8.74-.46,8.42-12.4,0-13.34-6.16-.69-12.35-1.34-18.54-1.72-5.56-.35-9.88,1.53-10.39,7.59a6.52,6.52,0,0,0,3.29,5.74c4.63,2.52,10.72,3.26,15.83,4.35C64.18,44.36,70,45.32,75.71,46.3c9.39,1.61,13.56-11.94,4-14.55-7.26-2-14.91-2.81-22.39-3.48-5.32-.48-15.63-.8-16.79,6.33-.41,2.52.22,5.8,2.85,7l.26.12c3.14,1.44,8.13.58,8.82-3.59Z"/><path class="cls-1" d="M57,32.67c8.23,1,16.64.46,24.91.81a6.1,6.1,0,0,0,5.3-3c1.32-2.27,1.19-3.89,0-6.2a6.08,6.08,0,0,0-5.3-3c-8.67.09-17.8.49-26,3.65-4.31,1.66-3.45,7.28,1.06,7.82Z"/><path class="cls-1" d="M66.38,33.12C74,31.49,81.32,32,89,32.64V22.16c-10,.26-14.44,8.71-18.89,16.38A173.21,173.21,0,0,1,54.26,61.71l13.32,7.75c1.83-7.76,10.67-15.61,17-20l-9-3.66c.68,2.58-3.26,6.74-4.57,8.82-2,3.13-4.1,6.13-6.2,9.18-5.7,8.3,7.92,16.25,13.52,7.9C83.53,64,88.35,56,93.44,48.17l-12.53-3.4c-.26,8.91-6.66,16.81-8,25.63l14.51,2c0-6.17.56-11,3.91-16.38l-10.69-1.4c1.43,9.68-3.12,19.49-3.61,29.1-.4,7.84,11.73,9.4,13.63,1.85,1.45-5.8,1.74-12,2.37-17.94.58-5.52.77-10.81-1.11-16.12a5.93,5.93,0,0,0-10.69-1.39C77,56.83,73.61,64.41,72.65,72.37c-.48,4,3.75,7.35,7.39,7.39,4.36,0,6.95-3.44,7.39-7.39.52-4.64,2.7-9.06,4.28-13.4a41.7,41.7,0,0,0,2.65-14.2c.07-7.24-8.8-8.4-12.54-3.4-5.62,7.52-11.48,14.84-17,22.43l13.52,7.9c2.48-5.27,5.21-10.41,7.72-15.67s3.29-9.66.73-15c-1.41-2.92-5.75-3.85-8.38-2.2A75.61,75.61,0,0,0,65,49.06C61.07,53,58.2,57.83,54.26,61.71,46.84,69,59,80.76,65.53,73A135.24,135.24,0,0,0,80,52.3c3.54-6.27,5.51-16,11.62-20.38,2.9-2.05,3.88-7.22,0-9C81.87,18.3,71,20.38,63.05,27.4c-2.73,2.4.22,6.39,3.33,5.72Z"/><path class="cls-1" d="M94.3,66.62c0-3.44,2-6.63,2.74-10a59.9,59.9,0,0,0,1.42-10,38.39,38.39,0,0,0-4-19.92c-2.73-5.28-11.84-1.62-9.75,4.11,2.28,6.23-.63,15.41-1.5,21.71-.79,5.75,7.74,8.48,9,2.48.93-4.5,3-8.67,4.16-13.12a123.18,123.18,0,0,0,2.82-13.4L88.93,27.18c.27,4.39,1.24,8.51.3,12.92s-3.32,8-3.5,12.6c-.18,4.43,4.72,6.47,8.25,4.74,10.33-5.06,10.87-24.5,4.68-32.89-2.81-3.82-10-3-9.73,2.63.34,7.9-.33,17.74-5.23,24.32l8.51,3.59a73.09,73.09,0,0,0,1.88-11.48c.4-4-.26-8.93.93-12.71L84.54,29.48c-.25,6.35.16,12.7-.15,19.05-.28,5.94-2.62,12.2-1.9,18.09.9,7.32,11.89,7.83,11.81,0Z"/><path class="cls-1" d="M86.6,22.08l-.12-.19v4.88l-.41.54-2.19,1.28c1-.41,2.08-.45,3.08-.78s2-.69,3-1.08c3.07-1.23,5.23-2.75,6.36-6a5.6,5.6,0,0,0-2.56-6.29,5.85,5.85,0,0,0-6.74.87c1.73-1.42-2.33,1.47-.66.49-.41.24-.81.49-1.23.72a38,38,0,0,0-3.76,2.05c-1.62,1.09-3.15,2.24-3.7,4.23a5.21,5.21,0,0,0,2.41,5.84c4,2.52,9.2-2.55,6.54-6.54Z"/><path class="cls-1" d="M98,17.46l.57-.79-8.46,2.22.72.49-2.52-3.29a55.66,55.66,0,0,1,2.3,7c.55,2.23,0,3.71-.13,6-.48,6.1,9.06,8.73,11.7,3.17,3.14-6.6-1.35-12.83-3.28-19.16v2.92l.29-.9c1.37-4.26-2.62-8.28-6.78-7.72-4.48.61-6.49,5.33-4.52,9.2l.4.79c2.07,4.09,7.43,3.17,9.71,0Z"/><path class="cls-1" d="M72.73,91.06c-8.33-5.2-17.59-3.73-26.52-.54-8.43,3-7.78,13.31,0,16.54,6.08,2.53,12,2.56,18.4,1.48L62.82,95.26c-11,.42-21.93-2.66-32.95-2.58-8.82.06-10.82,13.19-2.1,15.5a39.32,39.32,0,0,0,9,1.27c8,.24,9.19-9.77,3.75-13.83l-1.43-1.07L33.45,108l2.77.42V94.46l-1.77.27c-7.05.13-9,9-3.46,12.78A18.34,18.34,0,0,0,36.38,110l1.83-13.51-5.7-.34c-7.88-.45-9.38,11.74-1.85,13.67l5.76,1.48c7.53,1.94,12.66-9.05,5.42-12.86a39.69,39.69,0,0,0-17.31-4.34l7.56,5.75c-1.05-3.6-3.05-5.71-5.18-8.7-1.83-2.56-1-4-1.23-7.12-.52-7.43-8.95-9.07-13.19-3.57-2.81,3.65-2.7,9.2-1.43,13.46,1.19,4,4.4,6.42,5.92,10.09,1.71,4.11,5,6.43,9.64,5.47a13.36,13.36,0,0,1,8.12,1.11l5.42-12.86-5.8-1.33-1.85,13.67,5.7.17c7.69.23,9.43-11.73,1.83-13.51l-.74,0L32.63,108.2a20,20,0,0,0,5.51.46c7.72-.58,10.29-12.19,1.92-14.2l-2.71-.65c-6.74-1.62-12.9,7.17-7.15,12.28l1.34,1.19,7.23-12.41A28.07,28.07,0,0,1,32,93l-2.1,15.5a134.27,134.27,0,0,0,16.66.74c5.37,0,11,.21,16.29-.42,8.47-1,8.89-13.08,0-13.52a19,19,0,0,1-10-3.87l-2,15.67c6.88-2.44,13.71-5.47,20.81-7.17,4.17-1,4.55-6.71,1.15-8.83Z"/><path class="cls-1" d="M57.68,107.81c5.18,3.56,12.95,4.83,19.08,4.14,5.91-.66,12.13-.85,13.75-7.88L77.24,105.8l1.08,1.84c2.54,4.31,9.91,4.94,12.29,0,3.2-6.69,1.31-14.33,3.48-21.38,2.73-8.86-9.32-12.78-14.15-6C78,83,74.38,87.44,71,88.36l6,.79-.44-.24,3.61,8.87c.49-2.11,4.68-4.46,5.93-6.32a9.09,9.09,0,0,0,.27-10.38c-1.31-1.91-3.48-3.66-6-3.44-3.85.36-5.21,2.64-7.72,5.23C69.74,85.89,66,89.33,65,93.6a8.05,8.05,0,0,0,3.61,8.87c9.25,5.1,20-7.66,24.67-14.36l-14.15-6A39.34,39.34,0,0,0,77.81,92.5c0,1.82,1.11,6.79.51,8l13,1.7-.81-1.94c-2.78-6.69-11.32-7-14,0l-.39,1,3.37-4.39c.89-.6-1.88-.7-2.72-.84a54.88,54.88,0,0,0-5.87-.36c-3.23-.2-6.37-1.14-9.61-1.12-7.41,0-9.24,9.4-3.6,13.28Z"/><path class="cls-1" d="M30.89,42.68A19.67,19.67,0,0,0,35,36.17a27.39,27.39,0,0,0,1-3.56l.27-1.32C37,30,36.59,29.45,35,29.73l5.33-1.4c1.8,1.09,5.89,1.64,8,2.26l1-7.73c-3.19.36-5.65-.58-8.31-2.24l-1.67,6.16a14.49,14.49,0,0,1,8.11,1l1.82-6.7c-4.23.39-7.77-2.32-11.84-2.14-3.54.15-4.46,3.26-6.22,5.89l6.69.87-1.55-7.69c-.72-3.55-6.39-3.5-7.14,0-.51,2.39-.95,4.75-1.22,7.17h7.66l-.18-3.35q.41-3.28-1.38-.21l-2.7-.35c1.91.93,3.34,3.35,4.73,4.91l3.73-6.42c-4.08-1.64-5.33-5.74-5.07-9.77.33-5-7.49-5-7.82,0-.46,7.16,3.75,13.44,9.93,16.79,3.77,2,7.83-2.89,4.65-6-2.52-2.48-6-7.25-10.19-5.67-3.95,1.5-3.23,6.73-3.36,10.1-.2,5,7.21,4.83,7.66,0a47.76,47.76,0,0,1,.7-5.2H29.29l1.63,7.67c.79,3.74,6,3.22,7.06,0s3.3-.7,5.62,0a14.9,14.9,0,0,0,5.75.62,3.62,3.62,0,0,0,.95-7.07,23.46,23.46,0,0,0-11.75-1c-3.08.43-2.88,4.65-.8,6a32.7,32.7,0,0,0,10.6,4.26c4.91,1.26,7-6.18,2.09-7.59s-12-4.35-15.75.62c-2.62,3.49-2.11,9.16,1.72,11.45a4,4,0,0,0,5.33-1.4c3.39-5.1,1-13.94-6.39-12.6s-8.86,12.31-10.2,18.27c-.7,3.16,3.3,6,5.74,3.34Z"/><path class="cls-2" d="M11.79,51.81l-.71-.08,4.17,4.17c.95-7.07-.75-13.85,1-21,1.22-4.84,2.05-12.72,6-16.12l-6.64-6.64C11.42,17.57,7.34,23,6.36,30,5.28,37.75,8.25,45.16,8.17,52.87c-.05,4.9,6.24,6.07,8.76,2.37,3.46-5.08,4.72-10.77,5.31-16.81.38-4,.49-7.93,1.22-11.87a45.65,45.65,0,0,0,1.13-9.39H15.71c-.08,5.6.37,11.44-.39,17-.66,4.77-3.37,8.29-5.07,12.66-1.09,2.79,2.24,6.09,5,5,13.29-5.1,8.54-24,9.33-34.68.43-5.78-8.22-5.55-8.88,0C15,23,13.56,28.66,13.15,34.59c-.39,5.69-.76,11.23-4.34,15.9l8.76,2.38c.25-6-1.52-11.69-2-17.62-.5-6.5,2.35-11.83,6.71-16.47,3.53-3.76-1.05-10.36-5.69-7.37-6.32,4.07-7.39,12.45-9.16,19.21C5.29,38.85,4,48.86,7.06,57c1.3,3.47,7.19,4.43,8,0l.13-.68a3.64,3.64,0,0,0-3.44-4.52Z"/><path class="cls-2" d="M37.81,14.33c5.67,2.52,12.44,2.75,18.58,3.07,6.43.33,13.46.89,19.77-.59,5.89-1.38,3.92-9.26-1.33-9.83-6-.65-12.36.23-18.44,0-5.81-.21-11.81-1.26-17.56-.42-3.5.51-4.23,6.33-1,7.76Z"/><path class="cls-2" d="M46.53,12.57c1.85,2.15,4,1.64,6.62,1.52a57.16,57.16,0,0,1,9.79.26c6.86.86,13.76,2,20.62.47,5.36-1.18,3.69-8.67-1.23-9.06-4.53-.36-9.11-.09-13.66-.43-4-.29-8-.82-12-.4C54,5.2,42.23,7.56,46.53,12.57Z"/><path class="cls-1" d="M32.26,126.92c2.38,4.84,7.41,8.53,11.76,11.53,4.59,3.16,9.9,5.68,15.52,6.15,11.94,1,19.4-7.29,25.9-16.15,2.92-4-3.38-8.57-6.74-5.2-6.2,6.24-10,14.12-20.2,12.45-9.32-1.53-14.4-8.48-21.93-13.09-2.85-1.74-5.63,1.63-4.31,4.31Z"/><path class="cls-1" d="M40.29,132.51c5.6,2.45,10.31,5.81,16.55,6.51a25.85,25.85,0,0,0,17.3-4.16c4.34-2.93.28-10-4.13-7.07-1.43,1-8.23,4.31-9.85,2.57l1,2.52.1-.89-1,2.51c-.5.42,3.1.7,3.59.73a42.56,42.56,0,0,0,6.08,0,50.34,50.34,0,0,0,10.32-1.92c4.53-1.32,2.59-7.73-1.91-6.95a71.35,71.35,0,0,1-19.3.86l.91,6.67c4.89-.91,10.57-.48,15-2.71,1.57-.79,1.73-3.62,0-4.35-5.07-2.15-11.56-.53-16.83.51-4,.77-2.73,6.44.9,6.67a105.16,105.16,0,0,0,21.21-.7l-1.91-6.95A40.75,40.75,0,0,1,62.11,128c-3.22-.33-6.94-.41-7.86,3.49-2.35,9.94,15.13,4.84,18.91,3.76L70,127.79c-5,2.86-10.49,4.13-16.11,2.52C49.31,129,46,126.2,41,126.87c-2.55.35-3.07,4.62-.74,5.64Z"/><path class="cls-3" d="M50.67,124.34a9.16,9.16,0,0,0,.27-4.32c-.25-1.47-1.5-3.35-1.45-4.79l-2.66,3.49c2.34-.65,6.41.34,8.88.4,2.64.06,6.09-.45,8.63.16L61.9,117.4c1.05,1.9,1.5,4.76,2.25,6.84l3.92-5.14c-6.86,0-14.65-1.61-21.34-.21-3.79.8-3.53,6.48,0,7.43,6.58,1.76,14.52.51,21.34.9A4.09,4.09,0,0,0,72,122.08c-1.41-4.69-1.89-10.66-7.73-10.89-3.4-.13-6.86,0-10.26.06-2.66,0-6.56-.47-9.09.5a3.72,3.72,0,0,0-2.66,3.48c.21,3.09,2.23,6.09,3,9.11a2.82,2.82,0,0,0,5.4,0Z"/><path class="cls-2" d="M73.76,114l-.25.23a3.51,3.51,0,0,0-.92,3.47c2,5.81,10.77,3.55,14.73,1.26l-5-5c.35-.5-.48.08-.7.18-.72.32-1.47.61-2.2.92a10.9,10.9,0,0,0-2.14.87c-1.14.79-.32-.76.52.48a3.38,3.38,0,0,0-5.77,0c-2.55,4.4,2.42,8.1,6.57,7a39.91,39.91,0,0,0,5.87-2.52,8.75,8.75,0,0,0,4.16-3.26c1.73-2.66-1.15-6.29-4.13-5.37a41.89,41.89,0,0,1-4.26,1.16c-.61.12-1.32.12-1.9.3l-.74,0c1,.59,1.23.66.73.22a3.31,3.31,0,0,0-4.57,0Z"/><path class="cls-2" d="M22.73,115.67c1.57,2.27,4.76,3.19,7.32,4a48.4,48.4,0,0,0,9.47,1.79,3.4,3.4,0,0,0,3.29-2.51c.62-4.41-13.26-6.38-16.65-7.7-2.43-.94-4.88,2.36-3.43,4.45Z"/><path class="cls-2" d="M47.39,95.09c2.62-2.87,7.29-7.47,11.44-7.87L54.5,85.43l.59.6L53.3,81.69c1.3-2.27,1.24-2.59-.19-.94a22.9,22.9,0,0,1-2.2,1.85,33.76,33.76,0,0,1-5.14,3l7.65,9.91c3.17-2.47,8.52-6.22,12.71-6.37l-4.48-1.86.5.57L60.3,83.36c0-2.21,2-3.22-1-1.32-1,.69-2.13,1.34-3.24,1.93a27.92,27.92,0,0,1-6.81,2.48l7,12c3.21-2.53,6.78-4.67,9.25-8,2-2.67-.21-6.49-3-7.32-5.88-1.77-11.93,1.58-16.38,5.14-2.78,2.23-2.53,6.85-.56,9.4,2.3,3,5.94,3.37,9.23,1.85,6.22-2.88,23.46-10.74,16.83-20C65.54,71,50,82.06,44.5,86.57c-5.77,4.71,1.58,13.1,7.64,9.91,5.73-3,19.51-12.35,11-19.71C56,70.56,43.82,81.88,39.59,87.3s2.89,13.16,7.8,7.79Z"/><path class="cls-2" d="M44.22,98a5.84,5.84,0,0,0-4-.95,7.59,7.59,0,0,0-4.43,2.39A4.64,4.64,0,0,0,39,107.21l1.27,0c.22,0,1.45.13.47,0l-2.05-7.74c-.07.07-.83.89-.83.9q.9-.65.24-.21c-.38.19-.37.2,0,0s.41-.19,0-.06c.86-.08,1-.1.44-.07s-.42,0,.48.09c-.55-.17-.41-.1.41.21L42,103.61l-.09,2a6,6,0,0,0-.55-4.19,5.53,5.53,0,0,0-3.25-2.5c-2.75-.63-6.06.82-6.7,3.8a7.49,7.49,0,0,0,0,3.82,5.48,5.48,0,0,0,3.82,3.83c5.06,1.13,11.17-1.92,11.36-7.61.08-2.32-2.19-4.88-4.63-4.63a22.68,22.68,0,0,1-3,0l3.23,7.81c.43-.49.83-1,1.21-1.52s.27-.42,0,0a5.67,5.67,0,0,0,.58-.7,5.88,5.88,0,0,0,.87-1.44,1.77,1.77,0,0,0,.24-.7c-.18.35-.19.35,0,0A2.64,2.64,0,0,0,44.22,98Z"/><path class="cls-2" d="M30.57,103.78l-.38.66c-1.82,3.18.47,7.57,4.28,7.45,2.29-.06,4.76,0,6.87-1,2.45-1.14,2.36-2.46,5.11-2.24,5,.4,10.69.9,14.68-2.56,1.8-1.57,1.51-5.36-.82-6.36C56.06,98,51.06,99,46.45,98.64a12.4,12.4,0,0,0-5.89.58c-2.38,1-3.36,2.62-6.09,2.76l5,5,0-.77c-.11-4.62-6.44-6.56-8.84-2.39Z"/><path class="cls-2" d="M49.23,94.87a4.49,4.49,0,0,1-3.08-1.6c-2.42-2.54-7.21-2-8.87,1.14l.84-.84,7.33,4.16,0-1-11.4-3.14-.33,1.24,10.91,4.6a41.07,41.07,0,0,0,1.95-15c0-.75-.47-2.25-.19-2.95-.4,1-.48.25,1,.54a49.84,49.84,0,0,1,7.8,1.9L56.94,71.3a71.41,71.41,0,0,1-7.16.54c-1.19,0-2.39,0-3.59-.08-2.24-.58-2.4-.15-.46,1.29L46.37,78q-4.86,3.19-1.4,2.49l1.85-.14c1.86-.13,3.72-.21,5.58-.31,3.64-.21,7.29-.49,10.93-.56l1.79,0c2.15.36,1.91-.36-.7-2.18-.41,0-1.8,4.77-1.93,5.12l-1.6,4.26-1,2.56q-2.79,5,7.51,2.48c.11-8-10.57-8.5-13.14-1.77-2,5.29-1.93,12.64,4.1,15.3,3.36,1.49,6.84.9,9-2.34A9.29,9.29,0,0,0,68.56,100L57,98.42l3.38-2.77V107c-1.14-.49-.79-.31,1,.56l3.21,1.61,3.17-11.68c-3-.08-5.87-.2-8.86-.55-6.37-.74-7.41,9.37-1.48,11a51.36,51.36,0,0,0,9.38,1.58V97.92a35.68,35.68,0,0,1-5.06-.38v11.37c2.45-.33,3.55-.34,5.18,1.41,3.9,4.19,11.09-.17,9.52-5.54l-.37-1.3-9,5.22a22.76,22.76,0,0,1,2.17,1.89c2.76,2.57,8.31,1.83,9.09-2.4l.23-1.27-7.9,3.21,2.21,1c2.65,1.19,5.55.74,7.19-1.88l.31-.5a5.09,5.09,0,0,0,0-5.27L80,103c-3.89-5.34-12.06-.81-9,5.25,1.39,2.72,3.15,2.59,5.53,3.14l-3.53-3.53.1.41.51-3.9-.25.35,5.73-2.33-.31-.08a5.14,5.14,0,0,0-5.74,7.46l.14.24c1.44,2.56,4.48,3,7,1.82l.33-.15a5.12,5.12,0,0,0,2.34-5.74c-.85-2.62-2.6-3.15-4.39-5A7.08,7.08,0,0,1,77.31,93L66.82,91.65a81.39,81.39,0,0,1,2.53,11.44L81,99.88c-2.68-6.94-.59-14.82-2.4-22-2.15-8.59-16-4.74-13.23,3.65C67.91,89.11,66.56,97,70,104.54c3,6.57,12.32,1.66,11.05-4.66A83,83,0,0,0,77.89,88.6c-1.83-5.15-9.49-5.75-11.07,0-2.43,8.8,1.47,17.3,8.44,22.68l-2.34-3,.14.39,2.34-5.74-.33.16,7,1.82-.14-.23-5.73,7.45.31.07a5.25,5.25,0,0,0,5.73-2.33c3.09-4.69-1.22-7.45-5-8.63l3.61,3.61-.22-.57-9.5,4,.29.5.82-6.33-.35.46,6.36-.82-2.08-1.2a5.45,5.45,0,0,0-7.9,3.21l-.35,1.24,8-3.25-1.18-.93c-2.86-2.39-8.06-1.91-9,2.36l-.27,1.3h11c-3-7.82-10.56-8.27-17.83-7.24-5.65.8-5.62,10.53,0,11.37a45,45,0,0,0,8.19.57c7.44-.22,7.45-11.3,0-11.56a34.61,34.61,0,0,1-6.41-.82l-3,10.8c3,.47,5.77,1.13,8.67,1.87,8,2,10.72-9.23,3.33-12.09-3.92-1.53-8-3.74-12.18-2-4.72,1.91-6.37,10.16,0,11.31,5.44,1,9.85-1.52,11.34-7a6,6,0,0,0-8.68-6.67l.07-.08,6.37,1.68c0,1.16,0,1.31.19.44a10.2,10.2,0,0,1,.68-1.92L54.06,91.66c-.38,5.18,2.46,10.72,8.19,11,6.58.34,9.2-5.55,11.14-10.73S79.13,80.4,78.2,74.88c-1-5.81-6.29-8.76-11.78-9-5.85-.23-11.93,1-17.74,1.52-4.7.45-11,0-13.79,4.77s.48,10.35,5.5,11.68c5.85,1.55,12.37.93,18.26.07,6.77-1,5.44-10.63,0-12.42-6.6-2.17-17.13-4.41-22.1,2-2.31,3-2.52,6.56-2.21,10.19a33.11,33.11,0,0,1-1.19,12.52c-1.82,6.32,8.11,10.92,10.92,4.6a16.75,16.75,0,0,0,1.42-4.12c1.34-7.6-8.52-10.13-11.4-3.14A9.33,9.33,0,0,0,34,100.9c1,2.7,4.11,5.5,7.33,4.16,2.59-1.08,4.59-2.25,5.74-5l-8.87,1.14a16,16,0,0,0,9.64,4.22c6,.7,7.39-9.45,1.43-10.6Z"/><path d="M14.92,61.64C24,56.38,28.26,44.7,29.78,34.84,31,27.22,32.88,9.63,24.08,5.6c-1.8-.82-4.64.59-3.77,2.9.79,2.08,2.16,3.8,2.88,5.91a25.92,25.92,0,0,1,1.12,6.78,64.13,64.13,0,0,1-.61,14.32c-1.5,9.31-5.75,16.32-11,24-.93,1.36.87,2.94,2.18,2.18Z"/><path d="M22.51,9.59c23.53-3.26,48-7.07,70.88,1.33,3.59,1.32,5-4.28,1.56-5.67C83.46.6,71.42-.48,59.14.17c-12.52.67-25.84,1.09-37.85,5-2.89.93-1.64,4.82,1.22,4.43Z"/><path d="M17.1,54.34c-1.24,1.34-3.55,4.81-5.57,4.89-1.87.08-1.82-2-2.34-3.64-.36-1.12-.68-2.25-1-3.39A60.06,60.06,0,0,1,6.28,34.85c.28-7,7.61-26.65,17.86-21.44a2,2,0,0,0,2.76-2.76c-1.77-3.23-3.43-4.43-7.42-4.25a13.66,13.66,0,0,0-9.26,4.82A38,38,0,0,0,0,35.68c-.17,8.43.83,20.26,5.63,27.45,5.28,7.9,12.67-1.35,15-6.76.83-2-2.16-3.48-3.5-2Z"/><path d="M3.77,53.26a1.18,1.18,0,0,0-.18-.88.68.68,0,0,0-1.16,0,1.25,1.25,0,0,0-.19.88.77.77,0,0,0,1.53,0Z"/><path d="M3.63,52.54a.81.81,0,0,1,0-.22l-.49.48a1.77,1.77,0,0,0,1-.55,1.3,1.3,0,1,0-2-1.57,1.48,1.48,0,0,0,.48,2l-.32-.41a2.34,2.34,0,0,0,.23.69c.31.68,1.21.16,1.11-.47Z"/><path d="M5.37,58.33l.85-1.22-3.62-1c.46,6,3.66,11.93,5.12,17.81,1.6,6.46,1.93,13,2.71,19.64,1.11,9.45,3.49,21.6,12.28,27.05,2.72,1.69,5.16-2,3.26-4.22-3.7-4.31-6.47-8.11-8-13.68s-1.89-11.41-2.58-17.16a88.92,88.92,0,0,0-2.89-14.81c-1.5-5.11-3-11.35-6.25-15.61a1.93,1.93,0,1,0-3,2.35l.88,1a.84.84,0,0,0,1.32-.17Z"/><path d="M93.35,63c-3.26,17.38.56,36.48-5.58,53.24-1.16,3.16,3.94,5.31,5.45,2.3,3.75-7.46,3.6-16.07,4-24.22.48-10.11,1.64-20.6.74-30.7-.21-2.43-4.08-3.41-4.6-.62Z"/><path d="M51.35,2.43C44.8-.55,31,4,32.72,13.05c1.8,9.42,20.15,8.73,27,8.88,9,.19,24.18,1,30.63-6.88,5-6.12-2.85-16.54-9.71-12.2a2.48,2.48,0,0,0-.88,3.34c1.15,1.58,2,1.59,3.6,2.49,4.08,2.27-.65,3.89-3.28,4.73-5.65,1.81-11.7,1.91-17.58,1.91A93.18,93.18,0,0,1,44,13.83c-1.2-.25-3.1-.33-4-1.22q-2.13-.48.09-2.09a3.77,3.77,0,0,1,2.43-2.38C45,6.7,48.06,7,50.82,6.49c1.82-.3,2.21-3.29.53-4.06Z"/><path d="M91.42,9.67c4.77,5,6.5,10.86,7.8,17.5,1.61,8.29.11,15-2.24,23a162.94,162.94,0,0,0-5.06,19.75c-.65,4,.07,7.67,4.13,9.21,1.76.67,3.46-1.33,3-3-.77-2.66.46-5.91,1.06-8.5q1.26-5.51,2.74-11c1.8-6.62,4.33-13.22,4.58-20.15.35-10.19-2.84-26.87-13.48-31.15-2.53-1-4.15,2.6-2.51,4.31Z"/><path d="M46,127.82c.83-2.81.39-5.83.18-8.72a34.65,34.65,0,0,0-1.38-8.72c-.53-1.55-3.14-1.89-3.5,0a35.68,35.68,0,0,0-.14,9.35c.22,2.91.28,5.85,1.5,8.53.68,1.5,2.94,1,3.34-.44Z"/><path d="M42,112.8c4.53,1.24,9.43,1,14.1,1.21,4.31.15,8.75,1,12.73-.87a2.29,2.29,0,0,0,0-3.94c-3.88-2-8.45-1.32-12.73-1.33-4.68,0-9.52-.39-14.1.68-2.15.5-2,3.69,0,4.25Z"/><path d="M67.19,110.09c-.71,3-.23,6.42-.07,9.53.14,2.88-.39,5.92,1.73,8.13a2.21,2.21,0,0,0,3.11,0c2.11-2.49,1.36-5.66,1.1-8.73s-.46-6.6-1.84-9.46c-.82-1.71-3.61-1.25-4,.53Z"/><path d="M42.25,128.46c9,1.86,20.23,4.07,29.21,1.67,3.45-.93,2.32-5.42-.79-5.81-5.25-.65-10.81.19-16.14-.09-4.43-.23-8.55-.74-12.7,1-1.38.59-1,2.91.42,3.2Z"/><path d="M69.82,115.17c6,3,18.15,1.33,21.14-5.4a1.37,1.37,0,0,0-1.53-2c-3,.8-5.7,2.23-8.72,2.86-3.44.72-7.15,0-10.45,1.19-1.38.48-1.94,2.58-.44,3.34Z"/><path d="M70.92,126.82c5.68,1.18,20.55-1,21.93-8.13a1.77,1.77,0,0,0-1.67-2.2c-3.32-.3-6.38,2.88-9.48,3.9-3.67,1.21-7.88,1.29-11.17,3.43a1.66,1.66,0,0,0,.39,3Z"/><path d="M42.9,111.12c-2-.79-3.86-.73-6-1a53.2,53.2,0,0,1-9.15-2.18c-3.77-1.18-7.6-3.42-11.52-3.72a2.14,2.14,0,0,0-2,2.69c1.9,4.64,7.48,5.77,11.88,7.13,5.12,1.59,12.55,4,17.31.56a1.94,1.94,0,0,0-.46-3.48Z"/><path d="M21.74,120.39c5.5,3.79,16.15,7.59,22.7,5.07,2-.75,2.25-3.64,0-4.27-3.43-1-7-.85-10.51-1.79s-6.84-2.59-10.39-3.26a2.34,2.34,0,0,0-1.8,4.25Z"/><path d="M50.35,118a6.59,6.59,0,0,1-.29-.82l-.06.47.22-.17c.82-.64-.58-1.94-1.2-.92a3.44,3.44,0,0,0-.15,2.31,3.61,3.61,0,0,0,.86,2.21.87.87,0,0,0,1.47-.61,7.81,7.81,0,0,0-.47-2,7.35,7.35,0,0,0-.39-1.93l-1,1,.22.12-.19-.34c.06.52.19.56.48.94s.75,0,.54-.32Z"/><path d="M49.24,121.51a4.4,4.4,0,0,0,2,.5l-.89-2.15-.08.09a1.19,1.19,0,0,0,.23,1.84l.1,0a1.26,1.26,0,1,0,.64-2.35,3.66,3.66,0,0,0-1.8.09,1.07,1.07,0,0,0-.25,1.93Z"/><path d="M50.62,120.64c0-.55.05-1.12.05-1.67a1.89,1.89,0,0,0-.36-1.41.6.6,0,0,0-.71-.09c-1,.61-.75,2.42-.6,3.39s1.56.66,1.62-.22Z"/><path d="M50.56,120.55a5.22,5.22,0,0,1-.26-1.92,6,6,0,0,0,.1-1.93.63.63,0,0,0-.92-.38c-1.32.88-1.24,3.66-.45,4.88.48.76,1.87.29,1.53-.65Z"/><path d="M50.24,122c4.18.69,8.78.43,13,.23a1.31,1.31,0,0,0,0-2.62c-4.21-.09-8.84-.25-13,.53a1,1,0,0,0,0,1.86Z"/><path d="M64.32,121.36a11.49,11.49,0,0,0-.14-3,1.08,1.08,0,0,0-1.06-1.07,1.07,1.07,0,0,0-1.07,1.07,8.61,8.61,0,0,0,.65,3.19.9.9,0,0,0,1.62-.21Z"/><path d="M49.57,117.5c1.11,1.63,3.12,1.08,4.92,1.16,2.87.11,5.71.34,8.56.63,1.84.18,1.79-2.65,0-2.87a76.55,76.55,0,0,0-8.56-.55c-1.77,0-3.88-.5-4.92,1.18a.43.43,0,0,0,0,.45Z"/><path d="M63,117.21a5.57,5.57,0,0,0-.21,2.33c.06.76.17,1.57,1,1.84a.68.68,0,0,0,.68-.18c.52-.5.35-1.15.26-1.79s0-1.32-.09-2a.83.83,0,0,0-1.63-.22Z"/><path d="M51.41,116.39c-.33-.08-.66-.17-1-.22L50.16,118a7.18,7.18,0,0,1,2.12,0l.26-1.89a14.06,14.06,0,0,0-2-.08l.25,1.8c1-.21,2-.08,3-.21.47-.06.77-.71.26-1a7,7,0,0,0-3.52-.6.92.92,0,0,0-.24,1.8,17.4,17.4,0,0,0,2.29.21c1.06.06,1.33-1.72.25-1.89a8,8,0,0,0-2.88,0c-1.2.23-.69,2,.5,1.82a8.6,8.6,0,0,0,1-.25.71.71,0,0,0,0-1.35Z"/><path d="M50,120.29a15.79,15.79,0,0,0,2.23-.75l-.9-1.55a11.62,11.62,0,0,0-1,.89,1,1,0,0,0,1.2,1.54c.77-.45,1.53-.91,2.31-1.35L52.75,118a5.11,5.11,0,0,1-1.12,1.2,1,1,0,0,0,1,1.66,32.52,32.52,0,0,0,3.9-1.76l-1-1.68c-.54.41-1.07.81-1.6,1.23-.92.72.09,2.12,1.08,1.85a13.31,13.31,0,0,1,3.11-.8l-1-.75,0,.36.27-1-.29.37a1.09,1.09,0,0,0,1.05,1.81c.62-.13,1.25-.24,1.87-.35l-.71-1.72-.45.51c-.67.76,0,2.17,1,1.81.87,0,1.27-.55,1.2-1.51-.94.74.12,2,1.05,1.81l.8-.14c1.15-.21.9-2.19-.28-2.07l-.8.09.76,1.84.24-.21a1,1,0,0,0,.28-1c-.65-1.7-2.34-1.18-3.82-.85l1.22,1.58.33-.6a1,1,0,0,0-1.13-1.47l-1.88.19.93,1.63a1.41,1.41,0,0,0,.23-1.55,1,1,0,0,0-1-.75,18,18,0,0,0-3.7.7l1.08,1.86c.41-.41.82-.84,1.21-1.27a1,1,0,0,0-1.18-1.53,24.14,24.14,0,0,1-3.45,1.53l1.12,1.46a8.35,8.35,0,0,0,1-1.59.82.82,0,0,0-1.11-1.11c-.82.36-1.66.71-2.49,1.06l1.2,1.55a11.49,11.49,0,0,0,.88-1c.67-.76-.17-2-1.12-1.46a21.85,21.85,0,0,1-2.09,1.09c-.79.36-.22,1.56.57,1.36Z"/><path d="M67.28,109.88a1.47,1.47,0,0,0,0-.69l-.75,1c1.11.06,2.21,0,3.33.14l.25-1.9c-.92-.12-4.09-.51-4,1.12.05.76.87.77,1.44.72a12,12,0,0,1,2.54.1,1,1,0,1,0,0-1.94,8.82,8.82,0,0,0-3.79.22.8.8,0,0,0-.19,1.44,1.08,1.08,0,0,0,.46.21.58.58,0,0,0,.72-.41Z"/><path d="M46.74,127.22a19.28,19.28,0,0,0-3.8-.38c-1.51-.07-1.5,2.28,0,2.35l8.73.42v-2.4a41.36,41.36,0,0,1-8.59-1l-.67,2.42c2.23.3,5,1,7.19.18a.87.87,0,0,0,0-1.67c-2-.73-4.43-.5-6.52-.93a1.26,1.26,0,0,0-.67,2.42,36.53,36.53,0,0,0,9.26,1,1.2,1.2,0,0,0,0-2.4l-8.73-.37v2.35a18.53,18.53,0,0,0,3.8-.34.85.85,0,0,0,0-1.63Z"/><path d="M30.64,110.83c4.47-9,4.77-19.15,4.51-29-.06-2.32-.55-5.06,0-7.36.84-3.74,3.64-4.22,6.85-4.69a146.17,146.17,0,0,1,17.61-1.43c4.64-.11,12.35-1,15.13,3.55,2.53,4.18,2,11.59,2.53,16.41.74,6.69.08,19.55,7.51,22.93a2.07,2.07,0,0,0,2.8-2.8c-2.73-5.88-3.65-10.89-4.33-17.37-.63-6-.78-12.33-2-18.25C78.78,61.55,65.84,62.28,56.78,62.73a115.59,115.59,0,0,0-18.2,1.91c-4.07.88-7.58,3.15-8.72,7.35-1.37,5-.1,11-.14,16.1a100,100,0,0,1-2.65,21.24c-.46,2.06,2.53,3.58,3.57,1.5Z"/></g></g></svg>