<svg xmlns="http://www.w3.org/2000/svg" width="64.85" height="85.72" viewBox="0 0 64.85 85.72"><defs><style>.cls-1{fill:#22b573;}.cls-2{fill:#b21106;}.cls-3{fill:#720805;}</style></defs><title>armor-1-hand-r-1</title><g id="Layer_2" data-name="Layer 2"><g id="Layer_11" data-name="Layer 11"><path class="cls-1" d="M8.72,34.34c.52-3.68-1.1-7.55,0-11.1.6-1.91,5.89-11,8.74-8.94,2.28,1.62,4.88-1.47,3.66-3.65-3.78-6.72-10.58-.37-13.6,3.41a20.81,20.81,0,0,0-4.49,8.28c-.86,3.82.38,7.52.66,11.32.2,2.65,4.58,3.71,5,.68Z"/><path class="cls-1" d="M6.55,32.92C5.89,30.31,5,28.37,5.7,25.58A24.39,24.39,0,0,1,8.17,19.8c2-3.7,4.59-7.66,9.32-5.84,2.66,1,3.77-2.84,1.8-4.29-5.57-4.08-11.86.65-14.83,5.53C1.12,20.66-3,29.84,3.21,34.87a2,2,0,0,0,3.34-1.95Z"/><path class="cls-1" d="M7.48,30l-.89.2c-3.15.63-2,4.79.7,5.13s6.19.94,8.76-.33c.59-.29,1.09-.9,1.64-1.16,1.47-.69,3.17-.57,4.7-1.07,2.75-.9,1.58-4.66-1.17-4.25a60.87,60.87,0,0,1-10.62.51l1.64,4,1.85-.68-.51-4a4.77,4.77,0,0,0-2.25,1.47A6.66,6.66,0,0,1,14.85,29L13.17,25Q11,27,13,24.4l-1.36-1.35-.6.19,2,1.17c.62-1.55.34-2.62-.83-3.2-.73-.89-1.32-.63-1.76.78L15,23.88a3.24,3.24,0,0,1,2-3.53L13,18c.21,3.65.21,7.29.17,11H18.5a44.7,44.7,0,0,1-.18-6.84L17.1,24.22c-1.57.13-1.94.81-1.1,2.06a15.28,15.28,0,0,1,.46,3.62l4.89-.67a16.43,16.43,0,0,1-.46-6.32l-4.65,1.26a12.36,12.36,0,0,1,1.89,6.26l4.62-1.25c-1.05-2-3.73-5.94-3.6-8.34.07-1.24-.71-.51.94-1.05a30.45,30.45,0,0,1,4.17-.67c2.8-.44,2.14-5.05-.66-4.93A10.08,10.08,0,0,0,15.15,19a2.54,2.54,0,0,0,.9,3.42l.59,1.68,4.83-.66c-.88-2.52.19-5.24-1.67-7.47s-4.35-1.54-6.57-2.71l-.58,4.47a21.17,21.17,0,0,1,10.46-.05l.67-5a9.56,9.56,0,0,1-4.44-.93l-1.26,4.63A95.17,95.17,0,0,1,28.4,18.46c3.2.79,4.55-4.21,1.36-4.91-3.65-.8-7.33-1.43-11-2-2.62-.43-4.51,3-1.91,4.54a14.06,14.06,0,0,0,7,1.68c2.81.1,3.45-4.31.66-5A27,27,0,0,0,11.35,13c-2,.52-2.48,3.5-.59,4.47,1.17.59,3.87.62,4.73,1.32,1.27,1.06.73,4.42,1.23,5.95.92,2.78,4.51,2,4.84-.65s-.81-4.53-3-6l.9,3.41a4.6,4.6,0,0,1,4.14-2.27l-.67-4.93c-2.93.51-8.3.37-9.16,4.09s3,10,4.7,13.32c1.12,2.19,4.69,1.15,4.61-1.26a17.61,17.61,0,0,0-2.53-8.77c-1.36-2.29-4.39-1.08-4.65,1.25a19.58,19.58,0,0,0,.65,7.65c.73,2.63,5.06,2.21,4.89-.66s-.6-10.26-4.79-10.49c-4.62-.25-3.48,6.83-3.53,9.53-.07,3.46,5.31,3.46,5.38,0,.06-3.66.09-7.3-.09-11a2.77,2.77,0,0,0-4.11-2.36,7.91,7.91,0,0,0-4.61,8.25c.25,2,2.92,3.91,4.56,1.88S18,20.65,16.48,18s-4.35-1.94-6.17-.31C8.27,19.53,7,23,8.13,25.61s4.24,2.95,6.2.88c1.44-1.51,2.18-4.24.14-5.63s-5.36.65-6.66,2.34a4.64,4.64,0,0,0,.91,6.92c2.78,1.81,5.73.25,7.81-1.82a2.4,2.4,0,0,0-1.68-4.05c-3.3.1-10.46,1.78-9,6.61,1.31,4.46,7.15,3.24,10,1.26,1.44-1,1.42-3.48-.51-3.95A6.4,6.4,0,0,0,9,29.74c-1.64,1.4-.21,3.86,1.64,4a49.66,49.66,0,0,0,11.79-.9l-1.17-4.25c-1.92.58-3.86.46-5.78,1.11-2.95,1-5,.75-8.15.48L8,35.26a9.65,9.65,0,0,0,2-1c2.72-1.8.37-5.49-2.49-4.26Z"/><path class="cls-1" d="M10.08,48.15c-.36,3.4,2.13,7.52,3.48,10.58.63,1.44,2.68,1.7,3.9,1,3.09-1.71,6.78-1.61,9.77-3.63,2-1.36,1.49-5.17-1.35-5-1.42.09-2.83.25-4.24.34-.38,0-3.77.41-3.81.37l.73,1.77-.06-.47-.73,1.77c.68-.87,3.45-1,4.48-1.19,2.91-.4,2.22-5.26-.7-5.12-1,.05-5.13.3-5.7-.49L14.29,52A10.33,10.33,0,0,1,21,51.57l.66-4.88a29.2,29.2,0,0,1-5.45.11l2.27,3,.14-.45-1.08,1.41a2.64,2.64,0,0,1,3.22.68,2.38,2.38,0,0,0,4.06,0c.15-.23,1.59-2.52.8-2.69l-1.43-1.1c-.11-.85-.18-.6-.2.74-.13.6-.26,1.21-.41,1.81l4.64-.61a4.5,4.5,0,0,1-.85-3.14l-3.85,1.05a4.19,4.19,0,0,1,.11,4.14c-1.33,2.76,2.83,5.16,4.1,2.4a8.36,8.36,0,0,0-.64-8.63c-.91-1.36-3.41-1.38-3.78.49a13.65,13.65,0,0,0,.27,5.65c.51,2.5,4.29,2.33,4.9,0s1.37-6.63-1.77-7.45c-3.73-1-4.5,2.7-5.95,5h4.06C22.75,45.77,15.61,44,14,48.54c-.58,1.61.9,2.8,2.28,3a24.23,24.23,0,0,0,5.45.13c2.69-.24,3.5-4.07.66-4.88a16,16,0,0,0-9.45.15,2.64,2.64,0,0,0-1.56,3.83C13.47,54,18.07,54,21.55,53.84l-.69-5.13c-2.55.45-9,1.81-7.08,5.88.79,1.71,2.45,1.93,4.15,1.95,2.64,0,5.3,0,8,0l-1.35-5c-3,1.93-6.8,1.66-10,3.32l3.91,1c-1.42-3-2.27-7-4.61-9.27a2.26,2.26,0,0,0-3.8,1.57Z"/><path class="cls-1" d="M28.5,52.28a2,2,0,1,0-2-2,2,2,0,0,0,2,2Z"/><path class="cls-1" d="M22.08,75.81c7.37,7.64,23.16,11.57,26.63-2a3.25,3.25,0,0,0-2.21-3.89,2,2,0,0,0-.84-.11,3.3,3.3,0,0,0-3,2.32C39.28,81.43,30,73.68,24.32,72c-2.25-.68-3.79,2.23-2.24,3.84Z"/><path class="cls-1" d="M34.59,74.13c-3.26-1.23-7.46-2.31-10.05-4.75l-1.88,4.53c4.1.42,9.23.3,12.81,2.56V72.31L32,72l.6,2.29c1.11.1,1.8-.59,2.07-2.08a3.77,3.77,0,0,1-2.18-2.88l-1.2,2.09c1.44-1.05,4.46,1.65,5.28,2.54l1.11-4.2a7.36,7.36,0,0,1-4,.51c.25,1.15.76,1.46,1.54.94,1,.12,3.55-.7,1.29,1.14l4.1,3.17c1.58-2.25,3.11-4.53,4.61-6.83l-4.53-1.23a9.38,9.38,0,0,1-2.58,6.08l4.58,1.9c.07-2.54,2.52-3.82,1.75-6.72a5.82,5.82,0,0,0-4-3.94l-.65,4.81,3.17.84c2.81,1.25,5.29-2.87,2.44-4.18a17.44,17.44,0,0,0-5.61-1.56c-2.46-.29-3.28,3.49-1.24,4.57,1.19.63-1.18,4.71-1.25,6.18-.11,2.25,3.07,3.64,4.58,1.89a13.67,13.67,0,0,0,3.65-9.87c-.11-2.58-3.11-3.09-4.53-1.23-1.67,2.2-3.32,4.41-4.92,6.65-1.76,2.46,2.05,5.21,4.1,3.17,3.06-3,3.45-9.4-1.81-10.5-4.28-.9-5.83,4.35-3.23,7.15C38.43,76.22,43,72,41.38,68c-1.52-3.79-7.51-5-9.77-1.17-2.53,4.32,2.84,9.6,7.2,8.63s5.38-6.88,1.45-9c-3.17-1.73-9.42-.28-10.87,3.24C27,75.63,35.53,76,39,74.59c1.7-.69,2.55-2.74,1.11-4.2-2.37-2.4-12.77-7.34-12.54-.3.14,4.52,8.56,11.14,12,6.13s-6.65-8-10-5.71a3.47,3.47,0,0,0-.32,5.64c2.46,2.2,5.92,1.66,8.59.32,1.78-.9,1.32-3.17,0-4.16-4-3-9.76-2.87-14.53-3.62-2.4-.37-4.71,2.45-2.59,4.44,3.3,3.08,8.38,4.28,12.68,5.1a2.13,2.13,0,0,0,1.13-4.1Z"/><path class="cls-2" d="M29.45,26.69c4.27,6.91,3.52,14.54,6,22l11.14-3.07c-1.86-4.78-4.76-10.36-4-15.66H32.12A79.09,79.09,0,0,1,35,39.2c.57,2.34,2,6.62,1.39,9L42,43.9c2-.25,2.06,1.55,1-.46-.56-1-1.55-1.91-2.12-3a13.88,13.88,0,0,1-1.66-6.33L28.45,35.57a83.39,83.39,0,0,0,4,11.72c2.62,5.88,12.44,1.7,10.42-4.39-1.15-3.46-2.6-6.82-3.83-10.25-2-5.53-11-5.09-10.78,1.46.31,8,5.06,22.67,15.32,21.19,1.91-.27,3.59-2.29,4-4,1-3.86-.15-8.66-1-12.5a55.45,55.45,0,0,0-4.64-13c-2.58-5.3-9.62-2.08-10.09,2.73-.69,7.05,1,13.62,3.49,20.17,2.66,6.86,13.85,3.85,11.14-3.07-3.19-8.13-5.08-15.67-10.28-22.89-2.92-4-9.55-.42-6.83,4Z"/><path class="cls-2" d="M35.41,32.52a13,13,0,0,1,.94-1.66,7.75,7.75,0,0,0,.87-3.75,13.57,13.57,0,0,0-2.13-6.37L30.46,28.8a61.54,61.54,0,0,1,6.66.12l-2.78-.75.26.19-2-2a9.17,9.17,0,0,1,.8,1.31l.26.54c-.14-.29-.15-.26,0,.09.3,1.05.68,2.09,1,3.15a5.09,5.09,0,0,0,5.6,3.65c2.7-.41,4.1-2.41,4.42-5a13.47,13.47,0,0,0-3-9.84C38.93,17,34.3,17.89,30.46,18.09s-7.07,4.51-4.62,8.06a17,17,0,0,1,.9,1.47c.27.51.36.9.8,1.82a8.6,8.6,0,0,0,1,1.71q.55.83.3.33c.76,1.07.85,1.13.29.19a3.21,3.21,0,0,0,6.28.85Z"/><path class="cls-2" d="M36.94,50.59a8.15,8.15,0,0,0,.34,7.51c1.39,2.37,3.66,3,6.27,3,2.29,0,4.62-.31,6.91-.49,2.83-.22,5-.62,6.61-3.19,2.87-4.45-2.61-8.7-6.72-6.73,1.27-.25,1.48-.35.61-.28l-1.49.05L47,50.55a41.92,41.92,0,0,1-4.88.13l3.68,1.53c-1.41-1.52-2.26-2.76-4.32-3.47a4,4,0,0,0-4.54,1.85Z"/><path class="cls-2" d="M58.74,51.12c-2.68-3-5.27-6.5-5.76-10.53s-1.2-8.7-6-9.63c-2.8-.54-5.83,1.23-5.75,4.37a48.85,48.85,0,0,0,.86,5.26c.35,2.49.45,4.7,1.45,7.06a32.35,32.35,0,0,0,7.76,10.91c4.94,4.69,12-2.42,7.45-7.44Z"/><path class="cls-2" d="M50.2,39c.53-4.56-.64-7.4-2.7-11.43-2-3.82-2.81-8.33-5.39-11.78-2.94-3.94-10.78-1.86-8.74,3.68l.34.93c1.35,3.66,5.54,4,7.79,1l.61-.79H33.86c2,3,2.77,6.78,4.26,10.06a46.4,46.4,0,0,0,2.54,4.71c.56.92,2.15,2.55,2.25,3.61a3.65,3.65,0,0,0,7.29,0Z"/><path class="cls-3" d="M24.25,10.56a3.93,3.93,0,0,0,2,.7c1.92.26-.39-.24.41.1.41.18.89.23,1.31.37.12,0,1.28.51.9.33s.52.28.6.33c.4.21.78.45,1.17.69a8.78,8.78,0,0,0,4,1.31c2.94.29,5.84-3.39,4.71-6.18a7.91,7.91,0,0,0-2.95-3.85A16.16,16.16,0,0,0,33.75,3,19,19,0,0,0,27,1.11a5.15,5.15,0,0,0-5.12,5.12,5.3,5.3,0,0,0,2.42,4.33Z"/><path class="cls-3" d="M6.85,43.3l.16.37a3,3,0,0,0,2.62,1.5c3.56.27,7.88.77,11.23-.65,3-1.29,5.83-3.87,5.25-7.33a2.62,2.62,0,0,0-2.49-1.9c-2.93-.16-3.87,2.7-6.54,3.17s-5.51-.09-8.26.74a3.17,3.17,0,0,0-2.23,2.93,2.39,2.39,0,0,0,.26,1.17Z"/><path class="cls-3" d="M17.19,67.53c6.36,2.28,12.52-2.65,17-6.56,3.54-3.09-1.62-8.18-5.15-5.14a42.73,42.73,0,0,1-5.24,4c-2.08,1.29-4.39,1.77-6.61,2.71s-2.54,4,0,5Z"/><path d="M3.94,33.66l-.28.06A2.7,2.7,0,0,0,1.81,37,143,143,0,0,0,9.39,63.12C11.71,68.78,16,77,22.68,78.22c1.92.34,4.24-1.74,2.84-3.7-2.47-3.46-5.9-5.83-8.13-9.57-2.45-4.13-3.86-8.75-5.26-13.31-1.46-4.74-2.79-9.55-4.48-14.21-.59-1.65-1.41-4.25-3.71-3.77Z"/><path d="M21.78,21.74c6.55,1.5,15.63-3.5,17.47-10.06C41.81,2.53,28.32-.57,21.69.09c-2.35.23-3.05,3.51-.57,4.26,2.83.86,5.75,1.34,8.58,2.24s6.09,1.83,3.68,5.46c-2.81,4.24-8,4.19-12,6.4a1.82,1.82,0,0,0,.43,3.29Z"/><path d="M35.08,7.08c-.08.12,0,.09.08-.09a1.17,1.17,0,0,0,.1-.26.67.67,0,0,0-.47-.83l-.08,0a.8.8,0,0,0-.86.35,1.14,1.14,0,0,0-.15,1c.22.72,1.46.64,1.38-.19Z"/><path d="M20,3c.14,1.91.26,3.83.39,5.75.11,1.53.61,4,2.78,3.52,3.84-.92.64-8-.5-10A1.44,1.44,0,0,0,20,3Z"/><path d="M33.5,6.74c3.87,5.49,7.87,10.69,10.87,16.74,3.17,6.4,5.07,13.31,7.77,19.9,1.16,2.83,2.48,5.58,3.79,8.34.63,1.33,2.33,3.7,2.35,5.19,1-1.59.37-1.57-1.88.05l-1.61.57A35.74,35.74,0,0,1,44,59.36c-3.13,0-6.07-.56-9.18,0-2.43.42-2.54,3.9-.66,5,6.18,3.69,16,1.77,22.39-.55,2.55-.92,6.65-2,7.9-4.72,1.35-2.9-.88-6.36-2.09-9C55.09,34.58,50.93,15.37,37.06,4c-1.83-1.49-5.16.47-3.56,2.75Z"/><path d="M20.23,20.91c.91,5,2.78,9.71,4.31,14.54,1.22,3.82,1.67,7.84,2.93,11.63S30.88,54,31.9,57.85c.89,3.36,1.5,6,4.38,8.09C38,67.2,40.67,65.1,40,63.12c-1.18-3.22-2-6.52-3.15-9.73-1.38-3.83-3.64-7-4.55-11.08a90.36,90.36,0,0,0-8.28-23c-1.17-2.15-4.14-.6-3.74,1.58Z"/><path d="M5.09,40.82c7,1,19.68-.4,22.22-8.41a2,2,0,0,0-2.5-2.49c-3.15.89-5.66,3-8.78,4-3.56,1.15-7.27,1.19-10.94,1.72-2.55.37-2.55,4.78,0,5.15Z"/><path d="M8.58,47.24c6.9,2.45,18.36.51,20.67-7.45a1.94,1.94,0,0,0-2.82-2.17c-3,1.5-5.09,3.92-8.49,4.64-3.1.66-6.28.18-9.36.82-2.24.47-1.85,3.51,0,4.16Z"/><path d="M13.13,64.25c6.35,2.32,21.75-5.61,20.76-13.38A1.94,1.94,0,0,0,31,49.21c-1.54.87-2.23,2.17-3.43,3.47a20.24,20.24,0,0,1-4.73,3.77c-3.28,1.89-7.76,2.24-10.5,4.83a1.8,1.8,0,0,0,.79,3Z"/><path d="M18.7,70.93a18.14,18.14,0,0,0,12-2.2c3.08-1.81,6.76-5,7-8.73a2.07,2.07,0,0,0-2.61-2c-3.08.71-4.84,3.92-7.46,5.53-2.92,1.8-6.5,1.8-9.41,3.64-1.37.86-1.34,3.41.49,3.74Z"/><path d="M44.74,65a.5.5,0,0,0,0-1,.5.5,0,0,0,0,1Z"/><path d="M45.9,62.33a31.83,31.83,0,0,0-.65,7.42c0,2.25-.34,5,1.08,6.86a1.84,1.84,0,0,0,3.13,0c1.3-2,.81-4.55.68-6.86a36.92,36.92,0,0,0-.84-7.42,1.78,1.78,0,0,0-3.4,0Z"/><path d="M17,11.93a86,86,0,0,1,9.88,2.22,22.47,22.47,0,0,1,4.94,2.31,3.49,3.49,0,0,0,2.67.71,1.9,1.9,0,0,0,1.78-1.35l.12-.57a2.74,2.74,0,0,0-.7-2.66c-4.87-4-11.91-5.11-18-5.44C14.89,7,14.24,11.41,17,11.93Z"/><path d="M18.88,75.21c.1,3.15.22,10.49,4.7,10.51a2.25,2.25,0,0,0,2.15-1.64c.34-1.5-.33-2.81-.63-4.27a49.21,49.21,0,0,0-1.29-5.26c-.86-2.58-5-2.29-4.93.66Z"/></g></g></svg>