<svg xmlns="http://www.w3.org/2000/svg" width="77.97" height="93.55" viewBox="0 0 77.97 93.55"><defs><style>.cls-1{fill:#22b573;}.cls-2{fill:#13633d;}.cls-3{fill:#bf0a00;}</style></defs><title>armor-1-helmet</title><g id="Layer_2" data-name="Layer 2"><g id="Layer_9" data-name="Layer 9"><path class="cls-1" d="M39.94,75.27c.44-6.19.12-12,2.23-17.88s2.47-11.76,3.43-17.86C46.62,33,39.37,27.6,34,32.76c-5.21,5-4.34,14-6.7,20.52-2.6,7.18-2.52,14.44-2.31,22,.27,9.71,14.3,9.54,15,0Z"/><path class="cls-1" d="M36.57,72.08l-.39.39c-2.13,2.1-2.08,4.94-1,7.48,2.37,5.37,8.46,5.31,13,3.29L41.57,71.8c2.41.25,2.9.06,1.49-.57a10.79,10.79,0,0,0-2.36-1.1,12.81,12.81,0,0,0-4.92-.8c-7.29,0-9.46,11.83-1.78,13.17,7.44,1.3,17.41,4.78,23.47-1.47,5.56-5.75,5.47-14.45,4.62-21.84-.6-5.14-7.12-9.44-11.3-4.68-3.48,4-5.41,8.69-9.94,11.69l10,5.72c.54-6.36,3.25-10.23,6-15.78l-10-5.83a83.22,83.22,0,0,1-9.33,11.34c-5.37,5.23,3,13.61,8.23,8.23A120,120,0,0,0,56.77,56.14c3.42-4.76-3.22-10.86-7.91-7.9-7.52,4.76-11.3,15-11.29,23.68,0,6.16,7,8.19,11.31,4.69,4.55-3.75,7.14-8.75,11.27-12.74l-11.3-4.68a52.89,52.89,0,0,1-.78,11.75q-1.6,2.24.18.8a30.69,30.69,0,0,1-3.45-.44,62,62,0,0,1-7.24-1.73L35.78,82.74c-1.29-.07,1.58.81,2,1a12.31,12.31,0,0,0,3.25,1,9.46,9.46,0,0,0,7.26-1.51c6.8-4.89.89-15.72-6.69-11.44q5.45,1.86,2.08-.29c-.63-.29-1.26-.55-1.91-.79a5.23,5.23,0,0,0-5.17,1.36Z"/><path class="cls-1" d="M36.31,60.39c-3.1-3.49-.19-10.84-.29-14.88-.09-3.71-.89-8.21-4-10.63-1.37-1.08-3.27-1.68-4.89-.63-6.12,4-6.8,13.45-7.09,20.07-.31,7.2-1,17.63,6.3,21.73,4.28,2.41,11.15-1.71,9.07-7a53.83,53.83,0,0,1-3.26-13.83c-.57-4.67-1.43-11,.51-15.48l-6.34.82.71.77-1.2-2.91c.91,9.61-2.9,20.69,6.57,27,3.16,2.08,6.18-2.42,3.87-5Z"/><path class="cls-1" d="M30.74,44.25C30.13,38.6,27.15,27.06,19,29.46c-3.44,1-5.34,5.21-5.58,8.53a8.72,8.72,0,0,0,1,4.94A19.1,19.1,0,0,0,16,44.84q4.07,4,3.14-6.69c-6.32-3.47-13.77,5.21-8,10.34a26.34,26.34,0,0,0,3.15,2.42l6.59-11.26C15.48,36.54,20,26.59,18.7,21.78q.32-3.44-2.48,2.59l1.69-.16c.19,0,5.18,0,5.19,0L21.65,20c-.75.81-1.53,1.6-2.34,2.36a42.21,42.21,0,0,1-3.74,3.21c-6.75,5.11-.88,16.29,6.84,11.71a61.37,61.37,0,0,1,14.86-6.48l-6.81-11.7a18.26,18.26,0,0,1-5.67,3.45c-9.46,3.3-5.68,16.77,4.11,14.93,2.18-.41,4.37-.79,6.54-1.25.94-.18,1.86-.39,2.78-.63q3.51,0,.39-1.77l1.29-10a37,37,0,0,1-8.39,4c-8.94,3.15-4.81,17.6,3.9,14.16C37.8,41,40.17,40,42.54,39l3.55-1.49q3.75-.9-3.52-2.5l1.07-8.22a29.24,29.24,0,0,1-6.43,3.95c-8.54,4.16-.73,18,7.51,12.84a38.86,38.86,0,0,0,8.52-7.19c1.82-2,2.9-5.77,1.06-8.23-5.93-7.9-15.16-3-22.79-.44l5.66,13.42A68.94,68.94,0,0,0,47.64,33.8c2-1.61,2.48-5.63,1-7.74-4.8-6.81-14.57-4.34-21.79-3.82L28.9,37.45c5.43-2.19,9.36-4.91,12.56-9.9,3.3-5.15-2.17-12-7.91-10.28a64.38,64.38,0,0,0-18,8.27l8.22,10.65c5.22-4.47,14-12.26,9.11-19.92-3.83-6-14-6.08-20.18-4.6C4.18,13.71,5.22,23,5.1,30,5,38.93,6,46,14.28,50.91c6.36,3.77,13.21-5,7.91-10.24a25.75,25.75,0,0,0-3.09-2.52L14,50.18C18.63,52,24.12,50.82,26.3,46a7.72,7.72,0,0,0,.33-6.12,7.54,7.54,0,0,0-1.74-2.65c-2.17-2-1,2,.28.19l-4.69,2.69c-1.55-.59-1.91-.44-1.08.44.43.65.87,1.29,1.31,1.92.89,1.27,1.84,2.47,2.77,3.72,2,2.68,7.72,2.34,7.26-2Z"/><path class="cls-1" d="M27.12,18.27C33.41,17.56,40,26.8,44,30.42,49,35,58.1,29,53.87,22.79,47.87,14,35.55,4.08,25.31,11.58c-2.51,1.84-2.14,7.12,1.81,6.69Z"/><path class="cls-1" d="M21.59,18.94a75,75,0,0,1,8.74,0c3.26.06,6.71-.25,10,0,1.5.11,1.37-.08,2.63.82.9.64,1.64,1.58,2.5,2.3s3.2,1.91,3.74,2.81c.38.65.39,3.07.48,3.91.39,4,3.16,7.51,7.5,7.51,3.74,0,7.92-3.45,7.51-7.51-.53-5.26-1.25-10.91-5.36-14.68-3.1-2.84-7.53-6.44-11.53-7.76-4.89-1.6-10.52-.46-15.46.57-4.23.88-10.79.92-14,4-2.78,2.64-.82,8.48,3.33,8.06Z"/><path class="cls-1" d="M53.74,23.59c.61,3-.39,5.95-.68,9.1a79.44,79.44,0,0,0,0,12.72c.57,8.47,12,10.22,14.78,2a23.67,23.67,0,0,0,1.22-7.78L56.36,41.35c.59,2.18-1.64,4.65-2.62,6.48a72.66,72.66,0,0,0-3.44,7.31c-1.93,4.74-4.92,10.49-1.46,15.14,1.49,2,4.24,3.87,6.91,2.82,6.83-2.69,7.52-10.19,9.74-16.51,2.14-6.08,5.47-12.14,3.37-18.68s-10.1-5.71-12.5,0a20.84,20.84,0,0,1-2.24,3.7l14,3.8c-.19-5.85.14-11.38.45-17.19.25-4.56-1-9.72-5.46-11.85a6.48,6.48,0,0,0-9.39,7.22Z"/><path class="cls-1" d="M36.56,52.73l-.5,1.9a5.18,5.18,0,0,0,6.31,6.31c4.31-1.08,6.43-5.52,9.09-8.73,2.8-3.37,5.71-6.68,8.73-9.87l-10-2.65.19,1V37.48c-.84,5.09-3.66,10.4-5.54,15.2-2.49,6.33,6.33,10,10.59,6.17,2.62-2.38,5.16-7,2.57-10.35s-7.36-1-10.25.39L57,56.05c1.91-5.9,6-13.27,4.69-19.54-.91-4.42-7-5.79-10-2.65a113,113,0,0,0-7.92,9.28c-1.13,1.49-2.24,3-3.31,4.56s-1.85,3.43-3.1,4.66L46.14,56l.22-1.93c.64-5.67-8.39-6.65-9.8-1.33Z"/><path class="cls-1" d="M63.05,72.19c.89-2.74,3.1-5.29,4.12-8.12a52.64,52.64,0,0,0,2.6-10c.92-6,2.37-14.21-2.57-18.66a5.59,5.59,0,0,0-8.66,1.11c-1.91,3.14-1.42,5.74-1.49,9.26A60,60,0,0,1,55.62,56c-1.1,5.72-2.9,11.65-.49,17.24,1.59,3.68,6.88,2.15,7.92-1Z"/><path class="cls-2" d="M18,82.46c3.29-3.24,2.64-7.86,3.16-12.1s2.46-8.74-.14-12.47a5.91,5.91,0,0,0-7.79-2c-5,2.23-5.33,9.12-5.69,13.86-.4,5.12-.24,10.32,4.2,13.56,1.84,1.34,4.75.69,6.26-.81Z"/><path class="cls-2" d="M19.8,82l.26.53-.35,2.68c-.26.53,1.85-1.2,2.21-1.67a5.56,5.56,0,0,0,1.14-3.49H15.58a8.64,8.64,0,0,1-.42,3.07c-.81,2.59,1.33,4.66,3.72,4.88,4.53.43,9.12,2.26,13.61,2.31,3.9,0,5.33-5.37,2-7.32-4.3-2.5-10.72-2.6-15.59-2.7l3.72,4.88a15.53,15.53,0,0,0,.46-5.12c-.41-4.72-7.65-4.88-7.48,0q.69-1.31-.09-.54a6.76,6.76,0,0,0-1.09,1,5.36,5.36,0,0,0-1.05,2,3.54,3.54,0,0,0,2.43,4.28l.21.06c1.89.52,4.51-1,4.24-3.23A4.8,4.8,0,0,0,19.8,82Z"/><path class="cls-1" d="M58,85.26c1.65-.19,3.36-.22,4.75-1.27,1.21-.91,2.5-2.3,2.29-4a5.8,5.8,0,0,0-.62-2.49,4.43,4.43,0,0,0-3.75-2.07l1.16.16h-.09l1.07.45c-1.92-1.2-4.06-.4-6,.16a4.62,4.62,0,0,0-3.31,5.06,4.39,4.39,0,0,0,1.27,2.65A4.48,4.48,0,0,0,58,85.26Z"/><path class="cls-1" d="M8.88,39.14c-.33,1,0,.16.17-.11s.24-.31,0,0l.45-.57c.26-.34.54-.68.77-1a4.09,4.09,0,0,0,.49-1.06c-.18.35-.18.34,0,0a3.15,3.15,0,0,0-4.94-3.82c-.25.22-.29.25-.1.11l-.57.44a6.1,6.1,0,0,0-.8,1,12.6,12.6,0,0,0-.79,1.38c-.85,1.66-1.26,3.54.25,5a3.08,3.08,0,0,0,5.08-1.34Z"/><path d="M.67,40.8A154.65,154.65,0,0,1,11,53.55c1.87,2.57,6.21.08,4.32-2.53A169.17,169.17,0,0,0,4.21,37.26C2.05,34.87-1.48,38.42.67,40.8Z"/><path d="M4.65,40.18c1.52-4.61,1.26-9.85,2-14.64.62-4.22,2.47-8.9,2-13.15-.14-1.19-1.51-2.52-2.75-1.57C2,13.76,2,19.51,1.26,24.07c-.78,5.18-2,11-.68,16.11.53,2.11,3.45,1.89,4.07,0Z"/><path d="M6.92,15c6.77-1.18,13.42-3.29,20.11-4.87C33.19,8.64,40.14,8,45.87,5.25,48.32,4.08,46.94.51,44.56.42,38,.16,30.8,2.81,24.51,4.48,18,6.21,11.28,7.88,5.05,10.54,2.36,11.69,4.43,15.4,6.92,15Z"/><path d="M43.32,5c4.73,3.2,9.61,6.12,14.17,9.59C61,17.22,64.06,20.87,68.75,20c1.82-.33,2-2.62,1-3.79-2.86-3.35-7.55-6-11.18-8.58A70.38,70.38,0,0,0,45.34.2C42.46-1,41,3.43,43.32,5Z"/><path d="M64.86,18.27a124.09,124.09,0,0,0,2.35,12.51c.85,3.95.83,8.58,3,12a2.3,2.3,0,0,0,4.14-.55c1.43-3.57,0-7.69-.81-11.33A115.64,115.64,0,0,0,70,17.58c-.91-2.56-5.45-2.42-5.11.69Z"/><path d="M73.43,41.11,73.06,41c-.71-.29-1.12.82-.51,1.2l.35.2c.83.5,1.48-.87.53-1.25Z"/><path d="M72.52,42.79A1.75,1.75,0,1,0,70.77,41a1.76,1.76,0,0,0,1.75,1.75Z"/><path d="M71.29,39.59c-3.49,6.91-4.67,15.3-6.69,22.74s-5.34,15-6.24,22.47C58,87.43,61.78,87.92,63,86.05c4-6.25,5.36-15,7.11-22.2,1.83-7.46,4.77-15.53,5-23.23,0-2-2.87-2.84-3.79-1Z"/><path d="M16.9,37.4c-1.51,3.13-.81,6-.5,9.46.37,4.17.87,8.33,1.34,12.49.79,7,.42,16.08,3.52,22.48,1,2,4.4,1.54,4.85-.63,1.45-7-1.15-15.66-2.11-22.69-.52-3.83-1-7.67-1.6-11.49-.55-3.56-.59-7.13-2.95-10a1.62,1.62,0,0,0-2.55.33Z"/><path d="M22.17,79.87l0,.7A2.77,2.77,0,0,0,23.54,83c3.06,1.37,6.14,2.68,9.23,4,2.78,1.16,5.77,3,8.77,3.44,2.7.39,5.41-.69,8-1.24,3.69-.79,7.66-.84,11.16-2.19,2.06-.8,2.7-4.37,0-4.86-6.06-1.09-11.57,2.1-17.5,2-2.67,0-5.48-1.72-8-2.7-3.16-1.26-6.32-2.5-9.51-3.68a2.76,2.76,0,0,0-2.77.73c-.37.42-.77.74-.8,1.32Z"/><path d="M13.05,55.39c1.28.58,2.58,1.11,3.85,1.72s3,1.5,4.47.89c.79-.33,1.71-1.08,1.58-2.08a4.77,4.77,0,0,0-3.16-3.75,19,19,0,0,0-4.74-1.53A2.65,2.65,0,0,0,12,52.14a2.58,2.58,0,0,0,1.07,3.25Z"/><path d="M6.48,79.12h.14a2.57,2.57,0,0,0,2.47-1.88c1.49-8.25,6.06-15.52,7.62-23.61A2.24,2.24,0,0,0,13,51.48c-3.19,2.84-4.38,7.33-5.78,11.25A54.93,54.93,0,0,0,4.07,76.57,2.55,2.55,0,0,0,5.94,79l.54.08Z"/><path d="M5.65,76.06l-.34.24a2.67,2.67,0,0,0-1.18,2.89c2.68,9.53,14.69,12.7,23.28,13.89a52.67,52.67,0,0,0,15.2-.18c4.9-.76,11-1.65,14.17-5.76,1.28-1.67-.52-3.6-2.16-3.76-4.4-.44-9.34,2.45-13.78,3.13a48.18,48.18,0,0,1-16.72-.43c-4.48-.91-9.72-2.3-13.06-5.62-.82-.8-3.12-6-5.41-4.4Z"/><path d="M60.09,38.9l-.46-.18,1.24,1c-.43-.56-.31-.93-.31-1.56,0-1.07-.4.52-.18.65l.7-.18a4,4,0,0,1-.72-.58c-.09-.37-.18-.41-.26-.13.51-.34.8-.26.86.23.17,1.06-1.66,1.67-1.51,0,.09-1.06,1.1-1.37,1.69-.56.46.62.17,1.37.35,2q-.21,1,.27.24l-.44,0c-.59-.25-1.28,0-1.88-.44a1.45,1.45,0,0,1-.59-1.81c.28-1.08,2-2.33,2.74-.95.48.86-.36,2.78-1.19,3.16-2.1,1-1.81-3.87.93-3.62,2,.18.79,5.94-1.16,4.31-.73-.6-1.17-2.6-.57-3.38.73-.94,2.06,0,2.3.78,1.11,3.72-3.94,3.28-3.08-.07.56-2.21-2.54-3-3.35-.92a5.93,5.93,0,0,0,4.11,8c4.08.79,7-2.88,6.63-6.69a5.87,5.87,0,0,0-2.07-4.41,6.17,6.17,0,0,0-5.48-1.11c-3.79,1.18-4.54,6-3,9.21C57.22,45.37,61.9,47,64.81,44c2.37-2.4,2.83-7.64.68-10.31-2.54-3.15-7.21-2-9.46.86S54,41.72,57.2,43.67c8,4.8,12.53-11.24,3.84-11.36-3.42-.05-5.79,3.73-5.71,6.86.09,3.67,4.25,5.87,7.61,4.89,3.81-1.1,3.49-6.43,1.58-9.08a5.18,5.18,0,0,0-8.47.05c-2,3-.71,8.14,3.27,8.54,3.71.36,6.91-3.79,5.39-7.25-1.78-4.06-8.58-3.17-8.77,1.44-.15,3.94,5.72,7.5,8.11,3.39a6.37,6.37,0,0,0,0-5.75c-1-1.81-3.15-2.06-5-1.41a4.61,4.61,0,0,0-3.14,4.47c0,2.17,1.17,4.52,3.65,4.28a2,2,0,0,0,.52-3.84Z"/><path d="M59.88,36.4a27,27,0,0,0,13.05,4c3.09,0,3.79-4.63.73-5.43-2-.54-4.17-.74-6.24-1.21s-3.83-1.1-5.77-1.56a2.3,2.3,0,0,0-1.77,4.19Z"/><path d="M62.08,37a51.26,51.26,0,0,0,8,2.4c1.72.3,4.33,1.22,5.36-1,.63-1.35.51-3.44-1.09-4.15A27.88,27.88,0,0,0,68.9,33a31.28,31.28,0,0,0-6.12-1.21c-3.07-.07-3.43,4.24-.7,5.17Z"/><path d="M59,43.59c.87,2.43,3.28,2.51,5.55,2.76a31.31,31.31,0,0,0,8.09-.16c3.46-.51,2.67-6.41-.83-6.14-2.86.23-5.68.45-8.54.52-1.48,0-5.15.54-4.27,3Z"/><path d="M63.77,42.85a23.25,23.25,0,0,1,4-.48,10.43,10.43,0,0,1,3.35.16,2.33,2.33,0,0,0,3.4-1.38l0-.25a2.57,2.57,0,0,0-1.15-2.83c-3.27-1.78-8.11-.44-11.09,1.35a1.89,1.89,0,0,0,1.45,3.43Z"/><path d="M65,41.7a13.07,13.07,0,0,1,2.26.3l.49.14.1,0c-.34-.24.23.31.29.37,1.13,1.21,3.61.71,3.91-1,.76-4.41-5.23-4.95-8-3.22A1.85,1.85,0,0,0,65,41.7Z"/><path d="M70.16,43.47A19.61,19.61,0,0,1,71.73,40a3.46,3.46,0,0,1,.85-1c-.34.2,0-.19.12.18S73,41,72.48,41.3s-1.53-.73-1.84-.87a2.25,2.25,0,0,0-3.25,1.32c-.69,1.91,1,3.52,2.62,4.16a6.16,6.16,0,0,0,4.47.18c3.24-1.23,4.33-5.85,2.81-8.75-1.35-2.58-5.08-3.71-7.42-1.77-2.11,1.74-4.26,5.91-1.72,8.16a1.29,1.29,0,0,0,2-.26Z"/><path class="cls-3" d="M74.9,41.27c0-.2-.05-.4-.08-.6,0-.42.05.38,0-.06s0,.13-.09.25a1,1,0,0,1-1.1.44l-.81-.47a1.11,1.11,0,0,1-.3-.72v.15c0,.18,0,.19,0,0s0-.15,0,0c.49-.84,1-1.14,1.6-.9.12,0,.09,0-.11-.08l-.41-.23.15.12c-.16-.16-.15-.14,0,.07l.16.6a1.05,1.05,0,0,1-.51,1l-.18.07a1,1,0,0,1,.29-.1.81.81,0,0,1,.37,0l-.74-.2c-.19-1-.34-1.3-.43-.8l0,.17c-.09.36,0,.07.06,0a.63.63,0,0,1,.62-.15q.36.18.09,0l.18.13a1.24,1.24,0,0,1,.24.52c0,.25-.06.26,0,0l-.07.16c.11-.18.1-.17,0,0s-.17.11,0,0-.14,0-.25,0-.38-.26-.25-.13.1.06-.18-.32a.73.73,0,0,1,.06-.53c.14-.15.16-.18.06-.08a.93.93,0,0,1-.18.16c.17-.12.19-.14.08-.07s-.09.06,0,0a1.52,1.52,0,0,1-.28.09,4,4,0,0,0-1.49.88,1.61,1.61,0,0,0,.33,2.51,3.1,3.1,0,0,0,2.87.07,3.4,3.4,0,0,0,1.92-1.89,3.21,3.21,0,0,0-2.25-4.28,3.37,3.37,0,0,0-4,2.64,3.09,3.09,0,0,0,2.94,3.71,2.78,2.78,0,0,0,2.37-1.15,3.17,3.17,0,0,0,.34-2.6,3.45,3.45,0,0,0-.38-1,1.72,1.72,0,0,0-.58-.59c-.08,0-.62-.36-.39-.2s-.31-.23-.28-.22a4.44,4.44,0,0,0-.77-.35,2.61,2.61,0,0,0-1.61,0,2.75,2.75,0,0,0-.66,4.82,4,4,0,0,0,2.56,1,2.62,2.62,0,0,0,2.5-2,3.59,3.59,0,0,0-.43-2.64,2.33,2.33,0,0,0-3.52-.37,2.73,2.73,0,0,0-.89,2.28,2.13,2.13,0,0,0,2.07,2.08,1.44,1.44,0,0,0,1.43-1.42Z"/><path d="M56.06,24.21c-.41-.13-.22-.38-.17-.44.2-.24.42-.24.67-.36s0-.24,0,.18c.07,1.89-1.36.42-1.65-.6-.48-1.66,1.55-1.08,2.25-.41s1.54,2.54-.24,2.63c-1.47.07-3.28-2.1-1.51-3.05,1.47-.79,3.54,1.76,2.07,2.37-.67.28-1.15-.63-.71-1.12.18-.19.46-.13.6-.23.19.07.13,0-.17-.31a1.09,1.09,0,0,1-.36.46c-.15,0-.59.13-.69-.39a.36.36,0,0,1,.23-.48c.67-.35.95.54.95,1,0,2.78,4,2.68,4.25,0a4.93,4.93,0,0,0-4.36-5.4,4.6,4.6,0,0,0-5.14,4.08,5.14,5.14,0,0,0,4.6,5.48,4.82,4.82,0,0,0,4.74-4.93c-.13-2.75-3.05-4.2-5.5-3.42a4.93,4.93,0,0,0-3.19,5.92,4.69,4.69,0,0,0,6,3.18,5.08,5.08,0,0,0,3.06-6c-1.39-5.48-9.86-5.92-10.89,0-.94,5.39,5.51,10,9.86,5.87s.48-11.07-5-11.17a5.66,5.66,0,0,0-5.65,4.13,7.14,7.14,0,0,0,2.91,7.22,5.12,5.12,0,0,0,7.52-1.71c1.46-2.65.46-6.62-2.49-7.75a5.87,5.87,0,0,0-7.33,3.65,4.78,4.78,0,0,0,4.57,6.3,2.4,2.4,0,0,0,.64-4.69Z"/><path d="M55.18,21.6c2.8-.27,5.5-1.38,8.16-2.25,3.09-1,6.35-1.75,9.27-3.17,2.11-1,1.19-4.91-1.25-4.6a47.42,47.42,0,0,0-10,2.91c-2.36.86-5.91,1.7-7.53,3.75-.93,1.17-.5,3.54,1.39,3.36Z"/><path d="M57.77,29c2.94,1.07,7-1.74,9.43-3.18s7.09-3.46,6.8-6.72a2.16,2.16,0,0,0-1.49-2c-2.88-1.05-6.26,2.62-8.57,4-2.53,1.55-6.25,2.75-7.42,5.61A1.82,1.82,0,0,0,57.77,29Z"/><path d="M60.36,24.69c3-1.77,6.93-1.82,9.52-4.18,1.62-1.48.24-3.91-1.68-4-2.13-.15-4.34,1.11-6.15,2.14-1.57.89-3.42,1.88-4.17,3.6-.67,1.55.78,3.5,2.48,2.48Z"/><path d="M56,20.6a1.89,1.89,0,0,0,.16-1.45l-.41,1.55c-.5.27-.45.33.14.19l1-.13,1.49-.29a8.86,8.86,0,0,0,3.34-1,1.81,1.81,0,0,0-.43-3.26,9.46,9.46,0,0,0-5.21.66c-1.26.42-3.21,1.05-3.07,2.71a1.67,1.67,0,0,0,1.17,1.53,1.12,1.12,0,0,0,.31.1A1.35,1.35,0,0,0,56,20.6Z"/><path d="M53,21.32c2.26.34,4.8-.84,7-1.36,2.6-.62,6-.7,8-2.6a1.79,1.79,0,0,0-.78-2.95c-2.9-1.06-7,.87-9.79,1.76-2.17.69-5.09,1.31-5.28,4A1.22,1.22,0,0,0,53,21.32Z"/><path d="M65.61,18.88c.16-.22,1.4-.41,1.62-.46.61-.15,1.44-.2,2-.41l.67,0c.44-1.27.38-1.68-.19-1.23l-.4.21q-1,.15-.06.27l1,1.37c-.1-.3.46-.81.68-1a.83.83,0,0,1,.49-.37c.5-.16.25-.34-.74-.56.09,0-.46,1-.39.94s-1.37,1.22-.1.87c.1,0,.54-1.33.65-1.47s1.4-1.27.4-.94c-.25.09-.54.55-.86.68a11.3,11.3,0,0,1-1.85.42c-2.23.51-2.26,4.06,0,4.55,2.93.63,6.27-.8,7.19-3.83s-.88-5.83-4.05-5.59c-2.77.2-4.73,2.55-5.51,5.06-.93,3,1.15,5.95,4.41,5.25A5.92,5.92,0,0,0,75.31,17a4.08,4.08,0,0,0-5.32-4c-2.37.76-4.71,3.84-4.23,6.37.62,3.3,4.75,2.63,6.76,1.15,2.79-2.07,2.38-6.24-1.3-6.93-3.13-.58-7.54.92-8.78,4-.79,2,2.11,2.77,3.17,1.34Z"/><path d="M71.52,16.18c1-.79.46,1.11.36,1.27a3.1,3.1,0,0,1-1.57,1c-1.24.56-2.55,1-3.8,1.53-2.34,1-5,2.64-6.32,4.86a1.51,1.51,0,0,0,1.29,2.26c3.32-.37,6.42-2.25,9.56-3.32,2.6-.89,5.16-2.08,6-5a5.88,5.88,0,0,0-2.45-6.64,4.37,4.37,0,0,0-6,1.75c-1.12,2,1.33,3.47,2.91,2.25Z"/><path d="M60.38,27.81a40,40,0,0,0,12.31-5.53L69.85,18.6c-1.88,2.33-5,2.78-7.58,4-2.25,1.07-1,4.44,1.22,4.48,3.72.07,7.45-2.54,10.6-4.26,2.34-1.26.76-5.1-1.81-4.31a25.33,25.33,0,0,0-4.55,2c-1.35.74-2.64,1.72-4.24,1.74l1.21,4.48c2.93-1.51,6.13-2.4,8.46-4.85a2.35,2.35,0,0,0-2.84-3.68A113.37,113.37,0,0,0,59.2,25a1.54,1.54,0,0,0,1.18,2.8Z"/><path class="cls-3" d="M73.82,19.5a2.49,2.49,0,0,0,.35-1.13,1.14,1.14,0,0,0,0-.45c-.05-.32-.05-.36,0-.11a4.11,4.11,0,0,0-.57-1.59,1.66,1.66,0,0,0-2.83,0,2.91,2.91,0,0,0,.16,3.66,1.88,1.88,0,0,0,2.93-.38Z"/><path class="cls-3" d="M73.22,19a6.3,6.3,0,0,0,.53-1.53c0-.13,0-.13,0,0,0-.09.09-.19.14-.28A2.33,2.33,0,0,1,74,17a1.1,1.1,0,0,1-1,.51l-1-.29a1.1,1.1,0,0,1-.56-1.2c0-.14,0-.1,0,.13l-.12.49a2.74,2.74,0,0,1-.13.53l.29-.46a1.12,1.12,0,0,1,1.29-.36,2.31,2.31,0,0,0-2.37.81,2.22,2.22,0,0,0-.17,2.5,2.7,2.7,0,0,0,3.07,1.24,3.29,3.29,0,0,0,2.12-2.1c.43-1.27.52-3.23-.32-4.33a2.72,2.72,0,0,0-2.19-1.13,2.94,2.94,0,0,0-2.32,1.4A4.13,4.13,0,0,0,70,19a1.87,1.87,0,0,0,3.2,0Z"/><path d="M38.06,41c-1.58-.38-3.23-1.16-3.55-2.94-.37-2,1.4-3.2,3.21-3.24s3.83,1,4.25,2.75C42.54,39.91,40,40.78,38.2,41c-2.16.26-3.62-.13-3.48-2.55.09-1.51.44-3.35,2-3.92a7.9,7.9,0,0,1,5,.34A3.65,3.65,0,0,1,43,40.38c-1.74,2-7.91,2.26-8.74-.92s5.27-6.8,6.82-3.64A3,3,0,0,1,38.88,40c-.75.14-2.24.07-2.56-.82-.49-1.37,1.25-1,1.94-1.41a8.05,8.05,0,0,1-1.75.54c.1.19,1.48-.85,1.73-1A2.86,2.86,0,0,1,39.68,37,.63.63,0,0,0,39,37c-.84.12-.66.62.54,1.49.54-.41.54-.59,0-.53l-1.2-1.57c.24.61-.66.72-.79,1.22-.53.28-.47.49.17.63s.71.45-.05.8l-2.07-.27.58.28-1.23-1.6a7.31,7.31,0,0,1,.12,2.24c-.12,3.44,5.28,3.45,5.34,0,0-2.28,0-5.2-2.74-5.85-2.54-.59-4.37,1.61-4.84,3.86a4.77,4.77,0,0,0,2.73,5.61c2.62,1,5.11-1,6.63-2.94,1.4-1.78,2.26-4.26.72-6.25s-4.48-1.93-6.4-.45c-4,3.11-2.94,10,2.95,8.86,4.55-.86,8.59-6.85,3.47-10-4.32-2.66-11.27.95-11.83,5.89-.7,6.18,7.26,6.3,10.68,3.24a5.26,5.26,0,0,0,1.42-6.32c-1.26-2.31-4-2.82-6.4-2.49-5.33.74-8,6.78-3.7,10.7,3.69,3.39,10.75,1.81,12.53-2.93S45,30.5,39.8,29.79c-4.89-.67-10,2.39-10.94,7.39C26.54,49.36,48.17,50.8,48.58,38.91c.2-6-4.07-9.53-9.79-9.89-5.93-.37-9.17,3.84-9.51,9.42-.43,7,6.3,9.16,12,7.19a7.74,7.74,0,0,0,2.89-13c-3.69-3.72-10.79-4-13.82.7-3.63,5.7,1.06,11.88,7,12.59,2.84.34,3.41-4.32.67-5Z"/><path class="cls-3" d="M41.21,39.64a3.33,3.33,0,0,0-.35-2.45,1.13,1.13,0,0,0-.13-.27A1,1,0,0,1,40.78,38a1.16,1.16,0,0,1-.35,1.07,1.51,1.51,0,0,1-.7.41,1.66,1.66,0,0,1-1.59-.41,1.46,1.46,0,0,1-.36-.61c0-.42,0-.5,0-.25l0-.37q.24-.48.06-.15c.38-.54,0,0-.13.1a2.24,2.24,0,0,0-.18,2.93,2.27,2.27,0,0,0,2.88.57,3.58,3.58,0,0,0,2-3.21,3.42,3.42,0,0,0-2.36-3.28,3.21,3.21,0,0,0-4.05,4,4.06,4.06,0,0,0,.45,1c.15.24.13.16-.05-.24a1.83,1.83,0,0,0,.32.71,2.51,2.51,0,0,0,2.44,1.17,2.47,2.47,0,0,0,2-1.76Z"/><path class="cls-3" d="M40.13,39.5c-.17-.48-.59-1-.7-1.43.07.22,0-.35,0-.21,0-.13-.13.07-.24,0s.3.22.16.08c.09.09.13,0,.11.33,0,.11,0,.22,0,.33s0,.2,0,.05l.84-.89c-.28.09-.35.11-.21,0a.19.19,0,0,1,.19,0L40,37.72c.36.2-.38-.29-.07,0s-.12-.16-.19-.28-.24-.63-.13-.31A4.21,4.21,0,0,0,38,35a2.32,2.32,0,0,0-2.77.36C33.7,36.63,34,38.79,35,40.38a5.75,5.75,0,0,0,4.31,2.83,4.91,4.91,0,0,0,4.21-1.57,5.3,5.3,0,0,0,.82-5c-1-3.37-5.43-5-8.11-2.55a5,5,0,0,0-1.45,4.33C35,40,36,41.77,37.61,42c1.39.22,3.11-.89,2.52-2.52Z"/></g></g></svg>