<svg xmlns="http://www.w3.org/2000/svg" width="50.45" height="81.62" viewBox="0 0 50.45 81.62"><defs><style>.cls-1{fill:#b21106;}.cls-2{fill:#720805;}.cls-3{fill:#22b573;}</style></defs><title>armor-1-leg-l-2</title><g id="Layer_2" data-name="Layer 2"><g id="Layer_17" data-name="Layer 17"><path class="cls-1" d="M28.82,21.68c.2-.34,1.76-3.26,2.25-3.27l-2.6-1.08L29,18,28,15.39c.14,1.53-1.19,3.07-2.11,4.11l5.95,4.59c.89-1.59,2.8-4.34,4.93-4.47L34,18.51c-1.24-1.13-1.4.56-2.7.84l3,.39.47.52.4,3,.17-.59-7.19.94c1.89-2.69,1.58-3.84-.91-3.45a17.27,17.27,0,0,1-2.73-.76l-2,7.26a10.33,10.33,0,0,1,4.23,1.37l1.84-6.77A17.49,17.49,0,0,1,22.54,21l2.59,4.56c1-4.35,1.75-8.73,2.29-13.15.4-3.28.19-6.54-3.17-8.12l-3,7.08c3,.64,5.39,2.52,8.61,2.8A70.6,70.6,0,0,0,41.77,14L38,11.13c-.23-1.26-1.85,1.81-2.1,2.31-.72,1.43-.72,3-1.32,4.49C33.18,21.21,29,21,25.8,21.56c-3.93.65-4,7.35,0,8,5.31.83,11.42.78,15-3.82,3.75-4.84,5.58-10.64,6.33-16.64.64-5.11-7.46-5.1-8,0a25.36,25.36,0,0,1-3.14,9.62C34,22.06,31.81,22.29,28,21.56v8c4.74-.83,10.42-1.61,13.06-6.23,1.28-2.23,1.14-4.9,2.43-7.08,1.57-2.69,2.69-3.78,2.07-7.17a3.94,3.94,0,0,0-3.79-2.89,71.35,71.35,0,0,1-10.64.31c-2.85-.18-5-2-7.81-2.54-4-.83-7.21,5.12-3,7.08-.61-.28-1,5.26-1.12,5.77-.34,2.29-.77,4.57-1.23,6.84-.38,1.87.52,4.12,2.59,4.56a25.31,25.31,0,0,0,9.06.26c3.29-.45,3.26-5.17.86-6.65a16.87,16.87,0,0,0-5.9-2.35,3.77,3.77,0,0,0-2,7.26c3.07,1.05,7.74,2.37,10.75.36,2.58-1.73,3-4.74,1.68-7.38-1.61-3.2-6.2-2.07-7.19.94A4.92,4.92,0,0,0,33.44,27c3.7-.6,7.38-5,7.76-8.63s-2-6.89-5.92-6.17c-4.33.81-7.94,4.4-10,8.11s3,7.91,5.94,4.58c2.7-3.05,6.65-9.17,2.47-12.72C29.09,8.24,24.54,14.56,23,18.26c-1.66,3.89,3.57,7.29,5.86,3.42Z"/><path class="cls-1" d="M24,13.15a6.34,6.34,0,0,0,.31-1.79,3.3,3.3,0,0,0-.95-2.73,3,3,0,0,0-4.13,0,3.34,3.34,0,0,0-1,2.73,6.71,6.71,0,0,0,.3,1.79,2.91,2.91,0,0,0,2.72,2.07A3,3,0,0,0,24,13.15Z"/><path class="cls-2" d="M16.3,14.79a19.57,19.57,0,0,0-.42-3.51,3.09,3.09,0,0,0-6.07.82,22.07,22.07,0,0,0,.52,3.5,3,3,0,0,0,6-.81Z"/><path class="cls-3" d="M14.71,70.92a71.92,71.92,0,0,0,.68-19.33c-.29-3.84-6.19-5.21-7.12-1C6.49,58.8,3.12,72.89,10.63,79.18s14.44-.7,16.37-8.12a4.34,4.34,0,0,0-5.28-5.28c-1.49.36-4.88,1.67-5.31,3.43-.67.45-.53.83.4,1.15,1.1,1.21,1.25.81.45-1.18.51-1.85.5-3.24,1.63-5l-7.64-1a47.17,47.17,0,0,1,1.12,10.11h8.34c-.22-5.21-.33-10.7,1.77-15.59l-7.63-2.07a43.81,43.81,0,0,1-1.46,12.89l8.27,1.12a25.79,25.79,0,0,1,3.6-12l-7.76-2.1A112.84,112.84,0,0,1,16.88,69h8.47a63,63,0,0,1,2.83-18.5C29.9,45.13,32.38,40.3,33,34.6H24.69c.23,5.78.83,14.6-5.75,17.33l4.83,2.74a23.93,23.93,0,0,1,3.17-17.6l-7.11-4.16c-3,6-6.41,11.69-10,17.35L18,52.45a28.2,28.2,0,0,1,2.17-13.3l-8.3-2.29a118.18,118.18,0,0,1-5,17h8.36a48.7,48.7,0,0,1-.61-13.58c.42-4.87-6.9-5.48-8.25-1.12A56.62,56.62,0,0,0,4.85,67.26L13.06,65a157.47,157.47,0,0,1-2.9-19.8C9.76,39.52,8.69,31.14,14.58,28L8.36,24.38c-.06,4.48-.13,9-.11,13.44h8.49a18.08,18.08,0,0,1,.13-4.35L10.67,36a33.81,33.81,0,0,1,7.07,5L21.85,34a34.43,34.43,0,0,1-9.61-4.09l-.92,7C15.49,35.48,18.46,39.28,21,42c3.46,3.63,8.64-1.72,5.45-5.44-4.49-5.22-10-9.1-17.2-7-3.36,1-3.53,5.15-.91,7a37.14,37.14,0,0,0,11.24,5.61c4,1.13,7.22-4.15,4.11-7.06a42.63,42.63,0,0,0-8.79-6.36c-2.14-1.16-5.79-.3-6.2,2.52a37.39,37.39,0,0,0-.48,6.6c.17,5.44,8.46,5.48,8.49,0,0-4.48,0-9-.12-13.44a4.17,4.17,0,0,0-6.21-3.56C3.49,24.72,1.84,32.24,2,39.68A148.54,148.54,0,0,0,4.85,67.26C6,72.63,14.15,70.35,13.06,65a45.49,45.49,0,0,1,1.4-23.63L6.21,40.25a57.12,57.12,0,0,0,.65,15.88c.81,4.6,7,3.59,8.36,0a130.65,130.65,0,0,0,4.91-17c1-4.48-5.87-8-7.87-3.32a35,35,0,0,0-3,16.62,4.39,4.39,0,0,0,8.11,2.2,167.9,167.9,0,0,0,9.58-17.58c2.24-4.72-4.47-8.83-7.11-4.16A33.47,33.47,0,0,0,16.2,56.76c.39,1.89,2.95,3.53,4.83,2.74,10.25-4.32,12-14.78,11.93-24.9-.06-5.43-7.7-5.17-8.27,0C24,40.54,20.6,46,19.08,51.77A68.34,68.34,0,0,0,16.88,69c0,5.53,8,5.35,8.47,0a132.39,132.39,0,0,0,.47-13.51,4.19,4.19,0,0,0-7.75-2.1,35.16,35.16,0,0,0-4.83,16.25c-.26,4.77,7.08,5.66,8.27,1.12A50.07,50.07,0,0,0,23,55.65c-.15-3.66-5.9-6.07-7.62-2.06-2.77,6.43-3,12.82-3,19.72,0,5.39,8.15,5.36,8.34,0A45,45,0,0,0,19.31,61c-.88-3.63-5.78-3.93-7.64-1-2.85,4.49-4.18,11.47-.58,16a6.06,6.06,0,0,0,5.69,2.2c3.13-.42,4.46-3.37,7.23-4.1l-5.28-5.28c-.3,1.25-.61,4.31-2.45,4.35-2,0-2-5-2-6a74.5,74.5,0,0,1,1-14.54l-7.12-1c.72,6.18.66,12.34.81,18.55.08,3.17,5.11,4.14,5.76.78Z"/><path d="M14.67,29.19c2.28,3.48,6.45,4.58,10.4,5.05,4.41.52,10.67.88,14.09-2.35a2.22,2.22,0,0,0-1-3.68c-3.26-1.06-6.86.16-10.27.1a22.35,22.35,0,0,1-9.83-2.54c-2.08-1-4.92,1.14-3.42,3.42Z"/><path d="M17.13,28.65c2.8-2.78,2.21-6.95,2.25-10.62.07-5.18.47-10.15.84-15.29.12-1.67-2.4-2.84-3.49-1.45-2.32,3-2.42,6.23-2.41,9.92,0,4.47,1.41,10.8-.38,15-.86,2,1.42,4.22,3.19,2.47Z"/><path d="M18.67,4.88C28.09,6.1,38.52,10.43,47.9,6.44c1.7-.72,1.17-3.51-.5-3.88C42.75,1.54,37.76,2.38,33,2S23.39,0,18.67,0c-3.23,0-3,4.48,0,4.88Z"/><path d="M36.08,31.32l.29.47a2.12,2.12,0,0,0,2.33,1c4.58-1.27,7.8-7.54,9.43-11.58,2.09-5.2,3.1-11.23,1.62-16.72a2.5,2.5,0,0,0-4.88.66c0,4.43.12,8.59-1.29,12.87-1.08,3.26-3.72,9.53-6.95,11.25a1.55,1.55,0,0,0-.55,2.1Z"/><path d="M10,20c1.92,1.18,5.45,2.28,7.54,1.13a1.72,1.72,0,0,0,0-2.94,6.9,6.9,0,0,0-3-.9c-1-.2-2-.6-3.06-.81A1.93,1.93,0,0,0,10,20Z"/><path d="M11.59,19.91c.55-2.1.12-4.29.18-6.43.06-2,1.07-4.28.36-6.14a1.41,1.41,0,0,0-2-.83c-4,1.77-3,10.7-1.35,13.77a1.58,1.58,0,0,0,2.85-.37Z"/><path d="M8.52,8.93c2,2.32,7.28,2.8,9.34.4.69-.81.6-2.53-.72-2.71a16.8,16.8,0,0,0-3.87.3c-1.31.11-2.61-.13-3.92,0a1.19,1.19,0,0,0-.83,2Z"/><path d="M7.06,72.5c1.48-4.45.58-9.69.25-14.31C7,53.4,6.45,48.62,6.16,43.83c-.29-4.5-.37-9.13,1-13.48,1.26-4,3.94-6.76,6.27-10.13,1.09-1.57-.7-3.64-2.41-3.15C2.47,19.51.12,30.85,0,38.52-.08,44.4.69,50.35,1.27,56.2c.53,5.32.49,11.91,3.07,16.66a1.51,1.51,0,0,0,2.72-.36Z"/><path d="M25.2,74.81c2.53-3.6,3.35-7.66,4.27-11.9a63.56,63.56,0,0,1,5.27-14.68c2.49-5.14,6-14.88-.55-18.5a1.93,1.93,0,0,0-2.87,1.65c-.06,3.87,1,6.81-.25,10.69-1.18,3.5-3.23,6.65-4.59,10.08C23.8,59,23.11,66.82,22.43,74.06c-.14,1.6,2,1.82,2.77.75Z"/></g></g></svg>