<svg xmlns="http://www.w3.org/2000/svg" width="54.63" height="35.79" viewBox="0 0 54.63 35.79"><defs><style>.cls-1{fill:#22b573;}</style></defs><title>armor-1-foot</title><g id="Layer_2" data-name="Layer 2"><g id="Layer_18" data-name="Layer 18"><path class="cls-1" d="M7.21,23.12,7,23,4.36,25.64a127.55,127.55,0,0,1,14.76,2.8c3.46.93,4.84-4.24,1.47-5.33A68.15,68.15,0,0,0,8.32,20.6v5.31a21.47,21.47,0,0,1,14-1.07L21.06,20.2c-2.66,2.25-8-.23-10.83.13-1-.39-1.86,0-2.6,1.15a11.43,11.43,0,0,1,2.83-.6c2.12-.29,5-.55,6.92.53L16,19c-.14-1.13-4.15-1-4.89-.88L9.92,19.25a15.85,15.85,0,0,1,2.34-.54q3.83-.18-.95-5.24l-.16-.34c.48-.22,4.29.94,3.89-.54-.3-1.15-3.09,1.66-1.46-1A7.68,7.68,0,0,1,16,10.05L14.87,8.14c1.58.09,2,.53,1.21,1.34q-1.14,1.86.67-1.31c1.46-1.57,7.94-1.93,5,2.26l5.41,2.28c.69-5,.08-10-5.37-11.85C16.78-.87,10.36.15,8.07,5.44c-1,2.41,1.41,6.23,4.17,4.17,1.83-1.37,3.87-4,6.33-3.87,3.51.21,5,4.17,5.61,7,.79,3.54,5.79,1.94,5.3-1.46-.66-4.61-3.22-9-7.79-10.66-5.32-1.94-8.42.74-12.53,3.69l4.48,3.44c.66-1.59,4.07-2,5.52-1.55,2.29.69,2.66,2.71,2.31,4.9a3,3,0,0,0,5.41,2.28c3.66-5-.07-11.28-5.86-12C16.05.84,10.24,5,10.2,10.3s6.29,7.32,10.14,4.22C24.79,10.94,22.39,5.93,18,3.8,13.46,1.59,6.7,4.08,7.6,10c.92,6.05,8.57,7.8,13,4.2,4.8-3.86.32-9.08-4.61-9s-12.26,4.2-8.64,10c2.23,3.6,9.34,4.5,12.26,1.25,4.41-4.94-3.05-8.71-7.13-8.88-4.59-.19-11.09,3.2-8.06,8.73,2.25,4.1,10.1,4.26,12.15-.13,2.48-5.32-5.29-7.83-8.86-5.14-4.23,3.17-2.21,10.21,2.81,11.15,4.06.76,10.92-4.14,6.67-8.27C14,10.77,4.58,13.08,3.88,17.77c-1.06,7.05,10.81,7.22,15,5.34,1.87-.84,3.47-2.7,2.69-4.89-1.05-2.92-5.61-3.1-8.19-3.18-2.85-.08-7.67,0-9.65,2.45-1.69,2.05-.81,4.82,1,6.44,4.52,4,15.81,4.18,20.25.19a2.8,2.8,0,0,0-1.22-4.64A26.82,26.82,0,0,0,6.86,20.6c-2.14.87-3.05,4.9,0,5.31a67.23,67.23,0,0,1,12.26,2.53l1.47-5.33A70,70,0,0,0,4.92,21.46a2.14,2.14,0,0,0-1.83,3.2,4.13,4.13,0,0,0,1.69,1.6c1.9,1,4.27-1.64,2.43-3.14Z"/><path class="cls-1" d="M19.74,20C23.1,18.43,26.5,17,30,15.7l-2.8-4.81A63.85,63.85,0,0,1,19,17.65l3.58,4.64a33.28,33.28,0,0,1,7.51-4.6l-3.38-4.37a65.49,65.49,0,0,1-7.49,7.5c-2.67,2.29.73,6.1,3.59,4.65,2.61-1.32,5.19-2.71,7.78-4.08L26.32,18.1C25.77,20.25,20.65,23,19,24.31c-2.41,2,.19,5.94,3,5.12,3.64-1.06,7.24-2.17,10.84-3.37L30.06,21.3a9.73,9.73,0,0,1-8.16,1.89l-.76,5.62c8.1-.07,18.21,6.64,24.85-1.22a2.87,2.87,0,0,0-2.77-4.75c-3,.61-6.12,2.1-9.16,2.21-1.36,0-2.54-.87-1.43.64-.26-.35,5.59,2.48,6.24,2.95l2.78-4.75c-1.3-.79-5.72-4.56-6.69-4.54-.7-.81-.84-.68-.45.4a1.06,1.06,0,0,0,.86,1.34c1.06,1.17,2.65,2,3.76,3.23l2.73-4.68a15.79,15.79,0,0,1-10.17-7.35L29.28,16.5a8.72,8.72,0,0,1,8.54,4.67L40.24,17c-.74,0-5.74-.8-5.18-1.27,1-.86,8.18,1.38,4.81,4L44.81,21l-2.53-6.28-2.79,3.66c5.23-.57,4.65,5.28,3.11,8.39l5.48,1.48c-.22-5.07,1.24-13.16-4-16.2L42.73,17.2c4.18.47.37,7-.37,8.41a2.64,2.64,0,0,0,4.56,2.66c3.9-5.83,5.14-15.73-4.19-16.56-2.77-.25-3.67,3.86-1.39,5.12s.92,9.36.86,11.45c-.09,2.84,4.17,4.12,5.48,1.49,3.45-6.92,1.7-18-8.19-17.15-1.69.16-3.51,1.76-2.79,3.67l2.4,6.32c.6,1.57,2.69,3,4.35,1.77a7.06,7.06,0,0,0,2.28-9.18c-2-4.13-7.42-5.53-11.68-5-3.39.44-6.5,3.1-5.23,6.8,1.48,4.29,7.53,5.49,11.42,5.55a2.82,2.82,0,0,0,2.42-4.21,14.68,14.68,0,0,0-13.38-7.44,2.83,2.83,0,0,0-2.42,4.21A19.27,19.27,0,0,0,40.37,25c2.66.53,4.78-2.58,2.72-4.68-2.74-2.8-10.21-8.7-13.79-3.89-3.79,5.11,6.15,10.43,9.57,12.17a2.75,2.75,0,0,0,2.78-4.75c-3.18-2.14-7-4.4-11-3.39-2.58.66-4.9,2.79-4.4,5.64C27.62,34,40.33,29,44.73,28.33L42,23.57c-5.33,5.15-14.4-.56-20.82-.48-3.11,0-4,5-.76,5.62a15.84,15.84,0,0,0,13.13-2.94c2.44-1.86,1.16-6-2.19-5.2-3.68.91-7.32,1.9-10.95,3l3,5.12c3-2.49,7.5-5.1,8.58-9a3,3,0,0,0-4.28-3.29c-2.61,1.32-5.24,2.63-7.83,4L23.41,25a72.84,72.84,0,0,0,7.24-7.76c1.51-1.86.17-5.84-2.71-4.65a48.9,48.9,0,0,0-8.94,5c-3.1,2.13-.24,7.19,3,5.1A48.69,48.69,0,0,0,31.25,15C33,13,31.29,9,28.45,10.15c-3.91,1.55-7.77,3.17-11.57,5-3.29,1.55-.42,6.4,2.86,4.88Z"/><path d="M5.09,25.3c1.09-3.72.47-7.68,1.58-11.42C7.85,9.92,11,8.27,12.94,5c.78-1.32-.2-3.57-1.93-3.36C1.26,2.79-1.84,17.54,1,25.3a2.13,2.13,0,0,0,4.07,0Z"/><path d="M26.2,4.43l-.42.64a2.24,2.24,0,0,0,0,2.25c2.54,4.72,7.67,5,12.52,4.89,4.39-.14,8,.06,9.38,4.87,1,3.44.88,7.27.73,10.79-.17,4,5.76,3.86,6.09,0,.52-5.95-.38-15.42-5.83-19.19-3.11-2.16-6.77-2-10.37-1.8-3.12.18-5.51.55-8.24-1.36-1.1-.77-1.14-1.29-2.47-1.65a1.26,1.26,0,0,0-1.39.56Z"/><path d="M1.54,28.32c5.54,3.8,15.94,5.53,21.47.95,1.52-1.26.15-3.45-1.48-3.58-3-.23-5.93.72-9,.59A34,34,0,0,1,3.3,24.14c-2.59-.86-3.8,2.78-1.76,4.18Z"/><path d="M19.61,29.45c4.23,4.82,12.62,6.37,18.75,6.34,4.5,0,13.64-.78,14.53-6.36a1.82,1.82,0,0,0-1.22-2.15c-2.21-.77-3.4,0-5.57.73a27.72,27.72,0,0,1-8.54,1.62c-5.85.09-11.16-2.76-16.86-2.82a1.56,1.56,0,0,0-1.09,2.64Z"/></g></g></svg>