<svg id="Layer_1" data-name="Layer 1" xmlns="http://www.w3.org/2000/svg" viewBox="0 0 500 500"><defs><style>.cls-1{fill:#77573f;}.cls-2,.cls-4{fill:none;stroke:#000;stroke-miterlimit:10;}.cls-2{stroke-width:9px;}.cls-3{fill:#e50000;}.cls-4{stroke-width:8px;}</style></defs><title>23Artboard 1</title><path d="M453.93,261.45c-5.93.94-11.93,2.44-17.6-.6-3.33-1.79-5.49-5.18-1.28-7.56,2.57-1.45,6.23-1.85,9.1-1.84,3.09,0,16.64,2.88,9.22,7-3.95,2.18-9.68,2.8-14.11,2.73a14.94,14.94,0,0,1-7.2-1.59,6.44,6.44,0,0,1-2.38-1.87c-1.48-3,1.42-3,3.18-3.37,5.67-1.26,12.35-2.07,18.13-.94,2.05.4,5,1.12,5.33,3.49.41,2.94-3.7,4.64-6,5.35-6.65,2.07-12.4.17-18.88-1.09-2.26-.44-4.44,2.39-2.43,4.18,6.48,5.77,17.51,6.21,25.31,3.18,6.2-2.42,11.88-8.86,8.43-15.72s-12.89-7.36-19.56-7.19-20.95.28-22,9.37c-.91,8.14,8.53,12.83,15.25,13.51,7,.7,16.3-.55,22.16-4.65s6.1-11.37.37-15.69c-6.93-5.22-17.72-5.48-25.62-2.6-9.22,3.37-12,12.93-4.36,19.81,6.79,6.14,19.86,7.45,27.39,2.05a3.27,3.27,0,0,0-2.51-5.94Z"/><path d="M388.93,261.45c-5.93.94-11.93,2.44-17.6-.6-3.33-1.79-5.49-5.18-1.28-7.56,2.57-1.45,6.23-1.85,9.1-1.84,3.09,0,16.64,2.88,9.22,7-3.95,2.18-9.68,2.8-14.11,2.73a14.94,14.94,0,0,1-7.2-1.59,6.44,6.44,0,0,1-2.38-1.87c-1.48-3,1.42-3,3.18-3.37,5.67-1.26,12.35-2.07,18.13-.94,2.05.4,5,1.12,5.33,3.49.41,2.94-3.7,4.64-6,5.35-6.65,2.07-12.4.17-18.88-1.09-2.26-.44-4.44,2.39-2.43,4.18,6.48,5.77,17.51,6.21,25.31,3.18,6.2-2.42,11.88-8.86,8.43-15.72s-12.89-7.36-19.56-7.19-20.95.28-22,9.37c-.91,8.14,8.53,12.83,15.25,13.51,7,.7,16.3-.55,22.16-4.65s6.1-11.37.37-15.69c-6.93-5.22-17.72-5.48-25.62-2.6-9.22,3.37-12,12.93-4.36,19.81,6.79,6.14,19.86,7.45,27.39,2.05a3.27,3.27,0,0,0-2.51-5.94Z"/><path d="M323.93,261.45c-5.93.94-11.93,2.44-17.6-.6-3.33-1.79-5.49-5.18-1.28-7.56,2.57-1.45,6.23-1.85,9.1-1.84,3.09,0,16.64,2.88,9.22,7-3.95,2.18-9.68,2.8-14.11,2.73a14.94,14.94,0,0,1-7.2-1.59,6.44,6.44,0,0,1-2.38-1.87c-1.48-3,1.42-3,3.18-3.37,5.67-1.26,12.35-2.07,18.13-.94,2.05.4,5,1.12,5.33,3.49.41,2.94-3.7,4.64-6,5.35-6.65,2.07-12.4.17-18.88-1.09-2.26-.44-4.44,2.39-2.43,4.18,6.48,5.77,17.51,6.21,25.31,3.18,6.2-2.42,11.88-8.86,8.43-15.72s-12.89-7.36-19.56-7.19-20.95.28-22,9.37c-.91,8.14,8.53,12.83,15.25,13.51,7,.7,16.3-.55,22.16-4.65s6.1-11.37.37-15.69c-6.93-5.22-17.72-5.48-25.62-2.6-9.22,3.37-12,12.93-4.36,19.81,6.79,6.14,19.86,7.45,27.39,2.05a3.27,3.27,0,0,0-2.51-5.94Z"/><path d="M258.93,261.45c-5.93.94-11.93,2.44-17.6-.6-3.33-1.79-5.49-5.18-1.28-7.56,2.57-1.45,6.23-1.85,9.1-1.84,3.09,0,16.64,2.88,9.22,7-4,2.18-9.68,2.8-14.11,2.73a14.94,14.94,0,0,1-7.2-1.59,6.44,6.44,0,0,1-2.38-1.87c-1.48-3,1.42-3,3.18-3.37,5.67-1.26,12.35-2.07,18.13-.94,2.05.4,5,1.12,5.33,3.49.41,2.94-3.7,4.64-6,5.35-6.65,2.07-12.4.17-18.88-1.09-2.26-.44-4.44,2.39-2.43,4.18,6.48,5.77,17.51,6.21,25.31,3.18,6.2-2.42,11.88-8.86,8.43-15.72s-12.89-7.36-19.56-7.19-21,.28-22,9.37c-.91,8.14,8.53,12.83,15.25,13.51,7,.7,16.3-.55,22.16-4.65s6.1-11.37.37-15.69c-6.93-5.22-17.72-5.48-25.62-2.6-9.22,3.37-12,12.93-4.36,19.81,6.79,6.14,19.86,7.45,27.39,2.05a3.27,3.27,0,0,0-2.51-5.94Z"/><path d="M193.93,261.45c-5.93.94-11.93,2.44-17.6-.6-3.33-1.79-5.49-5.18-1.28-7.56,2.57-1.45,6.23-1.85,9.1-1.84,3.09,0,16.64,2.88,9.22,7-4,2.18-9.68,2.8-14.11,2.73a14.94,14.94,0,0,1-7.2-1.59,6.44,6.44,0,0,1-2.38-1.87c-1.48-3,1.42-3,3.18-3.37,5.67-1.26,12.35-2.07,18.13-.94,2,.4,5,1.12,5.33,3.49.41,2.94-3.7,4.64-6,5.35-6.65,2.07-12.4.17-18.88-1.09-2.26-.44-4.44,2.39-2.43,4.18,6.48,5.77,17.51,6.21,25.31,3.18,6.2-2.42,11.88-8.86,8.43-15.72s-12.89-7.36-19.56-7.19-21,.28-22,9.37c-.91,8.14,8.53,12.83,15.25,13.51,7,.7,16.3-.55,22.16-4.65s6.1-11.37.37-15.69c-6.93-5.22-17.72-5.48-25.62-2.6-9.22,3.37-12,12.93-4.36,19.81,6.79,6.14,19.86,7.45,27.39,2.05a3.27,3.27,0,0,0-2.51-5.94Z"/><path d="M128.93,261.45c-5.93.94-11.93,2.44-17.6-.6-3.33-1.79-5.49-5.18-1.28-7.56,2.57-1.45,6.23-1.85,9.1-1.84,3.09,0,16.64,2.88,9.22,7-4,2.18-9.68,2.8-14.11,2.73a14.94,14.94,0,0,1-7.2-1.59,6.44,6.44,0,0,1-2.38-1.87c-1.48-3,1.42-3,3.18-3.37,5.67-1.26,12.35-2.07,18.13-.94,2,.4,5,1.12,5.33,3.49.41,2.94-3.7,4.64-6,5.35-6.65,2.07-12.4.17-18.88-1.09-2.26-.44-4.44,2.39-2.43,4.18,6.48,5.77,17.51,6.21,25.31,3.18,6.2-2.42,11.88-8.86,8.43-15.72s-12.89-7.36-19.56-7.19-20.95.28-22,9.37c-.91,8.14,8.53,12.83,15.25,13.51,7,.7,16.3-.55,22.16-4.65s6.1-11.37.37-15.69c-6.93-5.22-17.72-5.48-25.62-2.6-9.22,3.37-12,12.93-4.36,19.81,6.79,6.14,19.86,7.45,27.39,2.05a3.27,3.27,0,0,0-2.51-5.94Z"/><path d="M63.93,261.45c-5.93.94-11.93,2.44-17.6-.6-3.33-1.79-5.49-5.18-1.28-7.56,2.57-1.45,6.23-1.85,9.1-1.84,3.09,0,16.64,2.88,9.22,7-3.95,2.18-9.68,2.8-14.11,2.73a14.94,14.94,0,0,1-7.2-1.59,6.44,6.44,0,0,1-2.38-1.87c-1.48-3,1.42-3,3.18-3.37,5.67-1.26,12.35-2.07,18.13-.94,2,.4,5,1.12,5.33,3.49.41,2.94-3.7,4.64-6,5.35-6.65,2.07-12.4.17-18.88-1.09-2.26-.44-4.44,2.39-2.43,4.18,6.48,5.77,17.51,6.21,25.31,3.18,6.2-2.42,11.88-8.86,8.43-15.72s-12.89-7.36-19.56-7.19-21,.28-22,9.37c-.91,8.14,8.53,12.83,15.25,13.51,7,.7,16.3-.55,22.16-4.65s6.1-11.37.37-15.69c-6.93-5.22-17.72-5.48-25.62-2.6-9.22,3.37-12,12.93-4.36,19.81,6.79,6.14,19.86,7.45,27.39,2.05a3.27,3.27,0,0,0-2.51-5.94Z"/><path class="cls-1" d="M448.38,230.8c-.3-7.23-1.44-14-1-21.33.38-6.68,1.54-13.85.4-20.47-.35-2-3.2-1.67-3.74,0-2.22,6.89-2.12,15.2-2.53,22.39-.38,6.71-.32,14.37,2.47,20.61,1,2.19,4.52,1.05,4.42-1.2Z"/><path class="cls-1" d="M383.38,230.8c-.3-7.23-1.44-14-1-21.33.38-6.68,1.54-13.85.4-20.47-.35-2-3.2-1.67-3.74,0-2.22,6.89-2.12,15.2-2.53,22.39-.38,6.71-.32,14.37,2.47,20.61,1,2.19,4.52,1.05,4.42-1.2Z"/><path class="cls-1" d="M318.38,230.8c-.3-7.23-1.44-14-1-21.33.38-6.68,1.54-13.85.4-20.47-.35-2-3.2-1.67-3.74,0-2.22,6.89-2.12,15.2-2.53,22.39-.38,6.71-.32,14.37,2.47,20.61,1,2.19,4.52,1.05,4.42-1.2Z"/><path class="cls-1" d="M253.38,230.8c-.3-7.23-1.44-14-1-21.33.38-6.68,1.54-13.85.4-20.47-.35-2-3.2-1.67-3.74,0-2.22,6.89-2.12,15.2-2.53,22.39-.38,6.71-.32,14.37,2.47,20.61,1,2.19,4.52,1.05,4.42-1.2Z"/><path class="cls-1" d="M188.38,230.8c-.3-7.23-1.44-14-1-21.33.38-6.68,1.54-13.85.4-20.47-.35-2-3.2-1.67-3.74,0-2.22,6.89-2.12,15.2-2.53,22.39-.38,6.71-.32,14.37,2.47,20.61,1,2.19,4.52,1.05,4.42-1.2Z"/><path class="cls-1" d="M123.38,230.8c-.3-7.23-1.44-14-1-21.33.38-6.68,1.54-13.85.4-20.47-.35-2-3.2-1.67-3.74,0-2.22,6.89-2.12,15.2-2.53,22.39-.38,6.71-.32,14.37,2.47,20.61,1,2.19,4.52,1.05,4.42-1.2Z"/><path class="cls-1" d="M58.38,230.8c-.3-7.23-1.44-14-1-21.33.38-6.68,1.54-13.85.4-20.47-.35-2-3.2-1.67-3.74,0-2.22,6.89-2.12,15.2-2.53,22.39-.38,6.71-.32,14.37,2.47,20.61,1,2.19,4.52,1.05,4.42-1.2Z"/><path class="cls-1" d="M439.31,252.32c2.55-3.79,3.21-8.86,4.57-13.19,1.5-4.8,3.19-9.54,4.72-14.33l-5.1-.69c1.05,9.61-1.12,19.29-4.13,28.34h5.86c-.9-5,1-11.49,2.27-16.41a1.62,1.62,0,0,0-2.68-1.56,48.61,48.61,0,0,0-10.76,18.2c-.8,2.45,1.68,4.41,3.93,3.93a4,4,0,0,0,2.9-2,2.24,2.24,0,0,0-.8-3,11.74,11.74,0,0,1-1.34-.75l1.46,3.6a58.73,58.73,0,0,1,7.13-17.95l-2.94-1.24c-1.7,5.26-2.43,11.54-4.72,16.54a3,3,0,1,0,5.55,2.34c3.63-9.83,3.95-19.65,3.47-30-.12-2.46-3.55-3.67-4.84-1.31a94.81,94.81,0,0,0-6.05,13.68c-1.6,4.48-3.92,9.69-3.45,14.5a2.68,2.68,0,0,0,4.95,1.34Z"/><path class="cls-1" d="M374.31,252.32c2.55-3.79,3.21-8.86,4.57-13.19,1.5-4.8,3.19-9.54,4.72-14.33l-5.1-.69c1.05,9.61-1.12,19.29-4.13,28.34h5.86c-.9-5,1-11.49,2.27-16.41a1.62,1.62,0,0,0-2.68-1.56,48.61,48.61,0,0,0-10.76,18.2c-.8,2.45,1.68,4.41,3.93,3.93a4,4,0,0,0,2.9-2,2.24,2.24,0,0,0-.8-3,11.74,11.74,0,0,1-1.34-.75l1.46,3.6a58.73,58.73,0,0,1,7.13-17.95l-2.94-1.24c-1.7,5.26-2.43,11.54-4.72,16.54a3,3,0,1,0,5.55,2.34c3.63-9.83,3.95-19.65,3.47-30-.12-2.46-3.55-3.67-4.84-1.31a94.81,94.81,0,0,0-6.05,13.68c-1.6,4.48-3.92,9.69-3.45,14.5a2.68,2.68,0,0,0,4.95,1.34Z"/><path class="cls-1" d="M309.31,252.32c2.55-3.79,3.21-8.86,4.57-13.19,1.5-4.8,3.19-9.54,4.72-14.33l-5.1-.69c1.05,9.61-1.12,19.29-4.13,28.34h5.86c-.9-5,1-11.49,2.27-16.41a1.62,1.62,0,0,0-2.68-1.56,48.61,48.61,0,0,0-10.76,18.2c-.8,2.45,1.68,4.41,3.93,3.93a4,4,0,0,0,2.9-2,2.24,2.24,0,0,0-.8-3,11.74,11.74,0,0,1-1.34-.75l1.46,3.6a58.73,58.73,0,0,1,7.13-17.95l-2.94-1.24c-1.7,5.26-2.43,11.54-4.72,16.54a3,3,0,1,0,5.55,2.34c3.63-9.83,3.95-19.65,3.47-30-.12-2.46-3.55-3.67-4.84-1.31a94.81,94.81,0,0,0-6.05,13.68c-1.6,4.48-3.92,9.69-3.45,14.5a2.68,2.68,0,0,0,4.95,1.34Z"/><path class="cls-1" d="M244.31,252.32c2.55-3.79,3.21-8.86,4.57-13.19,1.5-4.8,3.19-9.54,4.72-14.33l-5.1-.69c1.05,9.61-1.12,19.29-4.13,28.34h5.86c-.9-5,1-11.49,2.27-16.41a1.62,1.62,0,0,0-2.68-1.56,48.61,48.61,0,0,0-10.76,18.2c-.8,2.45,1.68,4.41,3.93,3.93a4,4,0,0,0,2.9-2,2.24,2.24,0,0,0-.8-3,11.74,11.74,0,0,1-1.34-.75l1.46,3.6a58.73,58.73,0,0,1,7.13-17.95l-2.94-1.24c-1.7,5.26-2.43,11.54-4.72,16.54a3,3,0,1,0,5.55,2.34c3.63-9.83,4-19.65,3.47-30-.12-2.46-3.55-3.67-4.84-1.31a94.81,94.81,0,0,0-6.05,13.68c-1.6,4.48-3.92,9.69-3.45,14.5a2.68,2.68,0,0,0,4.95,1.34Z"/><path class="cls-1" d="M179.31,252.32c2.55-3.79,3.21-8.86,4.57-13.19,1.5-4.8,3.19-9.54,4.72-14.33l-5.1-.69c1.05,9.61-1.12,19.29-4.13,28.34h5.86c-.9-5,1-11.49,2.27-16.41a1.62,1.62,0,0,0-2.68-1.56,48.61,48.61,0,0,0-10.76,18.2c-.8,2.45,1.68,4.41,3.93,3.93a4,4,0,0,0,2.9-2,2.24,2.24,0,0,0-.8-3,11.74,11.74,0,0,1-1.34-.75l1.46,3.6a58.73,58.73,0,0,1,7.13-17.95l-2.94-1.24c-1.7,5.26-2.43,11.54-4.72,16.54a3,3,0,1,0,5.55,2.34c3.63-9.83,4-19.65,3.47-30-.12-2.46-3.55-3.67-4.84-1.31a94.81,94.81,0,0,0-6.05,13.68c-1.6,4.48-3.92,9.69-3.45,14.5a2.68,2.68,0,0,0,4.95,1.34Z"/><path class="cls-1" d="M114.31,252.32c2.55-3.79,3.21-8.86,4.57-13.19,1.5-4.8,3.19-9.54,4.72-14.33l-5.1-.69c1,9.61-1.12,19.29-4.13,28.34h5.86c-.9-5,1-11.49,2.27-16.41a1.62,1.62,0,0,0-2.68-1.56,48.61,48.61,0,0,0-10.76,18.2c-.8,2.45,1.68,4.41,3.93,3.93a4,4,0,0,0,2.9-2,2.24,2.24,0,0,0-.8-3,11.74,11.74,0,0,1-1.34-.75l1.46,3.6a58.73,58.73,0,0,1,7.13-17.95l-2.94-1.24c-1.7,5.26-2.43,11.54-4.72,16.54a3,3,0,1,0,5.55,2.34c3.63-9.83,4-19.65,3.47-30-.12-2.46-3.55-3.67-4.84-1.31a94.81,94.81,0,0,0-6,13.68c-1.6,4.48-3.92,9.69-3.45,14.5a2.68,2.68,0,0,0,5,1.34Z"/><path class="cls-1" d="M49.31,252.32c2.55-3.79,3.21-8.86,4.57-13.19,1.5-4.8,3.19-9.54,4.72-14.33l-5.1-.69c1,9.61-1.12,19.29-4.13,28.34h5.86c-.9-5,1-11.49,2.27-16.41a1.62,1.62,0,0,0-2.68-1.56,48.61,48.61,0,0,0-10.76,18.2c-.8,2.45,1.68,4.41,3.93,3.93a4,4,0,0,0,2.9-2,2.24,2.24,0,0,0-.8-3,11.74,11.74,0,0,1-1.34-.75l1.46,3.6a58.73,58.73,0,0,1,7.13-17.95l-2.94-1.24c-1.7,5.26-2.43,11.54-4.72,16.54a3,3,0,1,0,5.55,2.34c3.63-9.83,4-19.65,3.47-30-.12-2.46-3.55-3.67-4.84-1.31a94.81,94.81,0,0,0-6,13.68c-1.6,4.48-3.92,9.69-3.45,14.5a2.68,2.68,0,0,0,5,1.34Z"/><path class="cls-1" d="M443.38,257c1.08.06,2.15.11,3.22.24l-2-2.59c-.39,1.05-3.86.37-4.44.24a13.38,13.38,0,0,1-4.46-2.2l-.64,4.92a10.87,10.87,0,0,1,6.3-.67c.32.07,2.6.56,2.15.29.23-.74-.22-.64-1.33.31l-1,.33c-1.24.33-3.53.64-3.21-1.27.24-1.45,1.35-1.32,2.78-1.37.76,0,5.6.16,6.23,1l-.5,1.82h-1a8.81,8.81,0,0,1-3-.48c-.92-.26-3.91-1.27-3.77-2.52.08-.73,4.81.3,5.82.62a22,22,0,0,1,3.37,1.42c-.42,1.14-2.11.31-2.93,0a1.2,1.2,0,0,0-1.16,2c2.42,2.32,7,4.47,8.63-.1,1.6-4.41-4.76-5.86-7.66-6.46-2.67-.55-9-2.17-9.82,1.81-.76,3.73,3.48,6.23,6.46,7.08,3.4,1,8.53,1.45,10.22-2.5s-2.52-5.86-5.71-6.52c-3.55-.73-9.1-1.67-11.6,1.83-2.29,3.2.49,7.2,3.9,7.89,3,.61,10.87-1.49,9.75-5.85s-10.38-4.18-13.65-4c-2.11.12-3.81,3-1.9,4.59a14.82,14.82,0,0,0,11.64,3.51c2.88-.48,6.36-3.15,4.26-6.26a2.07,2.07,0,0,0-1.77-1c-1.08.08-2.14.09-3.22.1-2.43,0-2.4,3.62,0,3.75Z"/><path class="cls-1" d="M378.38,257c1.08.06,2.15.11,3.22.24l-2-2.59c-.39,1.05-3.86.37-4.44.24a13.38,13.38,0,0,1-4.46-2.2l-.64,4.92a10.87,10.87,0,0,1,6.3-.67c.32.07,2.6.56,2.15.29.23-.74-.22-.64-1.33.31l-1,.33c-1.24.33-3.53.64-3.21-1.27.24-1.45,1.35-1.32,2.78-1.37.76,0,5.6.16,6.23,1l-.5,1.82h-1a8.81,8.81,0,0,1-3-.48c-.92-.26-3.91-1.27-3.77-2.52.08-.73,4.81.3,5.82.62a22,22,0,0,1,3.37,1.42c-.42,1.14-2.11.31-2.93,0a1.2,1.2,0,0,0-1.16,2c2.42,2.32,7,4.47,8.63-.1,1.6-4.41-4.76-5.86-7.66-6.46-2.67-.55-9-2.17-9.82,1.81-.76,3.73,3.48,6.23,6.46,7.08,3.4,1,8.53,1.45,10.22-2.5s-2.52-5.86-5.71-6.52c-3.55-.73-9.1-1.67-11.6,1.83-2.29,3.2.49,7.2,3.9,7.89,3,.61,10.87-1.49,9.75-5.85s-10.38-4.18-13.65-4c-2.11.12-3.81,3-1.9,4.59a14.82,14.82,0,0,0,11.64,3.51c2.88-.48,6.36-3.15,4.26-6.26a2.07,2.07,0,0,0-1.77-1c-1.08.08-2.14.09-3.22.1-2.43,0-2.4,3.62,0,3.75Z"/><path class="cls-1" d="M313.38,257c1.08.06,2.15.11,3.22.24l-2-2.59c-.39,1.05-3.86.37-4.44.24a13.38,13.38,0,0,1-4.46-2.2l-.64,4.92a10.87,10.87,0,0,1,6.3-.67c.32.07,2.6.56,2.15.29.23-.74-.22-.64-1.33.31l-1,.33c-1.24.33-3.53.64-3.21-1.27.24-1.45,1.35-1.32,2.78-1.37.76,0,5.6.16,6.23,1l-.5,1.82h-1a8.81,8.81,0,0,1-3-.48c-.92-.26-3.91-1.27-3.77-2.52.08-.73,4.81.3,5.82.62a22,22,0,0,1,3.37,1.42c-.42,1.14-2.11.31-2.93,0a1.2,1.2,0,0,0-1.16,2c2.42,2.32,7,4.47,8.63-.1,1.6-4.41-4.76-5.86-7.66-6.46-2.67-.55-9-2.17-9.82,1.81-.76,3.73,3.48,6.23,6.46,7.08,3.4,1,8.53,1.45,10.22-2.5s-2.52-5.86-5.71-6.52c-3.55-.73-9.1-1.67-11.6,1.83-2.29,3.2.49,7.2,3.9,7.89,3,.61,10.87-1.49,9.75-5.85s-10.38-4.18-13.65-4c-2.11.12-3.81,3-1.9,4.59a14.82,14.82,0,0,0,11.64,3.51c2.88-.48,6.36-3.15,4.26-6.26a2.07,2.07,0,0,0-1.77-1c-1.08.08-2.14.09-3.22.1-2.43,0-2.4,3.62,0,3.75Z"/><path class="cls-1" d="M248.38,257c1.08.06,2.15.11,3.22.24l-2-2.59c-.39,1.05-3.86.37-4.44.24a13.38,13.38,0,0,1-4.46-2.2l-.64,4.92a10.87,10.87,0,0,1,6.3-.67c.32.07,2.6.56,2.15.29.23-.74-.22-.64-1.33.31l-1,.33c-1.24.33-3.53.64-3.21-1.27.24-1.45,1.35-1.32,2.78-1.37.76,0,5.6.16,6.23,1l-.5,1.82h-1a8.81,8.81,0,0,1-3-.48c-.92-.26-3.91-1.27-3.77-2.52.08-.73,4.81.3,5.82.62a22,22,0,0,1,3.37,1.42c-.42,1.14-2.11.31-2.93,0a1.2,1.2,0,0,0-1.16,2c2.42,2.32,7,4.47,8.63-.1,1.6-4.41-4.76-5.86-7.66-6.46-2.67-.55-9-2.17-9.82,1.81-.76,3.73,3.48,6.23,6.46,7.08,3.4,1,8.53,1.45,10.22-2.5s-2.52-5.86-5.71-6.52c-3.55-.73-9.1-1.67-11.6,1.83-2.29,3.2.49,7.2,3.9,7.89,3,.61,10.87-1.49,9.75-5.85s-10.38-4.18-13.65-4c-2.11.12-3.81,3-1.9,4.59a14.82,14.82,0,0,0,11.64,3.51c2.88-.48,6.36-3.15,4.26-6.26a2.07,2.07,0,0,0-1.77-1c-1.08.08-2.14.09-3.22.1-2.43,0-2.4,3.62,0,3.75Z"/><path class="cls-1" d="M183.38,257c1.08.06,2.15.11,3.22.24l-2-2.59c-.39,1.05-3.86.37-4.44.24a13.38,13.38,0,0,1-4.46-2.2l-.64,4.92a10.87,10.87,0,0,1,6.3-.67c.32.07,2.6.56,2.15.29.23-.74-.22-.64-1.33.31l-1,.33c-1.24.33-3.53.64-3.21-1.27.24-1.45,1.35-1.32,2.78-1.37.76,0,5.6.16,6.23,1l-.5,1.82h-1a8.81,8.81,0,0,1-3-.48c-.92-.26-3.91-1.27-3.77-2.52.08-.73,4.81.3,5.82.62a22,22,0,0,1,3.37,1.42c-.42,1.14-2.11.31-2.93,0a1.2,1.2,0,0,0-1.16,2c2.42,2.32,7,4.47,8.63-.1,1.6-4.41-4.76-5.86-7.66-6.46-2.67-.55-9-2.17-9.82,1.81-.76,3.73,3.48,6.23,6.46,7.08,3.4,1,8.53,1.45,10.22-2.5s-2.52-5.86-5.71-6.52c-3.55-.73-9.1-1.67-11.6,1.83-2.29,3.2.49,7.2,3.9,7.89,3,.61,10.87-1.49,9.75-5.85s-10.38-4.18-13.65-4c-2.11.12-3.81,3-1.9,4.59a14.82,14.82,0,0,0,11.64,3.51c2.88-.48,6.36-3.15,4.26-6.26a2.07,2.07,0,0,0-1.77-1c-1.08.08-2.14.09-3.22.1-2.43,0-2.4,3.62,0,3.75Z"/><path class="cls-1" d="M118.38,257c1.08.06,2.15.11,3.22.24l-2-2.59c-.39,1.05-3.86.37-4.44.24a13.38,13.38,0,0,1-4.46-2.2l-.64,4.92a10.87,10.87,0,0,1,6.3-.67c.32.07,2.6.56,2.15.29.23-.74-.22-.64-1.33.31l-1,.33c-1.24.33-3.53.64-3.21-1.27.24-1.45,1.35-1.32,2.78-1.37.76,0,5.6.16,6.23,1l-.5,1.82h-1a8.81,8.81,0,0,1-3-.48c-.92-.26-3.91-1.27-3.77-2.52.08-.73,4.81.3,5.82.62a22,22,0,0,1,3.37,1.42c-.42,1.14-2.11.31-2.93,0a1.2,1.2,0,0,0-1.16,2c2.42,2.32,7,4.47,8.63-.1,1.6-4.41-4.76-5.86-7.66-6.46-2.67-.55-9-2.17-9.82,1.81-.76,3.73,3.48,6.23,6.46,7.08,3.4,1,8.53,1.45,10.22-2.5s-2.52-5.86-5.71-6.52c-3.55-.73-9.1-1.67-11.6,1.83-2.29,3.2.49,7.2,3.9,7.89,3,.61,10.87-1.49,9.75-5.85s-10.38-4.18-13.65-4c-2.11.12-3.81,3-1.9,4.59a14.82,14.82,0,0,0,11.64,3.51c2.88-.48,6.36-3.15,4.26-6.26a2.07,2.07,0,0,0-1.77-1c-1.08.08-2.14.09-3.22.1-2.43,0-2.4,3.62,0,3.75Z"/><path class="cls-1" d="M53.38,257c1.08.06,2.15.11,3.22.24l-2-2.59c-.39,1.05-3.86.37-4.44.24a13.38,13.38,0,0,1-4.46-2.2l-.64,4.92a10.87,10.87,0,0,1,6.3-.67c.32.07,2.6.56,2.15.29.23-.74-.22-.64-1.33.31l-1,.33c-1.24.33-3.53.64-3.21-1.27.24-1.45,1.35-1.32,2.78-1.37.76,0,5.6.16,6.23,1l-.5,1.82h-1a8.81,8.81,0,0,1-3-.48c-.92-.26-3.91-1.27-3.77-2.52.08-.73,4.81.3,5.82.62a22,22,0,0,1,3.37,1.42c-.42,1.14-2.11.31-2.93,0a1.2,1.2,0,0,0-1.16,2c2.42,2.32,7,4.47,8.63-.1,1.6-4.41-4.76-5.86-7.66-6.46-2.67-.55-9-2.17-9.82,1.81-.76,3.73,3.48,6.23,6.46,7.08,3.4,1,8.53,1.45,10.22-2.5s-2.52-5.86-5.71-6.52c-3.55-.73-9.1-1.67-11.6,1.83-2.29,3.2.49,7.2,3.9,7.89,3,.61,10.87-1.49,9.75-5.85s-10.38-4.18-13.65-4c-2.11.12-3.81,3-1.9,4.59a14.82,14.82,0,0,0,11.64,3.51c2.88-.48,6.36-3.15,4.26-6.26a2.07,2.07,0,0,0-1.77-1c-1.08.08-2.14.09-3.22.1-2.43,0-2.4,3.62,0,3.75Z"/><path class="cls-1" d="M440.88,250.24c-1.31-10.79,2.07-22,5.25-32.21,1.65-5.3,3.49-10.58,4.43-16.07.68-4,1.65-9.44,0-13.36a4.35,4.35,0,0,0-5.9-2.57c-3.19,1.38-4.88,6.19-5.94,9.23-3.54,10.21-1,21.26-1.82,31.78h6.3c0-4.24,0-8.48,0-12.73,0-3-1.15-8.7.74-11.13l-4.83-.62c2.57,5.82,1.09,14.35,1.05,20.57q0,10.11-.11,20.22c0,3.83,5.52,4.5,6.6.89,3.85-12.76,3.73-26.47,3.58-39.66-.05-4.12-6.45-4.13-6.4,0,.09,7.69.16,15.37.15,23.06s-.66,15.54.31,23.07c.25,2,1.95,4,4.23,3.23a5.72,5.72,0,0,0,2.81-1.77c1.8-2,.09-5.46-2.74-4.7h-.07l2.46,3.23c.78-7.56-.09-15.48-.3-23.07s-.34-15.37-.45-23.06h-6.4c.19,12.91.08,25.41-3.66,37.87l6.6.9q-.12-12-.22-24.07c-.06-6.69.58-13.56-2.13-19.82a3.08,3.08,0,0,0-4.83-.62c-2.64,3.35-2.58,6.78-2.61,10.92,0,5.76-.08,11.52-.08,17.28,0,4.1,6,4,6.3,0,.46-6.39-.29-12.74-.22-19.13a39.35,39.35,0,0,1,.78-8c.33-1.55,2.11-7.81,3.22-7.79l-2.8-1.61c1.24,1.75.33,6.29.11,8.28a58.66,58.66,0,0,1-1.75,8.59c-1.44,5.35-3.27,10.6-4.61,16-2.19,8.79-3.57,19,.14,27.6.58,1.33,3,.69,2.79-.76Z"/><path class="cls-1" d="M375.88,250.24c-1.31-10.79,2.07-22,5.25-32.21,1.65-5.3,3.49-10.58,4.43-16.07.68-4,1.65-9.44,0-13.36a4.35,4.35,0,0,0-5.9-2.57c-3.19,1.38-4.88,6.19-5.94,9.23-3.54,10.21-1,21.26-1.82,31.78h6.3c0-4.24,0-8.48,0-12.73,0-3-1.15-8.7.74-11.13l-4.83-.62c2.57,5.82,1.09,14.35,1.05,20.57q0,10.11-.11,20.22c0,3.83,5.52,4.5,6.6.89,3.85-12.76,3.73-26.47,3.58-39.66-.05-4.12-6.45-4.13-6.4,0,.09,7.69.16,15.37.15,23.06s-.66,15.54.31,23.07c.25,2,1.95,4,4.23,3.23a5.72,5.72,0,0,0,2.81-1.77c1.8-2,.09-5.46-2.74-4.7h-.07l2.46,3.23c.78-7.56-.09-15.48-.3-23.07s-.34-15.37-.45-23.06h-6.4c.19,12.91.08,25.41-3.66,37.87l6.6.9q-.12-12-.22-24.07c-.06-6.69.58-13.56-2.13-19.82a3.08,3.08,0,0,0-4.83-.62c-2.64,3.35-2.58,6.78-2.61,10.92,0,5.76-.08,11.52-.08,17.28,0,4.1,6,4,6.3,0,.46-6.39-.29-12.74-.22-19.13a39.35,39.35,0,0,1,.78-8c.33-1.55,2.11-7.81,3.22-7.79l-2.8-1.61c1.24,1.75.33,6.29.11,8.28a58.66,58.66,0,0,1-1.75,8.59c-1.44,5.35-3.27,10.6-4.61,16-2.19,8.79-3.57,19,.14,27.6.58,1.33,3,.69,2.79-.76Z"/><path class="cls-1" d="M310.88,250.24c-1.31-10.79,2.07-22,5.25-32.21,1.65-5.3,3.49-10.58,4.43-16.07.68-4,1.65-9.44,0-13.36a4.35,4.35,0,0,0-5.9-2.57c-3.19,1.38-4.88,6.19-5.94,9.23-3.54,10.21-1,21.26-1.82,31.78h6.3c0-4.24,0-8.48,0-12.73,0-3-1.15-8.7.74-11.13l-4.83-.62c2.57,5.82,1.09,14.35,1.05,20.57q0,10.11-.11,20.22c0,3.83,5.52,4.5,6.6.89,3.85-12.76,3.73-26.47,3.58-39.66-.05-4.12-6.45-4.13-6.4,0,.09,7.69.16,15.37.15,23.06s-.66,15.54.31,23.07c.25,2,1.95,4,4.23,3.23a5.72,5.72,0,0,0,2.81-1.77c1.8-2,.09-5.46-2.74-4.7h-.07l2.46,3.23c.78-7.56-.09-15.48-.3-23.07s-.34-15.37-.45-23.06h-6.4c.19,12.91.08,25.41-3.66,37.87l6.6.9q-.12-12-.22-24.07c-.06-6.69.58-13.56-2.13-19.82a3.08,3.08,0,0,0-4.83-.62c-2.64,3.35-2.58,6.78-2.61,10.92,0,5.76-.08,11.52-.08,17.28,0,4.1,6,4,6.3,0,.46-6.39-.29-12.74-.22-19.13a39.35,39.35,0,0,1,.78-8c.33-1.55,2.11-7.81,3.22-7.79l-2.8-1.61c1.24,1.75.33,6.29.11,8.28a58.66,58.66,0,0,1-1.75,8.59c-1.44,5.35-3.27,10.6-4.61,16-2.19,8.79-3.57,19,.14,27.6.58,1.33,3,.69,2.79-.76Z"/><path class="cls-1" d="M245.88,250.24c-1.31-10.79,2.07-22,5.25-32.21,1.65-5.3,3.49-10.58,4.43-16.07.68-4,1.65-9.44,0-13.36a4.35,4.35,0,0,0-5.9-2.57c-3.19,1.38-4.88,6.19-5.94,9.23-3.54,10.21-1,21.26-1.82,31.78h6.3c0-4.24,0-8.48,0-12.73,0-3-1.15-8.7.74-11.13l-4.83-.62c2.57,5.82,1.09,14.35,1.05,20.57q0,10.11-.11,20.22c0,3.83,5.52,4.5,6.6.89,3.85-12.76,3.73-26.47,3.58-39.66-.05-4.12-6.45-4.13-6.4,0,.09,7.69.16,15.37.15,23.06s-.66,15.54.31,23.07c.25,2,1.95,4,4.23,3.23a5.72,5.72,0,0,0,2.81-1.77c1.8-2,.09-5.46-2.74-4.7h-.07l2.46,3.23c.78-7.56-.09-15.48-.3-23.07s-.34-15.37-.45-23.06h-6.4c.19,12.91.08,25.41-3.66,37.87l6.6.9q-.12-12-.22-24.07c-.06-6.69.58-13.56-2.13-19.82a3.08,3.08,0,0,0-4.83-.62c-2.64,3.35-2.58,6.78-2.61,10.92,0,5.76-.08,11.52-.08,17.28,0,4.1,6,4,6.3,0,.46-6.39-.29-12.74-.22-19.13a39.35,39.35,0,0,1,.78-8c.33-1.55,2.11-7.81,3.22-7.79l-2.8-1.61c1.24,1.75.33,6.29.11,8.28a58.66,58.66,0,0,1-1.75,8.59c-1.44,5.35-3.27,10.6-4.61,16-2.19,8.79-3.57,19,.14,27.6.58,1.33,3,.69,2.79-.76Z"/><path class="cls-1" d="M180.88,250.24c-1.31-10.79,2.07-22,5.25-32.21,1.65-5.3,3.49-10.58,4.43-16.07.68-4,1.65-9.44,0-13.36a4.35,4.35,0,0,0-5.9-2.57c-3.19,1.38-4.88,6.19-5.94,9.23-3.54,10.21-1,21.26-1.82,31.78h6.3c0-4.24,0-8.48,0-12.73,0-3-1.15-8.7.74-11.13l-4.83-.62c2.57,5.82,1.09,14.35,1.05,20.57q0,10.11-.11,20.22c0,3.83,5.52,4.5,6.6.89,3.85-12.76,3.73-26.47,3.58-39.66-.05-4.12-6.45-4.13-6.4,0,.09,7.69.16,15.37.15,23.06s-.66,15.54.31,23.07c.25,2,1.95,4,4.23,3.23a5.72,5.72,0,0,0,2.81-1.77c1.8-2,.09-5.46-2.74-4.7h-.07l2.46,3.23c.78-7.56-.09-15.48-.3-23.07s-.34-15.37-.45-23.06h-6.4c.19,12.91.08,25.41-3.66,37.87l6.6.9q-.12-12-.22-24.07c-.06-6.69.58-13.56-2.13-19.82a3.08,3.08,0,0,0-4.83-.62c-2.64,3.35-2.58,6.78-2.61,10.92,0,5.76-.08,11.52-.08,17.28,0,4.1,6,4,6.3,0,.46-6.39-.29-12.74-.22-19.13a39.35,39.35,0,0,1,.78-8c.33-1.55,2.11-7.81,3.22-7.79l-2.8-1.61c1.24,1.75.33,6.29.11,8.28a58.66,58.66,0,0,1-1.75,8.59c-1.44,5.35-3.27,10.6-4.61,16-2.19,8.79-3.57,19,.14,27.6.58,1.33,3,.69,2.79-.76Z"/><path class="cls-1" d="M115.88,250.24c-1.31-10.79,2.07-22,5.25-32.21,1.65-5.3,3.49-10.58,4.43-16.07.68-4,1.65-9.44,0-13.36a4.35,4.35,0,0,0-5.9-2.57c-3.19,1.38-4.88,6.19-5.94,9.23-3.54,10.21-1,21.26-1.82,31.78h6.3c0-4.24,0-8.48,0-12.73,0-3-1.15-8.7.74-11.13l-4.83-.62c2.57,5.82,1.09,14.35,1.05,20.57q0,10.11-.11,20.22c0,3.83,5.52,4.5,6.6.89,3.85-12.76,3.73-26.47,3.58-39.66,0-4.12-6.45-4.13-6.4,0,.09,7.69.16,15.37.15,23.06s-.66,15.54.31,23.07c.25,2,2,4,4.23,3.23a5.72,5.72,0,0,0,2.81-1.77c1.8-2,.09-5.46-2.74-4.7h-.07l2.46,3.23c.78-7.56-.09-15.48-.3-23.07s-.34-15.37-.45-23.06h-6.4c.19,12.91.08,25.41-3.66,37.87l6.6.9q-.12-12-.22-24.07c-.06-6.69.58-13.56-2.13-19.82a3.08,3.08,0,0,0-4.83-.62c-2.64,3.35-2.58,6.78-2.61,10.92,0,5.76-.08,11.52-.08,17.28,0,4.1,6,4,6.3,0,.46-6.39-.29-12.74-.22-19.13a39.35,39.35,0,0,1,.78-8c.33-1.55,2.11-7.81,3.22-7.79l-2.8-1.61c1.24,1.75.33,6.29.11,8.28a58.66,58.66,0,0,1-1.75,8.59c-1.44,5.35-3.27,10.6-4.61,16-2.19,8.79-3.57,19,.14,27.6.58,1.33,3,.69,2.79-.76Z"/><path class="cls-1" d="M50.88,250.24c-1.31-10.79,2.07-22,5.25-32.21,1.65-5.3,3.49-10.58,4.43-16.07.68-4,1.65-9.44,0-13.36a4.35,4.35,0,0,0-5.9-2.57c-3.19,1.38-4.88,6.19-5.94,9.23-3.54,10.21-1,21.26-1.82,31.78h6.3c0-4.24,0-8.48,0-12.73,0-3-1.15-8.7.74-11.13l-4.83-.62c2.57,5.82,1.09,14.35,1,20.57q0,10.11-.11,20.22c0,3.83,5.52,4.5,6.6.89,3.85-12.76,3.73-26.47,3.58-39.66,0-4.12-6.45-4.13-6.4,0,.09,7.69.16,15.37.15,23.06s-.66,15.54.31,23.07c.25,2,1.95,4,4.23,3.23a5.72,5.72,0,0,0,2.81-1.77c1.8-2,.09-5.46-2.74-4.7h-.07L61,250.71c.78-7.56-.09-15.48-.3-23.07s-.34-15.37-.45-23.06h-6.4c.19,12.91.08,25.41-3.66,37.87l6.6.9q-.12-12-.22-24.07c-.06-6.69.58-13.56-2.13-19.82a3.08,3.08,0,0,0-4.83-.62C47,202.19,47,205.62,47,209.76c0,5.76-.08,11.52-.08,17.28,0,4.1,6,4,6.3,0,.46-6.39-.29-12.74-.22-19.13a39.35,39.35,0,0,1,.78-8c.33-1.55,2.11-7.81,3.22-7.79l-2.8-1.61c1.24,1.75.33,6.29.11,8.28a58.66,58.66,0,0,1-1.75,8.59c-1.44,5.35-3.27,10.6-4.61,16-2.19,8.79-3.57,19,.14,27.6.58,1.33,3,.69,2.79-.76Z"/><path class="cls-1" d="M450.93,256.4l1.47.35-1.95-1.95c-.3-1.19,1.52-.94-.09-1.11a4.62,4.62,0,0,1-1.81-.64,6,6,0,0,1-1.12-1.19c-.55-.66-1.24-1-1.78-1.64a1.54,1.54,0,0,0-2.56.67,5.34,5.34,0,0,0,.81,5.31,9.54,9.54,0,0,0,4.89,3.68,5.92,5.92,0,0,0,6.14-1.41,4.72,4.72,0,0,0,.63-5.82,3,3,0,0,0-3.16-1.29l-1.47.22c-2.49.38-2.27,4.28,0,4.82Z"/><path class="cls-1" d="M385.93,256.4l1.47.35-1.95-1.95c-.3-1.19,1.52-.94-.09-1.11a4.62,4.62,0,0,1-1.81-.64,6,6,0,0,1-1.12-1.19c-.55-.66-1.24-1-1.78-1.64a1.54,1.54,0,0,0-2.56.67,5.34,5.34,0,0,0,.81,5.31,9.54,9.54,0,0,0,4.89,3.68,5.92,5.92,0,0,0,6.14-1.41,4.72,4.72,0,0,0,.63-5.82,3,3,0,0,0-3.16-1.29l-1.47.22c-2.49.38-2.27,4.28,0,4.82Z"/><path class="cls-1" d="M320.93,256.4l1.47.35-1.95-1.95c-.3-1.19,1.52-.94-.09-1.11a4.62,4.62,0,0,1-1.81-.64,6,6,0,0,1-1.12-1.19c-.55-.66-1.24-1-1.78-1.64a1.54,1.54,0,0,0-2.56.67,5.34,5.34,0,0,0,.81,5.31,9.54,9.54,0,0,0,4.89,3.68,5.92,5.92,0,0,0,6.14-1.41,4.72,4.72,0,0,0,.63-5.82,3,3,0,0,0-3.16-1.29l-1.47.22c-2.49.38-2.27,4.28,0,4.82Z"/><path class="cls-1" d="M255.93,256.4l1.47.35-1.95-1.95c-.3-1.19,1.52-.94-.09-1.11a4.62,4.62,0,0,1-1.81-.64,6,6,0,0,1-1.12-1.19c-.55-.66-1.24-1-1.78-1.64a1.54,1.54,0,0,0-2.56.67,5.34,5.34,0,0,0,.81,5.31,9.54,9.54,0,0,0,4.89,3.68,5.92,5.92,0,0,0,6.14-1.41,4.72,4.72,0,0,0,.63-5.82,3,3,0,0,0-3.16-1.29l-1.47.22c-2.49.38-2.27,4.28,0,4.82Z"/><path class="cls-1" d="M190.93,256.4l1.47.35-2-1.95c-.3-1.19,1.52-.94-.09-1.11a4.62,4.62,0,0,1-1.81-.64,6,6,0,0,1-1.12-1.19c-.55-.66-1.24-1-1.78-1.64a1.54,1.54,0,0,0-2.56.67,5.34,5.34,0,0,0,.81,5.31,9.54,9.54,0,0,0,4.89,3.68,5.92,5.92,0,0,0,6.14-1.41,4.72,4.72,0,0,0,.63-5.82,3,3,0,0,0-3.16-1.29l-1.47.22c-2.49.38-2.27,4.28,0,4.82Z"/><path class="cls-1" d="M125.93,256.4l1.47.35-2-1.95c-.3-1.19,1.52-.94-.09-1.11a4.62,4.62,0,0,1-1.81-.64,6,6,0,0,1-1.12-1.19c-.55-.66-1.24-1-1.78-1.64a1.54,1.54,0,0,0-2.56.67,5.34,5.34,0,0,0,.81,5.31,9.54,9.54,0,0,0,4.89,3.68,5.92,5.92,0,0,0,6.14-1.41,4.72,4.72,0,0,0,.63-5.82,3,3,0,0,0-3.16-1.29l-1.47.22c-2.49.38-2.27,4.28,0,4.82Z"/><path class="cls-1" d="M60.93,256.4l1.47.35-1.95-1.95c-.3-1.19,1.52-.94-.09-1.11a4.62,4.62,0,0,1-1.81-.64,6,6,0,0,1-1.12-1.19c-.55-.66-1.24-1-1.78-1.64a1.54,1.54,0,0,0-2.56.67,5.34,5.34,0,0,0,.81,5.31,9.54,9.54,0,0,0,4.89,3.68,5.92,5.92,0,0,0,6.14-1.41,4.72,4.72,0,0,0,.63-5.82,3,3,0,0,0-3.16-1.29l-1.47.22c-2.49.38-2.27,4.28,0,4.82Z"/><path class="cls-1" d="M445.08,222.34c.74-22.6.48-45.19,2.77-67.73H440a210.89,210.89,0,0,0,3.05,44.6c.73,4.24,7.09,3,7.24-1,.39-10.17.77-20.3,1.41-30.45H445.2a99.59,99.59,0,0,1-1,18.34l6.05-.79c-6.26-13.56-3.36-28.88-5-43.27-.79-7.09-3.34-13.55-4.75-20.49a26.71,26.71,0,0,1,5.11-21.92L439,98.79c6,15.13-3,31.56-3.13,47.06h7.34a77.88,77.88,0,0,1,5.55-36.43l-6.3,1.67c3.05,3.29,2.18,8.42,1.92,12.52q-.48,7.76-1,15.5c-.66,10.33-1.39,20.66-1.94,31-.24,4.63,6.46,4.34,7,0q2.07-15.73,4.41-31.44l-6.5-.88,2,15.31c.58,4.3,1.95,9.21.31,13.4l5.72-.75a104.81,104.81,0,0,0-13.66-22c-1.27-1.54-3.6-.81-4.56.59-5.4,7.91,2.32,15.55.93,23.73l6.23,1.72a164.49,164.49,0,0,0-3.9-72.14l-2.42,4.26a25.06,25.06,0,0,1,12-.7l-2.31-2.31a9.9,9.9,0,0,1-.56,7.62l5.82,2.46a32.1,32.1,0,0,0,1.52-7.56h-6.11c0,2.51-.14,5-.25,7.5-.19,4.22,6.72,4.23,6.56,0-.09-2.5-.21-5-.2-7.5,0-4.05-5.62-3.77-6.11,0a26.1,26.1,0,0,1-1.55,5.86c-1.26,3.39,4.15,5.63,5.82,2.46a16.63,16.63,0,0,0,1.45-12.6,3.28,3.28,0,0,0-2.32-2.31,33,33,0,0,0-15.61.4,3.53,3.53,0,0,0-2.42,4.26,173.8,173.8,0,0,1,4.35,68.58c-.58,4.06,5.6,5.84,6.23,1.72a23.1,23.1,0,0,0-1-10.62c-1.17-3.8-3.5-8.16-1.13-11.9l-4.56.59a59.34,59.34,0,0,1,12.05,20.31c.81,2.46,4.36,3.21,5.72.75,2.3-4.19,1.65-8.31,1-12.87q-1.31-9.57-2.6-19.13c-.43-3.16-5.92-3.14-6.38,0q-2.34,16.15-4.93,32.27l6.9.93c1-12.26,1.81-24.54,2.69-36.81.64-8.9,3.42-20.31-3.37-27.54-2.12-2.26-5.3-.81-6.3,1.67a83,83,0,0,0-5.62,38.43c.42,4.63,7.32,4.81,7.34,0,.07-16.48,9-32.68,2.76-49-.84-2.22-4.2-4-6-1.59-4.62,5.94-7.55,12.9-7.54,20.53,0,8.57,4.1,16.39,5.36,24.76,2.44,16.21-.42,32.79,6.75,48.11,1.14,2.45,5.64,2,6.05-.79a110.79,110.79,0,0,0,1.15-20.1c-.16-4.22-6.28-4.19-6.53,0-.58,10.18-1.42,20.29-2.26,30.45l7.25-1a189.68,189.68,0,0,1-2.34-42.64c.28-5.11-7.28-4.89-7.82,0-2.52,22.6-2.93,45.85,2.23,68.11.37,1.62,2.77,1.21,2.82-.38Z"/><path class="cls-1" d="M380.08,222.34c.74-22.6.48-45.19,2.77-67.73H375a210.89,210.89,0,0,0,3.05,44.6c.73,4.24,7.09,3,7.24-1,.39-10.17.77-20.3,1.41-30.45H380.2a99.59,99.59,0,0,1-1,18.34l6.05-.79c-6.26-13.56-3.36-28.88-5-43.27-.79-7.09-3.34-13.55-4.75-20.49a26.71,26.71,0,0,1,5.11-21.92L374,98.79c6,15.13-3,31.56-3.13,47.06h7.34a77.88,77.88,0,0,1,5.55-36.43l-6.3,1.67c3.05,3.29,2.18,8.42,1.92,12.52q-.48,7.76-1,15.5c-.66,10.33-1.39,20.66-1.94,31-.24,4.63,6.46,4.34,7,0q2.07-15.73,4.41-31.44l-6.5-.88,2,15.31c.58,4.3,1.95,9.21.31,13.4l5.72-.75a104.81,104.81,0,0,0-13.66-22c-1.27-1.54-3.6-.81-4.56.59-5.4,7.91,2.32,15.55.93,23.73l6.23,1.72a164.49,164.49,0,0,0-3.9-72.14l-2.42,4.26a25.06,25.06,0,0,1,12-.7l-2.31-2.31a9.9,9.9,0,0,1-.56,7.62l5.82,2.46a32.1,32.1,0,0,0,1.52-7.56h-6.11c0,2.51-.14,5-.25,7.5-.19,4.22,6.72,4.23,6.56,0-.09-2.5-.21-5-.2-7.5,0-4.05-5.62-3.77-6.11,0a26.1,26.1,0,0,1-1.55,5.86c-1.26,3.39,4.15,5.63,5.82,2.46a16.63,16.63,0,0,0,1.45-12.6,3.28,3.28,0,0,0-2.32-2.31,33,33,0,0,0-15.61.4,3.53,3.53,0,0,0-2.42,4.26,173.8,173.8,0,0,1,4.35,68.58c-.58,4.06,5.6,5.84,6.23,1.72a23.1,23.1,0,0,0-1-10.62c-1.17-3.8-3.5-8.16-1.13-11.9l-4.56.59a59.34,59.34,0,0,1,12.05,20.31c.81,2.46,4.36,3.21,5.72.75,2.3-4.19,1.65-8.31,1-12.87q-1.31-9.57-2.6-19.13c-.43-3.16-5.92-3.14-6.38,0q-2.34,16.15-4.93,32.27l6.9.93c1-12.26,1.81-24.54,2.69-36.81.64-8.9,3.42-20.31-3.37-27.54-2.12-2.26-5.3-.81-6.3,1.67a83,83,0,0,0-5.62,38.43c.42,4.63,7.32,4.81,7.34,0,.07-16.48,9-32.68,2.76-49-.84-2.22-4.2-4-6-1.59-4.62,5.94-7.55,12.9-7.54,20.53,0,8.57,4.1,16.39,5.36,24.76,2.44,16.21-.42,32.79,6.75,48.11,1.14,2.45,5.64,2,6.05-.79a110.79,110.79,0,0,0,1.15-20.1c-.16-4.22-6.28-4.19-6.53,0-.58,10.18-1.42,20.29-2.26,30.45l7.25-1a189.68,189.68,0,0,1-2.34-42.64c.28-5.11-7.28-4.89-7.82,0-2.52,22.6-2.93,45.85,2.23,68.11.37,1.62,2.77,1.21,2.82-.38Z"/><path class="cls-1" d="M315.08,222.34c.74-22.6.48-45.19,2.77-67.73H310a210.89,210.89,0,0,0,3.05,44.6c.73,4.24,7.09,3,7.24-1,.39-10.17.77-20.3,1.41-30.45H315.2a99.59,99.59,0,0,1-1,18.34l6.05-.79c-6.26-13.56-3.36-28.88-5-43.27-.79-7.09-3.34-13.55-4.75-20.49a26.71,26.71,0,0,1,5.11-21.92L309,98.79c6,15.13-3,31.56-3.13,47.06h7.34a77.88,77.88,0,0,1,5.55-36.43l-6.3,1.67c3.05,3.29,2.18,8.42,1.92,12.52q-.48,7.76-1,15.5c-.66,10.33-1.39,20.66-1.94,31-.24,4.63,6.46,4.34,7,0q2.07-15.73,4.41-31.44l-6.5-.88,2,15.31c.58,4.3,1.95,9.21.31,13.4l5.72-.75a104.81,104.81,0,0,0-13.66-22c-1.27-1.54-3.6-.81-4.56.59-5.4,7.91,2.32,15.55.93,23.73l6.23,1.72a164.49,164.49,0,0,0-3.9-72.14l-2.42,4.26a25.06,25.06,0,0,1,12-.7l-2.31-2.31a9.9,9.9,0,0,1-.56,7.62l5.82,2.46a32.1,32.1,0,0,0,1.52-7.56h-6.11c0,2.51-.14,5-.25,7.5-.19,4.22,6.72,4.23,6.56,0-.09-2.5-.21-5-.2-7.5,0-4.05-5.62-3.77-6.11,0a26.1,26.1,0,0,1-1.55,5.86c-1.26,3.39,4.15,5.63,5.82,2.46a16.63,16.63,0,0,0,1.45-12.6,3.28,3.28,0,0,0-2.32-2.31,33,33,0,0,0-15.61.4,3.53,3.53,0,0,0-2.42,4.26,173.8,173.8,0,0,1,4.35,68.58c-.58,4.06,5.6,5.84,6.23,1.72a23.1,23.1,0,0,0-1-10.62c-1.17-3.8-3.5-8.16-1.13-11.9l-4.56.59a59.34,59.34,0,0,1,12.05,20.31c.81,2.46,4.36,3.21,5.72.75,2.3-4.19,1.65-8.31,1-12.87q-1.31-9.57-2.6-19.13c-.43-3.16-5.92-3.14-6.38,0q-2.34,16.15-4.93,32.27l6.9.93c1-12.26,1.81-24.54,2.69-36.81.64-8.9,3.42-20.31-3.37-27.54-2.12-2.26-5.3-.81-6.3,1.67a83,83,0,0,0-5.62,38.43c.42,4.63,7.32,4.81,7.34,0,.07-16.48,9-32.68,2.76-49-.84-2.22-4.2-4-6-1.59-4.62,5.94-7.55,12.9-7.54,20.53,0,8.57,4.1,16.39,5.36,24.76,2.44,16.21-.42,32.79,6.75,48.11,1.14,2.45,5.64,2,6.05-.79a110.79,110.79,0,0,0,1.15-20.1c-.16-4.22-6.28-4.19-6.53,0-.58,10.18-1.42,20.29-2.26,30.45l7.25-1a189.68,189.68,0,0,1-2.34-42.64c.28-5.11-7.28-4.89-7.82,0-2.52,22.6-2.93,45.85,2.23,68.11.37,1.62,2.77,1.21,2.82-.38Z"/><path class="cls-1" d="M250.08,222.34c.74-22.6.48-45.19,2.77-67.73H245a210.89,210.89,0,0,0,3.05,44.6c.73,4.24,7.09,3,7.24-1,.39-10.17.77-20.3,1.41-30.45H250.2a99.59,99.59,0,0,1-1,18.34l6.05-.79c-6.26-13.56-3.36-28.88-5-43.27-.79-7.09-3.34-13.55-4.75-20.49a26.71,26.71,0,0,1,5.11-21.92L244,98.79c6,15.13-3,31.56-3.13,47.06h7.34a77.88,77.88,0,0,1,5.55-36.43l-6.3,1.67c3,3.29,2.18,8.42,1.92,12.52q-.48,7.76-1,15.5c-.66,10.33-1.39,20.66-1.94,31-.24,4.63,6.46,4.34,7,0q2.07-15.73,4.41-31.44l-6.5-.88,2,15.31c.58,4.3,2,9.21.31,13.4l5.72-.75a104.81,104.81,0,0,0-13.66-22c-1.27-1.54-3.6-.81-4.56.59-5.4,7.91,2.32,15.55.93,23.73l6.23,1.72a164.49,164.49,0,0,0-3.9-72.14l-2.42,4.26a25.06,25.06,0,0,1,12-.7l-2.31-2.31a9.9,9.9,0,0,1-.56,7.62l5.82,2.46a32.1,32.1,0,0,0,1.52-7.56h-6.11c0,2.51-.14,5-.25,7.5-.19,4.22,6.72,4.23,6.56,0-.09-2.5-.21-5-.2-7.5,0-4.05-5.62-3.77-6.11,0a26.1,26.1,0,0,1-1.55,5.86c-1.26,3.39,4.15,5.63,5.82,2.46a16.63,16.63,0,0,0,1.45-12.6,3.28,3.28,0,0,0-2.32-2.31,33,33,0,0,0-15.61.4,3.53,3.53,0,0,0-2.42,4.26,173.8,173.8,0,0,1,4.35,68.58c-.58,4.06,5.6,5.84,6.23,1.72a23.1,23.1,0,0,0-1-10.62c-1.17-3.8-3.5-8.16-1.13-11.9l-4.56.59a59.34,59.34,0,0,1,12,20.31c.81,2.46,4.36,3.21,5.72.75,2.3-4.19,1.65-8.31,1-12.87q-1.31-9.57-2.6-19.13c-.43-3.16-5.92-3.14-6.38,0q-2.34,16.15-4.93,32.27l6.9.93c1-12.26,1.81-24.54,2.69-36.81.64-8.9,3.42-20.31-3.37-27.54-2.12-2.26-5.3-.81-6.3,1.67a83,83,0,0,0-5.62,38.43c.42,4.63,7.32,4.81,7.34,0,.07-16.48,9-32.68,2.76-49-.84-2.22-4.2-4-6-1.59-4.62,5.94-7.55,12.9-7.54,20.53,0,8.57,4.1,16.39,5.36,24.76,2.44,16.21-.42,32.79,6.75,48.11,1.14,2.45,5.64,2,6.05-.79a110.79,110.79,0,0,0,1.15-20.1c-.16-4.22-6.28-4.19-6.53,0-.58,10.18-1.42,20.29-2.26,30.45l7.25-1a189.68,189.68,0,0,1-2.34-42.64c.28-5.11-7.28-4.89-7.82,0-2.52,22.6-2.93,45.85,2.23,68.11.37,1.62,2.77,1.21,2.82-.38Z"/><path class="cls-1" d="M185.08,222.34c.74-22.6.48-45.19,2.77-67.73H180a210.89,210.89,0,0,0,3.05,44.6c.73,4.24,7.09,3,7.24-1,.39-10.17.77-20.3,1.41-30.45H185.2a99.59,99.59,0,0,1-1,18.34l6.05-.79c-6.26-13.56-3.36-28.88-5-43.27-.79-7.09-3.34-13.55-4.75-20.49a26.71,26.71,0,0,1,5.11-21.92L179,98.79c6,15.13-3,31.56-3.13,47.06h7.34a77.88,77.88,0,0,1,5.55-36.43l-6.3,1.67c3,3.29,2.18,8.42,1.92,12.52q-.48,7.76-1,15.5c-.66,10.33-1.39,20.66-1.94,31-.24,4.63,6.46,4.34,7,0q2.07-15.73,4.41-31.44l-6.5-.88,2,15.31c.58,4.3,2,9.21.31,13.4l5.72-.75a104.81,104.81,0,0,0-13.66-22c-1.27-1.54-3.6-.81-4.56.59-5.4,7.91,2.32,15.55.93,23.73l6.23,1.72a164.49,164.49,0,0,0-3.9-72.14l-2.42,4.26a25.06,25.06,0,0,1,12-.7l-2.31-2.31a9.9,9.9,0,0,1-.56,7.62l5.82,2.46a32.1,32.1,0,0,0,1.52-7.56h-6.11c0,2.51-.14,5-.25,7.5-.19,4.22,6.72,4.23,6.56,0-.09-2.5-.21-5-.2-7.5,0-4.05-5.62-3.77-6.11,0a26.1,26.1,0,0,1-1.55,5.86c-1.26,3.39,4.15,5.63,5.82,2.46a16.63,16.63,0,0,0,1.45-12.6,3.28,3.28,0,0,0-2.32-2.31,33,33,0,0,0-15.61.4,3.53,3.53,0,0,0-2.42,4.26,173.8,173.8,0,0,1,4.35,68.58c-.58,4.06,5.6,5.84,6.23,1.72a23.1,23.1,0,0,0-1-10.62c-1.17-3.8-3.5-8.16-1.13-11.9l-4.56.59a59.34,59.34,0,0,1,12,20.31c.81,2.46,4.36,3.21,5.72.75,2.3-4.19,1.65-8.31,1-12.87q-1.31-9.57-2.6-19.13c-.43-3.16-5.92-3.14-6.38,0q-2.34,16.15-4.93,32.27l6.9.93c1-12.26,1.81-24.54,2.69-36.81.64-8.9,3.42-20.31-3.37-27.54-2.12-2.26-5.3-.81-6.3,1.67a83,83,0,0,0-5.62,38.43c.42,4.63,7.32,4.81,7.34,0,.07-16.48,9-32.68,2.76-49-.84-2.22-4.2-4-6-1.59-4.62,5.94-7.55,12.9-7.54,20.53,0,8.57,4.1,16.39,5.36,24.76,2.44,16.21-.42,32.79,6.75,48.11,1.14,2.45,5.64,2,6.05-.79a110.79,110.79,0,0,0,1.15-20.1c-.16-4.22-6.28-4.19-6.53,0-.58,10.18-1.42,20.29-2.26,30.45l7.25-1a189.68,189.68,0,0,1-2.34-42.64c.28-5.11-7.28-4.89-7.82,0-2.52,22.6-2.93,45.85,2.23,68.11.37,1.62,2.77,1.21,2.82-.38Z"/><path class="cls-1" d="M120.08,222.34c.74-22.6.48-45.19,2.77-67.73H115a210.89,210.89,0,0,0,3,44.6c.73,4.24,7.09,3,7.24-1,.39-10.17.77-20.3,1.41-30.45H120.2a99.59,99.59,0,0,1-1,18.34l6-.79c-6.26-13.56-3.36-28.88-5-43.27-.79-7.09-3.34-13.55-4.75-20.49a26.71,26.71,0,0,1,5.11-21.92L114,98.79c6,15.13-3,31.56-3.13,47.06h7.34a77.88,77.88,0,0,1,5.55-36.43l-6.3,1.67c3.05,3.29,2.18,8.42,1.92,12.52q-.48,7.76-1,15.5c-.66,10.33-1.39,20.66-1.94,31-.24,4.63,6.46,4.34,7,0q2.07-15.73,4.41-31.44l-6.5-.88,2,15.31c.58,4.3,2,9.21.31,13.4l5.72-.75a104.81,104.81,0,0,0-13.66-22c-1.27-1.54-3.6-.81-4.56.59-5.4,7.91,2.32,15.55.93,23.73l6.23,1.72a164.49,164.49,0,0,0-3.9-72.14l-2.42,4.26a25.06,25.06,0,0,1,12-.7l-2.31-2.31a9.9,9.9,0,0,1-.56,7.62l5.82,2.46a32.1,32.1,0,0,0,1.52-7.56h-6.11c0,2.51-.14,5-.25,7.5-.19,4.22,6.72,4.23,6.56,0-.09-2.5-.21-5-.2-7.5,0-4.05-5.62-3.77-6.11,0a26.1,26.1,0,0,1-1.55,5.86c-1.26,3.39,4.15,5.63,5.82,2.46a16.63,16.63,0,0,0,1.45-12.6,3.28,3.28,0,0,0-2.32-2.31,33,33,0,0,0-15.61.4,3.53,3.53,0,0,0-2.42,4.26,173.8,173.8,0,0,1,4.35,68.58c-.58,4.06,5.6,5.84,6.23,1.72a23.1,23.1,0,0,0-1-10.62c-1.17-3.8-3.5-8.16-1.13-11.9l-4.56.59a59.34,59.34,0,0,1,12.05,20.31c.81,2.46,4.36,3.21,5.72.75,2.3-4.19,1.65-8.31,1-12.87q-1.31-9.57-2.6-19.13c-.43-3.16-5.92-3.14-6.38,0q-2.34,16.15-4.93,32.27l6.9.93c1-12.26,1.81-24.54,2.69-36.81.64-8.9,3.42-20.31-3.37-27.54-2.12-2.26-5.3-.81-6.3,1.67a83,83,0,0,0-5.62,38.43c.42,4.63,7.32,4.81,7.34,0,.07-16.48,9-32.68,2.76-49-.84-2.22-4.2-4-6-1.59-4.62,5.94-7.55,12.9-7.54,20.53,0,8.57,4.1,16.39,5.36,24.76,2.44,16.21-.42,32.79,6.75,48.11,1.14,2.45,5.64,2,6-.79a110.79,110.79,0,0,0,1.15-20.1c-.16-4.22-6.28-4.19-6.53,0-.58,10.18-1.42,20.29-2.26,30.45l7.25-1a189.68,189.68,0,0,1-2.34-42.64c.28-5.11-7.28-4.89-7.82,0-2.52,22.6-2.93,45.85,2.23,68.11.37,1.62,2.77,1.21,2.82-.38Z"/><path class="cls-1" d="M55.08,222.34c.74-22.6.48-45.19,2.77-67.73H50a210.89,210.89,0,0,0,3,44.6c.73,4.24,7.09,3,7.24-1,.39-10.17.77-20.3,1.41-30.45H55.2a99.59,99.59,0,0,1-1,18.34l6.05-.79c-6.26-13.56-3.36-28.88-5-43.27-.79-7.09-3.34-13.55-4.75-20.49a26.71,26.71,0,0,1,5.11-21.92L49,98.79c6,15.13-3,31.56-3.13,47.06h7.34a77.88,77.88,0,0,1,5.55-36.43l-6.3,1.67c3,3.29,2.18,8.42,1.92,12.52q-.48,7.76-1,15.5c-.66,10.33-1.39,20.66-1.94,31-.24,4.63,6.46,4.34,7,0q2.07-15.73,4.41-31.44l-6.5-.88,2,15.31c.58,4.3,1.95,9.21.31,13.4l5.72-.75a104.81,104.81,0,0,0-13.66-22c-1.27-1.54-3.6-.81-4.56.59-5.4,7.91,2.32,15.55.93,23.73l6.23,1.72a164.49,164.49,0,0,0-3.9-72.14l-2.42,4.26a25.06,25.06,0,0,1,12-.7L56.8,98.88a9.9,9.9,0,0,1-.56,7.62L62.06,109a32.1,32.1,0,0,0,1.52-7.56H57.47c0,2.51-.14,5-.25,7.5-.19,4.22,6.72,4.23,6.56,0-.09-2.5-.21-5-.2-7.5,0-4.05-5.62-3.77-6.11,0a26.1,26.1,0,0,1-1.55,5.86c-1.26,3.39,4.15,5.63,5.82,2.46a16.63,16.63,0,0,0,1.45-12.6,3.28,3.28,0,0,0-2.32-2.31,33,33,0,0,0-15.61.4,3.53,3.53,0,0,0-2.42,4.26,173.8,173.8,0,0,1,4.35,68.58c-.58,4.06,5.6,5.84,6.23,1.72a23.1,23.1,0,0,0-1-10.62c-1.17-3.8-3.5-8.16-1.13-11.9l-4.56.59a59.34,59.34,0,0,1,12,20.31c.81,2.46,4.36,3.21,5.72.75,2.3-4.19,1.65-8.31,1-12.87q-1.31-9.57-2.6-19.13c-.43-3.16-5.92-3.14-6.38,0q-2.34,16.15-4.93,32.27l6.9.93c1-12.26,1.81-24.54,2.69-36.81.64-8.9,3.42-20.31-3.37-27.54-2.12-2.26-5.3-.81-6.3,1.67a83,83,0,0,0-5.62,38.43c.42,4.63,7.32,4.81,7.34,0,.07-16.48,9-32.68,2.76-49-.84-2.22-4.2-4-6-1.59-4.62,5.94-7.55,12.9-7.54,20.53,0,8.57,4.1,16.39,5.36,24.76,2.44,16.21-.42,32.79,6.75,48.11,1.14,2.45,5.64,2,6-.79a110.79,110.79,0,0,0,1.15-20.1c-.16-4.22-6.28-4.19-6.53,0-.58,10.18-1.42,20.29-2.26,30.45l7.25-1a189.68,189.68,0,0,1-2.34-42.64c.28-5.11-7.28-4.89-7.82,0-2.52,22.6-2.93,45.85,2.23,68.11.37,1.62,2.77,1.21,2.82-.38Z"/><line class="cls-2" x1="433.5" y1="252.5" x2="433.5" y2="94.5"/><line class="cls-2" x1="368.5" y1="252.5" x2="368.5" y2="94.5"/><line class="cls-2" x1="303.5" y1="252.5" x2="303.5" y2="94.5"/><line class="cls-2" x1="238.5" y1="252.5" x2="238.5" y2="94.5"/><line class="cls-2" x1="173.5" y1="252.5" x2="173.5" y2="94.5"/><line class="cls-2" x1="108.5" y1="252.5" x2="108.5" y2="94.5"/><line class="cls-2" x1="43.5" y1="252.5" x2="43.5" y2="94.5"/><line class="cls-2" x1="455.5" y1="256.5" x2="455.5" y2="95"/><line class="cls-2" x1="390.5" y1="256.5" x2="390.5" y2="95"/><line class="cls-2" x1="325.5" y1="256.5" x2="325.5" y2="95"/><line class="cls-2" x1="260.5" y1="256.5" x2="260.5" y2="95"/><line class="cls-2" x1="195.5" y1="256.5" x2="195.5" y2="95"/><line class="cls-2" x1="130.5" y1="256.5" x2="130.5" y2="95"/><line class="cls-2" x1="65.5" y1="256.5" x2="65.5" y2="95"/><path d="M431,255.67a4.09,4.09,0,0,0,3.82-5.34l-4.8,2c.13-.27.17-.31.11-.09a2.49,2.49,0,0,0-.47.66,7.21,7.21,0,0,0-.41,1.23l2.37,1.38c.71-.81,1.77-1,2.43-1.9a5.34,5.34,0,0,0,.8-3.64l-3.5,1.45c.4.47,0,.85-.33,1.15l3,3c1.36-1.24,1-3.24,1.21-5a1.47,1.47,0,0,0-1.86-1.41c-2.33.95-2.12,3.82-2.27,6a11.1,11.1,0,0,0,.08,4.26,5.47,5.47,0,0,0,2.46,2.41c2,1.4,3.87-1.54,2.48-3.21a5.82,5.82,0,0,1-1.63-2.63c-.09-.83.59-1.68.94-2.38A5,5,0,0,0,436,250c-.66-2.38-4.26-1-3.2,1.34.31.72-.5,1.83-.76,2.5a7.3,7.3,0,0,0-.57,2.34,8.74,8.74,0,0,0,1.55,5l3.22-2.48c-.83-.77-.49,0-.59-1.06-.08-.9,0-1.89,0-2.8a13.48,13.48,0,0,0-.54-4.38l-.4,1.5.2-.25-2.5-1a5.49,5.49,0,0,1-.39,1.75l.71-.92a4.58,4.58,0,0,0-1.63,1.11c-1.92,2,1,4.89,3,3a4.94,4.94,0,0,0,.2-7.06c-1.14-1.25-3.65-.33-3.5,1.44.11,1.24.54,2.78.06,3.95l1.07-.61-.89-.17a1.43,1.43,0,0,0-1.37,2.37,2.77,2.77,0,0,0,4.19-.23,5.29,5.29,0,0,0,1-5c-.85-2.93-5-2.21-5.16.7,0,.52-.29.69-.65,1.17-1.07,1.43.39,3.5,2,3.47Z"/><path d="M366,255.67a4.09,4.09,0,0,0,3.82-5.34l-4.8,2c.13-.27.17-.31.11-.09a2.49,2.49,0,0,0-.47.66,7.21,7.21,0,0,0-.41,1.23l2.37,1.38c.71-.81,1.77-1,2.43-1.9a5.34,5.34,0,0,0,.8-3.64l-3.5,1.45c.4.47,0,.85-.33,1.15l3,3c1.36-1.24,1-3.24,1.21-5a1.47,1.47,0,0,0-1.86-1.41c-2.33.95-2.12,3.82-2.27,6a11.1,11.1,0,0,0,.08,4.26,5.47,5.47,0,0,0,2.46,2.41c2,1.4,3.87-1.54,2.48-3.21a5.82,5.82,0,0,1-1.63-2.63c-.09-.83.59-1.68.94-2.38A5,5,0,0,0,371,250c-.66-2.38-4.26-1-3.2,1.34.31.72-.5,1.83-.76,2.5a7.3,7.3,0,0,0-.57,2.34,8.74,8.74,0,0,0,1.55,5l3.22-2.48c-.83-.77-.49,0-.59-1.06-.08-.9,0-1.89,0-2.8a13.48,13.48,0,0,0-.54-4.38l-.4,1.5.2-.25-2.5-1a5.49,5.49,0,0,1-.39,1.75l.71-.92a4.58,4.58,0,0,0-1.63,1.11c-1.92,2,1,4.89,3,3a4.94,4.94,0,0,0,.2-7.06c-1.14-1.25-3.65-.33-3.5,1.44.11,1.24.54,2.78.06,3.95l1.07-.61-.89-.17a1.43,1.43,0,0,0-1.37,2.37,2.77,2.77,0,0,0,4.19-.23,5.29,5.29,0,0,0,1-5c-.85-2.93-5-2.21-5.16.7,0,.52-.29.69-.65,1.17-1.07,1.43.39,3.5,2,3.47Z"/><path d="M301,255.67a4.09,4.09,0,0,0,3.82-5.34l-4.8,2c.13-.27.17-.31.11-.09a2.49,2.49,0,0,0-.47.66,7.21,7.21,0,0,0-.41,1.23l2.37,1.38c.71-.81,1.77-1,2.43-1.9a5.34,5.34,0,0,0,.8-3.64l-3.5,1.45c.4.47,0,.85-.33,1.15l3,3c1.36-1.24,1-3.24,1.21-5a1.47,1.47,0,0,0-1.86-1.41c-2.33.95-2.12,3.82-2.27,6a11.1,11.1,0,0,0,.08,4.26,5.47,5.47,0,0,0,2.46,2.41c2,1.4,3.87-1.54,2.48-3.21a5.82,5.82,0,0,1-1.63-2.63c-.09-.83.59-1.68.94-2.38A5,5,0,0,0,306,250c-.66-2.38-4.26-1-3.2,1.34.31.72-.5,1.83-.76,2.5a7.3,7.3,0,0,0-.57,2.34,8.74,8.74,0,0,0,1.55,5l3.22-2.48c-.83-.77-.49,0-.59-1.06-.08-.9,0-1.89,0-2.8a13.48,13.48,0,0,0-.54-4.38l-.4,1.5.2-.25-2.5-1a5.49,5.49,0,0,1-.39,1.75l.71-.92a4.58,4.58,0,0,0-1.63,1.11c-1.92,2,1,4.89,3,3a4.94,4.94,0,0,0,.2-7.06c-1.14-1.25-3.65-.33-3.5,1.44.11,1.24.54,2.78.06,3.95l1.07-.61-.89-.17a1.43,1.43,0,0,0-1.37,2.37,2.77,2.77,0,0,0,4.19-.23,5.29,5.29,0,0,0,1-5c-.85-2.93-5-2.21-5.16.7,0,.52-.29.69-.65,1.17-1.07,1.43.39,3.5,2,3.47Z"/><path d="M236,255.67a4.09,4.09,0,0,0,3.82-5.34l-4.8,2c.13-.27.17-.31.11-.09a2.49,2.49,0,0,0-.47.66,7.21,7.21,0,0,0-.41,1.23l2.37,1.38c.71-.81,1.77-1,2.43-1.9a5.34,5.34,0,0,0,.8-3.64l-3.5,1.45c.4.47,0,.85-.33,1.15l3,3c1.36-1.24,1-3.24,1.21-5a1.47,1.47,0,0,0-1.86-1.41c-2.33.95-2.12,3.82-2.27,6a11.1,11.1,0,0,0,.08,4.26,5.47,5.47,0,0,0,2.46,2.41c2,1.4,3.87-1.54,2.48-3.21a5.82,5.82,0,0,1-1.63-2.63c-.09-.83.59-1.68.94-2.38A5,5,0,0,0,241,250c-.66-2.38-4.26-1-3.2,1.34.31.72-.5,1.83-.76,2.5a7.3,7.3,0,0,0-.57,2.34,8.74,8.74,0,0,0,1.55,5l3.22-2.48c-.83-.77-.49,0-.59-1.06-.08-.9,0-1.89,0-2.8a13.48,13.48,0,0,0-.54-4.38l-.4,1.5.2-.25-2.5-1a5.49,5.49,0,0,1-.39,1.75l.71-.92a4.58,4.58,0,0,0-1.63,1.11c-1.92,2,1,4.89,3,3a4.94,4.94,0,0,0,.2-7.06c-1.14-1.25-3.65-.33-3.5,1.44.11,1.24.54,2.78.06,3.95l1.07-.61-.89-.17a1.43,1.43,0,0,0-1.37,2.37,2.77,2.77,0,0,0,4.19-.23,5.29,5.29,0,0,0,1-5c-.85-2.93-5-2.21-5.16.7,0,.52-.29.69-.65,1.17-1.07,1.43.39,3.5,2,3.47Z"/><path d="M171,255.67a4.09,4.09,0,0,0,3.82-5.34l-4.8,2c.13-.27.17-.31.11-.09a2.49,2.49,0,0,0-.47.66,7.21,7.21,0,0,0-.41,1.23l2.37,1.38c.71-.81,1.77-1,2.43-1.9a5.34,5.34,0,0,0,.8-3.64l-3.5,1.45c.4.47,0,.85-.33,1.15l3,3c1.36-1.24,1-3.24,1.21-5a1.47,1.47,0,0,0-1.86-1.41c-2.33.95-2.12,3.82-2.27,6a11.1,11.1,0,0,0,.08,4.26,5.47,5.47,0,0,0,2.46,2.41c2,1.4,3.87-1.54,2.48-3.21a5.82,5.82,0,0,1-1.63-2.63c-.09-.83.59-1.68.94-2.38A5,5,0,0,0,176,250c-.66-2.38-4.26-1-3.2,1.34.31.72-.5,1.83-.76,2.5a7.3,7.3,0,0,0-.57,2.34,8.74,8.74,0,0,0,1.55,5l3.22-2.48c-.83-.77-.49,0-.59-1.06-.08-.9,0-1.89,0-2.8a13.48,13.48,0,0,0-.54-4.38l-.4,1.5.2-.25-2.5-1a5.49,5.49,0,0,1-.39,1.75l.71-.92a4.58,4.58,0,0,0-1.63,1.11c-1.92,2,1,4.89,3,3a4.94,4.94,0,0,0,.2-7.06c-1.14-1.25-3.65-.33-3.5,1.44.11,1.24.54,2.78.06,3.95l1.07-.61-.89-.17a1.43,1.43,0,0,0-1.37,2.37,2.77,2.77,0,0,0,4.19-.23,5.29,5.29,0,0,0,1-5c-.85-2.93-5-2.21-5.16.7,0,.52-.29.69-.65,1.17-1.07,1.43.39,3.5,2,3.47Z"/><path d="M106,255.67a4.09,4.09,0,0,0,3.82-5.34l-4.8,2c.13-.27.17-.31.11-.09a2.49,2.49,0,0,0-.47.66,7.21,7.21,0,0,0-.41,1.23l2.37,1.38c.71-.81,1.77-1,2.43-1.9a5.34,5.34,0,0,0,.8-3.64l-3.5,1.45c.4.47,0,.85-.33,1.15l3,3c1.36-1.24,1-3.24,1.21-5a1.47,1.47,0,0,0-1.86-1.41c-2.33.95-2.12,3.82-2.27,6a11.1,11.1,0,0,0,.08,4.26,5.47,5.47,0,0,0,2.46,2.41c2,1.4,3.87-1.54,2.48-3.21a5.82,5.82,0,0,1-1.63-2.63c-.09-.83.59-1.68.94-2.38A5,5,0,0,0,111,250c-.66-2.38-4.26-1-3.2,1.34.31.72-.5,1.83-.76,2.5a7.3,7.3,0,0,0-.57,2.34,8.74,8.74,0,0,0,1.55,5l3.22-2.48c-.83-.77-.49,0-.59-1.06-.08-.9,0-1.89,0-2.8a13.48,13.48,0,0,0-.54-4.38l-.4,1.5.2-.25-2.5-1a5.49,5.49,0,0,1-.39,1.75l.71-.92a4.58,4.58,0,0,0-1.63,1.11c-1.92,2,1,4.89,3,3a4.94,4.94,0,0,0,.2-7.06c-1.14-1.25-3.65-.33-3.5,1.44.11,1.24.54,2.78.06,3.95l1.07-.61-.89-.17a1.43,1.43,0,0,0-1.37,2.37,2.77,2.77,0,0,0,4.19-.23,5.29,5.29,0,0,0,1-5c-.85-2.93-5-2.21-5.16.7,0,.52-.29.69-.65,1.17-1.07,1.43.39,3.5,2,3.47Z"/><path d="M41,255.67a4.09,4.09,0,0,0,3.82-5.34l-4.8,2c.13-.27.17-.31.11-.09a2.49,2.49,0,0,0-.47.66,7.21,7.21,0,0,0-.41,1.23l2.37,1.38c.71-.81,1.77-1,2.43-1.9a5.34,5.34,0,0,0,.8-3.64l-3.5,1.45c.4.47,0,.85-.33,1.15l3,3c1.36-1.24,1-3.24,1.21-5a1.47,1.47,0,0,0-1.86-1.41c-2.33.95-2.12,3.82-2.27,6a11.1,11.1,0,0,0,.08,4.26,5.47,5.47,0,0,0,2.46,2.41c2,1.4,3.87-1.54,2.48-3.21A5.82,5.82,0,0,1,44.56,256c-.09-.83.59-1.68.94-2.38A5,5,0,0,0,46,250c-.66-2.38-4.26-1-3.2,1.34.31.72-.5,1.83-.76,2.5a7.3,7.3,0,0,0-.57,2.34,8.74,8.74,0,0,0,1.55,5l3.22-2.48c-.83-.77-.49,0-.59-1.06-.08-.9,0-1.89,0-2.8a13.48,13.48,0,0,0-.54-4.38l-.4,1.5.2-.25-2.5-1A5.49,5.49,0,0,1,42,252.4l.71-.92a4.58,4.58,0,0,0-1.63,1.11c-1.92,2,1,4.89,3,3a4.94,4.94,0,0,0,.2-7.06c-1.14-1.25-3.65-.33-3.5,1.44.11,1.24.54,2.78.06,3.95l1.07-.61-.89-.17a1.43,1.43,0,0,0-1.37,2.37,2.77,2.77,0,0,0,4.19-.23,5.29,5.29,0,0,0,1-5c-.85-2.93-5-2.21-5.16.7,0,.52-.29.69-.65,1.17-1.07,1.43.39,3.5,2,3.47Z"/><path d="M458.79,257.65a3.06,3.06,0,0,0-.37-1.38l-.42-.54c-.73-.75-.81.11-.21,2.58l-4.59-1.9c0,1.47-.15,3.08.52,4.42l3.42-3.43-.56-.24.53.53a10.39,10.39,0,0,0-.65-1,4.63,4.63,0,0,1-.51-1.21.68.68,0,0,0-1.33.18,3.53,3.53,0,0,0,.08,1,.57.57,0,0,0,1.09,0,3.53,3.53,0,0,0,.18-1l-1.33.18a2.34,2.34,0,0,1,.08,1.2c-.07.33-.22.66-.32,1l.68-.89-.46.24a2.5,2.5,0,1,0,3.42,3.43c.68-1.34.5-2.95.54-4.42.05-2.25-3-3.66-4.59-1.9a3.55,3.55,0,0,0-.93,3.29,3.11,3.11,0,0,0,2.35,2.38,2.76,2.76,0,0,0,3-1.22,2.54,2.54,0,0,0,.37-1.31Z"/><path d="M393.79,257.65a3.06,3.06,0,0,0-.37-1.38l-.42-.54c-.73-.75-.81.11-.21,2.58l-4.59-1.9c0,1.47-.15,3.08.52,4.42l3.42-3.43-.56-.24.53.53a10.39,10.39,0,0,0-.65-1,4.63,4.63,0,0,1-.51-1.21.68.68,0,0,0-1.33.18,3.53,3.53,0,0,0,.08,1,.57.57,0,0,0,1.09,0,3.53,3.53,0,0,0,.18-1l-1.33.18a2.34,2.34,0,0,1,.08,1.2c-.07.33-.22.66-.32,1l.68-.89-.46.24a2.5,2.5,0,1,0,3.42,3.43c.68-1.34.5-2.95.54-4.42.05-2.25-3-3.66-4.59-1.9a3.55,3.55,0,0,0-.93,3.29,3.11,3.11,0,0,0,2.35,2.38,2.76,2.76,0,0,0,3-1.22,2.54,2.54,0,0,0,.37-1.31Z"/><path d="M328.79,257.65a3.06,3.06,0,0,0-.37-1.38l-.42-.54c-.73-.75-.81.11-.21,2.58l-4.59-1.9c0,1.47-.15,3.08.52,4.42l3.42-3.43-.56-.24.53.53a10.39,10.39,0,0,0-.65-1,4.63,4.63,0,0,1-.51-1.21.68.68,0,0,0-1.33.18,3.53,3.53,0,0,0,.08,1,.57.57,0,0,0,1.09,0,3.53,3.53,0,0,0,.18-1l-1.33.18a2.34,2.34,0,0,1,.08,1.2c-.07.33-.22.66-.32,1l.68-.89-.46.24a2.5,2.5,0,1,0,3.42,3.43c.68-1.34.5-2.95.54-4.42.05-2.25-3-3.66-4.59-1.9a3.55,3.55,0,0,0-.93,3.29,3.11,3.11,0,0,0,2.35,2.38,2.76,2.76,0,0,0,3-1.22,2.54,2.54,0,0,0,.37-1.31Z"/><path d="M263.79,257.65a3.06,3.06,0,0,0-.37-1.38l-.42-.54c-.73-.75-.81.11-.21,2.58l-4.59-1.9c0,1.47-.15,3.08.52,4.42l3.42-3.43-.56-.24.53.53a10.39,10.39,0,0,0-.65-1,4.63,4.63,0,0,1-.51-1.21.68.68,0,0,0-1.33.18,3.53,3.53,0,0,0,.08,1,.57.57,0,0,0,1.09,0,3.53,3.53,0,0,0,.18-1l-1.33.18a2.34,2.34,0,0,1,.08,1.2c-.07.33-.22.66-.32,1l.68-.89-.46.24a2.5,2.5,0,1,0,3.42,3.43c.68-1.34.5-2.95.54-4.42.05-2.25-3-3.66-4.59-1.9a3.55,3.55,0,0,0-.93,3.29,3.11,3.11,0,0,0,2.35,2.38,2.76,2.76,0,0,0,3-1.22,2.54,2.54,0,0,0,.37-1.31Z"/><path d="M198.79,257.65a3.06,3.06,0,0,0-.37-1.38l-.42-.54c-.73-.75-.81.11-.21,2.58l-4.59-1.9c0,1.47-.15,3.08.52,4.42l3.42-3.43-.56-.24.53.53a10.39,10.39,0,0,0-.65-1,4.63,4.63,0,0,1-.51-1.21.68.68,0,0,0-1.33.18,3.53,3.53,0,0,0,.08,1,.57.57,0,0,0,1.09,0,3.53,3.53,0,0,0,.18-1l-1.33.18a2.34,2.34,0,0,1,.08,1.2c-.07.33-.22.66-.32,1l.68-.89-.46.24a2.5,2.5,0,1,0,3.42,3.43c.68-1.34.5-2.95.54-4.42,0-2.25-3-3.66-4.59-1.9a3.55,3.55,0,0,0-.93,3.29,3.11,3.11,0,0,0,2.35,2.38,2.76,2.76,0,0,0,3-1.22,2.54,2.54,0,0,0,.37-1.31Z"/><path d="M133.79,257.65a3.06,3.06,0,0,0-.37-1.38l-.42-.54c-.73-.75-.81.11-.21,2.58l-4.59-1.9c0,1.47-.15,3.08.52,4.42l3.42-3.43-.56-.24.53.53a10.39,10.39,0,0,0-.65-1,4.63,4.63,0,0,1-.51-1.21.68.68,0,0,0-1.33.18,3.53,3.53,0,0,0,.08,1,.57.57,0,0,0,1.09,0,3.53,3.53,0,0,0,.18-1l-1.33.18a2.34,2.34,0,0,1,.08,1.2c-.07.33-.22.66-.32,1l.68-.89-.46.24a2.5,2.5,0,1,0,3.42,3.43c.68-1.34.5-2.95.54-4.42,0-2.25-3-3.66-4.59-1.9a3.55,3.55,0,0,0-.93,3.29,3.11,3.11,0,0,0,2.35,2.38,2.76,2.76,0,0,0,3-1.22,2.54,2.54,0,0,0,.37-1.31Z"/><path d="M68.79,257.65a3.06,3.06,0,0,0-.37-1.38l-.42-.54c-.73-.75-.81.11-.21,2.58l-4.59-1.9c0,1.47-.15,3.08.52,4.42l3.42-3.43-.56-.24.53.53a10.39,10.39,0,0,0-.65-1A4.63,4.63,0,0,1,66,255.5a.68.68,0,0,0-1.33.18,3.53,3.53,0,0,0,.08,1,.57.57,0,0,0,1.09,0,3.53,3.53,0,0,0,.18-1l-1.33.18a2.34,2.34,0,0,1,.08,1.2c-.07.33-.22.66-.32,1l.68-.89-.46.24A2.5,2.5,0,1,0,68,260.83c.68-1.34.5-2.95.54-4.42,0-2.25-3-3.66-4.59-1.9a3.55,3.55,0,0,0-.93,3.29,3.11,3.11,0,0,0,2.35,2.38,2.76,2.76,0,0,0,3-1.22,2.54,2.54,0,0,0,.37-1.31Z"/><path d="M431.12,251.13c-.78,2.4-.29,5.22-1.62,7.43-1.54,2.55,1.79,4.6,3.84,3,3.52-2.8,3-8.49,2.27-12.39L433,252.61l.42.06-1.94-.81c.1.09.75,4.14.31,4.44l3.72,3.72c1.51-3.49,4-10-1.06-11.81-1.56-.57-2.91.88-3,2.29-.08,1.15.51,2.07.56,3.18a7.57,7.57,0,0,1-1.18,3.6c-1.14,2.26,1.29,5.3,3.71,3.71,2.64-1.73,2.9-4.34,2.64-7.25-.22-2.42-.3-6.09-3.44-6.52-2.13-.3-3.81,1.15-3.38,3.38s1.38,5.75-.43,7.46l3.85,3c1.55-3.25,1-6.55,0-9.9a1.37,1.37,0,0,0-2.63,0Z"/><path d="M366.12,251.13c-.78,2.4-.29,5.22-1.62,7.43-1.54,2.55,1.79,4.6,3.84,3,3.52-2.8,3-8.49,2.27-12.39L368,252.61l.42.06-1.94-.81c.1.09.75,4.14.31,4.44l3.72,3.72c1.51-3.49,4-10-1.06-11.81-1.56-.57-2.91.88-3,2.29-.08,1.15.51,2.07.56,3.18a7.57,7.57,0,0,1-1.18,3.6c-1.14,2.26,1.29,5.3,3.71,3.71,2.64-1.73,2.9-4.34,2.64-7.25-.22-2.42-.3-6.09-3.44-6.52-2.13-.3-3.81,1.15-3.38,3.38s1.38,5.75-.43,7.46l3.85,3c1.55-3.25,1-6.55,0-9.9a1.37,1.37,0,0,0-2.63,0Z"/><path d="M301.12,251.13c-.78,2.4-.29,5.22-1.62,7.43-1.54,2.55,1.79,4.6,3.84,3,3.52-2.8,3-8.49,2.27-12.39L303,252.61l.42.06-1.94-.81c.1.09.75,4.14.31,4.44l3.72,3.72c1.51-3.49,4-10-1.06-11.81-1.56-.57-2.91.88-3,2.29-.08,1.15.51,2.07.56,3.18a7.57,7.57,0,0,1-1.18,3.6c-1.14,2.26,1.29,5.3,3.71,3.71,2.64-1.73,2.9-4.34,2.64-7.25-.22-2.42-.3-6.09-3.44-6.52-2.13-.3-3.81,1.15-3.38,3.38s1.38,5.75-.43,7.46l3.85,3c1.55-3.25,1-6.55,0-9.9a1.37,1.37,0,0,0-2.63,0Z"/><path d="M236.12,251.13c-.78,2.4-.29,5.22-1.62,7.43-1.54,2.55,1.79,4.6,3.84,3,3.52-2.8,3-8.49,2.27-12.39L238,252.61l.42.06-1.94-.81c.1.09.75,4.14.31,4.44l3.72,3.72c1.51-3.49,4-10-1.06-11.81-1.56-.57-2.91.88-3,2.29-.08,1.15.51,2.07.56,3.18a7.57,7.57,0,0,1-1.18,3.6c-1.14,2.26,1.29,5.3,3.71,3.71,2.64-1.73,2.9-4.34,2.64-7.25-.22-2.42-.3-6.09-3.44-6.52-2.13-.3-3.81,1.15-3.38,3.38s1.38,5.75-.43,7.46l3.85,3c1.55-3.25,1-6.55,0-9.9a1.37,1.37,0,0,0-2.63,0Z"/><path d="M171.12,251.13c-.78,2.4-.29,5.22-1.62,7.43-1.54,2.55,1.79,4.6,3.84,3,3.52-2.8,3-8.49,2.27-12.39L173,252.61l.42.06-1.94-.81c.1.09.75,4.14.31,4.44l3.72,3.72c1.51-3.49,4-10-1.06-11.81-1.56-.57-2.91.88-3,2.29-.08,1.15.51,2.07.56,3.18a7.57,7.57,0,0,1-1.18,3.6c-1.14,2.26,1.29,5.3,3.71,3.71,2.64-1.73,2.9-4.34,2.64-7.25-.22-2.42-.3-6.09-3.44-6.52-2.13-.3-3.81,1.15-3.38,3.38s1.38,5.75-.43,7.46l3.85,3c1.55-3.25,1-6.55,0-9.9a1.37,1.37,0,0,0-2.63,0Z"/><path d="M106.12,251.13c-.78,2.4-.29,5.22-1.62,7.43-1.54,2.55,1.79,4.6,3.84,3,3.52-2.8,3-8.49,2.27-12.39L108,252.61l.42.06-1.94-.81c.1.09.75,4.14.31,4.44l3.72,3.72c1.51-3.49,4-10-1.06-11.81-1.56-.57-2.91.88-3,2.29-.08,1.15.51,2.07.56,3.18a7.57,7.57,0,0,1-1.18,3.6c-1.14,2.26,1.29,5.3,3.71,3.71,2.64-1.73,2.9-4.34,2.64-7.25-.22-2.42-.3-6.09-3.44-6.52-2.13-.3-3.81,1.15-3.38,3.38s1.38,5.75-.43,7.46l3.85,3c1.55-3.25,1-6.55,0-9.9a1.37,1.37,0,0,0-2.63,0Z"/><path d="M41.12,251.13c-.78,2.4-.29,5.22-1.62,7.43-1.54,2.55,1.79,4.6,3.84,3,3.52-2.8,3-8.49,2.27-12.39L43,252.61l.42.06-1.94-.81c.1.09.75,4.14.31,4.44L45.47,260c1.51-3.49,4-10-1.06-11.81-1.56-.57-2.91.88-3,2.29-.08,1.15.51,2.07.56,3.18a7.57,7.57,0,0,1-1.18,3.6c-1.14,2.26,1.29,5.3,3.71,3.71,2.64-1.73,2.9-4.34,2.64-7.25-.22-2.42-.3-6.09-3.44-6.52-2.13-.3-3.81,1.15-3.38,3.38s1.38,5.75-.43,7.46l3.85,3c1.55-3.25,1-6.55,0-9.9a1.37,1.37,0,0,0-2.63,0Z"/><path d="M425.93,260.87c7.21,6.41,22.89,5.85,30.94,1.22a3.1,3.1,0,0,0,1.41-3.47c-1.65-4-6.16-1.19-9.22-.52a37.27,37.27,0,0,1-10.58.87c-3.58-.24-6.68-1.55-10.15-2.23-2.23-.43-4.39,2.36-2.4,4.13Z"/><path d="M360.93,260.87c7.21,6.41,22.89,5.85,30.94,1.22a3.1,3.1,0,0,0,1.41-3.47c-1.65-4-6.16-1.19-9.22-.52a37.27,37.27,0,0,1-10.58.87c-3.58-.24-6.68-1.55-10.15-2.23-2.23-.43-4.39,2.36-2.4,4.13Z"/><path d="M295.93,260.87c7.21,6.41,22.89,5.85,30.94,1.22a3.1,3.1,0,0,0,1.41-3.47c-1.65-4-6.16-1.19-9.22-.52a37.27,37.27,0,0,1-10.58.87c-3.58-.24-6.68-1.55-10.15-2.23-2.23-.43-4.39,2.36-2.4,4.13Z"/><path d="M230.93,260.87c7.21,6.41,22.89,5.85,30.94,1.22a3.1,3.1,0,0,0,1.41-3.47c-1.65-4-6.16-1.19-9.22-.52a37.27,37.27,0,0,1-10.58.87c-3.58-.24-6.68-1.55-10.15-2.23-2.23-.43-4.39,2.36-2.4,4.13Z"/><path d="M165.93,260.87c7.21,6.41,22.89,5.85,30.94,1.22a3.1,3.1,0,0,0,1.41-3.47c-1.65-4-6.16-1.19-9.22-.52a37.27,37.27,0,0,1-10.58.87c-3.58-.24-6.68-1.55-10.15-2.23-2.23-.43-4.39,2.36-2.4,4.13Z"/><path d="M100.93,260.87c7.21,6.41,22.89,5.85,30.94,1.22a3.1,3.1,0,0,0,1.41-3.47c-1.65-4-6.16-1.19-9.22-.52a37.27,37.27,0,0,1-10.58.87c-3.58-.24-6.68-1.55-10.15-2.23-2.23-.43-4.39,2.36-2.4,4.13Z"/><path d="M35.93,260.87c7.21,6.41,22.89,5.85,30.94,1.22a3.1,3.1,0,0,0,1.41-3.47c-1.65-4-6.16-1.19-9.22-.52a37.27,37.27,0,0,1-10.58.87c-3.58-.24-6.68-1.55-10.15-2.23-2.23-.43-4.39,2.36-2.4,4.13Z"/><path d="M430.36,258c4.29,4.09,14.47,8.86,19.85,4.62,1-.77.52-2.32-.37-2.89-2.41-1.55-5.33-1.08-8-1.72a39.9,39.9,0,0,1-8.75-3.5c-2.17-1.08-4.62,1.66-2.7,3.49Z"/><path d="M365.36,258c4.29,4.09,14.47,8.86,19.85,4.62,1-.77.52-2.32-.37-2.89-2.41-1.55-5.33-1.08-8-1.72a39.9,39.9,0,0,1-8.75-3.5c-2.17-1.08-4.62,1.66-2.7,3.49Z"/><path d="M300.36,258c4.29,4.09,14.47,8.86,19.85,4.62,1-.77.52-2.32-.37-2.89-2.41-1.55-5.33-1.08-8-1.72a39.9,39.9,0,0,1-8.75-3.5c-2.17-1.08-4.62,1.66-2.7,3.49Z"/><path d="M235.36,258c4.29,4.09,14.47,8.86,19.85,4.62,1-.77.52-2.32-.37-2.89-2.41-1.55-5.33-1.08-8-1.72a39.9,39.9,0,0,1-8.75-3.5c-2.17-1.08-4.62,1.66-2.7,3.49Z"/><path d="M170.36,258c4.29,4.09,14.47,8.86,19.85,4.62,1-.77.52-2.32-.37-2.89-2.41-1.55-5.33-1.08-8-1.72a39.9,39.9,0,0,1-8.75-3.5c-2.17-1.08-4.62,1.66-2.7,3.49Z"/><path d="M105.36,258c4.29,4.09,14.47,8.86,19.85,4.62,1-.77.52-2.32-.37-2.89-2.41-1.55-5.33-1.08-8-1.72a39.9,39.9,0,0,1-8.75-3.5c-2.17-1.08-4.62,1.66-2.7,3.49Z"/><path d="M40.36,258c4.29,4.09,14.47,8.86,19.85,4.62,1-.77.52-2.32-.37-2.89-2.41-1.55-5.33-1.08-8-1.72a39.9,39.9,0,0,1-8.75-3.5c-2.17-1.08-4.62,1.66-2.7,3.49Z"/><path class="cls-3" d="M53.89,92.87C52.44,90,56.26,85.78,58,83.93A44.27,44.27,0,0,1,66.59,77l-5.33-5.32c-4.06,6-17.35,14.4-9.71,23a3.83,3.83,0,0,0,3.78,1c3.51-1,4-4.52,5.58-7.36a47,47,0,0,1,7.55-9.27l-5.39-4.15c-3.42,4.65-6.78,8.94-9.18,14.27-1.56,3.44,2.69,7.62,5.64,4.35s4.2-7.63,5.92-11.48l-5.51-3.23c-2.37,4.75-4.13,10.7-2.94,16,1,4.27,7.89,2.4,6.57-1.81A3,3,0,0,0,62,91l1.56,3.85c.65-4.68.66-9,2.21-13.54,1.16-3.43-4.13-5.63-5.84-2.46s-3.15,6.94-5.49,9.63l6,3.5c1.63-4.72,4.17-9.57,8-12.89,3-2.57-.86-7.37-4.16-5.38a26.57,26.57,0,0,0-7.7,7.05c-2.14,2.85-3.25,6-5,9.06L53.9,88l-.64.19,3.79,1c.26.29.85-2.13,1.16-2.71a17.21,17.21,0,0,1,3.17-3.9c2-2.06,4.1-4,6-6.23a3.91,3.91,0,0,0-4.71-6.11c-6.72,3.24-26,20.58-11.17,25.72,1.87.64,3.18-1.59,2.4-3.12Z"/><path class="cls-3" d="M62.4,97.56c2-3.09-1.32-5.61-4-6.24a51.91,51.91,0,0,0-12.56-1v8.25a93.16,93.16,0,0,1,13.47.07l-1-7.39c-3.34.77-6.63.51-10,1-1.89.25-3.44,1.25-3.72,3.28a3.75,3.75,0,0,0,2.71,4.15c4.26.84,8.82-.13,13-1.12,3.42-.82,3.76-6.7,0-7.26a90.89,90.89,0,0,0-14.47-.93c-5.31.07-5.3,8.48,0,8.25,2.47-.11,4.91-.07,7.38,0,1,0,2.1,0,3.15,0a20.35,20.35,0,0,1,2.78,0,2.48,2.48,0,0,0,3.3-.86Z"/><path class="cls-3" d="M44.83,83.6c5.61,1,8.75-4.57,13.39-6.95C65.53,72.9,74,72.83,82,73.3l-1.09-8a54.86,54.86,0,0,0-22.29,8.51c-2.66,1.74-2.48,6.29.93,7.1,3.61.85,6.44-.34,9.9-1.36a71,71,0,0,1,14.6-2.66,3.86,3.86,0,0,0,0-7.72C76.78,68.36,70.19,71,63.71,74c-3.94,1.82-1.1,8.72,3,7.08,6.11-2.45,12-5.2,17.77-8.18,2.45-1.25.6-4.46-1.73-4.11a79.11,79.11,0,0,0-18.1,4.82l3,7.08c5.31-2.46,10.5-4.48,16.44-3.86V69.13A86.38,86.38,0,0,0,72.85,70.7c-2.89.62-8.34,3.42-11.23,2.68l.93,7.09A47.72,47.72,0,0,1,82,73.3c5.1-.66,5.4-7.91,0-8.19-7.93-.4-16-.12-23.38,3.06a29.14,29.14,0,0,0-8.58,5.42c-2.24,2.12-3.71,5-6,7a1.79,1.79,0,0,0,.78,3Z"/><path class="cls-3" d="M75.27,75.59l41.94.73c4.55.08,4.5-6.8,0-7-6.83-.37-13.7-.35-20.54-.48-2,0-19.26.72-19.69-1l-2,3.47a108.87,108.87,0,0,1,39.43-.2l.9-6.6a120.5,120.5,0,0,0-33.49,1.07c-3.77.6-2.77,6.54.89,6.54l23.57,0c6.4,0,15.72-1.68,21.29,2.11l.94-7.17A49.18,49.18,0,0,1,108.3,69l2.85,6.87a8.47,8.47,0,0,1,3.68-2.94l-2.7-.35c1.47.93,3.19,5.27,4.09,6.8l5.53-4.27c-3.47-4-7.8-6-13-6.74-1.89-.28-4.31,1.22-3.47,3.47,1.59,4.28,4.65,7.94,9.37,8.62,1.55.22,3.69-.67,3.47-2.64a22.19,22.19,0,0,0-1.37-5.91c-.86-2.09-4.5-2.82-5,0-1,5.29-1.07,10.29,1.27,15.2,1.49,3.11,5.68,1.22,5.93-1.61.42-4.74-1.26-8.35-4.33-11.86-1.15-1.32-3.23-.51-3.7,1-1.38,4.32-1.48,8.73,1,12.65a3.49,3.49,0,0,0,6.34-2.67l-1.71-8.09c-.63-3-4.69-2.47-5.59,0-2,5.53-2.5,11.38,1.55,16.05,1.67,1.92,5,.83,5.58-1.47.92-3.47.13-5.5-.91-8.85a1.74,1.74,0,0,0-3.14-.41c-2.41,3.71-3.42,8-1.21,12,1.08,2,3.42,1.83,5,.63,2.45-1.91,2.93-4.11,2.51-7.07-.23-1.68-2.56-2.39-3.86-1.57a16.05,16.05,0,0,0-6.17,6.28A3,3,0,0,0,112,96.44c4.42,1.69,9,1.7,13.64,1.37,1.83-.13,3.89-1.59,3.68-3.68a169.15,169.15,0,0,1-.8-20.75c.08-3.61-4.47-4.25-6.31-1.7A29.13,29.13,0,0,0,117,90.36l7.37-1c-1-4.43-1.87-8.56-.45-13l-6,1.6c2.16,2.58,1.64,5.24.78,8.16l6.66-.88-.42-1.94A2.62,2.62,0,0,0,120.05,82a10.94,10.94,0,0,0-1.53,5.09c-.32,3.66,5.13,4.9,6.79,1.85,3-5.47,1.42-11.45-2.32-16.09-1.83-2.28-5.27-.73-6,1.59-1.9,5.64-1,11.25.19,16.93,1,4.71,8.29,2.73,7.24-2a15.65,15.65,0,0,1,3.15-13.58l-5.78-2.4A169,169,0,0,0,122,94.13l3.67-3.67c-4.3.28-8.56-.09-12.86.16l3,3,2.67-3-3.24-3.24-1.26,2.13,4.31,1.13c-1.16-2.5-2.12-4.72-1.09-7.52l-3.37-.46c.29,2.25-.8,4-1.82,5.82h5.76c-1.58-3.18-3.36-6.21-1.49-9.77l-5.41-1.46.6,8.23,6.46-1.75c-1.33-2.89-2.55-5.33-2.64-8.56l-3.78,1.56c2.18,2.34,2.23,5.08,1.21,7.88h6.14c-1-4.09-2.1-7.78-2-12L112,73.87l.75,3.17,4-1.64c-2.92-1.36-5-2.69-6.32-5.78l-3.19,4.15c4,1,6.92,3.26,9.54,6.28s7.56-.88,5.53-4.27c-1.79-3-3.67-8.53-7.47-9.65-3.5-1-7.25,1.5-9.38,4-2.38,2.79-.68,6.49,2.85,6.87a52,52,0,0,0,22.32-2.4,4,4,0,0,0,.94-7.16c-6.29-4-14.23-2.85-21.33-2.68l-27.49.66L83.63,72a108.71,108.71,0,0,1,31.71-.78c3.73.42,4.62-6,.89-6.6a105.83,105.83,0,0,0-42.72,1.24,2.85,2.85,0,0,0-2,3.47c1.85,6.16,11.54,4.4,16.33,4.78,9.77.78,19.55,1.8,29.34,2.24v-7L75.27,68.9c-4.3,0-4.3,6.62,0,6.69Z"/><path class="cls-3" d="M123.07,78.63c16.34.9,34.42,1.54,50.35-2.78,4.29-1.17,3.61-8.68-1.09-8a261.27,261.27,0,0,1-50.4,1.49v6.6c7.73-.79,15.35-1.85,23.15-1.93a182.16,182.16,0,0,1,23.22,1.63V67.86c-15,.48-30-.68-44.93-2.39L126.65,68l-.16-.71-.87,3.3c.93-.85,5.66-.29,6.93-.34,2.52-.09,5-.17,7.57-.23,4.73-.11,9.45-.15,14.18,0,9.79.23,19.35,1.49,29,2.77V65.17C167.71,66.76,152,67.79,136.54,71c-3.34.68-2.32,5.45.76,5.66,8.25.54,16.5,1.17,24.76,1.55,7.44.34,16.26-.44,23.24,2.59l3.07-7.29c-8.52-1.34-17.24-2.21-25.84-2.87v6.54a81.25,81.25,0,0,1,9.36.32c2.41.24,8.84.17,10.43,2.36l1.8-4.43c-4,1-7.72-.59-10.76-3.24l-2.07,3.56a15.83,15.83,0,0,1,9.37,8.52c1.43,2.94,6.05.33,4.43-2.58a20.62,20.62,0,0,0-12.67-10c-2.5-.72-3.43,2.51-1.64,3.89,4.06,3.13,8.42,4.51,13.34,5.71a3,3,0,0,0,3.71-3.71c-1.12-4-4.86-4.79-8.58-5.45a95.67,95.67,0,0,0-16.72-1.45c-4.28,0-4.12,6.15,0,6.54a179.37,179.37,0,0,1,23.72,4c5.12,1.18,6.79-5.81,2.12-7.69-7.33-3-15.59-2.38-23.34-2.53-9.24-.17-18.48-.1-27.73-.09l.77,5.66c14.36-5,29.27-7.31,44.26-3.94,4.71,1.06,6.72-6,2-7.27-12.42-3.2-25.8-3.1-38.53-2.66-6.31.22-12.61.64-18.91,1-3.82.25-7.77,1.44-6.79,6.08a3.49,3.49,0,0,0,3.27,2.5c14.94,1.84,29.91,2.59,44.93,3.32,4.27.2,5.37-6.9,1-7.59-15.59-2.45-32.91-2.48-48.28,1.41-3.55.9-2.89,6.68.88,6.48a421.63,421.63,0,0,1,50.4.1V67.8c-8.2.49-16.35,1.73-24.54,2.3s-16.48.84-24.72,1.53a3.5,3.5,0,0,0,0,7Z"/><path class="cls-3" d="M175.88,79c-.24,3.76.94,7.76,1.93,11.36,1.2,4.37,8.6,3.69,8.16-1.11-.26-2.92-1.1-5.74-1.38-8.68-.21-2.09-3.05-4-4.71-1.95-1.91,2.36-2,4.57-1.91,7.54a5.8,5.8,0,0,1-.44,3.33c-.61,1-1.64,1.53-2.18,2.68-1.1,2.33.16,5.6,3.13,5.46a55.76,55.76,0,0,1,11.25.72c2.49.39,5-1,5-3.8v-.28a3.64,3.64,0,0,0-2.65-3.48,42.58,42.58,0,0,0-14.55-.29l4.1,5.34c.52-.94,1.76-1.52,2.36-2.52a9.19,9.19,0,0,0,1.13-3.93c.23-2.92-.53-5.88-.52-8.82h-5.51c-.3,2.94-1.15,5.76-1.42,8.68l8.17-1.1c-1.28-3.57-2.13-7.41-3.82-10.81-1.55-3.13-5.95-1.35-6.13,1.66Z"/><path class="cls-3" d="M188.17,91a15.63,15.63,0,0,1,.75-13.65l-7.45-2c0,5,0,10,.09,14.93a4,4,0,0,0,5,3.82c2.58-.67,3.54-2.65,3.88-5.1a93.64,93.64,0,0,0,.63-11.24h-7.26c.32,4.51.18,9.09.09,13.61-.08,3.64,4.87,4.77,6.69,1.81,2-3.19,1.23-6.57,1.29-10.12.06-3.35,2.06-8.2-.14-11-.6-.77-1.69-1.57-2.75-1.12-3.31,1.39-3.7,4.2-4.13,7.54a44.64,44.64,0,0,0-.37,5.29c0,1.61.72,4.33-.1,5.83l6.69,1.82c-.13-4.52-.3-9.1,0-13.61.26-4-6.5-5-7.13-1-.3,2-.57,3.91-.81,5.88-.16,1.3.1,4.4-.55,5.46L185,86.28l-.5.14,5,3.82c-.13-5-.11-10,0-14.93.07-4-5.51-5.46-7.45-2a20.67,20.67,0,0,0-.13,20.32c1.8,3.36,7.72,1,6.28-2.64Z"/><path class="cls-3" d="M180.9,80.19c10.6-2,21.6-1,32.28-.29,5.95.4,18,3.42,21.25-3.73a3.7,3.7,0,0,0-1.3-4.94C226.75,67.41,217,70,210,70.52q-13.89,1.13-27.78,2.13l3,5.22c2-2.64,7.09-2.17,10-2.37,3.54-.24,7.07-.5,10.62-.67,7.41-.35,14.82-.38,22.23-.17,5,.14,4.94-7.44,0-7.74-16-1-32-1.18-48.05-2.21v6.43a297.84,297.84,0,0,1,57.67,4.09l.94-6.91c-7.81.41-15.61.93-23.42,1.2s-15.67-.88-23.41-1.7l.79,5.83a232.82,232.82,0,0,1,31.55-4.23q7.49-.42,15-.19c2.51.08,12.27-.73,13.28,2.54l2.94-5.18c-12.65,2-25.3,3.66-38.09,4.56l1.09,8.06c17-3,34.12-5.78,51.45-4.1l-1.05-7.76C255.56,71,242,70.73,228.48,70.48v7.61c15.51-.75,30.93-.35,46.45-.11V71.21c-14.22,1.29-28.27,2.42-42.56,2.65v5.83c24-2.25,47.64-3.3,71.7-1.76,3.72.24,4.92-5.12,1.86-6.86-3.46-2-6.9-1.89-10.79-1.73-5.16.21-10.33.42-15.49.67-10.43.51-22,.58-32.09-2.19l.74,5.66c7.62-3.24,18-1.31,26-.84,8.78.52,17.56,1,26.34,1.61v-8c-18.08.47-36.85,2.77-54.7-1.46l.66,5.06c3.8-2.7,9.2-1.25,13.49-.69q8,1,16,2.33c5,.79,10,1.71,15,2.54,2.52.41,5,.79,7.55,1.2.76.12,6,1.39,5.79.42l3-5.31a184.22,184.22,0,0,1-38.33,2.31V80.1c13.29.32,26.55.47,39.84.23,5.64-.09,5.61-9,0-8.75-13.27.68-26.55,1.12-39.84,1.09-4.85,0-4.7,7,0,7.43a173.74,173.74,0,0,0,40.63-1.41c2.39-.37,3.46-3.26,3-5.31-1.24-5.75-8-5.87-12.73-6.68-7-1.18-14-2.08-21-2.85s-13.91-1.42-20.88-1.94c-5.49-.41-10.74-.42-14.94,3.62-1.9,1.82-.27,4.45,2,4.72,18.44,2.21,36.8,4.12,55.43,4,5.2,0,5.05-7.55,0-8C290.56,65.43,280.53,65,270.4,65c-8.56,0-17.27-.51-25.23,3.12-3.34,1.52-.86,6.32,2.39,5.65,8.84-1.83,18.29-1.17,27.25-.6,4.19.26,8.4.86,12.58,1.3,3.91.42,10.95-.11,14.08,2.36l2.6-6.28C280,69.31,255.4,70,231.6,74c-3.21.53-2.5,6,.77,5.72,14.22-1.23,28.29-1.54,42.56-1.71,4.42-.06,4.27-6.37,0-6.77-15.38-1.44-31-1.26-46.45-.73-4.9.17-4.91,7.45,0,7.61,14.22.46,28.51.59,42.36-3.12,4.56-1.22,3.18-7.32-1-7.76-18-1.86-35.9,1.07-53.63,4.08-4.54.78-3.51,8.36,1.09,8.07a369.08,369.08,0,0,0,40.33-4.66,4.22,4.22,0,0,0,2.93-5.17c-3.59-10.81-20.08-8.52-28.89-8.23A149.14,149.14,0,0,0,191,67.93a3,3,0,0,0,.79,5.83c7.79.2,15.66.09,23.41.86a142.08,142.08,0,0,0,23.42.74c3.69-.24,5.09-6.25.93-6.92A307.42,307.42,0,0,0,180,64.71c-4.15.14-4.12,6.2,0,6.43,16,.87,32,2.57,48.05,3.52V66.92a277.16,277.16,0,0,0-29.95.69c-6.8.55-14.63.64-18.88,6.76-1.4,2,.44,5.52,3,5.21,8-1,15.92-1.75,24-2.22q5.74-.33,11.51-.59c3.46-.15,8.74-1.25,11.8.69l-1.29-4.94c-1,2-10.2.37-12.15.23-4.14-.28-8.27-.6-12.41-.77a78.48,78.48,0,0,0-24.26,2.67c-3.62,1-2.07,6.22,1.52,5.54Z"/><path class="cls-3" d="M241.55,93.76c4.3,4.22,12.36,3.66,18,3.23,2.22-.16,4.84-1.95,4.53-4.53-.6-5.16-5.58-4.56-9.63-4.44-4.73.13-9.15-.3-12.94,2.83a2.08,2.08,0,0,0,0,2.91Z"/><path class="cls-3" d="M242.83,91.34c2.85-3.51,3.53-8.62,4.89-12.86l-7.63-1a89.68,89.68,0,0,0,1.49,13.37c.68,3.72,5.38,3.34,7.19.94a12.26,12.26,0,0,0,2-5.62c.26-1.39.83-5.1,2.38-5.75l-2.32-.31.38.28-1.61-2.81c-.12,3.72-.6,7.57-.2,11.28.26,2.4,2.55,5.22,5.35,4.07a6,6,0,0,0,4.09-4.52c.62-2.78-.48-5.36-.63-8.12a1.71,1.71,0,0,0-3.15-.86c-.8,1.4-1.84,2.58-2.76,3.89a3.88,3.88,0,0,0-1,1.76c-.48,1-.41,1.07.22.13l6.21,2.53c-1.1-3.73.63-9.59-2.54-12.46a3.25,3.25,0,0,0-3.17-.84c-2.53.9-3.9,3.5-5.38,5.6-1.76,2.47-2.86,5.4-4.66,7.77l7.2.94a87,87,0,0,1-1.31-11.27c-.22-4.33-6.34-5.33-7.64-1s-3.2,9.39-1.93,13.72c.53,1.8,3.2,2.85,4.54,1.2Z"/><path class="cls-3" d="M253.35,79.83a11.46,11.46,0,0,1-.87,4.26c-.59,1-.75,1.09-2,1.71a84.64,84.64,0,0,1-8.9,3.28c-5.1,1.83-3.13,9.46,2.26,8.19a17.14,17.14,0,0,0,5.19-2c3.28-2,1.75-6.71-1.89-7a17.79,17.79,0,0,0-5.56.73l3.27,7.76c2.1-1,4.19-2,6.31-3s4.41-1.31,6.19-2.56c3.36-2.36,3.89-7.73,4.13-11.46.33-5.25-7.69-5.16-8.13,0Z"/><path class="cls-3" d="M307.25,94.57c3.62,2.53,8.55,2.11,12.79,2.13,3.63,0,8.7.48,9.62-4.15a4.28,4.28,0,0,0-6.19-4.77c.81-.06.52-.06-.88,0l-2.55.06c-1.48,0-3,0-4.45.12-3,.16-5.8.29-8.34,2a2.69,2.69,0,0,0,0,4.59Z"/><path class="cls-3" d="M312.4,88.56a45.13,45.13,0,0,0,.19-8c0-1.11-.69-5.62-.31-6l-6.65-1.75c1.68,5.14-2,20.12,6.53,20.76,3.88.3,5.32-3.77,6.41-6.76,1.54-4.22,2.18-8.75,4-12.89l-6.85-2.88a85.15,85.15,0,0,0-1.8,18.09c0,4.71,7.09,4.67,7.29,0,.16-3.76-2.21-11.19,1-14l-5.09-3a72,72,0,0,0-1,8.41c-.24,2.83-.65,5.48.28,8.21a2.47,2.47,0,0,0,4.45.58c2.85-4.15,2.89-11.54,2.24-16.39-.36-2.71-4.07-4.49-5.67-1.54-3.2,5.91-3,11.2-3.49,17.75h7.29a57.84,57.84,0,0,1,1.73-16.1c1-4-5-6.88-6.84-2.89A60.77,60.77,0,0,0,313,78.43c-.76,2.53-1.33,6.3-3,8.39l2.82-1.16h-.64l2.8,1.16c-1.48-1.3-1.3-6.25-1.31-8.13a47.35,47.35,0,0,0-.35-8c-.42-2.54-3.83-3.6-5.84-2.37-3.31,2-3.41,5.4-2.95,8.91.58,4.37,1.22,8.56,3,12.63,1.18,2.71,4.6.87,4.89-1.33Z"/><path class="cls-3" d="M301.77,78.21c11.68-.93,23.27,0,34.94-.41,4.6-.16,6.16-7.77,1.14-8.47a182.91,182.91,0,0,0-24.18-2c-4,0-8.08,0-12.12-.08s-9.12.33-13-1.21v7.28c3.69-1.26,8.75-.21,12.62-.1l12.62.38c8.43.26,16.83.49,25.25.2,5.36-.18,5.39-8.49,0-8.35-7.14.2-14.32,1-21.44,1s-14.3-.36-21.45-.76l.83,6.13A215.53,215.53,0,0,1,325.61,70c4.46,0,8.91.16,13.36.48,2.22.17,4.44.37,6.66.62,1.66.19,6.46,0,7.66,1.28l-1.17-2.85c1.26-1.65.85-2-1.22-1.13-1.27.2-2.53.42-3.8.65-2.23.32-4.46.48-6.71.58a92.89,92.89,0,0,1-13.55-.4v8.19c13.47-.82,27-1.29,40.44-1.28V67.62c-8.56.76-17,2.15-25.58,2.35-4.6.11-4.31,6.38,0,6.94,6.05.79,12.14,1.3,18.22,1.82,5.35.46,10.68,1.18,15.95-.23,3.49-.94,3.8-6.63,0-7.38s-7.38-1.47-11.09-2.14-7.17-2-10.82-3.1l1,7.57c5.87-2.87,13.85-.46,20.22-1.35,3.94-.55,3.89-7.29,0-7.89-8.93-1.39-17.64-1.38-26.64-1.43v7.86a118,118,0,0,1,24.73,2.13c5.24,1.06,7.51-6.85,2.22-8.08-8.73-2-18-3-27-1.91-4.93.62-5,8.44,0,7.86,8.12-.94,16.46,0,24.46,1.46l1.09-8c-8.06.89-15.74-1.72-23.31,2.24-2.95,1.54-2.58,7,1,7.57,3.78.58,7.46.83,11.17,1.83s7.26,1.89,10.9,2.8V71.12c-5.16,1.12-10.6.35-15.83,0-5.44-.36-10.86-.84-16.3-1.14v6.94c8.54-.83,17-.46,25.58-.73,5.49-.17,5.53-8.56,0-8.56-13.51,0-27,.52-40.44,1.65-5.17.43-5.35,8.29,0,8.19,5.16-.09,10.34-.18,15.48-.58,4.33-.33,9.37-.06,13.55-1.36,7.13-2.23,4.28-10-1.57-11.5-9.25-2.44-20.16-2.08-29.65-1.86a162.79,162.79,0,0,0-29.32,3.64c-3.46.73-2.65,6.19.83,6.13,7.16-.11,14.29-.19,21.45.09s14.3,1.34,21.44,1.81V65.48c-9.38-.62-18.76-.61-28.16-.64-7.87,0-17.88-1.64-25.24,1.61-3.14,1.4-1.93,6,.9,6.9,7.12,2.17,16,1,23.39,1.3,8.53.39,17.35.7,25.62,3l1.15-8.47a198,198,0,0,0-34.94,1c-5.07.53-5.22,8.48,0,8.06Z"/><path class="cls-3" d="M369.33,76.09a16.25,16.25,0,0,0,.91,6.52c.65,1.87,2.6,4.46,2.29,6.44l4.56-2.59a4.52,4.52,0,0,0-2,0c-2.61.53-3.41,3.89-1.92,5.82s5,2.08,6.1-.38c2.64-6-1.43-11.06-3.16-16.73-1.17-3.82-6.58-3-6.81.92Z"/><path class="cls-3" d="M372.21,82a11.53,11.53,0,0,0-1.12,4.16,19.34,19.34,0,0,0-.49,4.71c.26,2.31,2.16,4.19,4.62,3.51,2.06-.57,3.65-3.45,2.18-5.35.16.21-.4-.89-.43-1a5.72,5.72,0,0,0-.83-1.2,2.18,2.18,0,0,0-3.41.44,3.32,3.32,0,0,1-.53.84l2.26-.94h-.21l3.65,3.65a22.89,22.89,0,0,0-.69-4.71,13,13,0,0,0-1.1-4.16,2.28,2.28,0,0,0-3.9,0Z"/><path class="cls-3" d="M372.84,85.68c-.68,1.85-.78,4.1-1.6,5.86-.91,1.92-.38,5.2,2.26,5.57s5.49.4,8.25.5,5.73.68,8.12-1a3.88,3.88,0,0,0,0-6.59c-2.44-1.64-5.34-1-8.12-.87s-5.52.2-8.25.62l4.67,2.65c-.83-2.21-.93-4.54-1.84-6.76a1.83,1.83,0,0,0-3.49,0Z"/><path class="cls-3" d="M387.44,93.39c0-5.89.12-11.81-.17-17.7-.15-3.21-.31-7.63-4.36-8.25-2.9-.45-4.83,1.1-5.21,4a113.51,113.51,0,0,1-2.78,14.18l8-1c-1.76-2.8-3.95-6.26-3.15-9.77,1.07-4.64,7.1,1,1.68,4.64l5.69,2.31a10.37,10.37,0,0,1,1.07-6.65c.3-.55,3.49-4,1.62-2.5-.61.51-1.31,1.65-2,2.06-1.58.93-3.38-1.76-4.45-3.22-.86-1.18-1.48,0-.23-.53,1-.4,3.28,0,4.31,0,10.92.13,20.74.46,30.86,5.1L420,69.78c-10.41-.5-21.22-.91-31.44-3.12-4.92-1.06-6,6.58-.93,6.82,12.5.58,24.72,4.34,36.41,8.59l1.13-8.39c-11.72-1.31-23.48.1-34.83-3.81L389.52,76c7.49.42,14.91.62,22.3,2,7.16,1.4,13.87,3.91,20.89,5.7,5.25,1.35,7.43-7,2.22-8-7.95-1.51-18.34-6.1-24.18-11.8l-1.68,6.34c2.15-.37,5.45,1.66,7.44,2.48,2.53,1,5.06,2.08,7.5,3.31a45.23,45.23,0,0,1,6.12,3.6c.66.48,5.47,4.59,5.47,4.6-2.59,4.24,3.4,8.88,6.87,5.31,7.46-7.67-4-16.15-10.23-19.74a66.19,66.19,0,0,0-12.78-5.56c-4.11-1.33-9.46-3.9-13.31-.93-2.6,2-2.37,5.76.91,6.93,4.47,1.59,8.63,4.37,12.78,6.66,3.94,2.17,8.12,3.93,11.87,6.41l4.21-7.19c-13.53-7-32.35-8.85-47.23-6.31-3.49.6-2.68,6.35.83,6.17,12-.6,22.91,4,34.54,6,5.38.92,7.53-6.42,2.27-8.24-12.62-4.36-25.26-7.38-38.68-7.29l.93,6.81c10.13-2.72,21-.89,30.56,2.93,3.19,1.27,5.42-3.36,3.22-5.53-9.52-9.41-25.09-8.8-37.46-7.17-3.73.49-10.14,1.07-9.73,6.15.17,2.13,1.92,5,3,6.85,1.31,2.26,3.58,5.38,6,6.53,7.82,3.7,17.41-11.19,11.12-17-4.09-3.81-9.61-.52-12.39,3.1-3.29,4.3-4.06,9.39-3.2,14.62.39,2.41,3.76,3.61,5.69,2.32,4.4-2.95,7.47-7.63,6.28-13.12a10.68,10.68,0,0,0-10.8-8.65c-13.32.59-10.73,18.51-4.81,25.53,2.68,3.18,7.2.32,7.49-3.11a114.15,114.15,0,0,1,2.24-14.25l-5.06,2.87.6.12-2.47-1.9c.41.68.06,4.19.1,4.9.07,1.55.22,3.1.33,4.65L380,93.39c.34,4.72,7.46,4.84,7.44,0Z"/><path class="cls-3" d="M434.07,97.2c4.45,2.78,13.46,3,17.16-1.2,2.73-3.1,0-7-3.78-6.5a53.6,53.6,0,0,1-5.77.89,42.5,42.5,0,0,0-6.77.37c-3.13.58-3.23,4.95-.84,6.44Z"/><path class="cls-3" d="M436,87.91c-2.37-2.76-6.88-6.51-8.11-10l-5,3.8a43.16,43.16,0,0,1,14.83,11.74c1.34,1.66,4.38,1.12,5.3-.68,2.45-4.77-2-8.42-2.65-13.11l-4.74,2.76c3.26,3.9,5.28,8.21,7.36,12.79,1.6,3.51,7.6,1,6.27-2.64-1.54-4.21-5.16-7.42-8.06-10.75l-2.81,4.81c1.68.59,7.76,2.76,7.52,5.4l3.53-3.53a5.57,5.57,0,0,0-1.68,0A2.51,2.51,0,0,0,445.37,91,4.2,4.2,0,0,0,447,94.55a3.56,3.56,0,0,0,6-2.49c.27-7-7.9-10.38-13.8-11-2.06-.24-3.74,2.67-2.49,4.33,2,2.66,5.32,5.75,6,9.09l6.61-1.83C447,87,444.31,81.5,439.14,78c-2.44-1.65-5.22,1.53-3.88,3.88.53.93,2.7,6.36,2,7.51l5.31-.69a41.74,41.74,0,0,0-16.21-12.77c-2.33-1.05-6.16.75-4.95,3.8,1.95,4.93,6.67,8.76,10.19,12.6,2.74,3,7-1.4,4.42-4.42Z"/><path d="M68.66,95.46c.2-4.39.41-7.95,4.51-10.34,3.39-2,7.6-2.6,11.42-2.94a109.72,109.72,0,0,1,12-.19c3.9.08,7.81.83,11.65.26,3-.44,2.83-4.55.78-5.94-4.43-3-11-2.2-16.13-2.2-6.07,0-12.35.25-18.18,2.08-9.49,3-14.6,10.21-13,20.2.66,4.06,6.72,2.84,6.89-.93Z"/><path d="M110.06,98.94c3.52-4.42,1.91-11.69,1.19-16.88s-8.84-3.07-7.93,2.18c.43,2.51.65,5,.86,7.53.19,2.32.16,4.64,1.51,6.61.91,1.32,3.17,2.07,4.37.56Z"/><path d="M133.6,99.39c1.39-2.29,1.48-5.16,1.27-7.75a55.46,55.46,0,0,1-.14-9.47c.45-5.25-6.81-5.28-8.47-1.15-1.38,3.43-.36,7.12.4,10.58.61,2.75.18,6.3,2.38,8.37a2.94,2.94,0,0,0,4.56-.58Z"/><path d="M130.5,83.66c6.65.7,13.46.48,20.14.77,6,.25,12.39,1.43,18.33.62,4.23-.58,4-6.42,1.09-8.35-2.53-1.68-5.95-1.31-8.87-1.4-3.52-.11-7-.15-10.55-.16-7,0-14.2-.13-21.17.91-4.65.69-2.93,7.19,1,7.61Z"/><path d="M171.89,99.77c7.44.08,6.06-14.46,5.92-19.1-.17-5.58-7.78-5.26-8.45,0-.5,4,0,7.91.41,11.91.36,3.62.35,7.07,2.21,10.28a2.68,2.68,0,0,0,4.17.54c5.13-6,1.07-15.52,1.66-22.73h-8.45c.37,4.92,1.43,11.13.12,15.93a2.53,2.53,0,0,0,2.41,3.17Z"/><path d="M199.2,99.74c1.59-2.25,1.36-5.24,1.43-7.91.08-3,.12-5.9.26-8.85a4.73,4.73,0,0,0-3.46-4.54,5.7,5.7,0,0,0-2.5,0A4.74,4.74,0,0,0,191.47,83c.09,5.12-.83,13.34,2.77,17.4,1.46,1.64,3.86.91,5-.64Z"/><path d="M196.89,84.43c2.09-1,7.47.78,9.69.94,4.11.3,8.27.34,12.39.35,6.67,0,15.68,1.13,21.56-2.51,2.46-1.52,1.66-4.68-.73-5.65-4.42-1.81-9.5-.75-14.16-.6-4.44.15-8.9.19-13.35.09-5.93-.12-17.09-2.92-19.77,4-1,2.69,2.28,4.31,4.37,3.36Z"/><path d="M241.89,100c1.28-3.58.52-6.46-.07-10.1s.32-7.89-1.7-11.1a3.57,3.57,0,0,0-6.09,0c-2.11,3-1.18,7.08-.32,10.46a34.82,34.82,0,0,0,1.72,5c.85,2,2.26,3.69,3,5.7a1.79,1.79,0,0,0,3.43,0Z"/><path d="M242.54,98.93c1-1.51.6-4.23.65-5.91.09-3.17-.06-6.34-.13-9.5a3.82,3.82,0,0,0-6.44-2.67c-2.9,2.91-2.91,8.14-3.3,12s-1.38,9.27,1.08,12.56c2.84,3.79,8.56.63,6.42-3.76-1-2-.17-5.85,0-8,.15-1.74,0-6.34,1.11-7.48l-6.43-2.66c.25,4.6-.4,11.09,1.76,15.27a3.17,3.17,0,0,0,4.24,1.11,2.87,2.87,0,0,0,1-1Z"/><path d="M264.92,96.83a46.06,46.06,0,0,0,0-8c-.14-2.78.21-5.66-2.18-7.58-1.64-1.31-3.87-1.6-5.48,0-2.38,2.36-1.84,5.06-1.53,8.12a41.2,41.2,0,0,0,1.39,8.57c1.49,4.52,7.27,3.27,7.84-1.06Z"/><path d="M259.56,86.22c14.68.69,29,2.82,43.78,1.92a5.11,5.11,0,0,0,4.42-2.53c1.39-2.9.8-5.88-2.45-7.27-2.25-1-5.38-.21-7.78-.12-2.91.11-5.82.13-8.73.08-9.71-.18-22.22-4-31.17.82-3.48,1.88-1.68,6.94,1.93,7.1Z"/><path d="M304.78,100.36l.3-.07a3.38,3.38,0,0,0,2.36-2.36,35.66,35.66,0,0,0,1.15-8.23c.18-2.66.52-5.26-.6-7.75-1.85-4.11-8.65-2-8.42,2.28.25,4.56,0,9.29,1.34,13.7a3.4,3.4,0,0,0,2.37,2.36,3.45,3.45,0,0,0,1.5.07Z"/><path d="M326.42,102c3.07-1.33,3.18-5.37,3.08-8.27-.1-3.19,0-6.68-.44-9.81-.49-3.82-4.66-6.15-7.79-3.23-3.67,3.43-1.4,9.39-.7,13.66.48,3,1.09,9.7,5.85,7.65Z"/><path d="M370.37,99.41c1.61-2.46,1.29-6.32,1.36-9.19.08-3.27,1-7.11-1.67-9.53a3.55,3.55,0,0,0-4.86,0c-3,2.45-1.88,7.2-1.33,10.6.5,3.15,1.28,6.79,3.89,8.81a1.93,1.93,0,0,0,2.61-.69Z"/><path d="M325.5,85.26c7.5.55,15.13.32,22.65.35,6.4,0,15,1.66,20.74-1.48a4,4,0,0,0,0-6.9c-5.61-3.21-14.43-1.7-20.74-1.68-7.52,0-15.16-.12-22.65.57a4.57,4.57,0,0,0,0,9.14Z"/><path d="M393.64,101.14c.32-1.38,1.16-2.56,1.51-3.94a34.53,34.53,0,0,0,.62-4.18,12,12,0,0,0-1-6.39c-1.86-4.95-9.39-3.09-8.05,2.22a28.09,28.09,0,0,0,1.3,2.83,12.5,12.5,0,0,1,.31,2.39c.13,1,.2,2.13.43,3.13.32,1.39,1.15,2.55,1.46,3.94a1.8,1.8,0,0,0,3.44,0Z"/><path d="M386.72,83.61c-.9,6.13-1.41,13.29.3,19.31,1.51,5.29,9.78,3,8.26-2.28-1.6-5.61.05-11.47-1.5-17-.9-3.23-6.5-3.75-7.06,0Z"/><path d="M391.52,84.09l.54-.19-4.48-4.48c-.65,2.59-.23,5,.26,7.63.43,2.28.4,4.78,1.07,7s3.68,3.27,5.32,1.4c3.6-4.1,1-10.24.5-15-.38-3.81-6.16-5.26-7.15-1l-.13.6c-.53,2.28,1.56,5,4.07,4.07Z"/><path d="M436.93,98.86c1.35-10-8.84-15.92-16.74-19.44-8.24-3.68-21-8-29.69-3.87-4.36,2.09-2.55,8,1.23,9.42,3.19,1.18,6.61.63,10,.9a56.93,56.93,0,0,1,10.36,1.83c5.71,1.55,16.47,4.82,18.25,11.16.84,3,6.14,3.53,6.62,0Z"/><line class="cls-4" x1="79" y1="61" x2="412" y2="61"/><path d="M410.6,64.47c4.6-.19,10.31,2.79,14.45,4.63a79.7,79.7,0,0,1,13.46,7.55,30.22,30.22,0,0,1,9.86,11c2.07,4.06,2.05,9.3,4.76,12.91,1.27,1.68,3.83,2.06,5,0,2.78-4.8.38-11.11-1.83-15.74a36.31,36.31,0,0,0-11.59-13.7c-5.32-3.86-11.54-6.63-17.63-9.06-5.4-2.15-11.46-4.7-17.35-3.88-3.6.5-2.74,6.48.85,6.32Z"/><path d="M407.21,62.37c2.28,2.87,7.58,3.13,11,4,2.18.53,6,1.65,7-1.37,1.16-3.55-3.38-5.33-6-5.94-3.45-.83-8.22-2.36-11.48-.57a2.53,2.53,0,0,0-.51,3.92Z"/><path d="M45.3,97.94c2.77-4,1.34-8.34,2.08-12.81.8-4.88,5.1-9,8.89-11.91,7.58-5.81,16.18-7.53,25.51-7.5,5,0,6.51-8.33,1.23-9-11.45-1.57-23.38,2.09-32.5,9.08-4.41,3.39-8.63,7.63-10.83,12.82-2.39,5.68-1.23,12.89.37,18.68.69,2.53,3.88,2.65,5.25.69Z"/></svg>