<svg xmlns="http://www.w3.org/2000/svg" viewBox="0 0 194.27 194.27"><defs><style>.cls-1{fill:red;stroke:#000;stroke-miterlimit:10;stroke-width:6px;}</style></defs><title>Asset 9</title><g id="Layer_2" data-name="Layer 2"><g id="Layer_9" data-name="Layer 9"><path class="cls-1" d="M158.83,6.41C151.51,2.84,141,3.17,133.05,3.07,123.22,3,91.54,1.55,96.66,19.3c3,10.53,6,20.13,6.22,31.26.12,7.8-1,15.21-2.24,22.71a37.28,37.28,0,0,0-3.18,9.89,2.62,2.62,0,0,0,0,.74c-1.15,1.52-1,4.09.89,5,7.3,3.31,16-3.6,22.27-7.06a138.45,138.45,0,0,0,21.79-14.46c12.64-10.49,22.62-25.22,23.92-42C166.9,18.14,166.08,10,158.83,6.41Z"/><path class="cls-1" d="M6.41,35.44C2.84,42.76,3.17,53.27,3.07,61.21,3,71.05,1.55,102.73,19.3,97.61c10.53-3,20.13-6,31.26-6.23,7.8-.12,15.21,1,22.71,2.25a37.28,37.28,0,0,0,9.89,3.18,3.05,3.05,0,0,0,.74,0c1.52,1.15,4.09,1,5-.89,3.31-7.31-3.6-16-7.06-22.28A138.36,138.36,0,0,0,67.34,51.86c-10.49-12.64-25.22-22.62-42-23.92C18.14,27.37,10,28.18,6.41,35.44Z"/><path class="cls-1" d="M35.44,187.85c7.32,3.58,17.83,3.25,25.77,3.35,9.84.11,41.52,1.52,36.4-16.24-3-10.52-6-20.12-6.23-31.25-.12-7.8,1-15.21,2.25-22.72a37.09,37.09,0,0,0,3.18-9.88,3,3,0,0,0,0-.74c1.15-1.52,1-4.09-.89-5-7.31-3.3-16,3.6-22.28,7.06a137.73,137.73,0,0,0-21.78,14.47c-12.64,10.49-22.62,25.22-23.92,41.95C27.37,176.13,28.18,184.31,35.44,187.85Z"/><path class="cls-1" d="M187.85,158.83c3.58-7.32,3.25-17.83,3.35-25.78.11-9.83,1.52-41.51-16.24-36.39-10.52,3-20.12,6-31.25,6.22-7.8.12-15.21-1-22.72-2.24a37.09,37.09,0,0,0-9.88-3.18,2.62,2.62,0,0,0-.74,0c-1.52-1.15-4.09-1-5,.89-3.3,7.3,3.6,16,7.06,22.27a137.82,137.82,0,0,0,14.47,21.79c10.49,12.64,25.22,22.62,41.95,23.92C176.13,166.9,184.31,166.08,187.85,158.83Z"/><circle class="cls-1" cx="97.13" cy="97.13" r="19.5"/><circle class="cls-1" cx="97.13" cy="97.13" r="19.5"/><circle class="cls-1" cx="97.13" cy="97.13" r="19.5"/><circle class="cls-1" cx="97.13" cy="97.13" r="19.5"/></g></g></svg>