<svg xmlns="http://www.w3.org/2000/svg" viewBox="0 0 170.52 145.76"><defs><style>.cls-1{fill:#677b99;}.cls-2{fill:#a9c8ff;stroke-width:5.01px;}.cls-2,.cls-3{stroke:#000;stroke-miterlimit:10;}.cls-3{fill:none;stroke-width:4.88px;}</style></defs><title>Asset 15</title><g id="Layer_2" data-name="Layer 2"><g id="Layer_5" data-name="Layer 5"><path class="cls-1" d="M10.7,138.68l-.5-.65v1.64c1.07-1.17,5.37-.09,6.74,0,2.9.26,5.79.59,8.66,1,4.92.77,9.79,1.84,14.66,2.86L41.52,139a268.41,268.41,0,0,0-31.29-2.4l.62,4.59c6.94-1.35,14.08,2.44,20.63-1.16,2.07-1.12.62-4.12-1.54-3.66-6.82,1.47-13.52-1.05-20.33.31-2.64.53-2,4.56.62,4.6a241.49,241.49,0,0,1,30,2.29c2.94.41,4.32-3.94,1.26-4.57-6-1.24-12-2.41-18.09-3.13-4.14-.5-10.95-1.89-14.63.69a1.66,1.66,0,0,0-.74,1.8,2.73,2.73,0,0,0,1.37,1.93c1,.77,1.93-.8,1.27-1.64Z"/><path class="cls-1" d="M8.69,133.31,10,134.37l-3,.81.33,1.37a1.81,1.81,0,0,0,3.54.48,6.69,6.69,0,0,0,0-4.24l-2.6,2.6q8.16,2,16.39,3.62l.54-4a60.2,60.2,0,0,1-13.51-1.41v3.86a50.62,50.62,0,0,1,12.75-1.16c3.07.13,11,.29,13.18,3L37,136.82c.26-1.29,1.46-.36-.94-.83-1.55-.3-3.23-.2-4.8-.37A91.92,91.92,0,0,1,21.47,134l.6,4.64c3.1-2.39,10-1.29,13.67-.73a50.88,50.88,0,0,1,12.5,3.62l1.92-4.55-18.08-2.54.6,4.55a20.19,20.19,0,0,1,18-1.28L49.19,134c-.46,1-7.37,1.28-8.5,1.45L30.86,137l1.33,4.83a44.55,44.55,0,0,1,25.35.45l.65-4.86a88.38,88.38,0,0,1-16.89-.71v4.73a95.67,95.67,0,0,1,11.28-1.83c3.2-.3,7.49-1.08,10.61-.19l-1.69-1.7.31.76,1.69-3a118,118,0,0,1-17.18,1.65l.65,4.8a46.53,46.53,0,0,1,22.78-1.2L71,136a164.49,164.49,0,0,0-23.86-2.22l.64,4.76a63.16,63.16,0,0,1,20.89.54l.64-4.75A57.5,57.5,0,0,1,51.78,134l1.29,3.17c1.8-2.69,9.36-.91,11.94-.52a75.92,75.92,0,0,1,10.75,2.52l.66-4.81a188.6,188.6,0,0,0-20.45.87c-2.91.29-3,4.58,0,4.62l24.83.32v-4.71l-20.68,2.57c-2.94.37-3.13,4.89,0,4.75l26.8-1.19v-4.75a86.44,86.44,0,0,1-19.82.28v4.76c7.92-.94,15.84-.67,23.79-.3,2.71.13,3.23-4,.64-4.7a94.44,94.44,0,0,0-21.61-3l.63,4.72a52.31,52.31,0,0,1,23.32.27l.64-4.75c-6.68-.26-13.36-.32-20-.48l.6,4.48a61.19,61.19,0,0,1,24.41.59v-4.55q-6,1-12.06,2.11l1.2,4.39c2.16-.48,9.67-3.29,11.45-1.8l.91-3.46c-1.67.68-2.93.21-3.82,2.08a2.18,2.18,0,0,0,.32,2.51l.28.34a2.08,2.08,0,0,0,3.25-.42,27.76,27.76,0,0,0,2.42-5.11h-4c.44,2,1,3.89,1.6,5.81l3.07-2.36A21.51,21.51,0,0,0,94.38,135v4a48.69,48.69,0,0,0,9.27-.26l-1-3.61a24.61,24.61,0,0,1-10,2.42l.44,3.3a8.36,8.36,0,0,1,7.14,1.14l.48-3.7c-1.6.24-7.31.63-5.94-1.48.61-.94,3.4-1.53,4.38-1.83l-1.66-3.94a13,13,0,0,1-4.16,2c-2.62.87-1.5,5,1.14,4.16a23.55,23.55,0,0,0,5.19-2.41c2-1.25.75-4.67-1.66-3.94-3.11,1-9.53,2.94-8.4,7.43,1.24,4.93,8.53,4.77,12.18,3.94a2,2,0,0,0,.49-3.69,11.57,11.57,0,0,0-10.07-.89c-1.66.6-1.56,3.44.45,3.3,4-.3,7.72-.67,11.51-2.24,1.81-.74,1.88-4.06-.51-3.8a48.66,48.66,0,0,1-9.27.1c-2.61-.22-2.52,3.74,0,4a16.91,16.91,0,0,1,7.6,2.81,2.11,2.11,0,0,0,3.07-2.36c-.63-1.91-1.17-3.83-1.62-5.8-.49-2.14-3.36-1.8-4,0a15.3,15.3,0,0,1-2,4.13l3.26-.42-.28-.34.33,2.51c-.29.61,1.56-.27,1.34-.18,1.33-.55,2.2-2.31.92-3.46-4-3.56-11-.53-15.58.34-2.91.56-1.63,4.82,1.2,4.39,4-.62,8.08-1.26,12.11-1.95,2.31-.4,2.19-4.07,0-4.55a67.17,67.17,0,0,0-26.87-.43c-2.59.47-1.89,4.43.61,4.47,6.69.11,13.36.46,20,.76,2.71.12,3.3-4.12.64-4.75A58.08,58.08,0,0,0,69.28,134c-2.71.58-2,4.66.64,4.72a87.93,87.93,0,0,1,20.34,2.81l.63-4.7c-8-.36-15.87-.62-23.79.32a2.38,2.38,0,0,0,0,4.76,87,87,0,0,0,19.82-.29c2.94-.38,3.14-4.89,0-4.75l-26.8,1.19v4.75q10.35-1.29,20.68-2.61c2.92-.37,3.13-4.68,0-4.71L56,135.26v4.62a186,186,0,0,1,20.45-.59c2.84.07,3.22-4,.65-4.82a60.79,60.79,0,0,0-17.84-3c-3.84,0-7.71,0-9.9,3.57a2.18,2.18,0,0,0,1.3,3.18,73.4,73.4,0,0,0,18.72,1c2.5-.24,3.53-4.2.64-4.75a70.53,70.53,0,0,0-23.46-.56c-2.77.39-2,4.71.65,4.77a155.22,155.22,0,0,1,22.57,2.06c3,.5,4.39-4.08,1.29-4.69a51.81,51.81,0,0,0-25.37,1.18c-2.57.78-2.18,4.87.65,4.79a133.16,133.16,0,0,0,18.47-1.86,2.43,2.43,0,0,0,1.69-3c-1.54-3.8-5.73-2.92-9.27-2.77A102.85,102.85,0,0,0,40,136.68c-2.25.48-2.42,4.38,0,4.73a95.42,95.42,0,0,0,18.19.93,2.49,2.49,0,0,0,.66-4.86,49.38,49.38,0,0,0-28-.51c-3.18.87-1.78,5.32,1.33,4.83l14.3-2.23c2.62-.41,5.73-.35,7-3A2.56,2.56,0,0,0,52,132.84a24.86,24.86,0,0,0-21.85,1.8c-1.68,1-1.62,4.24.6,4.56l18.08,2.53c2.47.34,4.77-3.33,1.91-4.55a56.93,56.93,0,0,0-16-4.44c-4.58-.52-11.25-1.46-15.2,1.47-1.63,1.21-1.7,4.08.61,4.64,2.72.65,26.59,6.36,21.38-2.91-2-3.61-9-3.66-12.59-4a53.87,53.87,0,0,0-18.27,1.66c-1.84.47-2,3.49,0,3.86a81.94,81.94,0,0,0,14.57,1.6c2.24,0,2.82-3.51.54-4q-8.22-1.71-16.35-3.78A2.13,2.13,0,0,0,7,134.42l.34,2.13,3.54-.48a4.81,4.81,0,0,0-1.36-2.83c-1.12-1.44-2.85.22-2.67,1.55a1.89,1.89,0,0,0,3,1.27c1.37-.86.49-3.43-1.15-2.75Z"/><path class="cls-1" d="M104.46,134.28a136.58,136.58,0,0,0,22.47-17.7,2,2,0,0,0-1.43-3.45c-4.22.05-7.09,4.45-9.72,7.35-3.8,4.21-7.64,8.45-11.24,12.83-1.09,1.32-.55,4.08,1.59,3.85,7.18-.76,12.76-9.69,16.86-14.87,1.81-2.27-1.3-5.54-3.26-3.25-3,3.54-6.08,7.06-9.11,10.6-1.82,2.11-3,3.61-2.31,6.43.54,2.25,3.28,2.12,4.46.58,2.37-3.09,4.7-6.21,7.14-9.24a2.27,2.27,0,0,0-3.21-3.2c-3,2.51-13.37,10.06-9.86,14.92,1.1,1.52,3.54,1.89,4.55,0,5.78-10.7,11.87-21.1,19.74-30.42l-4.76-2.77a26.22,26.22,0,0,1-5.9,13.91l4.61,3.56c3.54-5.51,6.87-11.15,10.27-16.74,1.72-2.84-2.53-6.35-4.72-3.65a89.17,89.17,0,0,0-9.69,14.78c-1.52,2.89,2.15,5.89,4.58,3.53,7.54-7.36,14.81-15.32,20.24-24.39,1.89-3.16-2.93-5.93-4.92-2.87-3.25,5-7.21,9.77-12.18,13.14l3.68,3.68a78.86,78.86,0,0,1,13.32-17c2.63-2.53-1.25-6.28-4-4-5.32,4.57-10.38,9.42-15.56,14.15a2.59,2.59,0,0,0,1.82,4.38c6.55-.27,9.65-6.52,13-11.32,4.8-6.89,9.25-13.1,16.11-18.07l-3.5-3.51c-3.2,6.81-7.95,13.18-12.17,19.39-1.64,2.42,2.18,5.43,4.09,3.16,6.2-7.39,12.74-14.65,18.29-22.54,1.53-2.16-1.48-5.08-3.63-3.63l-5.48,3.69,3.57,3.58a36.57,36.57,0,0,1,2.8-4.45l-4.71-.61.33.8c1.24,3,6.18,1.74,5-1.36l-.32-.81a2.62,2.62,0,0,0-4.71-.62,37.34,37.34,0,0,0-2.86,4.41c-1.22,2.18,1.31,5.06,3.57,3.57l5.53-3.61-3.22-4.18c-6.4,6.9-12,14.66-17.8,22.07l4.09,3.16c4-6.4,7.6-13.35,12.09-19.43,1.7-2.3-1.46-4.44-3.5-3.51-5.36,2.45-9.23,7.22-12.63,11.88-1.9,2.6-3.67,5.28-5.48,7.94s-4.57,8.67-8.42,8.87l1.81,4.38c5.13-4.8,10.54-9.27,15.89-13.82l-4-4a72.74,72.74,0,0,0-14,18.28c-1.17,2.18,1.37,5.38,3.69,3.69,5.55-4,9.48-9.21,13.93-14.34l-4-4c-6.41,8.15-12.6,16.33-19.89,23.72l4.57,3.53a69.36,69.36,0,0,1,8.91-13.46l-4.72-3.65c-3.41,5.59-6.88,11.14-10.15,16.81-2,3.39,2.84,5.87,5.07,3a33.19,33.19,0,0,0,6.78-16c.34-2.46-2.68-5.22-4.76-2.77-8.18,9.63-14.28,20.71-20.26,31.78h4.55c.35.46,2.84-3.23,3.78-4.31a60.69,60.69,0,0,1,4.74-4.75l-3.21-3.2c-2.52,3.21-5.16,6.33-7.76,9.48l4.08,1.08c-.33-1.63,4.08-5.63,5.11-6.82l4.86-5.66L119.73,119c-3.45,4.33-8.6,12.35-14.2,13.69l2.55,3.31a71.2,71.2,0,0,1,7.64-10.53c1.78-2,7-8.52,9.78-8.34l-1.43-3.45c-7.39,5.82-14.55,11.8-21.38,18.27a1.46,1.46,0,0,0,1.77,2.29Z"/><path class="cls-1" d="M165.74,14.45a8.82,8.82,0,0,0,.64-3.82c.07-3.14-5.09-3.06-4.82,0,.67,7.52,3.71,16.66,1.32,24h5.62a67.36,67.36,0,0,1-1.25-16c.05-3.65-5.49-3.62-5.66,0-.24,5.07-.39,10.14-.24,15.2.12,4.25,1,8.75.23,13-.65,3.75-2.42,6.89-2.49,10.77-.09,4.62.41,9.32.61,13.94.19,4.4,7.13,4.38,6.84,0-.31-4.61-.9-9.32-.9-13.94,0-4,1.58-7.62,1.72-11.59.31-9.13-.87-18.15-.11-27.34h-5.66a69.67,69.67,0,0,0,1.29,17.58c.55,3.11,4.72,2.41,5.62,0,1.34-3.57.81-7,.26-10.66-.78-5.19-1.5-10.42-2.47-15.57l-4.64,1.28a11.26,11.26,0,0,0,2,3.72c.61.78,1.78.23,2-.54Z"/><path class="cls-1" d="M64.3,10.75a179.89,179.89,0,0,0,26-.92c3.41-.37,3.46-5.75,0-5.4a57.93,57.93,0,0,1-14.59-.24c-3.44-.53-6.46-1.28-9.94-.52-3.31.71-2.48,5.76.79,5.8,6.31.07,12.62.08,18.93.17,6.46.09,13.37-.38,19.72.91L106,4.41,87,4.78C83,4.86,83,11,87,11c15.15-.1,30.29.39,45.4,1.38,4.05.26,4.05-6.09,0-6.32-8.81-.49-17.56-1.12-26.39-1.22v6c14.2-.21,28.16,0,42.27,1.9V6.44a46.22,46.22,0,0,1-9.61-.82l-.78,5.73,22.42.47V5.61a92.27,92.27,0,0,1-17.82.18l.77,5.69A84.57,84.57,0,0,1,161.55,11l-.81-6c-3.66,1.3-8,.88-11.87.89-4.21,0-8.41-.11-12.61-.42-8.24-.61-16.42-2-24.67-2.43-3.25-.18-4.08,5.26-.78,5.78,8.71,1.37,17.62,2.11,26.41,2.74,7.63.55,17.79,1.93,25.14-.68a3.07,3.07,0,0,0-.81-6,84.26,84.26,0,0,0-19.81,1c-3.46.56-2.23,5.4.77,5.69a93.08,93.08,0,0,0,17.82.24c3.9-.38,4.07-6.19,0-6.21l-22.42-.1c-3.28,0-4,4.87-.77,5.74a39.72,39.72,0,0,0,11.16,1.49c4.18-.06,3.91-5.8,0-6.3C134.37,4.64,120.05,3.71,106,4.82c-3.84.3-3.88,6.32,0,6a98.17,98.17,0,0,1,25.55,1.4l.84-6.2C117.3,5.1,102.17,4.72,87,4.78V11l19-.32c3.4-.05,4.39-5.4.83-6.14-6.4-1.32-13-.87-19.48-.86-7,0-13.89-.07-20.83-.1l.79,5.81c3.6-.82,7.75.7,11.41.94a59.38,59.38,0,0,0,11.54-.48l-.72-5.3C81.16,5.66,72.74,6.3,64.3,6.61a2.07,2.07,0,0,0,0,4.14Z"/><path class="cls-2" d="M60.46,12.25v56a3.77,3.77,0,0,1,.37.72h99.23V12.25Z"/><polygon class="cls-2" points="57.16 72.92 155.1 73.17 103.53 130.76 5.59 130.52 57.16 72.92"/><path d="M99,117.08c0,2.32-1,2.6-3.19,2.33-.55-.07-2.69-.34-2.46-1.4.06-.28,1.71-.68,2-.76a11.1,11.1,0,0,1,5.4-.25,2.58,2.58,0,0,1,1.21.45c.61.52.78.22.53-.89-.35-.06-1.91,1.12-2.33,1.28a11.51,11.51,0,0,1-5.2.92c-1.24-.14-3.81-.85-1.35-1.42A12.71,12.71,0,0,1,99.7,117c1.6.43,2.69,1.56,4.16,2.2a2.15,2.15,0,0,0,3.11-2.39c-.76-4.7-7-5.23-10.74-4.74-3.37.44-9.69,1.32-8.74,6.2.77,3.94,5.44,5.7,9,5.64s10-1.62,11.12-5.59c2.44-8.6-16.06-8.14-18.17-1.52-1.2,3.79,3.62,6.33,6.62,6.76,4.84.68,7.2-1.74,7.39-6.5.12-2.88-4.42-2.89-4.48,0Z"/><path d="M128.77,84.38c1.28.18,1.15,1.08.36,1.73a5,5,0,0,1-2.25.62c-.69.1-5.17.38-5.27-.89s9.81-1.34,10,.14l.26-2c-1.5,2.78-7.56,1.35-10,2.23a1.9,1.9,0,0,0-.45,3.43c2.9,1.59,7.17,1.33,10.23.28,2.47-.85,5.9-2.89,4.77-6s-5.86-3.69-8.68-3.71c-3.07,0-7.26.65-9.09,3.47-1.47,2.26-.5,4.78,1.57,6.24,2.51,1.79,6.31,1.89,9.17,1,2.48-.77,5.75-2.84,5.32-5.87s-3.46-3.7-6-3.33a1.38,1.38,0,0,0,0,2.65Z"/><path d="M36.66,119.18a6,6,0,0,0,2.7.94c.62,0,1.24.12,1.86.2,1.29.45,1.46,0,.53-1.39-.18-.08-2.75,1.17-3.22,1.28a21.21,21.21,0,0,1-3.36.46c-.47,0-2.75.44-3-.08-.56-1.14,3.08-.91,3.46-.88,2.59.16,4.88,1.4,7.43,1.6,1.42.11,1.83-1.66,1.07-2.56-2.8-3.32-11-4.35-14.43-1.52a4.2,4.2,0,0,0-1.18,5.29c1,2.21,3.09,3,5.4,3.2,4,.35,11.44-.33,12.94-4.9,1.91-5.77-6.77-7.09-10.19-4.53a1.7,1.7,0,0,0,0,2.89Z"/><path d="M63.2,83A19.51,19.51,0,0,1,67,84.08a12.07,12.07,0,0,0,1.89.81l-.55-1.24a11.85,11.85,0,0,1-1.24.73,10,10,0,0,1-3.83,1.2c-.64,0-3.4,0-3.27-1.07L59.42,86c1.77-1.94,9.87-2.54,11.43-.06A2.49,2.49,0,0,0,75.39,84c-1.53-5.85-9.84-5-14.21-3.48-2,.67-4.67,1.51-5.25,3.75s1.29,4.2,3,5.3c4.43,3,11.79,1.2,14.91-3,1.72-2.34.71-5.15-1.77-6.38-2.76-1.36-5.91-1.12-8.83-.52-1.64.34-1.69,3.06,0,3.36Z"/><path d="M136.53,50.21c2.33,1.08,5.51,1.18,7.61,2.58,3.34,2.21-3.62,4.05-5.37,3.85-1-.12-3.33-.59-3.79-1.69-.89-2.16,2.4-2.25,3.69-2.38,2.56-.24,7-.27,8.13,2.57.62,1.58,3,2.32,3.94.52,1.49-2.92,0-6-2.82-7.4-3.28-1.61-7.57-1.2-11-.39-2.72.63-5.92,1.83-6.77,4.81s1.47,5.83,3.93,7.35c5.41,3.3,14.31,2,17.12-4.28,3.59-8.06-9.46-11.17-14.67-8.55a1.75,1.75,0,0,0,0,3Z"/><path d="M140.14,22.6a10.34,10.34,0,0,1,4.57,2c1.5,1.15,1,2.3-.4,3.36-1.88,1.43-7.64,3.67-8.46-.25-.73-3.49,5.76-3.46,7.76-2.52,2.21,1,2.24,3.9,4.39,4.91a1.5,1.5,0,0,0,1.74-.23c2.38-2,1.13-5.95-.7-7.91-2.29-2.45-5.8-3.2-9-2.8s-6.57,1.5-8.28,4.31a7.42,7.42,0,0,0,.8,8.61c4.41,5.06,13.39,3.34,17.17-1.67,5.07-6.72-3.06-12.58-9.57-10.85-1.4.38-1.59,2.79,0,3Z"/><path d="M75.32,49c1.87,1.22,4.9,1.84,6.39,3.49.63.69,1.29,2,.65,2.82s-3.1.5-3.87.44c-1.67-.14-7.79-1.5-4.67-3.45,2.58-1.62,6.58-1.43,8.74.63a2.4,2.4,0,0,0,4-2.32c-1.85-6.93-11.57-4.86-15.72-1.4-4.75,3.94.07,9.16,4.3,10.91,4.75,2,13.85,2,13.84-5.1a9.89,9.89,0,0,0-3.41-7.47c-2.51-2.11-6.18-2.16-9.3-2A1.85,1.85,0,0,0,75.32,49Z"/><path d="M77.73,22.24a8.59,8.59,0,0,1,3,1.46c1.16.73,2.46,1.12,1.12,2.08-1,.69-7.6,1.32-7.33-.9s5.82-1.12,7-.57c1.74.83,2.71,3.23,4.64,3.49A2.57,2.57,0,0,0,89,25.21c.14-2-1.47-4.23-2.91-5.45-3.51-3-9.26-3-13.17-.75A6.31,6.31,0,0,0,71,28.67c2.77,3.35,8.46,4.26,12.47,3.1C87.77,30.51,91,26,88,21.89c-2.34-3.24-8.31-6.17-11.56-2.74a1.84,1.84,0,0,0,1.28,3.09Z"/><path d="M2.5,132.89c-.19,2.62-.1,6.55,1.49,8.76a2.4,2.4,0,0,0,4.43-1.2,12.94,12.94,0,0,0-.6-4.16c-.28-1.34-.52-2.68-.83-4-.62-2.63-4.32-1.86-4.49.61Z"/><path d="M6.79,140.87c1.81,1.49,2.38,1.59,1.73.3q-.24-.72-.42-1.47a14.25,14.25,0,0,1-.3-2.35c-.09-1.79.4-3.5.35-5.27a2.28,2.28,0,0,0-4.22-1.15c-2.36,3.74-1.3,9.85.78,13.49,2.43,4.23,6.84-2.88,2.66-3.47l-.58-.08Z"/><path d="M160.05,11.74a0,0,0,1,0,0-.07s0,.07,0,.07Z"/><path d="M160.42,12.91c1.85-1.78,4.24-2.89,6.07-4.65s-.49-4.54-2.61-3.38c-2.48,1.36-4,4.17-5.31,6.6a1.18,1.18,0,0,0,1.85,1.43Z"/><path d="M59.88,13.6a30.26,30.26,0,0,0,4.73-5.48c1-1.36,2.76-3.72.89-5.19s-3.75.84-4.81,2.16A30.64,30.64,0,0,0,56.55,11a2.13,2.13,0,0,0,3.33,2.56Z"/><line class="cls-3" x1="63.73" y1="3.03" x2="168.27" y2="3.03"/><path d="M166,6.16c1.7.5,2.82-.87,3.82-2L166.71,1.7a16.67,16.67,0,0,1-3.29,3.73c-1.21,1.11-2.74,2-3.84,3.18-1.82,2,.44,4.55,2.75,3.56,3.54-1.51,5.61-5.57,7.84-8.45,1.38-1.79-1.67-4.15-3.15-2.43-.73.85-1.72,2-1.76,3.15,0,.51.19,1.54.77,1.72Z"/><path d="M66.33,2.82V2.7L66,3.8c.32-.41.06-.21-.76.59L63.1.65c-.52.6-1,1.23-1.48,1.87a7,7,0,0,0-.55.79c-.25.46-.21.58-.43,1a1.84,1.84,0,0,0,2.89,2.23l.57-.45-.88.51c1.49-.59,2.45-2,3.4-3.24A2.23,2.23,0,0,0,66.44.88,2.25,2.25,0,0,0,64.09.07a2.52,2.52,0,0,0-.94,4.57,2.11,2.11,0,0,0,2.13,0,2.16,2.16,0,0,0,1-1.82Z"/><line class="cls-3" x1="167.57" y1="3.03" x2="167.57" y2="76.91"/><path d="M163.42,80.44l.3-.07h-.78a5.71,5.71,0,0,0,3.88-1.14A7.13,7.13,0,0,0,170,75.74c.72-2-1.82-3.76-3.55-2.73a10.93,10.93,0,0,0-2.62,2.76,8.1,8.1,0,0,0-1.88,2.78l.38-.65-.19.24a1.39,1.39,0,0,0,1.33,2.3Z"/><path d="M156.76,70.7c.63,1.85,3.15,2.85,4.73,3.76,2,1.15,4.23,2.63,6.5,1.37a1.74,1.74,0,0,0,.78-1.92c-.5-3-4.55-3.82-6.9-4.74-1.08-.42-2.51-1-3.69-.61-.8.26-1.74,1.21-1.42,2.14Z"/><line class="cls-3" x1="6.58" y1="142.42" x2="106.94" y2="142.42"/><line class="cls-3" x1="104.85" y1="129.18" x2="104.85" y2="143.12"/><line class="cls-3" x1="106.94" y1="142.42" x2="166.18" y2="74.82"/></g></g></svg>