<svg xmlns="http://www.w3.org/2000/svg" viewBox="0 0 212.84 51.72"><defs><style>.cls-1{fill:red;}</style></defs><title>Asset 13</title><g id="Layer_2" data-name="Layer 2"><g id="Layer_9" data-name="Layer 9"><path class="cls-1" d="M123.3,28.58A132.91,132.91,0,0,1,82.23,32a119.1,119.1,0,0,1-19.77-3.11q-5.15-1.26-10.18-2.93c-2.07-.7-7.79-1.7-9.06-3.78-1-1.62-.07-1.59,1.55-2.4a34.37,34.37,0,0,1,4.84-1.62c2.91-.91,5.84-1.74,8.79-2.51a192,192,0,0,1,21.5-4.3,194.88,194.88,0,0,1,42.5-1.16c13.65,1.1,28.27,3.23,41.15,8.05,1.81.68,5.32,1.86,5.63,4.16.29,2.12-3.53,4.84-5,5.8-5,3.37-11.43,4.46-17.35,5.13a390.48,390.48,0,0,1-43.52,2.14q-10.64,0-21.26-.42c-1.93-.08-3.87-.18-5.8-.29l-1.93-.11q-3.89-1.09-.62,2.69c.06,0,1.87-1.64,2.18-1.85a18.8,18.8,0,0,1,5.35-2.19c15.45-4.27,32.65-5,48.6-5.54q12.59-.42,25.17.15c3.86.18,7.73.38,11.59.73,2.11.19,6.78.14,7.39,2.72l3.26-5.74a116.23,116.23,0,0,1-35.6,8,116.45,116.45,0,0,1-18-.37c-2.56-.25-5.57-.34-7.92-1.57-1.14-.59-1.41-.42-1.09-1.05.25-.47,2.56-.77,2.9-.84,25-5.62,51.54-6.08,76.91-3.61l-4.35-3.31c2.3,7.79-19.54,6.5-23.53,6.7s-8.34.87-12.36.4c-1.56-.18-5.21-1.14-4.47-3.59.46-1.5,4.8-2.5,6-2.88C172.55,18,190.67,22.19,207.32,26l-3.19-4.2c.18,3.59-20,5.68-22.58,6.11-9.12,1.51-18.26,2.39-27.34,4.11-3.12.59-2.12,5,.71,5.24,12.5.91,25-.81,37.37-2.71,7.33-1.12,21-2.4,20.54-12.75a4.46,4.46,0,0,0-3.2-4.19c-13.78-3.18-28.06-6.4-42.31-5.27-8.65.69-29.63,3.68-26.41,17,3.31,13.65,23.31,9.28,33.14,8.82,6.15-.29,13.22.11,18.72-3.16a12.78,12.78,0,0,0,6.06-14.53,4.68,4.68,0,0,0-4.35-3.31,269,269,0,0,0-51.62-.22c-8,.75-16,1.85-24,3.3-5.23,1-11.85,2.09-13.63,8C101,42.28,124.81,42.75,132.68,42.93a123,123,0,0,0,47.09-8.34A4.8,4.8,0,0,0,183,28.85c-1.52-6.5-7.92-8.69-13.88-9.37a261,261,0,0,0-29.59-1.37c-19.29,0-39.12,1.3-58,5.23C75.21,24.64,67,27.62,64.41,34.22c-3.57,9.2,8,10,13.82,10.32a448.46,448.46,0,0,0,59.9-.75c13.26-1,33.75-2.22,39.73-16.86,6.9-16.89-21.31-21-31.56-23A202.46,202.46,0,0,0,90.45.67,206.36,206.36,0,0,0,63,4.8c-7.83,1.73-17.21,3.31-24.18,7.45S31.37,25,38,29.72c7.42,5.22,18.5,7.15,27.26,8.75a128,128,0,0,0,59.85-3.18c4.29-1.28,2.51-7.77-1.85-6.71Z"/><path class="cls-1" d="M71.88,32.93c-3.67,4.85-11.55,4-16.86,3.84q-10.86-.27-21.65-1.49c-6.41-.72-14-1.22-20.07-3.72-7.32-3,3.47-6.52,6.52-7.47A135.69,135.69,0,0,1,61,18a134,134,0,0,1,21.91,1.86c6.73,1.15,13.69,4,20.53,4,4.3,0,5.2-5.33,2.06-7.6-7.07-5.1-18.15-6-26.57-7.15A145.08,145.08,0,0,0,50.19,8a147.75,147.75,0,0,0-28,4.49C15.22,14.38,6,16.44,1.84,23c-4,6.3-1.12,13.56,5.09,17,7.33,4,17.35,4.34,25.5,5.17a130.7,130.7,0,0,0,29,0c6.47-.8,12.94-2.86,16-9.05,1.91-3.8-3.11-6.54-5.58-3.26Z"/><path class="cls-1" d="M78.91,34c-3.15.1-6.65-.46-8.31,2.92s.59,6.68,3.67,8.17c10,4.84,22.81,5.76,33.78,6.25,11.32.5,23.85,1.06,34.94-1.64,9.3-2.27,21.3-8.72,26.6-16.91,2-3.16-1.39-7.95-5.09-6.61-7.08,2.57-12.37,8.72-19.35,11.77-7.79,3.41-16.74,3.17-25.09,3.48a166.74,166.74,0,0,1-25.77-.71,99.76,99.76,0,0,1-13.18-2.5c-.64-.16-4.45-1.32-4.45-1.32.31,2.12.65,2.5,1,1.12a1.9,1.9,0,0,1,1.66-.77A1.66,1.66,0,0,0,78.91,34Z"/><path class="cls-1" d="M108.07,40.59c.9,2.81,2.8,3.8,5.66,4.12,5.14.59,10.49.51,15.67.68,10.11.32,20.24.31,30.36.29,4.9,0,9.79-.13,14.69-.26,4.24-.12,9,.16,12.82-2,5.65-3.23,8.85-12.2,5.51-18-1.06-1.85-4.14-2.53-5.63-.73-1.68,2-2.12,4.23-3,6.67-1.18,3.18-2.38,3.58-5.77,3.93-7.41.78-15.06.63-22.52.94q-10.77.45-21.54.73c-3.6.09-7.19.23-10.78.36l-5.88.19-2,.06q-3.36-.68-1,1.23c-1.62-4-8-2.5-6.64,1.83Z"/><path class="cls-1" d="M16.24,28.47,15,27.58l-1.13,4.3a34.28,34.28,0,0,1,20-4.44l-.94-6.91a193.55,193.55,0,0,1-21.66,5.38L13.47,34A123.38,123.38,0,0,1,46,26.06l-3.14-7.58A21.9,21.9,0,0,1,27.68,26.2l1.22,9a157.55,157.55,0,0,1,28-3.07L55.78,24c-9.6,3.22-19.12,4.15-29,1.93v7.24C37,30.89,47.44,31.65,56.86,36.5L57.72,30c-14,2.35-27.41.71-40.86-3.46l-1,7.78A198.23,198.23,0,0,1,63.17,38.6l1-7A212.11,212.11,0,0,1,31.5,25.87v7.39a185.65,185.65,0,0,1,44.83-7.2l-1.06-7.78A153.71,153.71,0,0,1,41.67,23l1.15,8.53C56.52,28,70.2,26.14,84.34,27.21l-1-7.36c-13.5,4.74-27.55,7.43-41.65,3.73l1,7.74c11.95-5.81,24-9.28,37.34-9.55l-1-7.11c-10.54,3.65-21.48,4.93-32.57,5.48l1.06,7.8c10.2-1.67,20.29-3.81,30.34-6.24L73.05,18c.11,9.14,12.79,9.6,19.47,9.63,9.82.05,20.58-2.32,29.49,2.95l1-7.36a108.2,108.2,0,0,1-39.19,5l1.09,8a133.19,133.19,0,0,1,43.85-7.14l-2.09-7.74A41.5,41.5,0,0,1,99.5,27.5l1.11,8.25c15.66-4.09,32.19-6.69,48.36-5.06l-.84-6.24a38.87,38.87,0,0,1-16.92,1v6.8a90.18,90.18,0,0,1,30.08-2.56l-1-7.35a220.53,220.53,0,0,1-26.62,6.08l2.19,7.93a142.36,142.36,0,0,1,28-5.07v-7.1a232,232,0,0,1-47.72.4v7.11a158.49,158.49,0,0,1,34.68,1.51V27.24a108,108,0,0,1-46.63.2l2.48,3.25c-.6-6.16,13.13-8.66,17.53-9.75,7.7-1.93,15.65-2.55,22.66,1.78l.84-6.43a107,107,0,0,1-64-5.68v6.81a56.79,56.79,0,0,1,46.19,5l1.82-6.71A134.49,134.49,0,0,1,92.33,8.53l-1,7.2a103.77,103.77,0,0,1,45.29,4.95l-.89-6.8A15.32,15.32,0,0,1,121.24,13l-.89,6.76a41.76,41.76,0,0,1,30.13,2.68l.87-6.66a24.45,24.45,0,0,1-17.76-4.42l-.81,6.22a36.73,36.73,0,0,1,30.31,4c3.34,2,6.31-3.12,3.06-5.22A43.23,43.23,0,0,0,131,11c-3,.84-3.09,4.57-.82,6.22A31,31,0,0,0,152.32,23c3.2-.41,5.43-5,1.84-6.79a49,49,0,0,0-35.77-3.52,3.74,3.74,0,0,0-.89,6.75,23.09,23.09,0,0,0,22,.9c3.13-1.45,1.86-5.86-.89-6.8A107.58,107.58,0,0,0,91.35,8.4c-4,.46-5.09,5.81-1,7.2a140.79,140.79,0,0,0,41.28,7.31c3.61.1,4.87-4.95,1.82-6.71a63.94,63.94,0,0,0-51.7-5.59c-3.54,1.14-3.14,5.52,0,6.81a113.9,113.9,0,0,0,67.79,5.65c3.06-.67,3.29-4.9.84-6.42C140.82,10.73,129.57,12,119.2,15c-7.3,2.12-20.52,5.65-19.28,15.68.18,1.39.92,3,2.48,3.26a131.74,131.74,0,0,0,50.06-.76c2.92-.58,3-5.41,0-5.95a165.66,165.66,0,0,0-36.32-2.67c-4.68.18-4.46,6.6,0,7.11a204.22,204.22,0,0,0,47.72-.41c4.41-.53,4.69-7.25,0-7.1a135.57,135.57,0,0,0-30.19,4.24c-5.15,1.35-3,9,2.19,7.93,8.92-1.87,17.72-4.06,26.42-6.79,4.13-1.3,3.2-7.06-1-7.36a87.78,87.78,0,0,0-32,3.25c-4,1.24-2.87,6.46.94,6.92a47.22,47.22,0,0,0,19.55-1.78c3.53-1.08,2.68-6-.85-6.25-17.21-1.3-33.81-1.11-50.59,3.32C93.51,28.94,95,35.42,99.5,35.9a48.74,48.74,0,0,0,31.32-7.34c3.44-2.17,2.12-7.74-2.1-7.75a140.15,140.15,0,0,0-46,7.57,4.11,4.11,0,0,0,1.08,8A114.66,114.66,0,0,0,125.11,31a4.07,4.07,0,0,0,1-7.35c-6.62-3.89-13.91-4.58-21.44-4.34C102,19.37,80.8,21.12,80.74,18a3.89,3.89,0,0,0-4.87-3.7c-10,2.5-20.19,4.43-30.4,6-4.43.68-3.38,8,1.05,7.8,11.79-.54,23.19-3.25,34.49-6.44,4-1.12,3.1-7-1-7.11C65.8,14,50.94,17,38.43,24c-3.08,1.73-2.56,6.93,1,7.74,15.47,3.49,31.16.59,45.89-4.67a3.77,3.77,0,0,0-1-7.36c-14.67-1-29.56-.35-43.83,3.39-4.68,1.23-3.8,8.68,1.16,8.52a137.28,137.28,0,0,0,35.71-5.71c4.1-1.25,3.57-8.13-1-7.78a239.89,239.89,0,0,0-46.87,7.73c-3.53,1-3.76,6.52,0,7.39a240.35,240.35,0,0,0,34.66,5.47c4,.33,4.88-6.2.95-7a242.84,242.84,0,0,0-49.26-5.37c-4.57,0-5.24,6.4-1.05,7.78,14.39,4.72,30,5.16,44.86,2.73,3.05-.5,3.46-5.21.86-6.55-11.09-5.74-23.59-7.71-35.73-4.37-3.35.93-3.79,6.59,0,7.24A76.22,76.22,0,0,0,58,32c4.59-1.26,3.51-7.93-1.1-8.13a115.07,115.07,0,0,0-30.42,2.5c-4.95,1.11-4,9.51,1.22,9A31.93,31.93,0,0,0,49.11,24.76c2.26-2.58,1-8-3.14-7.59a125.92,125.92,0,0,0-34.73,8.74c-4.86,2-3.17,9.27,2.23,8.06a169,169,0,0,0,21.3-6.66C38.4,26,38,20.51,33.84,20.4A41.74,41.74,0,0,0,10.7,26.46a3.16,3.16,0,0,0-1.13,4.29,8.08,8.08,0,0,0,6.67,3.84c4,.32,3.84-5.69,0-6.12Z"/><path class="cls-1" d="M175.52,26.49l-.48-.71-1.34,2.36a27.12,27.12,0,0,1,8.2-1.23c2.9.06,5.22,1.08,7.9,2l1.74-6.29c-3.16-.47-6.32-.92-9.5-1.3s-6.39-1.19-9.5-.35c-2.57.7-3.39,4.74-.78,6,2.81,1.37,5.76,1.29,8.85,1.51q5,.36,10.06.55c4.31.17,4-6,0-6.53a44.79,44.79,0,0,0-18,1.89,2,2,0,0,0-1.35,2.37,3.42,3.42,0,0,0,1.51,2.38c1.89,1.47,4.59-1.12,2.68-2.69Z"/></g></g></svg>