<svg xmlns="http://www.w3.org/2000/svg" viewBox="0 0 281 521.89"><defs><style>.cls-1{fill:#4d4d4d;stroke-width:12px;}.cls-1,.cls-2{stroke:#000;stroke-miterlimit:10;}.cls-2{fill:#1a1a1a;stroke-width:9.45px;}.cls-3{fill:#fff200;}.cls-4{fill:#b2a71b;}</style></defs><title>Asset 12</title><g id="Layer_2" data-name="Layer 2"><g id="Layer_16" data-name="Layer 16"><rect class="cls-1" x="6" y="6" width="269" height="392"/><circle class="cls-2" cx="140" cy="183" r="78"/><path d="M251.12,30.94a4.75,4.75,0,0,1-3.06-2.77c-.55-1.52-.11-2.59,1.61-2.37,2.62.34,5,3.42,3.65,6-2.73,5.27-10.24.43-6.71-4C248.78,25,255,25.69,254.16,30a5.6,5.6,0,0,1-6,4.46c-7-1-4.83-10,1.64-9.66,1.56.08,1.94-2,.76-2.8-4.4-2.82-9.81-.27-12,4.23-2.28,4.8.58,10.24,4.93,12.64a11,11,0,0,0,14-2.86c3.41-4.21,3.64-11.51-1.6-14.43-4.83-2.69-12.28-.83-14.78,4.2A10.35,10.35,0,0,0,243.63,38c4,3.26,10,2.17,13.41-1.42,3.91-4.08,3.15-10.35-.84-14.07s-12.61-4.37-14.32,2.12c-1.4,5.35,3.7,13.85,9.8,10.56,1.95-1.06,1.17-3.59-.56-4.29Z"/><path d="M31,32.91c-1.06.39-3.78,1.15-4.73.24s-.13-6.56.49-7.48c2.44-3.61,9.32-.38,10.36,3.2a5.61,5.61,0,0,1-1.09,5c-1.65,1.88-4.2,1.4-6.35.84s-4.68-1.41-5.4-3.89c-.42-1.41-.57-5,.34-6.2s5.26-1.39,6.48-1.15c3.38.65,3.08,3.36,2.22,6.07-.8,2.5-3.95,4.45-5.27,1-.85-2.23.77-4.78,2.89-5.5,4.91-1.66,6.63,6.16,1.45,5.59S27.9,22.89,29,19.28c.52-1.65-1.85-3.17-3-1.76-2.63,3.17-4.07,6.64-3.06,10.8a10,10,0,0,0,7,7.45c6.94,1.95,13.51-4.21,10.35-11.19-3.25-7.19-13.4-6.37-16.91.19S25.11,40,32.81,38.05c7.27-1.88,9.83-14.71,3.4-18.89-3.68-2.39-8.42-1.81-12.42-.61-4.29,1.29-5.4,4.47-5.59,8.66-.17,3.74.4,7.55,3.35,10.14A17.72,17.72,0,0,0,34.62,41c7.18-1.24,10.62-10,7.05-16.12C37.9,18.39,24,14.77,21.07,24c-1.1,3.37-1.68,9.66.75,12.64,3,3.64,7.4,1.53,10.59-.37,1.7-1,.59-4-1.4-3.32Z"/><path d="M251.12,375.94a4.75,4.75,0,0,1-3.06-2.77c-.55-1.52-.11-2.59,1.61-2.37,2.62.34,5,3.42,3.65,6-2.73,5.27-10.24.43-6.71-4,2.17-2.73,8.36-2.08,7.55,2.25a5.6,5.6,0,0,1-6,4.46c-7-1-4.83-10,1.64-9.66,1.56.08,1.94-2,.76-2.8-4.4-2.82-9.81-.27-12,4.23-2.28,4.8.58,10.24,4.93,12.64a11,11,0,0,0,14-2.86c3.41-4.21,3.64-11.51-1.6-14.43-4.83-2.69-12.28-.83-14.78,4.2A10.35,10.35,0,0,0,243.63,383c4,3.26,10,2.17,13.41-1.42,3.91-4.08,3.15-10.35-.84-14.07s-12.61-4.37-14.32,2.12c-1.4,5.35,3.7,13.85,9.8,10.56,1.95-1.06,1.17-3.59-.56-4.29Z"/><path d="M31,377.91c-1.06.39-3.78,1.15-4.73.24s-.13-6.56.49-7.48c2.44-3.61,9.32-.38,10.36,3.2a5.61,5.61,0,0,1-1.09,5c-1.65,1.88-4.2,1.4-6.35.84s-4.68-1.41-5.4-3.89c-.42-1.41-.57-5,.34-6.2s5.26-1.39,6.48-1.15c3.38.65,3.08,3.36,2.22,6.07-.8,2.5-3.95,4.45-5.27,1-.85-2.23.77-4.78,2.89-5.5,4.91-1.66,6.63,6.16,1.45,5.59s-4.5-7.75-3.38-11.36c.52-1.65-1.85-3.17-3-1.76-2.63,3.17-4.07,6.64-3.06,10.8a10,10,0,0,0,7,7.45c6.94,2,13.51-4.21,10.35-11.19-3.25-7.19-13.4-6.37-16.91.19s1.77,15.27,9.47,13.28c7.27-1.88,9.83-14.71,3.4-18.89-3.68-2.39-8.42-1.81-12.42-.61-4.29,1.29-5.4,4.47-5.59,8.66-.17,3.74.4,7.55,3.35,10.14A17.72,17.72,0,0,0,34.62,386c7.18-1.24,10.62-10,7.05-16.12-3.77-6.47-17.63-10.09-20.6-.9-1.1,3.37-1.68,9.66.75,12.64,3,3.64,7.4,1.53,10.59-.37,1.7-1,.59-4-1.4-3.32Z"/><path class="cls-3" d="M134.67,288l-.68-.36,4.91,4.91.89,1.74-.39-1,.12,1.18c-.09-.84-.16-1.67-.21-2.51q-.23-3.37-.15-6.74c0-1.41.13-2.82.21-4.22,0-.41.23-2.6,0-1,.27-2.22.71-4.45,1.16-6.64a74.61,74.61,0,0,1,1.94-7.33c.34-1.07.71-2.13,1.1-3.18.93-2.56-.69,1.43.4-1.07,1-2.32,2.26-4.51,3.5-6.72.62-1.09.39-1.75.42-.87.12,2.68-15-9.89-13.81-3.79.39,1.93,1.18,3.8,1.57,5.74.06.27.45,3,.31,1.73-.17-1.58.09,2.17.11,2.5.07,2,0,4-.11,5.95,0,.86-.21,2.17,0,.56-.18,1.23-.43,2.45-.7,3.66a35.59,35.59,0,0,1-3.32,9.79c-.91,1.78-2,3.44-3,5.14-2.3,3.78.75-.73-.83,1.22-.78,1-1.62,1.88-2.47,2.79L150,295.9a30,30,0,0,1-.95-12.94c.29-2.53-.81,2.61.37-1.79.28-1,.51-2.09.82-3.12a18.36,18.36,0,0,1,2-4.84,23.64,23.64,0,0,1,7.79-9.12c-1.29,1,1-.65,1.41-.9.83-.53,1.68-1,2.55-1.51a16.44,16.44,0,0,1,4.86-2.1c1-.29,1.9-.54,2.86-.78s1-.23-.08-.12l1.44,0c-.74-.43-4.58-2.65-5.3-2.64-.47-1-.55-1-.23.06.23.87.27,1.07.12.59.08-1.08-.32,2.51-.07.95a23.47,23.47,0,0,1-.86,3.19,27.58,27.58,0,0,1-2.82,5.75,64.61,64.61,0,0,1-8,10.9q-2.92,3.27-6.11,6.28c-.84.8-1.7,1.62-2.59,2.37,1.17-.75,1.34-.88.5-.38q-1.61.91,1.22-.62c-8.11,1.91-13.7,11.61-11.12,19.58,2.77,8.56,10.86,13,19.58,11.11,9.51-2.08,15.94-11.11,21.49-18.41a95.47,95.47,0,0,0,13-22.68c6.53-16.52,3.63-44-19.55-43.59-16.39.26-31.58,11.2-41.07,23.78-10.45,13.85-13.62,32.05-9.38,48.76,2.65,10.43,16.9,14.39,24.35,6.43a71.12,71.12,0,0,0,19-43.77c1.23-16.24-4.27-45.5-26.93-40.19-16.82,3.93-25.08,27.41-27.67,42.48a89.3,89.3,0,0,0-.16,28.12c1.77,12.34,12.12,20,24.16,14.25,9-4.26,8.36-18.5,0-23Z"/><path class="cls-3" d="M133.15,295.51c-5.14-1.95-8.25-5.42-11.83-9.28a25.11,25.11,0,0,1-6.45-12.93c-2.28-11.34,3.45-24,11.3-34.44L100.87,232c0,11.25-.29,22.48-.59,33.72l-.41,15.87-.23,8.92-.1,4-.05,2q-.3,4.3,2.22-4.27l5.86-3.42-1.32.25h7.06c-1.61-.33-1.78-.54-2.75-1.94-1.15-1.64-1.41-2.95-2-5.14-1.57-5.78-1.38-11.8-1.19-17.76s.12-12.07.59-18.07c.22-2.82-.17.33.21-1.28s.72-3,1.2-4.48-.85,1,.57-1.17c.51-.8,3-3.42,1-1.59.85-.76,1.61-1.62,2.48-2.37,1.21-1-1.83.83.68-.34,1.25-.58,2.4-1.37,3.67-1.91-3.12,1.32,1.19-.22,1.52-.32,1.14-.32,2.3-.59,3.46-.83s3.09-.42.78-.2a66,66,0,0,1,8.55-.3c4.24.14,8,.78,10.52,2.86a21.61,21.61,0,0,1,3.07,3.53c.16.28,1.15,2.71,1.69,3.63s5,4.78,3.24,3.35c2.94,2.41,6.63,3.26,10.1,1.3,9.73-5.51,8.41-19.8,4-28.47-5.76-11.32-17.06-16.1-29.11-17.28-18.89-1.84-39.36,3.88-50.76,19.83-11.75,16.42-9.3,40.47-4.9,59a60.13,60.13,0,0,0,13.5,26.12c3.4,3.86,7.09,7.79,12.21,9.25a15.86,15.86,0,0,0,18.33-7.87c3-5.58,2.23-12.87,2.39-19l.46-17.85c.33-12.57.63-25.13,1.27-37.69.56-11-15.79-18.87-23.18-9.6-13,16.34-21.57,38.42-15.18,59.31,5.55,18.12,21,33.65,41,32,10.62-.87,12.37-14.48,2.46-18.23Z"/><path class="cls-3" d="M111.23,227.61c2-.67,3.09-1.77,4.87-2.81,1.42-.82-2.31.37,1.69-.62a74.32,74.32,0,0,1,8.18-2c6.21-.84,14.62-.38,20,.31a63.59,63.59,0,0,1,9.66,2,23.4,23.4,0,0,1,6.61,2.79c.41.32,2.74,3.2,1.59,1.59,1.27,1.77.39-.2.72,1.92.42,2.82,1.42,5.49,2,8.25,1.46,6.85,9.28,8.58,14.77,6,14.17-6.64,10.53-25.18,2.29-35C175,200,161.32,197.1,148.74,195.65A60.59,60.59,0,0,0,113,202.21c-4.76,2.52-10.12,6.5-12,11.75-2.27,6.17,2.3,16.27,10.29,13.65Z"/><path class="cls-3" d="M113.75,219.83c4.25-2.22,8.4-1.79,13-1.5a88.66,88.66,0,0,1,14.42,1.61,90,90,0,0,1,15.87,4.45,47.49,47.49,0,0,1,8.24,4.46c.76.52.84.57.24.13l1.14,1s2.64,2.9,1.84,1.84c2.9,3.86,2.79,5.73,1.13,11.52-1.92,6.68-4.29,13.22-6.19,19.91-4,14-7.83,28.17-6.18,42.81.81,7.24,4.94,13.46,12.7,14.38,6.55.78,14.9-3.2,16.07-10.49,1.61-10,3.17-19.92,3.9-30l-26.5,3.58a41.13,41.13,0,0,1,2.26,6.89c.48,2.18-.1,2.89.32.56-.24,1.32-.51,2.62-.86,3.91-1.22,4.47-3.31,7.69-6.18,11.86l25.65,10.82c4.32-16.72,7.49-34.38,7.66-51.68l-27.77,3.76c2.18,10.53-.4,22.84-2.33,33.46-1.17,6.4,1.2,12.87,7.57,15.43,5.61,2.26,13.47.61,16.33-5.35,3.79-7.89,5.15-16.2,5.75-24.9.52-7.44-.45-15,.45-22.4.92-7.59-7.16-14.13-14.14-14.13-8.14,0-13.53,6.49-14.13,14.13-1.18,15.12-2.78,29.42-6.46,44.22-3.93,15.81,16.84,23.87,25.66,10.81,8.46-12.53,8.8-30.16,6.23-44.56-2.42-13.59-22.64-12.07-26,0-2.38,8.55-4,17.13-5.65,25.84l28.78,3.9c-1.42-16.28,1.55-31.12,6.29-46.6,2.46-8,5.38-16.26,4.61-24.8a39.65,39.65,0,0,0-10.8-23.6c-11.28-12.25-28.38-15.56-44.22-17.24-14.62-1.54-28.29,2.41-39.06,12.56-7.29,6.86,2,17.78,10.35,13.42Z"/><path class="cls-3" d="M98.05,417c4.55-9.28,4-21.13,4.15-31.29,0-2.37-.09-4.74-.06-7.1,0-2.59-.08-2.75.43-4.44,1.29-4.29,4.16-9.34,5.69-14.26,1.43-4.58,2.36-9.3,3.85-13.86.33-1,.69-2,1.07-3,.93-2.45-.75,1.53.36-.84q1.35-2.91,3-5.67c4.41-7.49,11.12-11.87,16.91-20,7.09-9.94-4.87-26.24-16.56-21.53-11,4.42-19.11,14.28-25.19,24.22-5.76,9.42-8.57,19.62-11.31,30.19-1.41,5.39-3.45,9.14-5.16,14.42-1.8,5.57-2,11.51-1.54,17.3.44,6.15,1.43,12.27,2.26,18.39.81,5.92,1.6,12.3,4.82,17.48,3.72,6,13.86,7,17.31,0Z"/><path class="cls-3" d="M85.68,409.64,84.79,411c-7.63,11.65,14,21.6,17.81,7.51,1.75-6.47,1.76-13.74,2.09-20.42.3-6.28.56-12.57.89-18.85.54-10.64,5.17-20.24,10.39-29.45,4.57-8.05,10-16.4,19.28-18.61a172.43,172.43,0,0,1,17.19-3c6.72-.89,13.7-.53,20.13-2.79,5.37-1.9,9.41-6.44,9.41-12.37,0-5.51-4-11-9.41-12.36-8.19-2-16.41-.42-24.63.9a117,117,0,0,0-20.37,5c-14.32,5-23.75,14.81-31.45,27.68-3.32,5.55-6.67,11.91-8.38,18.15s-2.1,13.74-3,20.31a184.35,184.35,0,0,0-1.53,21.38c-.21,8-.87,16.45.64,24.38L101.62,411l-.84-1.36a8.85,8.85,0,0,0-15.1,0Z"/><path class="cls-3" d="M115.83,338.15c5.19,1.38,9.9,2.79,15.31,3.2,4.28.32,8.57.69,12.87.74,10.07.1,21.19-.74,30.18-5.59,6-3.24,8.32-11.2,5.66-17.25a13.93,13.93,0,0,0-16.3-8c-8.25,1.89-16.28,5.28-24.55,7.34-4.11,1-8.28,1.87-12.36,3-4.33,1.16-8.21,3.3-12.33,5-5.19,2.2-3.32,10.28,1.52,11.56Z"/><path class="cls-3" d="M168.11,324.17c-.53,8.76.82,17.86,2.32,26.49,1.46,8.45,2.74,16.94,4.41,25.36l22-9.27c-4.15-7.82-5.92-16.71-7.58-25.39-1.46-7.57-3.64-16.3-.88-23.76l-18.5,4.89c2,2.62,1.59,8.56,1.72,11.69.27,6.67.64,13.35,1.3,20s1.55,13.55,2.52,20.29c1,7,1.77,15.11,5.83,21.07,4.83,7.08,18,7.3,19.94-2.61,1.62-8.29-.74-16.76-2.19-25-1.24-7-2.28-14-3.19-21.08-1.8-14-1.08-28.54-10.28-40.06-5.66-7.1-16-2.07-18.5,4.88-3.79,10.43-1.43,22.09.51,32.67s5.35,21,7.32,31.64c2.47,13.34,24.18,10.26,23.62-3.2-.73-17.58-4-38.29-14.3-53-4.92-7-15.53-4.46-16,4.34Z"/><path class="cls-3" d="M180.66,339.27c2.91,11.79,5.48,23.42,6.6,35.61a196.52,196.52,0,0,1,1,20.73c-.09,7.35-1.71,16.68,2.44,23.1s13.61,6.85,17.56,0c4.57-7.9,1.63-19.14.85-27.83-.74-8.42-1.65-16.84-3.13-25.17-1.68-9.52-7.49-39.7-23.08-31.91a4.91,4.91,0,0,0-2.23,5.47Z"/><path class="cls-3" d="M184.4,386c-.58,1.87-1.73,3.49-2.17,6.22a34.71,34.71,0,0,0-.32,9.38c.69,5.72,2.66,10.94,2.54,16.78l7.51-9.87a12.47,12.47,0,0,0-7.65,5.85c-3.57,5.56-.1,13.56,6.16,15.15a33.76,33.76,0,0,0,16.59,0c4.08-1,8.36-5.81,7.82-10.27-.49-4-1.06-7.25-4.35-9.89-4.36-3.51-11.71-4-14.68,1.89a18.92,18.92,0,0,0-1.9,5.17l7.44-7.44a11.64,11.64,0,0,1-5.43.63l6.16,15.15.47-.89-6.14,4.72,1-.36c4-1.51,7.82-5.14,7.51-9.86a64.54,64.54,0,0,0-4.17-18.07c-1.76-4.89-4.4-11.7-8.91-14.61l2.6,3.37a25.63,25.63,0,0,1-1-3.07,4.72,4.72,0,0,0-9,0Z"/><path class="cls-3" d="M178.33,392.19a31.31,31.31,0,0,0,4.12,20.25,10,10,0,0,0,12.4,4.06c4.23-1.78,7.48-7.05,5.76-11.71a41.26,41.26,0,0,0-4.46-8.63c-1.7-2.54-3.11-5.15-5.35-7.27-3.68-3.48-11.56-2.55-12.47,3.3Z"/><path class="cls-4" d="M94.36,500.4c-1.89-8.66-1.24-18.09-.46-26.87a108.63,108.63,0,0,1,1.42-11.65c.93-4.72,3.74-9,4.49-13.57.71-4.33-.11-8.49-3.84-11.27-3.13-2.34-8.47-3.41-11.9-.84-10.8,8.1-11.44,24-12,36.51s.1,25.76,10.07,34.79a7.37,7.37,0,0,0,12.21-7.1Z"/><path class="cls-4" d="M72,428.81c-.12,5.66,4.18,9.28,6.51,14.07,2.41,5,1.11,10.06,2.84,15,2.07,6,10.73,8,14.09,1.85,6.41-11.73-3.1-31-14.63-36-4-1.74-8.71.25-8.81,5.06Z"/><path class="cls-4" d="M74.71,432.83c3.31.69,6.47,2.35,9.72,3.33,2.73.82,6.68,1.27,9,2.8l-3.09-3.09L91,437l-1.19-4.37c.49,4.14-1.38,8.9-2.56,12.84-1.22,4.1-2.65,8.13-4.16,12.13-3.24,8.62-6.68,17.13-9.19,26-2.35,8.35-2.41,17.23,4.41,23.54,3.87,3.57,10.3,4.52,14.28.54A10,10,0,0,0,95,503.6a15.94,15.94,0,0,0,.35-3.44c.07-1.28,0-1.47-.2-.57a53.93,53.93,0,0,1,1.55-9.67c1.2-4.75,2.33-9.5,3.59-14.24a252.8,252.8,0,0,0,5.61-25c1.28-8,4.67-21.21-3.73-26.54-3.31-2.1-7.81-2.42-11.56-3.17-4.46-.9-9.4-2.15-14-1.93-7.56.35-10,12.15-1.88,13.83Z"/><path class="cls-4" d="M82.27,486.6c-.35,6.47,4,14.52,6.61,20.39,3.38,7.55,11.5,11.42,19,6.87a9.63,9.63,0,0,0,4.34-10.64c-1.19-4.25-3.79-6.2-6-9.69-1.37-2.16-.86-4.25-1-6.75a16.52,16.52,0,0,0-14.83-15.94c-6.12-.73-9.15,6.08-8.33,10.94.43,2.61,3,7.07,5.93,7.58,1.22.87.84.26-1.14-1.81v1.57a21.53,21.53,0,0,0,.48,5.46,25,25,0,0,0,2.92,7.68c1.15,2,3.35,3.9,3.75,6l6.58-11.6-1.26.24h5.13c1.81,1.71,2.36,1.94,1.63.72-.37-.76-.74-1.52-1.08-2.29-.8-1.69-1.58-3.37-2.37-5.06-1.66-3.55-3.08-6.75-5.64-9.77-5.21-6.11-14.42-.77-14.8,6.13Z"/><path class="cls-4" d="M83.56,436.31c-.81-.81,1.14,1.63.18.15l-6.46,11.25c.44,0,.86.07,1.3.12l-2-.27c2.67.38,5.43.93,8.09.13a7,7,0,0,0,4.83-4.83,7.17,7.17,0,0,0-1.78-6.72A12.32,12.32,0,0,0,82.34,433a15.07,15.07,0,0,0-5.06-.25,8.09,8.09,0,0,0-4.53,1.61,7.12,7.12,0,0,0-2.68,3.88c-.72,3.15.43,6.86,3.44,8.45a9.14,9.14,0,0,0,5.26,1.19,8.68,8.68,0,0,0,3.42-.93,6.86,6.86,0,0,0,1.37-10.64Z"/><path class="cls-4" d="M179.46,439.64c1.37,4,4.58,4.95,6.55,8.14,2.1,3.4,3.56,7.85,5.17,11.56,3.52,8.11-.81,19.05,8.15,24.29a9.54,9.54,0,0,0,11.34-1.46l.39-.4a8.83,8.83,0,0,0,1.35-10.44c1.09,2,0-2.71-.09-3.68a67.56,67.56,0,0,0-.82-7.64c-.93-5.33-3.7-10.41-6.22-15.15-3.82-7.17-13-20.1-22.59-13.18-2.42,1.75-4.31,4.84-3.23,8Z"/><path class="cls-4" d="M195.5,444l.82.28-3.21-1.87c2.74,2.38,6.25,4,8.4,7,2.86,4,.72,8.71,3.45,12.87l13.26-10.23c-1.92-2.4.75-6.82,1.8-8.86,2-3.91.72-7.25-1.29-10.75l1.12,4.13-.13.28-15.46,2a13.33,13.33,0,0,0,4,4.16,6.43,6.43,0,0,0,6.65,0,13.32,13.32,0,0,0,4-4.16c3-4.62,0-11-5.05-12.42a8.57,8.57,0,0,0-10.71,8.16,11.1,11.1,0,0,0,6.26,10.3l-2.79-2.79.49,1.07-1-3.79c.19,2.77-.7,5.53-1,8.29a55.86,55.86,0,0,1-.95,8.08c-1.92,7.64,5.86,12.53,12.4,9.54,10.7-4.89,6.08-21.5-.4-28-5.79-5.82-16.55-10.9-23.6-4.63-4.06,3.59-1.52,9.77,3,11.32Z"/><path class="cls-4" d="M200.35,459.59c-.38,3.14-.81,6.25-1,9.4-.09,1.17-.12,2.36-.28,3.52a23,23,0,0,1-.51,2.6q-1.07,3,3.82-1l3.84,2.24a8.42,8.42,0,0,1-1.5-1.65l2.14,3.66-.16-1c-1.09-7.08-11.33-7.29-14.55-1.9-2.71,4.55-3.65,9.76-.62,14.4a10.9,10.9,0,0,0,6.1,4.41,9.71,9.71,0,0,0,5.13-.17c.43-.11,3-1.09,2.37-1.11L201.21,492c-1.12-2-1.56-2.4-1.34-1.2a16.46,16.46,0,0,1,.11,2.33,36.25,36.25,0,0,1-.24,4.54,92.59,92.59,0,0,1-1.78,9.51c-2.13,9.79,10.06,14.48,15.68,6.61,7.13-10,10.25-22,10.37-34.21l-17,7c.74,1,.88,2.66,1,3.89.23,2.92-.11,5.49.5,8.53,1.44,7.12,10.1,7.79,14.81,3.91,9.48-7.81,4.54-22.68-2.21-30.41-5.61-6.43-17.42-1.36-17,7a52.6,52.6,0,0,1-5.27,25.55l16,4.33c.91-7.35,1.93-15.34-.17-22.6a15,15,0,0,0-4.86-7.59,9.93,9.93,0,0,0-4.73-2c-1-.14-4.83.22-4.19.48l5,3.81.05,2-13.75-8c-2.39,5-2,10.36,2.65,13.9a11.79,11.79,0,0,0,15.17-1.07c7.77-7.47,4.75-21.24,2-30.28-2-6.77-10.83-4.79-11.6,1.57Z"/><path d="M188,309.89c6.13,18.78,10.48,37.78,14.19,57.19q3,15.45,5,31.05c.65,5.09,1.29,10.19,1.83,15.3.49,4.53.38,9.48,3,13.38,1.37,2.06,5.17,2.72,6.37,0,2-4.65,1.23-9.39.71-14.33-.56-5.25-1.18-10.48-1.93-15.7q-2.34-16.2-5.71-32.23c-2.17-10.37-4.89-20.63-7.84-30.8-2.64-9.07-5.39-18.85-11.89-26a2.21,2.21,0,0,0-3.66,2.13Z"/><path d="M158.63,341.79q5.76,21.78,10.88,43.72,2.44,10.5,4.74,21c1.49,6.81,1.87,15.68,5.38,21.72,1.81,3.13,5.85,1.4,6.23-1.69.8-6.6-2.34-14.71-3.75-21.18q-2.38-11-4.94-22-5.11-21.94-10.88-43.72c-1.31-4.94-9-2.84-7.66,2.11Z"/><path d="M175.51,425.64c.49,3.71,2.64,5.09,6.08,6.16a62.42,62.42,0,0,0,16.31,2.88c8.15.23,19.72-2.5,23.8-10.43,1.08-2.11,2-5.81-.79-7.08-3.08-1.42-6.35,2.68-8.43,4.29a23.34,23.34,0,0,1-13.61,4.66,52.57,52.57,0,0,1-10.49-.68c-1.29-.21-2.57-.45-3.85-.69-.85-.16-3.11-1.14-2.63,0-1.24-3-6.91-3.14-6.39.87Z"/><path d="M178.9,423.59c-7.43,6.13.77,18.25,3.88,24.54,2.25,4.54,4,9.3,5.94,14,1.84,4.37,4,9.61,8.41,11.89a2.41,2.41,0,0,0,3.49-2.68c-.69-4.19-3.34-8.22-5-12.13-1.52-3.69-2.85-7.45-4.47-11.1-1.7-3.83-4-7.27-6-10.94-2.32-4.3-2.39-8.4-3.8-12.89a1.5,1.5,0,0,0-2.46-.65Z"/><path d="M216.71,418.13c-1,9.37.66,19.1.19,28.56-.22,4.45-.55,8.91-1.13,13.33-.6,4.68-2.24,9.43-1.27,14.11.65,3.16,4.76,3.07,6.34.82,2.57-3.67,2.69-8.68,3.26-13a139,139,0,0,0,1.21-16.17c.12-9.45.13-20.14-3.59-29-1.16-2.74-4.77-.93-5,1.36Z"/><path d="M192.48,472.25c0-.28,0-.15,0,.05a7.89,7.89,0,0,0,.08.85c0-.1.14.77.09.5s0,.41,0,.41a2.19,2.19,0,0,0,1.11,1.93l.11.05-.8-1,0,.21c.21,1.3,1.87,1.41,2.69.71l-.31.3L196,476a2.38,2.38,0,0,0,.81-.8,7.68,7.68,0,0,0,.61-1.34,5.76,5.76,0,0,0,.1-3,2.63,2.63,0,0,0-3.23-1.83,2.7,2.7,0,0,0-1.83,3.23Z"/><path d="M193.59,469.77c-4,2.53-5.26,9.08-5.87,13.4s-2,12.33.27,16.45c6.37,11.33,17.74-11.91,17.94-17.08a2.55,2.55,0,0,0-3.81-2.19c-2.83,1.84-4.29,4.17-5.92,7.08a34.69,34.69,0,0,0-2.83,5.17c-1.22,1-1.3,1.85-.22,2.62q1.24,2.1.69-.72c1.35-6.17-1.47-14.81,3.2-20.26,2-2.32-.56-6.3-3.45-4.47Z"/><path d="M200.68,482.4c-.69,4.38-.35,8.86-.9,13.28-.65,5.22-2.38,9.76-3.85,14.75-1.67,5.63.44,12,7.42,11.43s9.68-8.4,11.34-14c2.38-8,3.74-18,1.15-26.12a2.23,2.23,0,0,0-4.36.59c-.38,6.34,0,12.42-1.49,18.69a57,57,0,0,1-2.44,7.64c-.43,1.06-4.8,9.92-5.45,4.55-.27-2.19,1.8-5.51,2.35-7.7a57.44,57.44,0,0,0,1.42-8c.54-5.09.49-10.83-1.59-15.57a2,2,0,0,0-3.6.47Z"/><path d="M211,513.25c12.33,8.62,21.34-26.35,8.79-33.63a1,1,0,0,0-1.56.89c-.27,4.93,1.6,9.84,1.31,14.89-.33,5.7-2.07,11.74-8,13.36a2.49,2.49,0,0,0-.58,4.49Z"/><path d="M224.14,506.29c8.63-1.51,9.35-13.35,8.29-20.11-1-6.24-5.28-19.3-12.67-20.33a2.51,2.51,0,0,0-3,3c.41,2.89,2.68,4.7,4.21,7.1a30.51,30.51,0,0,1,4,9.85c.77,3.51,1.19,7.5-.08,10.93-1,2.8-2.93,4.56-3.28,7.59-.16,1.41,1.4,2.13,2.54,1.93Z"/><path d="M120.92,341.21c6.39,4.76,14.85,5.44,22.58,5.15,7.15-.27,19.55-.89,24.39-6.84a3.37,3.37,0,0,0-2.34-5.66c-3.57-.36-6.83,1.43-10.22,2.36a58,58,0,0,1-11.83,2A50.88,50.88,0,0,1,133,338c-3.46-.52-6-2.28-9.26-3.37-4.19-1.4-5.83,4.35-2.78,6.62Z"/><path d="M74.23,223.8c5.45,1.66,10.28-3.9,14.2-7,5.68-4.43,11.14-9.26,17.09-13.32,10.63-7.26,24.4-9.1,37-9.38,12.33-.28,24.86,1.91,35.39,8.61a43.57,43.57,0,0,1,11.95,11.13c3.16,4.38,4.73,9.37,7.17,14.1,2.09,4,8.2,2,8.27-2.24.21-12.08-10-23.26-19-30-11.28-8.31-25.36-11.81-39.22-12-13.68-.2-29.85,1.57-42,8.36-6.8,3.81-12.59,9.49-18.48,14.53-3,2.56-6,5.12-9,7.77-2.55,2.33-4.79,4.35-4.43,8.07a1.39,1.39,0,0,0,1,1.29Z"/><path d="M79.57,214.3l-.58.07a4,4,0,0,0-3.77,3.77c-.78,7-.06,14.34-.5,21.41-.48,7.69-1.12,15.37-.93,23.08a88,88,0,0,0,11.91,41.7c2.73,4.75,11.34,1.52,9.14-3.85-2.78-6.79-6.38-13.17-8.49-20.24A80,80,0,0,1,83.43,259c-.28-13.89.88-27.72-.76-41.57-.18-1.48-1.28-3.33-3.1-3.09Z"/><path d="M193.05,221.55c.23,7.71,1.23,15.34,1.26,23.07q0,12.15-.86,24.27c-.55,7.55-1.12,15.16-2.16,22.65a38.81,38.81,0,0,1-2.39,9.73c-.67,1.59-2,3.11-2.55,4.72a5.07,5.07,0,0,0,4.84,6.36c7.14-.13,9-9.83,9.87-15.45,1.25-7.93,1.46-16.11,1.87-24.12.84-16.83,1.83-35.9-3.81-52-1.1-3.15-6.19-2.85-6.07.82Z"/><path d="M85.42,293.32c.13,3.17,2,5.89,2.59,9a34,34,0,0,1,0,11.78c-1.23,7.91-4.88,15.37-7.87,22.72a113.76,113.76,0,0,0-6.88,23.71c-.71,4.09-1.26,8.2-1.78,12.32-.48,3.87-1.42,7.29,1.85,10.18a4.27,4.27,0,0,0,5,.65c4.26-2.37,3.82-6.48,4.29-10.83s1-8.7,1.81-13c1.71-9.45,4.92-18.23,8.05-27.26,2.67-7.71,4.73-16.15,3.8-24.36-.64-5.63-2.65-14.45-8.64-16.61a1.79,1.79,0,0,0-2.25,1.72Z"/><path d="M74,377c-3.15,5.78-2.66,13.43-2.62,19.82a156.3,156.3,0,0,0,2,21.91c.8,5.23,8.93,3.07,8-2.21-1.19-6.84-1.93-13.73-2.49-20.65-.48-6,.19-12.83-2.1-18.49A1.58,1.58,0,0,0,74,377Z"/><path d="M80.44,385.66c.06-2.35-.06-4.65.16-7,.2-2.13.54-4.22-.32-6.26a1.3,1.3,0,0,0-2.14-.56c-3.71,3-3.19,10.23-2.13,14.41.63,2.51,4.36,1.91,4.43-.6Z"/><path d="M77.34,394.41a104.83,104.83,0,0,1,.33-15.55c.52-4.92,2.68-10.4,2-15.29-.26-2-2.93-3.94-4.58-1.9-3.39,4.17-3.81,10.14-4.31,15.36a69,69,0,0,0,.84,18.15c.56,3.22,5.84,2.47,5.69-.77Z"/><path d="M125.58,333c-2.48,1.17-3.07,1-4.81,3.06-1,1.14-1.78,2.41-2.63,3.63a100.87,100.87,0,0,0-6.45,10.38,64.5,64.5,0,0,0-6.75,21.27c-1.12,7.8-1.54,15.72-2,23.59-.23,4.58-.41,9.16-.61,13.75-.14,3.11.52,9.63-.65,11.57l3.32-2.55c-2.54.95-6.78-.73-9.33-1.41a55.55,55.55,0,0,1-8.88-3.18c-5.23-2.41-10.61-7.9-16.37-8.11a4.63,4.63,0,0,0-4.42,5.81c1.4,5.4,8.08,8.67,12.75,11.07a66,66,0,0,0,16.38,5.84c4.5,1,11.49,3,15.28-.74,4.19-4.08,2.68-13,2.85-18.3.43-13.23-.44-27.05,1.64-40.14a60.85,60.85,0,0,1,6.44-18.85c1.35-2.58,2.85-5.09,4.36-7.59,1.88-3.1,2-4.21,2.22-7.72a1.61,1.61,0,0,0-2.39-1.38Z"/><path d="M77.65,394.07c.83-6.84,4-14.43,3.13-21.34-.26-2.19-3.2-3.51-4.48-1.22-3.78,6.79-2,15.62-1,22.88.21,1.44,2.19.88,2.33-.32Z"/><path d="M68.2,412.44l-.71.19A3.56,3.56,0,0,0,65,415.15c-1.39,7.15.44,14.87,1.65,22,1.32,7.73,2.81,15.75,5.45,23.14,2.05,5.71,10.55,3.5,9.17-2.52-2.14-9.26-5-18.32-7-27.64-.94-4.51-1-9.6-2.22-14-.46-1.61-1.59-4.28-3.86-3.67Z"/><path d="M106.17,423.14c-.65,4.38,0,8.84-.45,13.27a90.62,90.62,0,0,1-2.71,14c-1.15,4.45-2.41,8.87-3.58,13.31-1.11,4.22-2.75,8.46-1.8,12.81.71,3.29,5,3.31,6.68.88,2.49-3.68,2.79-8.92,3.87-13.19,1.27-5,2.6-10.07,3.58-15.18,1.57-8.17,3.65-18.85-.22-26.62-1.06-2.13-5-1.8-5.37.7Z"/><path d="M72.08,461.85C69.55,468.09,70,476,70.43,482.57c.37,6,.79,12.56,3.49,18a64.89,64.89,0,0,0,4.36,7.19,5.47,5.47,0,0,0,4.56,2.71,7.37,7.37,0,0,0,8.17-7.1,2.9,2.9,0,0,0-4.9-2c-1,1-1.84,1.74-3.32,1.27l2.28,1.76c-1.22-2.75-3.38-4.88-4.64-7.6-1.74-3.76-2.05-8.28-2.39-12.33-.63-7.46.5-15.27-.78-22.62-.51-2.93-4.31-2.15-5.18,0Z"/><path d="M83.15,493.09c-.75,4.9,1.27,9.74,3.1,14.21,1.59,3.87,3.06,9,7.48,10.47,9.1,3.05,12-11.33,6.79-16.27a1.65,1.65,0,0,0-2.3,0c-1.41,1.65-1.68,3.25-2,5.38,0,.17-.52,4.21-.52,4.21-.32,0-1.63-3.06-1.73-3.27-2.32-4.93-3.55-10.65-6.29-15.33-1-1.69-4.24-1.62-4.57.6Z"/><path d="M90.37,493.88c1.51,5.55,12.44,30.91,21.42,22.66,3.64-3.35,4.57-10.64,2.55-14.94-1.12-2.37-2.93-4.26-4.53-6.3-2.66-3.38-2.72-7.14-4.62-10.79-1-1.9-4.33-1.57-4.74.62a16,16,0,0,0,2,10.51c2,3.68,6.7,6.66,6.4,11.1,0,.75-.58,3.55-1.18,3.55-.21,0-1.42-1.55-1.62-1.77a34.69,34.69,0,0,1-3.66-5.46c-2.33-4.07-4.23-8.33-7.2-12-1.88-2.32-5.51.2-4.8,2.8Z"/><path d="M101.67,478.58a31.41,31.41,0,0,1,3.06,6.14c.48,1.38,1.75,4.81,1.49,5.55L108,487.9l-.51.25,3.06-.4c-1.09-.25-2.5-1.77-3.35-2.42l-4-3c-4.08-3.07-8,3.81-4,6.85,2.51,1.89,5.21,4.67,8.12,5.87a4.79,4.79,0,0,0,6.65-3.13c.6-2.54-.57-6-1.34-8.38a40.24,40.24,0,0,0-4.16-9c-2.68-4.33-9.55-.35-6.86,4Z"/><path class="cls-4" d="M135,373l-3.13.82,4.89,3.73c.43-6.37,6.27-13.05,10.23-17.78a126.26,126.26,0,0,1,13.91-13.55l-6.77-1.78c1.67,4.52-2,9.19-4.24,12.93s-4.71,7.54-7.26,11.18a172.44,172.44,0,0,1-16.92,20.35h6.21l-.62-.73,1.29,3.12c-.25-2.54,2.93-6.05,4.27-8.17,1.65-2.61,3.37-5.17,5.23-7.65a85.45,85.45,0,0,1,13.54-14.7l-6.75-2.8c.11,2.37-2.79,5.51-4,7.46-1.69,2.64-3.41,5.26-5.12,7.89q-4.86,7.5-10.07,14.75l7.89,4.61a74.4,74.4,0,0,1,10.25-13.57,68.31,68.31,0,0,1,5.82-5.34c1.31-1.07,5-4.54,6.83-4.4l-2.89-1.2c-.72-.8-4.2,5.82-4.83,6.76a52.44,52.44,0,0,1-5.67,7,55.64,55.64,0,0,1-14.59,10.91l6.2,6.2c5.35-12,13.26-20.48,24.63-27l-5.13-1.34c1.56,2.71-7.53,9.83-9.33,11.34a68.89,68.89,0,0,1-12.89,8.22l4.64,7.95a31.28,31.28,0,0,1,20-6.26l-3.69-4.84c-.55,3.25-5.71,4.17-8.32,5a77.38,77.38,0,0,1-11.47,2.9c-4,.66-7.83.74-11.65-.84-1.16-.48-9.37-4.26-8.32-6h-8.41a24.74,24.74,0,0,1,4.46,8.87c.89,3.59,6.25,4.37,8,1,2.25-4.21,2-8.19,1.43-12.81A39.46,39.46,0,0,1,124,369h-8.41A59.14,59.14,0,0,1,118,387.93c-.17,5.63,8.59,5.63,8.75,0A67.32,67.32,0,0,0,124,366.68a4.4,4.4,0,0,0-8.41,0,47.46,47.46,0,0,0-2,13.71c.05,4,2.07,9.63.06,13.34l8,1a39.44,39.44,0,0,0-4.52-11.44c-2-3.27-6.32-3-8.41,0-8.72,12.5,13.79,22.34,23.22,21.88,7.41-.36,14.89-2.89,21.64-5.81,5.34-2.31,10.2-5,10.81-11.24.21-2.14-1.92-3.71-3.81-3.82-8.93-.52-17,1.16-24.67,5.95-5.13,3.22-.67,10.31,4.64,7.95A52.64,52.64,0,0,0,159,384.46c4.25-5,8.92-10.84,5.64-17.51a3.76,3.76,0,0,0-4.24-1.72c-13.6,5.42-24.55,16.83-30,30.36-1.55,3.84,3.52,6.93,6.67,5.12a65,65,0,0,0,18.86-16.12,62.54,62.54,0,0,0,6.94-10.91c1.36-2.75,3.3-6.17,1.9-9.28-6.23-13.89-31.86,18.19-35.09,23.69-3,5.14,4.59,9.39,7.89,4.61,4.08-5.92,8.09-11.92,11.79-18.09,2.75-4.58,8.14-11,7.45-16.62-.41-3.27-4.09-5.37-6.75-2.79-6.58,6.37-12.9,12.63-18.33,20.06-3.67,5-11.52,13.86-6,19.87a4.42,4.42,0,0,0,6.21,0,223.23,223.23,0,0,0,19.43-25.57c5.05-7.78,12.77-17.48,10.59-27.26a4.08,4.08,0,0,0-5.95-2.42,79.49,79.49,0,0,0-18.14,17.5c-4.11,5.3-11.5,14.06-8.69,21.22a3.94,3.94,0,0,0,6.47,1.71l2.41-2.06c2.47-2.11-.18-6-3-5.23Z"/><path class="cls-4" d="M123.55,388c-4-3.58-3.7-11.73-3.3-16.67a41.36,41.36,0,0,1,6.07-18l-7-.92c2.53,10.23-1.39,20.17-1.22,30.41.13,7.82,5.2,13.57,13.34,12.09l-5.07-5.07-.3.86,1.9-2.47c1.47.6,2,.19,1.62-1.22.07-1.17.14-2.34.23-3.52.19-2.55.43-5.11.81-7.65a57.2,57.2,0,0,1,3.83-14.13l-8-2.16-2.79,21.23,8.54-1.16c-3.31-12.64-7-27-1-39.45L123,338a50.3,50.3,0,0,1-8.5,27.61l8.06,2.18a89.76,89.76,0,0,1,7.83-39h-7.62c4.46,8-.38,16.55-5.49,22.95l5.17-.67c-3.28-1.42,1.8-10.72,3-12.63,1.11-1.76,7.92-10.49,10-9.48.54.26.13,5.19.08,6.1a42.84,42.84,0,0,1-1.38,8.49,46.93,46.93,0,0,1-7.16,15.12l8.17,1.07a28.47,28.47,0,0,1,5.76-25.79l-6.83-1.8a26.42,26.42,0,0,1-5.28,22.05l7.25,3c-1-8.08-.45-16.81,5-23.31l-7.21-3a30.72,30.72,0,0,1-5.67,17.53l8,1a72.5,72.5,0,0,0-10-22c-1.59-2.38-6.09-3.23-7.45,0A79.83,79.83,0,0,0,114.38,340h8.26c-1-5.7,3.47-10.12,8-12.75a40.19,40.19,0,0,1,6.28-3.09c3.24-1.2,4.3-.24,6.22,2.49,4.65,6.62,6.19,17.4,5.37,25.32l1.23-3-.67.77,2.8-1.16c-1.67.12-2.38-9.71-2.43-10.9-.16-4.07.59-8,1.05-12,.48-4.2-6.1-4.83-7.21-1a123.63,123.63,0,0,1-10.79,26l7.68,2.08a28.32,28.32,0,0,1,4.13-17.38l-7.1-1.92c.52,9.26.8,18.4,2.69,27.51.93,4.5,7.68,3.3,7.79-1.05A76.3,76.3,0,0,1,152,337.38c1.59-4.86-6-6.86-7.62-2.1a122,122,0,0,1-10.53,22.5c-2.79,4.67,4.6,9,7.28,4.26A132.22,132.22,0,0,0,152,337.38l-7.62-2.1a137.77,137.77,0,0,0-4.63,24.62h7.93c-1.07-8.79-2.62-17.6-2.86-26.46a3.84,3.84,0,0,0-7.1-1.93,35.85,35.85,0,0,0-5.79,21.23c.15,3.88,5.69,5.87,7.68,2.08a128.7,128.7,0,0,0,10.75-28.18l-7.21-1c0,6.38.09,13.27,1.55,19.5.85,3.61,1.55,10.22,6.12,11.19,11.22,2.39,5.65-21.33,4.08-26.23a28.23,28.23,0,0,0-8.45-13.22c-4.66-3.89-8.88-2.77-14-.41-10.48,4.85-20.25,13-18,25.75.74,4.25,7.29,3.92,8.26,0a66.37,66.37,0,0,1,3.42-10.44h-7.45a69.5,69.5,0,0,1,9,20c1.05,3.77,5.93,4.09,8,1a39.06,39.06,0,0,0,6.58-21.93c0-4.07-5.88-5.9-7.86-2.13-4.67,8.87-8.17,18.27-6.83,28.42.41,3.12,4.66,6.27,7.25,3a35.49,35.49,0,0,0,7.15-30.23c-.62-2.89-4.86-4.1-6.83-1.81-8.15,9.55-11.55,21.64-8.6,33.94,1,4.05,6.06,4,8.17,1.07a51.58,51.58,0,0,0,9.74-27.3c.38-6.67-1.17-18.49-10.87-15.69-7.71,2.22-14.38,11-17.5,17.9-2.65,5.92-5.78,16.82,2.08,20.35,1.6.71,3.9.87,5.16-.67,7.78-9.49,13.77-21.64,7.08-33.44-1.5-2.65-6.26-3.11-7.62,0a103.61,103.61,0,0,0-8.86,43.48c.07,4.45,5.71,5.68,8.06,2.19a58.11,58.11,0,0,0,9.84-32c0-4.19-6.25-6.24-8.21-2.23-7.28,14.88-3.85,30.94.26,46.21,1.37,5.09,8,3.43,8.54-1.15L135,359.58c.51-4.11-6.35-6-8-2.16a74.77,74.77,0,0,0-5.86,30.92c.11,3.4,1.51,6.93,5,8.06a6.39,6.39,0,0,0,8.09-4.34c1.07-3.21-2.2-5.63-5.07-5.07-5.51,1.06-2.06-15.41-1.76-18,.73-6.29.89-12.41-.74-18.58a3.9,3.9,0,0,0-7-.92,49.24,49.24,0,0,0-6.87,24.34c-.07,6.83.8,14.94,7.58,18.36,2.52,1.27,5.53-2,3.18-4.13Z"/><path class="cls-4" d="M143.09,323.46c.75-1.5,1.5-1.77,2.25-.82.62.5,1.23,1,1.82,1.54.79.71,1.57,1.44,2.31,2.2a35.23,35.23,0,0,1,5.7,7.49,21.39,21.39,0,0,1,1.72,17.86h7.36a274.7,274.7,0,0,1-9.41-30.58l-6.3,2.66c3.87,5.45,7.62,11.22,9.41,17.74,1.27,4.68,2.24,14.69-2.31,18.11-2.79,2.11-1.34,7.67,2.63,6.23,8-2.93,9.33-13.58,8.34-21-1.29-9.73-6.69-17.73-12.66-25.25-2.27-2.86-6.53.28-5.76,3.35,2.57,10.35,5.41,20.64,8.7,30.78a3.85,3.85,0,0,0,7.36,0c3.77-12.15-1.45-24.45-10.59-32.7-3.12-2.82-8-7.46-12.47-4.71-3.62,2.22-2.76,6.62.23,8.78,1.08.78,2.14-.68,1.67-1.67Z"/><path class="cls-4" d="M130.34,339.43A18.73,18.73,0,0,1,137,332a18.21,18.21,0,0,1,3.88-1.86c3.74-1.3.93.25-1.39.9-1.12.31-3.44,1.06-4.63.5-2.46-1.15-.44-2.19,1.32-3.51a49.54,49.54,0,0,1,9.09-5.19c2.23-1,2-4.53,0-5.62a7.16,7.16,0,0,0-10.1,3.11c-2,4.23.47,8.9,4,11.41,3.86,2.78,10.46,5,15.17,3.72,4.21-1.18,6.94-5.87,5.21-10l-6.95,2.93c6.92,15.13,8.7,31.16,2.89,47l8.71,1.17c-.47-8.84-1.46-17.48,4.15-25l-7.38-2c.2,5,.24,9.93.33,14.9.08,4,.6,8.37-.18,12.35-1.47,7.59-9.45,11.6-15.63,14.9l4.55,7.8c10.63-5.86,21-14.81,23.61-27.23,2.27-10.76-1.87-22.68-11.81-28.07-4.88-2.65-8.45,4.07-4.24,7.26a29.27,29.27,0,0,1,10,13c1.59,4.35,1.75,12.26-4.58,12.57l3,7.16c5.54-5.46,11.32-11.68,12.83-19.59s-2-14.9-6.73-20.91c-6-7.62-12.75-14.68-19.15-21.93-3.95-4.47-10.88-12.57-16.89-6-3.63,4,1.79,9.21,5.83,5.84-1.3.12-1.48.34-.55.68a4.59,4.59,0,0,1,1.68,1.32c.92.85,1.71,1.92,2.54,2.85l7,7.84C156.61,339,161,343.6,165,348.5c3.49,4.3,6.69,9.53,5.26,15.28S164,374.13,160,378.24c-2.41,2.45-.77,7.4,3,7.15,8.55-.55,14.17-7.92,13.75-16.33-.48-9.48-7-18.38-14.07-24.22l-5.1,6.6c7.1,4.19,9,13.45,6.6,21-2.87,8.88-10.89,14.94-18.71,19.28-5.1,2.83-.57,10.55,4.55,7.8,7.55-4.05,15.67-9,18.64-17.52,1.55-4.45,1.25-9.17,1-13.8-.29-6.21-.66-12.42-.82-18.63-.11-4.24-5.1-5-7.38-2-6.19,8.08-6.75,19.23-6.17,29a4.45,4.45,0,0,0,8.7,1.18c6.17-17.1,5.23-37.7-4.87-53.16-2.66-4.07-9.1-.4-6.57,3.84,1,1.73-6.31-.54-6.73-.72l-1.77-.78q-2.53-.9-2.09-4.08v-5.62c-5.31,2.4-17.17,7.74-15,15.56,2,7.23,13.4,4.7,17.82,1.53,3.91-2.8,4.42-9.82-1.6-10.12-7.45-.38-14.48,6.33-17.52,12.46-1.56,3.16,3.12,5.94,4.75,2.78Z"/><path class="cls-4" d="M148,319.07l-.08-.58-1.17,2c.6-.44,4.92,1.54,5.51,1.8a31,31,0,0,1,6.91,4l2.7-6.52c-3.92.23-7.38-2-11.18-2.74a27.51,27.51,0,0,0-10.62.2c-7.38,1.45-14.82,5.16-21.33,8.83a4,4,0,0,0-.79,6.15l.58.57a3.54,3.54,0,0,0,4.24.55,3.72,3.72,0,0,0,1.71-2.85l-2.73,2.73c6.51-2.74,12.62-6.58,19.6-8.08a19.84,19.84,0,0,1,11.16.72c3.16,1.06,6,1.94,9.36,1.56,3.77-.42,5.21-4.86,1.93-7.12-4.28-3-14.2-8.63-19.36-5.08a3,3,0,0,0-1.3,3.19l.13.67a2.38,2.38,0,0,0,1.65,1.65l.58.2a2,2,0,0,0,2.5-1.9Z"/><path d="M123.25,325c1.58-3.86,6.73-5.07,10.35-6.3,4.31-1.47,8.83-2.56,13.4-2a16.19,16.19,0,0,1,9.42,4.42c2.25,2.26,3.12,5.72,6.22,7,1.22.51,2.85.65,3.82-.5,4-4.66.27-10.5-3.56-14a25.56,25.56,0,0,0-16.84-6.43c-7.22-.1-14.28,2.4-20.61,5.69-4.92,2.55-9.72,5.9-8.54,12.08.69,3.55,5.26,2.66,6.34,0Z"/><path d="M122.58,315.74c-13.15,3-14.79,23-15.47,33.64-.63,9.94-1.08,19.9-1.62,29.85-.44,8.35-2,16.82,5.35,22.58,12.78,10,31.6,8.74,45.6,2.4,13-5.88,30.54-19.4,29.53-35.34-.57-9.19-4.61-18.66-8.16-27-3.74-8.81-8-19-14.68-26-4.24-4.5-10.21,1.21-8,6.18,3.53,7.92,8.79,15.06,12.31,23.07a132.82,132.82,0,0,1,5,13.38c1.21,3.8,2.94,8.1,2.76,12.14-.36,7.9-9,14.87-14.89,19.08-6.59,4.73-14.29,8.16-22.45,8.8a36,36,0,0,1-12.48-1.11c-2.8-.78-8.43-2.42-9.93-5.3-1.1-2.13-.41-5.65-.35-7.94l.2-7.85.35-13.73c.21-8.2-.1-16.68,1.31-24.79a36.38,36.38,0,0,1,2.85-9.53c1.53-3.2,3.86-5.76,5.58-8.82a2.53,2.53,0,0,0-2.82-3.67Z"/></g></g></svg>