<svg xmlns="http://www.w3.org/2000/svg" viewBox="0 0 281 404"><defs><style>.cls-1{fill:#4d4d4d;stroke-width:12px;}.cls-1,.cls-2{stroke:#000;stroke-miterlimit:10;}.cls-2{fill:#1a1a1a;stroke-width:9.45px;}</style></defs><title>Asset 7</title><g id="Layer_2" data-name="Layer 2"><g id="Layer_7" data-name="Layer 7"><rect class="cls-1" x="6" y="6" width="269" height="392"/><circle class="cls-2" cx="140" cy="183" r="78"/><path d="M251.12,30.94a4.75,4.75,0,0,1-3.06-2.77c-.55-1.52-.11-2.59,1.61-2.37,2.62.34,5,3.42,3.65,6-2.73,5.27-10.24.43-6.71-4C248.78,25,255,25.69,254.16,30a5.6,5.6,0,0,1-6,4.46c-7-1-4.83-10,1.64-9.66,1.56.08,1.94-2,.76-2.8-4.4-2.82-9.81-.27-12,4.23-2.28,4.8.58,10.24,4.93,12.64a11,11,0,0,0,14-2.86c3.41-4.21,3.64-11.51-1.6-14.43-4.83-2.69-12.28-.83-14.78,4.2A10.35,10.35,0,0,0,243.63,38c4,3.26,10,2.17,13.41-1.42,3.91-4.08,3.15-10.35-.84-14.07s-12.61-4.37-14.32,2.12c-1.4,5.35,3.7,13.85,9.8,10.56,1.95-1.06,1.17-3.59-.56-4.29Z"/><path d="M31,32.91c-1.06.39-3.78,1.15-4.73.24s-.13-6.56.49-7.48c2.44-3.61,9.32-.38,10.36,3.2a5.61,5.61,0,0,1-1.09,5c-1.65,1.88-4.2,1.4-6.35.84s-4.68-1.41-5.4-3.89c-.42-1.41-.57-5,.34-6.2s5.26-1.39,6.48-1.15c3.38.65,3.08,3.36,2.22,6.07-.8,2.5-3.95,4.45-5.27,1-.85-2.23.77-4.78,2.89-5.5,4.91-1.66,6.63,6.16,1.45,5.59S27.9,22.89,29,19.28c.52-1.65-1.85-3.17-3-1.76-2.63,3.17-4.07,6.64-3.06,10.8a10,10,0,0,0,7,7.45c6.94,1.95,13.51-4.21,10.35-11.19-3.25-7.19-13.4-6.37-16.91.19S25.11,40,32.81,38.05c7.27-1.88,9.83-14.71,3.4-18.89-3.68-2.39-8.42-1.81-12.42-.61-4.29,1.29-5.4,4.47-5.59,8.66-.17,3.74.4,7.55,3.35,10.14A17.72,17.72,0,0,0,34.62,41c7.18-1.24,10.62-10,7.05-16.12C37.9,18.39,24,14.77,21.07,24c-1.1,3.37-1.68,9.66.75,12.64,3,3.64,7.4,1.53,10.59-.37,1.7-1,.59-4-1.4-3.32Z"/><path d="M251.12,375.94a4.75,4.75,0,0,1-3.06-2.77c-.55-1.52-.11-2.59,1.61-2.37,2.62.34,5,3.42,3.65,6-2.73,5.27-10.24.43-6.71-4,2.17-2.73,8.36-2.08,7.55,2.25a5.6,5.6,0,0,1-6,4.46c-7-1-4.83-10,1.64-9.66,1.56.08,1.94-2,.76-2.8-4.4-2.82-9.81-.27-12,4.23-2.28,4.8.58,10.24,4.93,12.64a11,11,0,0,0,14-2.86c3.41-4.21,3.64-11.51-1.6-14.43-4.83-2.69-12.28-.83-14.78,4.2A10.35,10.35,0,0,0,243.63,383c4,3.26,10,2.17,13.41-1.42,3.91-4.08,3.15-10.35-.84-14.07s-12.61-4.37-14.32,2.12c-1.4,5.35,3.7,13.85,9.8,10.56,1.95-1.06,1.17-3.59-.56-4.29Z"/><path d="M31,377.91c-1.06.39-3.78,1.15-4.73.24s-.13-6.56.49-7.48c2.44-3.61,9.32-.38,10.36,3.2a5.61,5.61,0,0,1-1.09,5c-1.65,1.88-4.2,1.4-6.35.84s-4.68-1.41-5.4-3.89c-.42-1.41-.57-5,.34-6.2s5.26-1.39,6.48-1.15c3.38.65,3.08,3.36,2.22,6.07-.8,2.5-3.95,4.45-5.27,1-.85-2.23.77-4.78,2.89-5.5,4.91-1.66,6.63,6.16,1.45,5.59s-4.5-7.75-3.38-11.36c.52-1.65-1.85-3.17-3-1.76-2.63,3.17-4.07,6.64-3.06,10.8a10,10,0,0,0,7,7.45c6.94,2,13.51-4.21,10.35-11.19-3.25-7.19-13.4-6.37-16.91.19s1.77,15.27,9.47,13.28c7.27-1.88,9.83-14.71,3.4-18.89-3.68-2.39-8.42-1.81-12.42-.61-4.29,1.29-5.4,4.47-5.59,8.66-.17,3.74.4,7.55,3.35,10.14A17.72,17.72,0,0,0,34.62,386c7.18-1.24,10.62-10,7.05-16.12-3.77-6.47-17.63-10.09-20.6-.9-1.1,3.37-1.68,9.66.75,12.64,3,3.64,7.4,1.53,10.59-.37,1.7-1,.59-4-1.4-3.32Z"/></g></g></svg>