<svg xmlns="http://www.w3.org/2000/svg" viewBox="0 0 281 404"><defs><style>.cls-1{fill:#4d4d4d;stroke-width:12px;}.cls-1,.cls-2{stroke:#000;stroke-miterlimit:10;}.cls-2{fill:#1a1a1a;stroke-width:9.45px;}.cls-3{fill:#af0000;}</style></defs><title>Asset 10</title><g id="Layer_2" data-name="Layer 2"><g id="Layer_13" data-name="Layer 13"><rect class="cls-1" x="6" y="6" width="269" height="392"/><circle class="cls-2" cx="140" cy="183" r="78"/><path d="M251.12,30.94a4.75,4.75,0,0,1-3.06-2.77c-.55-1.52-.11-2.59,1.61-2.37,2.62.34,5,3.42,3.65,6-2.73,5.27-10.24.43-6.71-4C248.78,25,255,25.69,254.16,30a5.6,5.6,0,0,1-6,4.46c-7-1-4.83-10,1.64-9.66,1.56.08,1.94-2,.76-2.8-4.4-2.82-9.81-.27-12,4.23-2.28,4.8.58,10.24,4.93,12.64a11,11,0,0,0,14-2.86c3.41-4.21,3.64-11.51-1.6-14.43-4.83-2.69-12.28-.83-14.78,4.2A10.35,10.35,0,0,0,243.63,38c4,3.26,10,2.17,13.41-1.42,3.91-4.08,3.15-10.35-.84-14.07s-12.61-4.37-14.32,2.12c-1.4,5.35,3.7,13.85,9.8,10.56,1.95-1.06,1.17-3.59-.56-4.29Z"/><path d="M31,32.91c-1.06.39-3.78,1.15-4.73.24s-.13-6.56.49-7.48c2.44-3.61,9.32-.38,10.36,3.2a5.61,5.61,0,0,1-1.09,5c-1.65,1.88-4.2,1.4-6.35.84s-4.68-1.41-5.4-3.89c-.42-1.41-.57-5,.34-6.2s5.26-1.39,6.48-1.15c3.38.65,3.08,3.36,2.22,6.07-.8,2.5-3.95,4.45-5.27,1-.85-2.23.77-4.78,2.89-5.5,4.91-1.66,6.63,6.16,1.45,5.59S27.9,22.89,29,19.28c.52-1.65-1.85-3.17-3-1.76-2.63,3.17-4.07,6.64-3.06,10.8a10,10,0,0,0,7,7.45c6.94,1.95,13.51-4.21,10.35-11.19-3.25-7.19-13.4-6.37-16.91.19S25.11,40,32.81,38.05c7.27-1.88,9.83-14.71,3.4-18.89-3.68-2.39-8.42-1.81-12.42-.61-4.29,1.29-5.4,4.47-5.59,8.66-.17,3.74.4,7.55,3.35,10.14A17.72,17.72,0,0,0,34.62,41c7.18-1.24,10.62-10,7.05-16.12C37.9,18.39,24,14.77,21.07,24c-1.1,3.37-1.68,9.66.75,12.64,3,3.64,7.4,1.53,10.59-.37,1.7-1,.59-4-1.4-3.32Z"/><path d="M251.12,375.94a4.75,4.75,0,0,1-3.06-2.77c-.55-1.52-.11-2.59,1.61-2.37,2.62.34,5,3.42,3.65,6-2.73,5.27-10.24.43-6.71-4,2.17-2.73,8.36-2.08,7.55,2.25a5.6,5.6,0,0,1-6,4.46c-7-1-4.83-10,1.64-9.66,1.56.08,1.94-2,.76-2.8-4.4-2.82-9.81-.27-12,4.23-2.28,4.8.58,10.24,4.93,12.64a11,11,0,0,0,14-2.86c3.41-4.21,3.64-11.51-1.6-14.43-4.83-2.69-12.28-.83-14.78,4.2A10.35,10.35,0,0,0,243.63,383c4,3.26,10,2.17,13.41-1.42,3.91-4.08,3.15-10.35-.84-14.07s-12.61-4.37-14.32,2.12c-1.4,5.35,3.7,13.85,9.8,10.56,1.95-1.06,1.17-3.59-.56-4.29Z"/><path d="M31,377.91c-1.06.39-3.78,1.15-4.73.24s-.13-6.56.49-7.48c2.44-3.61,9.32-.38,10.36,3.2a5.61,5.61,0,0,1-1.09,5c-1.65,1.88-4.2,1.4-6.35.84s-4.68-1.41-5.4-3.89c-.42-1.41-.57-5,.34-6.2s5.26-1.39,6.48-1.15c3.38.65,3.08,3.36,2.22,6.07-.8,2.5-3.95,4.45-5.27,1-.85-2.23.77-4.78,2.89-5.5,4.91-1.66,6.63,6.16,1.45,5.59s-4.5-7.75-3.38-11.36c.52-1.65-1.85-3.17-3-1.76-2.63,3.17-4.07,6.64-3.06,10.8a10,10,0,0,0,7,7.45c6.94,2,13.51-4.21,10.35-11.19-3.25-7.19-13.4-6.37-16.91.19s1.77,15.27,9.47,13.28c7.27-1.88,9.83-14.71,3.4-18.89-3.68-2.39-8.42-1.81-12.42-.61-4.29,1.29-5.4,4.47-5.59,8.66-.17,3.74.4,7.55,3.35,10.14A17.72,17.72,0,0,0,34.62,386c7.18-1.24,10.62-10,7.05-16.12-3.77-6.47-17.63-10.09-20.6-.9-1.1,3.37-1.68,9.66.75,12.64,3,3.64,7.4,1.53,10.59-.37,1.7-1,.59-4-1.4-3.32Z"/><path class="cls-3" d="M68.36,210.15c-2.36,5.57,1,12,3,17.22,2.92,7.74,6.07,15.36,8.22,23.36a104.09,104.09,0,0,1,3.2,23.89c.25,7.2.94,14,3.84,20.7a3.17,3.17,0,0,0,4.32,1.14c6-3.91,6-10.8,6.07-17.27.12-10.18.24-20.35.3-30.52,0-4.39-6.79-4.39-6.81,0q-.06,11.31,0,22.64c0,4.9,2.09,16.46-2.71,19.7l4.32,1.13c-3.08-6.9-3-14.44-3.37-21.84a89,89,0,0,0-3.28-20.24,174.56,174.56,0,0,0-7.32-19.54c-2.86-6.69-6.74-13.07-8.35-20.19-.14-.58-1.12-.78-1.38-.18Z"/><path class="cls-3" d="M92.65,286.26c2-7.81-.12-16.4-2-24.06-2.09-8.51-4.89-16.87-7.77-25.14l-7.2,3a56.38,56.38,0,0,1,9.41,20.15c1,4,7.83,3.28,7.37-1a30.6,30.6,0,0,0-7.6-17.16l-3.36,5.76A10.57,10.57,0,0,1,88,251l4.14-5.38c-6.15-3.41-9.6-8.17-14.21-13.23-1.92-2.11-5.89.09-4.91,2.86,2.55,7.18,9.19,12.66,15.67,16.28,3.36,1.89,6.94-2.58,4.15-5.37a16.68,16.68,0,0,0-9.48-5c-3.4-.54-5.72,3-3.36,5.76a20.21,20.21,0,0,1,5,12.29l7.36-1a67.79,67.79,0,0,0-9.84-22.14c-2.37-3.46-8.73-1.45-7.2,3,2.64,7.71,4.94,15.51,7.28,23.32a199.41,199.41,0,0,1,5.14,23.78c.45,2.55,4.35,2.32,5,0Z"/><path class="cls-3" d="M68.13,216.63c7.66,19.75,23.8,35,43.27,43a82.54,82.54,0,0,0,33.79,6.2c10.74-.29,24.6-1.82,33.21-8.76,3.1-2.49-.42-6.35-3.43-5.9-5.06.75-9.82,3-14.8,4.19a76.16,76.16,0,0,1-15.84,2,78,78,0,0,1-30.05-5.32,79.9,79.9,0,0,1-23.56-14.63c-7.41-6.59-12.88-14.51-18.6-22.51-1.32-1.84-5-.8-4,1.69Z"/><path class="cls-3" d="M98.82,252.23c-1.52,21-.46,42.07,1.46,63,.87,9.44,1.63,19.09,3.67,28.37,1.27,5.83,4.1,18.16,10.89,20.09,7.82,2.22,9.79-9.24,11.2-14.17,2.79-9.75,5.22-19.6,7.12-29.57,3.71-19.54,5.33-39.46,2.83-59.26-.65-5.1-7.33-5.12-8,0l-5.59,45.23c-.89,7.21-1.7,14.43-2.67,21.63-.76,5.61-1.68,12.41-6.78,15.79l5.85,3.35a223.79,223.79,0,0,1,8.1-56.18l-7.51-1a377.84,377.84,0,0,1-9,48h7.28a140.92,140.92,0,0,1-1.8-55.12l-7.35-1a348.07,348.07,0,0,1-4.15,57.32l7.28,1c-.7-20.46-1.4-41.07,1.61-61.4h-7.07a67,67,0,0,1-1,31.09h6.92a172.39,172.39,0,0,1-7-55.07l-6,.82a104.74,104.74,0,0,1,2.73,32.1l6.39-1.73a69.5,69.5,0,0,1-9.64-30.87l-4.22,3.22c6.72,1.37,9.25,8.75,10.83,14.63a59.52,59.52,0,0,1,1.53,21.92l7.48-1a65.32,65.32,0,0,1,1.07-35.43H108.7a140.25,140.25,0,0,1,5.88,44.9h7c-1.43-13.41-4.3-27.15-.35-40.34h-5.14a108.05,108.05,0,0,1,0,28.91l6.38-.86a26.65,26.65,0,0,1,3.06-17.92l-5.67-.74a34.79,34.79,0,0,1,.88,20.47h6.33a90.25,90.25,0,0,1-.26-26.51c.26-1.73-.4-3.95-2.44-4.3a56.87,56.87,0,0,1-22.57-9.18l-3.72,6.37a116.79,116.79,0,0,0,23,9.34c2.37.69,5.29-1.76,4.3-4.3-2.42-6.22-10.08-5.26-12.47.5-1.58,3.81-1.29,8.72-1.34,12.78-.07,5.44.21,10.87.62,16.29,1.61,20.87,5.33,42-.33,62.61h6.73c-2.83-13.92-2.26-28.46-1-42.53.23-2.46-3.3-2.59-4-.55-5.36,14.7-5,29.74-1.73,44.93.73,3.43,5.88,3.22,6.73,0,3.89-14.64,3.34-29.56,2.09-44.51-.63-7.56-1.45-15.1-1.9-22.67-.22-3.61-.37-7.24-.37-10.86,0-4,1.63-10.48.23-14.13l4.3-4.3a102.42,102.42,0,0,1-21.1-9c-4.21-2.37-7.52,3.65-3.72,6.37a53,53,0,0,0,25.36,9.67l-3.49-3.49a116.42,116.42,0,0,0,.79,29.19c.53,3.25,5.63,3,6.33,0a42.29,42.29,0,0,0-1.23-23.87c-.83-2.45-4.28-3.17-5.67-.75a33.69,33.69,0,0,0-4,22.79c.51,3.07,5.82,3.13,6.27,0a83.16,83.16,0,0,0-1.24-31.2c-.58-2.51-4.6-2.57-5.14,0a129.53,129.53,0,0,0-1.49,41.76c.51,4.34,6.92,4.6,7,0a169.19,169.19,0,0,0-6.31-46.71c-.93-3.4-5.47-3-6.55,0a66,66,0,0,0-1.86,39.26c1.15,4.34,7.14,3.12,7.48-1,1.09-13.63-1.39-39.41-18.21-43-2-.42-4.35.94-4.22,3.22a73,73,0,0,0,10.39,34.33,3.46,3.46,0,0,0,6.39-1.73A112.17,112.17,0,0,0,105,253.47c-.91-3.46-5.8-2.55-6,.81a167.93,167.93,0,0,0,6.22,57,3.62,3.62,0,0,0,6.92,0,74.06,74.06,0,0,0,1.18-34.95c-.69-3.4-6.54-3.59-7.07,0-3.14,21-2.65,42.18-2,63.35.13,4,6.6,5.29,7.28,1A360,360,0,0,0,116,281.36c0-4.06-6.63-5.28-7.35-1a150.89,150.89,0,0,0,1.74,59.12c.84,3.65,6.37,3.54,7.28,0a394.7,394.7,0,0,0,9.38-50c.53-4.36-6.39-5.05-7.51-1a232.15,232.15,0,0,0-8.5,58.22c0,2.85,3.37,5,5.84,3.36,11.47-7.55,10.88-24.15,12.4-36.26l6.68-53.1h-8a177,177,0,0,1-1.65,51.52c-1.38,8.12-3.17,16.16-5.18,24.15q-1.4,5.54-2.87,11c-.66,2.43-1.28,4.9-2,7.3l-.49,1.22a1.8,1.8,0,0,0-.42-2.67c-1.21-3.67-3-7-4-10.83-.88-3.57-1.47-7.2-2-10.83-1.24-8.69-2.17-17.43-2.94-26.17-1.54-17.69-1.9-35.44-2.54-53.17-.12-3.32-4.89-3.27-5.12,0Z"/><path class="cls-3" d="M123.82,280.82c-4,4.45-.44,16,.8,21.21a108.06,108.06,0,0,0,3.56,12.09c1.07,2.94,2.13,6.68,4.38,9,5.18,5.33,11.23-.36,14.21-5,3.45-5.33,4.59-11.79,5.71-17.92a84.37,84.37,0,0,1,2.11-9.71c.72-2.33.13-3.36,2.24-2.45,1.25.54,2.31,1.43,3.6,2,6.09,2.53,13,.13,17.52-4.35,4.93-4.89,6.51-11.82,7.32-18.48.46-3.74.63-7.52,1.42-11.22.9-4.26,3.19-7.12,4.93-10.92,1.51-3.3-1.59-6.73-5-5-11.09,5.63-8,24.06-11.31,33.84a12.82,12.82,0,0,1-5.88,7.6c-3.56,1.9-5.65.62-8.89-1.15-4.72-2.57-9.72-1.74-12.4,3.17-2.58,4.74-3.24,10.61-4.16,15.84-.89,5.07-1.67,13.5-6.19,16.9l.43.88a23.7,23.7,0,0,1-1.32-2.79c-.84-1.88-1.61-3.79-2.36-5.71-1.31-3.37-2.45-6.79-3.46-10.26s-1.94-6.94-2.71-10.45c-.67-3.06-.74-5.39-3.26-7.28a1.08,1.08,0,0,0-1.29.17Z"/><path class="cls-3" d="M164.17,259.85A51.28,51.28,0,0,0,183,254.22c6.32-3.36,10.17-7.65,14-13.55,1.2-1.85-1.11-3.83-2.88-2.88-7.48,4-14.47,8.64-21.81,12.87a71.14,71.14,0,0,1-12.21,5.23c-3.17,1.11-6.59,1.73-8.87,4.31-1.2,1.35-1,4.15,1.18,4.49,4,.64,7.53-1.26,11.26-2.66A74.1,74.1,0,0,0,175,256.91c7.73-4.52,14.76-10.17,21.67-15.81l-3-3c-7.74,8.95-20.44,13.21-30,19.75-.78.53-.61,2.11.53,2Z"/><path class="cls-3" d="M137.48,269.24c-.72.14-.8.37-.24.67a2.18,2.18,0,0,1,.89,1.8,19.16,19.16,0,0,1,.83,4.76,47.38,47.38,0,0,1-.21,10.17c-.73,6.63-2.37,13.19-2.5,19.89l7.71-1A61.81,61.81,0,0,1,142,289.79c-.07-4.16-.47-12.48,3.06-15.46l-5.76-2.39A132.32,132.32,0,0,1,134,317l6.22-.81c-5.34-6.92-11.06-23.78-3.15-31.14q1.54-2.24,4.48-1.16a29,29,0,0,1-.46,3.94c-.27,1.71-.57,3.42-.93,5.11a69.8,69.8,0,0,1-4.81,14l6,.79a50.12,50.12,0,0,1-1.6-9.26c-.27-3.34-5.1-3.41-5.25,0a61.24,61.24,0,0,0,.4,10.13c.33,2.81,4.61,5,6.12,1.66,1.93-4.25,11.86-34.93-1.09-31.74-5.2,1.27-7.71,7.85-8.25,12.52-1.05,9,1.47,18,2.2,26.89.3,3.74,5.52,4.73,6.69.9a132.46,132.46,0,0,0,5.5-46.83,3.43,3.43,0,0,0-5.77-2.39c-4.24,3.53-4.72,10.72-5.09,15.86-.5,7.11,1,14,1,21.12,0,5.13,7.38,4.94,7.85,0,1.13-12,5.47-26.23.66-37.95-1.36-3.32-4.84-6.6-8.67-5a4.76,4.76,0,0,0-1.87,7c1.06,1.57,4,.63,3.26-1.37Z"/><path class="cls-3" d="M137.21,283.42c1.38,8.64-1.58,19.11-5.18,27l5,.65c-.34-2.27-.46-4.51-.93-6.76-.43-2-3.35-1.8-3.92,0a17.8,17.8,0,0,0-.49,7.48c.28,2.79,4.73,4,5.34.72,1.87-10,5.74-19.83,4-30.1-.42-2.5-4.19-1.43-3.79,1.05Z"/><path class="cls-3" d="M137.74,280.17a27.32,27.32,0,0,1,7.06-12.24l-4.86-1.28c.38,1.09,2.46,7.11,1.44,7.77-.64.41-4.75-2.72-5.37-3.07-1.06-.59-7-3.11-6.15-4.09,1.15-1.37,5.27-.61,6.23.53l1.22-4.59a49.41,49.41,0,0,0-9.51,2.69c-3.75,1.27-7.43,1.24-11.37,1.21-2.85,0-2.76,4.13,0,4.37,6.95.62,14.17-.45,21-1.65L135,265.69a23.74,23.74,0,0,1-9,6.48l2.54,4.36a43.16,43.16,0,0,1,13.58-8.28q1.56-.57,3.15-1A14.62,14.62,0,0,0,148,266c.4-.83.3-.85-.3-.05-.34.39-.71.76-1.09,1.12a33.77,33.77,0,0,1-3.52,3l4.08,5.3a55.72,55.72,0,0,1,9.34-8.29l-4.86-2.79c.15,2.53-4,6.55-5.35,8.49-1.92,2.71-3.84,5.42-5.79,8.1-2.26,3.1,2.05,6.75,5,5,7.17-4.13,10.06-14.28,17.9-17l-3.8-5A49.91,49.91,0,0,1,148,278.22l5,5q9.26-9.13,18.31-18.46l-5.81-3.38c-2.46,6.51-9.52,9.6-11.37,16.68-.95,3.62,3.8,6.72,6.5,3.78,5.12-5.58,9.49-11.95,14.79-17.33l-4-.51c0,.08-9,10.2-9.77,11.22l5.6,4.32a108.37,108.37,0,0,1,12.57-15.45L175,260.34c-2.78,6.23-6.49,12.12-8.7,18.6l7.1,1c.66-7.4,1.41-14.88,5-21.51l-3.7.47c5.5,6.95-2.76,16.07-8.29,20-.79.57-3,2.42-4,1.74-.8-.56,2.88-5.4,3.15-5.7a24.81,24.81,0,0,1,8.23-6l-3.09-3.09A27.48,27.48,0,0,1,160,278.67l5.17,5.16c1.94-3.54,3.89-6.46,7.24-8.84l-5-3.81c-2,4.87-5.54,9-9.34,12.53-3.62,3.4,2.09,9.09,5.44,5.44a65.4,65.4,0,0,0,10.08-15.37c1.45-2.89-1.57-6.46-4.62-4.62A25.57,25.57,0,0,0,158.65,280a3.8,3.8,0,0,0,5.93,4.58,30.85,30.85,0,0,0,10.28-17,2.28,2.28,0,0,0-3.31-2.55c-5.61,2.92-11.92,8.57-14.14,14.73-2,5.47,2.72,7.84,7.4,6.08,10.82-4.06,22.85-19.73,13.24-30.31a2.39,2.39,0,0,0-3.7.48c-4.54,7-6.43,14.81-8,22.93-.74,3.73,4.86,6.77,6.6,2.78,2.65-6,4.31-12.42,7.44-18.26a3.1,3.1,0,0,0-4.85-3.75,69.17,69.17,0,0,0-14.36,16.22c-2.44,4,3.54,7.27,6.16,3.6,3-4.19,11.45-12.43,8.54-18.09a2.54,2.54,0,0,0-4-.51c-5.16,5.49-11.35,10.09-16.72,15.4l6.5,3.78c1.25-6.56,8.07-10.71,10.57-16.9,1.36-3.37-3.51-5.62-5.8-3.37q-9.28,9.11-18.39,18.38c-3.2,3.28,1.61,8,5,5a55.42,55.42,0,0,0,12.44-15.82c1.26-2.4-.87-6-3.81-5-8.89,3.22-12.3,12.16-19.82,17.14l5,5c2.42-3.8,4.91-7.57,7.38-11.34,1.83-2.79,4.21-5.45,3.87-9-.22-2.29-2.62-4.23-4.86-2.79a45.79,45.79,0,0,0-10.85,9.1,3.38,3.38,0,0,0,4.77,4.77c2.62-2.26,7.24-6,7.73-9.7.39-3-1.95-4.93-4.78-5.15-4.06-.31-8.76,1.88-12.37,3.55a49.2,49.2,0,0,0-12.81,8.76c-2.34,2.17.63,5.21,3.16,4.1a28.83,28.83,0,0,0,10.44-7.75,2.5,2.5,0,0,0-2.41-4.13c-6.57,1.26-13.06,1.45-19.69,2l.58,4.29c4.13-1.37,7.8-2.55,12.19-2.32a40.93,40.93,0,0,0,9.57-.57c2.14-.39,2.5-3.2,1.21-4.6-3.08-3.32-9-3.36-12.61-.72-5.33,3.91.59,6.72,3.28,9.49,3.08,3.17,9,11.45,14.44,8.36s2.47-12.5.17-16.62c-.84-1.5-3.39-2.06-4.57-.59a36,36,0,0,0-7.53,15.09c-.65,3,3.73,4.22,4.58,1.26Z"/><path class="cls-3" d="M145.05,280a94.54,94.54,0,0,0,5,29.3c2.64,7.71,7.69,15.72,17.13,13.22,9.08-2.4,11.76-11.68,12.89-19.89,1.4-10.14,1.48-20.1-2-29.83-1.25-3.48-7.43-4.51-8.13,0-1.5,9.66.39,20.21-2.65,29.57-.42,1.3-2.07,6.1-4.22,5.48-1.19-.34-2.25-5-2.52-6.17a21.78,21.78,0,0,1,1.83-15.19l-6.46-.84a71.64,71.64,0,0,1,.92,24.82h7.71a79.62,79.62,0,0,1-.59-11.75,21.33,21.33,0,0,1,1-5.47c.75-2.2,2-3,2.92-5l-.79-1a23.68,23.68,0,0,1,.06,2.92,19.77,19.77,0,0,1-.87,4.82,20.25,20.25,0,0,1-5.08,8.28l5.89.76c-1.08-2.3-2-7.06-1.23-9.54,1-3.18,4.6-5.63,7.25-7.39l-3.53-.45c3.61,3.79-3,13.05-5,16.37l6.86,1.86c.24-9,2-16,8.18-22.84l-4.73-2c-.48,3.62-3,7.41-4.62,10.68q-2.16,4.47-4.33,8.93l5.25,2.22a169.45,169.45,0,0,1,6.54-20.21c2.92-7,5.74-14.06,8.83-21l-4.17-1.13a193.69,193.69,0,0,1-1,37.22l5.4-1.46a22.8,22.8,0,0,1-3.35-21l-5.6-.76A125.9,125.9,0,0,1,176.43,297l5.65-.74c-3.46-4.85-6.33-10.7-4.21-16.71l-4-1.1c-1.59,7.81-2.87,16.34,1.86,23.38,1.63,2.42,4.25,5.26,7.49,4.5s5.86-5,7.23-7.81c3.74-7.69,4.68-16.89,5.47-25.3a102.57,102.57,0,0,0-1.49-29.88c-.75-3.81-7-3-6.8.92a149.29,149.29,0,0,1-.44,17.31c-.29,4.68.7,12.21-2.16,16l6.55.86c-1.58-4.28-3.57-7.91-3.7-12.57-.12-4.13.75-8.2.9-12.33.1-2.95-4.43-2.93-4.58,0-.19,4-.62,7.86-1.2,11.78l5.31.72c-.49-9.55,4.35-18.3,7.08-27.26l-6-.8A33.93,33.93,0,0,1,186,254.78c-1.66,3.38,3.36,6.35,5.07,3A40.13,40.13,0,0,0,195.52,238a3.05,3.05,0,0,0-6-.81c-1.67,5.24-2.79,10.4-4.12,15.7-1.12,4.45-2.42,8.54-2.51,13.17,0,3,4.71,3.76,5.32.72a42.83,42.83,0,0,0,.56-13.22h-4.58a63.36,63.36,0,0,1,.05,15c-.48,4.53-1.05,8.43.78,12.7,1.15,2.68,4.85,2,6.19,0,2.9-4.25,2.17-9.94,2.27-14.84.14-7,0-14.2.94-21.2l-6.8-.92a208.88,208.88,0,0,1-.17,29,110.1,110.1,0,0,1-2.1,14.24c-.77,3.49-1.86,9.43-5.32,11.33l3.18-.41c-6.38-2.68-5.51-14-5.3-19.38.09-2.28-3.63-2.86-4.05-.55-1.32,7.39-1.87,14.58,2.85,20.94,1.35,1.81,5.25,2.21,5.65-.74a133.22,133.22,0,0,0,1.1-25,2.87,2.87,0,0,0-5.6-.76,28.17,28.17,0,0,0,3.85,25.48,2.93,2.93,0,0,0,5.4-1.46,132.68,132.68,0,0,0-.41-37.81c-.38-2.35-3.68-1.9-4.32,0a295.06,295.06,0,0,1-16.53,40.69c-1.69,3.31,3.38,6.23,5,2.9,3.32-7,8.57-14.75,9.54-22.51.3-2.4-3.23-3.64-4.74-2-6.4,7.13-11.42,17-11.62,26.76-.08,3.6,5.12,5.07,6.86,1.85,3.71-6.84,10.18-18.58,2.22-24.66a2.94,2.94,0,0,0-3.53.46,48.78,48.78,0,0,0-9.1,12.23c-2.56,4.5-2.17,8.53.13,13.06a3.77,3.77,0,0,0,5.89.76,27.59,27.59,0,0,0,7.4-15.5c.46-3.82,1-10.83-3.78-12.21-4.9-1.42-9.09,4.5-11,8.24-3.29,6.6-3.13,14.19-2.36,21.32a3.86,3.86,0,0,0,7.71,0,77.17,77.17,0,0,0-1.82-26.7c-.68-2.82-5.12-3.6-6.46-.84a32.62,32.62,0,0,0-3,20.75c1.1,5.53,4.29,14,11.32,13.08,6.73-.9,10.13-9.53,11.24-15.28,1.7-8.76-.36-17.87,2.25-26.44h-8.13a69.67,69.67,0,0,1,1,19.87c-.39,4.61-.68,15.32-5.61,17.76-7.29,3.62-12.89-28.47-13.66-33.56-.57-3.77-6.63-2.81-6.57.89Z"/><path class="cls-3" d="M199.6,233.49c2.89,1.32,5.77,2.41,8.24,4.48,1.73,1.44,2.93,3.49,4.75,4.78,4.51,3.18,9.24-.87,10.93-5.1,3.36-8.42,1.73-24.55-10.24-24-4.36.19-6.1,5-3.41,8.22.78.92,3.08,4.26,2.25,5.62l2.84-2.19c1.16-.35-1.49-2.08-.79-3.1l-7.88-3.32c-.71,3-2.3,5.5-5.25,6.73l3.46,8.2a18.43,18.43,0,0,0,6.05-7.14c1.47-3.18,1.81-6.3,4.64-8.64,3.33-2.76-.44-6.9-3.74-6.42-7.83,1.12-7.06,11-12.39,15.15-4.35,3.37,1.2,8.94,5.44,7.05a17.64,17.64,0,0,0,10.11-12.64c.79-3.81-4.27-7.81-7.21-4.2-2.66,3.26-3.32,7-1.32,10.85,1.64,3.16,5.29,7,9.12,7.12s6.18-3.16,6.44-6.69c.37-5-1.66-9.51-4.95-13.19l-3.41,8.23c3.23-.24,3.52,11.74,1.28,12.23l3.29.43c-2.83-1.35-4.87-4.27-7.8-5.7a20.75,20.75,0,0,0-8.94-2.34c-2.8,0-4.31,4.31-1.51,5.59Z"/><path class="cls-3" d="M225.23,208.51c-2.5,4.26,2.57,8.66,6.63,8.59a3.1,3.1,0,0,0,2.61-4.92,12.22,12.22,0,0,0-2.38-2.33c-1-.89-2-1.79-3.05-2.67a2.28,2.28,0,0,0-3.14,0,2.23,2.23,0,0,0,0,3.14c.9.77,1.82,1.51,2.74,2.26l1.17,1,.79.65c.27.35.35.36.23,0l.29-1.07-.17.29.77-.78c.28-.18.53.07,0-.13-.23-.1-.49-.14-.73-.22a3.64,3.64,0,0,1-1.25-.61,2.82,2.82,0,0,1-.93-2.24,1.94,1.94,0,0,0-3.59-1Z"/><path class="cls-3" d="M230.6,222.34l.08.3a2.81,2.81,0,0,0,2.7,2.06,2.85,2.85,0,0,0,2.71-2.06l.07-.3a2.88,2.88,0,1,0-5.56,0Z"/><path class="cls-3" d="M55.54,237.18c-1.89,1.59-3.1,3.22-3.09,5.78,0,2.31,1.28,4.34,3.86,4a4.81,4.81,0,0,0,4.08-3.88,8.24,8.24,0,0,0-.45-3.93c-.12-.4-1-2.49-.46-2.86l-3.4-3.39c-1.9,2.51-3.52,5.58-2.91,8.84a6.92,6.92,0,0,0,5.4,5.76,2.54,2.54,0,0,0,3.16-2.41l.12-2.94c.14-3.25-5-3.27-5.06,0l-.06,2.94,3.17-2.41c-4-.59-.73-5.67.47-7.28,1.47-2-1.42-4.77-3.4-3.39a5.79,5.79,0,0,0-2.24,6.41c.16.68.44,1.32.66,2a10.72,10.72,0,0,1,.46,1.49l-.09.62c1.23,1.8.89-.39.89-.95a7.07,7.07,0,0,1,.47-3.19,1,1,0,0,0-1.58-1.22Z"/><path class="cls-3" d="M68.86,245.27a1.47,1.47,0,0,1,.35.57c0,.4.05.51.05.34s0-.07,0,.15c-.08.62.07-.42.06-.46s0-.07,0,.16a1.19,1.19,0,0,1-.18.57,1.69,1.69,0,0,1-2.14.65,1.42,1.42,0,0,1-.54-.67.8.8,0,0,1-.09-.36c0-.23,0-.26,0-.08L69.1,244c.9.38.5.25.19,0a4.54,4.54,0,0,0-.68-.55,1.65,1.65,0,0,0-2.46,1.41,5.4,5.4,0,0,0,.11.9l0,.28c.06.38.07.24,0-.43a2.24,2.24,0,0,0,4.32,1.19,3.13,3.13,0,0,0-4.54-3.45,3,3,0,0,0-1.35,3.24,2.94,2.94,0,0,0,2.16,2,2,2,0,0,0,2.23-.9,2.07,2.07,0,0,0-.31-2.4Z"/><path class="cls-3" d="M65.8,229.23c-.22-.74-.33-1.59-1.08-2a1.26,1.26,0,0,0-1.83.74,1.62,1.62,0,0,0,.23,1.34c.18.27.39.52.58.77a1.17,1.17,0,0,0,1.44.47,1.13,1.13,0,0,0,.66-1.35Z"/><path class="cls-3" d="M79.21,243.82l-.5.14A2.36,2.36,0,0,0,77,246.15c-.46,6.18.22,13.17-1.82,19.06a41.14,41.14,0,0,0-2.7,15.86c.07,1.62,1.42,3.4,3.22,3.23,8.91-.84,11.59-8.65,12.62-16.43.32-2.42-3-4.06-4.86-2.79a18.23,18.23,0,0,0-7.93,11.4c-.72,3.17,4,5.53,5.51,2.32,2.9-6,5.08-12.47,5.06-19.19a2.69,2.69,0,0,0-4-2.29,3.37,3.37,0,0,0-1.85,1.91,2.24,2.24,0,0,0,.34,2.57l.31.37a1.53,1.53,0,0,0,1.84.24c.55-.28.55-.36,0-.25l-1.85-3.26c-1.14,5.92-2.32,11.43-5.06,16.86l5.5,2.32a11.17,11.17,0,0,1,5.38-7.42l-4.87-2.79c-.49,3.74-1.37,9.46-6.15,10L79,281.07c-.4-6.47,2.06-11.41,3.08-17.55.92-5.58,0-11.77-.46-17.37A2.35,2.35,0,0,0,79.91,244a1.58,1.58,0,0,0-.7-.14Z"/><path class="cls-3" d="M77.18,258.92a74.21,74.21,0,0,1-.13-10.86c.25-4,1.53-7.83,2.08-11.82.17-1.18-1.31-2.54-2.31-1.34-5.69,6.84-5.06,17.09-.91,24.37.32.55,1.33.35,1.27-.35Z"/><path class="cls-3" d="M74,252.9c-1.27,5.3.83,23.57,10.28,17.9a1.42,1.42,0,0,0-.33-2.57C77.12,266.79,78.63,258,77,252.9a1.61,1.61,0,0,0-3.08,0Z"/><path class="cls-3" d="M199.77,252.19a40.28,40.28,0,0,0,1,21.55c1.62,4.46,5.78,9.79,11.23,8,5.61-1.83,4.72-8.76,2.86-13.05a15.11,15.11,0,0,0-4.86-5.89c-3.7-3-3.54-7.77-4.26-12.27L201.22,254c2,1.12,3,7.41,3.15,9.37.2,2.71-.43,5.42,0,8.12a9.71,9.71,0,0,0,6.14,7.84c3,1.24,5.21-3.24,3.07-5.27a16.53,16.53,0,0,1-5.33-10.76c-.2-2.49.51-4.8-1.37-6.73a1.3,1.3,0,0,0-1.28-.34c-3.66,1.42-3.34,5.94-2.87,9.29a23.84,23.84,0,0,0,6.39,13L213,273.6c-4.16-2-2-10.5-3-14.59-.88-3.5-2.3-8.46-5.62-10.31-2.52-1.4-5,.9-4.53,3.48.64,3.8.57,9.25,2.87,12.5s6.92,3.66,7.3,8.25c.34,4.09-1.6,2.59-2.93,0a23.23,23.23,0,0,1-1.87-8.13c-.42-4.19-.28-8.41-1-12.57-.38-2.28-3.91-2.09-4.42,0Z"/><path class="cls-3" d="M196.91,288.14c-.25,3.64.62,7.46,1.08,11.07a2.83,2.83,0,0,0,2.75,2.75c3.9.09,6.87-3.19,7.27-6.94.47-4.33-2.52-7.86-5.67-10.4-1.67-1.35-4.55-.61-4.5,1.86q.14,6.69.25,13.39l5-.68c-1.16-3.38-1.08-6.77-1.05-10.29a1.21,1.21,0,0,0-2-.85c-3.07,3.52-3.24,8.21-1.82,12.5.88,2.64,5,2.29,5-.68,0-4.46-.05-8.93-.07-13.39l-4.5,1.86c1.5,1.25,3.17,2.65,3.82,4.56.46,1.37.11,3.53-1.69,3.55l2.65,2c-.57-3.59-.81-7.5-2.07-10.92a2.26,2.26,0,0,0-4.41.59Z"/><path class="cls-3" d="M62.09,262.86C57.36,268.77,45.38,286,57,291.5s9.26-22.32,9.36-27.18l-6.13.83c1.37,5.29,1.74,14.07-4.09,16.91l4.48,2.57v-7.8c0-2.06-.75-5.9,0-7.8q.26-2.22.34,1.47,0,1.58,0,3.15a12.15,12.15,0,0,1-2,6.73c-1.69,2.44-4.12,4.32-3.33,7.66a4.94,4.94,0,0,0,4.92,4c2.46.15,3.33-3.45,1.25-4.59.3.17,4-5.93,4.2-6.45a20.77,20.77,0,0,0,1.3-7.32c.1-4.1-.06-9.7-4.41-11.68-11.35-5.18-8.25,17.95-8.24,22.66a3,3,0,0,0,4.49,2.58c8.38-4.11,9-15.78,7.1-23.72-.86-3.46-6.06-2.64-6.13.83,0,2-.45,21.34-1.41,21-2.7-.95,5.53-18.17,6.21-20.84.39-1.49-1.68-3-2.78-1.62Z"/><path class="cls-3" d="M86.85,307c-.22-.54-.18.2-.11-.07s0,.17-.14.23l-3.53-.92c.52,1,.08.67.67,0s3-.5,2.55,1a4.15,4.15,0,0,0,0-.86c0-.29,0-.57,0-.86,0-.07.1-.79,0-.46,0-.22.11-.43.15-.65s.08-.48.1-.72c0,.14,0,.14,0,0,.11-.66.3-1.18-.16-1.77a1.78,1.78,0,0,0-1.56-.64,3.82,3.82,0,0,0-3.28,2.76c-1,2.64-.78,7.24,3,7.25a4.17,4.17,0,0,0,3.88-2.79,6,6,0,0,0-.93-4.87,2.61,2.61,0,0,0-3.53-.92A4.75,4.75,0,0,0,82.27,309c1.17,2.54,5.65.71,4.58-1.94Z"/></g></g></svg>