<svg xmlns="http://www.w3.org/2000/svg" viewBox="0 0 96.38 279.62"><defs><style>.cls-1{fill:#155d84;}.cls-2{fill:#071e28;}.cls-3{fill:#53aa00;}.cls-4{fill:#ff7900;}</style></defs><title>Asset 16</title><g id="Layer_2" data-name="Layer 2"><g id="Layer_7" data-name="Layer 7"><path class="cls-1" d="M46,117.7a18.09,18.09,0,0,1,.11-15.45c.61-1.29,1.86-2.49,2.39-3.71l1-1q1.83-2.64-5.7-1.48c-.24-1.16-.32-.87-.23.87a18.89,18.89,0,0,1-.34,2.46c-.33,2.22-.7,4.44-1.07,6.65-1.52,9.19-3.38,18.28-5.49,27.35s-8.38,22.05-1,29.61c2,2.09,5.74,3.33,8.58,2.27,8.59-3.22,9-11,10.4-19,1.23-7,2.35-14,3.42-21s2.3-13.95,3.33-20.95,2.08-14-2.41-20.09a14.68,14.68,0,0,0-18.26-4.72C35.3,82.14,31,87.44,28.42,92.72a39.35,39.35,0,0,0,.08,35.2c2.4,4.91,9.38,6.25,13.85,3.63,5-2.92,6.07-8.93,3.63-13.85Z"/><path class="cls-1" d="M39.11,156.51A145.12,145.12,0,0,1,39,119.67c.73-5.33-1.3-10.72-7-12.28-4.67-1.29-11.54,1.59-12.29,7-.86,6.16-1.82,12.29-2.81,18.43-.85,5.26-.94,11.72-3,16.63l2.55-4.37-.75.73,4.38-2.55-1.24.22,7.64,1,.43.8c-.44-.73-.88-1.47-1.31-2.21-.72-1.24-1.43-2.49-2.11-3.77a35.31,35.31,0,0,1-2.7-6.25c-1.47-4.79-.55-8.44,1.14-13.06,4-10.88,4.2-22.24,7.13-33.33,1-3.79,2.37-8,5.24-10.84.06-.05,3.11-2.3,3.12-1.8,0,2.35-2.25-.74-2.38-.69-1,.34.05-.58-.56.16s-.35,4.35-.77,5.47a22.59,22.59,0,0,1-2.53,5c-2.37,3.4-5.89,5.67-9.14,8.06l15.8,4.15c-.67-1.57.1-4,.77-5.51a38.89,38.89,0,0,1,2.09-4.06c.41-.73.83-1.45,1.28-2.16q2.19-2.85-1-.08H35.79l1,.36-5.89-4.53c-1-1.6-.36-.89-.48.61s0,3-.09,4.52a39.19,39.19,0,0,1-1.22,7c-2.66,10.73,9.73,16.79,17.58,10.23,5-4.21,6.54-10.81,6.38-17.11-.06-2.38-.38-4.74-.44-7.12,0-.68-.64-2.86-.09-1.68.37-1.24.4-1.35.1-.33a2.09,2.09,0,0,1-1.15,1.13,2.61,2.61,0,0,1-2.71.63c1.54.57,1.74.55.58,0-1.52-1.07.07,0,.36.91a24.77,24.77,0,0,1,1.16,7.77c-.08,6-2.27,11.65-5.35,16.65-3.21,5.21-1.13,12.48,4.07,15.52,5.85,3.42,11.78.8,15.52-4.07,11.85-15.43,14.85-50.6-8.34-58A18.84,18.84,0,0,0,32.4,70.58a46.74,46.74,0,0,0-.52,11.93c.08,1.75,0,3.5.06,5.24,0-1,0-.32-.15.37.19-.66,1.61-1.91,0-.41L49.35,97.94c1.45-7.45,2.45-15.91.46-23.39-2.22-8.34-11.15-12-18.35-7-4.79,3.34-9,10.37-11.56,15.56-3.42,7-5.24,14.26-3.13,21.94,1.89,6.87,10.68,11.06,17,6.9,12.18-8,20.32-25.42,20.47-40,.1-9.37-5.88-18.18-15.69-19C30.78,52.3,23.26,56.2,18.34,62,6.67,75.86,8.82,93.12,4.09,109.43c-2.58,8.89-5.37,16.25-3.46,25.69a55.17,55.17,0,0,0,10.81,22.36c3.43,4.18,8.55,6.42,14,4.88s7.79-6.63,8.63-11.72c1.69-10.32,3.17-20.67,5-31l-19.27-5.31a97.8,97.8,0,0,0,1.85,44.52c2.62,9.28,18.74,7.91,17.5-2.37Z"/><path class="cls-1" d="M41.75,68c2.56,2.33,7.28,4.87,7.94,8.26s.07,7.27,0,10.69c-.07,3.91-.1,7.83-.13,11.74q-.11,11.74-.84,23.48c-.51,8-2.19,16.31-1,24.23,1,6.83,10.08,9.35,15.37,6.25s7.42-12.09,2.12-16.44c-1.56-1.27-3.84-3.48-6-3.76s-4.91,1.28-6.69,2.13l15.37,11.82c1.72-4.41,1.66-9.76,2.09-14.47q.61-6.82,1-13.67a282.85,282.85,0,0,0,.6-28.38c-.35-8.39.31-18.59-5.74-25.22A24.13,24.13,0,0,0,46.3,57c-5.22.33-8.92,7-4.55,11Z"/><path class="cls-1" d="M53.08,84.2c-2.3,9.22-4,18.09-3.78,27.64q.15,6.61.75,13.22c.41,4.67.31,10.22,2.74,14.35,6,10.28,20.76,5.38,20.18-6.09-.23-4.44-1.38-8.86-2-13.26a56.58,56.58,0,0,1-.35-7.82c0-.46-.11-6.91-.86-6,7.19-9-6.93-19.13-12.25-9.46-4.34,7.89-1.64,19.22.11,27.57,1.91,9.08,3.94,18.24,6.36,27.19,2.71,10,19.75,8.43,18.68-2.52C81,131.76,80.61,114.41,79,97.11a72,72,0,0,0-5.92-23.84c-2.86-6.39-6.56-15.62-14.21-17.18-5.18-1.06-10.49,1.46-12,6.81a9.4,9.4,0,0,0,3.5,10.24,7.32,7.32,0,0,0,3.31,1.75q-3.93-3.37-1.64-.15c.45,1.51,1.76,3.09,2.5,4.46A52.17,52.17,0,0,1,61,99.06c1.83,16.65,3.36,33.24,2.68,50l18.68-2.53c-2-8.12-4.5-16.12-6.67-24.19a102.54,102.54,0,0,1-2.52-10.94c-.65-4.22,0-8.66-1.36-12.71l-13,7.59c.07.06-.1,5.3-.09,6a35.44,35.44,0,0,1-.27,6.91c-.78,4.6-2.24,9.1-3.31,13.64l4.23-5.49-.82.37,7.18-.94-.91-.18L68.94,129c.78,1.64.82,1.38.1-.79-.23-.92-.46-1.84-.67-2.76q-.66-2.76-1.24-5.54c-.84-4-1.52-8-2.14-12.08-1.23-8-3.13-15.69-4.5-23.61-.65-3.82-6.54-3.51-7.41,0Z"/><path class="cls-1" d="M35,140.78c-8.52-2.7-13.48,8.19-16.8,14.07-4.2,7.46-2.53,15.62,5.39,19.63,6.83,3.45,14.63,1.28,21.14-1.86a82.64,82.64,0,0,0,7.63-4.42c1.47-.92,2.94-1.85,4.46-2.69.67-.37,2.74-.75,1.57-.9l-7.9-3.27q-1.23-2.21-.42-.34c.36,1.18.44,1.1.26-.24l1.54-5.7-.58,1L55.39,152c1-.66-1,.21-1.35.27-1.14.19-2.29.28-3.44.36-2.87.21-5.76.3-8.64.42-6,.27-12,.55-17.94,1-5.75.41-10.7,4.11-11.42,10.08-.65,5.49,2.6,11.44,8.33,12.76a86.41,86.41,0,0,0,41.43-.51c6.15-1.63,12.16-4.39,16.37-9.29,4.94-5.75,7.32-15.14,2.34-21.65-2.57-3.36-5.78-5.59-10.26-4.92-3.8.57-7.75,3.36-8.56,7.38-.46,2.24-.38,3.84-1.8,5-2.45,2-7.21,2.52-10.2,3a56.16,56.16,0,0,1-23.14-1.46L24,177.27c10.76-.46,21.74-.85,32.4-2.45,4.52-.68,9.3-1.69,12.67-5.06,4.32-4.32,4.54-10.23,2.38-15.57-2.46-6.07-5.68-11.58-13-11.92-4.4-.21-8.32,1.62-12.09,3.78-3.44,2-6.57,4.42-10,6.45a19.87,19.87,0,0,1-3.89,2c-1-.21-1.45-.06-1.36.45q-4.29-.12,3.6,2.89L36.11,163c-.24,1,0,.58.64-1.37L38.2,158a31.28,31.28,0,0,0,2.34-6.58c.69-4.37-.95-9.23-5.5-10.66Z"/><path class="cls-1" d="M35.63,149.29C29,147.52,25.11,153,23.38,158.6c-2.24,7.26-2.8,16.21-3.08,23.79-.59,15.66-.74,31.33-1.11,47-.22,8.89,11,16.3,18.76,10.77C49,232.28,49.77,219.32,50.46,206.8a345.42,345.42,0,0,0-.31-40.7,10.45,10.45,0,0,0-20.43-2.76,323.28,323.28,0,0,0-13.15,49.15c-2.39,12.92,14.5,17.19,19.37,5.34,2.76-6.72.89-15.84-.28-22.79-1.11-6.61-3.66-13.4-2.26-20.13H15.21c1.59,11.59,4,23,6.36,34.46,2,9.6,5.54,18.49,14.15,23.92,4.59,2.9,12.42,1.32,14.8-3.88,4.24-9.23,4.15-18.47,4.26-28.43a60.33,60.33,0,0,1,6.13-25l-18.34-5q-.33,15.48-.67,31C41.68,212,40.71,222.53,44,232.22c4.06,12,20.48,9.4,21.55-2.91a223,223,0,0,1,13.41-58.75l-20.17-2.73c.09,17.81-.22,35.63-.45,53.44-.16,13.39,20.58,13.39,20.8,0,.06-4-.51-7.93-.43-11.9s.3-7.94.46-11.91c.3-7.93.52-15.88,1-23.81H60.43c.41,12.32,1.18,24.68,1.15,37,0,2.86-.33,5.68-.43,8.53-.08,2.14.4,6.54.13,7.57-.5,1.91-3.78,6.33-6.6,7.73-2.26,1.12-2.6,1.28-3.85-.38-3.36-4.47-4.72-8.72-10-11.52A15.29,15.29,0,0,0,23,224.73a16.75,16.75,0,0,0-4.19,7.35c-.21.71-.31,1.44-.47,2.16-.79,3.72-.88.75,2.19-1.17l15.55,6.33c-1.42-3.85-2.79-7.73-4.18-11.59-3.55-9.91-17.46-10.54-20.78,0-3.27,10.38,2.6,19.25,9.06,26.85,6,7.13,13.37,13.34,22.94,14.57,21.87,2.82,34-17.67,39.75-35.44l-19.18,2.5c2.35,3.56,2.31,9.19-1.75,11.1-2.13,1-4.13.78-6.53-.34-1.21-.56-5.35-2.79-7-4.47-6.5-6.77-16.59.36-14.89,8.67,3.49,17,24.24,23.13,38.48,14.91,13.66-7.88,18.12-27.23,9.77-40.46-5-7.93-16.21-6-19.18,2.51-2.43,6.92-6.62,19.85-15.9,19.86-3.68,0-6.5-3.34-8.76-5.84-1.43-1.57-6.63-6.65-6.07-8.69H11.13c1.52,3.82,3.06,7.65,4.54,11.49,2.34,6.05,9.3,10.33,15.55,6.32,4.22-2.69,7.87-7.86,7.8-13.13-.05-4.11-7.68,6.13-8.17,2.5a23.1,23.1,0,0,0,1.56,2.47,29.4,29.4,0,0,0,5,6.64c9.52,8.75,23.78,5.64,32.49-2.54,4.06-3.81,6.56-8.58,8.7-13.62,2.63-6.18,5-11.4,4.94-18.27,0-13.88-2.12-27.93-3.35-41.75-1.11-12.43-19.66-12.9-19.73,0,0,7.94-.34,15.88-.56,23.81-.11,4-.11,7.95-.33,11.91s-1,7.91-1.22,11.9h20.8c0-17.81-.12-35.63.18-53.44a10.24,10.24,0,0,0-8.9-10.09c-5.42-.64-9.32,2.47-11.27,7.36a240.21,240.21,0,0,0-15.54,64.21l21.55-2.92c-3.22-8.22-2.26-17.66-2.41-26.35l-.48-29c-.14-9.08-14.09-14.3-18.34-5a99.55,99.55,0,0,0-8,27.5c-1.18,8.08-.81,17.32-4,25l14.8-3.88c-4-2.38-5-11.59-6.12-16.51-2.19-9.47-4.33-18.9-7.12-28.21-3.1-10.34-18-8.1-18.52,2.51-.34,7,1.24,14.2,2.79,21,.65,2.82,1.32,5.65,1.79,8.51.51,3.15-.64,5.28-1.88,8.16l18.36,7.74a322.44,322.44,0,0,1,13.84-49L29.35,166.1a270.5,270.5,0,0,1-.38,33c-.34,4.59-.68,9.23-1.32,13.8A34,34,0,0,1,26.56,218c.09-.26,1-1,0,0-1.2,1.19,1.7-.85-1.17.59l18.76,10.76c-.56-12.39-.91-24.8-1.26-37.2-.17-5.89-.22-11.76-.91-17.62-.39-3.26-.76-6.53-1.15-9.79-.17-1.44-.24-2.94-.55-4.36-.24-.91-.51-1.81-.82-2.7-.34-1.52-.57-1.18-.67,1l-3.92,3,.79-.33c5.33-2.21,6.55-10.36,0-12.11Z"/><path class="cls-2" d="M30.76,7.41l-1.1-.74L26.31,19.05c5.77.08,11.53.32,17.3.45s11.54,1.19,17-.47c4.7-1.43,6.52-8.92,1.47-11.3C56.52,5.1,50.62,5.26,44.57,5.1a166.16,166.16,0,0,0-18.26.67c-8.41.69-8.62,13.7,0,13.28L27.63,19A6.27,6.27,0,0,0,30.76,7.41Z"/><path class="cls-2" d="M47.21,12.83c-5.49.39-8.22,6.31-9.59,11a34.72,34.72,0,0,0,.44,19.66c2.43,8.37,15,6.7,15.14-2.05a17.35,17.35,0,0,0-3.91-11.51c-1.85-2.2-5.58-1.4-6.91.89-1,1.65-1.19,3.69-2.34,5.16l12.89,3.41c-1.85-5.64-2.2-11.22-2.21-17.11,0-2.16.51-9.73-3.51-9.45Z"/><path class="cls-3" d="M9.62,172.14c9.24,9.13,26,8.39,38,8.32A87.8,87.8,0,0,0,67.89,178c6-1.48,13.34-3.88,15.19-10.5a5,5,0,0,0-3.4-6C74.49,159.66,69,162.58,64,163.86a96.42,96.42,0,0,1-16.4,2.33c-5.33.42-10.71.69-16,.64-6.07-.07-11.26-1.48-17-3.1-4.83-1.35-8.48,4.88-4.9,8.41Z"/><path class="cls-3" d="M24.5,180.45c-.65-3-2.4-4.59-5.3-5.52-2.48-.78-4.59.95-5.46,3.1-2.47,6.05-.74,12.68.55,18.82a109.17,109.17,0,0,1,2.11,21.42c.08,8,12.16,8,12.41,0,.41-13.05,5-25.1,10.07-37l-11-3c-.83,14.67-1.49,29.43-.51,44.11.58,8.57,14.07,8.59,13.41,0-.91-11.79-1-25.17,8-34.1l-9.9-4.1c-.73,12.24-5.76,23-11.95,33.36l12.44,1.62a102.76,102.76,0,0,1-4.58-16.35c-.47-2.54-.84-5.1-1.09-7.68-.16-1.57-.28-3.14-.32-4.72q0-.94,0-1.89c.07-1.38,0-1.26-.24.37l-3.76,2.89,1-.22L25.53,191c1.54.83,2.29,5,2.5,6.44.16,1.15-.28,2.71.06,3.75a2.07,2.07,0,0,1-.15,1.05l4.42-1.2c.13-.29-3.68-5.52-4-6.27a8.09,8.09,0,0,1-1.12-3.31c0-.69-1-.52.2-.36,3.75.5,5.46,8,6.17,10.88,1.49,5.94,1.36,11.94,1.94,18L47.2,215.1c-3.57-4.53-6.93-9.65-8.49-15.25-.74-2.66-1.32-11.53,4-9.15,4.41,2,3.61,9.23,3.26,13-.49,5.16-1.19,10.48-4.25,14.79l13.14,1.72a47.29,47.29,0,0,1-3.35-16.13,39.42,39.42,0,0,1,.65-8.26c.53-2.62,2.36-5.39,2.63-7.94l.65-1.17L52,186.12c-.14.25,1.26,3.42,1.44,4a50.15,50.15,0,0,1,1.9,8.19,46.89,46.89,0,0,1-.63,16.62q-.16.82-.39,1.65-1.35,3.63,5.48.22c-.06-.66-1.13-1.89-1.42-2.52a30.69,30.69,0,0,1-2.4-7.88,32.56,32.56,0,0,1-.32-8.25c.22-2.6,1.8-5.62,1.79-8.12l.52-1q-3.6-2.11-2.46.18c-.16.85,1,3.55,1.22,4.3a56.31,56.31,0,0,1,1.47,8.83A62,62,0,0,1,57,220.12l11.43-3c-5.54-6.95-4.67-21.25-1-28.91.86-1.78,2.31-1.74-.48-2.38-3-.71-1.36.58-.8,2.39A30.86,30.86,0,0,1,67.6,196a34.83,34.83,0,0,1-3.45,16.83l10.2-2.68c-2.65-1.65-1.92-9.28-1.87-11.77a49.37,49.37,0,0,1,.82-8.23c.23-1.2.51-2.4.81-3.58.23-.89.48-1.78.77-2.65q1-2-1.55-.19l-4.92-.64q-1.64-2.1-.27.48a21.74,21.74,0,0,1,.75,3.19,21.49,21.49,0,0,1,.17,6.1c-.59,4.87-2.84,9.35-4.75,13.8l13.33,1.74c-1-5.06-1.65-10.6-.69-15.7a70.61,70.61,0,0,1,5-15l-13.09-3.54c-1.19,13.05-1.49,26-1.77,39.11-.13,6.28,10.38,8,11.27,1.53,1.83-13.56,3.65-27,4.55-40.64.23-3.49-2.85-6.46-6.09-6.9-3.71-.5-6.37,1.74-7.71,5A70.74,70.74,0,0,0,64.72,191c-.75,6.46-1.63,12.77-1.41,19.29.24,6.81,10.18,10.46,13.59,3.68,4.42-8.77,7.67-18.56,6.12-28.47C81.9,178.39,74.6,166,66.17,173.3c-3.05,2.66-4.26,7.77-5.31,11.51a67.55,67.55,0,0,0-2.35,14.47c-.5,9,.45,18.23,8.32,23.73,3.08,2.15,8.59.77,10.19-2.67a48.7,48.7,0,0,0,3.7-30.22c-1.71-8.72-7.94-22.28-19-15.36-7.86,5-9.39,16-10.3,24.41-1.09,10.11.76,19.66,7.33,27.6,3.18,3.85,10.5,1.81,11.43-3a77.07,77.07,0,0,0,.6-26.71c-1.07-6.87-2.71-18.13-10.53-20.47C42.16,171.16,40.91,203,43.23,213.36c1.65,7.4,5.71,17.49,14.83,16.94,9-.54,10.39-10.64,11.14-17.7a60.27,60.27,0,0,0-2.7-25.23c-2.27-6.8-6.12-16-15-13.29-8.36,2.58-11,14.1-12.4,21.57A55.16,55.16,0,0,0,41,224c2.16,6.2,9.42,6.69,13.13,1.72,5.56-7.44,6.27-19.21,5.36-28.17-.94-9.23-6.67-18.67-16.73-19.63-9.16-.88-16.15,7-16.85,15.67-.8,10.12,5.38,21.48,10.55,29.81,3.59,5.77,12.65,3.41,12.77-3.46.25-13.58-3-39.81-20.56-41.69-8.53-.92-15,5.55-14.65,14.05.33,6.87,5.39,16.52,11.17,20.29,7.46,4.87,15.17-1.06,16.35-8.81,1.13-7.39-1.8-19-8.54-23.2a8,8,0,0,0-9.72.76c-3.19,3.09-2.27,8-2,11.95a132.7,132.7,0,0,0,5,29.54c1.72,5.9,9.18,6.36,12.43,1.63,8.1-11.78,11.13-26.18,11.8-40.23.25-5.2-6.42-7.41-9.9-4.1-11.78,11.18-12.24,27.13-13.18,42.3H40.79c-.2-14.71-1.07-29.4-1.11-44.11,0-7.06-9.23-7.46-11.58-1.57-5.37,13.45-10.69,26.94-11.7,41.52H28.81a114.67,114.67,0,0,0-2-20.07c-1.14-6.09-5-12.8-4.34-19L18,183.65l-.64-.2c2.15,4.05,8,1.17,7.12-3Z"/><path class="cls-3" d="M67.75,199.59a157.27,157.27,0,0,1,1.44,21c0,6,.6,13.64-1.4,19.35l2-3.38-.72.86,3.37-2-1.07.41h4.08c.9.88,1,.62.33-.77a25.49,25.49,0,0,1-.27-3.7,39.46,39.46,0,0,1,.28-5.65,77,77,0,0,1,2.94-13.07l-13.81-1.87a61.51,61.51,0,0,1-1.21,16.64,56.78,56.78,0,0,1-2.19,7.34c-.47,1.25-1,2.48-1.57,3.68L59.15,240q-1.24,2-.51.9h4c.93.16-.66-3.31-.9-4.27a25.85,25.85,0,0,1-.74-4.55A27.81,27.81,0,0,1,62.53,221l-13.35-1.8c0,8.77-2,17.28-7.57,24.3L53.22,245c-3-6.88-6.21-14.68-4.79-22.29L36,221c-.64,9.71-.77,19.12-2.64,28.73h14c-2.82-12.44-6.44-24.7-9.39-37.12-1.25-5.27-10.36-5.81-11.2,0-1.7,11.74-5,23.93-3.74,35.89.9,8.47,13.12,8.84,13.47,0,.22-5.84-1.36-11-3.9-16.24-2.33-4.76-6.08-9.73-6.45-15.18H14.26c.75,7.24-1.84,14.26-1.18,21.47.68,7.41,4.59,13.41,9.21,19,4.24,5.15,9.16,11.54,16.55,10.89s10.93-6.68,12.95-13c2.09-6.51-7.2-9.91-10.68-4.5-.7,1.09-1.76,3.41-3.07,4,.89.69.73.48-.47-.63-.77-.83-1.53-1.67-2.28-2.53-2.76-3.18-5.95-6.7-7.75-10.55s-1.35-8.35-1.11-12.56a54.18,54.18,0,0,0-.53-13.16c-1.39-7.59-12.51-4.24-11.43,3.15.77,5.24,2.76,9.91,5,14.68,1.83,3.91,4.76,8.9,3.76,13.37l13.23,1.79c.83-10.91-.6-22,1.47-32.8H26.73c2.39,12.59,4.09,25.32,6.61,37.89,1.36,6.76,12.87,7.07,14,0,1.77-11.26,2.87-23,1.11-34.27-1.1-7.06-12.81-5.4-12.45,1.68.5,10,0,20.13,3.72,29.68,2.42,6.2,9.6,7.05,13.52,1.76,7-9.41,10.77-21.54,9.55-33.26-.78-7.53-10.74-9.35-13.35-1.81a43.21,43.21,0,0,0-1.49,24.76c1.84,7.43,6.91,16.14,16,13.1,7.61-2.55,10.69-12,12.77-18.91A63.14,63.14,0,0,0,79,210.82C78.07,203.63,67,200.5,65.14,209c-2.08,9.38-4.56,18.37-3.4,28.06.57,4.71,1.54,9.11,5.68,12a10,10,0,0,0,10.89.45c7.32-4.66,5.76-17.65,5.72-25a159.88,159.88,0,0,0-2.93-28.53c-.69-3.7-5.12-5.73-8.51-4.83-4,1-5.36,4.83-4.84,8.51Z"/><path class="cls-3" d="M33.39,245.18a5.38,5.38,0,0,0-2.45-3.33c-3-2.24-6.5.38-7.63,3.11-2,4.89,1.43,11.54,4.42,15.27,4.35,5.43,10.89,8.72,17.38,10.85,7,2.31,13.81,1.42,18.68-4.51a28.62,28.62,0,0,0,6.26-18.63c0-2.72-2.11-6.23-5.06-6.66-7.42-1.07-9.92,4.16-13.78,9.5-3.54,4.9-8.33,11.25-2.31,16.51,5.47,4.76,11.78,1,17-2A113.47,113.47,0,0,0,83.28,253c3.58-3,.45-8.44-3.58-8.64-8.38-.41-16.21,4.79-18.1,13.14-1.58,7,6.16,10.74,11.34,6.6,4.39-3.52,4.65-9.05,4.28-14.2a5,5,0,0,0-6.17-4.69c-4.93,1.22-9.31,4.52-9.82,9.82-.28,3,3.23,4.18,5.46,3.13,2.47-1.16,4.19-2.88,7-3.56l-6.16-4.7a14.52,14.52,0,0,1-1,2.83c-.31.87,2.31-.46-.18,0l8.34,8.34c1-3.29,2.93-5.9,6.36-6.81L77.14,245c-4.07,2-8.21,3.9-12.31,5.85-1.91.91-3.8,1.87-5.72,2.77-1.09.51-2.2,1-3.3,1.51q-4.91,1.27,3.8,3.77l-.7,5.37a38.33,38.33,0,0,1,3.62-5.84c.74-1.1,2.07-4.09,3.23-4.71l-5.3.69.86.18-5.07-6.65a17.6,17.6,0,0,1-2.48,8.19c-.94,1.51-1.09,1.82-2.56,2s-4.18-1.06-5.62-1.58c-4.17-1.5-11.48-5.65-12.12-10.59l-2.26,3.93.31-.16a4.17,4.17,0,0,0,1.87-4.58Z"/><path class="cls-4" d="M22.09,104.82c3.48-2.4,7.56-3.88,11.36-5.65l-4.92-6.39c-4,3.26-9.27,5.46-14.08,7.14l2.12,7.68c2.21-.88,4.42-1.76,6.68-2.53l1.13-.37c2.3-.34,1.9-1.62-1.22-3.83-.57.43-.77,1.7-.86,2.33-.62,3.94,4.57,6.85,6.85,2.89,1.06-1.85,2.18-3.33,1.78-5.56a4.94,4.94,0,0,0-3.64-3.94c-4.24-1.16-10,2.12-13.79,3.73-4.12,1.74-1.16,8.87,3.07,7.28,6-2.24,11.32-5.34,16.88-8.43,4.24-2.36,1.21-8.23-3.13-7.43-4.5.83-10.07,3.15-13.31,6.49s1,9.38,5.08,6.59Z"/><path class="cls-4" d="M25.45,90.72l-.66.27,1.91.78c-.57-1-1.29-1.31-1.77-2.47-.61-1.46-.79-3.14-1.39-4.63-.42-1-4.4-7-3.72-7.85l-2.38,1c-1-.62-1-.34-.08.86.42.79.84,1.57,1.25,2.36.62,1.19,1.23,2.38,1.82,3.58,1.39,2.79,2.65,5.65,4.08,8.42,2.17,4.21,8,.51,6.21-3.63A92.62,92.62,0,0,0,22.61,74c-2.21-3.25-6.84-4.51-8.77-.18-2,4.52,1.5,8.36,3.51,12.06,1.91,3.54,2,9.11,7.12,9.21a2.46,2.46,0,0,0,2.32-1.77l.12-.13c.79-1,.1-3.15-1.46-2.51Z"/><path class="cls-4" d="M14.79,73c4.14,2.92,6.91,9,9.34,13.29,2.76,4.9,4.95,10,7.51,15,1.71,3.34,7.36,1,6.11-2.57-2.39-6.93-6.17-13.5-10.15-19.63-2.43-3.75-6.11-11.26-11.41-11.3-2.93,0-3.55,3.66-1.4,5.17Z"/><path class="cls-4" d="M30.4,96.37a66.56,66.56,0,0,1,5.44,7.71l3.3-4.3a93.31,93.31,0,0,0-19.42-2.2V105a57.59,57.59,0,0,1,14.19-.24l-.82-6.24c-3.31,1.55-7.86,3.27-11.62,2.91l3.23,1.86-.34-.55.38,2.89L25,105l-1.73,2.25c1.31-.7,4.57-.19,6-.1a38.35,38.35,0,0,1,7.13,1.2c3.32.83,6.64-3.74,3.6-6.19-4.5-3.64-11.26-2.29-16.72-2.77-1-.09-4.16,0-5-.58q.81,1.93.48-1.15l.09-1.87c.22-4.35.48-8.7.62-13.06l-5.55,3.19c3.55,1.55,2.89,5.47,4.11,8.7a12.94,12.94,0,0,0,5.25,6.63c2.21,1.34,4.23-1.63,2.65-3.44-2.27-2.59-8.92-9.43-7-13.22,2.76-5.34-6.45-8-6.86-1.86-.34,5-.66,10-.78,14.93-.06,3-.05,5.54,2.73,7.35,2.55,1.66,6.33,1.54,9.24,1.78q3.33.28,6.68.39c1,0,4-.44,4.81.21l3.6-6.18c-4.51-1.22-20.29-5.08-20.94,3-.77,9.48,15.56,2.15,19.1.29,2.5-1.31,2.07-5.69-.81-6.25a47,47,0,0,0-17-.48c-4.1.69-3.2,7.7,1,7.31a76.87,76.87,0,0,1,17.87.39c2.67.38,5.16-2.65,2.84-4.89a81.09,81.09,0,0,0-8.07-6.71c-1.57-1.18-3.07,1.24-2,2.55Z"/><path d="M16.55,250.64c3.87-14.06,3.78-29.34,3.36-43.8-.41-14.65-1.34-29.26-2.2-43.89s-1.64-29.23-1.86-43.85c-.11-7.14-.08-14.28.17-21.41.25-7.57,1.54-15.17-2.13-22.11-2.06-3.9-6.91-2.93-9.17,0C.17,81.48.52,89.57.27,96.72,0,104.18,0,111.64.11,119.1.36,133.74,1.28,148.35,2.34,163s2.31,29.25,3.32,43.89,1.5,29.51,4.52,43.8c.69,3.26,5.54,3,6.37,0Z"/><path d="M13.19,78.53c1.34-2.57,1.74-5.48,3-8.1a19.52,19.52,0,0,1,5.83-7c4.75-3.64,10.9-5.63,16.74-6.66a40.39,40.39,0,0,1,16.7.75c5.52,1.39,11.81,6.63,17.59,4.58a4.82,4.82,0,0,0,3.41-4.48c.11-8.71-11.87-12.38-18.7-14a51.74,51.74,0,0,0-25.48.64,42.29,42.29,0,0,0-20.5,13.2C7,63.13,2,72.66,7.76,79.23a3.48,3.48,0,0,0,5.43-.7Z"/><path d="M9.69,231.74C7,241.45,9.16,255,14.21,263.62c5.77,9.86,16.85,14.14,27.67,15.43,11.56,1.38,24.68.49,35.13-5,7.22-3.81,19.83-16.17,13-25-1.64-2.14-4.14-2.65-6.28-.81-2.84,2.43-3.55,5.95-5.72,8.85a19.91,19.91,0,0,1-9.19,6.52c-7.94,2.94-17.87,2.81-26.2,1.82-7.81-.92-14.37-4-18.45-10.94s-3.72-15.32-6.66-22.69c-1.41-3.51-6.67-4.17-7.83,0Z"/><path d="M62.18,55.39c2,2.75,4.57,5,6.24,7.94a33.27,33.27,0,0,1,3.43,10.51c1.5,8.53,1.51,17.38,2,26,1,17.78,2.52,35.54,3.82,53.3s3,35.21,4.07,52.83c.55,9,1,18.05.77,27.05-.26,8.72-2.51,17.47-.48,26,.95,4,6,4,8.11,1.05,5.41-7.64,5.22-18,5.78-27.08a277.37,277.37,0,0,0,.2-29c-.81-19-2.34-37.89-3.73-56.82C91,128.13,89.63,109,87.87,90c-.82-8.93-1.5-17.82-5.45-26-2.9-6-8.58-13.53-15.6-14.59-3.07-.47-7,2.79-4.64,6Z"/><path d="M15.05,84.16c1.76-3.2.45-6.63.81-10.12.3-3,1.42-5.54.2-8.4a3.18,3.18,0,0,0-2.75-1.58C9,63.68,6.58,68.77,6.06,72.33,5.49,76.24,5.62,82.28,9,85c1.87,1.5,4.79,1.6,6.1-.79Z"/><path d="M5.53,87.93c4.78-1.35,6.46-7.85,8.64-11.82,2.59-4.71,6.29-8.94,5.29-14.58-.38-2.15-2.8-3-4.66-2.64-6,1-8.75,7.94-10.85,12.92C2,76.47-1,82.66,2.53,87.13a3,3,0,0,0,3,.8Z"/><path d="M13.57,87.76c2.55-5.86,1.89-12.33,5.3-18.07,2.86-4.83,8.53-6.88,11.23-11.55a3.79,3.79,0,0,0-2.24-5.49C21,50.57,14.63,57.51,11.35,62.75a36.78,36.78,0,0,0-5,23c.34,3.32,5.51,5.9,7.22,2Z"/><path d="M33.11,51.41l.18.05a2.23,2.23,0,1,0,0-4.3l-.18.05a2.2,2.2,0,0,0,0,4.2Z"/><path d="M39.93,51.36c3.37-4.42.71-12.34,0-17.38-.87-6-1.18-12.78-5.64-17.4-1.15-1.19-3.69-1.11-4.42.57-2.64,6-.79,12.38.48,18.5,1.1,5.28,1.3,13.44,6.27,16.58a2.51,2.51,0,0,0,3.34-.87Z"/><path d="M30.29,22.78c4.21,1.89,8.73,1.8,13.28,2.06,4.73.27,10.17,1.56,14.67-.22,3.26-1.29,4.08-5.42,1-7.46C55,14.43,49.37,14.78,44.54,14.8s-10,0-14.25,2.46c-1.92,1.1-2.25,4.52,0,5.52Z"/><path d="M50.24,25c-.17,6.32-.17,12.73-.1,19.05.06,5.49.66,10.3,6.15,12.5,2.4,1,5-1.07,5.7-3.23s.33-3.6-.12-5.82a40.65,40.65,0,0,1-.41-7.8,99.24,99.24,0,0,0-1.07-16.07c-1-5.92-10-4.24-10.15,1.37Z"/><path d="M33.56,16.63l-1.05-.13,2,.82c-1.84-2-4.72-2.07-7.28-2.05A38.61,38.61,0,0,0,18.5,16c-5.55,1.33-4.27,9.8,1.33,9.83a39,39,0,0,0,8.63-1.37c2.48-.56,5.17-1.31,6.48-3.68L33.25,22l1-.36a2.58,2.58,0,0,0-.68-5Z"/><path d="M23.6,18.72a45.58,45.58,0,0,0-.34-9c-.27-2.93-.53-6-2.76-8.17a3.42,3.42,0,0,0-5.29.68c-1.74,2.49-1.29,5.78-1,8.65a50,50,0,0,0,1.44,9c1.42,4.53,7.44,3.33,7.9-1.07Z"/><path d="M13.58,7.39c3.6,1.7,7.93,1.66,11.87,2.07,4.92.52,9.84.89,14.77,1.23,9.27.64,20.53,3,29.49-.1,2.62-.9,3.8-5,.85-6.46C61.61-.14,49.93.88,40.22.45,35,.22,29.73,0,24.47,0,20.43,0,16-.06,13,2.9c-1.22,1.2-1.1,3.7.58,4.49Z"/><path d="M56.05,26.7c4,.26,8.31,1,12.23-.19s3.48-6.2,0-7.6c-4.14-1.66-9-.63-13.24.29-4.41,1-3.09,7.23,1,7.5Z"/><path d="M72.24,24.07A20.82,20.82,0,0,0,72.11,8.7c-1.72-4-7-2.06-8.28,1.08C62,14.41,63.25,20.84,65.94,24.9c1.74,2.63,5.21,1.93,6.3-.83Z"/><path d="M17.12,67.85a.1.1,0,0,0,0-.19.1.1,0,1,0,0,.19Z"/><path d="M17.32,63c4.26,9.19,10,17.78,15.28,26.42,4.19,6.91,8.35,16.81,15.48,21.15,1.94,1.18,4.68-.79,3.94-3-1.38-4.23-4.32-7.75-6.72-11.46-2.56-4-5-8-7.56-11.93-5.18-8.23-10.13-16.79-16.2-24.4-2-2.55-5.4.7-4.22,3.26Z"/><path d="M8.48,106.44c1.56,7,12.68,7.94,18.42,7.9a119.39,119.39,0,0,0,13.47-1.27c3.86-.45,6.82-.45,9.28-3.65a2.7,2.7,0,0,0-.42-3.26c-4.86-3.78-13-.69-18.65,0a37,37,0,0,1-11.31.07c-3-.56-5.79-2.43-8.87-2.3a2,2,0,0,0-1.92,2.53Z"/><path d="M5.06,89.27c3.08,2.51,6.55,4.53,9.72,6.94s6,5.59,9.59,6.89A2.52,2.52,0,0,0,27.45,100c-1.41-3.86-5.09-6.43-8.32-8.78A35.28,35.28,0,0,0,7.37,85.3c-2.12-.52-4.26,2.38-2.31,4Z"/><path d="M3.9,104.6c4.29,1.32,9-3.5,12.41-5.6,4.14-2.54,9.5-4.8,12.14-9A2.91,2.91,0,0,0,26,85.62c-5.23-.25-10.44,3.7-14.46,6.66C8.26,94.67,2,98,2.39,102.61a2.14,2.14,0,0,0,1.51,2Z"/><path d="M11.2,86.93c1.83.24,4.18-1,5.7-1.94a7.8,7.8,0,0,0,3.68-6,6.37,6.37,0,0,0-2.91-5.55c-2-1.22-4.91-1.5-6.54.43-1.5,1.76-1.33,5.5,1.55,5.9.51.07.86.65,1.34.73.24.33.3.27.18-.19.09-.14.06-.14-.11,0a9.24,9.24,0,0,0-2,.46,13.17,13.17,0,0,0-2.63,1c-3.06,1.53-1.62,6.63,1.75,6.46,3.61-.19,7.22-2,8.67-5.44s-.9-6.29-3.53-8.42l.84,1.44-.16-.4-5.19,4A4.68,4.68,0,0,0,13,80c1.13.19,1.35.21.67.06-.46,0-.72-.3-.77-.84-.54-1-.34-.86-.94-.15-1.18,1.37-2.86,3-3.12,4.8a2.47,2.47,0,0,0,2.32,3.05Z"/></g></g></svg>