<svg xmlns="http://www.w3.org/2000/svg" viewBox="0 0 711.25 361.52"><defs><style>.cls-1{fill:#682f09;}.cls-2{fill:#8c400d;}.cls-3{fill:none;stroke:#000;stroke-miterlimit:10;stroke-width:13px;}.cls-4{fill:aqua;opacity:0.28;}</style></defs><title>Asset 5</title><g id="Layer_2" data-name="Layer 2"><g id="Layer_22" data-name="Layer 22"><path class="cls-1" d="M76.86,285.67c-9.24-3-14.87,9.77-18.23,16.22l-7.12,13.63c-2.31,4.43-5.26,9.13-6.28,14.06l14.32,1.93c.36-5.38,3.5-10.73,5-15.86,1.46-4.93,2.1-12.21,6.22-15.48,3.38-2.69-1.65-8-4.84-4.84s-7,5.78-10.14,9-6.2,6.6-9.26,9.92c-6.12,6.64-12.78,13-18.06,20.36l13.42,7.85c3.59-6.47,7.28-13.16,11.69-19.11L42.74,317a173.82,173.82,0,0,1-19.55,22.43c-6.5,6.37.3,16,8.38,14.41a97.78,97.78,0,0,0,20.17-6.1c6.68-2.91,10.38-7.81,13.6-14.14a104.8,104.8,0,0,1,23.19-30.13l-15-4c.85,3.26-.65,6.21-2.11,9.09-1.88,3.71-3.89,7.41-6,11-3.47,5.85-7.42,12-15,11.13-4.15-.49-8.31,3.36-9.34,7.12-1.2,4.36.9,8.46,4.45,10.94,6.15,4.29,14.58,4.08,20.91.34,9.93-5.88,1.2-20.37-9-15.35l-1.11.55,4.41-1.2L59.43,333l4.34,1.17c.95.54-1-2.66-1.45-3.25-1.21-1.66-2.75-2.95-3.89-4.69-1.71-2.59-6.93-2.78-7.47,1-.71,5.06-2.9,9.47-1.3,14.72,2,6.49,8.2,9.56,14.58,8.07l-4.72-17.13c-2.19.77-2.12.71-4.28-.83l-4.89,18.05c13.43.46,23.44-9.06,29.82-19.93,6.16-10.5,13.53-22.89,10.67-35.45-1.61-7.06-10.2-8.11-15-4a107.28,107.28,0,0,0-22.92,27.75c-2.18,3.77-3.89,10.18-7.62,12.62-5,3.31-12.53,4.47-18.27,6.1l8.39,14.41A118.8,118.8,0,0,0,53.6,323.39c2.74-5.95-4.94-13.55-9.88-7.62C38.52,322,33.23,328,28.49,334.65c-5.14,7.18,6.3,15.89,12.2,9.42,6.06-6.63,10.91-14.55,16.13-21.85,2.62-3.67,5.28-7.31,7.79-11.06s4.25-7.9,6.72-11.68l-6.26-2.64c-.59,3.64-2.72,5.21-4.95,7.94-1.79,2.18-3.45,4.54-5,6.87-3.52,5.12-5.35,11.25-9.12,16.18-5,6.57,6,15,11.46,8.84,5.2-5.84,8.08-14,11.47-21,1.67-3.47,3.43-6.91,5-10.42.78-1.75,1.45-3.54,2.11-5.34l1-2.66q1.52-2.64-.11-1.42c5.4-1.06,4.61-8.68,0-10.16Z"/><path class="cls-2" d="M478.87,67.62a752.1,752.1,0,0,1,97.86,2.28c13.46,1.21,13.85-21.54,0-21.23-8.15.19-16.24,1.13-24.37,1.65-7.82.49-15.65.83-23.45,1.67-15.86,1.72-31.84,3.78-47.44,7.17-9.28,2-7.33,17.19,2.26,16.68,16.1-.85,32.11-2.79,48.14-4.48S564.65,68.9,580.63,66c11.17-2,7.93-18.68-2.59-19.09-33.28-1.32-66.31-5.11-99.25-9.93V54.3c7-2.33,14.2-2.37,21.54-2.55q11.88-.3,23.77-.11c15.88.23,31.66,1.37,47.51,2.18V34.3c-25.93,1.22-51.77-.22-76.9-6.95l6.56,6.56-.14-1v5l.31-1L499,41.14c1.52-1.93,11.73-2.74,15.48-3.28a177.16,177.16,0,0,1,18.83-1.64,236.83,236.83,0,0,1,40.19,2.08V18.49c-18.94-.86-37.87-1.91-56.8-2.88V33.42c22.32-1.87,44.06-.05,66.31,1.41l-2.48-18.36c-13.95,2.09-29,2-43.08,1.5a303.65,303.65,0,0,1-43-4.6l-2.41,17.8c39.17-2.49,78.08.23,116.94,5.25,10.52,1.36,12.82-16.3,2.51-18.51-39.13-8.4-79.73-9.2-119.45-4.87-11.67,1.28-11.62,16.78,0,18.13,15,1.75,30.24,3,45.37,3.57s30.34,0,45.56.09c10.24,0,13.1-16.36,2.49-18.36-22.48-4.25-46.15-3.37-68.8-.86-11.32,1.25-11.58,16.83,0,17.81,18.94,1.61,37.88,3.16,56.8,4.88,11,1,13.64-17.51,2.64-19.46A186.58,186.58,0,0,0,523,17a203.3,203.3,0,0,0-26.62,4.53c-8.37,2.08-15.57,7.9-13.25,17.4.7,2.89,3.51,6.09,6.57,6.57,27.12,4.27,54.4,8,81.9,8.34a9.9,9.9,0,0,0,9.75-9.76c0-5.76-4.49-9.17-9.75-9.76-16.37-1.83-33-2.09-49.49-1.91q-11.89.12-23.77.72c-8.17.42-16.7.65-24.34,3.84-9.16,3.83-8.28,16.92,2.39,17.67,33.2,2.32,66.26,5.54,99.06,11.35L578,46.88c-16,.73-32.22,3.78-48.14,5.73-16.17,2-32.37,3.73-48.43,6.55L486,75.54c14.29-5,28.72-8.66,43.86-9.71a158.07,158.07,0,0,1,22.51-.26c7.29.53,14.44,2.32,21.55,4l2.82-20.85a493.21,493.21,0,0,0-97.86,2.17c-4.49.55-8.38,3.46-8.38,8.39,0,4.4,3.84,8.58,8.38,8.39Z"/><path class="cls-2" d="M564.39,64.13a302.35,302.35,0,0,0,32.3,4.11c10.63.75,21.78,2.17,32.41.8,4.21-.54,7.82-2.82,8.37-7.39.45-3.82-1.87-8.65-6.11-9.35-8.39-1.38-16.59-1.32-25-1.47-8.09-.14-17-.52-24.89,1.1-6.47,1.33-6.93,12.61,0,13.54C600.24,68,619.19,68.91,638,66c7.27-1.11,7.18-13.39,0-14.59-22.18-3.71-44.33-7-65.91-13.42l-2.29,16.91c9.71-.06,19.4-.1,29.1-.51s20,0,29.59-1.76c4.85-.86,7.59-6.79,6.37-11.21-1.41-5.13-6.34-7.21-11.21-6.37-8.34,1.45-17.35,1-25.8.84-4.2-.07-8.44-.1-12.63-.5-4.57-.43-9-1.64-13.57-2.17L574,50.67c20.91-6.11,43.5-6.48,65.08-8.56,11.85-1.14,12.07-17.72,0-18.6C619,22,598.86,20.66,578.75,19.07l2.49,18.41A152.81,152.81,0,0,1,634.59,32V12.88c-18.56-1-37.31-.74-55.89-.34V30.69q23.32-1.1,46.68-.77c15.54.22,31.17,1.77,46.69,1,4.7-.24,8.76-3.42,9.33-8.23.51-4.29-2.09-9.62-6.81-10.43-15.89-2.7-32.14-2.36-48.22-2.07q-23.86.43-47.67,2.38c-4.88.4-9.07,3.89-9.07,9.07,0,4.71,4.15,9.34,9.07,9.08,18.76-1,37.19-.18,55.89,1.34,5.17.41,9.58-4.7,9.58-9.58,0-5.49-4.4-9.2-9.58-9.57a162.1,162.1,0,0,0-58.33,6.52c-10.38,3.13-8,17.73,2.49,18.42,20.13,1.32,40.24,2.85,60.36,4.29V23.51c-23.19,2.27-47.45,3-69.8,10.07-9.89,3.13-7.43,16.49,2.36,17.41,4.52.42,9-.05,13.57.24s9.07.64,13.61.88c9.06.47,18.22,0,27.24.88V34.76c-9.17-.81-19,.56-28.14,1-9.39.43-18.76,1.23-28.13,2a8.62,8.62,0,0,0,0,17.22C591.54,56.73,612.69,61.61,634,66l2-14.86c-17.61.83-35.09,1.7-52.72.5l1.87,13.79c7-1.8,12.89-3.86,20.27-3.48,6.81.35,13.26,2.95,19.36,5.89l6.57-15.58c-10.78-1.71-21.82-1.24-32.71-1.62S577.08,50,566.31,50c-7.88,0-10.11,12.66-1.92,14.14Z"/><path class="cls-2" d="M635.24,67.2c6.67,4.76,13.2-1.67,16.36-7.36,3.92-7.09,7.86-14,13.11-20.17s-1.15-14-8.3-10.76c-2.95,1.35-5.7,3.43-8.56,5a61.16,61.16,0,0,0-8.21,5.49c-5.2,4.08-9.79,9-14.68,13.44C618,59.14,628.82,70,635.24,63.13a118.77,118.77,0,0,1,11.34-10.64c3.14-2.59,7.61-6.87,11.57-7.84h-4.08l1.09.26-3.39-2,.71.8-2-3.39c1.1,3.85-1.82,14.48-5.57,16.21l9.55,12.38c7.4-9.09,14.79-18.28,21.58-27.84,5.71-8,16-19.53,9.69-29.7C683.14,7.17,678.11,7,674.52,10a201.27,201.27,0,0,1-17.61,12.81c-6.14,4-12.4,4.68-19.39,6.12L645,46.59c4.64-3.35,10.2-8.87,6.53-15.09s-11.13-4.12-16.31-1.64c-4.29,2.06-5.75,8-4,12.1,2.08,4.74,6.51,6.36,11.43,5.6,16-2.47,28.22-17.15,40.52-26.38l-9.79-2.57q.21-4.15-.82-1c-.52.95-1.07,1.88-1.66,2.79-1.25,2-2.56,4.06-3.87,6.06-2.29,3.51-4.59,7-7,10.45a183.52,183.52,0,0,1-16.75,20.85c-4.94,5.3-.13,16.16,7.67,13.17,8-3.07,11.5-10.05,13.44-18.07,1.47-6.1,3.61-16-1.81-20.81-6.52-5.79-14.26.16-19.81,4.23A103.38,103.38,0,0,0,625,52.84l12.15,7.08c1.74-5.33,5.43-9,9.89-12.24a52.25,52.25,0,0,1,6.52-4.07c2.71-1.44,5.21-1.51,8.17-2.17L655,30a94.77,94.77,0,0,0-12.27,16c-2.78,4.69-5.06,9.27-8.52,13.41a5.08,5.08,0,0,0,1,7.81Z"/><path class="cls-1" d="M65.34,303.14l-.25.29,6.73-1.78-.47-.1,4.32,3.31-.25-.41.75,5.79.26-.8-2,3.47c11.62-13.38,22.33-28.14,33-42.37a158.79,158.79,0,0,0,13.77-21.71c4-7.62,10.73-20.33,5.64-28.66-2.39-3.91-7.08-4.87-11.07-2.9-4.6,2.28-6.06,7.32-8.29,11.59-2.09,4-3.77,8.2-5.94,12.18a260.32,260.32,0,0,1-14.69,23.1c-5.08,7.36-10.41,14.56-15.4,22-4.66,6.94-13.34,17.27-9,25.9a7.36,7.36,0,0,0,6.5,3.73,8,8,0,0,0,5.95-2.54c1.51-1.76,2.69-4.37,1.78-6.73l-.16-.4c-1.65-4.29-7.56-7.09-11.16-2.95Z"/><path class="cls-1" d="M91.52,307.85c18.17-22.19,33.51-47,44.27-73.59,3.65-9-11.32-15.23-15.71-6.62-10.26,20.16-29.14,33.95-41.37,52.75l13.87,5.85c2.52-6.09,5.7-11.86,8.26-17.94s4.56-12.42,6.61-18.75c2.41-7.45-6.85-11-11.91-6.94-11.07,8.8-19.07,23.28-23.63,36.44-3,8.61,10.56,14.34,14.75,6.22a93.53,93.53,0,0,1,7.5-12.34c2.82-3.88,6.34-7.18,8.92-11.22l-11.16,1.43.63.67L92,259.89c-.47,3.28-4.19,6-6.31,8.35-2.45,2.71-4.86,5.43-7.39,8.07-4.74,4.95-9.63,9.85-13.7,15.38-4.44,6,5.4,13.55,10.38,8,5.45-6.08,9.68-13.2,14.44-19.81,2.32-3.22,4.7-6.4,7-9.61,1.92-2.66,5.33-5.64,6.59-8.57,2.54-5.95-3.06-13.91-9.72-9.72-8.87,5.58-15.56,16.18-20.64,25.13l14.75,6.22c4.38-12.42,11.33-21.79,19.26-32.09l-13-5.49c-2.49,11.1-6.78,24-13.8,33.09-6.69,8.61,5.61,18.25,11.92,9.2,12.47-17.9,27.49-33.55,41.76-50l-13.5-10.42C107.44,252,95.25,276.55,82.31,300.75c-3,5.58,4.8,12.48,9.21,7.1Z"/><path class="cls-1" d="M54.72,318.85c3.94-8,8.87-15.09,14-22.38C73.52,289.69,78,282.71,82.81,276c10.33-14.47,21.17-28.52,32-42.6q35-45.45,70.93-90.23l-17.24-10c-1.48,4.71-2.43,9.67-4.4,14.2a136.49,136.49,0,0,1-7.29,13.86c-5.42,9.3-12.1,17.92-18.37,26.66-12.65,17.61-24.6,37.06-25.39,59.32-.34,9.64,14.79,14.55,19,5.15,10.22-22.78,22.43-44.47,33.81-66.68,8.67-16.94,16.46-38.19,33.55-48.43l-13.13-10.1c-10.11,27.91-26.58,53.64-45.49,76.42-6,7.19,1.46,18.54,10.38,13.45,15.12-8.62,22.88-27.13,30.3-42A441.38,441.38,0,0,0,204.06,121c2.83-8.28,5.46-16.61,10.12-24.09S225,83.47,230.83,77.16c11.58-12.5,26.21-30.64,20.8-49-2.07-7-14.49-8.41-15.66,0-1.39,10-1.45,20.18-4,30S225,76,219.67,84.35A220,220,0,0,1,203,107.44c-3,3.62-6.12,7.2-9.34,10.67-1.69,1.82-3.46,3.58-5.14,5.42-1.42,1.55-2.88,4.38-4.8,5.3l7-.92-1.22-.31,5.44,4.19c-3.2-5.38,1.1-12.63,5.09-16.13L186.09,104.9a80.66,80.66,0,0,0-6.81,19.58c-1.21,6.22-3.26,15.17,0,21.06,3.69,6.59,11.82,7.3,17.82,3.63,5.32-3.25,9.54-8.17,13-13.31,6.81-10.29,11-22.3,17.07-33.08a382.54,382.54,0,0,1,22.48-34.73c6.51-9.18-8.76-21.15-15.74-12.14A243.55,243.55,0,0,0,207.54,98.6c-3.32,6.8-6.1,13.83-9.28,20.68a58.87,58.87,0,0,1-5.1,9.28,19.73,19.73,0,0,1-2.31,2.77,27.21,27.21,0,0,1-2.17,2c-1.23.65-.71.69,1.57.14l3.95,2.3-.83-1.07,2.3,3.95c-.86-3.46.56-8.61,1.34-12a62,62,0,0,1,4.41-12.77c4.32-9.06-6.18-17.62-13.94-10.75A32.6,32.6,0,0,0,177,121.62c-1.14,6.54-1.53,16.09,3.59,21.21,7.81,7.81,16.81-.84,21.81-7,4.77-5.9,9.47-11.89,14-18,9.12-12.13,16.55-24.5,22.06-38.65a119.76,119.76,0,0,0,6-20.13c.76-3.85,1.28-7.73,1.71-11.63.45-4.15.44-8.07,3.29-11.39L236,28.16c-1.13,3.8-1.8,7.83-3.29,11.52a60.68,60.68,0,0,1-5.69,10c-4.21,6.42-9.32,12-14.45,17.69-5.9,6.56-11.83,13.36-16.23,21-4.31,7.53-7.16,15.86-9.85,24.08a474,474,0,0,1-18.77,49c-3.69,8.08-7.62,16.07-11.84,23.9-3.41,6.33-7,12.91-13.31,16.71l10.38,13.45c20-25.2,35.73-52.75,49.72-81.64,4-8.29-4-16.06-12.23-12.23-20.06,9.35-29.81,32.12-39.57,50.53-12.29,23.18-23.38,46.93-36.39,69.72l19,5.15c2.68-20.17,12.41-37.85,23.23-54.71,5.51-8.58,11.41-16.92,16.93-25.49,5.64-8.76,11.65-18.39,14.78-28.36,2.95-9.35-10.68-18.24-17.24-10Q134,175,97.72,222.22c-11,14.28-22.16,28.6-31.53,44a150.74,150.74,0,0,0-12.31,24c-3.13,8.11-5.32,16.7-7.57,25.1-1.31,4.88,6,8.35,8.41,3.54Z"/><path class="cls-2" d="M255.8,68.51c2.39-.75,5.4-.12,7.93,0,3.6.15,7.22.13,10.83.23,7.56.2,15.11.52,22.67.6,15.11.18,30.23.63,45.34,1.26s29.89,1.84,44.84,2.78c7,.45,14,.65,21,.49,7.28-.16,19.48-.25,22.91-8,1.82-4.1,1.3-7.32-1.39-10.79-4.9-6.34-16.35-4.09-23.43-3.92-7.65.19-15.31-.09-23-.32-16-.49-31.93-1-47.91-1.2-15.72-.15-31.62-.23-47.31.87-7.88.55-15.79,1.1-23.65,1.91-7,.72-13.69,1.19-16.49,8.55-1.68,4.4,3.37,8.92,7.58,7.58Z"/><path class="cls-2" d="M273.77,56.07c3.85-9.11,3.83-19.25,4-29.06.09-4.47.6-9.54-1.75-13.57-3.23-5.52-9.51-5.82-14.74-3.47-6.08,2.74-5.17,10.48-1.89,14.68,7.19,9.21,14.25,18.66,17.13,30.16l16.55-7a45.47,45.47,0,0,1-4.28-10.08A24.84,24.84,0,0,1,288,33c-.07-.88-.11-1.77-.12-2.65q.39-3.75-1.05.37l-3.65,2.13.88-.32h-4.41c4.11.91,7.57,4.72,9.27,8.47.15.32,1,5,1.16,5.13l.72-1.55q2.83-.61,1.2-.87c-.49-.72-2.17-.45-2.65-1.54-.16-.37-.36-.55-.4-.19.08-.73,2.3-.95,2.63-1,2.34-.23,4.82.64,7,1.36,3.45,1.14,10.55,3.7,11.25,8V46.11l-.21.71,3.64-4.75a14.57,14.57,0,0,1-4.09,1.47c-4.43.91-5.08,6.47-2.48,9.43,5,5.68,15.94,6.46,18.32-2.29,2-7.47-5.07-14.32-10.81-17.79C302.84,26,280,20.94,275.09,38.38c-4.21,14.92,20.64,31,29.82,15.59,7.59-12.74-4.53-29.93-15.86-35.61-9-4.52-17.21.16-17.71,10.22-.48,9.57,2.17,19.78,6.12,28.4,4.39,9.57,19,2.66,16.55-7-3.44-13.79-11.54-25.44-19.91-36.67l-5.58,13.73.94-.4-7.22-.94,1,.55-4.31-5.6c.26.69-.06,4.56-.07,6.34,0,3.17.08,6.35.14,9.52.1,6.07.33,12.26,2.58,17.94,1.81,4.58,9.7,7.51,12.21,1.6Z"/><path class="cls-2" d="M270.35,34.7c-.75-2.65.4-4.15-2.11-6.28s-7.39-2.49-9,1.16c-1.68,3.83-1.57,7.13-1.66,11.3,0,1.87-.06,3.74-.08,5.61,0,.7,0,1.39,0,2.09-.61,1.38.08.78,2.05-1.8l8,10.4c3.32-5.7,6.75-11.21,9.41-17.27,1.46-3.29,2.82-6.64,4.1-10,.63-1.65.64-2.74,1.82-3.09,2.76-.83,7.29.72,10.09,1.09,3.3.42,6.6.64,9.93.85,7.61.49,15.22,1,22.83,1.41l43.69,2.17,21.85,1.08c7.66.38,17.2,2.59,23.07-3.48,3.52-3.64,3.07-8.69,0-12.39-5.24-6.33-16.59-4.66-24.06-4.91l-23.83-.78c-16.22-.54-32.44-1.26-48.66-1.55-7.92-.14-15.91-.59-23.83-.28-6.41.25-13.72-.11-19.34,3.47-6,3.83-6.74,10.6-9,16.79A79.22,79.22,0,0,1,255.31,50c-3,4.11,1,11.23,6.11,10.65,6.42-.72,9.87-5.18,10.3-11.5.41-5.93.14-14.33-2.59-19.6l-.89,6.93a2.47,2.47,0,0,1,1-1l-2.34-.61.73.94c.95,1.24,3.21.61,2.71-1.15Z"/><path class="cls-2" d="M307.44,41c25.8-.08,52.31-.53,77.62,5l2.5-18.45c-27.64,2.08-54.76,8-82.65,6.67V50c15.57-.27,31.15-.69,46.72,0s31.18,2.23,46.74,3.72V35.5c-21.35-.42-42.78,2.93-63.7,6.92-9.78,1.87-7.05,16.53,2.27,16.82,53.51,1.65,107,2.06,160.56,3V41.42c-32.12,1.15-64.25,3-96,7.91-4.43.69-7.15,6-6.54,10,.73,4.84,4.32,7.35,9,7.92,17.64,2.16,35.4,3.74,53.18,4.23q12.82.34,25.67.1c8.57-.15,16.56-.82,24.43-4.46,7.06-3.26,5.44-15.62-2.22-17-15-2.71-29.8-2-44.89-1.24L438.1,50c-8,.4-16-.39-24-.31V67l67.68-7.14c4.54-.48,8.44-3.12,9-8,.49-4.13-2-9.29-6.57-10.06-17.92-3-36-4.28-54.12-4.92-17.92-.63-36.18-.25-54-2.52l4.25,15.7c6.34-3.38,16.71-2.12,23.61-2.32q13.88-.39,27.76-.37c19.2,0,38.32,1,57.5,1.82V28.63c-31.23.48-62.85-.72-93.74-5.6l2.24,17.07c12.17-5.88,27.06-6,40.3-6.49,15.11-.52,30,.49,45,1.7V14.6c-28.81,3.1-57.46,4.24-86.4,2.42l2.52,18.61c10.15-4.08,21.08-3.86,31.84-4,11.58-.12,23.15.13,34.72.5,17.62.57,38.13-1,52.93,10.3,8.84,6.75,20.07-8,11.88-15.39-17.31-15.6-40.87-15.68-62.88-15.8-12.54-.07-25.08,0-37.61.5-13.13.54-26,1.26-38.18,6.56-9.18,4-3.77,17.35,4.78,17.65,28.75,1,57.69,1.1,86.4-.66C488.7,35,493.47,30.8,493.47,25c0-6.13-4.78-9.71-10.36-10.35-16.12-1.86-32.7-1.65-48.87-.51-15.68,1.11-31.71,2.61-45.9,9.88-6.63,3.39-5.84,16,2.23,17.07,32.81,4.42,65.56,7.82,98.7,8.16,13.35.13,13.1-19.71,0-20.57-20.74-1.37-41.69-1.21-62.46-.74q-15.37.34-30.73,1.21c-9.72.54-18.08,1.4-25.89,7.74-5.6,4.56-1,14.84,6,14.38,17.21-1.15,34.87.23,52,1.81s34.2,3.86,51.21,6.47l2.43-18-67.68,8.18c-4.63.56-8.65,3.57-8.65,8.65A8.75,8.75,0,0,0,414.13,67c7.33-.18,14.65-1.18,22-1.16s14.65.23,22,.34c13.86.21,28.26-.66,41.93,1.94l-2.22-17c-5.92,2.68-13.67,1.77-20,1.77-8.23,0-16.45-.2-24.68-.45q-24.69-.73-49.23-3.38l2.42,17.93c30.1-5.12,60.75-4.67,91.19-4.74,13.37,0,13.39-20.82,0-20.78-53.52.13-107-.2-160.56.7l2.28,16.81c19.51-4.69,39.15-5.43,59.15-5.21,11.89.13,11.51-17.21,0-18.22-31.48-2.75-64.23-6.67-95.54-1C294.24,36.12,296.09,51,304.91,50c27.46-3.16,55.22-.66,82.65-3.57,4.64-.49,8.63-3.2,9.22-8.15.52-4.29-2.07-9.43-6.73-10.31a230,230,0,0,0-41.4-3.84c-13.84-.07-27.49,1.54-41.21,3.27C299,28.42,298.39,41,307.44,41Z"/><path d="M686.57,13,456.4,348.52H24.68L254.85,13H686.57M711.25,0H248L0,361.52H463.25L711.25,0Z"/><line class="cls-3" x1="251.75" y1="0.59" x2="251.75" y2="74.59"/><line class="cls-3" x1="653.75" y1="73.59" x2="245.75" y2="73.59"/><line class="cls-3" x1="67.75" y1="354.59" x2="252.75" y2="72.59"/><polygon class="cls-4" points="33.25 343.09 256.25 14.09 686.25 13.09 460.75 349.59 33.25 343.09"/></g></g></svg>