<svg xmlns="http://www.w3.org/2000/svg" viewBox="0 0 163.75 236.25"><defs><style>.cls-1{fill:#999;stroke-width:11.75px;}.cls-1,.cls-2,.cls-3{stroke:#000;stroke-miterlimit:10;}.cls-2{fill:#00a99d;}.cls-2,.cls-3{stroke-width:12px;}.cls-3{fill:#666;}</style></defs><title>Asset 6</title><g id="Layer_2" data-name="Layer 2"><g id="Layer_21" data-name="Layer 21"><rect class="cls-1" x="5.88" y="5.88" width="152" height="224.5"/><rect class="cls-2" x="26.38" y="26.38" width="111" height="56"/><rect class="cls-3" x="93.38" y="102.38" width="44" height="110"/><path d="M119.94,208.89c.28-9.26-.64-18.38,0-27.69.65-8.84,1.53-17.61,1.54-26.48,0-9,0-18.07-.09-27.1,0-4.52-.14-9.05-.21-13.57-.07-4.89.62-10.45-1.06-15.09a5.8,5.8,0,0,0-11.09,0c-1.56,4.71-.76,10.18-.71,15.09,0,4.52.07,9,.14,13.57.14,9.67.47,19.34.63,29,.16,9.45-.13,18.86-.21,28.31-.07,8.5.08,18.18,4.43,25.72,1.79,3.1,6.48,1.66,6.58-1.78Z"/><path d="M68.25,208.23a5.22,5.22,0,0,0-1.4-.9l-.41-.36a.89.89,0,0,1,0,1c-.16.76-.56.2.07.15.41,0,.8-.18,1.22-.21A5.71,5.71,0,0,0,69,208l.2.15c.27-1.11.2-1.44-.21-1-.45,0-1.23.54-1.35-.2v1.48s-.11-.28.15-.12l.58.12c.64.37.87.14.69-.71.14-1.13.13-.86-.69-.73-.33.05-1.29,0-.76.3-1.7-1.12-3.55.41-3.71,2.13l0,.27a2.68,2.68,0,0,0,1.92,2.53c1.86.78,5.46-.37,6.76-1.87,1.7-2,.49-4.72-1.58-5.81s-5-1.36-7,0c-2.39,1.67-2.33,4.93-.56,7,3.68,4.36,12.28,1.73,12-4.31-.27-5.83-8.17-7.12-12.44-5.07A5.89,5.89,0,0,0,60,210c1.36,3,5.36,4.79,8.22,2.63a2.58,2.58,0,0,0,0-4.37Z"/><path d="M49.25,208.23a5.22,5.22,0,0,0-1.4-.9l-.41-.36a.89.89,0,0,1,0,1c-.16.76-.56.2.07.15.41,0,.8-.18,1.22-.21A5.71,5.71,0,0,0,50,208l.2.15c.27-1.11.2-1.44-.21-1-.45,0-1.23.54-1.35-.2v1.48s-.11-.28.15-.12l.58.12c.64.37.87.14.69-.71.14-1.13.13-.86-.69-.73-.33.05-1.29,0-.76.3-1.7-1.12-3.55.41-3.71,2.13l0,.27a2.68,2.68,0,0,0,1.92,2.53c1.86.78,5.46-.37,6.76-1.87,1.7-2,.49-4.72-1.58-5.81s-5-1.36-7,0c-2.39,1.67-2.33,4.93-.56,7,3.68,4.36,12.28,1.73,12-4.31-.27-5.83-8.17-7.12-12.44-5.07A5.89,5.89,0,0,0,41,210c1.36,3,5.36,4.79,8.22,2.63a2.58,2.58,0,0,0,0-4.37Z"/><path d="M30.25,208.23a5.22,5.22,0,0,0-1.4-.9l-.41-.36a.89.89,0,0,1,0,1c-.16.76-.56.2.07.15.41,0,.8-.18,1.22-.21A5.71,5.71,0,0,0,31,208l.2.15c.27-1.11.2-1.44-.21-1-.45,0-1.23.54-1.35-.2v1.48s-.11-.28.15-.12l.58.12c.64.37.87.14.69-.71.14-1.13.13-.86-.69-.73-.33.05-1.29,0-.76.3-1.7-1.12-3.55.41-3.71,2.13l0,.27a2.68,2.68,0,0,0,1.92,2.53c1.86.78,5.46-.37,6.76-1.87,1.7-2,.49-4.72-1.58-5.81s-5-1.36-7,0c-2.39,1.67-2.33,4.93-.56,7,3.68,4.36,12.28,1.73,12-4.31-.27-5.83-8.17-7.12-12.44-5.07A5.89,5.89,0,0,0,22,210c1.36,3,5.36,4.79,8.22,2.63a2.58,2.58,0,0,0,0-4.37Z"/><path d="M68.25,191.23a5.22,5.22,0,0,0-1.4-.9l-.41-.36a.89.89,0,0,1,0,1c-.16.76-.56.2.07.15.41,0,.8-.18,1.22-.21A5.71,5.71,0,0,0,69,191l.2.15c.27-1.11.2-1.44-.21-1-.45,0-1.23.54-1.35-.2v1.48s-.11-.28.15-.12l.58.12c.64.37.87.14.69-.71.14-1.13.13-.86-.69-.73-.33.05-1.29,0-.76.3-1.7-1.12-3.55.41-3.71,2.13l0,.27a2.68,2.68,0,0,0,1.92,2.53c1.86.78,5.46-.37,6.76-1.87,1.7-2,.49-4.72-1.58-5.81s-5-1.36-7,0c-2.39,1.67-2.33,4.93-.56,7,3.68,4.36,12.28,1.73,12-4.31-.27-5.83-8.17-7.12-12.44-5.07A5.89,5.89,0,0,0,60,193c1.36,3,5.36,4.79,8.22,2.63a2.58,2.58,0,0,0,0-4.37Z"/><path d="M49.25,191.23a5.22,5.22,0,0,0-1.4-.9l-.41-.36a.89.89,0,0,1,0,1c-.16.76-.56.2.07.15.41,0,.8-.18,1.22-.21A5.71,5.71,0,0,0,50,191l.2.15c.27-1.11.2-1.44-.21-1-.45,0-1.23.54-1.35-.2v1.48s-.11-.28.15-.12l.58.12c.64.37.87.14.69-.71.14-1.13.13-.86-.69-.73-.33.05-1.29,0-.76.3-1.7-1.12-3.55.41-3.71,2.13l0,.27a2.68,2.68,0,0,0,1.92,2.53c1.86.78,5.46-.37,6.76-1.87,1.7-2,.49-4.72-1.58-5.81s-5-1.36-7,0c-2.39,1.67-2.33,4.93-.56,7,3.68,4.36,12.28,1.73,12-4.31-.27-5.83-8.17-7.12-12.44-5.07A5.89,5.89,0,0,0,41,193c1.36,3,5.36,4.79,8.22,2.63a2.58,2.58,0,0,0,0-4.37Z"/><path d="M30.25,191.23a5.22,5.22,0,0,0-1.4-.9l-.41-.36a.89.89,0,0,1,0,1c-.16.76-.56.2.07.15.41,0,.8-.18,1.22-.21A5.71,5.71,0,0,0,31,191l.2.15c.27-1.11.2-1.44-.21-1-.45,0-1.23.54-1.35-.2v1.48s-.11-.28.15-.12l.58.12c.64.37.87.14.69-.71.14-1.13.13-.86-.69-.73-.33.05-1.29,0-.76.3-1.7-1.12-3.55.41-3.71,2.13l0,.27a2.68,2.68,0,0,0,1.92,2.53c1.86.78,5.46-.37,6.76-1.87,1.7-2,.49-4.72-1.58-5.81s-5-1.36-7,0c-2.39,1.67-2.33,4.93-.56,7,3.68,4.36,12.28,1.73,12-4.31-.27-5.83-8.17-7.12-12.44-5.07A5.89,5.89,0,0,0,22,193c1.36,3,5.36,4.79,8.22,2.63a2.58,2.58,0,0,0,0-4.37Z"/><path d="M68.25,174.23a5.22,5.22,0,0,0-1.4-.9l-.41-.36a.89.89,0,0,1,0,1c-.16.76-.56.2.07.15.41,0,.8-.18,1.22-.21A5.71,5.71,0,0,0,69,174l.2.15c.27-1.11.2-1.44-.21-1-.45,0-1.23.54-1.35-.2v1.48s-.11-.28.15-.12l.58.12c.64.37.87.14.69-.71.14-1.13.13-.86-.69-.73-.33.05-1.29,0-.76.3-1.7-1.12-3.55.41-3.71,2.13l0,.27a2.68,2.68,0,0,0,1.92,2.53c1.86.78,5.46-.37,6.76-1.87,1.7-2,.49-4.72-1.58-5.81s-5-1.36-7,0c-2.39,1.67-2.33,4.93-.56,7,3.68,4.36,12.28,1.73,12-4.31-.27-5.83-8.17-7.12-12.44-5.07A5.89,5.89,0,0,0,60,176c1.36,3,5.36,4.79,8.22,2.63a2.58,2.58,0,0,0,0-4.37Z"/><path d="M49.25,174.23a5.22,5.22,0,0,0-1.4-.9l-.41-.36a.89.89,0,0,1,0,1c-.16.76-.56.2.07.15.41,0,.8-.18,1.22-.21A5.71,5.71,0,0,0,50,174l.2.15c.27-1.11.2-1.44-.21-1-.45,0-1.23.54-1.35-.2v1.48s-.11-.28.15-.12l.58.12c.64.37.87.14.69-.71.14-1.13.13-.86-.69-.73-.33.05-1.29,0-.76.3-1.7-1.12-3.55.41-3.71,2.13l0,.27a2.68,2.68,0,0,0,1.92,2.53c1.86.78,5.46-.37,6.76-1.87,1.7-2,.49-4.72-1.58-5.81s-5-1.36-7,0c-2.39,1.67-2.33,4.93-.56,7,3.68,4.36,12.28,1.73,12-4.31-.27-5.83-8.17-7.12-12.44-5.07A5.89,5.89,0,0,0,41,176c1.36,3,5.36,4.79,8.22,2.63a2.58,2.58,0,0,0,0-4.37Z"/><path d="M30.25,174.23a5.22,5.22,0,0,0-1.4-.9l-.41-.36a.89.89,0,0,1,0,1c-.16.76-.56.2.07.15.41,0,.8-.18,1.22-.21A5.71,5.71,0,0,0,31,174l.2.15c.27-1.11.2-1.44-.21-1-.45,0-1.23.54-1.35-.2v1.48s-.11-.28.15-.12l.58.12c.64.37.87.14.69-.71.14-1.13.13-.86-.69-.73-.33.05-1.29,0-.76.3-1.7-1.12-3.55.41-3.71,2.13l0,.27a2.68,2.68,0,0,0,1.92,2.53c1.86.78,5.46-.37,6.76-1.87,1.7-2,.49-4.72-1.58-5.81s-5-1.36-7,0c-2.39,1.67-2.33,4.93-.56,7,3.68,4.36,12.28,1.73,12-4.31-.27-5.83-8.17-7.12-12.44-5.07A5.89,5.89,0,0,0,22,176c1.36,3,5.36,4.79,8.22,2.63a2.58,2.58,0,0,0,0-4.37Z"/><path d="M68.25,157.23a5.22,5.22,0,0,0-1.4-.9l-.41-.36a.89.89,0,0,1,0,1c-.16.76-.56.2.07.15.41,0,.8-.18,1.22-.21A5.71,5.71,0,0,0,69,157l.2.15c.27-1.11.2-1.44-.21-1-.45,0-1.23.54-1.35-.2v1.48s-.11-.28.15-.12l.58.12c.64.37.87.14.69-.71.14-1.13.13-.86-.69-.73-.33.05-1.29,0-.76.3-1.7-1.12-3.55.41-3.71,2.13l0,.27a2.68,2.68,0,0,0,1.92,2.53c1.86.78,5.46-.37,6.76-1.87,1.7-2,.49-4.72-1.58-5.81s-5-1.36-7,0c-2.39,1.67-2.33,4.93-.56,7,3.68,4.36,12.28,1.73,12-4.31-.27-5.83-8.17-7.12-12.44-5.07A5.89,5.89,0,0,0,60,159c1.36,3,5.36,4.79,8.22,2.63a2.58,2.58,0,0,0,0-4.37Z"/><path d="M49.25,157.23a5.22,5.22,0,0,0-1.4-.9l-.41-.36a.89.89,0,0,1,0,1c-.16.76-.56.2.07.15.41,0,.8-.18,1.22-.21A5.71,5.71,0,0,0,50,157l.2.15c.27-1.11.2-1.44-.21-1-.45,0-1.23.54-1.35-.2v1.48s-.11-.28.15-.12l.58.12c.64.37.87.14.69-.71.14-1.13.13-.86-.69-.73-.33.05-1.29,0-.76.3-1.7-1.12-3.55.41-3.71,2.13l0,.27a2.68,2.68,0,0,0,1.92,2.53c1.86.78,5.46-.37,6.76-1.87,1.7-2,.49-4.72-1.58-5.81s-5-1.36-7,0c-2.39,1.67-2.33,4.93-.56,7,3.68,4.36,12.28,1.73,12-4.31-.27-5.83-8.17-7.12-12.44-5.07A5.89,5.89,0,0,0,41,159c1.36,3,5.36,4.79,8.22,2.63a2.58,2.58,0,0,0,0-4.37Z"/><path d="M30.25,157.23a5.22,5.22,0,0,0-1.4-.9l-.41-.36a.89.89,0,0,1,0,1c-.16.76-.56.2.07.15.41,0,.8-.18,1.22-.21A5.71,5.71,0,0,0,31,157l.2.15c.27-1.11.2-1.44-.21-1-.45,0-1.23.54-1.35-.2v1.48s-.11-.28.15-.12l.58.12c.64.37.87.14.69-.71.14-1.13.13-.86-.69-.73-.33.05-1.29,0-.76.3-1.7-1.12-3.55.41-3.71,2.13l0,.27a2.68,2.68,0,0,0,1.92,2.53c1.86.78,5.46-.37,6.76-1.87,1.7-2,.49-4.72-1.58-5.81s-5-1.36-7,0c-2.39,1.67-2.33,4.93-.56,7,3.68,4.36,12.28,1.73,12-4.31-.27-5.83-8.17-7.12-12.44-5.07A5.89,5.89,0,0,0,22,159c1.36,3,5.36,4.79,8.22,2.63a2.58,2.58,0,0,0,0-4.37Z"/><path d="M68.25,140.23a5.22,5.22,0,0,0-1.4-.9l-.41-.36a.89.89,0,0,1,0,1c-.16.76-.56.2.07.15.41,0,.8-.18,1.22-.21A5.71,5.71,0,0,0,69,140l.2.15c.27-1.11.2-1.44-.21-1-.45,0-1.23.54-1.35-.2v1.48s-.11-.28.15-.12l.58.12c.64.37.87.14.69-.71.14-1.13.13-.86-.69-.73-.33.05-1.29,0-.76.3-1.7-1.12-3.55.41-3.71,2.13l0,.27a2.68,2.68,0,0,0,1.92,2.53c1.86.78,5.46-.37,6.76-1.87,1.7-2,.49-4.72-1.58-5.81s-5-1.36-7,0c-2.39,1.67-2.33,4.93-.56,7,3.68,4.36,12.28,1.73,12-4.31-.27-5.83-8.17-7.12-12.44-5.07A5.89,5.89,0,0,0,60,142c1.36,3,5.36,4.79,8.22,2.63a2.58,2.58,0,0,0,0-4.37Z"/><path d="M49.25,140.23a5.22,5.22,0,0,0-1.4-.9l-.41-.36a.89.89,0,0,1,0,1c-.16.76-.56.2.07.15.41,0,.8-.18,1.22-.21A5.71,5.71,0,0,0,50,140l.2.15c.27-1.11.2-1.44-.21-1-.45,0-1.23.54-1.35-.2v1.48s-.11-.28.15-.12l.58.12c.64.37.87.14.69-.71.14-1.13.13-.86-.69-.73-.33.05-1.29,0-.76.3-1.7-1.12-3.55.41-3.71,2.13l0,.27a2.68,2.68,0,0,0,1.92,2.53c1.86.78,5.46-.37,6.76-1.87,1.7-2,.49-4.72-1.58-5.81s-5-1.36-7,0c-2.39,1.67-2.33,4.93-.56,7,3.68,4.36,12.28,1.73,12-4.31-.27-5.83-8.17-7.12-12.44-5.07A5.89,5.89,0,0,0,41,142c1.36,3,5.36,4.79,8.22,2.63a2.58,2.58,0,0,0,0-4.37Z"/><path d="M30.25,140.23a5.22,5.22,0,0,0-1.4-.9l-.41-.36a.89.89,0,0,1,0,1c-.16.76-.56.2.07.15.41,0,.8-.18,1.22-.21A5.71,5.71,0,0,0,31,140l.2.15c.27-1.11.2-1.44-.21-1-.45,0-1.23.54-1.35-.2v1.48s-.11-.28.15-.12l.58.12c.64.37.87.14.69-.71.14-1.13.13-.86-.69-.73-.33.05-1.29,0-.76.3-1.7-1.12-3.55.41-3.71,2.13l0,.27a2.68,2.68,0,0,0,1.92,2.53c1.86.78,5.46-.37,6.76-1.87,1.7-2,.49-4.72-1.58-5.81s-5-1.36-7,0c-2.39,1.67-2.33,4.93-.56,7,3.68,4.36,12.28,1.73,12-4.31-.27-5.83-8.17-7.12-12.44-5.07A5.89,5.89,0,0,0,22,142c1.36,3,5.36,4.79,8.22,2.63a2.58,2.58,0,0,0,0-4.37Z"/><path d="M68.25,123.23a5.22,5.22,0,0,0-1.4-.9l-.41-.36a.89.89,0,0,1,0,1c-.16.76-.56.2.07.15.41,0,.8-.18,1.22-.21A5.71,5.71,0,0,0,69,123l.2.15c.27-1.11.2-1.44-.21-1-.45,0-1.23.54-1.35-.2v1.48s-.11-.28.15-.12l.58.12c.64.37.87.14.69-.71.14-1.13.13-.86-.69-.73-.33,0-1.29,0-.76.3-1.7-1.12-3.55.41-3.71,2.13l0,.27a2.68,2.68,0,0,0,1.92,2.53c1.86.78,5.46-.37,6.76-1.87,1.7-2,.49-4.72-1.58-5.81s-5-1.36-7,0c-2.39,1.67-2.33,4.93-.56,7,3.68,4.36,12.28,1.73,12-4.31-.27-5.83-8.17-7.12-12.44-5.07A5.89,5.89,0,0,0,60,125c1.36,3,5.36,4.79,8.22,2.63a2.58,2.58,0,0,0,0-4.37Z"/><path d="M49.25,123.23a5.22,5.22,0,0,0-1.4-.9l-.41-.36a.89.89,0,0,1,0,1c-.16.76-.56.2.07.15.41,0,.8-.18,1.22-.21A5.71,5.71,0,0,0,50,123l.2.15c.27-1.11.2-1.44-.21-1-.45,0-1.23.54-1.35-.2v1.48s-.11-.28.15-.12l.58.12c.64.37.87.14.69-.71.14-1.13.13-.86-.69-.73-.33,0-1.29,0-.76.3-1.7-1.12-3.55.41-3.71,2.13l0,.27a2.68,2.68,0,0,0,1.92,2.53c1.86.78,5.46-.37,6.76-1.87,1.7-2,.49-4.72-1.58-5.81s-5-1.36-7,0c-2.39,1.67-2.33,4.93-.56,7,3.68,4.36,12.28,1.73,12-4.31-.27-5.83-8.17-7.12-12.44-5.07A5.89,5.89,0,0,0,41,125c1.36,3,5.36,4.79,8.22,2.63a2.58,2.58,0,0,0,0-4.37Z"/><path d="M30.25,123.23a5.22,5.22,0,0,0-1.4-.9l-.41-.36a.89.89,0,0,1,0,1c-.16.76-.56.2.07.15.41,0,.8-.18,1.22-.21A5.71,5.71,0,0,0,31,123l.2.15c.27-1.11.2-1.44-.21-1-.45,0-1.23.54-1.35-.2v1.48s-.11-.28.15-.12l.58.12c.64.37.87.14.69-.71.14-1.13.13-.86-.69-.73-.33,0-1.29,0-.76.3-1.7-1.12-3.55.41-3.71,2.13l0,.27a2.68,2.68,0,0,0,1.92,2.53c1.86.78,5.46-.37,6.76-1.87,1.7-2,.49-4.72-1.58-5.81s-5-1.36-7,0c-2.39,1.67-2.33,4.93-.56,7,3.68,4.36,12.28,1.73,12-4.31-.27-5.83-8.17-7.12-12.44-5.07A5.89,5.89,0,0,0,22,125c1.36,3,5.36,4.79,8.22,2.63a2.58,2.58,0,0,0,0-4.37Z"/><path d="M68.25,106.23a5.22,5.22,0,0,0-1.4-.9l-.41-.36a.89.89,0,0,1,0,1c-.16.76-.56.2.07.15.41,0,.8-.18,1.22-.21A5.71,5.71,0,0,0,69,106l.2.15c.27-1.11.2-1.44-.21-1-.45,0-1.23.54-1.35-.2v1.48s-.11-.28.15-.12l.58.12c.64.37.87.14.69-.71.14-1.13.13-.86-.69-.73-.33,0-1.29,0-.76.3-1.7-1.12-3.55.41-3.71,2.13l0,.27a2.68,2.68,0,0,0,1.92,2.53c1.86.78,5.46-.37,6.76-1.87,1.7-2,.49-4.72-1.58-5.81s-5-1.36-7,0c-2.39,1.67-2.33,4.93-.56,7,3.68,4.36,12.28,1.73,12-4.31-.27-5.83-8.17-7.12-12.44-5.07A5.89,5.89,0,0,0,60,108c1.36,3,5.36,4.79,8.22,2.63a2.58,2.58,0,0,0,0-4.37Z"/><path d="M49.25,106.23a5.22,5.22,0,0,0-1.4-.9l-.41-.36a.89.89,0,0,1,0,1c-.16.76-.56.2.07.15.41,0,.8-.18,1.22-.21A5.71,5.71,0,0,0,50,106l.2.15c.27-1.11.2-1.44-.21-1-.45,0-1.23.54-1.35-.2v1.48s-.11-.28.15-.12l.58.12c.64.37.87.14.69-.71.14-1.13.13-.86-.69-.73-.33,0-1.29,0-.76.3-1.7-1.12-3.55.41-3.71,2.13l0,.27a2.68,2.68,0,0,0,1.92,2.53c1.86.78,5.46-.37,6.76-1.87,1.7-2,.49-4.72-1.58-5.81s-5-1.36-7,0c-2.39,1.67-2.33,4.93-.56,7,3.68,4.36,12.28,1.73,12-4.31-.27-5.83-8.17-7.12-12.44-5.07A5.89,5.89,0,0,0,41,108c1.36,3,5.36,4.79,8.22,2.63a2.58,2.58,0,0,0,0-4.37Z"/><path d="M30.25,106.23a5.22,5.22,0,0,0-1.4-.9l-.41-.36a.89.89,0,0,1,0,1c-.16.76-.56.2.07.15.41,0,.8-.18,1.22-.21A5.71,5.71,0,0,0,31,106l.2.15c.27-1.11.2-1.44-.21-1-.45,0-1.23.54-1.35-.2v1.48s-.11-.28.15-.12l.58.12c.64.37.87.14.69-.71.14-1.13.13-.86-.69-.73-.33,0-1.29,0-.76.3-1.7-1.12-3.55.41-3.71,2.13l0,.27a2.68,2.68,0,0,0,1.92,2.53c1.86.78,5.46-.37,6.76-1.87,1.7-2,.49-4.72-1.58-5.81s-5-1.36-7,0c-2.39,1.67-2.33,4.93-.56,7,3.68,4.36,12.28,1.73,12-4.31-.27-5.83-8.17-7.12-12.44-5.07A5.89,5.89,0,0,0,22,108c1.36,3,5.36,4.79,8.22,2.63a2.58,2.58,0,0,0,0-4.37Z"/></g></g></svg>