<svg xmlns="http://www.w3.org/2000/svg" viewBox="0 0 281 557"><defs><style>.cls-1{fill:#4d4d4d;stroke-width:12px;}.cls-1,.cls-2{stroke:#000;stroke-miterlimit:10;}.cls-2{fill:#1a1a1a;stroke-width:9.45px;}.cls-3{fill:#af0000;}</style></defs><title>Asset 11</title><g id="Layer_2" data-name="Layer 2"><g id="Layer_13" data-name="Layer 13"><rect class="cls-1" x="6" y="6" width="269" height="392"/><circle class="cls-2" cx="140" cy="183" r="78"/><path d="M251.12,30.94a4.75,4.75,0,0,1-3.06-2.77c-.55-1.52-.11-2.59,1.61-2.37,2.62.34,5,3.42,3.65,6-2.73,5.27-10.24.43-6.71-4C248.78,25,255,25.69,254.16,30a5.6,5.6,0,0,1-6,4.46c-7-1-4.83-10,1.64-9.66,1.56.08,1.94-2,.76-2.8-4.4-2.82-9.81-.27-12,4.23-2.28,4.8.58,10.24,4.93,12.64a11,11,0,0,0,14-2.86c3.41-4.21,3.64-11.51-1.6-14.43-4.83-2.69-12.28-.83-14.78,4.2A10.35,10.35,0,0,0,243.63,38c4,3.26,10,2.17,13.41-1.42,3.91-4.08,3.15-10.35-.84-14.07s-12.61-4.37-14.32,2.12c-1.4,5.35,3.7,13.85,9.8,10.56,1.95-1.06,1.17-3.59-.56-4.29Z"/><path d="M31,32.91c-1.06.39-3.78,1.15-4.73.24s-.13-6.56.49-7.48c2.44-3.61,9.32-.38,10.36,3.2a5.61,5.61,0,0,1-1.09,5c-1.65,1.88-4.2,1.4-6.35.84s-4.68-1.41-5.4-3.89c-.42-1.41-.57-5,.34-6.2s5.26-1.39,6.48-1.15c3.38.65,3.08,3.36,2.22,6.07-.8,2.5-3.95,4.45-5.27,1-.85-2.23.77-4.78,2.89-5.5,4.91-1.66,6.63,6.16,1.45,5.59S27.9,22.89,29,19.28c.52-1.65-1.85-3.17-3-1.76-2.63,3.17-4.07,6.64-3.06,10.8a10,10,0,0,0,7,7.45c6.94,1.95,13.51-4.21,10.35-11.19-3.25-7.19-13.4-6.37-16.91.19S25.11,40,32.81,38.05c7.27-1.88,9.83-14.71,3.4-18.89-3.68-2.39-8.42-1.81-12.42-.61-4.29,1.29-5.4,4.47-5.59,8.66-.17,3.74.4,7.55,3.35,10.14A17.72,17.72,0,0,0,34.62,41c7.18-1.24,10.62-10,7.05-16.12C37.9,18.39,24,14.77,21.07,24c-1.1,3.37-1.68,9.66.75,12.64,3,3.64,7.4,1.53,10.59-.37,1.7-1,.59-4-1.4-3.32Z"/><path d="M251.12,375.94a4.75,4.75,0,0,1-3.06-2.77c-.55-1.52-.11-2.59,1.61-2.37,2.62.34,5,3.42,3.65,6-2.73,5.27-10.24.43-6.71-4,2.17-2.73,8.36-2.08,7.55,2.25a5.6,5.6,0,0,1-6,4.46c-7-1-4.83-10,1.64-9.66,1.56.08,1.94-2,.76-2.8-4.4-2.82-9.81-.27-12,4.23-2.28,4.8.58,10.24,4.93,12.64a11,11,0,0,0,14-2.86c3.41-4.21,3.64-11.51-1.6-14.43-4.83-2.69-12.28-.83-14.78,4.2A10.35,10.35,0,0,0,243.63,383c4,3.26,10,2.17,13.41-1.42,3.91-4.08,3.15-10.35-.84-14.07s-12.61-4.37-14.32,2.12c-1.4,5.35,3.7,13.85,9.8,10.56,1.95-1.06,1.17-3.59-.56-4.29Z"/><path d="M31,377.91c-1.06.39-3.78,1.15-4.73.24s-.13-6.56.49-7.48c2.44-3.61,9.32-.38,10.36,3.2a5.61,5.61,0,0,1-1.09,5c-1.65,1.88-4.2,1.4-6.35.84s-4.68-1.41-5.4-3.89c-.42-1.41-.57-5,.34-6.2s5.26-1.39,6.48-1.15c3.38.65,3.08,3.36,2.22,6.07-.8,2.5-3.95,4.45-5.27,1-.85-2.23.77-4.78,2.89-5.5,4.91-1.66,6.63,6.16,1.45,5.59s-4.5-7.75-3.38-11.36c.52-1.65-1.85-3.17-3-1.76-2.63,3.17-4.07,6.64-3.06,10.8a10,10,0,0,0,7,7.45c6.94,2,13.51-4.21,10.35-11.19-3.25-7.19-13.4-6.37-16.91.19s1.77,15.27,9.47,13.28c7.27-1.88,9.83-14.71,3.4-18.89-3.68-2.39-8.42-1.81-12.42-.61-4.29,1.29-5.4,4.47-5.59,8.66-.17,3.74.4,7.55,3.35,10.14A17.72,17.72,0,0,0,34.62,386c7.18-1.24,10.62-10,7.05-16.12-3.77-6.47-17.63-10.09-20.6-.9-1.1,3.37-1.68,9.66.75,12.64,3,3.64,7.4,1.53,10.59-.37,1.7-1,.59-4-1.4-3.32Z"/><path class="cls-3" d="M68.36,210.15c-2.36,5.57,1,12,3,17.22,2.92,7.74,6.07,15.36,8.22,23.36a104.09,104.09,0,0,1,3.2,23.89c.25,7.2.94,14,3.84,20.7a3.17,3.17,0,0,0,4.32,1.14c6-3.91,6-10.8,6.07-17.27.12-10.18.24-20.35.3-30.52,0-4.39-6.79-4.39-6.81,0q-.06,11.31,0,22.64c0,4.9,2.09,16.46-2.71,19.7l4.32,1.13c-3.08-6.9-3-14.44-3.37-21.84a89,89,0,0,0-3.28-20.24,174.56,174.56,0,0,0-7.32-19.54c-2.86-6.69-6.74-13.07-8.35-20.19-.14-.58-1.12-.78-1.38-.18Z"/><path class="cls-3" d="M92.65,286.26c2-7.81-.12-16.4-2-24.06-2.09-8.51-4.89-16.87-7.77-25.14l-7.2,3a56.38,56.38,0,0,1,9.41,20.15c1,4,7.83,3.28,7.37-1a30.6,30.6,0,0,0-7.6-17.16l-3.36,5.76A10.57,10.57,0,0,1,88,251l4.14-5.38c-6.15-3.41-9.6-8.17-14.21-13.23-1.92-2.11-5.89.09-4.91,2.86,2.55,7.18,9.19,12.66,15.67,16.28,3.36,1.89,6.94-2.58,4.15-5.37a16.68,16.68,0,0,0-9.48-5c-3.4-.54-5.72,3-3.36,5.76a20.21,20.21,0,0,1,5,12.29l7.36-1a67.79,67.79,0,0,0-9.84-22.14c-2.37-3.46-8.73-1.45-7.2,3,2.64,7.71,4.94,15.51,7.28,23.32a199.41,199.41,0,0,1,5.14,23.78c.45,2.55,4.35,2.32,5,0Z"/><path class="cls-3" d="M68.13,216.63c7.66,19.75,23.8,35,43.27,43a82.54,82.54,0,0,0,33.79,6.2c10.74-.29,24.6-1.82,33.21-8.76,3.1-2.49-.42-6.35-3.43-5.9-5.06.75-9.82,3-14.8,4.19a76.16,76.16,0,0,1-15.84,2,78,78,0,0,1-30.05-5.32,79.9,79.9,0,0,1-23.56-14.63c-7.41-6.59-12.88-14.51-18.6-22.51-1.32-1.84-5-.8-4,1.69Z"/><path class="cls-3" d="M98.82,252.23c-1.52,21-.46,42.07,1.46,63,.87,9.44,1.63,19.09,3.67,28.37,1.27,5.83,4.1,18.16,10.89,20.09,7.82,2.22,9.79-9.24,11.2-14.17,2.79-9.75,5.22-19.6,7.12-29.57,3.71-19.54,5.33-39.46,2.83-59.26-.65-5.1-7.33-5.12-8,0l-5.59,45.23c-.89,7.21-1.7,14.43-2.67,21.63-.76,5.61-1.68,12.41-6.78,15.79l5.85,3.35a223.79,223.79,0,0,1,8.1-56.18l-7.51-1a377.84,377.84,0,0,1-9,48h7.28a140.92,140.92,0,0,1-1.8-55.12l-7.35-1a348.07,348.07,0,0,1-4.15,57.32l7.28,1c-.7-20.46-1.4-41.07,1.61-61.4h-7.07a67,67,0,0,1-1,31.09h6.92a172.39,172.39,0,0,1-7-55.07l-6,.82a104.74,104.74,0,0,1,2.73,32.1l6.39-1.73a69.5,69.5,0,0,1-9.64-30.87l-4.22,3.22c6.72,1.37,9.25,8.75,10.83,14.63a59.52,59.52,0,0,1,1.53,21.92l7.48-1a65.32,65.32,0,0,1,1.07-35.43H108.7a140.25,140.25,0,0,1,5.88,44.9h7c-1.43-13.41-4.3-27.15-.35-40.34h-5.14a108.05,108.05,0,0,1,0,28.91l6.38-.86a26.65,26.65,0,0,1,3.06-17.92l-5.67-.74a34.79,34.79,0,0,1,.88,20.47h6.33a90.25,90.25,0,0,1-.26-26.51c.26-1.73-.4-3.95-2.44-4.3a56.87,56.87,0,0,1-22.57-9.18l-3.72,6.37a116.79,116.79,0,0,0,23,9.34c2.37.69,5.29-1.76,4.3-4.3-2.42-6.22-10.08-5.26-12.47.5-1.58,3.81-1.29,8.72-1.34,12.78-.07,5.44.21,10.87.62,16.29,1.61,20.87,5.33,42-.33,62.61h6.73c-2.83-13.92-2.26-28.46-1-42.53.23-2.46-3.3-2.59-4-.55-5.36,14.7-5,29.74-1.73,44.93.73,3.43,5.88,3.22,6.73,0,3.89-14.64,3.34-29.56,2.09-44.51-.63-7.56-1.45-15.1-1.9-22.67-.22-3.61-.37-7.24-.37-10.86,0-4,1.63-10.48.23-14.13l4.3-4.3a102.42,102.42,0,0,1-21.1-9c-4.21-2.37-7.52,3.65-3.72,6.37a53,53,0,0,0,25.36,9.67l-3.49-3.49a116.42,116.42,0,0,0,.79,29.19c.53,3.25,5.63,3,6.33,0a42.29,42.29,0,0,0-1.23-23.87c-.83-2.45-4.28-3.17-5.67-.75a33.69,33.69,0,0,0-4,22.79c.51,3.07,5.82,3.13,6.27,0a83.16,83.16,0,0,0-1.24-31.2c-.58-2.51-4.6-2.57-5.14,0a129.53,129.53,0,0,0-1.49,41.76c.51,4.34,6.92,4.6,7,0a169.19,169.19,0,0,0-6.31-46.71c-.93-3.4-5.47-3-6.55,0a66,66,0,0,0-1.86,39.26c1.15,4.34,7.14,3.12,7.48-1,1.09-13.63-1.39-39.41-18.21-43-2-.42-4.35.94-4.22,3.22a73,73,0,0,0,10.39,34.33,3.46,3.46,0,0,0,6.39-1.73A112.17,112.17,0,0,0,105,253.47c-.91-3.46-5.8-2.55-6,.81a167.93,167.93,0,0,0,6.22,57,3.62,3.62,0,0,0,6.92,0,74.06,74.06,0,0,0,1.18-34.95c-.69-3.4-6.54-3.59-7.07,0-3.14,21-2.65,42.18-2,63.35.13,4,6.6,5.29,7.28,1A360,360,0,0,0,116,281.36c0-4.06-6.63-5.28-7.35-1a150.89,150.89,0,0,0,1.74,59.12c.84,3.65,6.37,3.54,7.28,0a394.7,394.7,0,0,0,9.38-50c.53-4.36-6.39-5.05-7.51-1a232.15,232.15,0,0,0-8.5,58.22c0,2.85,3.37,5,5.84,3.36,11.47-7.55,10.88-24.15,12.4-36.26l6.68-53.1h-8a177,177,0,0,1-1.65,51.52c-1.38,8.12-3.17,16.16-5.18,24.15q-1.4,5.54-2.87,11c-.66,2.43-1.28,4.9-2,7.3l-.49,1.22a1.8,1.8,0,0,0-.42-2.67c-1.21-3.67-3-7-4-10.83-.88-3.57-1.47-7.2-2-10.83-1.24-8.69-2.17-17.43-2.94-26.17-1.54-17.69-1.9-35.44-2.54-53.17-.12-3.32-4.89-3.27-5.12,0Z"/><path class="cls-3" d="M123.82,280.82c-4,4.45-.44,16,.8,21.21a108.06,108.06,0,0,0,3.56,12.09c1.07,2.94,2.13,6.68,4.38,9,5.18,5.33,11.23-.36,14.21-5,3.45-5.33,4.59-11.79,5.71-17.92a84.37,84.37,0,0,1,2.11-9.71c.72-2.33.13-3.36,2.24-2.45,1.25.54,2.31,1.43,3.6,2,6.09,2.53,13,.13,17.52-4.35,4.93-4.89,6.51-11.82,7.32-18.48.46-3.74.63-7.52,1.42-11.22.9-4.26,3.19-7.12,4.93-10.92,1.51-3.3-1.59-6.73-5-5-11.09,5.63-8,24.06-11.31,33.84a12.82,12.82,0,0,1-5.88,7.6c-3.56,1.9-5.65.62-8.89-1.15-4.72-2.57-9.72-1.74-12.4,3.17-2.58,4.74-3.24,10.61-4.16,15.84-.89,5.07-1.67,13.5-6.19,16.9l.43.88a23.7,23.7,0,0,1-1.32-2.79c-.84-1.88-1.61-3.79-2.36-5.71-1.31-3.37-2.45-6.79-3.46-10.26s-1.94-6.94-2.71-10.45c-.67-3.06-.74-5.39-3.26-7.28a1.08,1.08,0,0,0-1.29.17Z"/><path class="cls-3" d="M164.17,259.85A51.28,51.28,0,0,0,183,254.22c6.32-3.36,10.17-7.65,14-13.55,1.2-1.85-1.11-3.83-2.88-2.88-7.48,4-14.47,8.64-21.81,12.87a71.14,71.14,0,0,1-12.21,5.23c-3.17,1.11-6.59,1.73-8.87,4.31-1.2,1.35-1,4.15,1.18,4.49,4,.64,7.53-1.26,11.26-2.66A74.1,74.1,0,0,0,175,256.91c7.73-4.52,14.76-10.17,21.67-15.81l-3-3c-7.74,8.95-20.44,13.21-30,19.75-.78.53-.61,2.11.53,2Z"/><path class="cls-3" d="M137.48,269.24c-.72.14-.8.37-.24.67a2.18,2.18,0,0,1,.89,1.8,19.16,19.16,0,0,1,.83,4.76,47.38,47.38,0,0,1-.21,10.17c-.73,6.63-2.37,13.19-2.5,19.89l7.71-1A61.81,61.81,0,0,1,142,289.79c-.07-4.16-.47-12.48,3.06-15.46l-5.76-2.39A132.32,132.32,0,0,1,134,317l6.22-.81c-5.34-6.92-11.06-23.78-3.15-31.14q1.54-2.24,4.48-1.16a29,29,0,0,1-.46,3.94c-.27,1.71-.57,3.42-.93,5.11a69.8,69.8,0,0,1-4.81,14l6,.79a50.12,50.12,0,0,1-1.6-9.26c-.27-3.34-5.1-3.41-5.25,0a61.24,61.24,0,0,0,.4,10.13c.33,2.81,4.61,5,6.12,1.66,1.93-4.25,11.86-34.93-1.09-31.74-5.2,1.27-7.71,7.85-8.25,12.52-1.05,9,1.47,18,2.2,26.89.3,3.74,5.52,4.73,6.69.9a132.46,132.46,0,0,0,5.5-46.83,3.43,3.43,0,0,0-5.77-2.39c-4.24,3.53-4.72,10.72-5.09,15.86-.5,7.11,1,14,1,21.12,0,5.13,7.38,4.94,7.85,0,1.13-12,5.47-26.23.66-37.95-1.36-3.32-4.84-6.6-8.67-5a4.76,4.76,0,0,0-1.87,7c1.06,1.57,4,.63,3.26-1.37Z"/><path class="cls-3" d="M137.21,283.42c1.38,8.64-1.58,19.11-5.18,27l5,.65c-.34-2.27-.46-4.51-.93-6.76-.43-2-3.35-1.8-3.92,0a17.8,17.8,0,0,0-.49,7.48c.28,2.79,4.73,4,5.34.72,1.87-10,5.74-19.83,4-30.1-.42-2.5-4.19-1.43-3.79,1.05Z"/><path class="cls-3" d="M137.74,280.17a27.32,27.32,0,0,1,7.06-12.24l-4.86-1.28c.38,1.09,2.46,7.11,1.44,7.77-.64.41-4.75-2.72-5.37-3.07-1.06-.59-7-3.11-6.15-4.09,1.15-1.37,5.27-.61,6.23.53l1.22-4.59a49.41,49.41,0,0,0-9.51,2.69c-3.75,1.27-7.43,1.24-11.37,1.21-2.85,0-2.76,4.13,0,4.37,6.95.62,14.17-.45,21-1.65L135,265.69a23.74,23.74,0,0,1-9,6.48l2.54,4.36a43.16,43.16,0,0,1,13.58-8.28q1.56-.57,3.15-1A14.62,14.62,0,0,0,148,266c.4-.83.3-.85-.3-.05-.34.39-.71.76-1.09,1.12a33.77,33.77,0,0,1-3.52,3l4.08,5.3a55.72,55.72,0,0,1,9.34-8.29l-4.86-2.79c.15,2.53-4,6.55-5.35,8.49-1.92,2.71-3.84,5.42-5.79,8.1-2.26,3.1,2.05,6.75,5,5,7.17-4.13,10.06-14.28,17.9-17l-3.8-5A49.91,49.91,0,0,1,148,278.22l5,5q9.26-9.13,18.31-18.46l-5.81-3.38c-2.46,6.51-9.52,9.6-11.37,16.68-.95,3.62,3.8,6.72,6.5,3.78,5.12-5.58,9.49-11.95,14.79-17.33l-4-.51c0,.08-9,10.2-9.77,11.22l5.6,4.32a108.37,108.37,0,0,1,12.57-15.45L175,260.34c-2.78,6.23-6.49,12.12-8.7,18.6l7.1,1c.66-7.4,1.41-14.88,5-21.51l-3.7.47c5.5,6.95-2.76,16.07-8.29,20-.79.57-3,2.42-4,1.74-.8-.56,2.88-5.4,3.15-5.7a24.81,24.81,0,0,1,8.23-6l-3.09-3.09A27.48,27.48,0,0,1,160,278.67l5.17,5.16c1.94-3.54,3.89-6.46,7.24-8.84l-5-3.81c-2,4.87-5.54,9-9.34,12.53-3.62,3.4,2.09,9.09,5.44,5.44a65.4,65.4,0,0,0,10.08-15.37c1.45-2.89-1.57-6.46-4.62-4.62A25.57,25.57,0,0,0,158.65,280a3.8,3.8,0,0,0,5.93,4.58,30.85,30.85,0,0,0,10.28-17,2.28,2.28,0,0,0-3.31-2.55c-5.61,2.92-11.92,8.57-14.14,14.73-2,5.47,2.72,7.84,7.4,6.08,10.82-4.06,22.85-19.73,13.24-30.31a2.39,2.39,0,0,0-3.7.48c-4.54,7-6.43,14.81-8,22.93-.74,3.73,4.86,6.77,6.6,2.78,2.65-6,4.31-12.42,7.44-18.26a3.1,3.1,0,0,0-4.85-3.75,69.17,69.17,0,0,0-14.36,16.22c-2.44,4,3.54,7.27,6.16,3.6,3-4.19,11.45-12.43,8.54-18.09a2.54,2.54,0,0,0-4-.51c-5.16,5.49-11.35,10.09-16.72,15.4l6.5,3.78c1.25-6.56,8.07-10.71,10.57-16.9,1.36-3.37-3.51-5.62-5.8-3.37q-9.28,9.11-18.39,18.38c-3.2,3.28,1.61,8,5,5a55.42,55.42,0,0,0,12.44-15.82c1.26-2.4-.87-6-3.81-5-8.89,3.22-12.3,12.16-19.82,17.14l5,5c2.42-3.8,4.91-7.57,7.38-11.34,1.83-2.79,4.21-5.45,3.87-9-.22-2.29-2.62-4.23-4.86-2.79a45.79,45.79,0,0,0-10.85,9.1,3.38,3.38,0,0,0,4.77,4.77c2.62-2.26,7.24-6,7.73-9.7.39-3-1.95-4.93-4.78-5.15-4.06-.31-8.76,1.88-12.37,3.55a49.2,49.2,0,0,0-12.81,8.76c-2.34,2.17.63,5.21,3.16,4.1a28.83,28.83,0,0,0,10.44-7.75,2.5,2.5,0,0,0-2.41-4.13c-6.57,1.26-13.06,1.45-19.69,2l.58,4.29c4.13-1.37,7.8-2.55,12.19-2.32a40.93,40.93,0,0,0,9.57-.57c2.14-.39,2.5-3.2,1.21-4.6-3.08-3.32-9-3.36-12.61-.72-5.33,3.91.59,6.72,3.28,9.49,3.08,3.17,9,11.45,14.44,8.36s2.47-12.5.17-16.62c-.84-1.5-3.39-2.06-4.57-.59a36,36,0,0,0-7.53,15.09c-.65,3,3.73,4.22,4.58,1.26Z"/><path class="cls-3" d="M145.05,280a94.54,94.54,0,0,0,5,29.3c2.64,7.71,7.69,15.72,17.13,13.22,9.08-2.4,11.76-11.68,12.89-19.89,1.4-10.14,1.48-20.1-2-29.83-1.25-3.48-7.43-4.51-8.13,0-1.5,9.66.39,20.21-2.65,29.57-.42,1.3-2.07,6.1-4.22,5.48-1.19-.34-2.25-5-2.52-6.17a21.78,21.78,0,0,1,1.83-15.19l-6.46-.84a71.64,71.64,0,0,1,.92,24.82h7.71a79.62,79.62,0,0,1-.59-11.75,21.33,21.33,0,0,1,1-5.47c.75-2.2,2-3,2.92-5l-.79-1a23.68,23.68,0,0,1,.06,2.92,19.77,19.77,0,0,1-.87,4.82,20.25,20.25,0,0,1-5.08,8.28l5.89.76c-1.08-2.3-2-7.06-1.23-9.54,1-3.18,4.6-5.63,7.25-7.39l-3.53-.45c3.61,3.79-3,13.05-5,16.37l6.86,1.86c.24-9,2-16,8.18-22.84l-4.73-2c-.48,3.62-3,7.41-4.62,10.68q-2.16,4.47-4.33,8.93l5.25,2.22a169.45,169.45,0,0,1,6.54-20.21c2.92-7,5.74-14.06,8.83-21l-4.17-1.13a193.69,193.69,0,0,1-1,37.22l5.4-1.46a22.8,22.8,0,0,1-3.35-21l-5.6-.76A125.9,125.9,0,0,1,176.43,297l5.65-.74c-3.46-4.85-6.33-10.7-4.21-16.71l-4-1.1c-1.59,7.81-2.87,16.34,1.86,23.38,1.63,2.42,4.25,5.26,7.49,4.5s5.86-5,7.23-7.81c3.74-7.69,4.68-16.89,5.47-25.3a102.57,102.57,0,0,0-1.49-29.88c-.75-3.81-7-3-6.8.92a149.29,149.29,0,0,1-.44,17.31c-.29,4.68.7,12.21-2.16,16l6.55.86c-1.58-4.28-3.57-7.91-3.7-12.57-.12-4.13.75-8.2.9-12.33.1-2.95-4.43-2.93-4.58,0-.19,4-.62,7.86-1.2,11.78l5.31.72c-.49-9.55,4.35-18.3,7.08-27.26l-6-.8A33.93,33.93,0,0,1,186,254.78c-1.66,3.38,3.36,6.35,5.07,3A40.13,40.13,0,0,0,195.52,238a3.05,3.05,0,0,0-6-.81c-1.67,5.24-2.79,10.4-4.12,15.7-1.12,4.45-2.42,8.54-2.51,13.17,0,3,4.71,3.76,5.32.72a42.83,42.83,0,0,0,.56-13.22h-4.58a63.36,63.36,0,0,1,.05,15c-.48,4.53-1.05,8.43.78,12.7,1.15,2.68,4.85,2,6.19,0,2.9-4.25,2.17-9.94,2.27-14.84.14-7,0-14.2.94-21.2l-6.8-.92a208.88,208.88,0,0,1-.17,29,110.1,110.1,0,0,1-2.1,14.24c-.77,3.49-1.86,9.43-5.32,11.33l3.18-.41c-6.38-2.68-5.51-14-5.3-19.38.09-2.28-3.63-2.86-4.05-.55-1.32,7.39-1.87,14.58,2.85,20.94,1.35,1.81,5.25,2.21,5.65-.74a133.22,133.22,0,0,0,1.1-25,2.87,2.87,0,0,0-5.6-.76,28.17,28.17,0,0,0,3.85,25.48,2.93,2.93,0,0,0,5.4-1.46,132.68,132.68,0,0,0-.41-37.81c-.38-2.35-3.68-1.9-4.32,0a295.06,295.06,0,0,1-16.53,40.69c-1.69,3.31,3.38,6.23,5,2.9,3.32-7,8.57-14.75,9.54-22.51.3-2.4-3.23-3.64-4.74-2-6.4,7.13-11.42,17-11.62,26.76-.08,3.6,5.12,5.07,6.86,1.85,3.71-6.84,10.18-18.58,2.22-24.66a2.94,2.94,0,0,0-3.53.46,48.78,48.78,0,0,0-9.1,12.23c-2.56,4.5-2.17,8.53.13,13.06a3.77,3.77,0,0,0,5.89.76,27.59,27.59,0,0,0,7.4-15.5c.46-3.82,1-10.83-3.78-12.21-4.9-1.42-9.09,4.5-11,8.24-3.29,6.6-3.13,14.19-2.36,21.32a3.86,3.86,0,0,0,7.71,0,77.17,77.17,0,0,0-1.82-26.7c-.68-2.82-5.12-3.6-6.46-.84a32.62,32.62,0,0,0-3,20.75c1.1,5.53,4.29,14,11.32,13.08,6.73-.9,10.13-9.53,11.24-15.28,1.7-8.76-.36-17.87,2.25-26.44h-8.13a69.67,69.67,0,0,1,1,19.87c-.39,4.61-.68,15.32-5.61,17.76-7.29,3.62-12.89-28.47-13.66-33.56-.57-3.77-6.63-2.81-6.57.89Z"/><path class="cls-3" d="M199.6,233.49c2.89,1.32,5.77,2.41,8.24,4.48,1.73,1.44,2.93,3.49,4.75,4.78,4.51,3.18,9.24-.87,10.93-5.1,3.36-8.42,1.73-24.55-10.24-24-4.36.19-6.1,5-3.41,8.22.78.92,3.08,4.26,2.25,5.62l2.84-2.19c1.16-.35-1.49-2.08-.79-3.1l-7.88-3.32c-.71,3-2.3,5.5-5.25,6.73l3.46,8.2a18.43,18.43,0,0,0,6.05-7.14c1.47-3.18,1.81-6.3,4.64-8.64,3.33-2.76-.44-6.9-3.74-6.42-7.83,1.12-7.06,11-12.39,15.15-4.35,3.37,1.2,8.94,5.44,7.05a17.64,17.64,0,0,0,10.11-12.64c.79-3.81-4.27-7.81-7.21-4.2-2.66,3.26-3.32,7-1.32,10.85,1.64,3.16,5.29,7,9.12,7.12s6.18-3.16,6.44-6.69c.37-5-1.66-9.51-4.95-13.19l-3.41,8.23c3.23-.24,3.52,11.74,1.28,12.23l3.29.43c-2.83-1.35-4.87-4.27-7.8-5.7a20.75,20.75,0,0,0-8.94-2.34c-2.8,0-4.31,4.31-1.51,5.59Z"/><path class="cls-3" d="M225.23,208.51c-2.5,4.26,2.57,8.66,6.63,8.59a3.1,3.1,0,0,0,2.61-4.92,12.22,12.22,0,0,0-2.38-2.33c-1-.89-2-1.79-3.05-2.67a2.28,2.28,0,0,0-3.14,0,2.23,2.23,0,0,0,0,3.14c.9.77,1.82,1.51,2.74,2.26l1.17,1,.79.65c.27.35.35.36.23,0l.29-1.07-.17.29.77-.78c.28-.18.53.07,0-.13-.23-.1-.49-.14-.73-.22a3.64,3.64,0,0,1-1.25-.61,2.82,2.82,0,0,1-.93-2.24,1.94,1.94,0,0,0-3.59-1Z"/><path class="cls-3" d="M230.6,222.34l.08.3a2.81,2.81,0,0,0,2.7,2.06,2.85,2.85,0,0,0,2.71-2.06l.07-.3a2.88,2.88,0,1,0-5.56,0Z"/><path class="cls-3" d="M55.54,237.18c-1.89,1.59-3.1,3.22-3.09,5.78,0,2.31,1.28,4.34,3.86,4a4.81,4.81,0,0,0,4.08-3.88,8.24,8.24,0,0,0-.45-3.93c-.12-.4-1-2.49-.46-2.86l-3.4-3.39c-1.9,2.51-3.52,5.58-2.91,8.84a6.92,6.92,0,0,0,5.4,5.76,2.54,2.54,0,0,0,3.16-2.41l.12-2.94c.14-3.25-5-3.27-5.06,0l-.06,2.94,3.17-2.41c-4-.59-.73-5.67.47-7.28,1.47-2-1.42-4.77-3.4-3.39a5.79,5.79,0,0,0-2.24,6.41c.16.68.44,1.32.66,2a10.72,10.72,0,0,1,.46,1.49l-.09.62c1.23,1.8.89-.39.89-.95a7.07,7.07,0,0,1,.47-3.19,1,1,0,0,0-1.58-1.22Z"/><path class="cls-3" d="M68.86,245.27a1.47,1.47,0,0,1,.35.57c0,.4.05.51.05.34s0-.07,0,.15c-.08.62.07-.42.06-.46s0-.07,0,.16a1.19,1.19,0,0,1-.18.57,1.69,1.69,0,0,1-2.14.65,1.42,1.42,0,0,1-.54-.67.8.8,0,0,1-.09-.36c0-.23,0-.26,0-.08L69.1,244c.9.38.5.25.19,0a4.54,4.54,0,0,0-.68-.55,1.65,1.65,0,0,0-2.46,1.41,5.4,5.4,0,0,0,.11.9l0,.28c.06.38.07.24,0-.43a2.24,2.24,0,0,0,4.32,1.19,3.13,3.13,0,0,0-4.54-3.45,3,3,0,0,0-1.35,3.24,2.94,2.94,0,0,0,2.16,2,2,2,0,0,0,2.23-.9,2.07,2.07,0,0,0-.31-2.4Z"/><path class="cls-3" d="M65.8,229.23c-.22-.74-.33-1.59-1.08-2a1.26,1.26,0,0,0-1.83.74,1.62,1.62,0,0,0,.23,1.34c.18.27.39.52.58.77a1.17,1.17,0,0,0,1.44.47,1.13,1.13,0,0,0,.66-1.35Z"/><path class="cls-3" d="M79.21,243.82l-.5.14A2.36,2.36,0,0,0,77,246.15c-.46,6.18.22,13.17-1.82,19.06a41.14,41.14,0,0,0-2.7,15.86c.07,1.62,1.42,3.4,3.22,3.23,8.91-.84,11.59-8.65,12.62-16.43.32-2.42-3-4.06-4.86-2.79a18.23,18.23,0,0,0-7.93,11.4c-.72,3.17,4,5.53,5.51,2.32,2.9-6,5.08-12.47,5.06-19.19a2.69,2.69,0,0,0-4-2.29,3.37,3.37,0,0,0-1.85,1.91,2.24,2.24,0,0,0,.34,2.57l.31.37a1.53,1.53,0,0,0,1.84.24c.55-.28.55-.36,0-.25l-1.85-3.26c-1.14,5.92-2.32,11.43-5.06,16.86l5.5,2.32a11.17,11.17,0,0,1,5.38-7.42l-4.87-2.79c-.49,3.74-1.37,9.46-6.15,10L79,281.07c-.4-6.47,2.06-11.41,3.08-17.55.92-5.58,0-11.77-.46-17.37A2.35,2.35,0,0,0,79.91,244a1.58,1.58,0,0,0-.7-.14Z"/><path class="cls-3" d="M77.18,258.92a74.21,74.21,0,0,1-.13-10.86c.25-4,1.53-7.83,2.08-11.82.17-1.18-1.31-2.54-2.31-1.34-5.69,6.84-5.06,17.09-.91,24.37.32.55,1.33.35,1.27-.35Z"/><path class="cls-3" d="M74,252.9c-1.27,5.3.83,23.57,10.28,17.9a1.42,1.42,0,0,0-.33-2.57C77.12,266.79,78.63,258,77,252.9a1.61,1.61,0,0,0-3.08,0Z"/><path class="cls-3" d="M199.77,252.19a40.28,40.28,0,0,0,1,21.55c1.62,4.46,5.78,9.79,11.23,8,5.61-1.83,4.72-8.76,2.86-13.05a15.11,15.11,0,0,0-4.86-5.89c-3.7-3-3.54-7.77-4.26-12.27L201.22,254c2,1.12,3,7.41,3.15,9.37.2,2.71-.43,5.42,0,8.12a9.71,9.71,0,0,0,6.14,7.84c3,1.24,5.21-3.24,3.07-5.27a16.53,16.53,0,0,1-5.33-10.76c-.2-2.49.51-4.8-1.37-6.73a1.3,1.3,0,0,0-1.28-.34c-3.66,1.42-3.34,5.94-2.87,9.29a23.84,23.84,0,0,0,6.39,13L213,273.6c-4.16-2-2-10.5-3-14.59-.88-3.5-2.3-8.46-5.62-10.31-2.52-1.4-5,.9-4.53,3.48.64,3.8.57,9.25,2.87,12.5s6.92,3.66,7.3,8.25c.34,4.09-1.6,2.59-2.93,0a23.23,23.23,0,0,1-1.87-8.13c-.42-4.19-.28-8.41-1-12.57-.38-2.28-3.91-2.09-4.42,0Z"/><path class="cls-3" d="M196.91,288.14c-.25,3.64.62,7.46,1.08,11.07a2.83,2.83,0,0,0,2.75,2.75c3.9.09,6.87-3.19,7.27-6.94.47-4.33-2.52-7.86-5.67-10.4-1.67-1.35-4.55-.61-4.5,1.86q.14,6.69.25,13.39l5-.68c-1.16-3.38-1.08-6.77-1.05-10.29a1.21,1.21,0,0,0-2-.85c-3.07,3.52-3.24,8.21-1.82,12.5.88,2.64,5,2.29,5-.68,0-4.46-.05-8.93-.07-13.39l-4.5,1.86c1.5,1.25,3.17,2.65,3.82,4.56.46,1.37.11,3.53-1.69,3.55l2.65,2c-.57-3.59-.81-7.5-2.07-10.92a2.26,2.26,0,0,0-4.41.59Z"/><path class="cls-3" d="M62.09,262.86C57.36,268.77,45.38,286,57,291.5s9.26-22.32,9.36-27.18l-6.13.83c1.37,5.29,1.74,14.07-4.09,16.91l4.48,2.57v-7.8c0-2.06-.75-5.9,0-7.8q.26-2.22.34,1.47,0,1.58,0,3.15a12.15,12.15,0,0,1-2,6.73c-1.69,2.44-4.12,4.32-3.33,7.66a4.94,4.94,0,0,0,4.92,4c2.46.15,3.33-3.45,1.25-4.59.3.17,4-5.93,4.2-6.45a20.77,20.77,0,0,0,1.3-7.32c.1-4.1-.06-9.7-4.41-11.68-11.35-5.18-8.25,17.95-8.24,22.66a3,3,0,0,0,4.49,2.58c8.38-4.11,9-15.78,7.1-23.72-.86-3.46-6.06-2.64-6.13.83,0,2-.45,21.34-1.41,21-2.7-.95,5.53-18.17,6.21-20.84.39-1.49-1.68-3-2.78-1.62Z"/><path class="cls-3" d="M86.85,307c-.22-.54-.18.2-.11-.07s0,.17-.14.23l-3.53-.92c.52,1,.08.67.67,0s3-.5,2.55,1a4.15,4.15,0,0,0,0-.86c0-.29,0-.57,0-.86,0-.07.1-.79,0-.46,0-.22.11-.43.15-.65s.08-.48.1-.72c0,.14,0,.14,0,0,.11-.66.3-1.18-.16-1.77a1.78,1.78,0,0,0-1.56-.64,3.82,3.82,0,0,0-3.28,2.76c-1,2.64-.78,7.24,3,7.25a4.17,4.17,0,0,0,3.88-2.79,6,6,0,0,0-.93-4.87,2.61,2.61,0,0,0-3.53-.92A4.75,4.75,0,0,0,82.27,309c1.17,2.54,5.65.71,4.58-1.94Z"/><path class="cls-3" d="M130.44,318.64l-1.71-6.38c-1-3.71-5.89-2.54-6.27.85a91.21,91.21,0,0,0,19.31,67,4,4,0,0,0,5.69,0c15.34-19.54,14.83-44.88,13.32-68.47-.27-4.19-7.12-5.78-7.85-1.06l-9.8,63.16h7.67a146.44,146.44,0,0,1-10-57.82l-7.76,1.05a119.33,119.33,0,0,1-2,46.26l7.2-.94a70.54,70.54,0,0,1-7.21-47.34l-6.55,1.73a30.68,30.68,0,0,1,5.91,32.46H138a42.8,42.8,0,0,1,8.14-38.46l-6.62-2.74a130.1,130.1,0,0,1-3.34,50h7.68A82.61,82.61,0,0,1,146,312l-7.35-1a123.45,123.45,0,0,1-3.5,37.81l7.66,1a76.53,76.53,0,0,1,9.9-38.56l-7-1.9c0,14.19-1.72,28.22-3.9,42.22l7.57,1a327.05,327.05,0,0,1-.84-42.23h-7c.89,14.94-.5,29.17-3.25,43.85h6.81a167.28,167.28,0,0,0-16.84-33.32,2.64,2.64,0,0,0-4.87,1.32,447.92,447.92,0,0,0-2.05,55.55c.11,4.38,6.2,4.18,6.67,0A88.14,88.14,0,0,0,123.25,338c-1.47-4.06-6.64-3.06-7.18,1A253.27,253.27,0,0,0,128.19,456c1.3,3.72,7,4.25,8.1,0,8.74-34.56,2.22-69.59-4.43-103.87-.91-4.72-7.91-3.37-8.09,1.1-1,25.18-1.75,51.06,7.35,75l6.75-3.93a56.92,56.92,0,0,1-13.56-47.43c.93-5.26-6.64-7.57-8.14-2.24-3.87,13.84-.91,27.6,3.19,41,4.19,13.7,9.82,28.12,7.2,42.68h8.57q-4.2-26.69-8.43-53.37c-.7-4.47-7.36-3.87-8.46,0a110.29,110.29,0,0,0,8.54,81.23c1.81,3.44,7.35,2.62,8.27-1.08a136.45,136.45,0,0,0,2.54-52.29c-.62-4.38-8-4.29-8.75,0A356.58,356.58,0,0,0,124,484.63l8.86-1.2c-5.16-15.21-7.26-31.1-9.42-46.95l-6.78-49.77c-2.24-16.42-5.38-33-6.09-49.56-.64-14.73,1.33-32,12.72-42.68,3-2.83-1.53-7.38-4.55-4.55-25.53,23.88-15.83,60.82-11.71,91.34L114.17,434c2.36,17.46,4.35,35.08,10,51.85,1.6,4.74,8.75,4,8.85-1.2a340.42,340.42,0,0,1,4.54-49.37h-8.75a126.7,126.7,0,0,1-2.52,47.47l8.28-1.08a100.28,100.28,0,0,1-7.9-74.33h-8.46q4.17,26.7,8.32,53.41c.67,4.29,7.81,4.19,8.57,0,2.59-14.26-1.09-28-5.29-41.54s-9.38-28.06-5.53-42.28l-8.14-2.24a66.3,66.3,0,0,0,16,55.38c2.6,2.92,8.18-.14,6.75-3.93-8.81-23.33-7.94-48.35-6.9-72.86l-8.09,1.09c6.24,32.54,12.42,66.7,4.27,99.45h8.1a256,256,0,0,1-12.91-114.88l-7.18,1a83.55,83.55,0,0,1,5.12,37.87H128a507.09,507.09,0,0,1,.61-55.55l-4.87,1.32a102.4,102.4,0,0,1,14.54,32.56c.89,3.41,5.87,3.31,6.81,0,4.17-14.65,5-30.62,3.43-45.73-.47-4.37-7-4.59-7,0-.09,14.07-.29,28.17.12,42.23.12,4.18,6.67,5.45,7.57,1,3-14.58,3.85-29.42,4-44.27,0-3.74-5.14-5.11-7-1.9A81.77,81.77,0,0,0,135,349.82c.06,4.31,6.6,5.41,7.66,1A130.64,130.64,0,0,0,146.11,311a3.76,3.76,0,0,0-7.35-1,90.48,90.48,0,0,0-2.6,50.06c.91,3.84,6.7,3.73,7.68,0a138.12,138.12,0,0,0,3.42-52.12c-.36-2.91-4.22-5.64-6.62-2.74a51,51,0,0,0-10.19,46c1.08,4,6.2,3.38,7.53,0a38.37,38.37,0,0,0-7.9-40.09c-1.93-2.06-6-1.15-6.55,1.73a79.22,79.22,0,0,0,8,53.41,4,4,0,0,0,7.2-.94,129.55,129.55,0,0,0,2-50.46c-.7-4.55-7.63-3.23-7.77,1.05a152.62,152.62,0,0,0,10.2,59.94c1.24,3.19,7,4.31,7.67,0l9.84-63.15-7.86-1.07c1.33,21,2.77,45.26-11,62.78h5.69a88.93,88.93,0,0,1-18.62-61.28l-6.27.85,2,6.31c1.17,3.75,6.93,2.2,5.91-1.63Z"/><path class="cls-3" d="M130.14,405.34a304.77,304.77,0,0,0,4.71-33c1.11-11.51,2.43-23.05,2.64-34.62a112.73,112.73,0,0,0-3.63-31.83c-1.38-5.09-3-10.12-4.1-15.28-1.17-5.49-1.28-11.13-2.54-16.58a2.18,2.18,0,0,0-3.94-.51c-5.3,8.28-1.6,19.62.88,28.26,3.25,11.31,5.31,22.23,5.26,34.05-.1,23-3.73,45.95-2.72,69,.08,1.88,3,2.48,3.44.46Z"/><path class="cls-3" d="M168.31,329.66a35.63,35.63,0,0,1-.62-24.16l-8.29-1.12q-.63,60.71,3.78,121.27a4.83,4.83,0,0,0,8.13,3.37c17.6-15.53,16.26-40.27,13.94-61.49-2.81-25.76-1.79-51.82-1.77-77.68,0-6.45-9.34-6.25-9.88,0C170.16,330.2,167,370.8,169,411.31l9.2-1.24a548.65,548.65,0,0,1-7.43-70.26c-.69-17.15-2.7-38.54,12.07-50.66,3.84-3.15-1.15-9.54-5.3-6.87-17.25,11.08-16.8,34.53-16.17,52.67a604.69,604.69,0,0,0,7.79,77.61c.87,5.21,9.46,4,9.21-1.25-1.91-40.62,1.67-81,5.12-121.46H173.6c0,23.93-1.17,48.21,1.18,72.06,2,20.11,6.86,45.12-10.21,60.37l8.14,3.37q-4.74-60.51-4.87-121.27c0-4.77-7-5.71-8.29-1.12a37.89,37.89,0,0,0,2.93,28.85c1.63,3.16,7.15.95,5.83-2.45Z"/><path class="cls-3" d="M195.26,358.84c-3.16-10.66-4.24-21.45-1.9-32.4l-7.41,1c5.68,8,7.33,17.95,3.29,27h7.06a23.86,23.86,0,0,1-1.9-26.67h-7c3.53,6.68,5,14.79,2.84,22.17a7.81,7.81,0,0,1-.74,2.13c1.26.54,1.39.21.41-1-.2-1.58-1.75-3.42-2.36-4.85a57.12,57.12,0,0,1-3.38-11.53c-2.66-13.94.66-30.21,13.37-38.28l-5.3-2.15a33.37,33.37,0,0,1-8.46,31.9l6.84,2.83a130,130,0,0,1,9.61-40.64h-8.11a33.61,33.61,0,0,1-7.72,28.06l7.09,1.87a80.61,80.61,0,0,1,1.32-35.3,16.4,16.4,0,0,0,1-3.46c.7-1.13.67-1.36-.08-.68-.67.21-.72.55-.14,1,.14,2,2.16,4.54,2.63,6.73a23.21,23.21,0,0,1-2.43,15.92h7c-10-18.43-8.32-42,5.6-58l-5.47-.71a12.42,12.42,0,0,1,2.18,11.86h7A78.22,78.22,0,0,1,208,230.56h-6.77a42,42,0,0,1-6.35,24.17l6.67,1.81c.1-6.37-.06-12.76-.11-19.13,0-4.68-7.11-4.66-7.25,0-.48,16.19-1.87,31.83-10.83,45.8-2,3.12,2.72,6.88,5.21,4,11.77-13.56,12.36-32.73,12.87-49.81h-7.25c0,6.37,0,12.76.2,19.13.11,3.44,4.89,5,6.67,1.8A54.82,54.82,0,0,0,208,230.56c-.07-4.44-6.35-4.27-6.77,0a78.72,78.72,0,0,0,1.93,27c.89,3.52,6,3.37,7,0A19.08,19.08,0,0,0,207,240.28c-1.23-1.6-3.86-2.61-5.46-.7-15.53,18.47-19.26,45.56-7.72,67.06a4.11,4.11,0,0,0,7,0A31.85,31.85,0,0,0,204,283.69c-1.31-5.39-5.61-15.67-13-12.82-6.72,2.6-7.54,14.55-8.38,20.51a92.11,92.11,0,0,0,.67,29.17c.55,3.07,5.09,4.16,7.09,1.87a42.49,42.49,0,0,0,9.83-36.3c-.85-4.56-6.72-3.37-8.11,0A127.58,127.58,0,0,0,182.58,329c-.16,3.44,4.51,5.32,6.84,2.83a41.21,41.21,0,0,0,9.74-39.48,3.63,3.63,0,0,0-5.29-2.15c-8.38,5.56-13.53,14.2-15.32,24.05-2.07,11.42.69,22.33,3.39,33.35,1,4,1.34,10,5.81,11.74,3.82,1.51,7.29-1.12,9-4.41,4.94-9.32,2.2-22.42-2.38-31.25-1.43-2.76-5.53-2.52-7,0a31.52,31.52,0,0,0,2.51,35.73c1.5,1.94,5.45,1.42,6.42-.83,5-11.56,4.16-24.93-3.35-35.26-1.86-2.56-6.65-2.77-7.41,1-2.55,12.56-1.58,25.34,4,37,1.54,3.25,6.77,1,5.76-2.43Z"/><path class="cls-3" d="M99.78,284.59a39.08,39.08,0,0,1-6.88-7c-1.57-2-4.67-2.53-6.14,0a45.18,45.18,0,0,0-.44,44.51c1.07,1.94,4.08,2.9,6,1.57a33.13,33.13,0,0,0,13.78-33.34c-.63-3.69-6.51-4.38-8.11-1.06a128.48,128.48,0,0,0-9.8,28h8.51a106.52,106.52,0,0,1-1.78-29.76H86.12a29.92,29.92,0,0,1-3.84,17.61l8,1a69.34,69.34,0,0,1-5-33.95c.46-4.36-5.44-4.9-7.49-2-1.9,2.67-4.65,5.39-6.07,8.32L70.57,280c1.18.57,1.5.46,1-.34-.06-1.47-.7-3.11-.8-4.66a37.46,37.46,0,0,1,4.06-19.33l-8.2-2.23,0-.25L72,256.27a16.65,16.65,0,0,1,5.45-18.46l-7-1.85a69.8,69.8,0,0,1-6.76,46.6l7.09,1.92A36,36,0,0,1,77,263.9l-7.27-2c2,35.1,2.8,70.34,5.62,105.38.44,5.38,7.81,6.7,9.55,1.29,7.29-22.76,5.88-46.53,3.92-70l-9.1,1.23a202.15,202.15,0,0,1,4.63,36c.21,5.64.2,11.28-.09,16.92-.16,3.11-.32,6.27-.7,9.37a15.1,15.1,0,0,1-.55,3.13A4.62,4.62,0,0,1,82.1,367c-.57.65-.43.69.42.11l3.34,3.35c-2.21-15.48-.9-31.26.59-46.75.88-9.15,2.56-23,12.5-26.82l-5.69-4.34c-1.17,33.85-2.42,67.74-7.91,101.21l8.89,1.2c-1.26-20.32,0-40.39,1.46-60.66.3-4.16-6.46-5.1-7.31-1-4.17,20.19-4.56,41.13-3.2,61.65.31,4.75,8,6.56,8.89,1.21,5.48-34.27,6.87-69,8.18-103.62.1-2.79-3-5.28-5.7-4.34-13,4.52-17.32,17.84-19,30.33-2.45,17.93-3.71,36.54-.91,54.47A4.67,4.67,0,0,0,80,376.39c15.15,3.92,13.61-21.91,13.72-30.22a215.94,215.94,0,0,0-5.07-48.81c-1.09-5-9.53-4-9.1,1.24,1.84,22.48,3.78,45.79-4,67.42L85,367.31c-1.55-35.16-5.15-70.26-7.53-105.38a3.94,3.94,0,0,0-7.28-2,45.09,45.09,0,0,0-7.1,24.52c0,3.73,5.24,5.22,7.08,1.91a78.31,78.31,0,0,0,8.29-52.66c-.63-3.44-4.8-3.62-7-1.86a24.66,24.66,0,0,0-8,26.74,4.47,4.47,0,0,0,5.4,3.06c4.06-1.08,6.22-4.11,6.51-8.22.3-4.31-6.27-6-8.2-2.22a46.74,46.74,0,0,0-4.9,16.36c-.52,5.05-.75,11.83,1.92,16.39,2.07,3.53,6,5.6,9.91,3.51,4.53-2.45,7.58-9.21,10.58-13.25l-7.49-2a72.24,72.24,0,0,0,4.61,36.27c1.33,3.28,5.94,4.57,8,1a38.13,38.13,0,0,0,5.1-22,4.39,4.39,0,0,0-8.77,0,114.16,114.16,0,0,0,2,32.1c.86,4.27,7.58,4.17,8.51,0a119.19,119.19,0,0,1,9-25.83l-8.11-1.06a25,25,0,0,1-9.62,23.45l6,1.56a38,38,0,0,1-.95-36.52l-5.59.72a35.87,35.87,0,0,0,8.87,7.31c2.81,1.69,6.31-2.54,3.6-4.66Z"/><path class="cls-3" d="M119,424.55c.19,11.89-.41,23.74.15,35.65s1.43,23.79,2.22,35.66c.77,11.56,1.62,23.11,2.44,34.66.61,8.67.21,19.1,7.41,25.28,2.45,2.09,6.55,1.47,7.43-2,6.85-26.54-1.88-54.71-4.16-81.35-1.23-14.41-1.81-28.86-2.07-43.31s0-29.06-1.91-43.42c-.34-2.56-4.64-3.89-5.09-.69-3.91,27.6-2.12,56.77.06,84.47,1.06,13.58,3,27,4.91,40.46,2,13.8,3.27,27.83-.31,41.48l7.43-2c-3.18-2.75-3.8-6.63-4.16-10.65-.48-5.41-.73-10.84-1.08-16.26-.73-10.89-1.41-21.79-2.22-32.68-.78-10.56-1.35-21.16-2.42-31.7-1.15-11.3-3.15-22.43-4.5-33.67-.31-2.56-4.17-2.73-4.13,0Z"/><path class="cls-3" d="M146.43,486.27c.62-4,1.49-7.76,2.41-11.72l-5.77-.78a192.76,192.76,0,0,1,1.14,21.75l5.86-2.43a21,21,0,0,1-3.32-19.79h-6.67a44.59,44.59,0,0,1,2.89,21l6.41-1.73a17.22,17.22,0,0,1-.12-20.86H144a23.81,23.81,0,0,1,1.91,15.38,15.37,15.37,0,0,1-.86,3.05c-.64,1.47-.93,2.28-2.09,1.92-1.61-.51-3.43-4.81-4.2-6.34a30.35,30.35,0,0,1-2.36-6.4,11.39,11.39,0,0,1-.64-3.57c.23-1.93,1.8-2.8,2.69-4.25a20.14,20.14,0,0,0,3.09-10.05c.47-9.58-1.87-19.5-2.29-29.11-.48-11.29.32-22.43.52-33.7.07-4.58-6.42-4.31-6.94,0-1.81,14.81-.78,30.44.77,45.23.65,6.24,2.52,13.36,1.34,19.63-.68,3.6-3.13,4.95-4.72,7.89a10.58,10.58,0,0,0-.68,6.64c.9,6.05,7.48,25.21,16.61,20.93,4.49-2.1,5.74-9.08,6.17-13.39a33.3,33.3,0,0,0-3-17c-1-2.35-4.09-1.6-5.31,0a23.47,23.47,0,0,0-.51,27.44,3.47,3.47,0,0,0,6.41-1.74,49.55,49.55,0,0,0-3.1-22.87c-1.21-3.15-5.55-3.41-6.67,0a27.43,27.43,0,0,0,5.13,26.47c2,2.39,5.86.35,5.87-2.42A97.41,97.41,0,0,0,148.84,473c-.86-3.67-6.56-2.12-5.66,1.56,1,4,1.87,7.69,2.53,11.72a.37.37,0,0,0,.72,0Z"/><path class="cls-3" d="M147.62,419.78c0-2-.63-5,.43-6.75l-4.6-1.94c-.7,2.13-.34,4.37-.45,6.59a27.53,27.53,0,0,1-1.39,7.06l6.14-.81a12.57,12.57,0,0,1-1.8-5.84,11.47,11.47,0,0,1,.34-3.3l.27-.89c.51-.93.38-1-.41-.19.47,1.75,1.41,2.77.95,4.83-.41,1.83-1.58,3.2-1.67,5.13a2.18,2.18,0,0,0,2.19,2.18c8.36-.9,7-16.17-.06-18.34-4.44-1.36-6.82,2.83-7.65,6.49a18.22,18.22,0,0,0,2,13.33,3.41,3.41,0,0,0,6.15-.81c1.33-4.54,2.92-11.85,0-16a2.51,2.51,0,1,0-4,3.05c1.21,1.43,1.13,4.78,1.38,6.53.17,1.23,2.17.92,2.14-.29Z"/><path class="cls-3" d="M198.41,232.31c1.37,19.26,3.18,38.45,3.85,57.75s.51,38.63-.16,57.93l8.09-2.19c-6.31-10.46-4.39-24.64-4.47-36.34-.07-12.71-.68-25.54-.09-38.23a40.48,40.48,0,0,1,1.18-8.56c.21-.78.74-3.87,1.54-4.29.51-.27.85.51,1.34,1.53,2.29,4.71,2.86,11.07,3.59,16.23,1.62,11.59.92,23.07-5.31,33.23l7.86,2.12c-2.68-26-2.16-52.45-2.75-78.53l-6.63,1.79c5.56,8.65,6.06,19,6.39,29,.4,11.94.75,23.88,1.13,35.81.75,23.88,1.46,47.76,2.33,71.63.15,4.15,6.86,5.54,7.63,1,1.6-9.38-.81-18.12-4.1-26.86-3.85-10.22-7.17-19.82-7.74-30.84-1-20.18,5.21-41.6-1.35-61.21-.69-2.05-4-1.83-3.93.53.74,20-1.58,39.85-.86,59.78A95.37,95.37,0,0,0,211,340.5c3.18,9.59,7.26,19.34,5.43,29.63l7.63,1c-.75-25.21-1.67-50.41-2.54-75.61-.42-11.95-.69-23.91-1.27-35.86-.48-10.08-1.79-20.06-7.67-28.53-1.89-2.73-6.75-2-6.63,1.8.8,26.06,2.73,52.48,1.44,78.53-.23,4.46,5.66,5.35,7.85,2.13,8.57-12.6,8.28-28.55,5.82-43-1-6.23-1.84-14.07-6.52-18.82-4.49-4.54-10.68-3.22-13.66,2.2-3.52,6.4-3.94,14.21-4,21.34-.07,8.8.09,17.6.14,26.4s-.09,17.39.19,26.07c.25,7.85,1.37,15.52,5.48,22.35,2.26,3.76,7.94,2.08,8.09-2.19,1.37-38.63.39-78.35-5.86-116.56-.6-3.66-6.78-2.83-6.51.88Z"/><path class="cls-3" d="M60.28,291.68a23.71,23.71,0,0,1,.57-5.71c1-3.13-3.94-4.48-4.9-1.35-1.47,4.8-.85,10.36-.75,15.33q.16,8.3.9,16.57c.71,7.9.4,18.3,7.48,23.39,1.87,1.35,5.26,0,5.64-2.3a501.18,501.18,0,0,0,5.86-53.41c.21-4.07-6.2-4.95-7.12-1a177.07,177.07,0,0,0-4.48,46.06l7.17-1a227.93,227.93,0,0,1-3-47l-7.48,1c2.84,14.78-3.41,27.41-6.5,41.45-.74,3.39,4.17,5.9,5.89,2.48,6.91-13.72,10.56-30.71,8-46-.75-4.41-7.28-3.08-7.47,1a200.6,200.6,0,0,0,3.52,49c.8,4,7.45,3.14,7.17-1A136.17,136.17,0,0,1,75,285.16l-7.12-1c-1.4,17.22-3.27,34.31-6,51.37l5.64-2.29c-2.78-2-2.84-8-3.31-11q-1.05-6.76-1.68-13.59-.54-5.84-.8-11.71c-.17-4.1.24-8.42-.81-12.4L56.6,287.1A23.74,23.74,0,0,1,59.06,292c.29.63,1.19.26,1.22-.33Z"/><path class="cls-3" d="M138.92,359.72c-8.42,19,1.39,38.5,5.16,57.39,2.22,11.15,1.95,22.66,2.86,33.95a303.37,303.37,0,0,0,4.54,33.16Q153,492.16,155,500c.78,3.18,5.26,13.61,1.91,16.27-1.93,1.53-1.77,0-2-1.68-.31-2.63-.6-5.27-.91-7.9l-2.15-18.76c-2.7-23.48-6.18-47-7.75-70.61-1.56-23.4.87-48.66,17.89-66.38l-7.92-3.28q1.58,45.42-1.35,90.78-1.41,22.67-3.78,45.26c-1.37,13.23-5.14,27.56.48,40.22l7.85-6c-5.83-5.64-7-13.41-7.94-21.13-1.14-9.13-2.17-18.28-3.26-27.42-1-8.61-2.67-17.39-2.54-26.08.12-8.51,3.71-15.53,8-22.65,3.92-6.47,8.06-12.87,10.36-20.14,2.17-6.9,2.7-14.26,2.71-21.46,0-15.21-2.71-31.31,4.61-45.4,2.54-4.88-4.46-9-7.39-4.32-8.73,14-6.65,30.78-6.38,46.51.15,8.52-.15,17.22-3.42,25.21-3.17,7.77-8.5,14.46-12.31,21.9-8.62,16.86-4.19,35.32-2.2,53.28,1,9.28,1.76,18.64,3.22,27.86,1.22,7.71,3.69,15.38,9.43,20.91,4.31,4.14,10.08-1.06,7.85-6.06-2.73-6.08-1.67-13.08-.95-19.48.82-7.19,1.6-14.39,2.28-21.59q2-21.62,3.06-43.31c1.41-28.91,1.62-57.91.91-86.84-.1-3.95-5.05-6.22-7.93-3.29-16.15,16.47-21.23,39.91-21,62.31.16,13.65,2,27.22,3.59,40.75l4.71,40.5,2.19,18.76c.56,4.88,0,12.43,3.51,16.35,6,6.66,16.18,1.11,18-6.25,1.21-4.87-.38-9.9-1.61-14.59q-2.66-10.11-4.67-20.37a332.26,332.26,0,0,1-5.25-39.26c-1-13.84-2.43-26.94-6.51-40.27s-9-27-5.77-41c.49-2.12-2.74-3.77-3.72-1.56Z"/><path class="cls-3" d="M104.07,359.71c.27,28.11,3.93,56.42,6.68,84.38q2,20.6,4,41.19c1.4,14.29,2.67,28.58,1.46,42.93l9.31-1.26c-3.54-13.37-3.5-27.86-4.48-41.6q-1.52-21.11-2.65-42.23t-1.88-42.26c-.26-7.22-.43-14.43-.74-21.64-.3-6.93-.33-13.66-2.44-20.32a2.46,2.46,0,0,0-4.7,0c-1.89,6.71-1.69,13.4-1.65,20.32,0,7.21.29,14.43.51,21.64q.7,22.13,1.81,44.23,1.09,21.62,2.57,43.21c1,13.63,1,27.89,4.51,41.17,1.42,5.43,8.86,3.86,9.31-1.26,1.25-14.34.06-28.65-1.45-42.93q-2.22-21.09-4.48-42.17c-3-28-5.15-56.48-10.59-84.1-.57-2.93-5.18-2.22-5.15.7Z"/><path class="cls-3" d="M151.16,501.61l.39.15a1.28,1.28,0,0,0,1.42-.58c1.94-2.53-1.18-4.39-3.49-3.82a3.15,3.15,0,0,0-2.23,2.22c-1.61,7,2.72,13.83,8.89,17,3,1.53,5.81-1,5.33-4.1-4.65-29.79-7.83-59.77-9.76-89.86-.42-6.67-1.39-13.69-.59-20.36s5.22-12.32,7-18.81c3.24-11.62,2.47-26.38-2.13-37.5-1-2.37-4.34-2.12-4.54.61-1,13.8,3.16,26.94-3.33,40.12-2.86,5.81-5.25,10.94-5.58,17.53-.35,7.07.46,14.3.92,21.35a824,824,0,0,0,11,88.85l5.33-4.09c-3.72-1.8-7.27-6.74-6.56-10.55l-1.8,1.37-.28-1.66a1.14,1.14,0,0,0,0,2.17Z"/><path class="cls-3" d="M161.57,424.91c8.84,24.44,13.44,48.74,10.44,74.77l6.63-3.81c-4.2-2.66-3.63-9.13-3.51-13.45.19-6.82.32-13.61.05-20.43a251,251,0,0,0-5.11-40.69c-1-5-8-3.38-8.4,1.14a215.87,215.87,0,0,0,9.07,83.14c1.25,4,6,4.14,8.27,1.09,6-8.05,4.29-20.25,4.08-29.65-.28-12.47-1.28-24.89-2.76-37.27-1.44-12.07-2.92-24.29-.23-36.3,2.2-9.83,6.22-20.4,1.38-30-1.46-2.91-6.25-1.53-6.12,1.66.43,10.36-2.56,19.41-4.34,29.48-1.94,11.06-.91,22.17.42,33.24s2.39,22.16,2.83,33.31c.22,5.58.35,11.16.25,16.74-.1,5.09-.15,10-3.32,14.25l8.27,1.08a204.93,204.93,0,0,1-9.24-80.74l-8.4,1.14a237.42,237.42,0,0,1,5.09,48.14c0,10.57-3.16,24.91,7.27,31.76,3.11,2,6.23-.76,6.63-3.8,3.37-25.87-.45-54.33-13.42-77.23-1.74-3.06-7.08-1-5.83,2.46Z"/><path class="cls-3" d="M195.17,341c-.12,6.1,1.52,12.25,1.91,18.36a174.25,174.25,0,0,1,0,19.66c-.59,12.86-2.2,25.66-3.56,38.45l6.2-3.56c-1.31-.65-.51-7.52-.52-8.76,0-3.65-.06-7.3-.09-11-.06-7.3-.14-14.61-.17-21.92s-.05-14.61-.08-21.92c0-4.39.3-10-4.46-12.13-2.08-.93-5-.75-6.15,1.61-6.2,12.84-4.75,27.55-4.76,41.39l0,23.61c0,7.06-1.22,15.55,2.24,22a2.67,2.67,0,0,0,4.59,0c3-5.7,2.21-12.78,2.18-19l-.1-22.62c-.06-13-2.28-28.73,3.63-40.79L189.88,346c-.25-.73-.32-.76-.22-.09a22.66,22.66,0,0,1,.09,2.47c.06,2,.09,4,.14,6l.23,10q.25,11.46.46,22.92.19,11,.39,21.92c.07,4.44,0,9.65,4.61,11.88,3,1.46,5.87-.35,6.2-3.55,1.36-13.42,3-26.85,3.43-40.33a134.2,134.2,0,0,0-.76-19.64c-.69-6-1.43-12.53-4.56-17.78a2.55,2.55,0,0,0-4.72,1.28Z"/><path class="cls-3" d="M95.48,372.56l-.34-.44v3.08l-.78.66-3.57-1.45c.9,1.26.12,4.82.09,6.38,0,2.59,0,5.16.1,7.75q.28,6.79.72,13.56c.64,10,1.45,20,2.62,29.95,2.29,19.36,5.52,38.62,9.52,57.7,1,4.78,7.53,4,8.92,0,2.86-8.2,3.12-17.07,3.17-25.67,0-9.48-.09-19-.3-28.43q-.67-29.13-2.82-58.19c-.27-3.72-5.54-5.85-7.53-2-5.62,10.8-5.55,22.9-5.92,34.78L98,451.29h7.59c-.06-11.55-.26-23.1-.4-34.65,0-4.6-6.36-4.28-6.92,0-1.93,14.58-4.22,29.57-3.5,44.33.22,4.39,5.85,4.87,7.37,1,3.68-9.43,9.54-18.22,15.91-26l-5.81-4.49c-4.53,9.1-8.92,18.25-13.27,27.43l7.46,3.14c3.36-12.39,4.78-25.55,9.11-37.66,1.42-4-4.69-5.47-6.24-1.72-3.34,8.06-6.06,16.37-8.69,24.69l7.73,2.13c1.35-8.26,2.46-16.57,3.53-24.87.5-4-5.68-4.48-6.76-.91A107.84,107.84,0,0,0,101.76,471l7.84-2.16a80.63,80.63,0,0,1-4.82-35.15h-8c-.73,10.62-1.26,21.24-1.37,31.88-.09,8-.19,15.85,5.27,22.22,3.5,4.09,9.45-1.87,5.92-5.92-4.74-5.44-3-15.67-2.93-22.28.14-8.64.5-17.28,1.13-25.9.38-5.18-7.54-5.08-8,0a81.52,81.52,0,0,0,5,37.31,4.07,4.07,0,0,0,7.84-2.16,97.32,97.32,0,0,1,2.18-43.36l-6.63-1.82c-1.61,7.85-3.17,15.74-4.5,23.65-.85,5,6.12,7.13,7.73,2.13,2.67-8.29,5.25-16.61,7.2-25.1l-6.24-1.72c-2.25,12.66-7.53,24.78-10.74,37.21-1.12,4.31,5.45,7.48,7.46,3.15,4.28-9.24,8.51-18.49,12.61-27.81,2-4.41-3.49-7.52-6.39-3.74-6.68,8.68-11.87,18-17,27.65l7,1.9c.72-14.53.51-29,2.8-43.41l-6.8-.92c-.1,11.55-.25,23.1-.27,34.65,0,4.89,7.4,4.87,7.59,0q.72-18.6,1.43-37.18c.44-11.49-.34-24.16,5.2-34.61l-7.53-2q1.86,28.08,2.38,56.21.24,13.83.16,27.65c-.06,9-.47,17.43-3.43,26h8.92c-4.28-20.2-7.5-40.54-10-61q-1.86-14.94-3-30c-.4-5.17-.66-10.34-1.2-15.5-.37-3.55-.07-7.58-2.74-10.22a3.12,3.12,0,0,0-3.08-.82,4.35,4.35,0,0,0-3.11,3.1,3,3,0,0,0,.79,3l.41.38c2.36,2.19,6.88-.82,4.71-3.64Z"/><path class="cls-3" d="M58.09,216.73c-5.91-6.14-9.07-11.84-9.91-20.46a85.22,85.22,0,0,1-.43-10.84c.14-4.86,2.61-8.09,5.67-11.69l-7.54-3.12a104.37,104.37,0,0,0,2.8,25.09,99.39,99.39,0,0,0,3.65,12c1.12,3,4.78,8.37,3.92,11.61l2.11-2.75C53,219,47.6,211.62,47.73,207.14c.15-5.28,5.14-8.79,6-14a40.9,40.9,0,0,0,0-8.13,22.08,22.08,0,0,1,0-2.93c0-.1.76-2.89.75-2.92.8-1.08.08-1.16-2.17-.22l-.46,1.6c-.79,1.37-1.36,3-2.1,4.48-1.61,3.15-3.21,6.3-4.92,9.39l5.75-1.51c-3.57-2.49-1.14-9.65.76-12.36.57-.82,1.41-1.45,2-2.25l1.25-1q-2.84-4.43-4.09-1.68c-1.46,1.19-2.48,4.38-3.21,6.07-3.42,8-6.54,19-3.38,27.47.88,2.37,5,3.08,5.55,0,.74-4.28.54-8.62,1.37-12.88a38.65,38.65,0,0,1,5-12.77c1.94-3.2,5.2-6.18,4.54-10.24a6.16,6.16,0,0,0-6-5.28c-6.43.19-11.76,8.76-13.28,14.16-1.84,6.53-.78,14.24,5.33,18A4.23,4.23,0,0,0,52,198.61c3.22-6.68,9.73-15,8.46-22.93-.95-5.92-6.52-7.7-11.22-4.1-6.18,4.73-4.62,11.84-4.89,18.56-.16,4-3.32,6.53-4.77,10.06a18.61,18.61,0,0,0-1.2,9.68,18.29,18.29,0,0,0,11.4,14.61c5.31,2.13,15.52,2.79,15.8-5.22.12-3.34-1.4-6.59-2.69-9.56a105.71,105.71,0,0,1-4.52-12,93,93,0,0,1-3.68-27c0-3.6-5-6.12-7.53-3.12-3.28,3.86-6.66,7.94-7.67,13.05-1.07,5.41-.22,11.67.5,17.09,1.29,9.68,5.72,19.91,15.52,23.48,2.58.94,4.26-2.61,2.56-4.39Z"/><path class="cls-3" d="M146.53,365c-.49,18.15-1.18,36.29-1.59,54.45l8-1.09a45.42,45.42,0,0,1,3.9-26.21c1.36-2.8,4-8.2,7.78-8.19,4.8,0,4,7.8,4.29,11.16a208.86,208.86,0,0,1-3.74,56.94l9,1.22c.38-21.28,13.7-39.86,13.87-61.24,0-6.2-9.53-6.2-9.64,0l-1.38,72.85c-.11,5.59,9,7.11,10,1.35,3.76-21.62,7.41-43.26,11.19-64.87L188.15,400c-.61,13.14-1.53,26.27-6.39,38.64-2,5.17,6.67,8.88,9,3.8C197,429,197.87,414.6,198.45,400c.22-5.69-9.14-7.17-10.12-1.37-3.65,21.64-7.41,43.26-11.08,64.9l10,1.36.84-72.85h-9.64c0,21.3-13,39.93-13.41,61.24-.09,5.07,8,6.37,9,1.22a207.26,207.26,0,0,0,4.22-41.19q0-10.06-1-20.1c-.48-4.91-.49-10.93-4.33-14.6-8.09-7.75-18.4.16-22.51,7.85-5.63,10.5-7.13,22.4-5.37,34.08.69,4.59,8.16,3.45,8-1.09-.5-18.16-1.27-36.3-1.85-54.45a2.38,2.38,0,0,0-4.75,0Z"/><path class="cls-3" d="M83.83,401.83l-.33-2.74c-.31-2.58-4.13-3.6-4.87-.66-1,4-.16,8.22.13,12.28.35,4.86.83,9.69,1.34,14.53,1,9.37,1.93,18.74,3.08,28.09.58,4.71,7.67,6.67,9,1.21l8.45-35.42-9.07-1.23-1.23,26.8,5.89-4.48c-1.52-.36-2.43-6.6-2.75-7.84q-1.29-5-2.12-10.05a109.93,109.93,0,0,1-1.16-21.14h-9q0,19.13-.08,38.25l8.3-2.24c-10.64-15.6-8.88-37.47,4.54-50.89l-7.12-.91a47.83,47.83,0,0,1-2.57,42.76h8a37.67,37.67,0,0,1-8-22.38,38.71,38.71,0,0,1,1.5-11.58,33.72,33.72,0,0,1,2.13-5.56c.42-.87.88-1.71,1.37-2.53s1.79-1.73.31-1.85l-3.35-1.39c-.22-.29-.24,3.6-.21,4.24.1,1.93.18,3.86.22,5.79q.15,6.25-.1,12.53a195.83,195.83,0,0,1-2.56,24.63l8.59-1.13c-9-19.92-9-41.8-2.13-62.31l-7.49,2c4.3,5.32,5.4,12.3,7.13,18.72.93,3.43,6.33,2.79,6.26-.85-.16-8.18-1.47-16.51-6.35-23.3a4.55,4.55,0,0,0-8.19,1.07c-8.74,22.32-7,47.77,2.66,69.44,1.59,3.57,7.93,2.74,8.58-1.12a211.64,211.64,0,0,0,3.07-39.65c-.1-4.66.9-12.13-2.16-16-2.93-3.67-7.49-2.3-10.12.89-12.5,15.19-10.76,40,.82,55,2,2.62,6.12,3.33,8,0a57.6,57.6,0,0,0,2.39-52c-1.2-2.71-5.25-2.8-7.12-.91-16,16.16-18.74,42.93-5.82,61.78,2.41,3.52,8.28,2.39,8.29-2.25q.06-19.12.22-38.25c0-5.83-8.8-5.79-9,0a119.39,119.39,0,0,0,2.33,29.1c1.32,6.41,2.57,17.07,10.26,18.9a4.72,4.72,0,0,0,5.89-4.49l1.16-26.8c.23-5.18-7.87-6.3-9.06-1.23l-8.36,35.45,9,1.22c-1.18-9.43-2.57-18.83-3.91-28.23-.64-4.5-1.26-9-2-13.46s-1-9.71-3.21-13.8l-3.9,3,2.11,2c.82.78,2.62.3,2.46-1Z"/><path class="cls-3" d="M115.39,462c.26-3.29,1.9-7.17,5.93-5.64,3.48,1.32,4,5.84,4.06,9,.1,5.71-1.21,11,0,16.69.79,3.68,7.17,2.94,6.69-.91a29.81,29.81,0,0,1,.79-12.18,21.7,21.7,0,0,1,2.59-6,1.19,1.19,0,0,0,.26-1.55,15.27,15.27,0,0,1,.83,3.39c1.86,9,2,18.49,1.5,27.64h7.44A62.67,62.67,0,0,1,157.21,453l-7.42-2a336.8,336.8,0,0,1-1.2,37.45h8.73c-.69-11,1.47-22.05,8.06-31.08l-7.82-2.12a247.14,247.14,0,0,1-10.25,48.05l8.77,1.18c2.11-17.05,11.86-32,15-48.85l-8.87-1.2c-.61,12.19-1.23,24.38-1.76,36.57l-.77,17.79c-.07,1.5.09,17.5-3.68,15.46s-7.16,2.64-4.43,5.75c4,4.51,11,3.39,14.36-1.39,3.92-5.64,2.88-14.31,3.16-20.81q1.17-26.69,2.15-53.37c.19-5-8-6.28-8.87-1.2-3.11,17.72-13,33.29-15.24,51.25-.64,5.2,7.29,5.75,8.77,1.19a208.56,208.56,0,0,0,10-50.42c.29-4.29-5.78-5.52-7.82-2.12-6.48,10.84-10.44,22.56-9.54,35.32a4.37,4.37,0,0,0,8.73,0,216.87,216.87,0,0,0,.43-37.45,4,4,0,0,0-7.42-2,70.52,70.52,0,0,0-12.28,43.58c.26,4.77,7.22,4.79,7.44,0a127.14,127.14,0,0,0-1.08-23.4c-.65-4.63-.94-12.46-6.2-14.57-5.05-2-8.1,3.35-9.92,7.17a34.54,34.54,0,0,0-3,19.49l6.69-.9c-2-9.09,3.36-22.88-7.65-28-7.88-3.67-13,2.17-13,9.73,0,2.65,3.86,2.58,4.06,0Z"/><path class="cls-3" d="M153.11,426.61c-1-8.87.17-17.75,2.29-26.39s5.52-16.6,7.19-25.2c.65-3.35-3.94-5.73-5.77-2.44-8.93,16.09-13.14,36.65-9.42,54.8.65,3.16,6,2.51,5.71-.77Z"/></g></g></svg>